<svg width="80" height="80" viewBox="0 0 80 80" fill="none" xmlns="http://www.w3.org/2000/svg">
<g clip-path="url(#clip0)">
<path d="M14.0796 5.97373C-7.06529 24.6516 20.1469 42.7564 17.555 63.1656C16.4027 72.2394 20.0635 80.9138 32.0402 79.9225C46.636 78.7144 41.3377 64.7336 44.3942 55.4259C49.6536 39.4102 82.0083 43.1509 68.5966 18.4809C60.0375 2.73748 28.6331 -6.88175 14.0796 5.97373Z" fill="url(#paint0_linear)"/>
<path opacity="0.1" d="M73.5169 22.4891C72.3575 21.3297 70.4778 21.3297 69.3185 22.4891L61.4685 30.3391H50.9319V20.8594C50.9319 19.9969 50.2319 19.2969 49.3694 19.2969H15.1506C14.2881 19.2969 13.5881 19.9969 13.5881 20.8594V64.2969C13.5881 67.7484 16.3866 70.5469 19.8381 70.5469H57.9631C61.4147 70.5469 64.2131 67.7484 64.2131 64.2969V35.9912L73.517 26.6875C74.6763 25.5281 74.6763 23.6483 73.5169 22.4891Z" fill="#4F33AF"/>
<path d="M64.213 27.6829V60.0782C64.213 63.5298 61.4146 66.3282 57.963 66.3282H28.9646V26.1204H62.6505C63.4365 26.1204 64.088 26.7016 64.1958 27.4579C64.2083 27.5313 64.213 27.6063 64.213 27.6829Z" fill="white"/>
<path d="M57.1816 66.3281H19.8379C16.3863 66.3281 13.5879 63.5297 13.5879 60.0781V16.6406C13.5879 15.7781 14.2879 15.0781 15.1504 15.0781H49.3691C50.2316 15.0781 50.9316 15.7781 50.9316 16.6406V60.0781C50.9316 63.5297 53.7301 66.3281 57.1816 66.3281Z" fill="white"/>
<path d="M50.9317 28.3853V16.6406C50.9317 15.7781 50.2317 15.0781 49.3692 15.0781H15.1504C14.2879 15.0781 13.5879 15.7781 13.5879 16.6406V28.3853H50.9317Z" fill="#4F33AF"/>
<path d="M50.9317 28.3853V16.6406C50.9317 15.7781 50.2317 15.0781 49.3692 15.0781H15.1504C14.2879 15.0781 13.5879 15.7781 13.5879 16.6406V28.3853H50.9317Z" fill="white" fill-opacity="0.4"/>
<path d="M44.9626 51.2424H19.2725C18.8409 51.2424 18.4912 50.8926 18.4912 50.4612C18.4912 50.0298 18.8409 49.6799 19.2725 49.6799H44.9626C45.3942 49.6799 45.7439 50.0298 45.7439 50.4612C45.7439 50.8927 45.3942 51.2424 44.9626 51.2424Z" fill="#4F33AF"/>
<path d="M34.4382 58.5505H19.2727C18.8411 58.5505 18.4915 58.2007 18.4915 57.7693C18.4915 57.3379 18.8411 56.988 19.2727 56.988H34.4382C34.8697 56.988 35.2194 57.3379 35.2194 57.7693C35.2194 58.2007 34.8696 58.5505 34.4382 58.5505Z" fill="#4F33AF"/>
<path d="M44.9626 41.8674H19.2725C18.8409 41.8674 18.4912 41.5176 18.4912 41.0862C18.4912 40.6548 18.8409 40.3049 19.2725 40.3049H44.9626C45.3942 40.3049 45.7439 40.6548 45.7439 41.0862C45.7439 41.5177 45.3942 41.8674 44.9626 41.8674Z" fill="#4F33AF"/>
<path d="M44.9626 44.9924H19.2725C18.8409 44.9924 18.4912 44.6426 18.4912 44.2112C18.4912 43.7798 18.8409 43.4299 19.2725 43.4299H44.9626C45.3942 43.4299 45.7439 43.7798 45.7439 44.2112C45.7439 44.6427 45.3942 44.9924 44.9626 44.9924Z" fill="#4F33AF"/>
<path d="M44.9626 48.1174H19.2725C18.8409 48.1174 18.4912 47.7676 18.4912 47.3362C18.4912 46.9048 18.8409 46.5549 19.2725 46.5549H44.9626C45.3942 46.5549 45.7439 46.9048 45.7439 47.3362C45.7439 47.7677 45.3942 48.1174 44.9626 48.1174Z" fill="#4F33AF"/>
<path d="M26.0079 32.4924H19.2725C18.8409 32.4924 18.4912 32.1426 18.4912 31.7112C18.4912 31.2798 18.8409 30.9299 19.2725 30.9299H26.0079C26.4395 30.9299 26.7892 31.2798 26.7892 31.7112C26.7892 32.1427 26.4395 32.4924 26.0079 32.4924Z" fill="#4F33AF"/>
<path d="M26.0079 25.7737H19.2725C18.8409 25.7737 18.4912 25.4238 18.4912 24.9924C18.4912 24.561 18.8409 24.2112 19.2725 24.2112H26.0079C26.4395 24.2112 26.7892 24.561 26.7892 24.9924C26.7892 25.424 26.4395 25.7737 26.0079 25.7737Z" fill="#4F33AF"/>
<path d="M26.0079 22.9385H19.2725C18.8409 22.9385 18.4912 22.5886 18.4912 22.1572C18.4912 21.7258 18.8409 21.376 19.2725 21.376H26.0079C26.4395 21.376 26.7892 21.7258 26.7892 22.1572C26.7892 22.5886 26.4395 22.9385 26.0079 22.9385Z" fill="#4F33AF"/>
<path d="M44.1688 22.9385H42.5896C42.158 22.9385 41.8083 22.5886 41.8083 22.1572C41.8083 21.7258 42.158 21.376 42.5896 21.376H44.1688C44.6004 21.376 44.9501 21.7258 44.9501 22.1572C44.9501 22.5886 44.6004 22.9385 44.1688 22.9385Z" fill="#4F33AF"/>
<path d="M44.9626 35.6174H19.2725C18.8409 35.6174 18.4912 35.2676 18.4912 34.8362C18.4912 34.4048 18.8409 34.0549 19.2725 34.0549H44.9626C45.3942 34.0549 45.7439 34.4048 45.7439 34.8362C45.7439 35.2677 45.3942 35.6174 44.9626 35.6174Z" fill="#4F33AF"/>
<path d="M44.9626 38.7424H19.2725C18.8409 38.7424 18.4912 38.3926 18.4912 37.9612C18.4912 37.5298 18.8409 37.1799 19.2725 37.1799H44.9626C45.3942 37.1799 45.7439 37.5298 45.7439 37.9612C45.7439 38.3927 45.3942 38.7424 44.9626 38.7424Z" fill="#4F33AF"/>
<path d="M7.3341 48.2602C7.1341 48.2602 6.93426 48.184 6.7816 48.0313L5.06285 46.3126C4.7577 46.0076 4.7577 45.5129 5.06285 45.2079L6.7816 43.4891C7.08676 43.184 7.58129 43.184 7.88645 43.4891L9.6052 45.2079C9.91035 45.5129 9.91035 46.0076 9.6052 46.3126L7.88645 48.0313C7.73395 48.184 7.5341 48.2602 7.3341 48.2602ZM6.7202 45.7602L7.3341 46.3741L7.94801 45.7602L7.3341 45.1463L6.7202 45.7602Z" fill="#4F33AF"/>
<path d="M7.3341 48.2602C7.1341 48.2602 6.93426 48.184 6.7816 48.0313L5.06285 46.3126C4.7577 46.0076 4.7577 45.5129 5.06285 45.2079L6.7816 43.4891C7.08676 43.184 7.58129 43.184 7.88645 43.4891L9.6052 45.2079C9.91035 45.5129 9.91035 46.0076 9.6052 46.3126L7.88645 48.0313C7.73395 48.184 7.5341 48.2602 7.3341 48.2602ZM6.7202 45.7602L7.3341 46.3741L7.94801 45.7602L7.3341 45.1463L6.7202 45.7602Z" fill="white" fill-opacity="0.4"/>
<path d="M9.05274 68.8281C8.62133 68.8281 8.27149 68.4784 8.27149 68.0469C8.27149 67.5298 7.85102 67.1094 7.33399 67.1094C6.90258 67.1094 6.55273 66.7597 6.55273 66.3281C6.55273 65.8966 6.90258 65.5469 7.33399 65.5469C7.85102 65.5469 8.27149 65.1264 8.27149 64.6094C8.27149 64.1778 8.62133 63.8281 9.05274 63.8281C9.48414 63.8281 9.83399 64.1778 9.83399 64.6094C9.83399 65.1264 10.2545 65.5469 10.7715 65.5469C11.2029 65.5469 11.5527 65.8966 11.5527 66.3281C11.5527 66.7597 11.2029 67.1094 10.7715 67.1094C10.2545 67.1094 9.83399 67.5298 9.83399 68.0469C9.83399 68.4784 9.48414 68.8281 9.05274 68.8281Z" fill="#4F33AF"/>
<path d="M9.05274 68.8281C8.62133 68.8281 8.27149 68.4784 8.27149 68.0469C8.27149 67.5298 7.85102 67.1094 7.33399 67.1094C6.90258 67.1094 6.55273 66.7597 6.55273 66.3281C6.55273 65.8966 6.90258 65.5469 7.33399 65.5469C7.85102 65.5469 8.27149 65.1264 8.27149 64.6094C8.27149 64.1778 8.62133 63.8281 9.05274 63.8281C9.48414 63.8281 9.83399 64.1778 9.83399 64.6094C9.83399 65.1264 10.2545 65.5469 10.7715 65.5469C11.2029 65.5469 11.5527 65.8966 11.5527 66.3281C11.5527 66.7597 11.2029 67.1094 10.7715 67.1094C10.2545 67.1094 9.83399 67.5298 9.83399 68.0469C9.83399 68.4784 9.48414 68.8281 9.05274 68.8281Z" fill="white" fill-opacity="0.4"/>
<path d="M59.5254 19.9006C59.094 19.9006 58.7441 19.5509 58.7441 19.1194C58.7441 18.6024 58.3237 18.1819 57.8066 18.1819C57.3752 18.1819 57.0254 17.8322 57.0254 17.4006C57.0254 16.9691 57.3752 16.6194 57.8066 16.6194C58.3237 16.6194 58.7441 16.1989 58.7441 15.6819C58.7441 15.2503 59.094 14.9006 59.5254 14.9006C59.9568 14.9006 60.3066 15.2503 60.3066 15.6819C60.3066 16.1989 60.7271 16.6194 61.2441 16.6194C61.6755 16.6194 62.0254 16.9691 62.0254 17.4006C62.0254 17.8322 61.6755 18.1819 61.2441 18.1819C60.7271 18.1819 60.3066 18.6024 60.3066 19.1194C60.3066 19.5509 59.9568 19.9006 59.5254 19.9006Z" fill="#4F33AF"/>
<path d="M59.5254 19.9006C59.094 19.9006 58.7441 19.5509 58.7441 19.1194C58.7441 18.6024 58.3237 18.1819 57.8066 18.1819C57.3752 18.1819 57.0254 17.8322 57.0254 17.4006C57.0254 16.9691 57.3752 16.6194 57.8066 16.6194C58.3237 16.6194 58.7441 16.1989 58.7441 15.6819C58.7441 15.2503 59.094 14.9006 59.5254 14.9006C59.9568 14.9006 60.3066 15.2503 60.3066 15.6819C60.3066 16.1989 60.7271 16.6194 61.2441 16.6194C61.6755 16.6194 62.0254 16.9691 62.0254 17.4006C62.0254 17.8322 61.6755 18.1819 61.2441 18.1819C60.7271 18.1819 60.3066 18.6024 60.3066 19.1194C60.3066 19.5509 59.9568 19.9006 59.5254 19.9006Z" fill="white" fill-opacity="0.4"/>
<path d="M53.9218 13.1099C53.4904 13.1099 53.1405 12.7602 53.1405 12.3286C53.1405 11.8116 52.7199 11.3911 52.2029 11.3911C51.7715 11.3911 51.4216 11.0414 51.4216 10.6099C51.4216 10.1783 51.7715 9.82861 52.2029 9.82861C52.7199 9.82861 53.1405 9.40814 53.1405 8.89111C53.1405 8.45955 53.4904 8.10986 53.9218 8.10986C54.3532 8.10986 54.703 8.45955 54.703 8.89111C54.703 9.40814 55.1235 9.82861 55.6405 9.82861C56.0719 9.82861 56.4218 10.1783 56.4218 10.6099C56.4218 11.0414 56.0719 11.3911 55.6405 11.3911C55.1237 11.3911 54.703 11.8116 54.703 12.3286C54.703 12.7602 54.3533 13.1099 53.9218 13.1099Z" fill="#4F33AF"/>
<path d="M53.9218 13.1099C53.4904 13.1099 53.1405 12.7602 53.1405 12.3286C53.1405 11.8116 52.7199 11.3911 52.2029 11.3911C51.7715 11.3911 51.4216 11.0414 51.4216 10.6099C51.4216 10.1783 51.7715 9.82861 52.2029 9.82861C52.7199 9.82861 53.1405 9.40814 53.1405 8.89111C53.1405 8.45955 53.4904 8.10986 53.9218 8.10986C54.3532 8.10986 54.703 8.45955 54.703 8.89111C54.703 9.40814 55.1235 9.82861 55.6405 9.82861C56.0719 9.82861 56.4218 10.1783 56.4218 10.6099C56.4218 11.0414 56.0719 11.3911 55.6405 11.3911C55.1237 11.3911 54.703 11.8116 54.703 12.3286C54.703 12.7602 54.3533 13.1099 53.9218 13.1099Z" fill="white" fill-opacity="0.4"/>
<path d="M45.1753 27.1764C45.1753 25.7047 43.978 24.5073 42.5062 24.5073C41.0345 24.5073 39.8372 25.7047 39.8372 27.1764C39.8372 27.9023 40.1292 28.5604 40.6011 29.0422C40.1293 29.5239 39.8372 30.1822 39.8372 30.9079C39.8372 31.3515 40.1968 31.7112 40.6404 31.7112C41.084 31.7112 41.4437 31.3515 41.4437 30.9079C41.4437 30.3222 41.9203 29.8454 42.5062 29.8454C43.092 29.8454 43.5687 30.322 43.5687 30.9079C43.5687 31.3515 43.9284 31.7112 44.372 31.7112C44.8156 31.7112 45.1753 31.3515 45.1753 30.9079C45.1753 30.1822 44.8833 29.5239 44.4114 29.0422C44.8833 28.5604 45.1753 27.9022 45.1753 27.1764ZM42.5062 26.1139C43.092 26.1139 43.5687 26.5904 43.5687 27.1764C43.5687 27.7622 43.0922 28.2389 42.5062 28.2389C41.9204 28.2389 41.4437 27.7622 41.4437 27.1764C41.4437 26.5904 41.9204 26.1139 42.5062 26.1139Z" fill="#4F33AF"/>
<path d="M38.7498 56.7209L34.336 58.4648C33.7001 58.7161 33.071 58.087 33.3223 57.4511L35.0662 53.0372C35.288 52.4758 35.6227 51.9658 36.0496 51.5389L69.3185 18.2703C70.4779 17.1109 72.3576 17.1109 73.517 18.2703C74.6763 19.4297 74.6763 21.3094 73.517 22.4687L40.248 55.7375C39.8212 56.1644 39.3112 56.4992 38.7498 56.7209Z" fill="#4F33AF"/>
<path d="M38.7498 56.7209L34.336 58.4648C33.7001 58.7161 33.071 58.087 33.3223 57.4511L35.0662 53.0372C35.288 52.4758 35.6227 51.9658 36.0496 51.5389L69.3185 18.2703C70.4779 17.1109 72.3576 17.1109 73.517 18.2703C74.6763 19.4297 74.6763 21.3094 73.517 22.4687L40.248 55.7375C39.8212 56.1644 39.3112 56.4992 38.7498 56.7209Z" fill="white" fill-opacity="0.4"/>
<path d="M66.1328 21.4517L67.1823 20.4022L71.3801 24.6L70.3306 25.6495L66.1328 21.4517Z" fill="white"/>
<path d="M60.7678 26.8157L65.159 22.4245L69.3568 26.6224L64.9656 31.0135L60.7678 26.8157Z" fill="white"/>
<path d="M59.1169 31.5653L63.8796 26.8027C64.1848 26.4975 64.6794 26.4977 64.9844 26.8027C65.2896 27.1077 65.2896 27.6024 64.9844 27.9075L60.2218 32.6702C59.9166 32.9753 59.4219 32.9752 59.1169 32.6702C58.8119 32.3652 58.8119 31.8705 59.1169 31.5653Z" fill="#4F33AF"/>
<path d="M70.0148 44.3674C69.8148 44.3674 69.6149 44.2912 69.4623 44.1385L67.7435 42.4197C67.4384 42.1147 67.4384 41.6201 67.7435 41.3151L69.4623 39.5963C69.7674 39.2911 70.262 39.2911 70.5671 39.5963L72.2859 41.3151C72.591 41.6201 72.591 42.1147 72.2859 42.4197L70.5671 44.1385C70.4146 44.2912 70.2148 44.3674 70.0148 44.3674ZM69.4009 41.8674L70.0148 42.4813L70.6287 41.8674L70.0148 41.2535L69.4009 41.8674Z" fill="#4F33AF"/>
<path d="M70.0148 44.3674C69.8148 44.3674 69.6149 44.2912 69.4623 44.1385L67.7435 42.4197C67.4384 42.1147 67.4384 41.6201 67.7435 41.3151L69.4623 39.5963C69.7674 39.2911 70.262 39.2911 70.5671 39.5963L72.2859 41.3151C72.591 41.6201 72.591 42.1147 72.2859 42.4197L70.5671 44.1385C70.4146 44.2912 70.2148 44.3674 70.0148 44.3674ZM69.4009 41.8674L70.0148 42.4813L70.6287 41.8674L70.0148 41.2535L69.4009 41.8674Z" fill="white" fill-opacity="0.4"/>
<path d="M68.766 17.7178L61.1452 25.3384H56.1912C55.7598 25.3384 55.4099 25.6881 55.4099 26.1197C55.4099 26.5513 55.7598 26.9009 56.1912 26.9009H59.5827L51.7129 34.7706V16.6406C51.7129 15.3481 50.6615 14.2969 49.3691 14.2969H15.1504C13.858 14.2969 12.8066 15.3481 12.8066 16.6406V60.0781C12.8066 63.9553 15.9609 67.1094 19.8379 67.1094H28.9646H57.9629C61.8399 67.1094 64.9941 63.9553 64.9941 60.0781V32.1614C64.9941 32.1411 64.9896 32.122 64.9882 32.102L74.0691 23.0211C75.5312 21.5591 75.5312 19.18 74.0691 17.718C72.6073 16.2558 70.2282 16.2556 68.766 17.7178ZM63.4318 60.0781C63.4318 63.0936 60.9785 65.5469 57.9631 65.5469H57.1818C54.1663 65.5469 51.7131 63.0936 51.7131 60.0781V50.4611C51.7131 50.0295 51.3632 49.6798 50.9318 49.6798C50.5004 49.6798 50.1506 50.0295 50.1506 50.4611V60.0781C50.1506 62.2845 51.1721 64.2567 52.7671 65.5469H28.9648H19.838C16.8226 65.5469 14.3693 63.0936 14.3693 60.0781V16.6406C14.3693 16.2098 14.7198 15.8594 15.1505 15.8594H49.3693C49.8001 15.8594 50.1506 16.2098 50.1506 16.6406V36.3333L35.4973 50.9866C34.9918 51.4919 34.6023 52.0853 34.3396 52.7503L32.5957 57.1642C32.3632 57.7525 32.4966 58.3958 32.944 58.843C33.2459 59.145 33.6371 59.3039 34.0404 59.3039C34.2348 59.3039 34.4318 59.267 34.6232 59.1914L39.0371 57.4475C39.7018 57.1847 40.2952 56.7953 40.8009 56.2898L63.4321 33.6584V60.0781H63.4318ZM72.9645 21.9164L39.6957 55.1852C39.3423 55.5386 38.9274 55.8109 38.4626 55.9945L34.0487 57.7384L35.7927 53.3245C35.9763 52.8597 36.2485 52.445 36.602 52.0916L69.8709 18.8227C70.2973 18.3962 70.8574 18.183 71.4177 18.183C71.9779 18.183 72.538 18.3962 72.9645 18.8227C73.8173 19.6756 73.8173 21.0634 72.9645 21.9164Z" fill="#4F33AF"/>
</g>
<defs>
<linearGradient id="paint0_linear" x1="5.97455" y1="40" x2="71.8264" y2="40" gradientUnits="userSpaceOnUse">
<stop stop-color="#D2DEFF" stop-opacity="0"/>
<stop offset="1" stop-color="#B7C5FF"/>
</linearGradient>
<clipPath id="clip0">
<rect width="80" height="80" fill="white"/>
</clipPath>
</defs>
</svg>
