<svg xmlns="http://www.w3.org/2000/svg" width="441" height="400" fill="none" viewBox="0 0 441 400"><circle cx="337" cy="110" r="57" fill="#fff" opacity=".4"/><path fill="#fff" d="M183.998 89.5C183.998 106.872 177.044 123.532 164.667 135.815C152.29 148.099 135.502 155 117.998 155C100.494 155 83.7064 148.099 71.329 135.815C58.9516 123.532 51.998 106.872 51.998 89.5L117.998 89.5H183.998Z" opacity=".4"/><path fill="#E8E8E8" d="M41 306.002C41 290.62 47.1634 275.867 58.1343 264.99C69.1051 254.113 83.9848 248.002 99.5 248.002C115.015 248.002 129.895 254.113 140.866 264.99C151.837 275.867 158 290.62 158 306.002L99.5 306.002L41 306.002Z" opacity=".4"/><path fill="#fff" d="M178.409 237.618C177.056 246.235 171.31 253.525 163.247 256.852L99.9289 282.98C88.1839 287.826 74.6717 283.093 68.5193 271.976L43.7176 227.163C38.8436 218.356 39.7264 207.485 45.9575 199.58L95.3297 136.946C101.561 129.042 111.925 125.645 121.626 128.327L170.992 141.978C183.238 145.364 190.997 157.397 189.027 169.949L178.409 237.618Z" opacity=".4"/><path fill="#F5F5F5" d="M324 67.5C324 85.4021 316.888 102.571 304.23 115.23C291.571 127.888 274.402 135 256.5 135C238.598 135 221.429 127.888 208.77 115.23C196.112 102.571 189 85.4021 189 67.5L256.5 67.5L324 67.5Z" opacity=".4"/><path fill="#fff" d="M179 326.5C179 308.598 186.164 291.429 198.917 278.77C211.669 266.112 228.965 259 247 259C265.035 259 282.331 266.112 295.083 278.77C307.836 291.429 315 308.598 315 326.5L247 326.5L179 326.5Z" opacity=".4"/><rect width="118" height="118" x="197" y="135" fill="#fff" opacity=".2" rx="26"/><circle cx="372" cy="192" r="57" fill="#fff" opacity=".4"/><path fill="#fff" d="M410.267 254C422.275 254 428.711 268.128 420.829 277.189L338.563 371.762C330.066 381.531 314 375.521 314 362.574L314 268C314 260.268 320.268 254 328 254L410.267 254Z" opacity=".4"/><path fill="#EFEFEF" d="M112.998 239C112.998 225.193 124.191 214 137.998 214H238.862C256.334 214 268.417 231.465 262.256 247.815L255.097 266.815C251.427 276.553 242.109 283 231.702 283H137.998C124.191 283 112.998 271.807 112.998 258V239Z" opacity=".4"/></svg>