<svg xmlns="http://www.w3.org/2000/svg" xmlns:xlink="http://www.w3.org/1999/xlink" id="_44ab1b28-df60-43dd-96f3-344df6392e15" data-name="44ab1b28-df60-43dd-96f3-344df6392e15" viewBox="0 0 1073.8 784.5"><defs><style>.cls-1,.cls-17{fill:#5629b6}.cls-1,.cls-2,.cls-7{opacity:.1}.cls-1,.cls-12,.cls-2,.cls-26,.cls-5,.cls-7{isolation:isolate}.cls-2,.cls-25{fill:#6c63ff}.cls-3{fill:#3a3768}.cls-4{fill:#d48a9b}.cls-5{opacity:.05}.cls-6{fill:#efc6cd}.cls-8{fill:#fff}.cls-9{fill:#d3dae1}.cls-10{fill:url(#linear-gradient)}.cls-11{fill:#585b8a}.cls-12{opacity:.2}.cls-13{fill:#636992}.cls-14{fill:#ffd6d6}.cls-15{fill:#dce6f2}.cls-16{fill:#565988}.cls-18{fill:#505484}.cls-19{fill:#575988}.cls-20{fill:#4826a5}.cls-21{fill:#d28690}.cls-22{fill:#575989}.cls-23{fill:#353045}.cls-24{fill:#f0f3f7}.cls-26{opacity:.3}.cls-27{opacity:.15}.cls-28{fill:#ffd037}.cls-29{fill:#65617d}.cls-30{fill:#9d9cb5}.cls-31{fill:#4b4770}.cls-32{fill:#d4dfec}</style><linearGradient id="linear-gradient" x1="580.07" x2="580.07" y1="434.66" y2="500.64" gradientTransform="matrix(1, 0, 0, -1, -54.11, 791.57)" gradientUnits="userSpaceOnUse"><stop offset="0" stop-color="gray" stop-opacity=".25"/><stop offset=".54" stop-color="gray" stop-opacity=".12"/><stop offset="1" stop-color="gray" stop-opacity=".1"/></linearGradient></defs><title>1</title><path d="M1077.9,239l-.6,2.7c-6.6,30.2-17.3,59.4-33.2,86.1l-1.6,2.7a247.8,247.8,0,0,1-37.5,47.3c-7.9,7.8-16.6,15.3-26.9,20.6-14.4,7.6-31.3,10.6-47.8,13.1s-34.7,4.8-52.1,7.2l-18.5,2.6c-16.8,2.5-33.5,5.4-49.8,9.2-20.2,4.7-39.7,10.9-58.1,19.5-1.5.7-3,1.4-4.4,2.2l-4.3,2.2-4.2,2.2-2.2,1.2a22.5,22.5,0,0,0-2.1,1.2c-2.1,1.1-4.1,2.3-6.1,3.5h-.1l-4,2.5c-7.5,4.5-14.9,9.3-22.3,14.1l-4.7,3-7.1,4.7-4.3,2.7-3.1,2c-5.2,3.3-10.5,6.5-16,9.6l-3.9,2.2a217.3,217.3,0,0,1-34.4,15.6h-.2a158.2,158.2,0,0,1-18.2,5.2c-3.6.8-7.2,1.4-10.8,1.9a114.2,114.2,0,0,1-29.2.4c-19.1-2.2-36.9-9.5-56-12-39.2-5-77.4,11.1-114.3,23.7-9,3.1-18.2,6-27.4,8.7L354.1,552a697.1,697.1,0,0,1-115.7,20.3,323.5,323.5,0,0,1-49.2,1.1,184.8,184.8,0,0,1-18.4-2c-20.7-3.2-40-9.9-55.6-22.2-12.8-10.1-21.9-23.3-28.8-37a160.5,160.5,0,0,1-14.9-44.6c-.4-2.1-.8-4.2-1-6.3-.5-3.6-.9-7.3-1.2-10.9a157.6,157.6,0,0,1,6.9-57.9c6.6-20.9,17.6-41,22.5-62.1.2-.9.3-1.8.5-2.6a84.6,84.6,0,0,0,1.5-9.7c2.5-25.9-7-51.2-14.4-76.5-.3-.9-.5-1.8-.8-2.7-.8-2.8-1.6-5.6-2.3-8.4-6.9-26.8-8.8-55.5-2.7-82.2.2-.9.5-1.8.7-2.6a120.3,120.3,0,0,1,22.6-46.4c11.5-14.4,26.5-26.4,42.6-36.9,7.9-5.1,16-9.9,24.4-14.4,6-3.2,12.1-6.2,18.4-9.1,50.5-23,108-34.2,164.9-31.7l9,.5,9.5.8C409.2,12,444.9,20.6,480.3,30l35.6,9.5,15.8,4.2c25.8,6.7,52,12.7,78.5,17.2,6.1,1.1,12.3,2,18.4,2.9a516.5,516.5,0,0,0,64.5,5.5c8.4.2,16.8.1,25.2-.2l12.7-.7c43.9-3.1,86.3-13.4,128.7-23.1l18.5-4.1c8.1-1.8,16.1-3.5,24.3-5.1C953,26.1,998,31.8,1045,52.3c10.7,4.7,21.4,10.3,27.9,19s8.2,19.5,9.4,29.8c1.7,14.8,2.9,29.7,3.3,44.7v2.7C1086.3,178.8,1084.1,209.4,1077.9,239Z" class="cls-1" transform="translate(-18 -6.8)"/><path d="M742.7,327.8h-3.3v2.7h3.8Zm-37.4,0h0l-.3,2.2v.4h28.6l2-2.6Zm-76.7,0V241.7h32.9a4.1,4.1,0,0,0-1.1-.7l-.4-.3-.6-.4-1.1-.6-1-.5-.2-.2H628.6v-4.7l-.7.3-.9.4h-.2l-.5.2-.5.3-1.5.9-.5.3-1,.6c-1.3.9-2.5,1.8-3.9,2.6l-1,.7-2.1,1.1-1,.5-.6.2h-.5a24.2,24.2,0,0,1-3.6,1v84.2H560.8c0,.1.1.2.1.3s.5,1.6.8,2.4h48.5v92.4h3.2l2.5.3h2.6l2.2.3h1.5l1.6.2h4.8V330.5h76.3v-.4l.3-2.2H628.6Zm114.1,0h-3.3v2.7h3.8Zm-39.5,0-.3,2.7h31.9l2.1-2.7Zm-74.6,0V241.7h32.9a4.1,4.1,0,0,0-1.1-.7l-.4-.3-.6-.4-1.1-.6-1-.5-.2-.2H628.6v-4.7l-.7.3-.8.4h-.3l-.5.2-.5.3-1.5.9-.5.3-1,.6L619,240l-1,.7-2.2,1.1-1,.5-.6.2h-.5a24.2,24.2,0,0,1-3.6,1v84.2H560.8c0,.1.1.2.1.3s.5,1.6.8,2.4h48.5v92.3h3.2l2.5.3h2.6l2.2.3h1.5l1.6.2h4.8V330.5h74.3l.3-2.7ZM878.2,148.4h207.4v-2.7H878.2V41.1l-18.5,4.2V145.7H634.1l-.6-.5.9-.7h0l83.9-75.4c-8.4.3-16.8.3-25.2.2l-64.5,57.9V63.8c-6.1-.9-12.3-1.8-18.4-2.9v63.4L515.9,39.5,480.3,30,608.6,145.2l-.6.5H372.6V8.5l-9.4-.7-9-.5V145.7h-165V39c-6.2,2.9-12.3,5.9-18.4,9.1v97.6H81.2c-.2.9-.5,1.8-.7,2.7h90.3V239H85.5c.3.9.5,1.8.8,2.7h84.5v86.1H99.2c-.2.9-.3,1.8-.5,2.7h72.1V571.4a184.8,184.8,0,0,0,18.4,2V330.5H354.1V552c6.2-1.6,12.4-3.3,18.5-5.1V330.5H610.2V524.1a165.9,165.9,0,0,0,18.3-5.2h.1V330.5H859.7v90.8l18.5-2.6V330.5h164.3l1.6-2.7H878.2V241.7h199.1l.6-2.7H878.2Zm-689,0H354.1V239H189.2Zm0,179.4V241.7H354.1v86.1ZM372.6,148.4H610.2V239H372.6Zm0,179.4V241.7H610.2v86.1Zm487.1,0H628.6V241.7H859.7Zm0-88.8H628.6V150.8l3.3-2.4H859.7ZM705.3,327.8h0l-.3,2.2v.4h28.6l2-2.6Zm37.4,0h-3.3v2.7h3.8Zm-114.1,0V241.7h32.9a4.1,4.1,0,0,0-1.1-.7l-.4-.3-.6-.4-1.1-.6-1-.5-.2-.2H628.6v-4.7l-.7.3-.9.4h-.2l-.5.2-.5.3-1.5.9-.5.3-1,.6c-1.3.9-2.5,1.8-3.9,2.6l-1,.7-2.1,1.1-1,.5-.6.2h-.5a24.2,24.2,0,0,1-3.6,1v84.2H560.8c0,.1.1.2.1.3s.5,1.6.8,2.4h48.5v92.4h3.2l2.5.3h2.6l2.2.3h1.5l1.6.2h4.8V330.5h76.3v-.4l.3-2.2H628.6Z" class="cls-2" transform="translate(-18 -6.8)"/><path d="M268.5,86h1.4a2.9,2.9,0,0,1-1.7-2.3h0c0-1.8,2.7-3.3,6.1-3.3h42.8c3.3,0,6.1,1.5,6.1,3.3h0c0,1.8-2.8,3.3-6.1,3.3h-1.5a2.8,2.8,0,0,1,1.8,2.4c0,1.5-2,2.8-4.7,3.2H325c3.4,0,6.1,1.5,6.1,3.3s-2.7,3.4-6.1,3.4H282.3c-3.4,0-6.1-1.5-6.1-3.4s2-2.8,4.6-3.2H268.5c-3.3,0-6.1-1.5-6.1-3.3S265.2,86,268.5,86Z" class="cls-2" transform="translate(-18 -6.8)"/><path d="M732,117.8h1.4a2.7,2.7,0,0,1-1.7-2.3h0c0-1.9,2.7-3.4,6-3.4h42.8c3.4,0,6.1,1.5,6.1,3.4h0c0,1.8-2.7,3.3-6.1,3.3h-1.4a2.9,2.9,0,0,1,1.7,2.3c0,1.6-2,2.9-4.6,3.3h12.3c3.3,0,6.1,1.5,6.1,3.3s-2.8,3.3-6.1,3.3H745.7c-3.3,0-6.1-1.5-6.1-3.3s2-2.9,4.7-3.2H732c-3.4,0-6.1-1.5-6.1-3.4S728.6,117.8,732,117.8Z" class="cls-2" transform="translate(-18 -6.8)"/><path d="M202.9,253.8h1.4a3.1,3.1,0,0,1-1.7-2.4h0c0-1.8,2.7-3.3,6.1-3.3h42.7c3.4,0,6.1,1.5,6.1,3.3h0c0,1.9-2.7,3.4-6.1,3.4H250a2.9,2.9,0,0,1,1.8,2.3c0,1.6-2,2.9-4.7,3.2h12.3c3.3,0,6.1,1.5,6.1,3.4s-2.8,3.3-6.1,3.3H216.7c-3.4,0-6.1-1.5-6.1-3.3s2-2.9,4.6-3.3H202.9c-3.4,0-6.1-1.5-6.1-3.3S199.6,253.8,202.9,253.8Z" class="cls-2" transform="translate(-18 -6.8)"/><ellipse cx="798.6" cy="567.3" class="cls-1" rx="65" ry="213.8" transform="matrix(0.2, -0.98, 0.98, 0.2, 64.89, 1229.31)"/><path d="M774.4,384.9s11.4-55.8,54.8-50.7c0,0,28.7,1.7,36,25.3,4,12.6,5.9,39.9,5.9,39.9Z" class="cls-3" transform="translate(-18 -6.8)"/><polygon points="994.2 398.7 607.6 366.7 558 377 561.1 446.3 564.5 446.7 568.3 550.7 947.7 618.9 988 584.8 988 472 993.1 469 994.2 398.7" class="cls-4"/><polygon points="994.7 398.7 993.7 469 951.8 488.6 951.3 415.3 994.7 398.7" class="cls-5"/><polygon points="988 472.1 988.5 582.7 948.2 616.8 950.8 488.6 988 472.1" class="cls-5"/><polygon points="565 450.8 951.1 497.9 951.3 489 564.7 447.3 565 450.8" class="cls-5"/><polygon points="988 476.2 988 472.1 949.7 489 949.7 497.9 988 476.2" class="cls-5"/><polygon points="557.5 377 607.1 366.7 993.7 398.7 950.3 415.3 557.5 377" class="cls-6"/><polygon points="952.5 400.7 971.5 402 940 411.4 924 410.2 952.5 400.7" class="cls-7"/><polygon points="952.5 399.9 971.5 401.1 940 410.5 924 409.4 952.5 399.9" class="cls-8"/><path d="M968.2,408.9c.8-.4,1.5.2,2.4.4h1.3c1,.1,1.9.7,2.8.4" class="cls-9" transform="translate(-18 -6.8)"/><path d="M967.2,409.4c.8-.3,1.6.3,2.4.5H971c.9.2,1.8.8,2.7.5" class="cls-9" transform="translate(-18 -6.8)"/><path d="M965,410.6c.7-.4,1.5.2,2.3.4h1.4c.9.1,1.9.7,2.7.4" class="cls-9" transform="translate(-18 -6.8)"/><polygon points="870.5 391.4 889.5 392.6 858 402 842 400.9 870.5 391.4" class="cls-7"/><polygon points="870.5 390.6 889.5 391.8 858 401.2 842 400.1 870.5 390.6" class="cls-8"/><path d="M886.2,399.5c.8-.3,1.5.3,2.4.5h1.3c1,.2,1.9.8,2.8.5" class="cls-9" transform="translate(-18 -6.8)"/><path d="M885.2,400.1c.8-.3,1.6.3,2.4.4H889c.9.1,1.8.8,2.7.4" class="cls-9" transform="translate(-18 -6.8)"/><path d="M883,401.2c.7-.3,1.5.3,2.3.5h1.4c.9.1,1.9.7,2.7.4" class="cls-9" transform="translate(-18 -6.8)"/><polygon points="909.8 396 928.8 397.3 897.4 406.7 881.3 405.5 909.8 396" class="cls-7"/><polygon points="909.8 395.2 928.8 396.5 897.4 405.9 881.3 404.7 909.8 395.2" class="cls-8"/><path d="M925.5,404.2c.8-.3,1.6.3,2.4.4h1.4c.9.1,1.8.8,2.7.4" class="cls-9" transform="translate(-18 -6.8)"/><path d="M924.6,404.8c.7-.4,1.5.2,2.3.4h1.4c.9.1,1.8.7,2.7.4" class="cls-9" transform="translate(-18 -6.8)"/><path d="M922.3,405.9c.7-.3,1.5.3,2.4.4H926c1,.1,1.9.8,2.8.5" class="cls-9" transform="translate(-18 -6.8)"/><ellipse cx="480.3" cy="742.9" class="cls-1" rx="202.5" ry="41.7"/><path d="M433.2,291.1h-.1a.4.4,0,0,1-.1-.3ZM617,314.3l-.7,1.6,2.6-2.6-3.6,4,1.2-2.5ZM599.2,351c-.7,1.9-1.4,3.9-2.2,5.9l1.4-4.2Z" class="cls-10" transform="translate(-18 -6.8)"/><path d="M541.8,410.9s-2.4,16.3,4.9,16.5S559,414.8,559,414.8l-3-10.2Z" class="cls-11" transform="translate(-18 -6.8)"/><path d="M541.8,410.9s-2.4,16.3,4.9,16.5S559,414.8,559,414.8l-3-10.2Z" class="cls-12" transform="translate(-18 -6.8)"/><path d="M377.2,763.9c-13.1.6-21.8-7.9-25.4-15.4-1.7-3.4-5.6-14.1-5.6-14.1s-1.1.5-3.4-2.9.7-11.8,2.3-17.7c.8-3,1.4-5,1.4-5l28.7,7.6,1.4,3.7,11.1,29.6S390.3,763.3,377.2,763.9Z" class="cls-13" transform="translate(-18 -6.8)"/><path d="M509.1,720.4s-24.9,6.1-37.5.6a58,58,0,0,0-25.3-4.8s-18.8.3-22.5-1.2c-2.1-.8-1-7.9.4-13.6.9-3.9,1.9-7.1,1.9-7.1s32.7-11.1,37.8-4.3a24.6,24.6,0,0,0,5.5,5.2c5.9,4.3,15.1,8.2,29.8,14.1C519.3,717.6,509.1,720.4,509.1,720.4Z" class="cls-13" transform="translate(-18 -6.8)"/><path d="M479.2,460.6l9.1,18.2s13.1,18.5-2.2,25.6S471,463.5,471,463.5Z" class="cls-14" transform="translate(-18 -6.8)"/><path d="M441.1,302.9s10,4.5,16,23.6S471,377.9,471,377.9s5.4,36.7,4.5,45.8a63.6,63.6,0,0,0,.3,15.1l7.7,25.5-15.4,5.4-23.5-90.3Z" class="cls-15" transform="translate(-18 -6.8)"/><path d="M441.1,302.9s10,4.5,16,23.6S471,377.9,471,377.9s5.4,36.7,4.5,45.8a63.6,63.6,0,0,0,.3,15.1l7.7,25.5-15.4,5.4-23.5-90.3Z" class="cls-5" transform="translate(-18 -6.8)"/><path d="M375.2,716.4l1.4,3.7-1.7,3.2c-6.6,2.8-22.7.6-22.7.6s-3-3.8-7.1-10.1c.7-2.9,1.4-5,1.4-5Z" class="cls-7" transform="translate(-18 -6.8)"/><path d="M470.4,696.6c-8.3,18.7-36.4,11.8-44.3,9.4l-2-.6s.1-1.6.1-4,1.9-7.1,1.9-7.1,32.7-11.1,37.8-4.3a22.7,22.7,0,0,0,5.5,5.2Z" class="cls-7" transform="translate(-18 -6.8)"/><path d="M423.6,571.2" class="cls-16" transform="translate(-18 -6.8)"/><path d="M424.1,559.8s-24.7,77.8-25.6,81.5L387,687.8l-12.1,33.8c-6.6,2.8-22.7.5-22.7.5s-3.2-4-7.4-10.5c0,0,12.3-85.9,16.1-114.5,7.8-58.8,5.5-93.5,5.5-93.5-3.7-27.6,6-63.4,6-63.4l.3-5,.5-8.1s81.3-5.1,87.8,1.1a20.9,20.9,0,0,1,4.2,6,61.5,61.5,0,0,1,4.7,15.1l3.4,86.1,3.4,63.4-1.1,47.7s.2,12-6.6,26.2,1.4,22.2,1.4,22.2c-8.3,18.7-36.5,11.8-44.3,9.4l-2-.6s.6-19.7-1.4-29-1.7-48.9-.6-53.8,1.7-14.2,1.7-14.2-.8-11,.6-16.4" class="cls-17" transform="translate(-18 -6.8)"/><path d="M358.7,610.4" class="cls-16" transform="translate(-18 -6.8)"/><path d="M420.6,571.2,442,502.7l-8.6,184.7-10.2,16.9-2-.6s.6-19.7-1.4-29-1.7-48.9-.6-53.8,4.6-14.2,4.6-14.2-.8-11,.6-16.4" class="cls-7" transform="translate(-18 -6.8)"/><path d="M353,701.1s22.2-8.8,25.6-6-26.1,7.1-26.1,7.1Z" class="cls-7" transform="translate(-18 -6.8)"/><path d="M462.5,677.8c-.9.3-22.5,8-20.5,16.2S462.5,677.8,462.5,677.8Z" class="cls-7" transform="translate(-18 -6.8)"/><path d="M395,257.3s7.2,17.5,3.4,26.4S439.7,308,439.7,308s-13.2-34.1-.4-53.3S395,257.3,395,257.3Z" class="cls-14" transform="translate(-18 -6.8)"/><path d="M659.5,763.3c-8.7,2-16.6,6.1-21.8,8.5-8.5,3.9-20.6,6.9-35.8,4.8s-12.5-18.6-.8-22.6c8.1-2.8,16.5-9.8,20.8-13.7l3.1-3,42.4-8.5s.7,2.3,1.6,5.6c1.7,5.8,4.3,14.3,5.2,17.6C675.7,757.2,668.2,761.4,659.5,763.3Z" class="cls-18" transform="translate(-18 -6.8)"/><path d="M648.6,730.5s-17.9,1.9-25.3-2.3-8.4.7-18.8,1.6-30.1.3-40.3-2.9,1.5-19,18.1-17.5c6.1.6,10.2-.8,13-2.7a13.5,13.5,0,0,0,5.6-8.4l36,2.1,5,12.8Z" class="cls-18" transform="translate(-18 -6.8)"/><path d="M642.4,719s-41.8-6.8-47.1-12.3a13.5,13.5,0,0,0,5.6-8.4l36,2.1,5,12.8Z" class="cls-7" transform="translate(-18 -6.8)"/><path d="M587.7,639.3" class="cls-19" transform="translate(-18 -6.8)"/><path d="M601.1,690s-6,8.3-6.4,13.9,47.7,13.4,47.7,13.4L623.7,525l-14.9-48.1-28.4,2.7s3.6,68.2,3.6,87.7" class="cls-19" transform="translate(-18 -6.8)"/><path d="M587.7,639.3" class="cls-7" transform="translate(-18 -6.8)"/><path d="M601.1,690s-6,8.3-6.4,13.9,47.7,13.4,47.7,13.4L623.7,525l-14.9-48.1-28.4,2.7s2.9,68.2,3.6,87.7" class="cls-20" transform="translate(-18 -6.8)"/><path d="M669,734.4c-13.9,33.3-47,7.6-47,7.6s0-.6-.1-1.7l3.1-3,42.4-8.5Z" class="cls-7" transform="translate(-18 -6.8)"/><path d="M669.5,731.6c-13.6,35-47.5,8.7-47.5,8.7s-1.1-18.1,1.1-26.4-2.4-33.3-2.4-33.3-2.6-22.1-4.9-27.3-2.1-15.3-2.1-16.2.8-7.6-1.1-12.3-3-16.2-3-16.2,0-16.2-1.9-25.8l-6.6-33-12-67.6,3.8-.6,66.8-11.8s12.6,64,8.3,70.6c-.9,1.4-1.7,4.6-2.4,8.7-2.4,14.5-3.3,40.5-3.3,40.5" class="cls-17" transform="translate(-18 -6.8)"/><path d="M664.2,637" class="cls-19" transform="translate(-18 -6.8)"/><path d="M663.1,295.2s-60.5,42.7-46.9,21.3c7.4-11.4,6-26.1,3.1-37.1a79.8,79.8,0,0,0-6-16.3s51.5-21.9,44.7-2.3a36.5,36.5,0,0,0-2,14.3A38.5,38.5,0,0,0,663.1,295.2Z" class="cls-14" transform="translate(-18 -6.8)"/><path d="M554.1,392.9s-25.6-7.4-29.8-.2,1.3,23.2,9,25.7,25.4-8.6,25.4-8.6Z" class="cls-21" transform="translate(-18 -6.8)"/><path d="M583.4,380.3l-10.7,9.8s-18.5,1.7-23.8.4c0,0,4.9,32.9-2.2,36.9l43.1-8.7Z" class="cls-11" transform="translate(-18 -6.8)"/><path d="M583.4,380.3l-10.7,9.8s-18.5,1.7-23.8.4c0,0,4.9,32.9-2.2,36.9l43.1-8.7Z" class="cls-7" transform="translate(-18 -6.8)"/><path d="M446.5,239.4a32,32,0,0,1-32,32c-16.4-7.9-32-14.3-32-32a32,32,0,1,1,64-2.5v2.5Z" class="cls-7" transform="translate(-18 -6.8)"/><path d="M446.5,238.5a31.9,31.9,0,1,1-7.2-20.2A31.8,31.8,0,0,1,446.5,238.5Z" class="cls-14" transform="translate(-18 -6.8)"/><path d="M465.2,434.2a66.3,66.3,0,0,1-9.9,5.1s-16.2-2.3-18.6.5-23,3.8-23,3.8-31.5-1.5-36.2-5.5a19.8,19.8,0,0,0-4.8-2.9l.5-8.1s81.3-5.1,87.9,1.1A22.1,22.1,0,0,1,465.2,434.2Z" class="cls-7" transform="translate(-18 -6.8)"/><path d="M469.1,428.5c-.6,3.6-13.8,9.1-13.8,9.1s-16.2-2.3-18.6.5-23,3.8-23,3.8-31.5-1.5-36.2-5.6-15.1-6-15.1-6-5.4-37.9-3.2-46.2-3.2-31.1-4.5-39.2,3.6-30.5,9.6-34.1,14.5-15.8,19.6-19.4,9.1-7,10.4-8.2l.5-.4s.8-6.6,4.2-10,34.8,21.6,34.8,21.6.2,1.9,2.3-1.7c.5-.8,4.6,5.1,5.3,7.6,0,0,17.1,29.9,18.2,36s5.5,26.3,6.4,31.2c.2,1.2.5,5.6,1,11.6,0,1.1.1,2.3.2,3.6.6,9.8,1.3,22.4,1.7,31.9,0,1,.1,2.1.1,3.1A77.9,77.9,0,0,1,469.1,428.5Z" class="cls-15" transform="translate(-18 -6.8)"/><path d="M360.9,351.5s11.7,14.3,15.5,14.3S360.9,351.5,360.9,351.5Z" class="cls-7" transform="translate(-18 -6.8)"/><path d="M385.6,382.2s-19.2,20.9-16.7,24.7S385.6,382.2,385.6,382.2Z" class="cls-7" transform="translate(-18 -6.8)"/><path d="M371.5,423.8s22-24.1,23-32.4Z" class="cls-7" transform="translate(-18 -6.8)"/><path d="M399.2,425.5s25.4-13.5,27.5-24.1S399.2,425.5,399.2,425.5Z" class="cls-7" transform="translate(-18 -6.8)"/><path d="M431.4,295.9l-3.5,8.5,5.8,2.8,5.8,16.1s15.9,31.7,15.2,48.2,2.9,41.4,2.9,41.4l9.2-1.7-4.3-48.6a71.5,71.5,0,0,0-5.6-21.8c-7.3-16.8-21-47.7-21.8-47.7s-.4.4-.4.4Z" class="cls-7" transform="translate(-18 -6.8)"/><path d="M432.3,295l-3.6,8.5,5.9,2.8,5.8,16.1s15.8,31.8,15.2,48.3,2.9,41.3,2.9,41.3l9.1-1.7-4.3-48.5a66.7,66.7,0,0,0-5.6-21.9c-7.3-16.7-20.9-47.7-21.7-47.7s-.4.5-.4.5Z" class="cls-22" transform="translate(-18 -6.8)"/><path d="M536.1,420.3c-4.5-.3-15.2-5.8-19.4-8l-1.8-1,.2-16.5,3.2-1.7c5.7-2.4,17.4-5.8,23.2,5C549.4,412.7,541.7,420.7,536.1,420.3Z" class="cls-14" transform="translate(-18 -6.8)"/><path d="M439.3,218.3l-1.5.6c-3.7.8-7.9-2.4-11.1-.3s-2.4,3.8-2.6,6.1c-.5,4-1,8-1.4,12a15.1,15.1,0,0,1-.9,4.1c-1.6,3.6-5.9,5.3-9.8,5.2a5.8,5.8,0,0,1-4.2-1.4c-.7-.7-1.1-1.7-1.8-2.3-5-4.2-6.6,6.1-5.2,9,2.1,4.7,9.6,9.3,6.4,15.4a5.1,5.1,0,0,1-2.3,2.3A32,32,0,1,1,424,208,31.4,31.4,0,0,1,439.3,218.3Z" class="cls-7" transform="translate(-18 -6.8)"/><path d="M405.1,242.2c.7.7,1.1,1.6,1.8,2.3a6,6,0,0,0,4.3,1.4c3.9.1,8.2-1.6,9.7-5.2a14.3,14.3,0,0,0,.9-4.1l1.4-11.9c.3-2.3.7-4.9,2.6-6.2s7.4,1.2,11.2.3a5.5,5.5,0,0,0,4-6.2c-.5-1.9-1.9-3.4-2.7-5.3s-.8-2.8-1.1-4.2c-2-7.8-11.2-12.1-19.1-10.8-4.4.7-8.5,2.8-12.9,3.4s-6.4.2-9.6.5a25.9,25.9,0,0,0-8.5,2.5,5.9,5.9,0,0,0-1.8,1.4,11.4,11.4,0,0,0-.9,2.6c-1,4-4.5,6.9-7,10.3a25.5,25.5,0,0,0-4.7,13.3,8.7,8.7,0,0,0,.4,3.6c.2.7.5,1.4.7,2.1.4,2.2-.7,4.4-1.2,6.6a12.5,12.5,0,0,0,.7,8.3c3.8,8.9,16.5,11.8,19.1,21.1a20.9,20.9,0,0,0,7.4,2c2.6,0,5.4-1.1,6.6-3.4,3.1-6-4.4-10.6-6.5-15.4C398.6,248.3,400.1,238,405.1,242.2Z" class="cls-23" transform="translate(-18 -6.8)"/><path d="M658,260.8a36.5,36.5,0,0,0-2,14.3c-1.5,1.3-3.2-2.6-5-1.6-4.9,2.8-10.5,9.5-16.6,9.5a32.5,32.5,0,0,1-15-3.6,93.6,93.6,0,0,0-6-16.3S664.8,241.2,658,260.8Z" class="cls-7" transform="translate(-18 -6.8)"/><path d="M667.7,248.1a33.3,33.3,0,1,1,0-.1Z" class="cls-14" transform="translate(-18 -6.8)"/><path d="M666.2,302.6s-6.2,6.8-7.1,7.4-19,77-19.3,77.9l-21.6,69.9-34.1,16.8,2.8-84.4,25-69.7s8.3-9.3,10.8-12.8,34.4-23.8,34.4-23.8l5.5,11.2Z" class="cls-24" transform="translate(-18 -6.8)"/><path d="M661.7,296.8l-39.2,28.1-.6-15.5c2.5-3.4,34.4-23.8,34.4-23.8Z" class="cls-7" transform="translate(-18 -6.8)"/><path d="M662.6,295.1l-39.2,28.1-.6-15.5c2.5-3.4,34.4-23.8,34.4-23.8Z" class="cls-24" transform="translate(-18 -6.8)"/><path d="M621.4,300.9l1.4,6.8-8.8,9,7-15.7s-15,10.4-19.5,13.2-9,12.1-9.2,14.7-7.2,41.1-7.2,41.1-5.4,14.3-3.9,18.4-8.1,131.7-8.1,131.7a19,19,0,0,1,12.9-9.8l-3.5-75.5s4.2-50.2,4.4-50.8l9.7-29.7Z" class="cls-17" transform="translate(-18 -6.8)"/><path d="M623.6,308.6l-.7,14s-9.5,29.9-12.6,34.8-12.9,34.2-12.9,34.2l-5.5,50.7-9.4,4.3-4.6-8.5,7.7-49s14.5-41.4,16.6-45.7l10.7-22.5Z" class="cls-7" transform="translate(-18 -6.8)"/><path d="M622.8,307.7l-.7,14s-9.5,30-12.7,34.9-12.9,34.1-12.9,34.1l-5.4,50.7-9.4,4.3-4.7-8.5,7.7-49s14.5-41.4,16.6-45.6l10.8-22.5Z" class="cls-22" transform="translate(-18 -6.8)"/><path d="M512.2,414.6l18.3,12.7s13-7.3,5.4-11.9a33.2,33.2,0,0,0-16.6-5.4C516.9,410,512.2,414.6,512.2,414.6Z" class="cls-21" transform="translate(-18 -6.8)"/><path d="M525.9,391.1a3.1,3.1,0,0,0-1.3,2.5c0,3.8.4,14.1,3.7,9.5s3.2-10.8,9.3-7.1a33.7,33.7,0,0,1,9.8,9l-1.7-12.2S533.2,386.6,525.9,391.1Z" class="cls-21" transform="translate(-18 -6.8)"/><path d="M668,540.4c-.9,1.4-1.7,4.6-2.4,8.6-37.4,11.2-64.7-12.5-64.7-12.5a331.3,331.3,0,0,1-8.1-34.1c-.7-3.9-.5-11.5.1-20.9l66.8-11.7S672.3,533.8,668,540.4Z" class="cls-7" transform="translate(-18 -6.8)"/><path d="M706.4,349.6c-1.7,5.5-1.1,16.8-1.1,16.8L690,438.9s-7.5,55.9-8.8,63.3-3.4,40.3-3.4,40.3c-43.5,21.3-77-7.7-77-7.7a331.3,331.3,0,0,1-8.1-34.1c-2.1-12.6,4.2-63.4,7.2-85.9.9-6.7,1.5-10.9,1.5-10.9l11.2-41.5s13.7-35.1,18.8-45.3,25.7-33.2,25.7-33.2c2.6-1.7,6.6,4.1,9.7,9.3s4,7.6,4,7.6,25.5,11.1,29.4,17,3.2,18.1,3.6,18.7S708.1,344,706.4,349.6Z" class="cls-17" transform="translate(-18 -6.8)"/><path d="M646.1,323.8s1.9,11.3-3,14.7-40.1,72.8-42.3,77.2c.9-6.7,1.4-10.9,1.4-10.9l11.2-41.6s13.8-35,18.9-45.3S658,284.7,658,284.7c2.5-1.6,6.6,4.1,9.7,9.3C663.1,303.5,653.5,321.5,646.1,323.8Z" class="cls-7" transform="translate(-18 -6.8)"/><path d="M645.2,322.9s1.9,11.3-3,14.8-40.1,72.8-42.3,77.1c.9-6.7,1.5-10.9,1.5-10.9l11.2-41.5s13.7-35.1,18.8-45.3,25.7-33.2,25.7-33.2c2.6-1.7,6.6,4.1,9.7,9.3C662.2,302.7,652.7,320.6,645.2,322.9Z" class="cls-17" transform="translate(-18 -6.8)"/><polygon points="678 418.2 665.9 480.8 665.9 480.8 664.8 486.8 664.8 486.8 662.2 500.3 651.1 497.9 646 496.9 574.7 481.8 569.5 480.6 557.5 478.1 559.9 462.6 560.8 456.1 569.5 398.8 678 418.2" class="cls-25"/><path d="M629.4,476.2s-28.3,10.2-22.1,22.4,45.8-9.4,45.8-9.4Z" class="cls-21" transform="translate(-18 -6.8)"/><path d="M649.7,563.4c0,.8,1.1,11.7,5.3,15.5S649.7,563.4,649.7,563.4Z" class="cls-7" transform="translate(-18 -6.8)"/><path d="M621.1,602s5.1,14,25.4,19.8S621.1,602,621.1,602Z" class="cls-7" transform="translate(-18 -6.8)"/><path d="M667.7,248.1A33.3,33.3,0,0,1,651,276.9a18.3,18.3,0,0,1-5-4.2c-1.4-1.8-2.6-4.2-1.7-6.3s2.5-2.7,3-4.5a7,7,0,0,0-.2-3.2c-.3-1.6-.7-3.3-1-4.9s-.9-3.1-2.3-3.4-2.5.8-3.6,1.7c-2.7,2.1-7.8,3.5-11,1.8s-2.3-7.5-2.9-10.7a1.7,1.7,0,0,0-.7-1.4,3.2,3.2,0,0,0-1.4-.1,4,4,0,0,1-3.6-3.2,22.2,22.2,0,0,1-.6-5.1c-.2-1.8-.8-3.6-2.3-4.5a7.1,7.1,0,0,0-3.8-.6h-6.3a33.3,33.3,0,0,1,60,19.7Z" class="cls-7" transform="translate(-18 -6.8)"/><path d="M641,252.1c1.1-.9,2.3-2,3.7-1.7s1.9,2,2.2,3.4l1.1,4.9a7,7,0,0,1,.2,3.2c-.5,1.8-2.4,2.9-3.1,4.6s.3,4.5,1.7,6.2a18.7,18.7,0,0,0,10.3,6.2,8.6,8.6,0,0,0,3.2,0c2.4-.5,4-2.7,5.3-4.8,6.6-10.3,12.3-21.6,13.5-33.7a21.1,21.1,0,0,0-.4-7.5,21.4,21.4,0,0,0-2.3-5.4,42.4,42.4,0,0,0-6.4-9.8c-4.5-4.9-10.8-7.9-17.3-9.7a57.8,57.8,0,0,0-22.3-1.7c-2,.2-3.9.6-5.9.7a61.2,61.2,0,0,1-7.4-.1l-14.7-.9c-.8,1.7,0,3.7,1,5.3s2.2,3.3,2.2,5.2-1.5,3.4-2.5,5-1.8,3.7-.8,5.2,3.2,1.7,5,1.7h7.4a7.1,7.1,0,0,1,3.8.6c1.5.9,2.1,2.8,2.3,4.5a22.2,22.2,0,0,0,.6,5.1c.5,1.7,1.9,3.3,3.6,3.2a3.2,3.2,0,0,1,1.4.1,1.7,1.7,0,0,1,.7,1.4c.6,3.2-.4,9,2.9,10.7S638.4,254.2,641,252.1Z" class="cls-23" transform="translate(-18 -6.8)"/><path d="M683.3,317.8a16.2,16.2,0,0,0-17.1,10.9c-4,11.4-10.7,32-9,40.1,2.3,11.5,5.1,30.7,5.1,30.7s12.1,7,6,14-7.9,17.1-7.9,17.1-7.9,3.4-9.6,10.7-13.2,17.2-13.2,17.2l-17.3,17.3s28.6,29,34.3,30.5l17.7-20.7,20.9-27.7,18.1-19s4.3-10,2.2-29S703,372.8,703,372.8l.7-6.4S705.6,320.5,683.3,317.8Z" class="cls-7" transform="translate(-18 -6.8)"/><path d="M685,317.8a16.2,16.2,0,0,0-17.1,10.9c-4,11.4-10.7,32-9,40.1,2.3,11.5,5.1,30.7,5.1,30.7s12.2,7,6,14-7.9,17.1-7.9,17.1-7.9,3.4-9.6,10.7-13.2,17.2-13.2,17.2L622,475.8s28.6,29,34.4,30.5L674,485.6l20.9-27.7,18.1-19s4.3-10,2.1-29-10.4-37.1-10.4-37.1l.6-6.4S707.3,320.5,685,317.8Z" class="cls-17" transform="translate(-18 -6.8)"/><path d="M667.2,382.6s18.1,22.2,25.8,17.3S667.2,382.6,667.2,382.6Z" class="cls-7" transform="translate(-18 -6.8)"/><path d="M674,365.6c1.9.6,17.7,22.6,25.8,20S674,365.6,674,365.6Z" class="cls-7" transform="translate(-18 -6.8)"/><path d="M678.5,403.3s1,12.6,14,10.9S678.5,403.3,678.5,403.3Z" class="cls-7" transform="translate(-18 -6.8)"/><polygon points="603 295 596 310.7 604.8 301.8 603 295" class="cls-7"/><polygon points="603 294.1 596 309.8 604.8 300.9 603 294.1" class="cls-24"/><polygon points="574.7 481.8 569.5 480.6 559.9 462.6 560.8 456.1 574.7 481.8" class="cls-26"/><polygon points="665.9 480.8 664.8 486.8 664.8 486.8 651.1 497.9 646 496.9 665.9 480.8" class="cls-26"/><path d="M469,417.7l-7.5,1.2c-13,1.7-43.9-13.7-43.9-13.7s-37.8-31.5-48.6-61.4,13-34.3,13-34.3c9-5.1,28.5,9.2,31.3,11.5s5.1,8.3,4.9,12.2,6.4,8.7,6.4,8.7,11.3,19.6,14.1,21.7,3.4,4.1,4.2,7.7,8.3,6.6,11.5,6.4,7,1.1,7,2.8,3.2,2,5.7,2.3C467.9,393.7,468.6,408,469,417.7Z" class="cls-7" transform="translate(-18 -6.8)"/><path d="M468.9,414.6l-5.7.9c-13,1.7-43.9-13.7-43.9-13.7s-37.8-31.5-48.6-61.4,13-34.3,13-34.3c9-5.1,28.5,9.2,31.3,11.5s5.1,8.3,4.9,12.2,6.4,8.7,6.4,8.7,11.3,19.6,14.1,21.7,3.4,4.1,4.2,7.7,8.3,6.6,11.5,6.4,7,1.1,7,2.8,1.8,1.7,3.8,2c.1,1.1.2,2.4.2,3.7C467.8,392.6,468.5,405.1,468.9,414.6Z" class="cls-7" transform="translate(-18 -6.8)"/><path d="M518.3,393.1l-.8,19.2h-.8l-1.8-1,.2-16.5Z" class="cls-7" transform="translate(-18 -6.8)"/><path d="M381.9,307.8s-23.8,4.5-13,34.3,48.7,61.4,48.7,61.4,30.9,15.4,43.9,13.7,32.8-6.2,35.4-5.6,19.8.7,19.8.7l.8-20-20-1.1-10.2-2.1s-3.6-3-5.8-2.6-6.6-2.6-6.6-2.6-3.4-2.7-6-2.7-7.4-.7-7.4-2.4-3.9-3-7-2.7-10.7-2.8-11.6-6.5-1.5-5.5-4.3-7.7-14-21.7-14-21.7-6.7-4.9-6.4-8.7-2.2-9.8-4.9-12.2S390.9,302.7,381.9,307.8Z" class="cls-15" transform="translate(-18 -6.8)"/><path d="M443.3,376.4s-9.1,9.2-6.8,10.9Z" class="cls-7" transform="translate(-18 -6.8)"/><path d="M453.2,383.7s-12,9.2-8.8,9.8S453.2,383.7,453.2,383.7Z" class="cls-7" transform="translate(-18 -6.8)"/><path d="M432.9,397.3c1.7.9,27.1,16,36.7,15.8Z" class="cls-7" transform="translate(-18 -6.8)"/><path d="M434.6,296.1s-4.5,14.7-6.2,14.7-23.8-18.2-33.2-25.9l.4-.3s.8-6.6,4.3-10S434.6,296.1,434.6,296.1Z" class="cls-7" transform="translate(-18 -6.8)"/><path d="M433.7,294.4s-4.4,14.7-6.1,14.7-23.9-18.2-33.3-25.9l.4-.3s.9-6.6,4.3-10S433.7,294.4,433.7,294.4Z" class="cls-15" transform="translate(-18 -6.8)"/><g class="cls-27"><path d="M373.4,246.8h0c3,6.9,11.2,10.2,16,15.7C386.6,255.8,378.2,252.5,373.4,246.8Z" transform="translate(-18 -6.8)"/><path d="M403.9,262.6c-1.1,2.3-4,3.4-6.5,3.4a21.4,21.4,0,0,1-6.6-1.7,11.9,11.9,0,0,1,1.7,3.6,21.4,21.4,0,0,0,7.5,2c2.5.1,5.3-1,6.5-3.3s-.1-6.8-2.4-9.8A6.3,6.3,0,0,1,403.9,262.6Z" transform="translate(-18 -6.8)"/><path d="M441.1,212.5c-.5-1.9-1.9-3.4-2.7-5.2s-.8-2.9-1.1-4.3a12.3,12.3,0,0,0-3-5.5l.5,1.5a33.9,33.9,0,0,0,1.1,4.3c.7,1.8,2.2,3.3,2.6,5.2a5.4,5.4,0,0,1-4,6.3c-3.7.8-7.9-2.4-11.1-.3s-2.4,3.8-2.6,6.1c-.5,4-.9,8-1.4,11.9a15,15,0,0,1-.9,4.2c-1.5,3.6-5.8,5.2-9.8,5.2a6,6,0,0,1-4.2-1.4l-1.8-2.3c-5-4.2-6.5,6-5.2,9a17.4,17.4,0,0,0,2.4,3.6c-1.1-3.3.5-12.8,5.3-8.7a21.1,21.1,0,0,1,1.9,2.3,5.7,5.7,0,0,0,4.2,1.4c3.9.1,8.2-1.6,9.8-5.2a14.3,14.3,0,0,0,.9-4.1c.4-4,.9-8,1.3-11.9.3-2.3.7-4.9,2.7-6.2s7.4,1.1,11.1.3A5.5,5.5,0,0,0,441.1,212.5Z" transform="translate(-18 -6.8)"/></g><path d="M662.5,276.4a9.2,9.2,0,0,1-3.3-.1,18,18,0,0,1-10.2-6.1c-1.5-1.8-2.6-4.2-1.7-6.3s2.5-2.8,3-4.5a7.4,7.4,0,0,0-.2-3.3l-1.1-4.9c-.3-1.4-.8-3-2.2-3.4s-2.6.8-3.7,1.7-7.8,3.6-11,1.8-2.3-7.5-2.8-10.6a1.7,1.7,0,0,0-.7-1.4,2.6,2.6,0,0,0-1.5-.1c-1.7,0-3.1-1.6-3.6-3.2a46,46,0,0,1-.6-5.2c-.2-1.7-.8-3.6-2.3-4.4a6.7,6.7,0,0,0-3.7-.7h-7.5c-1.8,0-4-.1-5-1.7s-.2-3.6.8-5.2,2.4-3.1,2.5-5-1.1-3.5-2.2-5.2a8.8,8.8,0,0,1-1.2-2.8h-2.1c-.9,1.7,0,3.7,1,5.3s2.2,3.3,2.1,5.1-1.4,3.5-2.5,5-1.8,3.7-.7,5.3,3.1,1.7,5,1.6h7.4a7.2,7.2,0,0,1,3.8.7,6,6,0,0,1,2.3,4.5,29.4,29.4,0,0,0,.5,5.1c.5,1.6,1.9,3.2,3.7,3.2a3.2,3.2,0,0,1,1.4.1,2.1,2.1,0,0,1,.7,1.4c.5,3.1-.4,8.9,2.8,10.7s8.4.3,11-1.8c1.1-.9,2.3-2,3.7-1.7s1.9,2,2.2,3.4l1.1,4.9a7,7,0,0,1,.2,3.2c-.5,1.8-2.4,2.9-3.1,4.5s.3,4.5,1.7,6.3a18,18,0,0,0,10.4,6.1,6.9,6.9,0,0,0,3.2.1,7.4,7.4,0,0,0,4.2-3.2A7.6,7.6,0,0,1,662.5,276.4Z" class="cls-7" transform="translate(-18 -6.8)"/><ellipse cx="232.4" cy="702.4" class="cls-2" rx="24.2" ry="3.7"/><ellipse cx="1029.6" cy="611" class="cls-2" rx="24.2" ry="3.7"/><ellipse cx="771.9" cy="687.7" class="cls-1" rx="70" ry="10.7"/><ellipse cx="956.7" cy="697.5" class="cls-1" rx="54.6" ry="8.4"/><ellipse cx="842" cy="744.6" class="cls-1" rx="92.6" ry="14.2"/><ellipse cx="82" cy="730.7" class="cls-2" rx="70" ry="10.7"/><path d="M251.1,604.1s2.8,3.6-1.2,9-7.3,10-6,13.3c0,0,6-10,11-10.2S256.6,610.1,251.1,604.1Z" class="cls-25" transform="translate(-18 -6.8)"/><path d="M251.1,604.1a2.4,2.4,0,0,1,.6,1.1c4.8,5.6,7.4,10.9,2.7,11s-9.4,7.8-10.6,9.7c0,.2.1.3.1.5s6-10,11-10.2S256.6,610.1,251.1,604.1Z" class="cls-7" transform="translate(-18 -6.8)"/><path d="M256.2,608.6c0,1.3-.1,2.3-.3,2.3a5.6,5.6,0,0,1-.3-2.3c0-1.2.2-.6.4-.6S256.2,607.4,256.2,608.6Z" class="cls-28" transform="translate(-18 -6.8)"/><path d="M258,610.2c-1.1.6-2.1,1-2.2.8s.8-.8,1.9-1.4.7-.2.7,0S259.1,609.5,258,610.2Z" class="cls-28" transform="translate(-18 -6.8)"/><path d="M236.7,604.1s-2.8,3.6,1.2,9,7.4,10,6,13.3c0,0-6-10-10.9-10.2S231.2,610.1,236.7,604.1Z" class="cls-25" transform="translate(-18 -6.8)"/><path d="M236.7,604.1a3.9,3.9,0,0,0-.6,1.1c-4.8,5.6-7.3,10.9-2.7,11s9.4,7.8,10.7,9.7l-.2.5s-6-10-10.9-10.2S231.2,610.1,236.7,604.1Z" class="cls-7" transform="translate(-18 -6.8)"/><path d="M231.6,608.6c0,1.3.1,2.3.3,2.3s.3-1,.3-2.3-.2-.6-.3-.6S231.6,607.4,231.6,608.6Z" class="cls-28" transform="translate(-18 -6.8)"/><path d="M229.8,610.2c1.2.6,2.1,1,2.2.8s-.7-.8-1.9-1.4-.6-.2-.7,0S228.7,609.5,229.8,610.2Z" class="cls-28" transform="translate(-18 -6.8)"/><ellipse cx="225.9" cy="642.6" class="cls-2" rx="28.6" ry="4.4"/><path d="M258.7,621.6l-.2,1.1-.2,1.6v2.9l-.2,1.6-2.2,18c-.2,1.6-2.8,2.8-6,2.8H238.2c-3.1,0-5.7-1.2-6-2.8l-2.1-18-.2-1.6v-.7l-.2-1.6v-.6l-.2-1.6v-1.1c-.1-.9,1.3-1.7,3.1-1.7h23.3C257.3,619.9,258.8,620.7,258.7,621.6Z" class="cls-29" transform="translate(-18 -6.8)"/><polygon points="240.5 615.9 240.3 617.5 211.5 617.5 211.3 615.9 240.5 615.9" class="cls-30"/><polygon points="240.2 618.1 240.1 619.7 211.8 619.7 211.6 618.1 240.2 618.1" class="cls-30"/><polygon points="240 620.4 239.8 621.9 212.1 621.9 211.9 620.4 240 620.4" class="cls-30"/><path d="M1028.6,582.3s-3.5,15.9,11.8,17.8l.9-1.8S1029.5,587.2,1028.6,582.3Z" class="cls-25" transform="translate(-18 -6.8)"/><path d="M1046.1,598.2l-3.5.7h-.4s-9.4-7.6-9.3-24.7a47.3,47.3,0,0,0,4.5,7.1C1041.2,586.3,1045.4,592.9,1046.1,598.2Z" class="cls-25" transform="translate(-18 -6.8)"/><path d="M1047.3,599.8a2.1,2.1,0,0,1-1.9.3c-9.1-2.1-6-31.7-6-31.7s1,4,3.2,8.8C1046.2,585.8,1050.2,597.7,1047.3,599.8Z" class="cls-25" transform="translate(-18 -6.8)"/><path d="M1067.5,582.3s.5,15.9-14.7,17.8l-.9-1.8S1066.5,587.2,1067.5,582.3Z" class="cls-25" transform="translate(-18 -6.8)"/><path d="M1063.1,574.3c.1,17.1-12.1,24.8-12.1,24.8h-.4l-3.5-.8c.7-5.2,5-11.8,8.7-16.8A35.1,35.1,0,0,1,1063.1,574.3Z" class="cls-25" transform="translate(-18 -6.8)"/><path d="M1050.6,598.3a5.5,5.5,0,0,1-2,1.5h0l-.8.3c-2.2.5-3-1.1-2.9-3.8.2-4.9,3.3-13.4,6-19.7a24.7,24.7,0,0,1,5.7-8.2S1056.5,591.4,1050.6,598.3Z" class="cls-25" transform="translate(-18 -6.8)"/><path d="M1048,558s-10.1,36-1.4,41.4S1050.2,561.2,1048,558Z" class="cls-25" transform="translate(-18 -6.8)"/><path d="M1028.6,582.3s-3.5,15.9,11.8,17.8l.9-1.8S1029.5,587.2,1028.6,582.3Z" class="cls-7" transform="translate(-18 -6.8)"/><path d="M1046.1,598.2l-3.5.7h-.4s-9.4-7.6-9.3-24.7a47.3,47.3,0,0,0,4.5,7.1C1041.2,586.3,1045.4,592.9,1046.1,598.2Z" class="cls-7" transform="translate(-18 -6.8)"/><path d="M1047.3,599.8a2.1,2.1,0,0,1-1.9.3c-9.1-2.1-6-31.7-6-31.7s1,4,3.2,8.8C1046.2,585.8,1050.2,597.7,1047.3,599.8Z" class="cls-7" transform="translate(-18 -6.8)"/><path d="M1067.5,582.3s.5,15.9-14.7,17.8l-.9-1.8S1066.5,587.2,1067.5,582.3Z" class="cls-7" transform="translate(-18 -6.8)"/><path d="M1063.1,574.3c.1,17.1-12.1,24.8-12.1,24.8h-.4l-3.5-.8c.7-5.2,5-11.8,8.7-16.8A35.1,35.1,0,0,1,1063.1,574.3Z" class="cls-7" transform="translate(-18 -6.8)"/><path d="M1050.6,598.3a5.5,5.5,0,0,1-2,1.5h0l-.8.3c-2.2.5-3-1.1-2.9-3.8.2-4.9,3.3-13.4,6-19.7a24.7,24.7,0,0,1,5.7-8.2S1056.5,591.4,1050.6,598.3Z" class="cls-7" transform="translate(-18 -6.8)"/><path d="M1048,558s-10.1,36-1.4,41.4S1050.2,561.2,1048,558Z" class="cls-7" transform="translate(-18 -6.8)"/><path d="M1028.6,582.3s-2,15.9,13.2,17.8l.9-1.8S1029.5,587.2,1028.6,582.3Z" class="cls-25" transform="translate(-18 -6.8)"/><path d="M1047.5,598.2l-3.5.7h-.3s-10.9-7.6-10.8-24.7c0,0,2.8,3,5.9,7.1S1046.8,592.9,1047.5,598.2Z" class="cls-25" transform="translate(-18 -6.8)"/><path d="M1047.5,598.2l-3.5.7c-3.3-2.9-4.7-10.6-5.2-17.5C1042.6,586.3,1046.8,592.9,1047.5,598.2Z" class="cls-7" transform="translate(-18 -6.8)"/><path d="M1048.7,599.8a2.1,2.1,0,0,1-1.9.3c-9.1-2.1-7.4-31.7-7.4-31.7s2.5,4,4.6,8.8C1047.6,585.8,1051.7,597.7,1048.7,599.8Z" class="cls-25" transform="translate(-18 -6.8)"/><path d="M1067.5,582.3s2,15.9-13.2,17.8l-1-1.8S1066.5,587.2,1067.5,582.3Z" class="cls-25" transform="translate(-18 -6.8)"/><path d="M1063.1,574.3c.1,17.1-10.7,24.8-10.7,24.8h-.4l-3.5-.8c.7-5.2,5-11.8,8.7-16.8S1063.1,574.3,1063.1,574.3Z" class="cls-25" transform="translate(-18 -6.8)"/><path d="M1057.2,581.4c-.5,6.5-1.7,13.6-4.5,16.9l-.7.6-3.5-.7C1049.2,592.9,1053.4,586.3,1057.2,581.4Z" class="cls-7" transform="translate(-18 -6.8)"/><path d="M1052,598.3a5.5,5.5,0,0,1-2,1.5h0l-.8.3c-2.2.5-3-1.1-2.9-3.8.2-4.9,3.3-13.4,6-19.7,2-4.5,3.8-8,4.3-8.2S1057.9,591.4,1052,598.3Z" class="cls-25" transform="translate(-18 -6.8)"/><path d="M1048.7,599.8a2.3,2.3,0,0,1-1.4-.4c-4.3-2.7-4.4-12.7-3.3-22.2C1047.6,585.8,1051.7,597.7,1048.7,599.8Z" class="cls-7" transform="translate(-18 -6.8)"/><path d="M1052,598.3c-.5,1.1-1.2,1.6-2,1.5h0a2.8,2.8,0,0,1-1.3-.4,7.3,7.3,0,0,1-2.4-3.1c.2-4.9,3.3-13.4,6-19.7C1053.3,585.4,1053.6,594.7,1052,598.3Z" class="cls-7" transform="translate(-18 -6.8)"/><path d="M1048,558s-8.7,36,0,41.4S1050.2,561.2,1048,558Z" class="cls-25" transform="translate(-18 -6.8)"/><polygon points="1046.8 590.8 1010.4 590.8 1010.4 596.8 1016 596.8 1016.1 597.5 1018.3 609.2 1039.5 609.2 1041.7 597.5 1041.8 596.8 1046.8 596.8 1046.8 590.8" class="cls-31"/><polygon points="1046.8 590.8 1010.4 590.8 1010.4 596.8 1016 596.8 1016.1 597.5 1018.3 609.2 1039.5 609.2 1041.7 597.5 1041.8 596.8 1046.8 596.8 1046.8 590.8" class="cls-7"/><polygon points="1043.7 594.3 1043.1 597.5 1040.9 609.2 1019.8 609.2 1017.5 597.5 1016.9 594.3 1043.7 594.3" class="cls-31"/><polygon points="1043.7 594.3 1043.1 597.5 1017.5 597.5 1016.9 594.3 1043.7 594.3" class="cls-7"/><rect width="36.3" height="6.01" x="1011.8" y="590.8" class="cls-31"/><path d="M139.2,620.2a13.7,13.7,0,0,0-2.3,4.3,4.2,4.2,0,0,0-.4,1.2l-.8-.3a11,11,0,0,0-3.6-.3c0-.5.1-1,.1-1.5.1-5.3-.5-12.6-5.5-9.5s-1.4,8,1.7,11.2a6,6,0,0,0,.8.8c-2.8,2-3.4,6.7-3.8,11.6s-4.7,10.3-7.5,13.4l-.7.8a10.2,10.2,0,0,0-8.1-2,7.4,7.4,0,0,0-.4-1.4c-2.2-8.1-6.8-22.1-12.8-25.2l.8-1c2.5-3.2,5.4-8.1,1.2-9.4s-4.6,4.2-4.4,8.4c.1.5.1,1,.2,1.4a6.3,6.3,0,0,0-4.4,2.2l-.7-.8c-3.4-4-9.6-10.4-11.5-5.6s3.7,10.3,7.6,13.7l.2.2c-2.6,10.5,8.8,19.1,14.8,22.8l.8.5c-8.4,9.9-13.6,28.5-13.6,28.5l23.6,4.2s15.6-13.5,13.6-26.1h.1c15.6-3.1,19.2-19.7,16.7-29.6h.3a18.5,18.5,0,0,0,7.2-5.5C152.8,621.1,143.7,614.2,139.2,620.2Z" class="cls-25" transform="translate(-18 -6.8)"/><path d="M139.2,620.2a13.7,13.7,0,0,0-2.3,4.3,4.2,4.2,0,0,0-.4,1.2l-.8-.3a11,11,0,0,0-3.6-.3c0-.5.1-1,.1-1.5.1-5.3-.5-12.6-5.5-9.5s-1.4,8,1.7,11.2a6,6,0,0,0,.8.8c-2.8,2-3.4,6.7-3.8,11.6s-4.7,10.3-7.5,13.4l-.7.8a10.2,10.2,0,0,0-8.1-2,7.4,7.4,0,0,0-.4-1.4c-2.2-8.1-6.8-22.1-12.8-25.2l.8-1c2.5-3.2,5.4-8.1,1.2-9.4s-4.6,4.2-4.4,8.4c.1.5.1,1,.2,1.4a6.3,6.3,0,0,0-4.4,2.2l-.7-.8c-3.4-4-9.6-10.4-11.5-5.6s3.7,10.3,7.6,13.7l.2.2c-2.6,10.5,8.8,19.1,14.8,22.8l.8.5c-8.4,9.9-13.6,28.5-13.6,28.5l23.6,4.2s15.6-13.5,13.6-26.1h.1c15.6-3.1,19.2-19.7,16.7-29.6h.3a18.5,18.5,0,0,0,7.2-5.5C152.8,621.1,143.7,614.2,139.2,620.2Z" class="cls-7" transform="translate(-18 -6.8)"/><path d="M92.3,627l-2.7,8-3.5-2.8c-3.8-3.4-9.3-9.2-7.6-13.7s8.2,1.6,11.6,5.6C91.4,625.7,92.3,627,92.3,627Z" class="cls-25" transform="translate(-18 -6.8)"/><path d="M98.1,622.3a27.8,27.8,0,0,1-2.6,3.2,30.1,30.1,0,0,1-.5-4.2c-.3-4.2.2-9.6,4.3-8.4S100.7,619.1,98.1,622.3Z" class="cls-25" transform="translate(-18 -6.8)"/><path d="M133.7,623.6c-.1,2.7-.4,4.8-.4,4.8l-3.4-3.1c-3.1-3.2-6.6-8.2-1.7-11.2S133.8,618.3,133.7,623.6Z" class="cls-25" transform="translate(-18 -6.8)"/><path d="M149.9,627.1a18.1,18.1,0,0,1-7.3,5.5l-2.4.8-3.2-4.5a31.9,31.9,0,0,1,1.3-4.4,16.1,16.1,0,0,1,2.3-4.3C145.1,614.2,154.2,621.1,149.9,627.1Z" class="cls-25" transform="translate(-18 -6.8)"/><path d="M90.1,624.1l2.2,2.8-2.7,8a42,42,0,0,1-3.5-2.7,16.8,16.8,0,0,1,3.1-7.1Z" class="cls-7" transform="translate(-18 -6.8)"/><path d="M98.1,622.3a27.8,27.8,0,0,1-2.6,3.2,30.1,30.1,0,0,1-.5-4.2A5.7,5.7,0,0,1,98.1,622.3Z" class="cls-7" transform="translate(-18 -6.8)"/><path d="M111.7,654.3l-6.9,3a30.5,30.5,0,0,1-3.6-2.1c-7.2-4.4-21.7-15.5-12-28.6s17.8,10.4,21,21.9C111.2,652,111.7,654.3,111.7,654.3Z" class="cls-25" transform="translate(-18 -6.8)"/><path d="M129.8,625.3a6,6,0,0,1,3.8-1.7c-.1,2.7-.3,4.8-.3,4.8S130.9,626.4,129.8,625.3Z" class="cls-7" transform="translate(-18 -6.8)"/><path d="M142.7,632.5a10.6,10.6,0,0,1-2.5.9l-3.2-4.5a31.9,31.9,0,0,1,1.3-4.4C140.4,625.7,142,628.7,142.7,632.5Z" class="cls-7" transform="translate(-18 -6.8)"/><path d="M125.7,662.3l-1.2.2c-22.9,3.5-7.5-8.9-7.5-8.9l2.4-2.5c2.8-3.1,6.9-8.4,7.4-13.4.7-7.4,1.5-14.4,10.3-12.3S147.4,657.9,125.7,662.3Z" class="cls-25" transform="translate(-18 -6.8)"/><rect width="43.8" height="11.52" x="63.4" y="712.5" class="cls-32"/><rect width="57.2" height="40.2" x="56.5" y="675.1" class="cls-32"/><rect width="43.8" height="11.52" x="63.4" y="712.5" class="cls-7"/><rect width="57.2" height="40.2" x="56.5" y="675.1" class="cls-7"/><rect width="43.8" height="11.52" x="66.3" y="712.5" class="cls-32"/><path d="M110.2,648.5c1,3.4,1.5,5.8,1.5,5.8l-6.9,3a30.5,30.5,0,0,1-3.6-2.1C103.9,651.9,106.9,649.3,110.2,648.5Z" class="cls-7" transform="translate(-18 -6.8)"/><path d="M125.7,662.3l-1.2.2c-22.9,3.5-7.5-8.9-7.5-8.9l2.4-2.5C123.7,654.5,125.4,658.4,125.7,662.3Z" class="cls-7" transform="translate(-18 -6.8)"/><path d="M88.4,684.2s12.8-46,30.8-31.8-7.3,36-7.3,36Z" class="cls-25" transform="translate(-18 -6.8)"/><circle cx="76.9" cy="627" r="1.4" class="cls-7"/><circle cx="76.7" cy="633.7" r="1.4" class="cls-7"/><circle cx="118.5" cy="628.3" r="1.4" class="cls-7"/><circle cx="84.9" cy="662.7" r="1.4" class="cls-7"/><circle cx="115.5" cy="639.4" r="1.4" class="cls-7"/><circle cx="100.6" cy="654.3" r="1.4" class="cls-7"/><circle cx="81.8" cy="629.8" r="1.4" class="cls-7"/><circle cx="114.6" cy="632.6" r="1.4" class="cls-7"/><circle cx="109.6" cy="643.8" r="1.4" class="cls-7"/><circle cx="94.5" cy="661.6" r="1.4" class="cls-7"/><circle cx="91.4" cy="654.6" r="1.4" class="cls-7"/><circle cx="83.9" cy="638.6" r="1.4" class="cls-7"/><rect width="43.8" height="4.21" x="66.3" y="712.5" class="cls-7"/><rect width="57.2" height="40.2" x="59.3" y="675.1" class="cls-32"/><circle cx="96.4" cy="668.1" r="1.4" class="cls-7"/><circle cx="87.8" cy="669.9" r="1.4" class="cls-7"/><circle cx="42.8" cy="54.5" r="10.5" class="cls-2"/><circle cx="1036.6" cy="374.3" r="14" class="cls-2"/><circle cx="1063.6" cy="344.3" r="10.2" class="cls-2"/><circle cx="76.5" cy="21.2" r="14" class="cls-2"/><circle cx="14" cy="89.5" r="14" class="cls-2"/></svg>