<?xml version="1.0" encoding="utf-8"?>
<!-- Generator: Adobe Illustrator 21.0.0, SVG Export Plug-In . SVG Version: 6.00 Build 0)  -->
<svg version="1.1" id="Layer_1" xmlns="http://www.w3.org/2000/svg" xmlns:xlink="http://www.w3.org/1999/xlink" x="0px" y="0px"
	 viewBox="0 0 512 512" style="enable-background:new 0 0 512 512;" xml:space="preserve">
<style type="text/css">
	.st0{fill:#EEEEEE;}
	.st1{clip-path:url(#SVGID_2_);}
	.st2{fill:#E6AF78;}
	.st3{fill:#392A6F;}
	.st4{fill:#D29B6E;}
	.st5{fill:#F0C087;}
	.st6{fill:#2E255E;}
	.st7{fill:#5B5D6E;}
	.st8{fill:#515262;}
	.st9{fill:#785550;}
	.st10{fill:#694B4B;}
	.st11{fill:#5A4146;}
</style>
<title>avatar</title>
<circle class="st0" cx="256.8" cy="256.7" r="255.3"/>
<g id="Layer_1_1_">
	<g>
		<defs>
			<circle id="SVGID_1_" cx="256.7" cy="256.7" r="255.3"/>
		</defs>
		<clipPath id="SVGID_2_">
			<use xlink:href="#SVGID_1_"  style="overflow:visible;"/>
		</clipPath>
		<g class="st1">
			<polygon class="st2" points="326,380 326,326 187.4,326 187.4,380 256.7,441.6 			"/>
			<path class="st3" d="M433.2,405.2l-95.3-22.4c-1.4-0.3-2.7-0.9-4-1.6l-77.2,45L182.5,379c-2,1.9-4.4,3.2-7,3.8l-95.3,22.4
				c-13.9,3.3-23.8,15.7-23.8,30v60.3c0,8.5,6.9,15.4,15.4,15.4c0,0,0,0,0,0h369.7c8.5,0,15.4-6.9,15.4-15.4c0,0,0,0,0,0v-60.3
				C457,420.9,447.2,408.5,433.2,405.2z"/>
			<path class="st4" d="M187.4,326v56.9c87.3,31.5,138.6-47.3,138.6-47.3v-9.6L187.4,326L187.4,326z"/>
			<path class="st5" d="M156.6,148.9l6.7,147.7c0.6,13.8,7.4,26.6,18.4,34.9l31.9,23.9c8,6,17.7,9.2,27.7,9.2h30.8
				c10,0,19.7-3.2,27.7-9.2l31.9-23.9c11-8.3,17.8-21.1,18.4-34.9l6.7-147.7L156.6,148.9z"/>
			<path class="st2" d="M233.6,179.7c30.8,0,77-7.7,88-30.8h-165l6.7,147.7c0.6,13.8,7.4,26.6,18.4,34.9l31.9,23.9
				c8,6,17.7,9.2,27.7,9.2h15.4c-15.4,0-46.2-30.8-46.2-69.3v-92.4C210.5,195.1,218.2,179.7,233.6,179.7z"/>
			<path class="st6" d="M113,460.9l-49.9-44.8c-4.3,5.4-6.6,12.2-6.6,19.1v60.3c0,8.5,6.9,15.4,15.4,15.4c0,0,0,0,0,0h53.9v-21.3
				C125.8,478.6,121.1,468.2,113,460.9z"/>
			<path class="st6" d="M400.5,460.9l49.9-44.8c4.3,5.4,6.6,12.2,6.6,19.1v60.3c0,8.5-6.9,15.4-15.4,15.4c0,0,0,0,0,0h-53.9v-21.3
				C387.7,478.6,392.3,468.2,400.5,460.9z"/>
			<polygon class="st7" points="276,510.9 237.5,510.9 242.3,441.6 271.2,441.6 			"/>
			<path class="st8" d="M276,426.2h-38.5v14.5c0,4.8,3.9,8.6,8.6,8.6h21.3c4.8,0,8.6-3.9,8.6-8.6L276,426.2L276,426.2z"/>
			<path class="st6" d="M186.3,362.8l70.4,63.4c0,0-19.7,10-44,30c-4.2,3.5-10.4,2.9-13.9-1.3c-0.6-0.7-1-1.4-1.4-2.2L164.3,380
				l10.5-15.7c2.3-3.5,7.1-4.5,10.7-2.2C185.7,362.3,186,362.6,186.3,362.8z"/>
			<path class="st6" d="M327.1,362.8l-70.4,63.4c0,0,19.7,10,44,30c4.2,3.5,10.4,2.9,13.9-1.3c0.6-0.7,1-1.4,1.4-2.2l33.1-72.7
				l-10.5-15.7c-2.3-3.5-7.1-4.5-10.7-2.2C327.7,362.3,327.4,362.6,327.1,362.8z"/>
			<path class="st9" d="M303.4,97.9l7.2,51c33,6.6,37.7,58.3,38.4,73.1c0.1,2.7,1,5.3,2.4,7.5L364,249c0,0-4.3-32.2,15.4-53.9
				C379.5,195.1,386.2,67.1,303.4,97.9z"/>
			<path class="st5" d="M371.8,245.7l-8.7,34.8c-1,4.1-4.7,7-9,7l0,0c-4.7,0-8.6-3.5-9.2-8.1l-4.5-35.6c-1.1-8.8,5.2-16.7,14-17.8
				c0.6-0.1,1.2-0.1,1.9-0.1l0,0c8.8,0,16,7.2,16,16C372.2,243.2,372.1,244.5,371.8,245.7z"/>
			<path class="st10" d="M164,84.1l11.4,7.8c-51.5,38-41.9,103.3-41.9,103.3c15.4,15.4,15.4,53.9,15.4,53.9l15.4-15.4
				c0,0-5.9-44.5,23.1-61.6c27-15.9,50.6-7.7,74.6-7.7c64.5,0,82.6-24.3,79.4-53.9c-1.6-15.3-25-47.2-84.7-46.2
				C232.6,64.6,187.4,71.9,164,84.1z"/>
			<path class="st11" d="M159.5,157.6c0,0-8.2-32.2,15.9-65.7c-51.5,38-41.9,103.3-41.9,103.3c15.4,15.4,15.4,53.9,15.4,53.9
				l15.4-15.4c0,0-5.9-44.5,23.1-61.6c27-15.9,50.6-7.7,74.6-7.7c9.3,0,18.6-0.6,27.8-1.9C240.1,164.1,210.8,126.4,159.5,157.6z"/>
			<path class="st2" d="M141.7,245.7l8.7,34.8c1,4.1,4.7,7,9,7l0,0c4.7,0,8.6-3.5,9.2-8.1l4.4-35.6c1.1-8.8-5.2-16.7-14-17.8
				c-0.6-0.1-1.2-0.1-1.9-0.1l0,0c-8.8,0-16,7.2-16,16C141.2,243.2,141.4,244.5,141.7,245.7z"/>
			<path class="st6" d="M356.9,495.5h-53.9c-4.3,0-7.7,3.4-7.7,7.7v0v7.7h69.3v-7.7C364.6,499,361.1,495.5,356.9,495.5L356.9,495.5z
				"/>
		</g>
	</g>
</g>
</svg>
