<svg width="24" height="24" viewBox="0 0 24 24" fill="none" xmlns="http://www.w3.org/2000/svg">
<rect width="24" height="24" rx="12" fill="white"/>
<g clip-path="url(#clip0_1925_42601)">
<path d="M22 12C22 6.4772 17.5228 2 12 2C6.4772 2 2 6.4772 2 12C2 16.6896 5.2288 20.6248 9.5844 21.7056V15.056H7.5224V12H9.5844V10.6832C9.5844 7.2796 11.1248 5.702 14.4664 5.702C15.1 5.702 16.1932 5.8264 16.6404 5.9504V8.7204C16.4044 8.6956 15.9944 8.6832 15.4852 8.6832C13.8456 8.6832 13.212 9.3044 13.212 10.9192V12H16.4784L15.9172 15.056H13.212V21.9268C18.1636 21.3288 22.0004 17.1128 22.0004 12H22Z" fill="#0866FF"/>
<path d="M15.9168 15.0552L16.478 11.9992H13.2116V10.9184C13.2116 9.30357 13.8452 8.68237 15.4848 8.68237C15.994 8.68237 16.404 8.69477 16.64 8.71957V5.94957C16.1928 5.82517 15.0996 5.70117 14.466 5.70117C11.1244 5.70117 9.58397 7.27877 9.58397 10.6824V11.9992H7.52197V15.0552H9.58397V21.7048C10.3576 21.8968 11.1668 21.9992 11.9996 21.9992C12.4096 21.9992 12.814 21.974 13.2112 21.926V15.0552H15.9164H15.9168Z" fill="white"/>
</g>
<defs>
<clipPath id="clip0_1925_42601">
<rect width="20" height="20" fill="white" transform="translate(2 2)"/>
</clipPath>
</defs>
</svg>
