<svg id="e6c7a302-1d79-4c46-b758-a00a31f9e26b" xmlns="http://www.w3.org/2000/svg" xmlns:xlink="http://www.w3.org/1999/xlink" viewBox="0 0 757.6 750.5"><defs><style>.cls-1{fill:url(#linear-gradient);}.cls-2,.cls-26{fill:#fff;}.cls-3{opacity:0.6;}.cls-4{fill:#6c63ff;}.cls-5{fill:url(#linear-gradient-2);}.cls-6{fill:url(#linear-gradient-3);}.cls-7{fill:#47e6b1;}.cls-8{fill:url(#linear-gradient-4);}.cls-9{fill:#f55f44;}.cls-10{fill:url(#linear-gradient-5);}.cls-11{fill:url(#linear-gradient-6);}.cls-12{fill:url(#linear-gradient-7);}.cls-13{fill:url(#linear-gradient-8);}.cls-14{fill:url(#linear-gradient-9);}.cls-15{fill:url(#linear-gradient-10);}.cls-16{fill:url(#linear-gradient-11);}.cls-17{fill:url(#linear-gradient-12);}.cls-18,.cls-25{fill:#535461;}.cls-18{opacity:0.25;}.cls-18,.cls-26{isolation:isolate;}.cls-19,.cls-20,.cls-21,.cls-22{fill:none;stroke-miterlimit:10;stroke-width:2px;}.cls-19{stroke:url(#linear-gradient-13);}.cls-20{stroke:#535461;}.cls-21{stroke:url(#linear-gradient-14);}.cls-22{stroke:url(#linear-gradient-15);}.cls-23{opacity:0.7;}.cls-24{fill:url(#linear-gradient-16);}.cls-26{opacity:0.1;}.cls-27{fill:#5629b6;}.cls-28{fill:#3ad29f;}.cls-29{fill:#fff422;}.cls-30{fill:url(#linear-gradient-17);}.cls-31{fill:#eee;}</style><linearGradient id="linear-gradient" x1="202.13" y1="159.03" x2="202.13" y2="223.41" gradientTransform="translate(711.7 690.5) rotate(180)" gradientUnits="userSpaceOnUse"><stop offset="0" stop-color="gray" stop-opacity="0.25"/><stop offset="0.54" stop-color="gray" stop-opacity="0.12"/><stop offset="1" stop-color="gray" stop-opacity="0.1"/></linearGradient><linearGradient id="linear-gradient-2" x1="39.62" y1="402.54" x2="39.62" y2="466.92" gradientTransform="translate(317.5 388.5) rotate(-90)" xlink:href="#linear-gradient"/><linearGradient id="linear-gradient-3" x1="-8.55" y1="150.26" x2="-8.55" y2="214.64" gradientTransform="translate(558.3 497.3) rotate(-90)" xlink:href="#linear-gradient"/><linearGradient id="linear-gradient-4" x1="179.12" y1="468.84" x2="179.12" y2="533.22" gradientTransform="translate(622.2 696.9) rotate(180)" xlink:href="#linear-gradient"/><linearGradient id="linear-gradient-5" x1="162.89" y1="687.71" x2="162.89" y2="752.09" gradientTransform="translate(-34.1 208.3) rotate(-90)" xlink:href="#linear-gradient"/><linearGradient id="linear-gradient-6" x1="299.74" y1="234.88" x2="299.74" y2="299.26" gradientTransform="translate(428.7 489.1) rotate(-90)" xlink:href="#linear-gradient"/><linearGradient id="linear-gradient-7" x1="517.76" y1="324.59" x2="517.76" y2="388.97" gradientTransform="translate(677.5 787.6) rotate(180)" xlink:href="#linear-gradient"/><linearGradient id="linear-gradient-8" x1="396.05" y1="409.61" x2="396.05" y2="473.99" gradientTransform="translate(-38.1 669.8) rotate(-90)" xlink:href="#linear-gradient"/><linearGradient id="linear-gradient-9" x1="202.42" y1="-114.74" x2="202.42" y2="-50.36" gradientTransform="translate(496.3 620.2) rotate(-90)" xlink:href="#linear-gradient"/><linearGradient id="linear-gradient-10" x1="451.56" y1="500.85" x2="451.56" y2="565.23" gradientTransform="translate(624.4 776) rotate(180)" xlink:href="#linear-gradient"/><linearGradient id="linear-gradient-11" x1="419.24" y1="589.92" x2="419.24" y2="654.3" gradientTransform="translate(-206.4 511.7) rotate(-90)" xlink:href="#linear-gradient"/><linearGradient id="linear-gradient-12" x1="363.98" y1="-31.8" x2="363.98" y2="32.58" gradientTransform="translate(425.1 600.6) rotate(-90)" xlink:href="#linear-gradient"/><linearGradient id="linear-gradient-13" x1="490.46" y1="183.92" x2="593.56" y2="183.92" gradientTransform="matrix(1, 0, 0, -1, -166.4, 677.64)" xlink:href="#linear-gradient"/><linearGradient id="linear-gradient-14" x1="606.71" y1="226.18" x2="638.67" y2="226.18" gradientTransform="matrix(1, 0, 0, -1, -166.4, 677.64)" xlink:href="#linear-gradient"/><linearGradient id="linear-gradient-15" x1="721.93" y1="168.6" x2="752.82" y2="168.6" gradientTransform="matrix(1, 0, 0, -1, -166.4, 677.64)" xlink:href="#linear-gradient"/><linearGradient id="linear-gradient-16" x1="623.31" y1="244.69" x2="623.31" y2="612.26" gradientTransform="matrix(1, 0, 0, -1, -166.4, 677.64)" xlink:href="#linear-gradient"/><linearGradient id="linear-gradient-17" x1="234.8" y1="-29.46" x2="234.8" y2="136.39" gradientTransform="translate(721.7 718.2) rotate(180)" xlink:href="#linear-gradient"/></defs><title>6</title><rect class="cls-1" x="457.1" y="467.1" width="104.8" height="64.38" transform="translate(-173.7 162.6) rotate(-16.6)"/><rect class="cls-2" x="458.3" y="468.9" width="101.2" height="60.09" transform="translate(-173.6 162.4) rotate(-16.6)"/><g class="cls-3"><rect class="cls-4" x="458.5" y="485.6" width="12.9" height="9.53" transform="translate(-173 149.5) rotate(-16.6)"/><rect class="cls-4" x="474.1" y="501.4" width="49.4" height="3.09" transform="translate(-175.1 159.7) rotate(-16.6)"/><rect class="cls-4" x="489.2" y="506.9" width="36" height="2.06" transform="translate(-176.2 162.3) rotate(-16.6)"/></g><rect class="cls-5" x="720" y="296.5" width="64.4" height="104.76" transform="matrix(0.19, -0.98, 0.98, 0.19, 213.78, 1016.77)"/><rect class="cls-2" x="720.2" y="298.6" width="60" height="101.03" transform="translate(212.5 1015.4) rotate(-79)"/><g class="cls-3"><rect class="cls-4" x="712" y="313.9" width="9.5" height="12.88" transform="translate(213.1 958.9) rotate(-79)"/><rect class="cls-4" x="739.4" y="322.5" width="3.1" height="49.44" transform="translate(206.3 1004.3) rotate(-79)"/><rect class="cls-4" x="745.1" y="337.5" width="2.1" height="36.05" transform="translate(202.3 1016.2) rotate(-79)"/></g><rect class="cls-6" x="708.6" y="453.5" width="64.4" height="104.76" transform="translate(-192.4 332.8) rotate(-23.5)"/><rect class="cls-2" x="711.1" y="454.6" width="60.1" height="101.21" transform="translate(-192.1 332.9) rotate(-23.5)"/><g class="cls-3"><rect class="cls-7" x="739.5" y="454.1" width="9.5" height="12.88" transform="translate(-174 330.4) rotate(-23.4)"/><rect class="cls-7" x="734.2" y="470.9" width="3.1" height="49.44" transform="translate(-188.7 330) rotate(-23.4)"/><rect class="cls-7" x="730.8" y="486.6" width="2.1" height="36.05" transform="translate(-192.6 329.1) rotate(-23.4)"/></g><rect class="cls-8" x="390.7" y="163.6" width="104.8" height="64.38" transform="translate(-89.7 131) rotate(-16.6)"/><rect class="cls-2" x="391.8" y="165.4" width="101.2" height="60.09" transform="translate(-89.6 130.8) rotate(-16.6)"/><g class="cls-3"><rect class="cls-9" x="392" y="182.1" width="12.9" height="9.53" transform="translate(-89 117.8) rotate(-16.6)"/><rect class="cls-9" x="407.6" y="197.9" width="49.4" height="3.09" transform="translate(-91.2 128) rotate(-16.6)"/><rect class="cls-9" x="422.7" y="203.5" width="36" height="2.06" transform="translate(-92.3 130.7) rotate(-16.6)"/></g><rect class="cls-10" x="653.6" y="-7" width="64.4" height="104.76" transform="translate(457.9 706) rotate(-79)"/><rect class="cls-2" x="655.3" y="-5.8" width="60.1" height="101.21" transform="translate(458.2 705.2) rotate(-79)"/><g class="cls-3"><rect class="cls-4" x="645.5" y="10.4" width="9.5" height="12.88" transform="translate(457.2 648.1) rotate(-79)"/><rect class="cls-4" x="672.9" y="19" width="3.1" height="49.44" transform="translate(450.4 693.6) rotate(-79)"/><rect class="cls-4" x="678.6" y="34" width="2.1" height="36.05" transform="translate(446.4 705.4) rotate(-79)"/></g><rect class="cls-11" x="663.6" y="137" width="64.4" height="104.76" transform="translate(-70.2 288.7) rotate(-23.5)"/><rect class="cls-2" x="666" y="138.1" width="60.1" height="101.21" transform="translate(-69.9 288.8) rotate(-23.5)"/><g class="cls-3"><rect class="cls-7" x="694.4" y="137.6" width="9.5" height="12.88" transform="translate(-51.8 286.4) rotate(-23.4)"/><rect class="cls-7" x="689.2" y="154.4" width="3.1" height="49.44" transform="translate(-66.5 285.9) rotate(-23.4)"/><rect class="cls-7" x="685.7" y="170.1" width="2.1" height="36.05" transform="translate(-70.4 285.1) rotate(-23.4)"/></g><rect class="cls-12" x="107.4" y="398.6" width="104.8" height="64.38" transform="translate(-168.7 59.8) rotate(-16.6)"/><rect class="cls-2" x="108.5" y="400.4" width="101.2" height="60.09" transform="translate(-168.6 59.6) rotate(-16.6)"/><g class="cls-3"><rect class="cls-4" x="108.7" y="417.2" width="12.9" height="9.53" transform="translate(-168 46.7) rotate(-16.6)"/><rect class="cls-4" x="124.3" y="433" width="49.4" height="3.09" transform="translate(-170.2 56.9) rotate(-16.6)"/><rect class="cls-4" x="139.5" y="438.5" width="36" height="2.06" transform="translate(-171.2 59.5) rotate(-16.6)"/></g><rect class="cls-13" x="371.5" y="221.4" width="64.4" height="104.76" transform="translate(5.6 614) rotate(-79)"/><rect class="cls-2" x="372.2" y="223.1" width="60" height="101.03" transform="translate(4.8 612.6) rotate(-79)"/><g class="cls-3"><rect class="cls-9" x="363.5" y="238.8" width="9.5" height="12.88" transform="translate(4.9 556) rotate(-79)"/><rect class="cls-9" x="390.9" y="247.4" width="3.1" height="49.44" transform="translate(-1.9 601.5) rotate(-79)"/><rect class="cls-9" x="396.6" y="262.5" width="2.1" height="36.05" transform="translate(-5.9 613.4) rotate(-79)"/></g><rect class="cls-14" x="381.5" y="365.4" width="64.4" height="104.76" transform="translate(-184.3 195.4) rotate(-23.5)"/><rect class="cls-2" x="384" y="366.5" width="60.1" height="101.21" transform="translate(-184.1 195.4) rotate(-23.5)"/><g class="cls-3"><rect class="cls-7" x="412.4" y="366" width="9.5" height="12.88" transform="translate(-166 193) rotate(-23.4)"/><rect class="cls-7" x="407.1" y="382.8" width="3.1" height="49.44" transform="translate(-180.7 192.5) rotate(-23.4)"/><rect class="cls-7" x="403.7" y="398.5" width="2.1" height="36.05" transform="translate(-184.6 191.7) rotate(-23.4)"/></g><rect class="cls-15" x="120.4" y="210.8" width="104.8" height="64.38" transform="translate(-114.5 55.7) rotate(-16.6)"/><rect class="cls-2" x="123.3" y="211.8" width="101.5" height="60.26" transform="translate(-114.8 56.9) rotate(-16.8)"/><g class="cls-3"><rect class="cls-4" x="121.8" y="229.3" width="12.9" height="9.53" transform="translate(-113.8 42.6) rotate(-16.6)"/><rect class="cls-4" x="137.3" y="245.2" width="49.4" height="3.09" transform="translate(-116 52.8) rotate(-16.6)"/><rect class="cls-4" x="152.5" y="250.7" width="36" height="2.06" transform="translate(-117 55.4) rotate(-16.6)"/></g><rect class="cls-16" x="382.5" y="40.9" width="64.3" height="104.58" transform="translate(192 478.8) rotate(-79)"/><rect class="cls-2" x="385.1" y="41.3" width="60.1" height="101.21" transform="translate(193.3 478.1) rotate(-79)"/><g class="cls-3"><rect class="cls-4" x="375.3" y="57.6" width="9.5" height="12.88" transform="translate(192.3 421.1) rotate(-79)"/><rect class="cls-4" x="402.7" y="66.2" width="3.1" height="49.44" transform="translate(185.5 466.5) rotate(-79)"/><rect class="cls-9" x="408.4" y="81.2" width="2.1" height="36.05" transform="translate(181.5 478.3) rotate(-79)"/></g><rect class="cls-17" x="393.3" y="184.2" width="64.4" height="104.76" transform="translate(-111.3 185.1) rotate(-23.5)"/><rect class="cls-2" x="395.8" y="185.3" width="60.1" height="101.21" transform="translate(-111 185.2) rotate(-23.5)"/><g class="cls-3"><rect class="cls-7" x="424.2" y="184.8" width="9.5" height="12.88" transform="translate(-92.9 182.7) rotate(-23.4)"/><rect class="cls-7" x="418.9" y="201.6" width="3.1" height="49.44" transform="translate(-107.6 182.2) rotate(-23.4)"/><rect class="cls-7" x="415.5" y="217.3" width="2.1" height="36.05" transform="translate(-111.5 181.4) rotate(-23.4)"/></g><circle class="cls-18" cx="100.7" cy="73" r="5.5"/><circle class="cls-18" cx="609.5" cy="525.6" r="5.5"/><circle class="cls-18" cx="172.5" cy="504.2" r="5.5"/><circle class="cls-18" cx="694.9" cy="416.6" r="5.5" transform="translate(-137.4 631.7) rotate(-46.6)"/><circle class="cls-18" cx="698" cy="140.2" r="5.5"/><polygon class="cls-18" points="268.2 31.4 263.3 31.4 263.3 26.6 261.3 26.6 261.3 31.4 256.4 31.4 256.4 33.4 261.3 33.4 261.3 38.3 263.3 38.3 263.3 33.4 268.2 33.4 268.2 31.4"/><polygon class="cls-18" points="218.8 119.7 214 119.7 214 114.8 212 114.8 212 119.7 207.1 119.7 207.1 121.7 212 121.7 212 126.6 214 126.6 214 121.7 218.8 121.7 218.8 119.7"/><polygon class="cls-18" points="126.4 336.2 121.6 336.2 121.6 331.3 119.6 331.3 119.6 336.2 114.7 336.2 114.7 338.2 119.6 338.2 119.6 343 121.6 343 121.6 338.2 126.4 338.2 126.4 336.2"/><polygon class="cls-18" points="59.2 155.3 54.4 155.3 54.4 150.4 52.4 150.4 52.4 155.3 47.5 155.3 47.5 157.3 52.4 157.3 52.4 162.1 54.4 162.1 54.4 157.3 59.2 157.3 59.2 155.3"/><polygon class="cls-18" points="11.7 291.4 6.8 291.4 6.8 286.5 4.9 286.5 4.9 291.4 0 291.4 0 293.4 4.9 293.4 4.9 298.2 6.8 298.2 6.8 293.4 11.7 293.4 11.7 291.4"/><polygon class="cls-18" points="743.1 242.4 738.3 242.4 738.3 237.5 736.3 237.5 736.3 242.4 731.4 242.4 731.4 244.3 736.3 244.3 736.3 249.2 738.3 249.2 738.3 244.3 743.1 244.3 743.1 242.4"/><polygon class="cls-18" points="697.8 284.5 692.9 284.5 692.9 279.6 690.9 279.6 690.9 284.5 686 284.5 686 286.5 690.9 286.5 690.9 291.3 692.9 291.3 692.9 286.5 697.8 286.5 697.8 284.5"/><polygon class="cls-18" points="526.4 77.5 521.5 77.5 521.5 72.6 519.6 72.6 519.6 77.5 514.7 77.5 514.7 79.5 519.6 79.5 519.6 84.3 521.5 84.3 521.5 79.5 526.4 79.5 526.4 77.5"/><path class="cls-19" d="M326.1,395.7c-3.5,11.4,1.8,24.8,12,30.8,4.3,2.5,9.3,3.8,13.5,6.5,9,5.9,12.6,17.2,15.5,27.6s6.8,24.6,3.7,36.6c-2,7.6-6.5,14.4-9,21.9a46.3,46.3,0,0,0-2.2,19.5c.4,3.5,1.3,7.2,3.7,9.8s9,4.3,14,5.2a68.1,68.1,0,0,1,49,38" transform="translate(-52.2 -3.8)"/><path class="cls-20" d="M327.2,395.7c-3.5,11.4,1.8,24.8,12,30.8,4.3,2.5,9.3,3.8,13.4,6.5,9.1,5.9,12.6,17.2,15.6,27.6s6.7,24.6,3.7,36.6c-2,7.6-6.5,14.4-9,21.9a44.7,44.7,0,0,0-2.2,19.5c.4,3.5,1.2,7.2,3.6,9.8s9,4.3,14,5.2a67.9,67.9,0,0,1,49,38" transform="translate(-52.2 -3.8)"/><path class="cls-21" d="M459.7,310.9c-8.6,12-17.6,25-18.3,39.7-1.2,22.8,17,41.4,25.1,62.6a74.5,74.5,0,0,1-2.5,58.2c-4,8.2-9.6,16.3-8.9,25.4.4,5.5,3.2,10.5,5.4,15.6a88.3,88.3,0,0,1-5.1,79.7" transform="translate(-52.2 -3.8)"/><path class="cls-20" d="M460.8,310.9c-8.7,12-17.6,25-18.4,39.7-1.1,22.8,17,41.4,25.2,62.6a74.5,74.5,0,0,1-2.5,58.2c-4,8.2-9.6,16.3-8.9,25.4.4,5.5,3.2,10.5,5.4,15.6a88.3,88.3,0,0,1-5.1,79.7" transform="translate(-52.2 -3.8)"/><path class="cls-22" d="M580.8,419.1l4.2,34c.6,4.5,1,9.5-1.4,13.3s-6.6,5.4-10,8.1c-11,8.9-10,25.9-6.2,39.5s9.3,28.3,4,41.4c-2.2,5.4-6,10-8.9,15A46,46,0,0,0,557,599" transform="translate(-52.2 -3.8)"/><path class="cls-20" d="M581.8,419.1l4.2,34c.6,4.5,1,9.5-1.4,13.3s-6.6,5.4-10,8.1c-11,8.9-10,25.9-6.2,39.5s9.3,28.3,4,41.4c-2.2,5.4-6,10-8.9,15A46,46,0,0,0,558,599" transform="translate(-52.2 -3.8)"/><g class="cls-23"><path class="cls-24" d="M689.1,279.3a101,101,0,0,0-101-100.9,99.7,99.7,0,0,0-31.1,5,109.8,109.8,0,0,0,1.3-17.2A100.9,100.9,0,0,0,356.8,159a100.9,100.9,0,0,0-127.1,64.7,103.4,103.4,0,0,0-5,31.2c0,50.6,37.3,122.5,85.9,135.3l7.5,4.3L314,408.6h24.3l-5.2-14.1,7.5-4.3c37.5-9.9,68.3-55.1,80.4-98.4a73.2,73.2,0,0,0,21.5,9.7l7.5,4.4-4.1,14h24.3l-5.3-14.1,7.6-4.3a68.9,68.9,0,0,0,16-6.5c6.4,48.7,41,108.1,84.7,119.6l7.5,4.3L576.6,433h24.3l-5.2-14.1,7.5-4.3C651.8,401.8,689.1,329.9,689.1,279.3Z" transform="translate(-52.2 -3.8)"/></g><polygon class="cls-9" points="289.9 399.6 266.4 399.6 270.5 385.5 284.6 385.5 289.9 399.6"/><path class="cls-9" d="M427.4,254.7c0,53.9-43.7,132.8-97.6,132.8s-97.5-79-97.5-132.8a97.6,97.6,0,0,1,195.1,0Z" transform="translate(-52.2 -3.8)"/><polygon class="cls-25" points="284.6 386.1 270.5 386.1 262.3 381.4 292.9 381.4 284.6 386.1"/><path class="cls-26" d="M294.6,178.9s-41.2,22.3-47,67" transform="translate(-52.2 -3.8)"/><polygon class="cls-27" points="417.5 313.9 394 313.9 398.1 299.7 412.3 299.7 417.5 313.9"/><path class="cls-27" d="M555,168.9c0,53.9-43.7,132.9-97.6,132.9s-97.6-79-97.6-132.9a97.6,97.6,0,0,1,195.2,0Z" transform="translate(-52.2 -3.8)"/><polygon class="cls-25" points="412.3 300.3 398.1 300.3 389.9 295.6 420.5 295.6 412.3 300.3"/><path class="cls-26" d="M422.2,93.1s-41.2,22.3-47,67" transform="translate(-52.2 -3.8)"/><polygon class="cls-28" points="544.1 423.2 520.6 423.2 524.7 409.1 538.8 409.1 544.1 423.2"/><path class="cls-29" d="M681.6,278.3c0,53.9-43.7,132.8-97.6,132.8s-97.6-79-97.6-132.8a97.6,97.6,0,1,1,195.2,0Z" transform="translate(-52.2 -3.8)"/><polygon class="cls-25" points="538.8 409.7 524.7 409.7 516.5 405 547 405 538.8 409.7"/><path class="cls-26" d="M548.7,202.5s-41.1,22.3-47,67" transform="translate(-52.2 -3.8)"/><rect class="cls-30" x="351.5" y="581.6" width="270.2" height="166.06" transform="translate(-84.8 21.4) rotate(-2.9)"/><rect class="cls-31" x="355" y="584.3" width="260.7" height="154.78" transform="translate(-85.4 21.9) rotate(-2.9)"/><rect class="cls-27" x="363.6" y="601.4" width="33.2" height="24.55" transform="matrix(1, -0.05, 0.05, 1, -83.12, 16.46)"/><rect class="cls-27" x="393.6" y="661.9" width="127.4" height="7.96" transform="translate(-85.7 20.5) rotate(-2.9)"/><rect class="cls-27" x="429" y="680.9" width="92.9" height="5.31" transform="translate(-86.6 21.4) rotate(-2.9)"/></svg>