<svg width="160" height="80" viewBox="0 0 160 80" fill="none" xmlns="http://www.w3.org/2000/svg">
<path d="M83.8476 40.6273C92.6259 27.7449 100.89 14.1058 108.207 0C99.8787 9.40384 90.0609 23.0871 81.0707 36.5008C76.3053 29.619 70.604 22.2421 64.0726 15.3318C70.5445 27.3069 73.8179 33.8984 78.2963 40.6739C64.6777 61.2519 53.5904 80 53.5904 80C62.9272 69.2198 72.2329 57.351 81.0707 44.6786C84.8586 49.9119 89.7584 55.8372 97.5878 64.7278C97.5723 64.7149 92.6854 54.0695 83.8476 40.6273Z" fill="black"/>
<path fill-rule="evenodd" clip-rule="evenodd" d="M0 40.7182C0 34.3677 1.51002 29.3781 4.52488 25.7648C7.54233 22.1516 11.9302 20.3372 17.7091 20.3372C20.437 20.3372 22.7899 20.7597 24.7808 21.6228C26.7718 22.4678 28.4318 23.6187 29.7737 25.0391C31.1157 26.4595 32.1111 28.1236 32.7446 30.0443C33.3936 31.9494 33.7117 33.9893 33.7117 36.1666C33.7117 36.6798 33.6962 37.1956 33.6651 37.6803C33.6367 38.178 33.6057 38.6783 33.5462 39.1915C30.7537 39.1448 28.0103 39.0852 25.2644 39.0412C22.5339 38.9945 19.775 38.9634 16.9825 38.9634C15.2786 38.9634 13.5902 38.9945 11.9147 39.0412C10.2417 39.0852 8.55332 39.1448 6.84679 39.1915C6.80284 39.4481 6.77181 39.8421 6.77181 40.3553V41.3688C6.77181 43.3802 7.07433 45.2698 7.66127 47.022C8.2508 48.7768 9.12475 50.2879 10.2573 51.558C11.3872 52.8281 12.7757 53.826 14.4357 54.5829C16.0776 55.3398 17.9935 55.7026 20.1499 55.7026C21.1764 55.7026 22.2314 55.5653 23.3174 55.2775C24.4033 54.9924 25.4609 54.614 26.4848 54.1137C27.5113 53.6316 28.4757 53.0406 29.3807 52.3745C30.2857 51.7109 31.0717 50.9852 31.7362 50.1972L32.1267 50.4253L31.6587 54.22C30.1047 55.459 28.1913 56.5191 25.8978 57.3952C23.6044 58.2739 21.223 58.712 18.7485 58.712C15.9586 58.712 13.4247 58.2869 11.1312 57.4263C8.84033 56.5787 6.84679 55.3398 5.17388 53.7068C3.49838 52.0738 2.20297 50.1531 1.31351 47.9292C0.452488 45.7078 0 43.305 0 40.7182ZM17.8591 22.8151C15.9586 22.8151 14.3452 23.2558 13.0317 24.1319C11.7207 25.008 10.6348 26.1122 9.78926 27.4289C8.94375 28.7431 8.29734 30.1946 7.85778 31.768C7.42081 33.3387 7.14931 34.8213 7.0433 36.2288C8.64382 36.2729 10.3012 36.3325 12.0362 36.3791C13.7556 36.4232 15.4467 36.4543 17.1041 36.4543C18.808 36.4543 20.5275 36.4232 22.2779 36.3791C24.0284 36.3325 25.7324 36.2729 27.3768 36.2288C27.3768 34.8369 27.2553 33.3543 27.0278 31.812C26.8028 30.2542 26.3348 28.8182 25.6419 27.473C24.9489 26.1277 23.9819 25.0235 22.7459 24.1474C21.4945 23.2558 19.881 22.8151 17.8591 22.8151Z" fill="black"/>
<path d="M58.0392 26.6124C57.2842 26.3532 56.5317 26.2184 55.7612 26.2184C54.5253 26.2184 53.4083 26.5061 52.4438 27.066C51.4639 27.6388 50.6339 28.3957 49.9694 29.347C49.3048 30.3008 48.7774 31.4336 48.4154 32.7659C48.0534 34.08 47.8724 35.4875 47.8724 36.9831V45.5108C47.8724 48.9737 47.8879 51.6202 47.9189 53.4501C47.9474 55.2775 48.0379 56.7757 48.1904 57.9084C47.1639 57.8047 46.1245 57.7581 45.098 57.7581C43.9655 57.7581 42.8795 57.8047 41.8556 57.9084C42.0056 56.1562 42.0961 53.7664 42.1271 50.7415C42.1555 47.7192 42.171 44.0152 42.171 39.614V37.136C42.171 35.1246 42.1555 32.7944 42.1271 30.1635C42.0961 27.5326 42.0056 24.5103 41.8556 21.0914C42.427 21.1977 42.9571 21.2884 43.4846 21.3636C43.9965 21.4413 44.5395 21.4854 45.1135 21.4854C45.5815 21.4854 46.0624 21.4413 46.577 21.3636C47.0889 21.2884 47.6319 21.1977 48.2059 21.0914C47.9939 22.9525 47.8879 24.4196 47.8569 25.5082C47.8284 26.5969 47.8129 27.6233 47.8129 28.6083L47.9629 28.6834C51.0114 23.1028 54.4037 20.306 58.1736 20.306C58.6416 20.306 59.0347 20.3371 59.3656 20.3812C59.6992 20.4279 60.1206 20.5626 60.6481 20.7752C60.3921 21.3947 60.2396 22.333 60.1801 23.6031C60.1361 24.8732 60.1051 26.0214 60.1051 27.0505L59.5621 27.4419C59.2751 27.1567 58.7787 26.869 58.0392 26.6124Z" fill="black"/>
<path fill-rule="evenodd" clip-rule="evenodd" d="M97.0883 40.7182C97.0883 34.3677 98.5983 29.3781 101.613 25.7648C104.631 22.1516 109.021 20.3372 114.797 20.3372C117.528 20.3372 119.881 20.7597 121.872 21.6228C123.863 22.4678 125.52 23.6187 126.862 25.0391C128.206 26.4595 129.202 28.1236 129.835 30.0443C130.482 31.9494 130.8 33.9893 130.8 36.1666C130.8 36.6798 130.784 37.1956 130.753 37.6803C130.725 38.178 130.694 38.6783 130.634 39.1915C127.845 39.1448 125.099 39.0852 122.353 39.0412C119.622 38.9945 116.863 38.9634 114.073 38.9634C112.369 38.9634 110.678 38.9945 109.005 39.0412C107.33 39.0852 105.642 39.1448 103.938 39.1915C103.891 39.4481 103.863 39.8421 103.863 40.3553V41.3688C103.863 43.3802 104.163 45.2698 104.752 47.022C105.339 48.7768 106.216 50.2879 107.346 51.558C108.478 52.8281 109.864 53.826 111.524 54.5829C113.168 55.3398 115.084 55.7026 117.241 55.7026C118.265 55.7026 119.322 55.5653 120.408 55.2775C121.494 54.9924 122.549 54.614 123.576 54.1137C124.6 53.6316 125.567 53.0406 126.472 52.3745C127.376 51.7109 128.16 50.9852 128.824 50.1972L129.215 50.4253L128.749 54.22C127.195 55.459 125.28 56.5191 122.986 57.3952C120.695 58.2739 118.311 58.712 115.837 58.712C113.047 58.712 110.513 58.2869 108.219 57.4263C105.929 56.5787 103.938 55.3398 102.262 53.7068C100.589 52.0738 99.2912 50.1531 98.4018 47.9292C97.5407 45.7078 97.0883 43.305 97.0883 40.7182ZM114.947 22.8151C113.047 22.8151 111.433 23.2558 110.12 24.1319C108.809 25.008 107.723 26.1122 106.878 27.4289C106.035 28.7431 105.386 30.1946 104.949 31.768C104.509 33.3387 104.238 34.8213 104.134 36.2288C105.732 36.2729 107.392 36.3325 109.124 36.3791C110.844 36.4232 112.535 36.4543 114.192 36.4543C115.899 36.4543 117.618 36.4232 119.366 36.3791C121.117 36.3325 122.821 36.2729 124.465 36.2288C124.465 34.8369 124.344 33.3543 124.119 31.812C123.891 30.2542 123.423 28.8182 122.73 27.473C122.037 26.1277 121.07 25.0235 119.834 24.1474C118.583 23.2558 116.954 22.8151 114.947 22.8151Z" fill="black"/>
<path d="M139.729 52.4211C140.272 53.0406 140.921 53.616 141.66 54.1603C142.415 54.7047 143.258 55.1583 144.209 55.5211C145.158 55.884 146.185 56.0655 147.255 56.0655C148.235 56.0655 149.171 55.9151 150.076 55.5963C150.981 55.2775 151.78 54.8394 152.473 54.2822C153.169 53.7067 153.727 52.9965 154.133 52.1049C154.542 51.2262 154.751 50.2127 154.751 49.08C154.751 47.4781 154.299 46.2521 153.394 45.3915C152.489 44.544 151.374 43.8337 150.03 43.305C148.688 42.7606 147.224 42.2915 145.626 41.8664C144.028 41.4594 142.565 40.8685 141.223 40.1297C139.879 39.3884 138.764 38.3905 137.859 37.1489C136.954 35.9099 136.502 34.2018 136.502 32.0401C136.502 30.3319 136.789 28.7741 137.347 27.3511C137.919 25.9307 138.733 24.7072 139.819 23.6782C140.905 22.6492 142.247 21.8327 143.847 21.2443C145.445 20.6533 147.271 20.3527 149.337 20.3527C151.237 20.3527 152.851 20.6093 154.164 21.1225C155.475 21.6357 156.727 22.1049 157.919 22.5144C157.513 23.2842 157.12 24.2536 156.758 25.3864C156.396 26.5217 156.171 27.3978 156.065 28.0173H155.129C154.723 26.7783 153.921 25.6741 152.732 24.6917C151.54 23.7093 150.076 23.2246 148.326 23.2246C147.558 23.2246 146.772 23.3594 146.004 23.6186C145.233 23.8752 144.54 24.2666 143.922 24.7824C143.304 25.2956 142.79 25.9773 142.369 26.7938C141.963 27.6233 141.751 28.6082 141.751 29.7409C141.751 31.3895 142.203 32.6751 143.108 33.5823C144.013 34.4895 145.13 35.1997 146.472 35.713C147.814 36.2288 149.277 36.6824 150.875 37.0738C152.473 37.4677 153.937 38.0121 155.279 38.7067C156.623 39.404 157.738 40.3708 158.643 41.6098C159.548 42.8514 160 44.5595 160 46.7212C160 48.2168 159.685 49.6995 159.036 51.1354C158.387 52.587 157.466 53.8882 156.246 55.052C155.038 56.2158 153.575 57.123 151.871 57.7581C150.167 58.4086 148.235 58.7275 146.079 58.7275C143.71 58.7275 141.72 58.4994 140.122 58.0302C138.521 57.5611 137.179 57.0167 136.093 56.3972C136.396 55.7311 136.727 54.8109 137.06 53.6445C137.391 52.4807 137.557 51.5139 137.557 50.7415H138.493C138.795 51.2417 139.186 51.8016 139.729 52.4211Z" fill="black"/>
</svg>
