<svg xmlns="http://www.w3.org/2000/svg" xmlns:xlink="http://www.w3.org/1999/xlink" id="Layer_1" x="0" y="0" enable-background="new 0 0 410 410" version="1.1" viewBox="0 0 410 410" xml:space="preserve"><style type="text/css">.st0{fill:#63d2d6}.st1{display:none;fill:#fff}.st2{fill:#5629b6}</style><g id="Page-1"><g id="Artboard"><g id="loss" transform="translate(0.000000, 69.000000)"><polygon id="Shape" points="162.4 168 7 8 119.2 61.3 163 167.4" class="st0"/><polygon points="259.2 265 307.1 216.8 211.3 120.4 163.9 168 120 61.7 157.3 78.2 211.3 24 355.1 168.6 403 120.4 403 265" class="st1"/><g id="Group"><path d="M163.1,175.2c-1.9,0-3.8-0.7-5.2-2.2L2.1,13.1c-2.5-2.5-2.8-6.5-0.7-9.4c2.1-2.9,5.9-3.9,9.1-2.4 l112.4,53.3c3.7,1.7,5.2,6.1,3.5,9.7c-1.7,3.6-6.1,5.2-9.8,3.5L40.9,32l127.4,130.7c2.8,2.9,2.8,7.5-0.1,10.3 C166.7,174.5,164.9,175.2,163.1,175.2z" class="st2"/><path d="M163.7,174.5c-0.5,0-0.9,0-1.4-0.1c-2.4-0.5-4.4-2.1-5.3-4.4l-19.8-47.7c-1.5-3.7,0.2-8,4-9.6 c3.7-1.6,8,0.2,9.6,4l15.6,37.6l39.6-39.7c1.4-1.4,3.2-2.2,5.2-2.2l0,0c1.9,0,3.8,0.8,5.2,2.2l38.9,39c2.8,2.9,2.8,7.5,0,10.3 c-2.9,2.8-7.5,2.8-10.4,0L211,130.2l-42.1,42.2C167.5,173.8,165.6,174.5,163.7,174.5z" class="st2"/><path d="M402.7,271.3H258.9c-3,0-5.6-1.8-6.8-4.5c-1.1-2.7-0.5-5.9,1.6-8l42.8-42.9l-29.9-30 c-2.9-2.9-2.8-7.5,0-10.3c2.9-2.8,7.5-2.8,10.4,0l35,35.1c2.8,2.9,2.8,7.5,0,10.3l-35.5,35.6h118.8v-23.8c0-4,3.3-7.3,7.3-7.3 c4,0,7.3,3.3,7.3,7.3V264C410,268,406.7,271.3,402.7,271.3z" class="st2"/><path d="M402.7,203.7c-4,0-7.3-3.3-7.3-7.3v-58.8L359.9,173c-2.7,2.8-7.6,2.8-10.4,0L211,34.1l-48.7,48.8 c-2.1,2.1-5.4,2.7-8.1,1.5l-20.6-9.1l5,12.1c1.5,3.7-0.2,8-4,9.6c-3.7,1.5-8-0.2-9.6-4l-12-29c-1.1-2.8-0.5-5.9,1.6-8 c2.1-2.1,5.3-2.7,8.1-1.5L155.4,69l50.4-50.5c1.4-1.4,3.2-2.2,5.2-2.2c1.9,0,3.8,0.8,5.2,2.2l138.6,139l42.7-42.9 c2.1-2.1,5.2-2.7,8-1.6c2.7,1.1,4.5,3.8,4.5,6.8v76.5C410,200.4,406.7,203.7,402.7,203.7z" class="st2"/></g></g></g></g></svg>