<svg xmlns="http://www.w3.org/2000/svg" xmlns:xlink="http://www.w3.org/1999/xlink" id="Layer_1" x="0" y="0" enable-background="new 0 0 566.9 566.9" version="1.1" viewBox="0 0 566.9 566.9" xml:space="preserve"><style type="text/css">.st0{fill:#63d2d6}.st1{fill:#5629b6}</style><rect width="51.8" height="75.9" x="95.8" y="117.4" class="st0"/><rect width="51.8" height="75.9" x="410" y="167.2" class="st0"/><path d="M139.4,389.7H96.3c-4,0-7.3-3.3-7.3-7.3s3.3-7.3,7.3-7.3h43.1c4,0,7.3,3.3,7.3,7.3S143.5,389.7,139.4,389.7z" class="st1"/><path d="M461.4,389.7H176.1c-4,0-7.3-3.3-7.3-7.3s3.3-7.3,7.3-7.3h285.3c4,0,7.3,3.3,7.3,7.3S465.4,389.7,461.4,389.7z" class="st1"/><path d="M436.1,433.6H322.5c-4,0-7.3-3.3-7.3-7.3c0-4,3.3-7.3,7.3-7.3h113.5c4,0,7.3,3.3,7.3,7.3	C443.4,430.3,440.1,433.6,436.1,433.6z" class="st1"/><path d="M304.2,250.5h-13.8c-30.8,0-44.6-15.2-56.8-28.6c-11.1-12.2-20.6-22.7-42.6-22.7H95.8c-4,0-7.3,3.3-7.3,7.3	v18.3c0,4-3.3,7.3-7.3,7.3c-4,0-7.3-3.3-7.3-7.3v-18.3c0-12.2,9.8-22,22-22H191c28.5,0,41.8,14.6,53.5,27.5s21.7,23.8,46,23.8h13.8	c4,0,7.3,3.3,7.3,7.3C311.6,247.2,308.3,250.5,304.2,250.5C304.3,250.5,304.3,250.5,304.2,250.5L304.2,250.5z" class="st1"/><path d="M115.6,433.6c-10.8,0-20.1-7.9-21.7-18.6c-1.2-7.8-2.9-18.8-4.8-31.6c-5.4-37-12.4-88-14.6-121.4	c-0.3-4,2.8-7.5,6.8-7.8c4-0.3,7.5,2.8,7.8,6.8c2.2,32.9,9.1,83.6,14.5,120.3c1.9,12.8,3.6,23.7,4.8,31.5c0.5,3.6,3.6,6.2,7.2,6.2	h170.3c4,0,7.3,3.3,7.3,7.3c0,4-3.3,7.3-7.3,7.3l0,0L115.6,433.6L115.6,433.6z" class="st1"/><path d="M457.5,415.3c-0.4,0-0.8,0-1.1-0.1c-4-0.6-6.7-4.4-6.1-8.4c1.1-7,2.5-15.8,3.9-25.6c4.6-30.9,12.5-88,14.6-123	c0.2-4-2.8-7.5-6.8-7.7h-121c-4,0-7.3-3.3-7.3-7.3s3.3-7.3,7.3-7.3h120.5c0.4,0,0.9,0,1.3,0c12.1,0.7,21.3,11.1,20.6,23.2	c-2,33.8-9.1,86.3-14.8,124.3c-1.4,9.8-2.8,18.6-3.9,25.7C464.2,412.7,461.1,415.3,457.5,415.3L457.5,415.3z" class="st1"/><path d="M461.4,247.6c-4,0-7.3-3.3-7.3-7.3v-54.8c0-0.1,0-0.3,0-0.4v-0.5c0-4-3.3-7.3-7.3-7.3h-36.4	c-4,0-7.3-3.3-7.3-7.3s3.3-7.3,7.3-7.3h36.4c12.1,0,21.9,9.8,21.9,21.9c0,0.4,0,0.8,0,1.1v54.6C468.8,244.3,465.5,247.6,461.4,247.6	L461.4,247.6z" class="st1"/><path d="M95.8,151.6c-4,0-7.3-3.3-7.3-7.3v-11c0-12.2,9.8-22,22-22h36.4c4,0,7.3,3.3,7.3,7.3c0,4-3.3,7.3-7.3,7.3h-36.4	c-4,0-7.3,3.3-7.3,7.3v11C103.1,148.4,99.8,151.6,95.8,151.6L95.8,151.6L95.8,151.6z" class="st1"/><path d="M95.8,199.2c-4,0-7.3-3.3-7.3-7.3l0,0v-11c0-4,3.3-7.3,7.3-7.3c4,0,7.3,3.3,7.3,7.3v11	C103.1,196,99.8,199.2,95.8,199.2z" class="st1"/><path d="M410.4,250.5h-69.6c-4,0-7.3-3.3-7.3-7.3s3.3-7.3,7.3-7.3h62.2v-7.3c0-4,3.3-7.3,7.3-7.3c4,0,7.3,3.3,7.3,7.3	v14.6C417.7,247.2,414.5,250.5,410.4,250.5L410.4,250.5z" class="st1"/><path d="M410.4,199.2c-4,0-7.3-3.3-7.3-7.3V126H282.3c-4,0-7.3-3.3-7.3-7.3c0-4,3.3-7.3,7.3-7.3h128.2	c4,0,7.3,3.3,7.3,7.3v73.2C417.8,195.9,414.5,199.2,410.4,199.2L410.4,199.2z" class="st1"/><path d="M304.2,250.5h-13.8c-30.8,0-44.6-15.2-56.8-28.6c-11.1-12.2-20.6-22.7-42.6-22.7h-44.2c-4,0-7.3-3.3-7.3-7.3	v-73.2c0-4,3.3-7.3,7.3-7.3h98.9c4,0,7.3,3.3,7.3,7.3c0,4-3.3,7.3-7.3,7.3h-91.6v58.6H191c28.5,0,41.8,14.6,53.5,27.5	s21.7,23.8,46,23.8h13.8c4,0,7.3,3.3,7.3,7.3C311.6,247.2,308.3,250.5,304.2,250.5C304.3,250.5,304.3,250.5,304.2,250.5L304.2,250.5	z" class="st1"/><path d="M373.8,162.6h-40.3c-4,0-7.3-3.3-7.3-7.3s3.3-7.3,7.3-7.3h40.3c4,0,7.3,3.3,7.3,7.3S377.9,162.6,373.8,162.6z" class="st1"/><path d="M296.9,162.6H183.4c-4,0-7.3-3.3-7.3-7.3s3.3-7.3,7.3-7.3l0,0h113.5c4,0,7.3,3.3,7.3,7.3S301,162.6,296.9,162.6	z" class="st1"/><path d="M373.8,199.2H271.3c-4,0-7.3-3.3-7.3-7.3s3.3-7.3,7.3-7.3h102.5c4,0,7.3,3.3,7.3,7.3S377.9,199.2,373.8,199.2z" class="st1"/></svg>