<?xml version="1.0" encoding="utf-8"?>
<!-- Generator: Adobe Illustrator 23.0.3, SVG Export Plug-In . SVG Version: 6.00 Build 0)  -->
<svg version="1.1" id="Layer_1" xmlns="http://www.w3.org/2000/svg" xmlns:xlink="http://www.w3.org/1999/xlink" x="0px" y="0px"
	 viewBox="0 0 566.9 566.9" style="enable-background:new 0 0 566.9 566.9;" xml:space="preserve">
<style type="text/css">
	.st0{fill:#63D2D6;}
	.st1{fill:#5629B6;}
</style>
<path class="st0" d="M133.7,391.3h299.4c7.5,0,13.6,6.1,13.6,13.6v13.6c0,7.5-6.1,13.6-13.6,13.6H133.7c-7.5,0-13.6-6.1-13.6-13.6
	V405C120.1,397.4,126.2,391.3,133.7,391.3L133.7,391.3z"/>
<path class="st1" d="M433.2,439H229c-3.8-0.1-6.7-3.3-6.5-7.1c0.1-3.6,3-6.4,6.5-6.5h204.2c3.8,0,6.8-3,6.8-6.8V405
	c0-3.8-3-6.8-6.8-6.8H133.7c-3.8,0-6.8,3-6.8,6.8v13.6c0,3.8,3.1,6.8,6.8,6.8H195c3.8,0,6.8,3.1,6.8,6.8s-3.1,6.8-6.8,6.8h-61.3
	c-11.3,0-20.4-9.1-20.4-20.4V405c0-11.3,9.1-20.4,20.4-20.4h299.4c11.3,0,20.4,9.1,20.4,20.4v13.6C453.6,429.8,444.5,439,433.2,439z
	"/>
<path class="st1" d="M249.4,221.2c-3.8,0-6.8-3-6.8-6.8v-40.8c0.1-3.8,3.3-6.7,7.1-6.5c3.6,0.1,6.4,3,6.5,6.5v40.8
	C256.2,218.1,253.2,221.2,249.4,221.2L249.4,221.2z"/>
<path class="st1" d="M256.2,364.1c-7.5,0-13.6-6.1-13.6-13.6V248.4c0-3.8,3-6.8,6.8-6.8c3.8,0,6.8,3,6.8,6.8v102.1h54.5V112.3h-54.5
	v34c0,3.8-3,6.8-6.8,6.8c-3.8,0-6.8-3-6.8-6.8l0,0v-34c0-7.5,6.1-13.6,13.6-13.6h54.5c7.5,0,13.6,6.1,13.6,13.6v238.2
	c0,7.5-6.1,13.6-13.6,13.6H256.2z"/>
<path class="st1" d="M208.6,364.1h-54.4c-7.5,0-13.6-6.1-13.6-13.6V194c0-7.5,6.1-13.6,13.6-13.6h54.4c7.5,0,13.6,6.1,13.6,13.6
	v156.5C222.2,358,216.1,364.1,208.6,364.1L208.6,364.1z M154.2,194L154.2,194v156.5h54.4V194H154.2z"/>
<path class="st1" d="M358.3,364.1c-7.5,0-13.6-6.1-13.6-13.6V153.1c0-3.6,1.5-7.1,4.1-9.7c2.7-2.6,6.9-2.6,9.6,0.1l66,66.1
	c1.3,1.3,2,3,2,4.8v61.3c-0.1,3.8-3.3,6.7-7.1,6.5c-3.6-0.1-6.4-3-6.5-6.5v-58.4l-54.5-54.5v187.8h54.5v-40.8c0-3.8,3-6.8,6.8-6.8
	s6.8,3,6.8,6.8v40.8c0,7.5-6.1,13.6-13.6,13.6H358.3z"/>
<path class="st0" d="M412.8,146.3h-54.4c-1.8,0-3.5,0.7-4.8,2l66.1,66.1v-61.2C419.6,149.4,416.5,146.3,412.8,146.3
	C412.8,146.3,412.8,146.3,412.8,146.3z"/>
<path class="st1" d="M419.6,221.2c-1.8,0-3.5-0.7-4.8-2l-66-66c-2.6-2.6-2.7-6.9-0.1-9.6c2.5-2.6,6-4,9.6-4.1h20.5
	c3.8-0.1,6.9,2.8,7.1,6.5c0.1,3.8-2.8,6.9-6.5,7.1c-0.2,0-0.3,0-0.5,0H368l44.8,44.8v-44.9H406c-3.8,0.1-6.9-2.8-7.1-6.5
	c-0.1-3.8,2.8-6.9,6.5-7.1c0.2,0,0.3,0,0.5,0h6.8c7.5,0,13.6,6.1,13.6,13.6v61.3C426.4,218.1,423.4,221.2,419.6,221.2
	C419.6,221.2,419.6,221.2,419.6,221.2L419.6,221.2z"/>
<path class="st0" d="M310.7,105.5h-54.5c-1.8,0-3.5,0.7-4.8,2l66.1,66.1v-61.2C317.5,108.6,314.5,105.5,310.7,105.5
	C310.7,105.5,310.7,105.5,310.7,105.5L310.7,105.5z"/>
<path class="st1" d="M317.5,180.4c-1.8,0-3.5-0.7-4.8-2l-66.1-66.1c-2.7-2.7-2.7-7,0-9.6c0,0,0,0,0,0c2.6-2.6,6-4,9.6-4h54.5
	c7.5,0,13.6,6.1,13.6,13.6v61.3C324.3,177.3,321.3,180.3,317.5,180.4C317.5,180.4,317.5,180.4,317.5,180.4L317.5,180.4z
	 M265.9,112.3l44.8,44.8v-44.8H265.9z"/>
<path class="st0" d="M208.6,187.2h-54.4c-1.8,0-3.5,0.7-4.8,2l66.1,66.1V194C215.4,190.2,212.4,187.2,208.6,187.2
	C208.6,187.2,208.6,187.2,208.6,187.2L208.6,187.2z"/>
<path class="st1" d="M215.4,262c-1.8,0-3.5-0.7-4.8-2l-17.4-17.4c-2.7-2.7-2.7-7,0-9.6s7-2.7,9.6,0l0,0l5.8,5.8V194h-44.8l18.6,18.6
	c2.8,2.5,3,6.8,0.5,9.6s-6.8,3-9.6,0.5c-0.2-0.1-0.3-0.3-0.5-0.5L144.6,194c-2.6-2.6-2.7-6.9-0.1-9.6c2.6-2.6,6.1-4,9.7-4.1h54.4
	c7.5,0,13.6,6.1,13.6,13.6v61.3c0,2.8-1.7,5.2-4.2,6.3C217.2,261.9,216.3,262.1,215.4,262L215.4,262z"/>
</svg>
