<?xml version="1.0" encoding="utf-8"?>
<!-- Generator: Adobe Illustrator 23.0.3, SVG Export Plug-In . SVG Version: 6.00 Build 0)  -->
<svg version="1.1" id="Layer_1" xmlns="http://www.w3.org/2000/svg" xmlns:xlink="http://www.w3.org/1999/xlink" x="0px" y="0px"
	 viewBox="0 0 566.9 566.9" style="enable-background:new 0 0 566.9 566.9;" xml:space="preserve">
<style type="text/css">
	.st0{fill:#63D2D6;}
	.st1{fill:#5629B6;}
</style>
<path class="st0" d="M196.1,344.1c-8.4,0-15.2-6.9-15.2-15.3c0-4,1.6-7.8,4.4-10.7l68.4-68.4c5.9-5.9,15.5-5.9,21.5,0l31.1,31.1
	l61.5-61.5c6.3-5.6,15.9-4.9,21.5,1.4c5.1,5.8,5.1,14.4,0,20.1L317,313c-5.9,5.9-15.5,5.9-21.5,0l-31.1-31l-57.7,57.7
	C203.9,342.5,200.1,344.1,196.1,344.1z"/>
<path class="st0" d="M264.5,100.9h38c8.4,0,15.2,6.8,15.2,15.2v15.2h-68.4v-15.2C249.3,107.7,256.1,100.9,264.5,100.9z"/>
<path class="st1" d="M450.7,184.5H116.3c-12.6,0-22.8-10.2-22.8-22.8v-15.2c0-12.6,10.2-22.8,22.8-22.8h68.4c4.2,0,7.6,3.4,7.6,7.6
	c0,4.2-3.4,7.6-7.6,7.6h-68.4c-4.2,0-7.6,3.4-7.6,7.6v15.2c0.1,4.2,3.4,7.5,7.6,7.5h334.4c4.2,0,7.6-3.4,7.6-7.6v-15.2
	c0-4.2-3.4-7.6-7.6-7.6h-228c-4.2,0-7.6-3.4-7.6-7.6s3.4-7.6,7.6-7.6h228c12.6,0,22.8,10.2,22.8,22.8l0,0v15.2
	C473.4,174.3,463.2,184.4,450.7,184.5z"/>
<path class="st1" d="M317.7,138.9h-68.4c-4.2,0-7.6-3.4-7.6-7.6V116c0-12.6,10.2-22.8,22.8-22.8h38c12.6,0,22.8,10.2,22.8,22.8v15.2
	C325.3,135.5,321.9,138.9,317.7,138.9z M256.9,123.6h53.2V116c0-4.2-3.4-7.6-7.6-7.6h-38c-4.2,0-7.6,3.4-7.6,7.6V123.6L256.9,123.6z
	"/>
<path class="st1" d="M439.3,302.3c-4.2,0-7.6-3.4-7.6-7.6l0,0V184.5H142.9v26.6c0,4.2-3.4,7.6-7.6,7.6s-7.6-3.4-7.6-7.6v-34.2
	c0-4.2,3.4-7.6,7.6-7.6c0,0,0,0,0.1,0h304c4.2,0,7.6,3.4,7.6,7.6v117.8C446.9,298.9,443.5,302.3,439.3,302.3L439.3,302.3z"/>
<path class="st1" d="M359.5,389.7H146.7c-10.5,0-19-8.5-19-19V249.1c0-4.2,3.4-7.6,7.6-7.6c4.2,0,7.6,3.4,7.6,7.6v121.6
	c0,2.1,1.7,3.7,3.8,3.8h212.8c4.2,0,7.6,3.4,7.6,7.6S363.7,389.7,359.5,389.7z"/>
<path class="st1" d="M427.9,389.7h-38c-4.2,0-7.6-3.4-7.6-7.6s3.4-7.6,7.6-7.6h38c2.1,0,3.8-1.7,3.8-3.8v-38c0-4.2,3.4-7.6,7.6-7.6
	s7.6,3.4,7.6,7.6v38C446.9,381.2,438.4,389.7,427.9,389.7z"/>
<path class="st1" d="M357.7,473.3c-3.9,0-7.8-1-11.2-2.9l-32.8-18.3c-0.9,12.6-11.8,22-24.4,21.1c-11.3-0.8-20.3-9.8-21.1-21.1
	l-32.8,18.3c-10.7,6-24.2,2.5-30.6-8c-6.2-10.4-2.8-23.8,7.6-30.1l0,0c0.2-0.1,0.5-0.3,0.7-0.4l55-30.7v-19.1c0-4.2,3.4-7.6,7.6-7.6
	l0,0h30.4c4.2,0,7.6,3.4,7.6,7.6l0,0v19.2L369,432c10.5,5.8,14.4,19,8.7,29.6c-0.2,0.3-0.3,0.6-0.5,0.8l0,0
	C373.1,469.2,365.7,473.3,357.7,473.3z M283.5,389.7v16c0,2.8-1.5,5.3-3.9,6.6l-59,32.9c-3.3,1.8-4.5,5.8-2.7,9.1
	c0,0.1,0.1,0.1,0.1,0.2c2.2,3.4,6.7,4.6,10.2,2.6l44-24.5c3.7-2,8.3-0.7,10.3,2.9c0.6,1.1,1,2.4,1,3.7v11.3c0,4.2,3.4,7.6,7.6,7.6
	s7.6-3.4,7.6-7.6v-11.3c0-4.2,3.4-7.6,7.6-7.6c1.3,0,2.6,0.3,3.7,1l44,24.6c3.6,2,8.1,0.8,10.3-2.6l0.1-0.2c1.7-3.2,0.5-7.3-2.7-9
	l-59.1-33c-2.4-1.3-3.9-3.9-3.9-6.6v-16h-15.2V389.7z"/>
<path class="st1" d="M196.1,351.7c-12.6,0-22.8-10.2-22.8-22.8c0-6.1,2.4-11.9,6.7-16.2l68.4-68.4c8.9-8.9,23.3-8.9,32.2,0
	l25.7,25.7l18.1-18.1c3-3,7.8-3,10.7,0s3,7.8,0,10.7L311.7,286c-3,3-7.8,3-10.7,0l0,0l-31-31c-3-3-7.8-3-10.8,0l-68.4,68.4
	c-3,3-3,7.8,0,10.8s7.8,3,10.8,0l57.7-57.6c3-3,7.8-3,10.7,0l0,0l31,31c3,3,7.8,3,10.8,0l72.2-72.2c3-3,3-7.8,0-10.8s-7.8-3-10.8,0
	l0,0L357.9,240c-3,3-7.8,3-10.7,0s-3-7.8,0-10.7l15.2-15.2c8.5-9.3,22.9-9.9,32.2-1.4c9.3,8.5,9.9,22.9,1.4,32.2
	c-0.4,0.5-0.9,1-1.4,1.4l-72.2,72.2c-8.9,8.9-23.3,8.9-32.2,0l-25.7-25.7L212.2,345C207.9,349.3,202.1,351.7,196.1,351.7z"/>
</svg>
