<?xml version="1.0" encoding="utf-8"?>
<!-- Generator: Adobe Illustrator 23.0.3, SVG Export Plug-In . SVG Version: 6.00 Build 0)  -->
<svg version="1.1" id="Layer_1" xmlns="http://www.w3.org/2000/svg" xmlns:xlink="http://www.w3.org/1999/xlink" x="0px" y="0px"
	 viewBox="0 0 566.9 566.9" style="enable-background:new 0 0 566.9 566.9;" xml:space="preserve">
<style type="text/css">
	.st0{fill:#5629B6;}
	.st1{fill:#63D2D6;}
</style>
<path class="st0" d="M219.1,350.6c-2,0-3.9-0.8-5.4-2.2l-76-76c-10.1-10.6-26.9-11-37.5-0.8s-11,26.9-0.8,37.5
	c0.3,0.3,0.5,0.6,0.8,0.8l17.1,17.1c3,3,3,7.8,0,10.7s-7.8,3-10.7,0l-17.1-17.1c-16.3-16.3-16.3-42.7,0-59s42.7-16.3,59,0l70.1,70.1
	l14.1-16.9c2.7-3.2,7.5-3.7,10.7-1c3.2,2.7,3.7,7.5,1,10.7L225,347.9c-1.4,1.6-3.4,2.6-5.5,2.7L219.1,350.6z"/>
<path class="st0" d="M221.4,435.3c-11.1,0-21.6-4.4-29.5-12.2l-62.6-62.6c-3-3-3-7.8,0-10.7c3-3,7.8-3,10.7,0l62.6,62.6
	c5,5,11.7,7.8,18.7,7.8h0.4h0.7c7.5-0.3,14.5-3.8,19.4-9.5l106.6-127.9c2.7-3.2,7.5-3.7,10.7-1s3.7,7.5,1,10.7L253.4,420.3
	c-7.5,9-18.4,14.4-30.1,15C222.7,435.3,222,435.3,221.4,435.3L221.4,435.3z"/>
<path class="st0" d="M259.3,302.5c-4.2,0-7.6-3.4-7.6-7.6c0-1.8,0.6-3.5,1.8-4.9L398,116.6c15.3-17.3,41.6-18.9,58.9-3.6
	c16.5,14.6,18.8,39.5,5.3,56.9l-81.4,97.7c-2.8,3.1-7.6,3.4-10.7,0.6c-3-2.7-3.4-7.2-0.9-10.3l81.3-97.5c8.9-11.6,6.7-28.3-4.9-37.2
	c-11-8.5-26.8-7-36,3.4L265.1,299.8C263.7,301.5,261.5,302.5,259.3,302.5L259.3,302.5z"/>
<path class="st1" d="M417.2,182.6l14.4,12.1l-24.3,29.2L355,180l24.3-29.1l19.3,16.2L417.2,182.6z"/>
<path class="st0" d="M407.3,231.5c-1.8,0-3.5-0.6-4.9-1.8l-52.3-43.9c-3.2-2.7-3.6-7.5-1-10.7l24.3-29.1c2.7-3.2,7.5-3.7,10.7-1
	c0,0,0,0,0,0l19.4,16.2c3.1,2.8,3.4,7.6,0.6,10.7c-2.7,3-7.2,3.4-10.3,0.9l-13.5-11.3L365.7,179l40.7,34.1l14.6-17.5l-8.6-7.2
	c-3.1-2.8-3.3-7.6-0.5-10.7c2.7-2.9,7.1-3.3,10.3-0.9l14.4,12.1c3.2,2.7,3.7,7.4,1,10.7l-24.3,29.2c-1.3,1.5-3.1,2.5-5.1,2.7
	C407.8,231.4,407.6,231.4,407.3,231.5L407.3,231.5z"/>
</svg>
