<?xml version="1.0" encoding="utf-8"?>
<!-- Generator: Adobe Illustrator 23.0.3, SVG Export Plug-In . SVG Version: 6.00 Build 0)  -->
<svg version="1.1" id="Layer_1" xmlns="http://www.w3.org/2000/svg" xmlns:xlink="http://www.w3.org/1999/xlink" x="0px" y="0px"
	 viewBox="0 0 566.9 566.9" style="enable-background:new 0 0 566.9 566.9;" xml:space="preserve">
<style type="text/css">
	.st0{fill:#FFFFFF;}
	.st1{fill:#63D2D6;}
	.st2{fill:#5629B6;}
</style>
<path class="st0" d="M308.5,408.3c0.6,2.3,0.9,4.6,0.9,7c0,14.7-11.9,26.5-26.5,26.5s-26.5-11.9-26.5-26.5c0-2.4,0.3-4.7,0.9-7
	c8.3,0.3,16.9,0.4,25.6,0.4S300.1,408.6,308.5,408.3z"/>
<path class="st1" d="M416.6,352.2c4.1,10.6,6,21.9,5.5,33.3c0,11.4-49,20.8-113.7,22.8c-8.3,0.3-16.9,0.4-25.6,0.4
	s-17.3-0.1-25.6-0.4c-64.7-2-113.7-11.4-113.7-22.8c-0.4-11.4,1.4-22.7,5.5-33.3c16.9,9.6,70.4,16.7,133.8,16.7
	S399.8,361.9,416.6,352.2z"/>
<path class="st2" d="M386.4,256.2c-3.5,0-6.4-2.8-6.6-6.3c-0.5-9.7-0.7-19.8-0.7-30.2c0-41.3-26.4-78-65.6-91.2
	c-3.1-1-5-4.2-4.4-7.4c0.2-1.4,0.3-2.8,0.3-4.2c0-14.7-11.9-26.5-26.5-26.5s-26.5,11.9-26.5,26.5l0,0c0,1.4,0.1,2.8,0.3,4.2
	c0.5,3.2-1.3,6.3-4.4,7.4c-7.8,2.6-15.2,6.2-22,10.7c-3.1,2-7.2,1.2-9.2-1.9c-2-3.1-1.2-7.2,1.9-9.2c6.3-4.1,13-7.6,20.1-10.3
	c0-0.3,0-0.6,0-0.9c0-22,17.8-39.8,39.8-39.8c22,0,39.8,17.8,39.8,39.8c0,0.3,0,0.6,0,0.8c42,16.4,69.7,56.9,69.7,102
	c0,10.1,0.2,20.1,0.7,29.5c0.2,3.7-2.6,6.8-6.3,6.9c0,0,0,0,0,0L386.4,256.2z"/>
<path class="st2" d="M308.4,415c-3.7,0.1-6.7-2.9-6.7-6.5s2.9-6.7,6.5-6.7c65.7-2,102.4-11.2,107.3-17c0.3-10.3-1.4-20.5-5.1-30.1
	c-2.1-4.8-4.5-9.4-7.3-13.9c-6.8-11.5-15.3-25.9-20.1-57c-0.6-3.6,1.9-7,5.6-7.6s7,1.9,7.6,5.6c4.4,28.6,11.8,41.2,18.4,52.3
	c3.1,5,5.9,10.3,8.2,15.7c4.4,11.5,6.5,23.8,6,36.1c0,9.4-11.7,16-37.9,21.2c-21.1,4.2-50.3,7-82.2,8L308.4,415z"/>
<path class="st2" d="M257.2,415H257c-22.4-0.7-43.6-2.3-61.3-4.6c-3.6-0.5-6.2-3.8-5.7-7.4c0.5-3.6,3.8-6.2,7.4-5.7
	c17.3,2.3,38,3.9,60,4.5c3.7,0.1,6.6,3.1,6.5,6.7S260.9,415.1,257.2,415L257.2,415z"/>
<path class="st2" d="M180.5,216.4h-0.6c-3.6-0.3-6.3-3.6-6-7.2c0,0,0,0,0,0c2.2-22.7,11.4-44.2,26.5-61.3c2.4-2.8,6.6-3,9.4-0.6
	c2.8,2.4,3,6.6,0.6,9.4l0,0c-13.2,15-21.4,33.9-23.3,53.8C186.7,213.8,183.9,216.4,180.5,216.4z"/>
<path class="st2" d="M163.4,404.1c-0.6,0-1.2-0.1-1.8-0.2c-11.5-3.1-24.8-8.1-24.8-18.3c-0.5-12.2,1.6-24.3,5.9-35.7
	c2.3-5.5,5.1-10.8,8.3-15.8c9.2-15.6,19.6-33.2,21.9-91.4c0.1-3.7,3.2-6.5,6.9-6.4s6.5,3.2,6.4,6.9c-2.3,61.5-14.2,81.5-23.7,97.6
	c-2.8,4.5-5.3,9.2-7.4,14c-3.7,9.6-5.4,19.8-5,30c0.8,0.8,4.1,3.4,15,6.4c3.5,1.1,5.5,4.7,4.5,8.3
	C168.8,402.1,166.3,404,163.4,404.1L163.4,404.1z"/>
<path class="st2" d="M282.8,448.5c-18.3,0-33.2-14.9-33.2-33.2c0-3,0.4-5.9,1.1-8.8c0.8-3,3.5-5,6.6-4.9c16.4,0.5,34.4,0.5,50.8,0
	c3.1-0.2,5.9,1.9,6.6,4.9c0.8,2.9,1.2,5.8,1.2,8.7C316,433.7,301.2,448.5,282.8,448.5z M262.9,415.1v0.2c0,11,8.9,19.9,19.9,19.9
	c11,0,19.9-8.9,19.9-19.9c0-0.1,0-0.2,0-0.2C289.8,415.5,275.9,415.5,262.9,415.1z"/>
<path class="st2" d="M379,369.1c-3.7-0.1-6.5-3.2-6.4-6.9c0.1-3.1,2.3-5.7,5.4-6.3c22.5-3.5,31.8-7.5,35.3-9.5
	c3.2-1.8,7.2-0.7,9.1,2.4s0.7,7.2-2.4,9.1c-7.7,4.4-21.1,8.1-39.9,11.1C379.7,369.1,379.4,369.2,379,369.1z"/>
<path class="st2" d="M266.3,375.4h-0.1c-57.5-1.2-103.6-7.9-120.4-17.5c-3.2-1.8-4.3-5.9-2.5-9c1.8-3.2,5.9-4.3,9.1-2.5
	c12.1,6.9,52,14.5,114,15.7c3.7,0.2,6.5,3.3,6.3,6.9C272.5,372.6,269.7,375.3,266.3,375.4L266.3,375.4z"/>
<path class="st2" d="M299.4,375.4c-3.7,0-6.7-2.9-6.7-6.6s2.9-6.7,6.6-6.7c16.6-0.4,32.1-1.2,46-2.4c3.7-0.1,6.7,2.8,6.8,6.5
	c0.1,3.3-2.3,6.2-5.6,6.7c-14.2,1.2-30,2-46.9,2.4L299.4,375.4z"/>
</svg>
