<svg xmlns="http://www.w3.org/2000/svg" id="Layer_1" data-name="Layer 1" viewBox="0 0 566.9 566.9"><defs><style>.cls-1{fill:#63d2d6}.cls-2{fill:#5629b6}</style></defs><title>erxes-23</title><path d="M162,171.32h25.15a12.57,12.57,0,0,1,12.58,12.57h0a12.58,12.58,0,0,1-12.58,12.58H162a12.57,12.57,0,0,1-12.57-12.58h0A12.57,12.57,0,0,1,162,171.32Z" class="cls-1"/><path d="M162,385.08h25.15a12.57,12.57,0,0,1,12.58,12.57h0a12.58,12.58,0,0,1-12.58,12.58H162a12.57,12.57,0,0,1-12.57-12.58h0A12.57,12.57,0,0,1,162,385.08Z" class="cls-1"/><path d="M162,278.2h25.15a12.57,12.57,0,0,1,12.58,12.57h0a12.58,12.58,0,0,1-12.58,12.58H162a12.57,12.57,0,0,1-12.57-12.58h0A12.57,12.57,0,0,1,162,278.2Z" class="cls-1"/><path d="M174.57,341.07a6.29,6.29,0,0,1-6.29-6.29V303.35a6.29,6.29,0,0,1,12.58,0v31.43A6.29,6.29,0,0,1,174.57,341.07Z" class="cls-2"/><path d="M174.57,391.37a6.29,6.29,0,0,1-6.29-6.29V359.93a6.29,6.29,0,0,1,12.58,0v25.15A6.29,6.29,0,0,1,174.57,391.37Z" class="cls-2"/><path d="M268.88,466.81H187.14A18.88,18.88,0,0,1,168.28,448V410.23a6.29,6.29,0,0,1,12.58,0V448a6.29,6.29,0,0,0,6.28,6.29h81.74a6.29,6.29,0,0,1,0,12.57Z" class="cls-2"/><path d="M400.91,466.81H300.31a6.29,6.29,0,1,1,0-12.57h100.6a6.29,6.29,0,0,0,6.28-6.29V183.89a6.29,6.29,0,1,1,12.58,0V448A18.88,18.88,0,0,1,400.91,466.81Z" class="cls-2"/><path d="M174.57,177.6a6.29,6.29,0,0,1-6.29-6.28V133.59a18.88,18.88,0,0,1,18.86-18.86H400.91a18.88,18.88,0,0,1,18.86,18.86v18.87a6.29,6.29,0,0,1-12.58,0V133.59a6.29,6.29,0,0,0-6.28-6.28H187.14a6.29,6.29,0,0,0-6.28,6.28v37.73A6.29,6.29,0,0,1,174.57,177.6Z" class="cls-2"/><path d="M174.57,284.49a6.29,6.29,0,0,1-6.29-6.29V196.47a6.29,6.29,0,0,1,12.58,0V278.2A6.29,6.29,0,0,1,174.57,284.49Z" class="cls-2"/><path d="M187.14,202.75H162A18.86,18.86,0,0,1,162,165h25.15a18.86,18.86,0,1,1,0,37.72ZM162,177.6a6.29,6.29,0,0,0,0,12.58h25.15a6.29,6.29,0,1,0,0-12.58Z" class="cls-2"/><path d="M187.14,416.52H162a18.87,18.87,0,0,1,0-37.73h25.15a18.87,18.87,0,0,1,0,37.73ZM162,391.37a6.29,6.29,0,0,0,0,12.57h25.15a6.29,6.29,0,1,0,0-12.57Z" class="cls-2"/><path d="M187.16,309.63H162a18.86,18.86,0,0,1,0-37.72h22a6.29,6.29,0,0,1,0,12.58H162a6.29,6.29,0,0,0,0,12.57h25.15a6.32,6.32,0,0,0,4.47-1.85,6.29,6.29,0,1,1,8.86,8.92A18.81,18.81,0,0,1,187.16,309.63Z" class="cls-2"/><path d="M224.87,466.81a6.28,6.28,0,0,1-6.29-6.28V237.33a6.29,6.29,0,1,1,12.57,0v223.2A6.28,6.28,0,0,1,224.87,466.81Z" class="cls-2"/><path d="M224.87,218.47a6.29,6.29,0,0,1-6.29-6.29V121a6.29,6.29,0,1,1,12.57,0v91.16A6.29,6.29,0,0,1,224.87,218.47Z" class="cls-2"/><circle cx="319.17" cy="262.48" r="28.29" class="cls-1"/><path d="M275.16,334.78c0-24.3,22-44,44-44s44,19.71,44,44c0,0-9.43,12.58-44,12.58S275.16,334.78,275.16,334.78Z" class="cls-1"/><path d="M319.17,297.06a34.58,34.58,0,1,1,34.58-34.58A34.62,34.62,0,0,1,319.17,297.06Zm0-56.58a22,22,0,1,0,22,22A22,22,0,0,0,319.17,240.48Z" class="cls-2"/><path d="M312.89,353.52h-.31c-31.5-1.51-41.42-13.58-42.45-15a6.3,6.3,0,0,1-1.25-3.77c0-26.79,23.5-50.29,50.29-50.29s50.3,23.5,50.3,50.29a6.29,6.29,0,0,1-1.26,3.78c-.59.79-6.31,7.91-22.31,12.05a6.29,6.29,0,1,1-3.15-12.17c7.71-2,12-4.68,14.05-6.26-1.52-20.27-20.54-35.12-37.63-35.12s-36.12,14.86-37.63,35.15c3.14,2.43,12.17,7.81,31.64,8.74a6.29,6.29,0,0,1-.29,12.57Z" class="cls-2"/></svg>