<?xml version="1.0" encoding="utf-8"?>
<!-- Generator: Adobe Illustrator 23.0.3, SVG Export Plug-In . SVG Version: 6.00 Build 0)  -->
<svg version="1.1" id="Layer_1" xmlns="http://www.w3.org/2000/svg" xmlns:xlink="http://www.w3.org/1999/xlink" x="0px" y="0px"
	 viewBox="0 0 566.9 566.9" style="enable-background:new 0 0 566.9 566.9;" xml:space="preserve">
<style type="text/css">
	.st0{fill:#63D2D6;}
	.st1{fill:#5629B6;}
</style>
<circle class="st0" cx="427.3" cy="136.6" r="33.7"/>
<circle class="st0" cx="427.3" cy="422.9" r="33.7"/>
<circle class="st0" cx="90.5" cy="279.7" r="33.7"/>
<path class="st1" d="M283.9,406c-46.1-0.1-88.5-25.2-110.6-65.8c-2.5-4-1.3-9.1,2.7-11.6c4-2.5,9.1-1.3,11.6,2.7
	c0.2,0.3,0.4,0.6,0.5,0.9c29,53.1,95.5,72.5,148.6,43.5c53.1-29,72.5-95.5,43.5-148.6c-10.4-19.1-26.3-34.6-45.6-44.7
	c-4.1-2.1-5.7-7.2-3.6-11.3c2.1-4.1,7.2-5.7,11.3-3.6c61.8,32.1,86.1,108.4,54.1,170.3C374.6,379.8,331.2,406,283.9,406z"/>
<path class="st1" d="M168.2,309.2c-4.1,0-7.6-2.9-8.3-6.9c-1.4-7.5-2-15-2-22.6c0-69.6,56.6-126.3,126.3-126.3
	c5.6,0,11.3,0.4,16.9,1.1c4.6,0.6,7.8,4.9,7.2,9.5c-0.6,4.6-4.9,7.8-9.5,7.2c-4.9-0.6-9.8-0.9-14.6-1
	c-60.4,0.1-109.4,49-109.5,109.5c0,6.5,0.6,13.1,1.8,19.5c0.8,4.6-2.2,8.9-6.8,9.9C169.3,309.2,168.7,309.2,168.2,309.2L168.2,309.2
	z"/>
<path class="st1" d="M427.3,178.7c-23.2,0-42.1-18.9-42.1-42.1s18.9-42.1,42.1-42.1c23.2,0,42.1,18.9,42.1,42.1l0,0
	C469.4,159.8,450.6,178.6,427.3,178.7z M427.3,111.3c-13.9,0-25.2,11.3-25.2,25.2s11.3,25.2,25.2,25.2s25.2-11.3,25.2-25.2
	S441.3,111.4,427.3,111.3z"/>
<path class="st1" d="M477.9,321.8c-23.2,0-42.1-18.9-42.1-42.1c0-23.2,18.9-42.1,42.1-42.1c23.2,0,42.1,18.9,42.1,42.1l0,0
	C520,302.9,501.1,321.8,477.9,321.8z M477.9,254.5c-13.9,0-25.2,11.3-25.2,25.2S464,305,477.9,305s25.2-11.3,25.2-25.2
	S491.8,254.5,477.9,254.5L477.9,254.5z"/>
<path class="st1" d="M427.3,464.9L427.3,464.9c-23.3,0-42.1-18.9-42.1-42.2c0-11.1,4.4-21.8,12.3-29.7c5.3-5.3,12-9.1,19.3-11
	c4.5-1.2,9.1,1.5,10.3,6c1.2,4.5-1.5,9.1-6,10.3c-4.4,1.1-8.4,3.4-11.6,6.6c-9.9,9.9-9.9,25.9,0.1,35.7c4.7,4.7,11.1,7.4,17.9,7.4
	l0,0c13.9,0,25.2-11.3,25.2-25.2c0-6.2-2.2-12.1-6.3-16.7c-3-3.5-2.8-8.8,0.7-11.9s8.8-2.8,11.9,0.7c15.4,17.5,13.6,44-3.8,59.4
	C447.5,461.3,437.6,465,427.3,464.9L427.3,464.9z"/>
<path class="st1" d="M141.1,178.7c-23.2,0-42.1-18.9-42.1-42.1s18.9-42.1,42.1-42.1c3.7,0,7.4,0.5,10.9,1.4
	c4.5,1.2,7.2,5.8,5.9,10.3c-1.2,4.5-5.8,7.2-10.3,5.9l0,0c-2.1-0.6-4.2-0.8-6.4-0.8c-13.9,0-25.2,11.2-25.3,25.2
	c0,13.9,11.2,25.2,25.2,25.3c13.9,0,25.2-11.2,25.3-25.2l0,0c0-2.2-0.3-4.4-0.8-6.5c-1.2-4.5,1.5-9.1,5.9-10.3
	c4.5-1.2,9.1,1.5,10.3,5.9c0.9,3.6,1.5,7.3,1.5,11C183.2,159.8,164.3,178.7,141.1,178.7z"/>
<path class="st1" d="M90.5,321.8c-23.2,0-42.1-18.9-42.1-42.1c0-23.2,18.9-42.1,42.1-42.1s42.1,18.9,42.1,42.1
	C132.6,302.9,113.8,321.8,90.5,321.8z M90.5,254.5c-13.9,0-25.2,11.3-25.2,25.2S76.6,305,90.5,305s25.2-11.3,25.2-25.2l0,0
	C115.7,265.8,104.5,254.5,90.5,254.5L90.5,254.5z"/>
<path class="st1" d="M140.9,464.9c-6.4,0-12.7-1.5-18.4-4.3c-4.1-2-5.9-7.1-3.8-11.3c2-4.1,7.1-5.9,11.3-3.8
	c3.5,1.7,7.2,2.5,11.1,2.6c13.9,0,25.2-11.3,25.2-25.2c0-13.9-11.3-25.2-25.2-25.2c-13.9,0-25.2,11.3-25.2,25.2c0,0.2,0,0.5,0,0.6
	c0.4,4.6-3,8.7-7.6,9.1c-4.6,0.5-8.7-2.9-9.1-7.6c0,0,0,0,0-0.1c-0.1-0.7-0.1-1.4-0.1-2.1c0-23.2,18.9-42.1,42.1-42.1
	s42.1,18.9,42.1,42.1c0,23.2-18.9,42.1-42.1,42.1l0,0H140.9z"/>
<path class="st1" d="M166.3,288.1h-42.1c-4.7,0-8.4-3.8-8.4-8.4c0-4.7,3.8-8.4,8.4-8.4h42.1c4.7,0,8.4,3.8,8.4,8.4
	S171,288.1,166.3,288.1L166.3,288.1z"/>
<path class="st1" d="M200.9,204.8c-2.2,0-4.3-0.9-6-2.5l-35.9-35.9c-3.3-3.3-3.3-8.7,0-11.9c3.3-3.2,8.7-3.3,11.9,0l35.9,35.9
	c3.3,3.3,3.3,8.7,0,11.9C205.3,203.9,203.1,204.8,200.9,204.8z"/>
<path class="st1" d="M164.8,407.5c-4.6,0-8.4-3.8-8.4-8.4c0-2.2,0.9-4.4,2.5-6l35.9-35.9c3.3-3.3,8.7-3.3,11.9,0
	c3.2,3.3,3.3,8.7,0,11.9L170.8,405C169.3,406.6,167.1,407.5,164.8,407.5z"/>
<path class="st1" d="M444.2,288.1h-42.1c-4.7,0-8.4-3.8-8.4-8.4c0-4.7,3.8-8.4,8.4-8.4h42.1c4.7,0,8.4,3.8,8.4,8.4
	C452.7,284.3,448.9,288.1,444.2,288.1L444.2,288.1z"/>
<path class="st1" d="M367.6,204.8c-4.6,0-8.4-3.8-8.4-8.4c0-2.2,0.9-4.4,2.5-6l35.9-35.9c3.3-3.3,8.7-3.3,11.9,0
	c3.2,3.3,3.3,8.7,0,11.9l-35.9,35.9C372,203.9,369.8,204.8,367.6,204.8z"/>
<path class="st1" d="M403.6,407.5c-2.2,0-4.3-0.9-6-2.5l-35.9-35.9c-3.3-3.3-3.3-8.7,0-11.9c3.3-3.2,8.7-3.3,11.9,0l35.9,35.9
	c3.3,3.3,3.3,8.7,0,11.9C407.9,406.6,405.8,407.5,403.6,407.5L403.6,407.5z"/>
<ellipse class="st0" cx="284.3" cy="241.8" rx="37.9" ry="37.9"/>
<path class="st0" d="M225.3,338.7c0-32.6,29.5-58.9,58.9-58.9s58.9,26.3,58.9,58.9c0,0-12.6,16.9-58.9,16.9S225.3,338.7,225.3,338.7
	z"/>
<path class="st1" d="M284.2,288.1c-25.6,0-46.3-20.7-46.3-46.3c0-25.6,20.7-46.3,46.3-46.3c25.6,0,46.3,20.7,46.3,46.3
	C330.5,267.4,309.8,288.1,284.2,288.1z M284.2,212.3c-16.3,0-29.5,13.2-29.5,29.5c0,16.3,13.2,29.5,29.5,29.5
	c16.3,0,29.5-13.2,29.5-29.5C313.7,225.6,300.5,212.4,284.2,212.3L284.2,212.3z"/>
<path class="st1" d="M275.8,363.7h-0.5c-42.2-2-55.4-18.2-56.8-20.1c-1.1-1.5-1.7-3.2-1.7-5.1c0-35.9,31.5-67.3,67.3-67.3
	s67.3,31.5,67.3,67.3c0,1.8-0.6,3.6-1.7,5.1c-0.8,1.1-8.5,10.6-29.9,16.1c-4.5,1-9-1.8-10.1-6.4c-1-4.3,1.6-8.8,5.9-9.9
	c10.3-2.7,16.1-6.3,18.8-8.4c-2-27.2-27.5-47.1-50.4-47.1c-22.8,0-48.4,19.9-50.4,47.1c4.2,3.2,16.3,10.5,42.4,11.7
	c4.6,0.2,8.2,4.1,8,8.8C284,360.2,280.2,363.7,275.8,363.7L275.8,363.7z"/>
</svg>
