<svg width="24" height="24" viewBox="0 0 24 24" fill="none" xmlns="http://www.w3.org/2000/svg">
<rect width="24" height="24" rx="12" fill="white"/>
<path fill-rule="evenodd" clip-rule="evenodd" d="M12.0001 2.40039C6.59213 2.40039 2.40002 6.36185 2.40002 11.7124C2.40002 14.5111 3.54699 16.9296 5.41492 18.6C5.57164 18.7404 5.66644 18.937 5.67292 19.1474L5.72524 20.8551C5.74204 21.3999 6.30461 21.7541 6.80309 21.5343L8.70846 20.6931C8.86998 20.6218 9.05094 20.6086 9.22111 20.6554C10.0966 20.8961 11.0286 21.0245 12.0001 21.0245C17.408 21.0245 21.6001 17.063 21.6001 11.7124C21.6001 6.36185 17.408 2.40039 12.0001 2.40039Z" fill="url(#paint0_radial_1925_42565)"/>
<path fill-rule="evenodd" clip-rule="evenodd" d="M6.23529 14.435L9.0553 9.96094C9.50387 9.24909 10.4644 9.07197 11.1376 9.5767L13.3804 11.2589C13.5861 11.4132 13.8693 11.4125 14.0742 11.2569L17.1033 8.95797C17.5077 8.65125 18.0354 9.13509 17.7647 9.56446L14.9447 14.0386C14.4961 14.7502 13.5354 14.9275 12.8624 14.4228L10.6194 12.7406C10.4137 12.5863 10.1305 12.587 9.92555 12.7426L6.89649 15.0415C6.49209 15.3482 5.96433 14.8644 6.23505 14.435H6.23529Z" fill="white"/>
<defs>
<radialGradient id="paint0_radial_1925_42565" cx="0" cy="0" r="1" gradientUnits="userSpaceOnUse" gradientTransform="translate(6.14405 21.4553) scale(20.9281 20.9281)">
<stop stop-color="#0099FF"/>
<stop offset="0.61" stop-color="#A033FF"/>
<stop offset="0.93" stop-color="#FF5280"/>
<stop offset="1" stop-color="#FF7061"/>
</radialGradient>
</defs>
</svg>
