<svg xmlns="http://www.w3.org/2000/svg" xmlns:xlink="http://www.w3.org/1999/xlink" id="4771386c-1c5b-4872-9ac2-486c3b56cfa9" width="862.84" height="574" data-name="Layer 1" viewBox="0 0 862.84 574"><defs><linearGradient id="3fbb5603-b968-4e5d-a6aa-a77eb8d45962" x1="491.81" x2="491.81" y1="649.09" y2="275.78" gradientUnits="userSpaceOnUse"><stop offset="0" stop-color="gray" stop-opacity=".25"/><stop offset=".54" stop-color="gray" stop-opacity=".12"/><stop offset="1" stop-color="gray" stop-opacity=".1"/></linearGradient><linearGradient id="6c5574c6-5e13-40e9-a921-c6483adbc5a4" x1="211.11" x2="291.83" y1="639.3" y2="639.3" xlink:href="#3fbb5603-b968-4e5d-a6aa-a77eb8d45962"/><linearGradient id="c1ae2d59-6f06-493e-bc67-bbe3f342ee9a" x1="743.56" x2="743.56" y1="708.81" y2="647.8" xlink:href="#3fbb5603-b968-4e5d-a6aa-a77eb8d45962"/><linearGradient id="42210206-7031-48fa-9019-94a74cadb7f5" x1="322.8" x2="322.8" y1="543.16" y2="385.06" xlink:href="#3fbb5603-b968-4e5d-a6aa-a77eb8d45962"/><linearGradient id="2e549cc1-e889-41b4-bd8b-1808acd7f7a6" x1="519.12" x2="519.12" y1="123.68" y2="29.32" xlink:href="#3fbb5603-b968-4e5d-a6aa-a77eb8d45962"/><linearGradient id="ece8db58-989d-4dce-a503-1d13bb16c502" x1="534.56" x2="534.56" y1="145.48" y2="51.12" xlink:href="#3fbb5603-b968-4e5d-a6aa-a77eb8d45962"/><linearGradient id="96b33426-4479-4a92-ae42-6df6d6acfbfd" x1="656.13" x2="656.13" y1="119.52" y2="65.4" xlink:href="#3fbb5603-b968-4e5d-a6aa-a77eb8d45962"/><linearGradient id="d6fd8f6a-b8f7-4221-8d65-1bd626dc6feb" x1="824.71" x2="824.71" y1="251.81" y2="236.13" xlink:href="#3fbb5603-b968-4e5d-a6aa-a77eb8d45962"/><linearGradient id="76cd2d1a-7d71-47e8-b096-b841f2959633" x1="771.51" x2="771.51" y1="162.36" y2="18.04" xlink:href="#3fbb5603-b968-4e5d-a6aa-a77eb8d45962"/><linearGradient id="f14a0f0c-b82f-439a-aed6-6e59cdf167fc" x1="940.67" x2="940.67" y1="222.57" y2="201.95" xlink:href="#3fbb5603-b968-4e5d-a6aa-a77eb8d45962"/><linearGradient id="d3ea7720-6544-4ce6-a000-7190b224f6d3" x1="674.92" x2="674.92" y1="262.9" y2="202.96" xlink:href="#3fbb5603-b968-4e5d-a6aa-a77eb8d45962"/><linearGradient id="109d6f30-2103-4397-8d77-cdd3434d033d" x1="637.96" x2="637.96" y1="255.27" y2="180.97" xlink:href="#3fbb5603-b968-4e5d-a6aa-a77eb8d45962"/></defs><title>organizing projects1</title><path fill="url(#3fbb5603-b968-4e5d-a6aa-a77eb8d45962)" d="M592.51,559.45c-6.7-24.31-43.89-42.23-72.91-46.86V500.91l1.6-.62a25.8,25.8,0,0,0-1.39-6.84A70.43,70.43,0,0,0,550.67,469,79.36,79.36,0,0,0,535,346.7,15.57,15.57,0,0,0,528,318a30.39,30.39,0,0,0-47.31-35.31,30.38,30.38,0,0,1,44.65,26.83c0,.27,0,.53,0,.79a30.39,30.39,0,1,0-58.9,11.37A15.19,15.19,0,0,0,456.4,344,79.36,79.36,0,0,0,437,470.18a70.45,70.45,0,0,0,28.62,22.68v19.47c-29.33,4.19-67.95,22.44-74.69,47.35-5.88,21.71-12.16,45.55-15.28,59.55,26.77,18.81,82.94,29.86,118.15,29.86,33.45,0,88.12-10,114.1-27.1C605.12,606.61,598.65,581.72,592.51,559.45ZM538.89,334.87c0,.28,0,.55,0,.82a15.2,15.2,0,0,0-12.62-14.11q.44-.75.84-1.52A15.2,15.2,0,0,1,538.89,334.87Z" transform="translate(-168.58 -163)"/><path fill="#673fbd" d="M493.78,643.77c32.5,0,85.61-9.69,110.85-26.33-2.73-14.94-9-39.12-15-60.76-7.59-27.56-55.51-46.66-84.1-46.66H478c-28.67,0-76.66,19.22-84.16,46.89C388.13,578,382,601.17,379,614.77,405,633,459.58,643.77,493.78,643.77Z" transform="translate(-168.58 -163)"/><circle cx="324.68" cy="252.59" r="77.09" fill="#f55f44"/><path fill="#fda57d" d="M303.87,306.18H344.2a6,6,0,0,1,6,6v41.24a24.78,24.78,0,0,1-24.78,24.78h-2.85a24.78,24.78,0,0,1-24.78-24.78V312.22a6,6,0,0,1,6-6Z"/><path d="M495,504.1a68,68,0,0,0,25.34-4.88,25.11,25.11,0,0,0-25-23.48h-2.15a25.12,25.12,0,0,0-25,22.86A68,68,0,0,0,495,504.1Z" opacity=".05" transform="translate(-168.58 -163)"/><circle cx="324.82" cy="266.34" r="68.2" fill="#fda57d"/><circle cx="301.72" cy="177.14" r="14.76" fill="#f55f44"/><circle cx="354.2" cy="177.14" r="14.76" fill="#f55f44"/><circle cx="326.32" cy="152.54" r="29.52" fill="#f55f44"/><path fill="#f55f44" d="M526.06,322.1a14.69,14.69,0,0,0-8.24,2.51A14.76,14.76,0,0,1,531,350.75a14.75,14.75,0,0,0-5-28.65Z" transform="translate(-168.58 -163)"/><path fill="#f55f44" d="M499.82,281.09A29.4,29.4,0,0,0,481,287.83a29.52,29.52,0,0,1,32.63,48.85,29.52,29.52,0,0,0-13.86-55.59Z" transform="translate(-168.58 -163)"/><path fill="#f55f44" d="M444.05,368s8.2,54.13,111.54,24.6l-50.85-44.29Z" transform="translate(-168.58 -163)"/><g opacity=".7"><path fill="url(#6c5574c6-5e13-40e9-a921-c6483adbc5a4)" d="M291.35,619.44a15.67,15.67,0,0,0-6.21-16.62,46.3,46.3,0,0,1-4.16-2.69,15.13,15.13,0,0,1-4.17-7c-2.09-6.26-2.74-13.29-6.4-18.95-3.33-5.15-9.81-6.66-15.56-7.17a12.35,12.35,0,0,0-6.21.58c-3.2,1.45-4.73,5.23-4.88,8.75s.77,7,1,10.49-.4,7.37-3,9.75-6.3,2.66-9.73,3.14A64.42,64.42,0,0,0,218.86,603c-3.58,1.3-7.57,3.66-7.74,7.47-.14,3.11,2.37,5.6,4.26,8.07A20.65,20.65,0,0,1,219.47,635c-1.22,5.8-5.29,10.77-6,16.65A7.23,7.23,0,0,0,214,656a8,8,0,0,0,2.23,2.36c2.21,1.71,4.68,3.08,6.78,4.94,4.37,3.87,6.73,9.48,8.55,15,.18.53.33,1.07.5,1.61h-4.29a15.92,15.92,0,0,0-15.88,15.88h0a15.92,15.92,0,0,0,15.88,15.88h42.86a15.92,15.92,0,0,0,15.88-15.88h0A15.92,15.92,0,0,0,270.66,680H258.91c2.78-3.72,5.68-7.22,10-8.65s9.48-.59,12.84-3.58a10.07,10.07,0,0,0,2.91-5.77,17.2,17.2,0,0,0-1.88-11.42c-1.35-2.41-3.33-4.6-3.76-7.33a10.87,10.87,0,0,1,1.62-6.77C283.86,630.52,289.6,625.95,291.35,619.44Z" transform="translate(-168.58 -163)"/></g><path fill="#4db6ac" d="M254.68,570.47a11.76,11.76,0,0,0-5.91.55c-3.05,1.38-4.5,5-4.64,8.33s.73,6.65,1,10-.38,7-2.84,9.28-6,2.53-9.27,3a61.35,61.35,0,0,0-12.56,3.12c-3.41,1.24-7.21,3.48-7.37,7.11-.13,3,2.26,5.33,4.06,7.69a19.67,19.67,0,0,1,3.9,15.65c-1.16,5.52-5,10.26-5.74,15.86a6.88,6.88,0,0,0,.56,4.19,7.66,7.66,0,0,0,2.12,2.25c2.11,1.63,4.46,2.94,6.45,4.7,4.16,3.68,6.41,9,8.15,14.31a115.87,115.87,0,0,1,4,15.87c3.58-2.3,8.21-2.27,12-4.15,8.14-4,10.88-15.55,19.47-18.43,4.07-1.36,9-.56,12.23-3.41a9.59,9.59,0,0,0,2.78-5.5A16.38,16.38,0,0,0,281.26,650c-1.29-2.3-3.17-4.38-3.58-7a10.35,10.35,0,0,1,1.54-6.45c3.09-5.62,8.55-10,10.22-16.17a14.93,14.93,0,0,0-5.92-15.82,44.09,44.09,0,0,1-4-2.56,14.41,14.41,0,0,1-4-6.66c-2-6-2.61-12.65-6.1-18C266.33,572.39,260.16,571,254.68,570.47Z" transform="translate(-168.58 -163)"/><path fill="none" stroke="#535461" stroke-miterlimit="10" d="M254.62,570.67S262.18,672,242.53,689.35" opacity=".6" transform="translate(-168.58 -163)"/><rect width="71.05" height="30.24" x="45.23" y="515.01" fill="#673fbd" rx="14.3" ry="14.3"/><path fill="none" stroke="#535461" stroke-miterlimit="10" d="M213,610s19.33-2.26,42.92,12.1" opacity=".6" transform="translate(-168.58 -163)"/><path fill="none" stroke="#535461" stroke-miterlimit="10" d="M255.6,634.17A49.93,49.93,0,0,1,289.39,613" opacity=".6" transform="translate(-168.58 -163)"/><path fill="none" stroke="#535461" stroke-miterlimit="10" d="M214.94,651.18s26.79-4.54,39.1,3" opacity=".6" transform="translate(-168.58 -163)"/><path fill="none" stroke="#535461" stroke-miterlimit="10" d="M252.51,664.59s14-6.36,29.8-1.19" opacity=".6" transform="translate(-168.58 -163)"/><g opacity=".7"><path fill="url(#c1ae2d59-6f06-493e-bc67-bbe3f342ee9a)" d="M763.71,658.7V647.8H709.24v50.39a10.62,10.62,0,0,0,10.62,10.62h33.23a10.62,10.62,0,0,0,10.62-10.62V687a14.16,14.16,0,1,0,0-28.33Zm0,22.88V664.14a8.72,8.72,0,1,1,0,17.43Z" transform="translate(-168.58 -163)"/></g><path fill="#673fbd" d="M762,660.4a12.93,12.93,0,1,0,12.93,12.93A12.93,12.93,0,0,0,762,660.4Zm0,20.89a8,8,0,1,1,8-8A8,8,0,0,1,762,681.29Z" transform="translate(-168.58 -163)"/><path d="M762,660.4a12.93,12.93,0,1,0,12.93,12.93A12.93,12.93,0,0,0,762,660.4Zm0,20.89a8,8,0,1,1,8-8A8,8,0,0,1,762,681.29Z" opacity=".1" transform="translate(-168.58 -163)"/><path fill="#673fbd" d="M543.64,487.45h49.74a0,0,0,0,1,0,0v46a9.75,9.75,0,0,1-9.75,9.75H553.39a9.75,9.75,0,0,1-9.75-9.75v-46A0,0,0,0,1,543.64,487.45Z"/><rect width="645.61" height="21.88" y="543.16" fill="#e0e0e0"/><g opacity=".7"><rect width="274.56" height="158.1" x="185.52" y="385.06" fill="url(#42210206-7031-48fa-9019-94a74cadb7f5)" rx="14.5" ry="14.5"/></g><rect width="264.61" height="155.18" x="190.5" y="387.98" fill="#535461" rx="26.84" ry="26.84"/><circle cx="322.8" cy="465.57" r="8.95" fill="#fff"/><rect width="590.89" height="8.95" x="27.36" y="565.05" fill="#e0e0e0"/><rect width="590.89" height="2.98" x="27.36" y="565.05" opacity=".1"/><path d="M753,650.45v46a9.7,9.7,0,0,1-9.7,9.7h5a9.7,9.7,0,0,0,9.7-9.7v-46Z" opacity=".1" transform="translate(-168.58 -163)"/><path fill="#eee" d="M722,613.37a2.9,2.9,0,0,0-2.2,1.12c-.65,1.18.53,2.52,1.61,3.33,2,1.5,4.09,3,5.45,5.07s1.78,5,.3,7c-1.93,2.62-6.55,3.19-7,6.41-.29,2.07,1.5,3.84,3.32,4.88,4.48,2.57,10.26,3.25,13.5,7.27,1.34-2.76,4.35-4.36,7.34-5s6.1-.63,9.14-1.09A3.16,3.16,0,0,0,756,641c.85-1.72-1.57-3.79-.73-5.51.64-1.32,2.5-1.21,3.86-1.74,2.22-.86,3.13-3.71,2.5-6s-2.41-4.09-4.28-5.56c-5-4-11.1-6.29-17.23-8-2.85-.78-6.2-2-9.16-2.12S724.86,612.89,722,613.37Z" transform="translate(-168.58 -163)"/><rect width="434.48" height="297.67" x="428.37" fill="#535461" opacity=".1"/><g opacity=".5"><rect width="102.28" height="94.36" x="467.98" y="29.32" fill="url(#2e549cc1-e889-41b4-bd8b-1808acd7f7a6)" rx="4.5" ry="4.5"/></g><rect width="99.92" height="92.07" x="469.23" y="30.05" fill="#f5f5f5" rx="4.5" ry="4.5"/><rect width="16.85" height="15.17" x="476.93" y="45.21" fill="#673fbd" rx="4.5" ry="4.5"/><rect width="66.99" height="1.69" x="498.84" y="45.21" fill="#e0e0e0" rx=".8" ry=".8"/><rect width="66.99" height="1.69" x="498.84" y="50.27" fill="#e0e0e0" rx=".8" ry=".8"/><rect width="90.58" height="1.69" x="475.25" y="68.62" fill="#e0e0e0" rx=".8" ry=".8"/><rect width="90.58" height="1.69" x="475.25" y="73.67" fill="#e0e0e0" rx=".8" ry=".8"/><rect width="90.58" height="1.69" x="475.25" y="80.41" fill="#e0e0e0" rx=".8" ry=".8"/><rect width="52.24" height="1.69" x="475.25" y="85.47" fill="#e0e0e0" rx=".8" ry=".8"/><rect width="90.58" height="1.69" x="475.25" y="92.19" fill="#e0e0e0" rx=".8" ry=".8"/><rect width="90.58" height="1.69" x="475.25" y="97.25" fill="#e0e0e0" rx=".8" ry=".8"/><rect width="90.58" height="1.69" x="475.25" y="103.99" fill="#e0e0e0" rx=".8" ry=".8"/><rect width="52.24" height="1.69" x="475.25" y="109.04" fill="#e0e0e0" rx=".8" ry=".8"/><g opacity=".5"><rect width="102.28" height="94.36" x="483.42" y="51.12" fill="url(#ece8db58-989d-4dce-a503-1d13bb16c502)" rx="4.5" ry="4.5"/></g><rect width="99.92" height="92.07" x="484.67" y="51.85" fill="#fff" rx="4.5" ry="4.5"/><rect width="16.85" height="15.17" x="492.37" y="67.02" fill="#673fbd" rx="4.5" ry="4.5"/><rect width="66.99" height="1.69" x="514.27" y="67.02" fill="#e0e0e0" rx=".8" ry=".8"/><rect width="66.99" height="1.69" x="514.27" y="72.07" fill="#e0e0e0" rx=".8" ry=".8"/><rect width="90.58" height="1.69" x="490.68" y="90.42" fill="#e0e0e0" rx=".8" ry=".8"/><rect width="90.58" height="1.69" x="490.68" y="95.48" fill="#e0e0e0" rx=".8" ry=".8"/><rect width="90.58" height="1.69" x="490.68" y="102.22" fill="#e0e0e0" rx=".8" ry=".8"/><rect width="52.24" height="1.69" x="490.68" y="107.27" fill="#e0e0e0" rx=".8" ry=".8"/><rect width="90.58" height="1.69" x="490.68" y="114" fill="#e0e0e0" rx=".8" ry=".8"/><rect width="90.58" height="1.69" x="490.68" y="119.05" fill="#e0e0e0" rx=".8" ry=".8"/><rect width="90.58" height="1.69" x="490.68" y="125.79" fill="#e0e0e0" rx=".8" ry=".8"/><rect width="52.24" height="1.69" x="490.68" y="130.85" fill="#e0e0e0" rx=".8" ry=".8"/><rect width="56.33" height="54.12" x="627.96" y="65.4" fill="url(#96b33426-4479-4a92-ae42-6df6d6acfbfd)"/><rect width="54.56" height="51.69" x="628.85" y="66.72" fill="#f5f5f5"/><g opacity=".5"><path fill="url(#d6fd8f6a-b8f7-4221-8d65-1bd626dc6feb)" d="M829.53,238.78v-2.65h-9.65v2.65h-6.76v13h23.16v-13Zm-8.45-1.69h7.24v1.69h-7.24Z" transform="translate(-168.58 -163)"/></g><rect width="21.21" height="11.93" x="645.53" y="76.22" fill="#673fbd" opacity=".6"/><polygon fill="#673fbd" points="651.71 73.79 651.71 76.88 652.82 76.88 652.82 74.67 659.44 74.67 659.44 76.88 660.55 76.88 660.55 73.79 651.71 73.79" opacity=".6"/><g opacity=".6"><rect width="19.66" height="2.65" x="646.74" y="97.43" fill="#673fbd"/></g><rect width="33.58" height="2.65" x="639.34" y="102.29" fill="#bdbdbd"/><g opacity=".5"><rect width="122.84" height="144.32" x="710.1" y="18.04" fill="url(#76cd2d1a-7d71-47e8-b096-b841f2959633)"/></g><rect width="116.45" height="138.81" x="713.87" y="20.36" fill="#fff"/><g opacity=".5"><path fill="url(#f14a0f0c-b82f-439a-aed6-6e59cdf167fc)" d="M947,205.44v-3.49H934.33v3.49h-8.88v17.13H955.9V205.44Zm-11.1-2.22h9.52v2.22h-9.52Z" transform="translate(-168.58 -163)"/></g><rect width="27.88" height="15.68" x="758.16" y="43.01" fill="#673fbd"/><polygon fill="#673fbd" points="766.29 39.82 766.29 43.88 767.74 43.88 767.74 40.98 776.45 40.98 776.45 43.88 777.9 43.88 777.9 39.82 766.29 39.82"/><rect width="81.89" height="3.48" x="731.29" y="81.26" fill="#e0e0e0"/><rect width="81.89" height="3.48" x="731.29" y="104.2" fill="#e0e0e0"/><rect width="81.89" height="3.48" x="731.29" y="110.3" fill="#e0e0e0"/><rect width="34.56" height="3.48" x="731.29" y="98.11" fill="#e0e0e0"/><rect width="25.84" height="3.48" x="787.34" y="98.11" fill="#3ad29f" opacity=".6"/><rect width="25.84" height="3.48" x="760.04" y="124.53" fill="#673fbd"/><g opacity=".5"><rect width="72.99" height="59.95" x="638.43" y="202.96" fill="url(#d3ea7720-6544-4ce6-a000-7190b224f6d3)"/></g><rect width="71.14" height="57.82" x="639.28" y="204.09" fill="#f2f2f2"/><rect width="71.14" height="12.9" x="639.28" y="204.09" fill="#673fbd"/><rect width="71.14" height="12.9" x="639.28" y="204.09" opacity=".1"/><rect width="59.81" height="7.51" x="644.95" y="221.66" fill="#e0e0e0"/><rect width="43.65" height="2.55" x="644.95" y="234.84" fill="#e0e0e0"/><rect width="28.34" height="2.55" x="644.95" y="239.24" fill="#e0e0e0"/><rect width="37.41" height="2.55" x="644.95" y="243.63" fill="#e0e0e0"/><rect width="43.65" height="2.55" x="644.95" y="248.02" fill="#e0e0e0"/><rect width="14.6" height="2.55" x="644.95" y="252.42" fill="#e0e0e0"/><g opacity=".5"><rect width="90.46" height="74.3" x="592.73" y="180.97" fill="url(#109d6f30-2103-4397-8d77-cdd3434d033d)"/></g><rect width="88.18" height="71.67" x="593.78" y="182.37" fill="#fff"/><rect width="88.18" height="15.98" x="593.78" y="182.37" fill="#673fbd"/><rect width="74.13" height="9.31" x="600.81" y="204.16" fill="#f5f5f5"/><rect width="54.1" height="3.16" x="600.81" y="220.49" fill="#e0e0e0"/><rect width="35.13" height="3.16" x="600.81" y="225.94" fill="#e0e0e0"/><rect width="46.37" height="3.16" x="600.81" y="231.38" fill="#e0e0e0"/><rect width="54.1" height="3.16" x="600.81" y="236.83" fill="#e0e0e0"/><rect width="18.09" height="3.16" x="600.81" y="242.27" fill="#e0e0e0"/><rect width="21.08" height="2.81" x="604.67" y="207.32" fill="#69f0ae"/><circle cx="469.37" cy="366.07" r="12.21" fill="#535461" opacity=".1"/><circle cx="492.06" cy="326.81" r="12.21" fill="#535461" opacity=".1"/></svg>