<svg xmlns="http://www.w3.org/2000/svg" xmlns:xlink="http://www.w3.org/1999/xlink" id="c72640af-2824-4ace-a782-4df73f48977c" viewBox="0 0 1143.1 863"><defs><style>.cls-1,.cls-12,.cls-13{fill:#6c63ff}.cls-1,.cls-14,.cls-23,.cls-25,.cls-6{opacity:.1}.cls-1,.cls-11,.cls-12,.cls-14,.cls-25,.cls-28,.cls-6,.cls-9{isolation:isolate}.cls-2,.cls-6{fill:#5629b6}.cls-3{fill:#444053}.cls-4,.cls-5{fill:none;stroke:#444053;stroke-miterlimit:10}.cls-5{stroke-width:.75px}.cls-7{fill:url(#linear-gradient)}.cls-8{fill:#fff}.cls-10,.cls-11,.cls-25,.cls-9{fill:#5a5773}.cls-9{opacity:.04}.cls-11,.cls-12{opacity:.2}.cls-15{fill:#ffd037}.cls-16{fill:#65617d}.cls-17{fill:#9d9cb5}.cls-18{fill:#fbbebe}.cls-19{fill:#e7effd}.cls-20{fill:#3f3d56}.cls-21{fill:#5f5d7e}.cls-22{fill:#7c5c5c}.cls-24{fill:#e6e8ec}.cls-26{fill:#2d293d}.cls-27{fill:#575988}.cls-28,.cls-29{opacity:.05}.cls-30{fill:#ffcdd3}.cls-31{fill:#dce6f2}.cls-32{fill:#656691}</style><linearGradient id="linear-gradient" x1="551.45" x2="551.45" y1="172.84" y2="711.17" gradientTransform="matrix(1, 0, 0, -1, 0, 861.35)" gradientUnits="userSpaceOnUse"><stop offset="0" stop-color="gray" stop-opacity=".25"/><stop offset=".54" stop-color="gray" stop-opacity=".12"/><stop offset="1" stop-color="gray" stop-opacity=".1"/></linearGradient></defs><title>3</title><ellipse cx="1023.8" cy="834.1" class="cls-1" rx="100.1" ry="24.7"/><ellipse cx="140" cy="838.3" class="cls-1" rx="100.1" ry="24.7"/><path d="M684.7,232.9s-14-5.7-58.8,14.8-50.3,17.9-61.9,14.8-18-3.9-30.5-21c0,0-8.7-47.5-17.2-54.9s-44.5,4.2-44.5,4.2-43.2,9.9-51.4-47.8c0,0,5.8-43.5-2.1-56.9,0,0,16,7,42.5-4.2s47.7,12,47.7,12,6.7,17.3,6,27.6,3.6,14.2,16.2,9.2c0,0,6.2-8.8-2.6-23.4S513,81.8,515.5,70.5s9.5-27,32.2-34.9,53.4-9.4,68.2-15.5S634.2,9.9,634.2,9.9s-9.1,9.1,12.4,47.8,7.7,55.3,7.7,55.3-11.4,27.2-61.7,25c0,0-48.4,1.8-22,22.4,0,0,17-3.5,42.3-11.5S656.4,174,661,197.1,684.7,232.9,684.7,232.9Z" class="cls-2" transform="translate(0 0.1)"/><path d="M619.6,39.2h.2c2,7.4-19.7,37-38.2,60.6l-.2-.2C607.5,66.3,621.1,44.9,619.6,39.2Z" class="cls-3" transform="translate(0 0.1)"/><path d="M581.8,99v.3c-14.8,18.8-33.4,41.3-48.3,57.9l-4.2,4.9-.4-.3,4.2-5C548.1,140.2,567,117.8,581.8,99Z" class="cls-3" transform="translate(0 0.1)"/><path d="M529.4,161.3l.2.5c-27.1,33.9-28.9,86.4-29,86.9l-5.7-6.6C495,241.6,502.1,195.4,529.4,161.3Z" class="cls-3" transform="translate(0 0.1)"/><path d="M653.3,214.5s-32-16.6-56.8-10.6-81-21.1-81-21.1-23.8-9.7-28.6-20.7c0,0-16.4-17.2-17.3-26.2s-16.8-31.4-27.2-32.3" class="cls-4" transform="translate(0 0.1)"/><path d="M648.7,230.5s-16.1-10.8-14.2-23.5" class="cls-4" transform="translate(0 0.1)"/><path d="M624,244.5s-23-8.3-25.3-41.1" class="cls-4" transform="translate(0 0.1)"/><path d="M586.9,253s-22-18.2-14.7-50.1" class="cls-4" transform="translate(0 0.1)"/><path d="M542.2,244.1s-14.6-30.7-1.6-50.7" class="cls-4" transform="translate(0 0.1)"/><path d="M653.7,194.3s-16.7,5.3-13.1,14" class="cls-4" transform="translate(0 0.1)"/><path d="M633.6,164.1s-22.3,7-22.8,38.5" class="cls-4" transform="translate(0 0.1)"/><path d="M602.6,156.8s-20.3,25-18.8,47.8" class="cls-4" transform="translate(0 0.1)"/><path d="M567,166.6s-20.1,19.3-17.5,30" class="cls-4" transform="translate(0 0.1)"/><path d="M554.9,159.8s-18.9,3.4-21.5-2.8" class="cls-4" transform="translate(0 0.1)"/><path d="M530.4,137s9.5,12.7,12,9.8" class="cls-4" transform="translate(0 0.1)"/><path d="M624.9,129s-47.5,3.5-58.3-10.9" class="cls-4" transform="translate(0 0.1)"/><path d="M520.4,73.4s22.3,47.9,38.5,54" class="cls-4" transform="translate(0 0.1)"/><path d="M543.8,50.5s13.7,44.1,30.7,57.9" class="cls-4" transform="translate(0 0.1)"/><path d="M645,92.7s-36.2,15.5-58-.2" class="cls-5" transform="translate(0 0.1)"/><path d="M576,41.1s8.3,32.5,19.4,40.3" class="cls-5" transform="translate(0 0.1)"/><path d="M639.5,56.4s-20.3,7.7-27.9,1.8" class="cls-5" transform="translate(0 0.1)"/><path d="M513,147.6s0,28.3-7.7,30.3" class="cls-4" transform="translate(0 0.1)"/><path d="M450.1,184.2s30.5,2.6,44.6-13.1" class="cls-4" transform="translate(0 0.1)"/><path d="M505.1,114.2s-7.4,28.7-27.8,36.4" class="cls-4" transform="translate(0 0.1)"/><path d="M431.8,154s21.6,7.6,40.2-11.6" class="cls-4" transform="translate(0 0.1)"/><path d="M481,89.6s-2,24.3-15.2,35.7" class="cls-4" transform="translate(0 0.1)"/><path d="M432.6,117s17.9.1,22.1-5.8" class="cls-4" transform="translate(0 0.1)"/><path d="M592,137.5c-71.4,11.9-142.9,5.5-211.8-3.4s-137.5-20.2-209-18c-46,1.4-97.2,10.5-129,38.2s-35,63.2-34.8,96.2C7.7,275.3,10,301,26.8,321c11.7,13.8,29.5,23.9,43,36.7,47,44.6,33.7,113.6,3.9,172.1-14,27.4-31.1,54.4-40.5,82.5S22.9,670.7,40.6,694s51.1,36.4,86,43.6c70.9,14.4,149.5,7,225.6-3.4,168.5-23.1,335-60.5,501.1-97.8,61.5-13.8,123.2-27.7,182.4-48,32.8-11.3,66.2-25.5,87.3-47.9,26.6-28.4,26.9-67.7.5-91.5-44.2-40-143.2-32.5-177.6-78-18.9-25-11.2-58.6,3.3-88.2,31-63.4,91.7-125.6,83-189.4-6-43.7-48.4-80.4-104.7-90.5C868.5-7.7,793.1,10,759.7,53.5,725.3,98.5,655,127,592,137.5Z" class="cls-6" transform="translate(0 0.1)"/><rect width="950.3" height="538.33" x="76.3" y="150.2" class="cls-7" rx="12.5" ry="12.5"/><rect width="947.4" height="528.97" x="77.8" y="157.8" class="cls-8" rx="12.5" ry="12.5"/><rect width="947.4" height="528.97" x="77.8" y="157.8" class="cls-8" rx="12.5" ry="12.5"/><rect width="947.4" height="528.97" x="77.8" y="157.8" class="cls-9" rx="12.5" ry="12.5"/><path d="M1020.4,151.6H82.6a4.8,4.8,0,0,0-4.8,4.8v20.4h947.4V156.5a4.8,4.8,0,0,0-4.8-4.9Z" class="cls-10" transform="translate(0 0.1)"/><g id="_83eb5f8b-b68b-4721-b047-6100bc74156f" data-name="83eb5f8b-b68b-4721-b047-6100bc74156f"><circle cx="96.7" cy="164.3" r="6.5" class="cls-8"/><circle cx="114.2" cy="164.3" r="6.5" class="cls-8"/><circle cx="131.7" cy="164.3" r="6.5" class="cls-8"/></g><rect width="790" height="392.78" x="141.2" y="293.9" class="cls-8" rx="10.2" ry="10.2"/><rect width="227.2" height="23.85" x="107.7" y="203.5" class="cls-11" rx="3.9" ry="3.9"/><rect width="227.2" height="23.85" x="536.2" y="339.5" class="cls-12" rx="3.9" ry="3.9"/><rect width="354.8" height="23.85" x="536.2" y="406.3" class="cls-12" rx="3.9" ry="3.9"/><rect width="354.8" height="23.85" x="536.2" y="445.3" class="cls-12" rx="3.9" ry="3.9"/><rect width="354.8" height="23.85" x="536.2" y="484.3" class="cls-12" rx="3.9" ry="3.9"/><rect width="354.8" height="23.85" x="536.2" y="523.3" class="cls-12" rx="3.9" ry="3.9"/><rect width="707" height="23.85" x="184.1" y="566.3" class="cls-12" rx="3.9" ry="3.9"/><rect width="707" height="23.85" x="184.1" y="605.3" class="cls-12" rx="3.9" ry="3.9"/><rect width="707" height="23.85" x="184.1" y="644.3" class="cls-12" rx="3.9" ry="3.9"/><path d="M729.3,660s5.9,7.7-2.7,19.5-15.9,21.6-13,28.9c0,0,13.1-21.8,23.8-22S741,673.1,729.3,660Z" class="cls-13" transform="translate(0 0.1)"/><path d="M729.3,660a10.8,10.8,0,0,1,1.2,2.4c10.4,12.2,15.9,23.6,6,23.9s-20.5,16.9-23.2,21.1l.3,1s13.1-21.7,23.8-22S741,673.1,729.3,660Z" class="cls-14" transform="translate(0 0.1)"/><path d="M740.3,669.9c0,2.7-.3,4.9-.7,4.9s-.6-2.2-.6-4.9.3-1.5.7-1.5S740.3,667.2,740.3,669.9Z" class="cls-15" transform="translate(0 0.1)"/><path d="M744.1,673.1c-2.4,1.3-4.5,2.1-4.7,1.8s1.7-1.7,4-3,1.5-.4,1.7,0S746.5,671.8,744.1,673.1Z" class="cls-15" transform="translate(0 0.1)"/><path d="M698,660s-6,7.7,2.7,19.5,15.8,21.6,12.9,28.9c0,0-13-21.8-23.7-22S686.3,673.1,698,660Z" class="cls-13" transform="translate(0 0.1)"/><path d="M698,660a7.7,7.7,0,0,0-1.2,2.4c-10.4,12.2-15.9,23.6-6,23.9s20.5,16.9,23.2,21.1a4.2,4.2,0,0,1-.4,1s-13-21.7-23.7-22S686.3,673.1,698,660Z" class="cls-14" transform="translate(0 0.1)"/><path d="M687,669.9c0,2.7.3,4.9.6,4.9s.7-2.2.7-4.9-.4-1.4-.7-1.4S687,667.2,687,669.9Z" class="cls-15" transform="translate(0 0.1)"/><path d="M683.2,673.1c2.4,1.3,4.5,2.1,4.6,1.8s-1.6-1.7-4-3-1.4-.4-1.6,0S680.8,671.8,683.2,673.1Z" class="cls-15" transform="translate(0 0.1)"/><ellipse cx="713.6" cy="758.2" class="cls-1" rx="62" ry="9.5"/><path d="M745.6,697.9l-.3,2.4-.4,3.4-.2,1.5-.4,3.4-.2,1.4-.4,3.4-4.8,38.9c-.4,3.5-6.1,6.2-13,6.2H701.3c-6.8,0-12.5-2.7-12.9-6.2l-4.8-38.8-.4-3.4-.2-1.5-.4-3.4-.2-1.4-.4-3.4-.3-2.5c-.2-2,2.9-3.6,6.7-3.6h50.5C742.7,694.3,745.8,695.9,745.6,697.9Z" class="cls-16" transform="translate(0 0.1)"/><polygon points="745.3 700.4 744.8 703.8 682.4 703.8 682 700.4 745.3 700.4" class="cls-17"/><polygon points="744.7 705.2 744.3 708.7 683 708.7 682.6 705.2 744.7 705.2" class="cls-17"/><polygon points="744.1 710.1 743.6 713.5 683.6 713.5 683.2 710.1 744.1 710.1" class="cls-17"/><rect width="302" height="221.54" x="184.1" y="326.3" class="cls-12" rx="8.5" ry="8.5"/><path d="M950.2,580.3s3.5-18,14.5-18l8,16.5-5.3,3.7S955.7,582.9,950.2,580.3Z" class="cls-16" transform="translate(0 0.1)"/><path d="M972.7,578.8l-5.3,3.7s-8.3.3-14.1-1.2a16,16,0,0,1-3.1-1V580h0a36.3,36.3,0,0,1,2.1-6.6,27.2,27.2,0,0,1,1.1-2.5c1.6-3.1,3.9-6.2,7-7.7a11.3,11.3,0,0,1,3.7-1h.5v.4l2.8,5.6Z" class="cls-14" transform="translate(0 0.1)"/><path d="M1064.2,653.4s11.5-1.1,12.6-.3,7.6,5.1,11.4,2.4,1.3-12,1.3-12.4-.3-13.6-.3-13.6l-7-9.3-8.7-16.4-17.7-1.8.4,26v13.4Z" class="cls-16" transform="translate(0 0.1)"/><path d="M1064.2,653.4s11.5-1.1,12.6-.3,7.6,5.1,11.4,2.4,1.3-12,1.3-12.4-.3-13.6-.3-13.6l-7-9.3-8.7-16.4-17.7-1.8.4,26v13.4Z" class="cls-14" transform="translate(0 0.1)"/><path d="M962.4,561.8s-1,11.2-8,11.4c0,0-2-1.2-4.7-3.2-6.2-4.6-16-13.5-13.3-21.8,3.9-11.8,22.8,10,22.8,10l1.4,1.7Z" class="cls-18" transform="translate(0 0.1)"/><path d="M962.4,561.8s-1,11.2-8,11.4c0,0-2-1.2-4.7-3.2l-.6-.7a10.2,10.2,0,0,0,3.8,1,5.3,5.3,0,0,0,5-3.2,29.5,29.5,0,0,0,2-4.5,8.9,8.9,0,0,0,.7-2.8Z" class="cls-14" transform="translate(0 0.1)"/><path d="M959.3,582.2l-1.6-2-5.3-6.8-2.7-3.5a10.2,10.2,0,0,0,3.8,1,5.3,5.3,0,0,0,5-3.2,44.3,44.3,0,0,0,2-4.5c.8-2.5.8-3.8.5-4.2s2,1.7,3.1,2.7h0l.5.5.2.4,2.8,5.4v.2C967.8,569.9,968.7,580.7,959.3,582.2Z" class="cls-19" transform="translate(0 0.1)"/><path d="M1014.8,820.5s-7.8,5.1-11.7,4.3a14.4,14.4,0,0,0-7.9,1.3,23.9,23.9,0,0,1-9.8,6.4c-6.3,2.1-15.1,1.3-20.1-.4-2.3-.8-2.5-1.8-1.4-3s4.2-3.1,7.5-5.1c6.4-3.8,13.3-11.3,13.3-11.3a3.6,3.6,0,0,1,1.2-2.7,17.1,17.1,0,0,0,1.8-2l2-2.4,22.9.9s.4,1.6.7,3.3a18.4,18.4,0,0,1,.3,3.3,3,3,0,0,0,.6,2.3l.4,3.8Z" class="cls-16" transform="translate(0 0.1)"/><path d="M1062.6,826.9c-.3,1.1-.6,3.1-.8,4a1.2,1.2,0,0,1-.1.5s-1.8,4.1-12.1,5.5-10.3-3.4-10.3-3.4v-1.3a66.3,66.3,0,0,1,.9-7.2c.3-1.2-.3-6.5-.3-6.5v-9.3l17-1.8a25,25,0,0,0,.6,3.8,3.7,3.7,0,0,0,.7,2c.9,1,1.5,5.5,1.5,5.5S1063,825.4,1062.6,826.9Z" class="cls-16" transform="translate(0 0.1)"/><path d="M1012.6,806.5s.4,1.6.7,3.3c-2.5.5-13.3,2.3-16,1s-9.7-2.3-9.7-2.3v-.4l2-2.4Z" class="cls-14" transform="translate(0 0.1)"/><path d="M1057.4,811.2c-4.3-.7-13.8,1-17.5,1.8v-3.8l17-1.8A23.2,23.2,0,0,0,1057.4,811.2Z" class="cls-14" transform="translate(0 0.1)"/><path d="M987.7,778.6a24.2,24.2,0,0,0,.2-7.6c-.7-3.3-1.2-13.7-1.2-13.7s.4-7.8-.4-10.7.6-8,.8-9.3-.8-12.2-.8-12.2a38.6,38.6,0,0,0,.4-9c-.6-3.8.5-17.8.5-17.8l1.7-16.1s1.2-5,1-7,1.4-9.1,1.4-9.1a11.5,11.5,0,0,1,.7-4.5c1-1.8,1.3-8,1.3-8l8.9-20.3,4.4-18,58.8-.6s.2,1.6.5,4.4.9,7,1.4,12.2,1.1,10.2,1.7,16.4c1.8,19.7-2,23.2-2,23.2l-.3,13s.4,19.9-1,23-1.3,15.8-1.3,15.8.9,6-.1,7.3-.3,6.2.4,8.7.1,8.7.1,8.7l-6.9,62.8c-5.1-1.2-19.6,2-19.6,2-1.5-3.3-.1-51.3-.1-51.3s-.8-13.6-.2-14.1,2.4-6,1.5-7.7-2.5-13.3-2.5-14-1.2-15.7-1.2-15.7-1.1-10.4-.8-12.6-.7-10.5-.7-10.5c0-6.9-4-14.3-4-14.3v.3l-8.6,22.8s-1.4,6.8-2.6,10.7a54.5,54.5,0,0,0-1.8,8v1.4h0s.6,4.9-.4,6.5a20,20,0,0,0-2.1,7.6v6.3s.4,9.9-.6,11a1.7,1.7,0,0,0-.5,2s1.7,7.5,1,9.4-.2,6.5-.2,6.5-1.5,14.3-1.7,15.1,1.2,28.9,1.2,28.9-13.4,2.5-16.5,1.1-9.6-2.4-9.6-2.4a21.5,21.5,0,0,0-.2-5.6" class="cls-20" transform="translate(0 0.1)"/><path d="M1061.6,508.8l-13.7,14.7s-17.6-7-15.7-9.5c.7-.9.6-3.9.1-7.1-.6-5.1-2-11-2-11s30.8-5,28.2.2a8,8,0,0,0-.2,6.1A20.5,20.5,0,0,0,1061.6,508.8Z" class="cls-18" transform="translate(0 0.1)"/><path d="M1058.4,496c-.9,1.9-1.4,2.1-.8,4.2-4,4.3-9.1,9-15.5,9a22.4,22.4,0,0,1-9.8-2.3,107.6,107.6,0,0,0-2-11S1061,490.9,1058.4,496Z" class="cls-14" transform="translate(0 0.1)"/><path d="M1064.2,486.6a22.1,22.1,0,0,1-44.1,0v-.3a22.1,22.1,0,0,1,44.1.3Z" class="cls-18" transform="translate(0 0.1)"/><path d="M1067.4,631.9l-23.5.3H1040c-12.8.2-25.5-2.3-30.6-1.9-10.9,1,3.9-10,3.9-10a88.3,88.3,0,0,0,24.6,2.5h3.2c9.8-.6,19.7-1.5,24.9-3C1066.3,622.6,1066.8,626.8,1067.4,631.9Z" class="cls-14" transform="translate(0 0.1)"/><path d="M1067.4,631.4l-23.5.3H1040c-12.8.2-25.5-2.3-30.6-1.8-10.9,1,3.9-10,3.9-10a92.3,92.3,0,0,0,24.6,2.5l3.2-.2c9.8-.5,19.7-1.5,24.9-3C1066.3,622.1,1066.8,626.2,1067.4,631.4Z" class="cls-21" transform="translate(0 0.1)"/><path d="M1036.2,514.9l-17,8-13.1,101.7s7.8-3.6,12.2-1.3,18.1.2,18.1.2,10-.6,11.5.5,18.9-4.6,18.9-4.6,3.2-7,.7-8.2.8-12,.8-12l-1.5-73.3-3-9.4-8-4.8-8.1,6.4-3.9.6Z" class="cls-14" transform="translate(0 0.1)"/><path d="M1036.2,513.8l-17,8L1006,623.5s7.8-3.6,12.3-1.3,18.1.2,18.1.2,10-.6,11.5.5,18.9-4.6,18.9-4.6,3.1-7,.7-8.2.7-12,.7-12l-1.4-73.3-3-9.4-8-4.9-8.2,6.5-3.9.6Z" class="cls-19" transform="translate(0 0.1)"/><path d="M1035.9,518.5s5,5.9,4.9,7-.3,4.1-.3,4.1l-3.7,7.5s-2,9.4-2,11.3-3.3,18.8-3.3,18.8l-3.9,25.9-4.9,34,5,8.6,5.9-5,7.9-60.5,1.6-11.9s1.8-21.5,1.8-23.7a74.6,74.6,0,0,0-1-8.1s1.2-5.5,6.2-6.8-.4-.3-.4-.3l-2.8-2.3-2.5,1S1037.4,515.9,1035.9,518.5Z" class="cls-14" transform="translate(0 0.1)"/><path d="M1035.4,518s4.9,5.8,4.8,7-.3,4-.3,4l-3.7,7.5s-2,9.4-2,11.3-3.2,18.8-3.2,18.8l-3.9,25.9-4.9,34,5,8.6,5.9-5,7.9-60.5,1.7-11.9s1.7-21.5,1.7-23.7a74.6,74.6,0,0,0-1-8.1s1.2-5.5,6.2-6.8-.4-.3-.4-.3l-2.8-2.3-2.5,1S1036.9,515.4,1035.4,518Z" class="cls-2" transform="translate(0 0.1)"/><path d="M1032.1,508.2s-.7.6-.9,4.3-2.8,12-2.8,12,9.7-6.6,14.5-5.9Z" class="cls-14" transform="translate(0 0.1)"/><path d="M1032.1,507.1s-.7.6-.9,4.3-2.8,12-2.8,12,9.7-6.7,14.5-5.9Z" class="cls-19" transform="translate(0 0.1)"/><path d="M1058.4,505.3l-15.1,13.3s12.7,7.6,14.4,9.5,3.3-18.2,3.3-18.2Z" class="cls-14" transform="translate(0 0.1)"/><path d="M1059,504.2l-15.2,13.3s12.8,7.6,14.4,9.5,3.4-18.2,3.4-18.2Z" class="cls-19" transform="translate(0 0.1)"/><path d="M1032.7,508.2s-1.7-.8-3.2,1.6a10.5,10.5,0,0,1-4.6,3.5s-16.8,2.7-17.5,4.9l-7.8.5s-2.8.4-3,6.2-1.8,6.4-1.8,6.4-3.2,5.7-3,8.7a5,5,0,0,1-2.5,4.5l11.6,30s.3,12.4-1.8,17-6.1,24.6-6.1,24.6,1.7-.4,1.6.7-2,13.3-2,13.3-.6,4.8-1.5,6.5-1,10.3-1,10.3l-1.5,6.3s3.5,7.9,8.9,6.8,15.1-22.1,15.1-22.1l6.2-22.7,4.8-22.4,1.4-15.2,2.2-33.6,3.2-22.2S1034,509.8,1032.7,508.2Z" class="cls-14" transform="translate(0 0.1)"/><path d="M1032.1,507.1s-1.6-.8-3.2,1.6a9.7,9.7,0,0,1-4.5,3.5s-16.9,2.7-17.5,4.9l-7.9.5s-2.8.4-3.1,6.2-1.7,6.4-1.7,6.4-3.3,5.7-3,8.7a4.7,4.7,0,0,1-2.5,4.4l11.6,30.2s.4,12.4-1.8,16.9-6.1,24.6-6.1,24.6,1.7-.3,1.6.8-2,13.2-2,13.2-.5,4.8-1.5,6.5-1,10.3-1,10.3l-1.4,6.3s3.5,7.9,8.8,6.8,15.1-22.1,15.1-22.1l6.2-22.7,4.8-22.4,1.4-15.2,2.2-33.6,3.2-22.3S1033.4,508.7,1032.1,507.1Z" class="cls-16" transform="translate(0 0.1)"/><path d="M972.7,578.8l-5.3,3.7s-8.3.3-14.1-1.2l-3-1.3-.6-.3.6.2a11.7,11.7,0,0,0,7.4.3c7.6-2.6,6.8-15.1,6.5-18a4.3,4.3,0,0,0-.1-.5h0l.4.5.3.3h0l2.8,5.4v.2Z" class="cls-14" transform="translate(0 0.1)"/><path d="M991.3,542.6l-2.6.7-.3,5.3s-3-.4-3.9,3.2a13.6,13.6,0,0,1-2.3,5.2s-5.1,4.3-5.4,7.9l-3.2,2s-7.3-1.7-9-4.7c0,0,3.4,23.9-14.4,18,0,0,19.9,8.7,20.8,9.9s7,4.8,12.6,1.8,6.8-7.5,6.8-7.5,5.4-7.5,5.5-8.6,4.4-2.4,4.4-2.4l8-19.3Z" class="cls-16" transform="translate(0 0.1)"/><path d="M1056.3,516.4l2.7-12.2s1.2,4,2.4,4.9l4,3s4,1.8,5.4,1.8,8.9,2,9.8,3,4.6.3,4.6.3l5.8,1.7c2.6.7,4,5.1,3.4,6.8a5.1,5.1,0,0,0,1.3,5c1.1,1.1,1.6,4.8,1.6,4.8a5.5,5.5,0,0,1,3.2,2.6c.9,2,.6,6.5.6,6.5l-13.8,19.5s.2,7.5-.3,9.1,1.9,30,1.9,30l2.9,48.7a51.9,51.9,0,0,1-4.6,3.6c-.9.4-1.7-17.2-1.7-17.8s-21.4-32-21.4-32-2.9-4.7-2.9-5.7-2.6-10.4-2.6-10.4l-4.1-18Z" class="cls-14" transform="translate(0 0.1)"/><path d="M1102.3,543.6v1L1088.5,564h0s.2,7.5-.4,9.2.4,10.9,1,19.1c.5,5.9.9,10.9.9,10.9l1.2,20.7,1.7,28a41.7,41.7,0,0,1-4.7,3.6c-.8.3-1.6-17.3-1.6-17.9s-21.4-32-21.4-32-2.9-4.6-2.9-5.7-2.7-10.3-2.7-10.3l-4-18,1.8-55.2,1.6-12.2s2.3,4,3.5,4.9l4,3.1s4,1.8,5.4,1.8,8.9,2,9.8,3,4.6.3,4.6.3l5.8,1.7c2.6.6,4,5,3.4,6.8a5.1,5.1,0,0,0,1.3,5c1.1,1.1,1.7,4.7,1.7,4.7a5.8,5.8,0,0,1,3.1,2.7A16.4,16.4,0,0,1,1102.3,543.6Z" class="cls-16" transform="translate(0 0.1)"/><path d="M989.1,790.2c.5,0,19.9.8,19.5,3.9S989.1,790.2,989.1,790.2Z" class="cls-14" transform="translate(0 0.1)"/><path d="M993.5,795.5s13,2.1,9.6,4S993.5,795.5,993.5,795.5Z" class="cls-14" transform="translate(0 0.1)"/><path d="M1042,788.2s21.6,1.8,18.4,4.2-10.9,2.8-11.3,2.9S1042,788.2,1042,788.2Z" class="cls-14" transform="translate(0 0.1)"/><path d="M1039.4,797.7s12,2,12.4,4.4S1039.4,797.7,1039.4,797.7Z" class="cls-14" transform="translate(0 0.1)"/><path d="M1046,742s11,2.6,11.7,4.3Z" class="cls-14" transform="translate(0 0.1)"/><path d="M1003.6,750s-5.8,1.6-.2,5S1003.6,750,1003.6,750Z" class="cls-14" transform="translate(0 0.1)"/><path d="M1029,661c.7,0,10.7-3.3,14.3-1.9a20.8,20.8,0,0,0,7.8,1.5Z" class="cls-14" transform="translate(0 0.1)"/><path d="M1030.3,671.5v1l-8.6,22.6s-1.4,6.8-2.6,10.7a54.5,54.5,0,0,0-1.8,8l7.6-47.4Z" class="cls-14" transform="translate(0 0.1)"/><path d="M1043.7,631.7H1040l-2.1-9.3,3.2-.2Z" class="cls-20" transform="translate(0 0.1)"/><path d="M1087.4,620.4l-2.3,1.9-7.7,6.3s-20.8,11.1-26.6.6,18.6-16,24.3-17.4l1.2-.3Z" class="cls-18" transform="translate(0 0.1)"/><path d="M998.5,529.4s4,1.8,5,4.4S998.5,529.4,998.5,529.4Z" class="cls-14" transform="translate(0 0.1)"/><path d="M985.9,557.1s-6,7.2-3.6,10S985.9,557.1,985.9,557.1Z" class="cls-14" transform="translate(0 0.1)"/><path d="M1091.8,533.5s-5.6.5-5.8,5.3Z" class="cls-14" transform="translate(0 0.1)"/><path d="M1040.3,609.3c.6-.5,13.3-19.4,16.3-17.7Z" class="cls-14" transform="translate(0 0.1)"/><path d="M1064.2,486.6a22.3,22.3,0,0,1-2.6,10.4h-.2c-1.4-.3-2.1-1.9-3.2-2.9a4.2,4.2,0,0,0-5-.7,4.9,4.9,0,0,0-2.4,4.7c-.7-3-.5-6.1-1.2-9.1s-2.8-6-5.6-6c-1.2,0-2.7.5-3.5-.5s-.7-1.4-1-2c-2-3.3-8.2-1.7-10.8,0s-5.4,4.4-8.5,5.8a22,22,0,0,1,44,.3Z" class="cls-14" transform="translate(0 0.1)"/><path d="M1039.4,479.8c.4.7.5,1.6,1,2.1s2.3.5,3.6.5c2.8.1,4.9,3.1,5.5,6s.5,6.1,1.2,9.1a5.2,5.2,0,0,1,2.5-4.8,4.6,4.6,0,0,1,5,.7c1,1,1.8,2.7,3.2,3s2.7-1.1,3.2-2.5a38.5,38.5,0,0,0,.8-4.7c.6-2.8,2.5-5.2,3.6-8a14.6,14.6,0,0,0-.1-10.3c-.7-1.7-1.7-3.3-2.4-5s-1.4-5.6-2.7-8.1a9.7,9.7,0,0,0-11.5-4.8c-2,.8-3.8,2.3-5.8,2.9s-5.7.2-8.5-.2-6-.4-8.3,1.5-3.3,6.2-5.8,8.5c-1,1-2.3,1.6-3.4,2.5a4.7,4.7,0,0,0-1.9,3.8c.2,1.9,2,3.7,1.4,5.4a7.1,7.1,0,0,1-1,1.4,19,19,0,0,0-4.5,7.6c5,1.6,10.3-3.9,14.2-6.5S1037.4,476.6,1039.4,479.8Z" class="cls-22" transform="translate(0 0.1)"/><path d="M1087.4,620.4l-2.3,1.9c-2-3.4-10.4-10.2-10.4-10.2l.4-.3,1.2-.3Z" class="cls-14" transform="translate(0 0.1)"/><path d="M1089.6,616.9s-.8,2.1-1.6,3.9-1.8,3.4-1.9,2.1-10.8-11.3-10.8-11.3l1.4-1.5,1.7-1.6Z" class="cls-19" transform="translate(0 0.1)"/><path d="M1090,603.2l1.2,20.7c-2.9-4.5-10.7-15.9-15.8-15.6l12.3-14.1,1.4-1.8C1089.6,598.2,1090,603.2,1090,603.2Z" class="cls-14" transform="translate(0 0.1)"/><path d="M1089.6,616.9s-.8,2.1-1.6,3.9c-3.3-4.4-7.7-9.7-11.3-10.7l1.7-1.6Z" class="cls-14" transform="translate(0 0.1)"/><path d="M1098.9,542l3.3,2.6s5.6.1,6.1,4.8,5.7,6.7,5.7,6.7,3.8,3.8,3.8,5.6,2.8,4.9,2.8,5.2,2.8,5.9,2.4,6.9,3,5.5,2,7.1a40.2,40.2,0,0,0-2.2,4.7s-4.4,8.3-6.6,9.9-12.4,14.8-12.4,14.8-10.9,12.6-10.9,16.4c0,0-10.7-17.7-17-17.3l12.3-14.1s2.2-2.3,2.3-3.7,5.9-7.8,8.7-8.1c0,0,.4-3.8-.8-3.9s-2.2-3-2.2-3-8.1-9.6-8.2-15.7S1098.9,542,1098.9,542Z" class="cls-16" transform="translate(0 0.1)"/><path d="M1103.8,550.8s-7.8,5.8-6.1,7.6S1103.8,550.8,1103.8,550.8Z" class="cls-14" transform="translate(0 0.1)"/><path d="M1104.2,574.5s14.4-4.6,15.9,0Z" class="cls-14" transform="translate(0 0.1)"/><path d="M1014.8,820.5s-7.8,5.1-11.7,4.3a14.4,14.4,0,0,0-7.9,1.3,23.9,23.9,0,0,1-9.8,6.4c-6.3,2.1-15.1,1.3-20.1-.4-2.3-.8-2.5-1.8-1.4-3,5.4,1.1,17.6,3.2,20.8,1.6a78.3,78.3,0,0,0,10.4-6.4s8-1.1,9.1-1.1,6.9-2.6,10.4-4Z" class="cls-14" transform="translate(0 0.1)"/><path d="M1061.8,830.9v.5s-1.9,4.1-12.2,5.6-10.2-3.4-10.2-3.4v-1.4C1042.7,833.5,1049.8,834.8,1061.8,830.9Z" class="cls-14" transform="translate(0 0.1)"/><path d="M1002.3,549.7s0,21.1-1.8,23.2S1002.3,549.7,1002.3,549.7Z" class="cls-14" transform="translate(0 0.1)"/><path d="M1085.7,556.5l2.7,7.6S1089.5,556.7,1085.7,556.5Z" class="cls-14" transform="translate(0 0.1)"/><g class="cls-23"><path d="M1020.3,475.6c.7-1.7-1.1-3.4-1.3-5.3a2.5,2.5,0,0,0-.3,1.7c.1,1.4,1.1,2.7,1.4,4S1020.2,475.7,1020.3,475.6Z" transform="translate(0 0.1)"/><path d="M1051,495.6c-.7-3-.5-6-1.1-9s-2.8-6-5.6-6c-1.3,0-2.7.5-3.6-.4s-.6-1.5-1-2.1c-2-3.3-8.2-1.7-10.7,0s-9,7.8-13.8,6.6a12.2,12.2,0,0,0-.7,1.7c5,1.6,10.4-3.9,14.2-6.5s8.7-3.3,10.8,0c.4.6.5,1.5,1,2.1s2.3.4,3.5.4c2.8.1,4.9,3.1,5.6,6s.5,6.1,1.2,9.1A4,4,0,0,1,1051,495.6Z" transform="translate(0 0.1)"/><path d="M1064.9,492.1c-.5,1.4-1.8,2.8-3.2,2.5s-2.1-1.9-3.2-2.9a4.2,4.2,0,0,0-5-.7,5,5,0,0,0-2.5,4.5,4.9,4.9,0,0,1,2.2-2.7,4.2,4.2,0,0,1,5,.7c1.1,1,1.8,2.6,3.2,2.9s2.7-1,3.2-2.5a13.1,13.1,0,0,0,.6-2.7Z" transform="translate(0 0.1)"/><path d="M1069.3,479.5c-1,2.7-2.9,5.1-3.6,8a8.8,8.8,0,0,0-.2,1.7c.6-2.8,2.5-5.2,3.5-8a12.4,12.4,0,0,0,.9-3.8Z" transform="translate(0 0.1)"/></g><circle cx="935.5" cy="546.3" r=".2" class="cls-24"/><rect width="181.2" height="208.22" x="849.1" y="551.5" class="cls-8" rx="6.6" ry="6.6"/><rect width="181.2" height="208.22" x="849.1" y="551.5" class="cls-25" rx="6.6" ry="6.6"/><rect width="162.7" height="186.98" x="858.4" y="562.1" class="cls-8" rx="6.6" ry="6.6"/><rect width="111.6" height="38.52" x="882" y="599.6" class="cls-2" rx="6" ry="6"/><rect width="103.4" height="7.86" x="886.1" y="652.2" class="cls-2"/><rect width="142.3" height="7.86" x="868.5" y="668.8" class="cls-2"/><rect width="142.3" height="7.86" x="868.5" y="686.3" class="cls-2"/><rect width="142.3" height="7.86" x="868.5" y="703.7" class="cls-2"/><rect width="426.6" height="208.22" y="482.7" class="cls-8" rx="6.6" ry="6.6"/><rect width="426.6" height="208.22" y="482.7" class="cls-25" rx="6.6" ry="6.6"/><rect width="383.1" height="186.98" x="21.8" y="493.3" class="cls-8" rx="6.6" ry="6.6"/><rect width="262.8" height="38.52" x="77.5" y="530.8" class="cls-2" rx="6" ry="6"/><rect width="243.5" height="7.86" x="87.2" y="583.4" class="cls-2"/><rect width="335.1" height="7.86" x="45.8" y="600" class="cls-2"/><rect width="335.1" height="7.86" x="45.8" y="617.4" class="cls-2"/><rect width="335.1" height="7.86" x="45.8" y="634.9" class="cls-2"/><path d="M178.6,850.8l11.2-3.5c3.1-2.4,2.2-5.2.8-7.3a5.6,5.6,0,0,0-4.3-2.3,9.5,9.5,0,0,1-2.1-.9,6.1,6.1,0,0,1-1.6-1.6,7.3,7.3,0,0,1-1.1-4.3s-12-4-15.4-.6a8,8,0,0,0-1.5,2.1,18.6,18.6,0,0,0-1.9,7.7s-.7,3.8-1.9,8.1S178.6,850.8,178.6,850.8Z" class="cls-26" transform="translate(0 0.1)"/><path d="M125,843.3l11.2-3.5c3.1-2.3,2.2-5.2.8-7.3a5.6,5.6,0,0,0-4.3-2.3,4.2,4.2,0,0,1-1.2-.4l-.9-.5c-3-1.8-2.7-6-2.7-6s-12-4-15.4-.6a6.1,6.1,0,0,0-1.2,1.6,17.1,17.1,0,0,0-2.2,8.2s-.8,3.9-1.9,8.2S125,843.3,125,843.3Z" class="cls-26" transform="translate(0 0.1)"/><path d="M166.1,830.3a8,8,0,0,0-1.5,2.1h0l18,2.8a7.5,7.5,0,0,1-1.1-4.3S169.6,826.9,166.1,830.3Z" class="cls-14" transform="translate(0 0.1)"/><path d="M111.3,824.3l-.2,3.4c2.7,4.7,16.3,4.3,20.4,2.1l-.9-.5c-3-1.8-2.7-6-2.7-6s-12-4-15.4-.6A6.1,6.1,0,0,0,111.3,824.3Z" class="cls-14" transform="translate(0 0.1)"/><path d="M111.7,814.3l-.5,12.2c2.9,5.2,18.9,4.1,21.2,1.4s8.5-52.5,8.5-52.5.1-6.1,1.4-8.1,4.3-13.2,4.3-13.2.2-3.8,2.4-5.8,3.9-9.7,3.9-9.7a10.1,10.1,0,0,0,1.8-6.5c-.3-3.9,2.9-7.9,2.9-7.9l5.9-16.4,5.4-12.3,2.5,7.3s.1,17-.7,20.5-2,12.9-2,12.9,2.9,6.2,1.3,11.4-1.6,16.4-1.6,16.4l-4,53.8.2,13.3,18.5,2.9c1.8-2.4,5.4-23.3,5.4-23.3s3-32,2.4-35.4,2.9-11.4,2.9-11.4l1.4-9.7a26.3,26.3,0,0,0,4.1-18.1l.6-14.9s5.4-28.7,6.7-43.4c.7-9.3,1.1-22.1,1.3-30.1.1-4.4.1-7.4.1-7.4l-66.2-9.5a54,54,0,0,1-1.5,9.8,146.3,146.3,0,0,1-4,14.2c-5.5,16.7-3,29.4-3,29.4l-.3,21.4s-6.3,14.1-5.3,19.1a45,45,0,0,1,.9,9s-9.6,28.2-10.8,36.7S111.1,812.7,111.7,814.3Z" class="cls-27" transform="translate(0 0.1)"/><path d="M150.7,731l-20.1-3.5S141.6,739.6,150.7,731Z" class="cls-28" transform="translate(0 0.1)"/><path d="M134.3,707.9s-1,7.1,3.3,10C137.6,717.8,129.8,716.3,134.3,707.9Z" class="cls-14" transform="translate(0 0.1)"/><path d="M136.4,685.1s16.4,14.6,22.6,13.7S136.4,685.1,136.4,685.1Z" class="cls-14" transform="translate(0 0.1)"/><path d="M175.6,738.5s12.7,3.4,12.9,8.5S175.6,738.5,175.6,738.5Z" class="cls-14" transform="translate(0 0.1)"/><path d="M170.3,802.5s18,4,12.7,6.2-13.7,3.6-13.7,3.6S163.4,812.4,170.3,802.5Z" class="cls-28" transform="translate(0 0.1)"/><g class="cls-29"><path d="M186.6,812.5a3.6,3.6,0,0,0,1.7-2.6l.2.3s1.5,4.2-1.5,6l-1,.6-1.6-.4C181.9,815.7,183.6,814.2,186.6,812.5Z" transform="translate(0 0.1)"/><path d="M169,733.9a22.7,22.7,0,0,1,1,5.8,18.7,18.7,0,0,0-1.3-4Z" transform="translate(0 0.1)"/><path d="M127.7,724.3a10.3,10.3,0,0,1-.1-1.7c.2,1.1.3,2.2.4,3.1Z" transform="translate(0 0.1)"/><path d="M167.3,788.6a9.6,9.6,0,0,1-.3-3.4,12.9,12.9,0,0,1,.7,4.3A3.6,3.6,0,0,0,167.3,788.6Z" transform="translate(0 0.1)"/><path d="M188,790.8s-.5,10.6-2.1,11.2h0c-.7-1.8-1.2-3.5-.5-3.8s2.2-11.1,2.2-11.1,3.5-12.5,2.9-15.9,2.9-11.4,2.9-11.4l1.4-9.7a26.6,26.6,0,0,0,4.1-18.2l.6-14.9s5.4-28.7,6.6-43.3c.7-9.4,1.1-22.1,1.3-30.1,0-1.4.1-2.7.1-3.8h.5s0,3-.1,7.4c-.2,8-.6,20.8-1.3,30.1-1.2,14.6-6.6,43.3-6.6,43.3l-.6,14.9a27.1,27.1,0,0,1-4.1,18.2l-1.5,9.7s-3.5,8-2.9,11.4S188,790.8,188,790.8Z" transform="translate(0 0.1)"/><path d="M131.9,823.8a17.9,17.9,0,0,0,3.2-7.2c1.9,1.8-.6,8.3-2.7,10.9s-18.3,3.7-21.2-1.4v-3C115.3,827.4,129.8,826.3,131.9,823.8Z" transform="translate(0 0.1)"/><path d="M140.9,775a90.6,90.6,0,0,0-.7,9.1,5.9,5.9,0,0,0-.2-1.4c-.7-2.7.4-11.4.4-11.4s.1-6.2,1.4-8.1,4.4-13.3,4.4-13.3.1-3.8,2.3-5.7,4-9.7,4-9.7a10.4,10.4,0,0,0,1.7-6.6c-.3-3.8,3-7.9,3-7.9l5.8-16.4,5.4-12.3,2.5,7.4V701l-2-6-5.4,12.3-5.8,16.4s-3.3,4-3,7.9a9.5,9.5,0,0,1-1.8,6.5s-1.6,7.8-3.9,9.7-2.3,5.8-2.3,5.8-3.1,11.3-4.4,13.2S140.9,775,140.9,775Z" transform="translate(0 0.1)"/></g><path d="M138.8,491.6l1,5.6-.2,2.5v1.9l6.4.9.8-1.3h0c1.4-2.4,4.3-7.2,5.3-7.9s3.9-16.5,1.3-15.6a6.3,6.3,0,0,0-3.7,3.1S137,481.7,138.8,491.6Z" class="cls-30" transform="translate(0 0.1)"/><path d="M139.5,501.6l6.4.9.8-1.3h0a5.7,5.7,0,0,0-7-1.5Z" class="cls-14" transform="translate(0 0.1)"/><path d="M137.8,504.5l8.4,2.3.2-1.2.6-3.4a5.9,5.9,0,0,0-8.1-1.5h-.1l-.4,1.7Z" class="cls-31" transform="translate(0 0.1)"/><path d="M275.3,497.5l8.8,5.2.9-1.7c1-1.8,2.3-4.4,2.7-5.4s4.5-3.2,4.5-3.2c9.8-8.7-1.2-16.9-1.2-16.9-5.5-12.2-12.8,3.6-12.8,3.6s-1.2,8.4-.6,9,.6,2.9.6,2.9a23.8,23.8,0,0,0-2.4,5.1Z" class="cls-30" transform="translate(0 0.1)"/><path d="M275.3,497.5l8.8,5.2.9-1.7c-1.2-1.1-5.6-5-7.1-4.9h-2.1Z" class="cls-14" transform="translate(0 0.1)"/><path d="M274.3,500.1l10,5.4.3-2.2.2-1.5s-5.7-5.2-7.5-5.1a7.7,7.7,0,0,1-2.6-.1l-.2,1.8Z" class="cls-31" transform="translate(0 0.1)"/><path d="M162,529.8s44.1,6.7,35.9,3.7c-5.7-2.1-7.8-5.8-8.1-9.9a22.4,22.4,0,0,1,2-10.2,36.6,36.6,0,0,1,4.2-7.8s-33.1-20-27-2.8a24.8,24.8,0,0,1,1.6,8.1,24.4,24.4,0,0,1-1.1,8.1A24.9,24.9,0,0,1,162,529.8Z" class="cls-30" transform="translate(0 0.1)"/><path d="M169.1,502.8a27.7,27.7,0,0,1,1.6,8.1c3.1,2.8,6.6,2.8,11,2.9s7.3,1.2,10-.4a46.4,46.4,0,0,1,4.3-7.9S163,485.6,169.1,502.8Z" class="cls-14" transform="translate(0 0.1)"/><circle cx="183" cy="496.8" r="18.3" class="cls-30"/><path d="M162,529.8s44.1,6.7,35.9,3.7c-5.7-2.1-7.8-5.8-8.1-9.9-2.1-2.5-6.5-4.4-9.3-5.4a13.7,13.7,0,0,0-8-.5,10.1,10.1,0,0,0-3,1.3A24.1,24.1,0,0,1,162,529.8Z" class="cls-14" transform="translate(0 0.1)"/><path d="M137.8,504.5l8.4,2.3.2-1.2a7.5,7.5,0,0,0-8-3.1Z" class="cls-14" transform="translate(0 0.1)"/><path d="M274.3,500.1l10,5.4.3-2.2a84.4,84.4,0,0,0-10.1-4.8Z" class="cls-14" transform="translate(0 0.1)"/><path d="M140.2,640.6c17,3.4,41.3,7.9,45.2,6.8s13.5-.3,22.4.3c.1-4.4.2-7.4.2-7.4l-66.2-9.5A54.1,54.1,0,0,1,140.2,640.6Z" class="cls-14" transform="translate(0 0.1)"/><path d="M123.3,636s56,11.8,62.2,10.2,37.1,1.6,37.1,1.6c13.7,9.9,8.4-4.1,8.4-4.1s1.5-7.2,0-13.1a85.7,85.7,0,0,1-1.9-13.2s.7-9.2-.9-11.4-3-17.7-3-17.7-1.1-10.5-.9-12.8a76.2,76.2,0,0,0-.1-8.8l-1.6-10.8c11.6-1.1,47.5-21.3,47.5-21.3,2-7.2,15.7-23.6,15.7-23.6a14.8,14.8,0,0,1,1.2-4.1c1-2.4-12.6-7.9-12.6-7.9s-10.8,12.2-13.1,15.5-9.9,9.4-9.9,9.4a6.6,6.6,0,0,0-3.4.3h-.2a24.8,24.8,0,0,0-7,3.7,13.3,13.3,0,0,0-9.5,3.1s-6.2-1.1-7.4-.1-6.4-.3-6.4-.3-5-11.5-8.6-8.4-18.7,2.5-18.7,2.5c-1.9-2.8-6.7-4.9-9.7-6a13.6,13.6,0,0,0-8-.4,13,13,0,0,0-3.2,1.4l-9.5,8.6s-2.4-3.5-2.1-4.3-3-1.5-3-1.5l-6.1-2c-1.7-.6-3.3,1.2-3.4,1.4a19.7,19.7,0,0,0,1-6.8c-.4-2.9,2-5.4,2-5.4-4.8-13.5-17.4-2.9-17.4-2.9s-1.7,7.2-.6,10-1.5,8.6-1.3,10.1-.7,4.2-.9,7.1,1.3,8.5,2,11,8,8.3,8,8.3.2,8.8,3.2,14,.4,22.5.4,22.5-3.6,13.4-7.6,17.6S123.3,636,123.3,636Z" class="cls-32" transform="translate(0 0.1)"/><path d="M209.5,537.9s1.8-5,3.4-5.4a35.2,35.2,0,0,0,4.5-1.8l-.9-1.9s-5.8,1.3-6.8,3S209.5,537.9,209.5,537.9Z" class="cls-14" transform="translate(0 0.1)"/><path d="M240.8,527.9c.2,1.6,13.9,3.5,13.9,3.5l-6.7-7.2h-.2A26.1,26.1,0,0,0,240.8,527.9Z" class="cls-14" transform="translate(0 0.1)"/><circle cx="281.2" cy="508.4" r="1.2" class="cls-27"/><circle cx="279.5" cy="510.8" r="1.2" class="cls-27"/><path d="M277.9,511.7a1.2,1.2,0,0,1,1.2,1.2,1.2,1.2,0,1,1-2.4,0A1.2,1.2,0,0,1,277.9,511.7Z" class="cls-27" transform="translate(0 0.1)"/><circle cx="276.2" cy="515.4" r="1.2" class="cls-27"/><circle cx="131.3" cy="509.7" r="1" class="cls-27"/><circle cx="131" cy="512" r="1" class="cls-27"/><circle cx="130.8" cy="514.2" r="1" class="cls-27"/><path d="M207.8,579.6c.1-.2-36.2,42.3-62.2,16C145.6,595.6,187.9,603,207.8,579.6Z" class="cls-14" transform="translate(0 0.1)"/><path d="M226.8,603.1s-20.8-.2-23.2,5.7l-.2,6.2a4.1,4.1,0,0,0,3.9.2c2.1-1.1,14.9-7,19.2-3.7Z" class="cls-14" transform="translate(0 0.1)"/><path d="M226.4,603.1s-19.8-.2-22.1,5.4l-.3,5.9a3.8,3.8,0,0,0,3.7.2c2-1,14.3-6.6,18.4-3.6Z" class="cls-32" transform="translate(0 0.1)"/><path d="M217.2,557.7a68.5,68.5,0,0,1-8.6,13.5,53.3,53.3,0,0,1-13,11.6S216.8,560.5,217.2,557.7Z" class="cls-14" transform="translate(0 0.1)"/><path d="M224.9,533.8s-4,14.8-13.1,19.6Z" class="cls-14" transform="translate(0 0.1)"/><path d="M230.2,535.5c.1-.2,2.6,12-12.2,18.1C218,553.6,224.2,551.7,230.2,535.5Z" class="cls-14" transform="translate(0 0.1)"/><path d="M140,522c.2,0-7.4,4.5-9.5,6.6C130.6,528.6,135.6,521.6,140,522Z" class="cls-14" transform="translate(0 0.1)"/><path d="M187.3,513.5a3.8,3.8,0,0,1-1.5,2.4,2.9,2.9,0,0,1-1.8.3c-5.5.2-11.4.2-16.4-2.2a5.3,5.3,0,0,1-2.5-1.7c-.9-1.2-1-2.7-1.3-4.1s-2.1-5.3-3.1-7.9a25.7,25.7,0,0,1-1.2-14,9.2,9.2,0,0,1,1.5-4c1.6-2.1,4.3-2.8,6.3-4.4s3.4-4.2,5.7-5.3,4.7-.9,7-.4a39.4,39.4,0,0,1,12.7,5.3c1.2.9,2.7,1.9,4.2,1.7a6.4,6.4,0,0,0,3.3-2.3,16.7,16.7,0,0,1,1,8v1.2a5.7,5.7,0,0,0,.8,1.3c1.3,1.6,2.1,4.2.7,5.8s-1.6,1-2.2,1.7-.8,3.1-.8,4.7a2.2,2.2,0,0,1-.5,1.6,2.2,2.2,0,0,1-2.3.5,4.7,4.7,0,0,0-2.4-.3,3.9,3.9,0,0,0-2.1,1.5C189.7,506,188.6,509.6,187.3,513.5Z" class="cls-26" transform="translate(0 0.1)"/><g class="cls-23"><path d="M164.6,510.9a7,7,0,0,0,2.4,1.7c5.1,2.4,10.9,2.3,16.5,2.2a4.7,4.7,0,0,0,1.7-.3,4.3,4.3,0,0,0,1.6-2.4c1.2-3.9,2.3-7.5,5-10.7a4.8,4.8,0,0,1,2.2-1.5,9.9,9.9,0,0,1,2.4.3,2.4,2.4,0,0,0,2.3-.4,2.4,2.4,0,0,0,.4-1.6c0-1.7-.2-3.5.9-4.8s1.5-1,2.1-1.7a3.6,3.6,0,0,0,.5-3.7c.9,1.6,1.3,3.6.1,4.9s-1.5,1-2.1,1.8-.8,3.1-.9,4.7a2.2,2.2,0,0,1-.5,1.6,2.3,2.3,0,0,1-2.2.5,5,5,0,0,0-2.4-.3,3.4,3.4,0,0,0-2.2,1.5c-2.7,3.2-3.8,6.7-5.1,10.6a2.8,2.8,0,0,1-3,2.8h-.2c-5.6.1-11.4.1-16.5-2.2a6.4,6.4,0,0,1-2.5-1.8,6.9,6.9,0,0,1-.7-1.5Z" transform="translate(0 0.1)"/><path d="M201.2,485.6a2.4,2.4,0,0,1-.5-1,2.4,2.4,0,0,1,0-1.2,18.9,18.9,0,0,0-.6-6.7h.1a16.7,16.7,0,0,1,1,8Z" transform="translate(0 0.1)"/></g><path d="M190.2,524.7s-23,2.2-24.9-1.3" class="cls-14" transform="translate(0 0.1)"/><path d="M146.1,513.6s-12.7-.5-15.7,4.1" class="cls-14" transform="translate(0 0.1)"/></svg>