<svg width="354" height="348" viewBox="0 0 354 348" fill="none" xmlns="http://www.w3.org/2000/svg">
<g opacity="0.8">
<path d="M331.499 235.578C296.594 317.404 204.443 352.561 132.247 346.563C112.539 344.928 72.8768 341.631 41.9004 312.261C-17.5689 255.852 -8.41311 137.951 48.5232 68.5295C55.8502 59.5946 106.609 -0.29745 185.687 0.50805C243.587 1.09049 284.225 33.8929 289.168 37.9824C295.408 43.15 309.184 55.4184 321.59 74.8743C350.75 120.602 353.308 184.435 331.499 235.578Z" fill="url(#paint0_linear)"/>
<path d="M49.9565 1.5366C43.2596 17.7334 8.13158 113.563 91.8803 162.773C91.8803 162.773 131.197 105.657 52.5018 1.2144C51.8099 0.29737 50.389 0.483255 49.9565 1.5366Z" fill="#BDD0FB"/>
<path opacity="0.86" d="M54.8247 18.6132C54.8989 24.2022 55.0966 29.7911 55.3313 35.38C55.5785 40.969 55.8874 46.5579 56.258 52.1344C56.9994 63.2999 58.0002 74.4406 59.3347 85.5441C60.6815 96.6476 62.3495 107.714 64.6106 118.644C65.7227 124.109 67.0324 129.537 68.5522 134.903C70.072 140.256 71.8018 145.56 73.9517 150.691C74.1247 151.112 73.927 151.608 73.5069 151.781C73.0868 151.955 72.5926 151.756 72.4196 151.335C70.282 146.118 68.5645 140.739 67.0695 135.324C65.5868 129.909 64.3017 124.431 63.2268 118.929C61.0274 107.937 59.4335 96.8211 58.1732 85.6928C56.9129 74.5521 55.9986 63.3867 55.3313 52.2088C54.9977 46.6199 54.7259 41.0185 54.5282 35.4296C54.3305 29.8283 54.1699 24.2393 54.1328 18.6256C54.1328 18.4273 54.2934 18.2662 54.4788 18.2662C54.6641 18.2662 54.8247 18.4149 54.8247 18.6132Z" fill="white"/>
<path d="M5.19084 5.47737C5.46267 3.76723 7.83501 3.54416 8.40339 5.19234C13.8277 21.0297 29.3467 62.1351 50.8214 83.1772C85.7888 117.454 111.032 174.905 91.6949 206.53C91.6949 206.543 -23.8827 192.007 5.19084 5.47737Z" fill="#91B3FA"/>
<path opacity="0.43" d="M10.1703 28.2544C10.2444 28.6634 10.3556 29.1343 10.4545 29.5804L10.7757 30.9312L11.4429 33.6203C11.9001 35.4172 12.3696 37.2017 12.8515 38.9862C13.8153 42.5552 14.8285 46.1118 15.8664 49.656C17.9422 56.7568 20.1539 63.808 22.5015 70.822C27.2215 84.8254 32.3616 98.6924 38.2183 112.262C41.1714 119.028 44.1862 125.782 47.4606 132.399C50.7472 139.017 54.1698 145.56 57.8643 151.955C58.3091 152.76 58.7786 153.553 59.2605 154.346L60.6814 156.726L62.1024 159.105C62.5843 159.886 63.0909 160.666 63.5851 161.447C64.5859 162.996 65.5497 164.57 66.5752 166.107L69.6766 170.692C73.89 176.752 78.3999 182.601 83.2311 188.19C83.3052 188.276 83.2929 188.413 83.2064 188.487C83.1199 188.561 82.9963 188.549 82.9222 188.475C77.9304 183.01 73.3216 177.198 68.9846 171.2L65.8092 166.639C64.7589 165.115 63.7828 163.541 62.7572 161.992C62.2506 161.212 61.7441 160.443 61.2498 159.663L59.8042 157.296L58.3585 154.929C57.8766 154.136 57.3948 153.355 56.9376 152.537C49.4746 139.736 42.9383 126.402 37.1063 112.782C34.1779 105.979 31.4719 99.0765 28.8772 92.1492C26.2824 85.2095 23.8236 78.2202 21.5625 71.169C19.289 64.1178 17.1267 57.0418 15.1374 49.9038C14.1489 46.3348 13.1975 42.7534 12.2831 39.1721C11.8383 37.3752 11.3935 35.5783 10.961 33.7814L10.3432 31.0675L10.0467 29.7043C9.96022 29.2458 9.86137 28.8121 9.78723 28.304C9.77488 28.1925 9.84901 28.0809 9.96021 28.0685C10.0714 28.0562 10.1703 28.1305 10.195 28.242L10.1703 28.2544Z" fill="white"/>
<path d="M329.547 288.456C329.547 291.566 327.014 294.107 323.913 294.107H19.0914C15.99 294.107 13.457 291.566 13.457 288.456L10.9241 112.77C10.9241 109.66 14.5691 103.6 21.266 104.058L319.156 96.3254C323.048 96.2263 326.804 97.7258 329.56 100.477C332.315 103.228 333.822 106.995 333.724 110.899L329.547 288.456Z" fill="url(#paint1_linear)"/>
<path d="M323.975 283.028C323.975 285.965 321.578 288.381 318.637 288.381H26.4432C23.5148 288.381 21.1054 285.977 21.1054 283.028L18.7207 123.551C19.0049 113.96 27.3946 110.502 32.4729 110.713L317.982 103.03C320.713 102.955 323.357 104.009 325.297 105.954C327.237 107.887 328.299 110.539 328.225 113.278L323.975 283.028Z" fill="#91B3FA"/>
<path d="M24.2685 206.902C24.0461 206.902 23.8608 206.716 23.8484 206.493L23.6631 193.555C23.6631 193.32 23.8484 193.134 24.0708 193.134C24.318 193.134 24.4909 193.32 24.4909 193.543L24.6763 206.481C24.6886 206.704 24.5033 206.902 24.2685 206.902C24.2809 206.902 24.2685 206.902 24.2685 206.902Z" fill="url(#paint2_linear)"/>
<path d="M23.8113 175.202C23.5889 175.202 23.4036 175.017 23.3912 174.793L22.6622 125.261C22.6746 121.953 23.6878 119.313 25.6771 117.405C29.2974 113.935 34.9564 114.108 35.1912 114.121L126.366 111.667C126.601 111.655 126.786 111.841 126.786 112.076C126.786 112.311 126.613 112.497 126.378 112.497L35.1788 114.951C34.9193 114.939 29.6063 114.778 26.2455 118.012C24.4291 119.759 23.5024 122.201 23.4901 125.261L24.2191 174.793C24.2314 175.017 24.0461 175.202 23.8113 175.202Z" fill="url(#paint3_linear)"/>
<path d="M344.251 305.768H1.69415C1.18756 305.768 0.767456 305.347 0.767456 304.839V288.555C0.767456 288.047 1.18756 287.626 1.69415 287.626H344.251C344.758 287.626 345.178 288.047 345.178 288.555V304.839C345.178 305.359 344.758 305.768 344.251 305.768Z" fill="url(#paint4_linear)"/>
<path d="M168.425 8.20365L49.5735 106.747C51.8841 107.863 54.4912 108.433 57.2589 108.296L282.434 96.5237C286.301 96.3254 289.798 94.7392 292.43 92.2608L204.048 9.21982C194.447 0.198212 178.619 -0.247911 168.425 8.20365Z" fill="url(#paint5_linear)"/>
<path d="M277.899 275.01H61.1387C52.3907 275.01 45.2983 267.897 45.2983 259.123V117.553C45.2983 109.114 51.8717 102.15 60.2614 101.691L285.387 89.1007C294.815 88.5678 302.599 96.375 302.092 105.83L293.727 259.978C293.258 268.405 286.314 275.01 277.899 275.01Z" fill="url(#paint6_linear)"/>
<path d="M174.579 189.59L293.072 90.6249C290.762 89.522 286.87 86.3248 284.114 86.4859L63.1157 99.0888C59.2483 99.2995 52.8973 103.5 50.2778 105.991L138.957 188.71C148.582 197.682 164.41 198.079 174.579 189.59Z" fill="url(#paint7_linear)"/>
<path d="M260.119 215.577H81.6497V44.9717C81.6497 38.4409 87.7041 33.0503 95.4513 32.6661L244.637 25.429C253.039 25.02 260.119 30.6461 260.119 37.7346V215.577Z" fill="#7D97F4"/>
<path d="M254.09 208.228H87.8276V49.2966C87.8276 43.212 93.462 38.1931 100.678 37.8337L239.67 31.1047C247.504 30.7205 254.09 35.9625 254.09 42.5676V208.228Z" fill="#BDD0FB"/>
<path d="M102.568 153.206C102.568 153.206 118.532 204.275 123.895 215.019C130.122 227.486 150.793 220.992 150.373 210.83C149.953 200.669 128.763 157.556 128.763 157.556L102.568 153.206Z" fill="url(#paint8_linear)"/>
<path d="M130.221 118.309L250 84.3916L242.302 194.782L124.5 161.063L130.221 118.309Z" fill="url(#paint9_linear)"/>
<path d="M258.4 140.626C260.232 109.272 256.554 83.5514 250.184 83.177C243.814 82.8027 237.166 107.917 235.334 139.271C233.502 170.625 237.18 196.346 243.55 196.72C249.919 197.095 256.568 171.981 258.4 140.626Z" fill="#91B3FA"/>
<path d="M244.649 192.899C243.673 191.771 241.635 187.533 240.312 176.813C239.027 166.454 238.768 153.095 239.583 139.203C240.399 125.311 242.203 112.076 244.686 101.939C247.256 91.4428 249.765 87.4773 250.864 86.4735C251.841 87.6012 253.879 91.8394 255.201 102.559C256.486 112.919 256.746 126.278 255.93 140.169C255.115 154.061 253.311 167.296 250.827 177.433C248.257 187.917 245.749 191.895 244.649 192.899Z" fill="url(#paint10_linear)"/>
<path d="M262.566 140.132C261.997 149.773 256.363 157.296 246.107 156.688C235.852 156.081 227.994 147.778 228.562 138.137C229.13 128.496 237.891 121.16 248.146 121.767C258.402 122.362 263.122 130.479 262.566 140.132Z" fill="url(#paint11_linear)"/>
<path d="M111.427 114.827C116.988 114.505 124.92 114.74 133.372 117.206C129.689 131.817 129.208 147.245 131.543 163.393L107.399 161.968C103.544 161.744 100.431 158.746 100.048 154.892C99.2938 147.171 98.5648 134.234 100.739 124.01C101.827 118.892 106.201 115.125 111.427 114.827Z" fill="url(#paint12_linear)"/>
<path d="M125.254 126.996L106.436 125.893C105.793 125.856 105.249 125.484 104.978 124.902C104.706 124.32 104.767 123.663 105.15 123.155C105.311 122.944 105.608 122.894 105.83 123.056C106.04 123.217 106.09 123.514 105.929 123.737C105.768 123.96 105.731 124.245 105.855 124.505C105.978 124.753 106.213 124.914 106.485 124.939L125.303 126.042C125.711 126.067 126.069 125.745 126.094 125.336L126.168 123.997C126.193 123.588 125.871 123.229 125.464 123.204L106.51 122.089C106.238 122.077 106.04 121.841 106.052 121.581C106.065 121.308 106.3 121.11 106.559 121.122L125.513 122.238C126.465 122.287 127.181 123.105 127.132 124.059L127.058 125.398C127.021 126.327 126.205 127.046 125.254 126.996Z" fill="#BDD0FB"/>
<path d="M123.091 135.25L104.273 134.147C103.631 134.11 103.087 133.738 102.815 133.155C102.543 132.573 102.605 131.916 102.988 131.408C103.149 131.197 103.445 131.148 103.668 131.309C103.878 131.47 103.927 131.768 103.767 131.991C103.606 132.214 103.569 132.499 103.693 132.759C103.816 133.007 104.051 133.168 104.323 133.193L123.141 134.296C123.549 134.32 123.907 133.998 123.932 133.589L124.006 132.251C124.03 131.842 123.709 131.482 123.301 131.458L104.347 130.342C104.076 130.33 103.878 130.095 103.89 129.834C103.903 129.562 104.137 129.363 104.397 129.376L123.351 130.491C124.302 130.541 125.019 131.359 124.97 132.313L124.895 133.651C124.846 134.581 124.03 135.312 123.091 135.25Z" fill="#BDD0FB"/>
<path d="M147.445 116.327C147.235 116.314 147.062 116.166 147 115.967C146.938 115.707 147.087 115.447 147.346 115.372L237.915 92.2236C238.175 92.1616 238.434 92.3103 238.508 92.5706C238.57 92.8308 238.422 93.0911 238.162 93.1654L147.593 116.314C147.544 116.327 147.494 116.327 147.445 116.327Z" fill="#BDD0FB"/>
<path d="M135.139 120.552C134.953 120.54 134.768 120.416 134.706 120.23C134.62 119.982 134.755 119.697 135.003 119.611L139.686 118C139.933 117.913 140.217 118.049 140.303 118.297C140.39 118.545 140.254 118.83 140.007 118.917L135.324 120.528C135.262 120.54 135.2 120.552 135.139 120.552Z" fill="#BDD0FB"/>
<path d="M124.191 145.139L105.373 144.036C104.73 143.999 104.187 143.627 103.915 143.044C103.643 142.462 103.705 141.805 104.088 141.297C104.249 141.086 104.545 141.037 104.768 141.198C104.978 141.359 105.027 141.657 104.866 141.88C104.706 142.103 104.669 142.388 104.792 142.648C104.916 142.896 105.151 143.057 105.422 143.082L124.241 144.185C124.648 144.209 125.007 143.887 125.031 143.478L125.105 142.14C125.13 141.731 124.809 141.372 124.401 141.347L105.447 140.231C105.175 140.219 104.978 139.984 104.99 139.723C105.002 139.451 105.237 139.252 105.497 139.265L124.451 140.38C125.402 140.43 126.119 141.248 126.069 142.202L125.995 143.54C125.958 144.47 125.142 145.201 124.191 145.139Z" fill="#BDD0FB"/>
<path d="M125.315 156.106L106.497 155.003C105.855 154.966 105.311 154.594 105.039 154.012C104.767 153.429 104.829 152.772 105.212 152.264C105.373 152.054 105.669 152.004 105.892 152.165C106.102 152.326 106.151 152.624 105.991 152.847C105.83 153.07 105.793 153.355 105.917 153.615C106.04 153.863 106.275 154.024 106.547 154.049L125.365 155.152C125.773 155.177 126.131 154.854 126.156 154.445L126.23 153.107C126.254 152.698 125.933 152.339 125.526 152.314L106.571 151.199C106.3 151.186 106.102 150.951 106.114 150.691C106.127 150.43 106.361 150.22 106.621 150.232L125.575 151.347C126.526 151.397 127.243 152.215 127.194 153.169L127.119 154.507C127.082 155.437 126.267 156.168 125.315 156.106Z" fill="#BDD0FB"/>
<path d="M138.672 216.171C137.807 216.122 136.93 215.973 136.078 215.738C132.297 214.672 129.331 211.958 127.935 208.29L114.862 173.914C114.763 173.666 114.887 173.381 115.147 173.282C115.394 173.183 115.678 173.307 115.777 173.567L128.849 207.943C130.134 211.326 132.865 213.817 136.349 214.796C139.772 215.763 143.318 215.069 146.111 212.9C146.259 212.788 146.407 212.664 146.555 212.541C146.765 212.367 147.074 212.404 147.235 212.615C147.408 212.826 147.371 213.135 147.161 213.296C147 213.42 146.852 213.544 146.691 213.668C144.356 215.465 141.539 216.333 138.672 216.171Z" fill="#BDD0FB"/>
<path d="M113.355 169.13C113.17 169.118 112.997 169.006 112.935 168.82L111.477 164.991C111.378 164.743 111.502 164.458 111.761 164.359C112.008 164.26 112.292 164.384 112.391 164.644L113.849 168.473C113.948 168.721 113.824 169.006 113.565 169.105C113.491 169.13 113.417 169.143 113.355 169.13Z" fill="#BDD0FB"/>
<path d="M259.847 139.463C259.6 139.451 259.39 139.24 259.39 138.98C259.328 134.234 257.907 130.615 255.152 128.223C250.382 124.084 243.179 124.989 243.105 125.001C242.833 125.038 242.598 124.853 242.561 124.58C242.524 124.32 242.709 124.072 242.981 124.035C243.29 123.997 250.691 123.068 255.782 127.492C258.76 130.07 260.292 133.936 260.354 138.98C260.354 139.252 260.144 139.463 259.872 139.475C259.859 139.463 259.847 139.463 259.847 139.463Z" fill="white"/>
<path d="M315.251 150.083C331.929 150.083 345.449 136.523 345.449 119.796C345.449 103.07 331.929 89.5096 315.251 89.5096C298.574 89.5096 285.053 103.07 285.053 119.796C285.053 136.523 298.574 150.083 315.251 150.083Z" fill="#91B3FA"/>
<path d="M334.139 139.283C344.832 128.558 344.832 111.171 334.139 100.447C323.446 89.7226 306.11 89.7226 295.417 100.447C284.724 111.171 284.724 128.558 295.417 139.283C306.11 150.007 323.446 150.007 334.139 139.283Z" fill="#7D97F4"/>
<path d="M340.025 110.539C339.778 110.539 339.543 110.391 339.444 110.155C337.653 105.806 334.737 101.976 330.993 99.0889C330.721 98.8782 330.672 98.4817 330.882 98.2091C331.092 97.9364 331.487 97.8869 331.759 98.0975C335.676 101.109 338.728 105.112 340.606 109.672C340.742 109.994 340.581 110.354 340.272 110.49C340.186 110.527 340.099 110.539 340.025 110.539Z" fill="url(#paint13_linear)"/>
<path d="M300.511 97.5151C300.301 97.5151 300.091 97.4036 299.979 97.2177C299.806 96.9203 299.893 96.5361 300.189 96.3626C304.551 93.7107 309.568 92.298 314.695 92.298C318.476 92.298 322.146 93.0415 325.593 94.5038C325.915 94.6401 326.063 94.9995 325.927 95.3217C325.791 95.6439 325.433 95.7926 325.112 95.6563C321.812 94.256 318.303 93.5496 314.695 93.5496C309.79 93.5496 304.996 94.888 300.832 97.4284C300.733 97.478 300.622 97.5151 300.511 97.5151Z" fill="url(#paint14_linear)"/>
<path d="M296.903 141.88C296.755 141.88 296.619 141.83 296.495 141.731C290.255 136.377 286.684 128.595 286.684 120.379C286.684 113.885 288.946 107.54 293.06 102.534C293.283 102.274 293.666 102.224 293.937 102.447C294.197 102.67 294.246 103.054 294.024 103.327C290.095 108.111 287.932 114.17 287.932 120.379C287.932 128.236 291.355 135.671 297.311 140.789C297.57 141.012 297.607 141.409 297.385 141.669C297.261 141.805 297.076 141.88 296.903 141.88Z" fill="url(#paint15_linear)"/>
<path d="M314.807 136.625C305.367 136.625 297.681 128.917 297.681 119.45C297.681 109.982 305.367 102.274 314.807 102.274C324.246 102.274 331.932 109.982 331.932 119.45C331.932 128.917 324.246 136.625 314.807 136.625ZM314.807 105.149C306.948 105.149 300.548 111.568 300.548 119.45C300.548 127.331 306.948 133.75 314.807 133.75C322.665 133.75 329.065 127.331 329.065 119.45C329.065 111.568 322.665 105.149 314.807 105.149Z" fill="white"/>
<path fill-rule="evenodd" clip-rule="evenodd" d="M309.432 126.067V113.712C309.432 112.386 310.865 111.568 312.002 112.25L322.381 118.421C323.493 119.078 323.493 120.689 322.381 121.346L312.002 127.517C310.865 128.199 309.432 127.381 309.432 126.067Z" fill="white"/>
<path d="M313.572 211.759C325.365 199.931 325.365 180.755 313.572 168.927C301.779 157.1 282.659 157.1 270.866 168.927C259.073 180.755 259.073 199.931 270.866 211.759C282.659 223.586 301.779 223.586 313.572 211.759Z" fill="#91B3FA"/>
<path d="M291.75 217.869C306.872 217.869 319.131 205.574 319.131 190.408C319.131 175.241 306.872 162.947 291.75 162.947C276.628 162.947 264.369 175.241 264.369 190.408C264.369 205.574 276.628 217.869 291.75 217.869Z" fill="#7D97F4"/>
<path d="M316.993 181.089C316.746 181.089 316.512 180.94 316.413 180.705C314.621 176.355 311.705 172.526 307.961 169.638C307.689 169.428 307.64 169.031 307.85 168.758C308.06 168.486 308.456 168.436 308.727 168.647C312.644 171.658 315.696 175.661 317.574 180.221C317.71 180.544 317.549 180.903 317.241 181.039C317.142 181.064 317.068 181.089 316.993 181.089Z" fill="url(#paint16_linear)"/>
<path d="M277.479 168.052C277.269 168.052 277.059 167.941 276.948 167.755C276.775 167.457 276.861 167.073 277.158 166.9C281.52 164.248 286.536 162.835 291.664 162.835C295.445 162.835 299.114 163.579 302.562 165.041C302.883 165.177 303.031 165.537 302.895 165.859C302.759 166.181 302.401 166.33 302.08 166.193C298.781 164.793 295.272 164.087 291.664 164.087C286.758 164.087 281.964 165.425 277.8 167.966C277.702 168.027 277.59 168.052 277.479 168.052Z" fill="url(#paint17_linear)"/>
<path d="M273.871 212.429C273.723 212.429 273.587 212.379 273.464 212.28C267.224 206.927 263.653 199.144 263.653 190.928C263.653 184.435 265.914 178.09 270.029 173.083C270.251 172.823 270.634 172.774 270.906 172.997C271.165 173.22 271.215 173.604 270.992 173.877C267.063 178.66 264.901 184.72 264.901 190.928C264.901 198.785 268.323 206.221 274.279 211.339C274.538 211.562 274.576 211.958 274.353 212.218C274.217 212.355 274.044 212.429 273.871 212.429Z" fill="url(#paint18_linear)"/>
<path d="M306.874 185.736C305.725 182.65 302.932 180.457 299.683 180.445C295.42 180.42 291.997 184.137 292.047 188.747C291.997 184.137 288.476 180.383 284.164 180.358C280.84 180.345 278.01 182.539 276.898 185.662C272.636 196.864 292.244 207.15 292.244 207.15C292.244 207.15 311.211 196.716 306.874 185.736Z" fill="white"/>
<path d="M296.223 80.6863C312.287 80.6863 325.309 67.6258 325.309 51.5148C325.309 35.4039 312.287 22.3433 296.223 22.3433C280.159 22.3433 267.137 35.4039 267.137 51.5148C267.137 67.6258 280.159 80.6863 296.223 80.6863Z" fill="#91B3FA"/>
<path d="M295.778 78.0344C310.348 78.0344 322.158 66.1889 322.158 51.5768C322.158 36.9647 310.348 25.1192 295.778 25.1192C281.209 25.1192 269.398 36.9647 269.398 51.5768C269.398 66.1889 281.209 78.0344 295.778 78.0344Z" fill="#7D97F4"/>
<path d="M320.082 42.6172C319.835 42.6172 319.601 42.4685 319.502 42.2331C317.784 38.0445 314.967 34.3639 311.372 31.5881C311.1 31.3774 311.05 30.9808 311.26 30.7082C311.47 30.4356 311.866 30.386 312.138 30.5967C315.906 33.5089 318.859 37.3629 320.663 41.7498C320.799 42.072 320.638 42.4313 320.33 42.5676C320.243 42.6048 320.169 42.6172 320.082 42.6172Z" fill="url(#paint19_linear)"/>
<path d="M282.026 30.0761C281.816 30.0761 281.606 29.9646 281.495 29.7787C281.322 29.4813 281.408 29.0972 281.705 28.9237C285.906 26.3585 290.749 25.0077 295.692 25.0077C299.337 25.0077 302.871 25.7264 306.207 27.1392C306.528 27.2755 306.676 27.6349 306.54 27.9571C306.404 28.2793 306.046 28.428 305.725 28.2917C302.549 26.9409 299.176 26.2593 295.704 26.2593C290.984 26.2593 286.375 27.5481 282.36 29.9894C282.249 30.039 282.137 30.0761 282.026 30.0761Z" fill="url(#paint20_linear)"/>
<path d="M278.554 72.8172C278.406 72.8172 278.27 72.7676 278.146 72.6685C272.141 67.5133 268.694 60.0035 268.694 52.0849C268.694 45.8267 270.881 39.7173 274.835 34.8843C275.057 34.6241 275.44 34.5745 275.712 34.7976C275.972 35.0206 276.021 35.4048 275.799 35.6774C272.018 40.2874 269.942 46.1118 269.942 52.0849C269.942 59.6442 273.229 66.8069 278.962 71.7143C279.221 71.9374 279.258 72.3339 279.036 72.5941C278.912 72.7429 278.727 72.8172 278.554 72.8172Z" fill="url(#paint21_linear)"/>
<path d="M284.127 45.2691C284.374 49.3958 289.329 58.405 292.553 63.8576C293.838 66.0386 297.1 66.0263 298.348 63.8328C301.474 58.3554 306.256 49.3214 306.442 45.1948C306.738 38.4905 301.697 32.7529 295.185 32.7777C288.661 32.7901 283.719 38.5649 284.127 45.2691ZM289.304 45.2443C289.168 41.7001 291.824 38.726 295.235 38.7136C298.645 38.7012 301.351 41.6506 301.277 45.2072C301.215 48.6398 298.558 51.3538 295.346 51.3661C292.133 51.3785 289.427 48.677 289.304 45.2443Z" fill="white"/>
<path d="M295.927 74.3539C297.537 74.3539 298.843 73.0446 298.843 71.4294C298.843 69.8141 297.537 68.5048 295.927 68.5048C294.316 68.5048 293.01 69.8141 293.01 71.4294C293.01 73.0446 294.316 74.3539 295.927 74.3539Z" fill="white"/>
<path d="M133.73 324.592C133.668 324.567 99.7263 264.96 95.1423 259.359C94.3762 258.417 93.1777 257.934 91.9668 258.082L82.4898 259.21L71.3571 283.35L89.891 272.519C88.0623 285.246 111.872 304.157 120.04 311.047C120.867 311.754 120.942 313.005 120.188 313.786L116.926 317.206C122.276 322.646 128.454 326.141 135.423 327.764L133.73 324.592Z" fill="url(#paint22_linear)"/>
<path d="M118.829 315.372C118.829 315.372 116.753 316.041 116.049 317.9C115.715 318.792 116.073 319.796 116.852 320.354C120.274 322.82 131.58 330.763 136.794 332.325C137.227 332.449 137.634 332.065 137.536 331.631C137.264 330.416 136.399 327.987 133.606 324.431L133.854 324.939C134.175 325.583 133.471 326.253 132.853 325.893C129.356 323.923 122.251 319.598 118.829 315.372Z" fill="url(#paint23_linear)"/>
<path d="M120.509 339.215C120.447 339.178 115.357 326.872 115.307 326.835C110.637 298.333 99.2444 273.92 95.896 267.488C95.3276 266.41 94.2526 265.691 93.0417 265.592L83.54 264.774L67.7738 286.163L88.1117 279.323C83.7501 291.405 103.26 314.765 109.858 323.179C110.525 324.034 110.34 325.273 109.45 325.893L105.571 328.582C109.71 335.001 115.06 339.673 121.559 342.672L120.509 339.215Z" fill="url(#paint24_linear)"/>
<path d="M107.782 327.17C107.782 327.17 105.608 327.405 104.545 329.09C104.039 329.896 104.187 330.949 104.829 331.656C107.684 334.766 117.148 344.841 121.942 347.431C122.338 347.642 122.807 347.344 122.807 346.898C122.795 345.659 122.437 343.106 120.423 339.054L120.571 339.599C120.756 340.293 119.928 340.801 119.397 340.33C116.37 337.678 110.278 332.003 107.782 327.17Z" fill="url(#paint25_linear)"/>
<path d="M39.0462 260.276C39.0462 260.276 30.4464 273.102 29.7421 278.951C29.0378 284.8 32.1145 286.82 41.122 287.576C67.8973 289.794 81.1059 281.752 81.1059 281.752C82.9346 270.041 84.2443 267.054 99.541 260.685C99.541 260.685 80.1915 262.221 76.2994 260.709C72.3949 259.198 39.0462 260.276 39.0462 260.276Z" fill="url(#paint26_linear)"/>
<path d="M73.3339 188.425C73.3339 188.425 67.3413 181.324 60.978 190.036C59.8289 191.61 55.3931 190.309 53.7745 193.618C52.9343 195.328 51.1303 196.294 49.2645 195.947C44.6187 195.092 37.0198 195.018 33.2759 202.317C30.4093 207.893 32.6211 211.153 35.4876 213.012C37.5881 214.375 38.3419 217.151 37.0692 219.319C35.846 221.389 35.6235 224.202 38.762 227.585C45.8172 235.169 59.7671 222.777 59.7671 222.777L70.8504 196.505L73.3339 188.425Z" fill="url(#paint27_linear)"/>
<path d="M62.3002 258.578C62.3002 258.578 72.3085 249.011 77.2385 242.679C79.9074 239.258 80.7353 234.748 79.512 230.584C77.2633 222.975 73.2599 215.106 72.9016 213.879C72.3456 211.995 61.114 212.082 61.114 212.082C61.114 212.082 39.0215 226.457 30.3477 250.82L40.0965 253.869C40.0965 253.869 45.8667 244.166 51.5628 237.994C51.5628 237.994 41.7028 251.056 41.3568 256.409L62.3002 258.578Z" fill="url(#paint28_linear)"/>
<path d="M81.3777 262.358L73.853 254.154L65.1667 256.496C65.1667 256.496 55.0348 258.07 49.2399 256.496C43.4449 254.922 43.4449 254.922 43.4449 254.922L30.3476 250.833L28.2842 256.67C27.7652 258.144 28.2842 259.792 29.5692 260.71C30.7059 261.515 32.028 262.407 32.8806 262.779C34.6104 263.535 72.6297 263.014 72.6297 263.014L81.3777 262.358Z" fill="url(#paint29_linear)"/>
<path d="M68.824 198.55L61.2745 212.627C61.7688 215.701 69.4912 215.787 70.6774 213.953C70.801 213.767 70.8627 213.557 70.9122 213.334L75.4221 203.928C75.6198 203.011 73.1115 199.925 72.2837 199.479L69.2812 197.881C68.1444 197.261 72.9632 197.211 68.824 198.55Z" fill="url(#paint30_linear)"/>
<path d="M84.096 195.253C84.096 195.253 84.9486 200.012 81.2171 206.047C77.4856 212.095 73.7788 211.822 71.9007 209.666C70.0102 207.509 67.7614 203.916 68.787 197.893C69.8125 191.858 82.811 189.181 84.096 195.253Z" fill="url(#paint31_linear)"/>
<path d="M73.297 198.55C73.297 198.55 79.3267 190.606 83.9602 197.534L83.886 199.925C83.886 199.925 89.9034 199.64 89.2609 194.076C88.606 188.512 83.6883 184.707 76.8678 186.603C70.0473 188.5 66.0687 190.668 65.3026 195.414C64.5366 200.161 68.3916 199.38 68.3916 199.38C68.3916 199.38 69.862 196.108 71.6536 195.885C73.4329 195.662 72.7904 198.252 72.7904 198.252L73.297 198.55Z" fill="url(#paint32_linear)"/>
<path d="M71.913 198.327C71.913 198.327 75.039 194.262 72.1972 193.419C69.3553 192.577 69.4542 197.41 69.6395 199.207L71.913 198.327Z" fill="url(#paint33_linear)"/>
<path d="M56.4681 265.605C56.4928 265.605 56.5175 265.605 56.5422 265.605L91.1513 265.567C92.0038 265.567 92.6958 264.873 92.6958 264.018C92.6958 263.163 92.0038 262.457 91.1389 262.469L56.5298 262.506C55.6773 262.506 54.9854 263.2 54.9854 264.056C54.9977 264.886 55.6526 265.567 56.4681 265.605Z" fill="url(#paint34_linear)"/>
<path d="M122.264 234.091H93.4371C91.3118 234.091 89.372 235.318 88.47 237.251L75.1503 265.58H110.97C112.342 265.58 113.577 264.737 114.072 263.461L124.401 237.239C124.994 235.739 123.882 234.091 122.264 234.091Z" fill="url(#paint35_linear)"/>
<path d="M101.963 248.627C101.333 250.573 101.802 252.469 102.988 252.853C104.187 253.237 105.657 251.973 106.275 250.027C106.905 248.082 106.436 246.186 105.249 245.802C104.051 245.405 102.581 246.682 101.963 248.627Z" fill="#91B3FA"/>
</g>
<defs>
<linearGradient id="paint0_linear" x1="366.897" y1="392.296" x2="112.052" y2="118.032" gradientUnits="userSpaceOnUse">
<stop stop-color="#DAE3FE"/>
<stop offset="1" stop-color="#E9EFFD"/>
</linearGradient>
<linearGradient id="paint1_linear" x1="143.66" y1="280.595" x2="216.031" y2="64.1179" gradientUnits="userSpaceOnUse">
<stop stop-color="#09005D"/>
<stop offset="1" stop-color="#1A0F91"/>
</linearGradient>
<linearGradient id="paint2_linear" x1="23.6677" y1="200.016" x2="24.6876" y2="200.016" gradientUnits="userSpaceOnUse">
<stop stop-color="#DAE3FE"/>
<stop offset="1" stop-color="#E9EFFD"/>
</linearGradient>
<linearGradient id="paint3_linear" x1="22.6677" y1="143.433" x2="126.796" y2="143.433" gradientUnits="userSpaceOnUse">
<stop stop-color="#DAE3FE"/>
<stop offset="1" stop-color="#E9EFFD"/>
</linearGradient>
<linearGradient id="paint4_linear" x1="304.192" y1="264.69" x2="-3.90071" y2="339.411" gradientUnits="userSpaceOnUse">
<stop stop-color="#09005D"/>
<stop offset="1" stop-color="#1A0F91"/>
</linearGradient>
<linearGradient id="paint5_linear" x1="205.547" y1="21.5457" x2="285.671" y2="-158.204" gradientUnits="userSpaceOnUse">
<stop stop-color="#FE7062"/>
<stop offset="1" stop-color="#FF928E"/>
</linearGradient>
<linearGradient id="paint6_linear" x1="149.964" y1="392.683" x2="173.773" y2="145.3" gradientUnits="userSpaceOnUse">
<stop stop-color="#FE7062"/>
<stop offset="1" stop-color="#FF928E"/>
</linearGradient>
<linearGradient id="paint7_linear" x1="205.661" y1="21.5969" x2="285.784" y2="-158.153" gradientUnits="userSpaceOnUse">
<stop stop-color="#FE7062"/>
<stop offset="1" stop-color="#FF928E"/>
</linearGradient>
<linearGradient id="paint8_linear" x1="121.946" y1="162.248" x2="134.055" y2="213.455" gradientUnits="userSpaceOnUse">
<stop stop-color="#09005D"/>
<stop offset="1" stop-color="#1A0F91"/>
</linearGradient>
<linearGradient id="paint9_linear" x1="172.016" y1="91.3477" x2="239.618" y2="229.796" gradientUnits="userSpaceOnUse">
<stop stop-color="#4F52FF"/>
<stop offset="1" stop-color="#4042E2"/>
</linearGradient>
<linearGradient id="paint10_linear" x1="234.056" y1="140.125" x2="264.576" y2="139.147" gradientUnits="userSpaceOnUse">
<stop stop-color="#4F52FF"/>
<stop offset="1" stop-color="#4042E2"/>
</linearGradient>
<linearGradient id="paint11_linear" x1="272.54" y1="139.254" x2="190.389" y2="139.154" gradientUnits="userSpaceOnUse">
<stop stop-color="#09005D"/>
<stop offset="1" stop-color="#1A0F91"/>
</linearGradient>
<linearGradient id="paint12_linear" x1="174.204" y1="67.2709" x2="162.951" y2="81.8147" gradientUnits="userSpaceOnUse">
<stop stop-color="#09005D"/>
<stop offset="1" stop-color="#1A0F91"/>
</linearGradient>
<linearGradient id="paint13_linear" x1="330.755" y1="104.258" x2="340.647" y2="104.258" gradientUnits="userSpaceOnUse">
<stop stop-color="#DAE3FE"/>
<stop offset="1" stop-color="#E9EFFD"/>
</linearGradient>
<linearGradient id="paint14_linear" x1="299.888" y1="94.9013" x2="325.98" y2="94.9013" gradientUnits="userSpaceOnUse">
<stop stop-color="#DAE3FE"/>
<stop offset="1" stop-color="#E9EFFD"/>
</linearGradient>
<linearGradient id="paint15_linear" x1="286.691" y1="122.098" x2="297.529" y2="122.098" gradientUnits="userSpaceOnUse">
<stop stop-color="#DAE3FE"/>
<stop offset="1" stop-color="#E9EFFD"/>
</linearGradient>
<linearGradient id="paint16_linear" x1="307.719" y1="174.801" x2="317.611" y2="174.801" gradientUnits="userSpaceOnUse">
<stop stop-color="#DAE3FE"/>
<stop offset="1" stop-color="#E9EFFD"/>
</linearGradient>
<linearGradient id="paint17_linear" x1="276.852" y1="165.445" x2="302.944" y2="165.445" gradientUnits="userSpaceOnUse">
<stop stop-color="#DAE3FE"/>
<stop offset="1" stop-color="#E9EFFD"/>
</linearGradient>
<linearGradient id="paint18_linear" x1="263.655" y1="192.642" x2="274.493" y2="192.642" gradientUnits="userSpaceOnUse">
<stop stop-color="#DAE3FE"/>
<stop offset="1" stop-color="#E9EFFD"/>
</linearGradient>
<linearGradient id="paint19_linear" x1="311.135" y1="36.5476" x2="320.708" y2="36.5476" gradientUnits="userSpaceOnUse">
<stop stop-color="#DAE3FE"/>
<stop offset="1" stop-color="#E9EFFD"/>
</linearGradient>
<linearGradient id="paint20_linear" x1="281.406" y1="27.5362" x2="306.582" y2="27.5362" gradientUnits="userSpaceOnUse">
<stop stop-color="#DAE3FE"/>
<stop offset="1" stop-color="#E9EFFD"/>
</linearGradient>
<linearGradient id="paint21_linear" x1="268.695" y1="53.7306" x2="279.18" y2="53.7306" gradientUnits="userSpaceOnUse">
<stop stop-color="#DAE3FE"/>
<stop offset="1" stop-color="#E9EFFD"/>
</linearGradient>
<linearGradient id="paint22_linear" x1="106.196" y1="297.646" x2="166.854" y2="207.237" gradientUnits="userSpaceOnUse">
<stop stop-color="#A22B25"/>
<stop offset="1" stop-color="#C0423C"/>
</linearGradient>
<linearGradient id="paint23_linear" x1="134.868" y1="305.281" x2="110.646" y2="363.73" gradientUnits="userSpaceOnUse">
<stop stop-color="#09005D"/>
<stop offset="1" stop-color="#1A0F91"/>
</linearGradient>
<linearGradient id="paint24_linear" x1="226.133" y1="171.421" x2="170.529" y2="230.599" gradientUnits="userSpaceOnUse">
<stop stop-color="#A22B25"/>
<stop offset="1" stop-color="#C0423C"/>
</linearGradient>
<linearGradient id="paint25_linear" x1="125.521" y1="320.543" x2="89.9745" y2="372.837" gradientUnits="userSpaceOnUse">
<stop stop-color="#09005D"/>
<stop offset="1" stop-color="#1A0F91"/>
</linearGradient>
<linearGradient id="paint26_linear" x1="91.7464" y1="236.199" x2="47.6012" y2="284.435" gradientUnits="userSpaceOnUse">
<stop stop-color="#4F52FF"/>
<stop offset="1" stop-color="#4042E2"/>
</linearGradient>
<linearGradient id="paint27_linear" x1="82.4973" y1="170.586" x2="59.1568" y2="197.452" gradientUnits="userSpaceOnUse">
<stop stop-color="#09005D"/>
<stop offset="1" stop-color="#1A0F91"/>
</linearGradient>
<linearGradient id="paint28_linear" x1="42.1656" y1="276.731" x2="63.3128" y2="223.716" gradientUnits="userSpaceOnUse">
<stop stop-color="#4F52FF"/>
<stop offset="1" stop-color="#4042E2"/>
</linearGradient>
<linearGradient id="paint29_linear" x1="48.1536" y1="257.002" x2="-5.14302" y2="257.002" gradientUnits="userSpaceOnUse">
<stop stop-color="#A22B25"/>
<stop offset="1" stop-color="#C0423C"/>
</linearGradient>
<linearGradient id="paint30_linear" x1="69.4859" y1="206.526" x2="90.0612" y2="170.764" gradientUnits="userSpaceOnUse">
<stop stop-color="#A22B25"/>
<stop offset="1" stop-color="#C0423C"/>
</linearGradient>
<linearGradient id="paint31_linear" x1="-2599.31" y1="2464.05" x2="-2573.45" y2="2442.3" gradientUnits="userSpaceOnUse">
<stop stop-color="#A22B25"/>
<stop offset="1" stop-color="#C0423C"/>
</linearGradient>
<linearGradient id="paint32_linear" x1="97.0082" y1="189.918" x2="64.5261" y2="196.416" gradientUnits="userSpaceOnUse">
<stop stop-color="#09005D"/>
<stop offset="1" stop-color="#1A0F91"/>
</linearGradient>
<linearGradient id="paint33_linear" x1="-2603.66" y1="2458.91" x2="-2577.79" y2="2437.16" gradientUnits="userSpaceOnUse">
<stop stop-color="#A22B25"/>
<stop offset="1" stop-color="#C0423C"/>
</linearGradient>
<linearGradient id="paint34_linear" x1="50.5976" y1="256.384" x2="78.0835" y2="265.373" gradientUnits="userSpaceOnUse">
<stop stop-color="#09005D"/>
<stop offset="1" stop-color="#1A0F91"/>
</linearGradient>
<linearGradient id="paint35_linear" x1="122.96" y1="251.883" x2="-127.811" y2="230.847" gradientUnits="userSpaceOnUse">
<stop stop-color="#09005D"/>
<stop offset="1" stop-color="#1A0F91"/>
</linearGradient>
</defs>
</svg>
