<svg width="80" height="80" viewBox="0 0 80 80" fill="none" xmlns="http://www.w3.org/2000/svg">
<g clip-path="url(#clip0)">
<path d="M0.875378 27.531C-4.96665 7.37268 20.0001 1.42424 29.3451 21.0489C37.003 37.1305 51.703 38.1839 60.073 24.7189C77.3998 -3.15528 90.369 57.0008 68.4482 68.9122C51.5004 78.1214 42.7551 50.9547 28.7452 59.1683C25.709 60.9484 25.4201 65.313 23.1988 68.0416C18.1938 74.1897 4.97397 73.038 2.84741 65.2697C-0.777279 52.0286 9.32272 56.6788 0.875378 27.531Z" fill="url(#paint0_linear)"/>
<g opacity="0.1">
<path d="M70.2393 26.5903C70.2393 25.705 69.5216 24.9875 68.6364 24.9875H53.0366V17.3169C53.0366 15.5492 51.5985 14.1111 49.8308 14.1111H30.1688C28.4011 14.1111 26.963 15.5491 26.963 17.3169V24.9875H11.3633C10.478 24.9875 9.7605 25.7051 9.7605 26.5903V35.9487C9.7605 37.0947 10.1621 38.1466 10.8311 38.9727V69.792C10.8311 70.6764 11.5499 71.3951 12.4342 71.3951H67.5655C68.4499 71.3951 69.1686 70.6764 69.1686 69.792V38.9727C69.8378 38.1466 70.2393 37.0947 70.2393 35.9487V26.5903ZM30.4813 17.6294H49.5183V24.9875H30.4813V17.6294Z" fill="#4F33AF"/>
<path d="M70.2393 26.5903C70.2393 25.705 69.5216 24.9875 68.6364 24.9875H53.0366V17.3169C53.0366 15.5492 51.5985 14.1111 49.8308 14.1111H30.1688C28.4011 14.1111 26.963 15.5491 26.963 17.3169V24.9875H11.3633C10.478 24.9875 9.7605 25.7051 9.7605 26.5903V35.9487C9.7605 37.0947 10.1621 38.1466 10.8311 38.9727V69.792C10.8311 70.6764 11.5499 71.3951 12.4342 71.3951H67.5655C68.4499 71.3951 69.1686 70.6764 69.1686 69.792V38.9727C69.8378 38.1466 70.2393 37.0947 70.2393 35.9487V26.5903ZM30.4813 17.6294H49.5183V24.9875H30.4813V17.6294Z" fill="black" fill-opacity="0.4"/>
</g>
<path d="M30.4814 21.3783V13.8794H49.5184V21.3783H53.0367V13.5669C53.0367 11.7993 51.5986 10.3611 49.8309 10.3611H30.1689C28.4013 10.3611 26.9631 11.7991 26.9631 13.5669V21.3783H30.4814Z" fill="white"/>
<path d="M69.1685 31.3419V66.0419C69.1685 66.9263 68.4498 67.645 67.5654 67.645H12.4342C11.5498 67.645 10.8311 66.9263 10.8311 66.0419V31.3419H69.1685Z" fill="white"/>
<path d="M64.9758 64.3879H15.0239C14.5925 64.3879 14.2427 64.0381 14.2427 63.6067V41.5387C14.2427 41.1073 14.5925 40.7574 15.0239 40.7574H64.9758C65.4072 40.7574 65.757 41.1073 65.757 41.5387V63.6068C65.757 64.0382 65.4072 64.3879 64.9758 64.3879Z" fill="#4F33AF"/>
<path d="M64.9758 64.3879H15.0239C14.5925 64.3879 14.2427 64.0381 14.2427 63.6067V41.5387C14.2427 41.1073 14.5925 40.7574 15.0239 40.7574H64.9758C65.4072 40.7574 65.757 41.1073 65.757 41.5387V63.6068C65.757 64.0382 65.4072 64.3879 64.9758 64.3879Z" fill="white" fill-opacity="0.4"/>
<path d="M61.5934 59.693H55.926C55.4946 59.693 55.1448 60.0428 55.1448 60.4742C55.1448 60.9056 55.4946 61.2555 55.926 61.2555H61.627C62.0837 61.2555 62.449 60.8635 62.4045 60.3974C62.3659 59.9913 62.0015 59.693 61.5934 59.693Z" fill="#4F33AF"/>
<path d="M61.5934 59.693H55.926C55.4946 59.693 55.1448 60.0428 55.1448 60.4742C55.1448 60.9056 55.4946 61.2555 55.926 61.2555H61.627C62.0837 61.2555 62.449 60.8635 62.4045 60.3974C62.3659 59.9913 62.0015 59.693 61.5934 59.693Z" fill="black" fill-opacity="0.4"/>
<path d="M65.4307 37.0074H14.5691C11.9133 37.0074 9.7605 34.8544 9.7605 32.1988V22.8404C9.7605 21.955 10.4782 21.2375 11.3633 21.2375H68.6364C69.5218 21.2375 70.2393 21.9552 70.2393 22.8404V32.1988C70.2393 34.8544 68.0864 37.0074 65.4307 37.0074Z" fill="white"/>
<path d="M64.1455 33.2574H15.8542C14.5599 33.2574 13.5105 32.208 13.5105 30.9136V21.2375H66.4894V30.9136C66.4893 32.208 65.44 33.2574 64.1455 33.2574Z" fill="#4F33AF"/>
<path d="M64.1455 33.2574H15.8542C14.5599 33.2574 13.5105 32.208 13.5105 30.9136V21.2375H66.4894V30.9136C66.4893 32.208 65.44 33.2574 64.1455 33.2574Z" fill="white" fill-opacity="0.4"/>
<path d="M48.0661 37.0074H31.9336V34.0083C31.9336 33.1453 32.6331 32.4458 33.4961 32.4458H46.5036C47.3666 32.4458 48.0661 33.1453 48.0661 34.0083V37.0074Z" fill="#4F33AF"/>
<path d="M48.0661 37.0074H31.9336V34.0083C31.9336 33.1453 32.6331 32.4458 33.4961 32.4458H46.5036C47.3666 32.4458 48.0661 33.1453 48.0661 34.0083V37.0074Z" fill="white" fill-opacity="0.4"/>
<path d="M47.6356 37.0076V43.3388C47.6356 44.6342 46.5872 45.6826 45.2919 45.6826H34.7075C33.4122 45.6826 32.3638 44.6342 32.3638 43.3388V37.0076H47.6356Z" fill="#4F33AF"/>
<path d="M47.6356 37.0076V43.3388C47.6356 44.6342 46.5872 45.6826 45.2919 45.6826H34.7075C33.4122 45.6826 32.3638 44.6342 32.3638 43.3388V37.0076H47.6356Z" fill="white" fill-opacity="0.4"/>
<path d="M43.2606 37.0076V41.3076C43.2606 42.1716 42.5622 42.87 41.6981 42.87H38.3013C37.4372 42.87 36.7388 42.1716 36.7388 41.3076V37.0076H43.2606Z" fill="white"/>
<path d="M71.0205 22.8404C71.0205 21.5257 69.951 20.4561 68.6364 20.4561H61.7214C61.29 20.4561 60.9402 20.8058 60.9402 21.2374C60.9402 21.669 61.29 22.0186 61.7214 22.0186H68.6364C69.0894 22.0186 69.458 22.3872 69.458 22.8404V32.1988C69.458 34.4194 67.6514 36.226 65.4307 36.226H48.8474V34.0083C48.8474 32.716 47.796 31.6646 46.5036 31.6646H33.4961C32.2038 31.6646 31.1524 32.716 31.1524 34.0083V36.226H14.5691C12.3485 36.226 10.5417 34.4194 10.5417 32.1988V22.8404C10.5417 22.3874 10.9103 22.0186 11.3633 22.0186H57.546C57.9774 22.0186 58.3272 21.669 58.3272 21.2374C58.3272 20.8058 57.9774 20.4561 57.546 20.4561H53.8178V13.5669C53.8178 11.3685 52.0293 9.5799 49.8308 9.5799H30.1689C27.9705 9.5799 26.1819 11.3683 26.1819 13.5669V20.4563H11.3633C10.0486 20.4563 8.97925 21.5258 8.97925 22.8405V32.199C8.97925 35.2811 11.4867 37.7886 14.5691 37.7886H31.5827V43.339C31.5827 45.0621 32.9846 46.464 34.7077 46.464H45.2921C47.0152 46.464 48.4171 45.0621 48.4171 43.339V37.7886H65.4307C66.5155 37.7886 67.5285 37.4769 68.3866 36.9399V66.0419C68.3866 66.4949 68.018 66.8635 67.565 66.8635H12.4347C11.9817 66.8635 11.6132 66.495 11.6132 66.0419V39.3993C11.6132 38.9677 11.2633 38.618 10.8319 38.618C10.4005 38.618 10.0507 38.9677 10.0507 39.3993V66.0419C10.0507 67.3565 11.1202 68.426 12.4347 68.426H67.5652C68.8799 68.426 69.9493 67.3565 69.9493 66.0419V35.4841C70.6222 34.5611 71.0205 33.426 71.0205 32.199V22.8404ZM48.7372 20.4561H31.2627V14.6607H48.7372V20.4561ZM27.7442 13.5669C27.7442 12.2301 28.8319 11.1424 30.1688 11.1424H49.8308C51.1677 11.1424 52.2553 12.2301 52.2553 13.5669V20.4563H50.2996V13.8794C50.2996 13.4479 49.9497 13.0982 49.5183 13.0982H30.4814C30.05 13.0982 29.7002 13.4479 29.7002 13.8794V20.4563H27.7444V13.5669H27.7442ZM32.7149 34.0083C32.7149 33.5775 33.0653 33.2271 33.4961 33.2271H46.5036C46.9344 33.2271 47.2849 33.5775 47.2849 34.0083V36.226H32.7149V34.0083ZM45.2921 44.9015H34.7077C33.8461 44.9015 33.1452 44.2005 33.1452 43.339V37.7886H46.8546V43.339C46.8546 44.2004 46.1536 44.9015 45.2921 44.9015Z" fill="#4F33AF"/>
<path d="M71.0205 22.8404C71.0205 21.5257 69.951 20.4561 68.6364 20.4561H61.7214C61.29 20.4561 60.9402 20.8058 60.9402 21.2374C60.9402 21.669 61.29 22.0186 61.7214 22.0186H68.6364C69.0894 22.0186 69.458 22.3872 69.458 22.8404V32.1988C69.458 34.4194 67.6514 36.226 65.4307 36.226H48.8474V34.0083C48.8474 32.716 47.796 31.6646 46.5036 31.6646H33.4961C32.2038 31.6646 31.1524 32.716 31.1524 34.0083V36.226H14.5691C12.3485 36.226 10.5417 34.4194 10.5417 32.1988V22.8404C10.5417 22.3874 10.9103 22.0186 11.3633 22.0186H57.546C57.9774 22.0186 58.3272 21.669 58.3272 21.2374C58.3272 20.8058 57.9774 20.4561 57.546 20.4561H53.8178V13.5669C53.8178 11.3685 52.0293 9.5799 49.8308 9.5799H30.1689C27.9705 9.5799 26.1819 11.3683 26.1819 13.5669V20.4563H11.3633C10.0486 20.4563 8.97925 21.5258 8.97925 22.8405V32.199C8.97925 35.2811 11.4867 37.7886 14.5691 37.7886H31.5827V43.339C31.5827 45.0621 32.9846 46.464 34.7077 46.464H45.2921C47.0152 46.464 48.4171 45.0621 48.4171 43.339V37.7886H65.4307C66.5155 37.7886 67.5285 37.4769 68.3866 36.9399V66.0419C68.3866 66.4949 68.018 66.8635 67.565 66.8635H12.4347C11.9817 66.8635 11.6132 66.495 11.6132 66.0419V39.3993C11.6132 38.9677 11.2633 38.618 10.8319 38.618C10.4005 38.618 10.0507 38.9677 10.0507 39.3993V66.0419C10.0507 67.3565 11.1202 68.426 12.4347 68.426H67.5652C68.8799 68.426 69.9493 67.3565 69.9493 66.0419V35.4841C70.6222 34.5611 71.0205 33.426 71.0205 32.199V22.8404ZM48.7372 20.4561H31.2627V14.6607H48.7372V20.4561ZM27.7442 13.5669C27.7442 12.2301 28.8319 11.1424 30.1688 11.1424H49.8308C51.1677 11.1424 52.2553 12.2301 52.2553 13.5669V20.4563H50.2996V13.8794C50.2996 13.4479 49.9497 13.0982 49.5183 13.0982H30.4814C30.05 13.0982 29.7002 13.4479 29.7002 13.8794V20.4563H27.7444V13.5669H27.7442ZM32.7149 34.0083C32.7149 33.5775 33.0653 33.2271 33.4961 33.2271H46.5036C46.9344 33.2271 47.2849 33.5775 47.2849 34.0083V36.226H32.7149V34.0083ZM45.2921 44.9015H34.7077C33.8461 44.9015 33.1452 44.2005 33.1452 43.339V37.7886H46.8546V43.339C46.8546 44.2004 46.1536 44.9015 45.2921 44.9015Z" fill="black" fill-opacity="0.4"/>
<path d="M62.0891 15.6736C61.8891 15.6736 61.6892 15.5974 61.5366 15.4447L60.6828 14.5909L59.8291 15.4447C59.5239 15.7499 59.0294 15.7499 58.7242 15.4447C58.4191 15.1397 58.4191 14.645 58.7242 14.34L60.1305 12.9338C60.4356 12.6286 60.9302 12.6286 61.2353 12.9338L62.6416 14.34C62.9467 14.645 62.9467 15.1397 62.6416 15.4447C62.4889 15.5974 62.2889 15.6736 62.0891 15.6736Z" fill="#4F33AF"/>
<path d="M9.46603 71.094C9.26603 71.094 9.06618 71.0177 8.91353 70.8651L8.05978 70.0113L7.20603 70.8651C6.90087 71.1702 6.40634 71.1702 6.10118 70.8651C5.79603 70.5601 5.79603 70.0654 6.10118 69.7604L7.50743 68.3541C7.81259 68.049 8.30712 68.049 8.61228 68.3541L10.0185 69.7604C10.3237 70.0654 10.3237 70.5601 10.0185 70.8651C9.86603 71.0177 9.66603 71.094 9.46603 71.094Z" fill="#4F33AF"/>
<path d="M24.8505 8.73519C24.6505 8.73519 24.4507 8.65894 24.298 8.50629L23.4443 7.65254L22.5905 8.50629C22.2854 8.81144 21.7909 8.81144 21.4857 8.50629C21.1805 8.20129 21.1805 7.7066 21.4857 7.4016L22.892 5.99535C23.1971 5.69019 23.6916 5.69019 23.9968 5.99535L25.403 7.4016C25.7082 7.7066 25.7082 8.20129 25.403 8.50629C25.2504 8.65894 25.0505 8.73519 24.8505 8.73519Z" fill="#4F33AF"/>
<path d="M66.1993 16.6919C65.9993 16.6919 65.7995 16.6156 65.6468 16.4629C65.3417 16.1579 65.3417 15.6633 65.6468 15.3583L67.2093 13.7958C67.5145 13.4906 68.009 13.4906 68.3142 13.7958C68.6193 14.1008 68.6193 14.5954 68.3142 14.9004L66.7517 16.4629C66.5992 16.6154 66.3993 16.6919 66.1993 16.6919Z" fill="#4F33AF"/>
<path d="M50.9886 74.2337C50.7886 74.2337 50.5888 74.1575 50.4361 74.0048C50.131 73.6998 50.131 73.2051 50.4361 72.9001L51.9986 71.3376C52.3038 71.0325 52.7983 71.0325 53.1035 71.3376C53.4086 71.6426 53.4086 72.1373 53.1035 72.4423L51.541 74.0048C51.3885 74.1575 51.1885 74.2337 50.9886 74.2337Z" fill="#4F33AF"/>
</g>
<defs>
<linearGradient id="paint0_linear" x1="6.676" y1="70.5328" x2="65.5802" y2="11.6286" gradientUnits="userSpaceOnUse">
<stop stop-color="#CEDBFC" stop-opacity="0"/>
<stop offset="1" stop-color="#B4C2FC"/>
</linearGradient>
<clipPath id="clip0">
<rect width="80" height="80" fill="white"/>
</clipPath>
</defs>
</svg>
