<svg xmlns="http://www.w3.org/2000/svg" width="1244" height="40" fill="none" viewBox="0 0 1244 40"><rect width="40" height="40" x="523" fill="#43436B" fill-opacity=".05" rx="2"/><rect width="40" height="40" x="576" fill="#43436B" fill-opacity=".05" rx="2"/><rect width="40" height="40" x="628" fill="#43436B" fill-opacity=".05" rx="2"/><rect width="40" height="40" x="681" fill="#43436B" fill-opacity=".05" rx="2"/><rect width="40" height="40" x="733" fill="#43436B" fill-opacity=".05" rx="2"/><rect width="40" height="40" x="785" fill="#43436B" fill-opacity=".05" rx="2"/><rect width="40" height="40" x="838" fill="#43436B" fill-opacity=".05" rx="2"/><rect width="40" height="40" x="890" fill="#43436B" fill-opacity=".05" rx="2"/><rect width="40" height="40" x="942" fill="#43436B" fill-opacity=".05" rx="2"/><rect width="40" height="40" x="995" fill="#43436B" fill-opacity=".05" rx="2"/><rect width="40" height="40" x="1047" fill="#43436B" fill-opacity=".05" rx="2"/><rect width="40" height="40" x="1099" fill="#43436B" fill-opacity=".05" rx="2"/><rect width="40" height="40" x="1152" fill="#43436B" fill-opacity=".05" rx="2"/><rect width="40" height="40" fill="#43436B" fill-opacity=".05" rx="2"/><rect width="40" height="40" x="52" fill="#43436B" fill-opacity=".05" rx="2"/><rect width="40" height="40" x="105" fill="#43436B" fill-opacity=".05" rx="2"/><rect width="40" height="40" x="157" fill="#43436B" fill-opacity=".05" rx="2"/><rect width="40" height="40" x="209" fill="#43436B" fill-opacity=".05" rx="2"/><rect width="40" height="40" x="262" fill="#43436B" fill-opacity=".05" rx="2"/><rect width="40" height="40" x="314" fill="#43436B" fill-opacity=".05" rx="2"/><rect width="40" height="40" x="366" fill="#43436B" fill-opacity=".05" rx="2"/><rect width="40" height="40" x="419" fill="#43436B" fill-opacity=".05" rx="2"/><rect width="40" height="40" x="471" fill="#43436B" fill-opacity=".05" rx="2"/><rect width="40" height="40" x="1204" fill="#43436B" fill-opacity=".05" rx="2"/></svg>