<svg xmlns="http://www.w3.org/2000/svg" xmlns:xlink="http://www.w3.org/1999/xlink" id="Layer_1" x="0" y="0" enable-background="new 0 0 566.9 566.9" version="1.1" viewBox="0 0 566.9 566.9" xml:space="preserve"><style type="text/css">.st0{fill:#5629b6}.st1{fill:#63d2d6}</style><path d="M373.5,147.4c-3.5,0-6.4-2.9-6.4-6.4v-32.2H141.9v25.7c0,3.6-2.9,6.4-6.4,6.4s-6.4-2.9-6.4-6.4l0,0v-32.2	c0-3.5,2.9-6.4,6.4-6.4h238c3.6,0,6.4,2.9,6.4,6.4V141C379.9,144.6,377,147.4,373.5,147.4L373.5,147.4L373.5,147.4z" class="st0"/><path d="M174.1,417.6h-38.6c-3.6,0-6.4-2.9-6.4-6.4V215c0-3.6,2.9-6.4,6.4-6.4s6.4,2.9,6.4,6.4v189.8h25.7v-35.4	c0-3.6,2.9-6.4,6.4-6.4s6.4,2.9,6.4,6.4v41.8C180.5,414.7,177.7,417.6,174.1,417.6C174.1,417.6,174.1,417.6,174.1,417.6L174.1,417.6	z" class="st0"/><path d="M174.1,346.9c-3.6,0-6.4-2.9-6.4-6.4l0,0V141c0-3.6,2.9-6.4,6.4-6.4h138.3c3.6,0,6.4,2.9,6.4,6.4	s-2.9,6.4-6.4,6.4H180.5v193C180.5,344,177.7,346.9,174.1,346.9C174.1,346.9,174.1,346.9,174.1,346.9L174.1,346.9z" class="st0"/><path d="M405.7,408c-3.5,0-6.4-2.9-6.4-6.4V147.4h-54.7c-3.6,0-6.4-2.9-6.4-6.4s2.9-6.4,6.4-6.4h61.1	c3.6,0,6.4,2.9,6.4,6.4v260.6C412.2,405.1,409.3,408,405.7,408C405.7,408,405.7,408,405.7,408z" class="st0"/><path d="M405.7,456.2H174.1c-3.6,0-6.4-2.9-6.4-6.4l0,0v-80.4c0-3.6,2.9-6.4,6.4-6.4s6.4,2.9,6.4,6.4v74h218.8v-12.9	c0-3.6,2.9-6.4,6.4-6.4s6.4,2.9,6.4,6.4v19.3C412.1,453.3,409.3,456.2,405.7,456.2L405.7,456.2L405.7,456.2z" class="st0"/><path d="M341.4,234.3c-10.7,0-19.3-8.7-19.3-19.3c0-10.6,8.6-19.3,19.3-19.3H380c3.6,0,6.4,2.9,6.4,6.4	s-2.9,6.4-6.4,6.4h-38.6c-3.6,0-6.4,2.9-6.4,6.4s2.9,6.4,6.4,6.4h64.3c10.7,0,19.3-8.6,19.3-19.3c0-8.2-5.1-15.4-12.8-18.2v18.2	c0,3.6-2.9,6.4-6.4,6.4s-6.4-2.9-6.4-6.4v-25.7c0-3.6,2.9-6.4,6.4-6.4c0,0,0,0,0,0l0,0c17.8,0,32.2,14.4,32.2,32.2	c0,17.8-14.4,32.2-32.2,32.2H341.4z" class="st0"/><rect width="77.2" height="77.2" x="212.7" y="189.2" class="st1"/><path d="M289.9,272.9H277c-3.6,0-6.4-2.9-6.4-6.4c0-3.5,2.9-6.4,6.4-6.4h6.4v-64.4h-64.3V260h25.7	c3.6,0,6.4,2.9,6.4,6.4s-2.9,6.4-6.4,6.4l0,0h-32.2c-3.6,0-6.4-2.9-6.4-6.4l0,0v-77.2c0-3.6,2.9-6.4,6.4-6.4l0,0h77.2	c3.6,0,6.4,2.9,6.4,6.4l0,0v77.2C296.3,270,293.5,272.9,289.9,272.9L289.9,272.9L289.9,272.9z" class="st0"/><path d="M367.1,311.5H212.7c-3.6,0-6.4-2.9-6.4-6.4s2.9-6.4,6.4-6.4h154.4c3.6,0,6.4,2.9,6.4,6.4	S370.7,311.5,367.1,311.5z" class="st0"/><path d="M367.1,343.6h-70.8c-3.6,0-6.4-2.9-6.4-6.4s2.9-6.4,6.4-6.4h70.8c3.6,0,6.4,2.9,6.4,6.4	S370.7,343.6,367.1,343.6z" class="st0"/><path d="M264.2,343.6h-51.5c-3.6,0-6.4-2.9-6.4-6.4s2.9-6.4,6.4-6.4h51.5c3.6,0,6.4,2.9,6.4,6.4	S267.7,343.6,264.2,343.6L264.2,343.6z" class="st0"/><path d="M367.1,375.8H212.7c-3.6,0-6.4-2.9-6.4-6.4s2.9-6.4,6.4-6.4h154.4c3.6,0,6.4,2.9,6.4,6.4	S370.7,375.8,367.1,375.8z" class="st0"/><path d="M328.5,408H212.7c-3.6,0-6.4-2.9-6.4-6.4s2.9-6.4,6.4-6.4h115.8c3.6,0,6.4,2.9,6.4,6.4S332.1,408,328.5,408	L328.5,408z" class="st0"/><path d="M135.5,189.2c-3.6,0-6.4-2.9-6.4-6.4v-22.5c0-3.6,2.9-6.4,6.4-6.4s6.4,2.9,6.4,6.4v22.5	C141.9,186.3,139,189.2,135.5,189.2L135.5,189.2L135.5,189.2z" class="st0"/></svg>