<svg xmlns="http://www.w3.org/2000/svg" xmlns:xlink="http://www.w3.org/1999/xlink" id="Layer_1" x="0" y="0" enable-background="new 0 0 566.9 566.9" version="1.1" viewBox="0 0 566.9 566.9" xml:space="preserve"><style type="text/css">.st0{fill:#63d2d6}.st1{fill:#5629b6}</style><g><path d="M235.1,409.8C207,438,122.5,441.1,122.5,441.1s3.1-84.5,31.3-112.6c14-14,34.2-19.8,53.4-15.4l43.3,43.3 C254.9,375.7,249.1,395.9,235.1,409.8z" class="st0"/><circle cx="322.7" cy="240.9" r="44.2" class="st0"/></g><g><path d="M272.8,386.3c-2,0-3.9-0.8-5.4-2.2l-87.8-87.8c-2.1-2.1-2.8-5.4-1.7-8.2c3.1-7.9,6-14.9,8.9-21.3 c14.8-34.5,34.6-66.7,58.6-95.6c27.7-32.4,59.2-55.5,93.8-68.8c39.6-15,82.2-17.2,123.1-6.4c2.7,0.7,4.7,2.8,5.4,5.4 c10.8,40.9,8.6,83.4-6.3,123c-7.1,18.2-16.6,35.3-28.3,50.9c-2.5,3.4-7.3,4.1-10.7,1.5c-3.4-2.5-4.1-7.3-1.5-10.7 c10.9-14.5,19.7-30.4,26.2-47.2c13.3-35.1,15.6-72.9,6.9-109.3c-36.5-8.7-74.2-6.3-109.4,7c-32.2,12.3-61.6,34-87.6,64.4 c-23.1,27.7-42.1,58.7-56.3,92c-2.3,5-4.5,10.4-6.9,16.2l80.7,80.7c5.8-2.4,11.1-4.6,16-6.8c6.1-2.7,12-5.5,17.7-8.3 c3.8-1.9,8.3-0.3,10.2,3.5c1.9,3.8,0.3,8.3-3.5,10.2c-5.9,2.9-12.1,5.8-18.3,8.6c-6.4,2.9-13.4,5.8-21.3,8.9 C274.7,386.2,273.7,386.3,272.8,386.3z" class="st1"/><path d="M341.4,352.9c-2.6,0-5.2-1.3-6.6-3.7c-2.1-3.6-0.9-8.3,2.7-10.4c15.9-9.4,31.1-20.2,45.2-32.2 c6.1-5.2,12.1-10.8,17.7-16.5c3-3,7.8-3.1,10.8-0.1c3,2.9,3.1,7.8,0.1,10.8c-5.9,6.1-12.2,11.9-18.7,17.4 c-14.8,12.5-30.7,23.9-47.4,33.7C344.1,352.6,342.7,352.9,341.4,352.9z" class="st1"/><path d="M193.8,277.5c-1,0-2.1-0.2-3.1-0.6c-42.3-18.7-89.6-18.9-90.1-18.9c-3.1,0-5.9-1.8-7-4.7 c-1.2-2.8-0.5-6.1,1.6-8.3c18-18.1,38.4-33.7,60.7-46.1c3.7-2.1,8.3-0.7,10.4,2.9c2.1,3.7,0.7,8.3-2.9,10.4 c-16,8.9-30.9,19.5-44.6,31.5c17.2,1.6,44.3,5.7,71,16.2c11.8-26,26.4-50.6,43.5-73.5c-13.5,2.7-26.8,6.5-39.7,11.5 c-3.9,1.5-8.3-0.4-9.9-4.3c-1.5-3.9,0.4-8.3,4.3-9.9c20-7.8,41-13,62.4-15.4c3.1-0.3,6.1,1.2,7.6,4c1.5,2.7,1.1,6.1-0.8,8.5 c-23.1,27.8-42.1,58.8-56.4,92c-0.8,1.9-2.3,3.3-4.2,4.1C195.7,277.3,194.7,277.5,193.8,277.5z" class="st1"/><path d="M313.3,470.7c-1,0-2-0.2-2.9-0.6c-2.8-1.2-4.7-4-4.7-7c0-0.5-0.3-47.9-18.9-90.1c-1.7-3.8,0-8.3,3.9-10 c6-2.7,12-5.5,17.7-8.3c3.8-1.9,8.3-0.3,10.2,3.5c1.9,3.8,0.3,8.3-3.5,10.2c-3.7,1.8-7.6,3.7-11.5,5.5 c10.6,26.7,14.7,53.8,16.3,71.1c35.2-40,50.7-81.4,57.2-114.3c-10.2,7.7-20.9,14.9-31.9,21.3c-3.6,2.1-8.3,0.9-10.4-2.7 c-2.1-3.6-0.9-8.3,2.7-10.4c15.9-9.4,31.1-20.2,45.2-32.2c2.4-2,5.8-2.4,8.5-0.9c2.8,1.5,4.3,4.5,4,7.6 c-4.5,40.4-21.5,100.2-76.6,155.2C317.3,469.9,315.3,470.7,313.3,470.7z" class="st1"/><path d="M122.5,448.8c-2,0-4-0.8-5.4-2.3c-1.5-1.5-2.3-3.6-2.2-5.7c1-21.3,3.9-42.7,8.6-63.5c0.9-4.1,5-6.7,9.1-5.8 c4.1,0.9,6.7,5,5.8,9.1c-3.9,17.2-6.4,34.8-7.7,52.4c27.2-2,80-9.5,99.1-28.6c11.7-11.7,16.8-28.1,13.8-44.3l-40.1-40.1 c-16.2-3-32.6,2.1-44.3,13.8c-3.9,4.1-7.2,8.9-9.7,14.2c-1.8,3.8-6.4,5.4-10.2,3.6c-3.8-1.8-5.4-6.4-3.6-10.2 c3.2-6.7,7.4-12.9,12.6-18.3c16-16,38.5-22.5,60.3-17.6c0,0,0,0,0,0c1.5,0.3,2.9,1,4,2.1l43.3,43.3c1.1,1.1,1.8,2.5,2.1,3.9 c0,0,0,0,0,0c4.9,21.9-1.6,44.4-17.5,60.3c-29.9,29.9-114.2,33.4-117.7,33.5C122.7,448.8,122.6,448.8,122.5,448.8z" class="st1"/><path d="M322.7,292.8c-13.3,0-26.6-5-36.7-15.2c-6.2-6.1-10.7-13.8-13.2-22.2c-1.2-4.1,1.2-8.3,5.2-9.4 c4.1-1.2,8.3,1.2,9.4,5.2c1.7,5.9,4.9,11.3,9.3,15.6c14.3,14.3,37.5,14.3,51.8,0c6.9-6.9,10.7-16.1,10.7-25.9 c0-9.8-3.8-19-10.7-25.9c-6.9-6.9-16.1-10.7-25.9-10.7c0,0,0,0,0,0c-9.8,0-19,3.8-25.9,10.7c-1.4,1.4-2.7,3-3.9,4.6 c-2.5,3.4-7.2,4.2-10.6,1.7c-3.4-2.5-4.2-7.2-1.7-10.7c1.7-2.3,3.5-4.4,5.5-6.4c9.8-9.8,22.8-15.2,36.7-15.2c0,0,0,0,0,0 c13.9,0,26.9,5.4,36.7,15.2c9.8,9.8,15.2,22.8,15.2,36.7c0,13.9-5.4,26.9-15.2,36.7C349.3,287.7,336,292.8,322.7,292.8z" class="st1"/><path d="M369.5,144.6c-2,0-3.9-0.7-5.4-2.2l-27.5-27.5c-3-3-3-7.8,0-10.8s7.8-3,10.8,0l27.5,27.5c3,3,3,7.8,0,10.8 C373.4,143.8,371.5,144.6,369.5,144.6z" class="st1"/><path d="M454.3,229.3c-2,0-3.9-0.7-5.4-2.2L387,165.2c-3-3-3-7.8,0-10.8c3-3,7.8-3,10.8,0l61.9,61.9c3,3,3,7.8,0,10.8 C458.2,228.6,456.2,229.3,454.3,229.3z" class="st1"/></g></svg>