<svg width="24" height="24" viewBox="0 0 24 24" fill="none" xmlns="http://www.w3.org/2000/svg">
<rect width="24" height="24" rx="12" fill="white"/>
<mask id="mask0_1925_42596" style="mask-type:alpha" maskUnits="userSpaceOnUse" x="3" y="3" width="18" height="18">
<path d="M8.27881 3.13187C7.33302 3.17651 6.68704 3.328 6.12255 3.54919C5.5382 3.77699 5.04285 4.08229 4.55008 4.57707C4.05673 5.07215 3.75375 5.56838 3.52768 6.15332C3.3088 6.71925 3.16047 7.36553 3.11871 8.31191C3.07724 9.26003 3.06773 9.56243 3.07236 11.9762C3.07696 14.3897 3.08761 14.6926 3.13282 15.641C3.17804 16.5866 3.32896 17.2323 3.55015 17.7971C3.77824 18.3814 4.08322 18.8765 4.57829 19.3696C5.07308 19.8626 5.5696 20.1653 6.15481 20.3917C6.72016 20.6103 7.36671 20.7592 8.31281 20.8006C9.2609 20.8424 9.56358 20.8516 11.9767 20.847C14.3911 20.8424 14.6937 20.8317 15.6418 20.7868C16.5876 20.7416 17.233 20.5901 17.7981 20.3695C18.3825 20.1408 18.8778 19.8364 19.3706 19.3413C19.8633 18.8465 20.1663 18.35 20.3924 17.7648C20.6113 17.1994 20.7602 16.5529 20.8014 15.6074C20.8428 14.6587 20.8526 14.3557 20.848 11.9422C20.8434 9.52844 20.8325 9.22604 20.7875 8.27822C20.7426 7.33184 20.5911 6.68642 20.3702 6.12135C20.1419 5.537 19.8372 5.0422 19.3424 4.54885C18.8476 4.05608 18.3511 3.75252 17.7658 3.52701C17.2002 3.30813 16.5539 3.15894 15.6078 3.11804C14.6598 3.07599 14.3571 3.06678 11.943 3.07139C9.5296 3.07599 9.22692 3.08637 8.27881 3.13187ZM8.3825 19.2008C7.5159 19.163 7.04532 19.019 6.73169 18.8984C6.31639 18.7377 6.02004 18.545 5.70813 18.2354C5.3968 17.9246 5.20355 17.6291 5.04141 17.2147C4.91957 16.9011 4.77299 16.431 4.73238 15.5644C4.68831 14.6276 4.67824 14.3465 4.67392 11.973C4.66931 9.60016 4.67794 9.31906 4.71885 8.38132C4.75599 7.51529 4.90087 7.04412 5.02124 6.73077C5.18194 6.31489 5.37403 6.01911 5.68422 5.7072C5.99497 5.39529 6.29045 5.20262 6.70518 5.04047C7.01852 4.91807 7.48855 4.77262 8.35485 4.73145C9.2923 4.68709 9.57309 4.67759 11.9459 4.67298C14.3193 4.66836 14.6004 4.67672 15.5382 4.71791C16.4042 4.75563 16.8753 4.89906 17.1884 5.02031C17.604 5.18101 17.9003 5.37254 18.212 5.6833C18.5236 5.99406 18.7168 6.28897 18.879 6.70456C19.0014 7.01704 19.1468 7.48764 19.1877 8.35367C19.2323 9.29113 19.2424 9.57222 19.2467 11.9451C19.2513 14.3185 19.2427 14.5996 19.2015 15.5368C19.1638 16.4034 19.0201 16.8743 18.8991 17.1882C18.7384 17.6032 18.5463 17.8996 18.2358 18.2115C17.9254 18.5222 17.6299 18.7161 17.2149 18.8782C16.9021 19.0003 16.4315 19.1461 15.5658 19.1872C14.6284 19.2313 14.3476 19.2414 11.9739 19.2457C9.60102 19.2503 9.32023 19.2414 8.3825 19.2008ZM15.6289 7.20771C15.63 7.79639 16.1087 8.27304 16.6974 8.27188C17.2863 8.27073 17.763 7.79236 17.7621 7.20367C17.7609 6.61499 17.2823 6.13806 16.6933 6.13921C16.1044 6.14036 15.6277 6.61902 15.6289 7.20771ZM7.39611 11.9678C7.40099 14.4887 9.44839 16.5278 11.9687 16.5229C14.4893 16.518 16.5295 14.4712 16.5246 11.9503C16.5197 9.43024 14.472 7.39001 11.9511 7.39491C9.43081 7.3998 7.3912 9.44752 7.39611 11.9678ZM8.99709 11.9647C8.99421 10.3285 10.3184 8.99938 11.9543 8.9965C13.5904 8.99334 14.9198 10.317 14.923 11.9534C14.9262 13.5899 13.6019 14.9187 11.9655 14.9219C10.3297 14.9251 9.00025 13.6011 8.99709 11.9647Z" fill="#000008"/>
</mask>
<g mask="url(#mask0_1925_42596)">
<rect x="2.3269" y="2.32617" width="19.3556" height="19.3556" fill="url(#paint0_radial_1925_42596)"/>
<g filter="url(#filter0_f_1925_42596)">
<ellipse cx="5.9491" cy="1.5895" rx="11.1667" ry="7.81667" transform="rotate(-14.9317 5.9491 1.5895)" fill="#7334FF"/>
</g>
<g filter="url(#filter1_f_1925_42596)">
<circle cx="21.0622" cy="2.45059" r="10.5463" fill="#B202F5"/>
</g>
<g filter="url(#filter2_f_1925_42596)">
<circle cx="6.04906" cy="19.6977" r="5.95556" fill="#FFB401"/>
</g>
</g>
<defs>
<filter id="filter0_f_1925_42596" x="-41.8788" y="-43.3441" width="95.6558" height="89.868" filterUnits="userSpaceOnUse" color-interpolation-filters="sRGB">
<feFlood flood-opacity="0" result="BackgroundImageFix"/>
<feBlend mode="normal" in="SourceGraphic" in2="BackgroundImageFix" result="shape"/>
<feGaussianBlur stdDeviation="18.425" result="effect1_foregroundBlur_1925_42596"/>
</filter>
<filter id="filter1_f_1925_42596" x="-34.1508" y="-52.7624" width="110.426" height="110.425" filterUnits="userSpaceOnUse" color-interpolation-filters="sRGB">
<feFlood flood-opacity="0" result="BackgroundImageFix"/>
<feBlend mode="normal" in="SourceGraphic" in2="BackgroundImageFix" result="shape"/>
<feGaussianBlur stdDeviation="22.3333" result="effect1_foregroundBlur_1925_42596"/>
</filter>
<filter id="filter2_f_1925_42596" x="-35.6398" y="-21.9911" width="83.3778" height="83.3768" filterUnits="userSpaceOnUse" color-interpolation-filters="sRGB">
<feFlood flood-opacity="0" result="BackgroundImageFix"/>
<feBlend mode="normal" in="SourceGraphic" in2="BackgroundImageFix" result="shape"/>
<feGaussianBlur stdDeviation="17.8667" result="effect1_foregroundBlur_1925_42596"/>
</filter>
<radialGradient id="paint0_radial_1925_42596" cx="0" cy="0" r="1" gradientUnits="userSpaceOnUse" gradientTransform="translate(10.0195 20.8132) rotate(-61.8868) scale(10.269)">
<stop stop-color="#FFD502"/>
<stop offset="0.869374" stop-color="#FF1154"/>
</radialGradient>
</defs>
</svg>
