<svg id="5f644dbb-ed48-47f1-be71-e68d3bfa52e7" data-name="Layer 1" xmlns="http://www.w3.org/2000/svg" xmlns:xlink="http://www.w3.org/1999/xlink" width="1006.98" height="889.13" viewBox="0 0 1006.98 889.13"><defs><linearGradient id="0bbb0783-00db-46b0-92e3-e6ca2c0b643f" x1="436.86" y1="827.5" x2="436.86" y2="266.81" gradientUnits="userSpaceOnUse"><stop offset="0" stop-color="gray" stop-opacity="0.25"/><stop offset="0.54" stop-color="gray" stop-opacity="0.12"/><stop offset="1" stop-color="gray" stop-opacity="0.1"/></linearGradient><linearGradient id="307dda9f-981d-4ff4-9930-3a0d53b6cae3" x1="729.55" y1="449.33" x2="729.55" y2="-37.39" gradientTransform="translate(-70.12 529.44) rotate(-34.67)" xlink:href="#0bbb0783-00db-46b0-92e3-e6ca2c0b643f"/><linearGradient id="7f05ddf0-0286-4412-8910-1e0b2c479f08" x1="752.36" y1="126.67" x2="752.36" y2="59.43" gradientTransform="translate(-70.12 529.44) rotate(-34.67)" xlink:href="#0bbb0783-00db-46b0-92e3-e6ca2c0b643f"/></defs><title>gdpr</title><path d="M97,468.18c3,33.76,22.14,64.32,33.82,96.47a228.68,228.68,0,0,1,4.45,142c-2.78,9.58-6.21,19.19-6.21,29,0,33.82,38.53,56.27,73.54,71.2a1340.62,1340.62,0,0,0,276.82,83.64c31.07,5.87,69.88,8.4,89.54-13.67,9.44-10.6,11.72-24.44,18.65-36.33,17.67-30.31,60.67-42.1,99.26-48.84a1212.54,1212.54,0,0,1,140.67-16.19c47.48-2.67,101.39-5,132.86-36.17,20-19.82,25.82-47.17,26.62-73,2.61-84.74-37.88-176.44,14.09-249.83,21.79-30.78,57.37-53.26,79-84.13,31.31-44.73,28.61-101.54,7.41-149.21s-58.75-88.2-95.76-127.92C979.46,42.06,966.4,28.4,948,22.31c-19.13-6.34-40.82-3.43-61.33-.43C793.39,35.5,696.54,50.33,618.3,97.11c-38.86,23.23-71.32,53.36-106,81.07C437.44,238.06,350.67,293.36,251.79,317,171.45,336.2,89.73,388,97,468.18Z" transform="translate(-96.51 -5.43)" fill="#673fbd" opacity="0.1"/><path d="M540.77,473.09a15.42,15.42,0,0,1,1.46-.66S501,449.2,489.52,442.75a96.8,96.8,0,0,1-11.84-8.33c14.34-5.2,34.4-14.49,45-28.44,0,0-3-2.5-6.85-6.13l4.14-4.84s21.62-17.42,6.76-26.45c-12.08-7.34-19.7,12.15-22.13,19.72l-.85-1s-23.26,35.53-54.63,17.86a43,43,0,0,1-4.84-8.83,39.93,39.93,0,0,0-11-15.42l-3.19-12.33-5.69-4.69c0-6.74.22-14.85,1-22q.07-.68.15-1.35c11-4.37,18.76-14.73,18.76-26.82a27.82,27.82,0,0,0-2.84-12.26c4.45-5.09,7.68-12,6.72-18-.75-4.65-4.72-7.68-9.48-9.82-4.58-2.32-10.18-3.68-14.37-4.82-7.71-2.09-16.13-3.08-23.63-.37-12.4,4.47-20.06,9.62-29.7,18.31-7.62,6.87-16,18.83-25,24S328.2,322.61,324.71,332c-4.92,13.28,1.82,27.55,4.86,41.33a79.42,79.42,0,0,1-3.82,46.43c-5.9,14.75-16.45,29.16-13.86,44.75,2,11.84,11.37,21,22.9,26.29A57.8,57.8,0,0,0,351,496c9.71,1.59,20.08,1.08,29.05-2.59a107.73,107.73,0,0,1-16.21,30c-6.65,8.46-6,13.06-.12,13.5q-.31,1.19-.58,2.53c-1.91,9.37-2.52,24.7.7,49.78,8.11,63.23-9.46,82.58-9.46,82.58s1.88.66,5.28,1.64q-.21.57-.42,1.17c-3.72,10.56-7.24,29.16-.12,54,7.67,26.7,9.92,39,10.57,44.28l0,.31c-.77.3-3.57,1.63-5.63,5.78a16.42,16.42,0,0,0,2.46,18v24.5h3.38V800.83a58.32,58.32,0,0,1,7.57,11.51,26.11,26.11,0,0,0,20.14,14.26c8.7,1.18,18.3,1.61,22.3-1.26,0,0,3-5.65-11.35-12.5l-.12-.18c-4.72-6.88-12-18.82-13.1-28.19a78.33,78.33,0,0,0-3.7-16.89h0A49.62,49.62,0,0,1,389,754.83c-1-13.29-2.74-42.42-.16-48.85,1.74-4.33,2.77-15.2,3.35-24.7,0-.43.05-.86.08-1.28a188.88,188.88,0,0,0,45.23.33v6.3s-6.08,19.36,6.08,47.1c0,0,16.49,25.19,20.22,40.07q.16.64.29,1.25c-2.21.26-11.95,2.55-8.34,23.19l-.68,27.1h3.38l.68-23.87s3.38-5.81,14.87,6.45q2.61,2.79,4.72,5.17a41.93,41.93,0,0,0,32.82,13.84c7.38-.26,14.43-1,17.19-2.88,0,0,6.76-5.16-10.14-7.74L510.81,814l-.29,0-1.11-1.24c-5.9-6.68-14.47-18-16.66-29.5a53,53,0,0,0-3.66-11.52l-6.32-14.22L467.9,681.46s.78-3.34,1.54-7.43c.08-.45.17-.92.25-1.38l2.26-.87s13.52-9.68-6.76-68.39c0,0-7.88-32.7-11.87-58.75l9.84-1.89s-1.52-23-4.55-39c2-7.5,3.1-14,1.85-17.18a29.93,29.93,0,0,1-1.72-9,206.09,206.09,0,0,0-2.23-20.71l12.73,9,64.2,31c-2.46-5.06-2.85-9.21-2.14-12.56,4.68,6.69,17.1,21.62,27.82,9.33C570.06,481.2,549.16,475,540.77,473.09Z" transform="translate(-96.51 -5.43)" fill="url(#0bbb0783-00db-46b0-92e3-e6ca2c0b643f)"/><path d="M531.63,473.3s33.09,5.73,20.36,21-28-12.09-28-12.09Z" transform="translate(-96.51 -5.43)" fill="#f8bdc5"/><path d="M421.54,374.67s16.54,7.64,22.27,23.54,31.82,39.45,42.63,45.82,49.63,29.27,49.63,29.27-16.54,6.36-8.27,24.18l-60.45-30.54L440,446.58Z" transform="translate(-96.51 -5.43)" fill="#575988"/><path d="M421.54,374.67s16.54,7.64,22.27,23.54,31.82,39.45,42.63,45.82,49.63,29.27,49.63,29.27-16.54,6.36-8.27,24.18l-60.45-30.54L440,446.58Z" transform="translate(-96.51 -5.43)" opacity="0.1"/><path d="M678.25,7.9s-72.88-26.62-150.38,95.21c0,0-32.58,68-105.38,67.73l-7.8-17.78L400,158.83l197,450,14.86-4.77L519.08,390.92c30.78-2.36,99.37-24.52,161.93-162.65,0,0,56.2-104.9,138.5-92.5Z" transform="translate(-96.51 -5.43)" fill="url(#307dda9f-981d-4ff4-9930-3a0d53b6cae3)"/><path d="M410.51,172.8,506,388.74s92.6,22.6,174.6-158.44c0,0,55-102.61,135.48-90.48L677.94,14.73s-71.3-26-147.1,93.14C530.83,107.87,493.85,185.12,410.51,172.8Z" transform="translate(-96.51 -5.43)" fill="#5d76b7"/><polygon points="435.62 142.44 440.26 155.38 431.33 164.25 441.74 162.97 445.63 174.81 448.71 161.37 458.4 160.59 449.81 153.62 451.8 140.94 444.21 149.42 435.62 142.44" fill="#ffd037"/><polygon points="455.1 103.68 459.23 115.89 451.42 125.6 460.71 123.47 465.69 134.56 466.93 120.79 477.09 119.14 468.28 113.4 470.16 101.33 463.91 109.42 455.1 103.68" fill="#ffd037"/><polygon points="484.53 80.09 489 90.45 481.33 101.14 490.49 98.04 494.96 108.4 497.93 95.58 508.46 93.68 498.66 88.07 502 75 493.82 84.96 484.53 80.09" fill="#ffd037"/><polygon points="517.42 79.4 521.9 89.76 512.6 98.89 523.24 96.37 527.35 106.98 530.69 93.91 541.47 92.38 532.68 88.23 535.76 74.79 526.72 84.28 517.42 79.4" fill="#ffd037"/><polygon points="544.77 98.7 549.24 109.06 539.95 118.19 550.59 115.67 554.7 126.28 558.03 113.21 568.81 111.68 560.02 107.53 563.11 94.09 554.06 103.58 544.77 98.7" fill="#ffd037"/><polygon points="559.4 128.41 563.87 138.77 554.58 147.9 565.21 145.38 569.33 155.99 572.66 142.92 583.44 141.39 574.65 137.24 577.74 123.8 568.69 133.29 559.4 128.41" fill="#ffd037"/><polygon points="552.35 175.81 557.33 186.9 548.48 200.56 559.2 195.83 563.79 205.57 566.01 191.66 577.35 187.04 567.33 182.67 569.43 169.38 562.6 178.95 552.35 175.81" fill="#ffd037"/><polygon points="536.29 220.29 540.18 232.13 532.42 245.03 542.78 240.56 547.14 251.54 549.22 236.64 558.96 232.06 550.17 227.91 552.5 213.38 545.19 223.82 536.29 220.29" fill="#ffd037"/><polygon points="505.57 247.46 509.59 260.28 500.21 271.62 509.5 269.49 513.62 280.11 516.7 266.67 526.33 262.7 518.75 257.18 520.83 242.29 513.77 253.09 505.57 247.46" fill="#ffd037"/><polygon points="473.85 252.18 477.51 265.25 467.7 273.65 477.64 273.23 480.52 283.62 484.36 271.27 495.25 269.12 487.28 262.26 489.16 250.19 482.05 257.81 473.85 252.18" fill="#ffd037"/><polygon points="445.07 228.48 448.85 240.94 436.83 249.25 449.49 249.65 451.92 262.5 456.71 248.42 468.61 247.72 459.66 241 463.44 225.46 452.8 234.98 445.07 228.48" fill="#ffd037"/><polygon points="433.78 185.7 437.56 198.16 425.54 206.47 438.2 206.86 440.63 219.72 445.42 205.63 457.32 204.94 448.36 198.22 452.15 182.68 441.51 192.19 433.78 185.7" fill="#ffd037"/><path d="M636.68,183.14l-22-24.47a3.83,3.83,0,0,0-5.41-.29L607.5,160l-9.2-10.25a9.75,9.75,0,0,0-13.77-.74l-12,10.77a9.75,9.75,0,0,0-.74,13.77l9.2,10.25-1.79,1.61a3.83,3.83,0,0,0-.29,5.41l22,24.47a3.83,3.83,0,0,0,5.41.29l30.08-27A3.83,3.83,0,0,0,636.68,183.14ZM576.07,173a9.75,9.75,0,0,1,.74-13.77l6.75-6.06a9.75,9.75,0,0,1,13.77.74l7.55,8.41-21.26,19.08Zm34.08,13.86,3.56,4a2.14,2.14,0,1,1-3.19,2.87l-3.76-4.19a5.2,5.2,0,1,1,3.39-2.65Z" transform="translate(-96.51 -5.43)" fill="url(#7f05ddf0-0286-4412-8910-1e0b2c479f08)"/><path d="M585.31,150.45l-11.39,10.23a9.26,9.26,0,0,0-.7,13.08l9.65,10.75,2.49-2.24-8.08-9a9.26,9.26,0,0,1,.7-13.08l6.41-5.75a9.26,9.26,0,0,1,13.08.7l8.08,9,2.49-2.24-9.65-10.75A9.26,9.26,0,0,0,585.31,150.45Z" transform="translate(-96.51 -5.43)" fill="#f0f5fa"/><path d="M608.82,159.37,580.25,185a3.64,3.64,0,0,0-.28,5.14l20.87,23.24a3.64,3.64,0,0,0,5.14.28L634.56,188a3.64,3.64,0,0,0,.28-5.14L614,159.65A3.64,3.64,0,0,0,608.82,159.37Zm.81,27.05,3.38,3.77a2,2,0,1,1-3,2.72l-3.57-4a4.94,4.94,0,1,1,3.22-2.51Z" transform="translate(-96.51 -5.43)" fill="#f0f5fa"/><polygon points="309.21 156.95 501.22 595.5 515.75 590.83 323.61 151.3 309.21 156.95" fill="#f0f5fa"/><path d="M499.81,393.12s7.64-31.18,21.64-22.27-6.36,26.09-6.36,26.09l-5.73,7Z" transform="translate(-96.51 -5.43)" fill="#f8bdc5"/><polygon points="326.69 359.16 333.94 365.42 337 377.84 332.03 374.96 332.03 365.42 326.68 364.78 326.69 359.16" fill="#dedff7"/><polygon points="326.69 359.16 333.94 365.42 337 377.84 332.03 374.96 332.03 365.42 326.68 364.78 326.69 359.16" opacity="0.1"/><path d="M444.77,490.48,449,545.21l12.65-2.55s-2.81-44.54-8.43-52.18S444.77,490.48,444.77,490.48Z" transform="translate(-96.51 -5.43)" fill="#575988"/><path d="M444.77,490.48,449,545.21l12.65-2.55s-2.81-44.54-8.43-52.18S444.77,490.48,444.77,490.48Z" transform="translate(-96.51 -5.43)" opacity="0.1"/><path d="M413.9,814.38l-20.36,3.18-11.45-8.91-8.27-26.09V773a21.06,21.06,0,0,0-.23-3.42c-.61-5.17-2.73-17.33-10-43.67-6.71-24.47-3.39-42.81.11-53.22a47.11,47.11,0,0,1,4.34-9.77h27.36s-.15,7.59-.66,16.36c-.55,9.37-1.51,20.1-3.16,24.37-2.44,6.34-.77,35.07.15,48.18a51,51,0,0,0,2.49,12.56h0a80.4,80.4,0,0,1,3.49,16.66c1,9.25,7.89,21,12.33,27.81C412.3,812.24,413.9,814.38,413.9,814.38Z" transform="translate(-96.51 -5.43)" fill="#f8bdc5"/><path d="M510.63,815l-8.91,2.55-17.18-7L462.9,787.65V774.93a24.28,24.28,0,0,0-.69-4.38c-3.51-14.68-19-39.52-19-39.52-11.45-27.36-5.73-46.45-5.73-46.45V664.84s29.91-10.18,31.18-6.36c.71,2.14-.18,8.51-1.09,13.67-.72,4-1.45,7.32-1.45,7.32l14,75.09,5.95,14a54,54,0,0,1,3.44,11.36c2.07,11.31,10.14,22.5,15.69,29.09C508.3,812.76,510.63,815,510.63,815Z" transform="translate(-96.51 -5.43)" fill="#f8bdc5"/><path d="M413.9,814.38l-20.36,3.18-11.45-8.91-8.27-26.09V773a21.06,21.06,0,0,0-.23-3.42,4.76,4.76,0,0,1,.87-.4s2.55,9.55,1.27,14c-1,3.55,7.67,16.81,11.24,22A15.07,15.07,0,0,0,394.3,811c6.95,2.46,13.62-.86,15.8-2.14C412.3,812.24,413.9,814.38,413.9,814.38Z" transform="translate(-96.51 -5.43)" opacity="0.1"/><path d="M410.21,809s-8.06,5.62-16.55,2.61a15.06,15.06,0,0,1-7.33-5.78c-3.57-5.23-12.26-18.49-11.24-22,1.27-4.45-1.27-14-1.27-14s-3.23,1-5.5,5.78a16.81,16.81,0,0,0,2.32,17.78v24.16h3.18V797.21a57.84,57.84,0,0,1,7.13,11.35,24.67,24.67,0,0,0,19,14.06c8.19,1.16,17.23,1.59,21-1.24C420.9,821.38,423.7,815.81,410.21,809Z" transform="translate(-96.51 -5.43)" fill="#575988"/><path d="M510.63,815l-8.91,2.55-17.18-7L462.9,787.65V774.93a24.28,24.28,0,0,0-.69-4.38,4.71,4.71,0,0,1,.69-.07c0,3.31,5.64,11.19,9.6,16.3a99.84,99.84,0,0,1,5.77,8.35c8.24,13.28,22.51,14,26.9,13.92C508.3,812.76,510.63,815,510.63,815Z" transform="translate(-96.51 -5.43)" opacity="0.1"/><path d="M462.9,771.74s-12.09,0-8.27,22.91L454,821.38h3.18l.64-23.54s3.18-5.73,14,6.36q2.46,2.75,4.45,5.1a38.65,38.65,0,0,0,30.91,13.65c6.94-.26,13.59-1,16.19-2.84,0,0,6.36-5.09-9.55-7.64l-7.32-2.23s-18.39,2-28.22-13.85A98.87,98.87,0,0,0,472.5,788C468.55,782.93,462.9,775.05,462.9,771.74Z" transform="translate(-96.51 -5.43)" fill="#575988"/><path d="M368.09,662.93h27.36s-.15,7.59-.66,16.36a193.24,193.24,0,0,1-31-6.59A47.11,47.11,0,0,1,368.09,662.93Z" transform="translate(-96.51 -5.43)" opacity="0.1"/><path d="M467.53,672.15a126.66,126.66,0,0,1-30.09,7.48V664.84s29.91-10.18,31.18-6.36C469.34,660.62,468.45,667,467.53,672.15Z" transform="translate(-96.51 -5.43)" opacity="0.1"/><path d="M469.9,669.93c-52.18,21.64-110.72,0-110.72,0s16.54-19.09,8.91-81.45c-3-24.73-2.46-39.85-.66-49.1,2.73-14.07,8.29-14.53,8.29-14.53l75.09-8.91c-.67,2.55-.71,6.85-.34,12.2,1.79,25.34,13.06,74.34,13.06,74.34C482.63,660.39,469.9,669.93,469.9,669.93Z" transform="translate(-96.51 -5.43)" fill="#575988"/><path d="M429.81,328.85c-1.94,2.91-3.11,8.85-3.81,15.69-1.57,15.58-.65,35.85-.65,35.85s-38.82,21-29.91-6.36A68.36,68.36,0,0,0,391,323.13S436.18,319.31,429.81,328.85Z" transform="translate(-96.51 -5.43)" fill="#f8bdc5"/><path d="M429.81,328.85c-1.94,2.91-3.11,8.85-3.81,15.69a28.64,28.64,0,0,1-29-4.4,65.09,65.09,0,0,0-6-17S436.18,319.31,429.81,328.85Z" transform="translate(-96.51 -5.43)" opacity="0.1"/><circle cx="318.66" cy="311.33" r="28.64" fill="#f8bdc5"/><path d="M450.47,528.14c-3.49,9.58-6.66,17.07-6.66,17.07S413.9,519.75,391,531.85c-10.81,5.7-19.06,8.15-23.56,7.53,2.73-14.07,8.29-14.53,8.29-14.53l75.09-8.91C450.14,518.49,450.1,522.78,450.47,528.14Z" transform="translate(-96.51 -5.43)" opacity="0.1"/><path d="M443.81,542.66S413.9,517.21,391,529.3s-34.36,9.55-22.91-5.73,26.73-47.73,15.27-71.91-15.91-62.36-7-72.54,17.18-21.64,17.18-24.18c0,0,32.45,23.54,38.82,33.09,1.83,2.74,4.82,9.74,8.14,18.33,1.79,4.64,3.69,9.74,5.56,14.88a189.19,189.19,0,0,1,7.1,24.7,208.84,208.84,0,0,1,4.31,32.5,30.76,30.76,0,0,0,1.62,8.86C462.9,497.48,443.81,542.66,443.81,542.66Z" transform="translate(-96.51 -5.43)" fill="#575988"/><path d="M430.45,371.49l-.75,13.28-36.74-28s-.7-5.62,8.85.1S430.45,371.49,430.45,371.49Z" transform="translate(-96.51 -5.43)" fill="#dedff7"/><path d="M453.15,445.94c-33.61.62-71.7-36.91-71.7-36.91-13.36-35.63,31.82-28,31.82-28s3.72,9.58,27.23,25.33c1.79,4.64,3.69,9.74,5.56,14.88A189.19,189.19,0,0,1,453.15,445.94Z" transform="translate(-96.51 -5.43)" opacity="0.1"/><path d="M381.45,404.58s43.27,42.63,78.27,36.27c0,0,41.36-10.18,57.91-33.09,0,0-10.82-9.55-17.82-18.45,0,0-22.27,35.63-52.18,17.18s-34.36-29.91-34.36-29.91S368.09,368.94,381.45,404.58Z" transform="translate(-96.51 -5.43)" fill="#575988"/><path d="M426.28,273.13c-7.26-2.06-15.19-3-22.25-.37-11.68,4.41-18.89,9.49-28,18.06-7.18,6.77-15.08,18.57-23.53,23.65s-16.71,11.7-20,21c-4.63,13.1,1.71,27.17,4.58,40.76a81.81,81.81,0,0,1-3.6,45.79c-5.56,14.54-15.49,28.76-13,44.14,2.61,16.45,19.12,27.61,35.53,30.42,11.18,1.92,23.28.74,32.78-5.44a20,20,0,0,0,6.6-6.5c4.05-7,1.39-15.81-1.11-23.51-5.12-15.77-9.16-31.87-13.21-47.95-2.36-9.39-4.7-19.46-1.36-28.55,3.26-8.87,11.39-15.08,19.89-19.22,3.33-1.62,6.88-3.08,9.38-5.8a16.13,16.13,0,0,0,3.13-5.31c4.28-11.41-.52-26.13,7.74-35.1,4.2-4.56,10.67-6.14,15.85-9.55,6.54-4.31,13-14.49,11.77-22.75C446.13,278.2,433.79,275.26,426.28,273.13Z" transform="translate(-96.51 -5.43)" opacity="0.1"/><path d="M425,272.49c-7.26-2.06-15.19-3-22.25-.37-11.68,4.41-18.89,9.49-28,18.06-7.18,6.77-15.08,18.57-23.53,23.65s-16.71,11.7-20,21c-4.63,13.1,1.71,27.17,4.58,40.76a81.81,81.81,0,0,1-3.6,45.79c-5.56,14.54-15.49,28.76-13,44.14,2.61,16.45,19.12,27.61,35.53,30.42,11.18,1.92,23.28.74,32.78-5.44a20,20,0,0,0,6.6-6.5c4.05-7,1.39-15.81-1.11-23.51-5.12-15.77-9.16-31.87-13.21-47.95-2.36-9.39-4.7-19.46-1.36-28.55,3.26-8.87,11.39-15.08,19.89-19.22,3.33-1.62,6.88-3.08,9.38-5.8a16.13,16.13,0,0,0,3.13-5.31c4.28-11.41-.52-26.13,7.74-35.1,4.2-4.56,10.67-6.14,15.85-9.55,6.54-4.31,13-14.49,11.77-22.75C444.86,277.57,432.52,274.62,425,272.49Z" transform="translate(-96.51 -5.43)" fill="#eb6475"/><path d="M209.19,686.35s-13.26-45,2.49-78.14a71.09,71.09,0,0,0,5.75-44.6,119.57,119.57,0,0,0-6.31-20.93" transform="translate(-96.51 -5.43)" fill="none" stroke="#535461" stroke-miterlimit="10" stroke-width="2"/><path d="M220.9,521.74c0,5.52-10,21.51-10,21.51s-10-16-10-21.51a10,10,0,0,1,20,0Z" transform="translate(-96.51 -5.43)" fill="#673fbd"/><path d="M237.41,552.29c-3,4.63-20.08,12.63-20.08,12.63s.31-18.86,3.31-23.49a10,10,0,0,1,16.77,10.86Z" transform="translate(-96.51 -5.43)" fill="#673fbd"/><path d="M236.69,604.51c-4.93,2.48-23.71.77-23.71.77s9.79-16.12,14.71-18.6a10,10,0,0,1,9,17.84Z" transform="translate(-96.51 -5.43)" fill="#673fbd"/><path d="M227.25,643.9c-4.44,3.28-23.24,4.76-23.24,4.76s6.92-17.54,11.36-20.82a10,10,0,0,1,11.88,16.06Z" transform="translate(-96.51 -5.43)" fill="#673fbd"/><path d="M196.37,566c4,3.84,22.39,7.83,22.39,7.83s-4.51-18.31-8.47-22.15A10,10,0,1,0,196.37,566Z" transform="translate(-96.51 -5.43)" fill="#673fbd"/><path d="M185.91,612.19c4.93,2.48,23.71.77,23.71.77s-9.79-16.12-14.71-18.6a10,10,0,1,0-9,17.84Z" transform="translate(-96.51 -5.43)" fill="#673fbd"/><path d="M181.9,658.49c4.44,3.28,23.24,4.76,23.24,4.76s-6.92-17.54-11.36-20.82a10,10,0,0,0-11.88,16.06Z" transform="translate(-96.51 -5.43)" fill="#673fbd"/><path d="M577.66,814.74a11.67,11.67,0,0,0,3.83-5.78c.5-2.3-.48-5.05-2.68-5.89-2.46-.94-5.09.76-7.08,2.49s-4.28,3.69-6.89,3.32a10.48,10.48,0,0,0,3.24-9.81,4.1,4.1,0,0,0-.9-2c-1.37-1.46-3.84-.83-5.48.32-5.2,3.66-6.65,10.72-6.68,17.08-.52-2.29-.08-4.68-.1-7s-.66-5-2.64-6.22a8,8,0,0,0-4-.95c-2.34-.09-4.94.15-6.54,1.86-2,2.12-1.47,5.69.26,8s4.35,3.8,6.77,5.42a15,15,0,0,1,4.84,4.61,4.57,4.57,0,0,1,.36.82h14.65A40.83,40.83,0,0,0,577.66,814.74Z" transform="translate(-96.51 -5.43)" fill="#673fbd"/><path d="M774.38,433.87s-41.84,41.84-18.22,103.92-40.49,165.32-40.49,165.32.69-.1,2-.32c85.93-15.17,128.62-113.44,80.84-186.45C780.71,489.19,766.13,457.35,774.38,433.87Z" transform="translate(-96.51 -5.43)" fill="#673fbd"/><path d="M774.38,434.56s-41.84,41.84-18.22,103.92S715.67,703.8,715.67,703.8s.69-.1,2-.32C803.56,688.31,846.25,590,798.47,517,780.71,489.89,766.13,458,774.38,434.56Z" transform="translate(-96.51 -5.43)" opacity="0.1"/><path d="M774.38,433.87s-23.62,51.28,0,93.12,4,159.25-58.71,176.12" transform="translate(-96.51 -5.43)" fill="none" stroke="#535461" stroke-miterlimit="10"/><path d="M848.89,603.08s-47.74-7.6-52.09,35.18S705,687,705,687l1.64,1.09c72.2,47.4,141.23,30.19,130.82-32.75C833.6,631.93,833.91,608.43,848.89,603.08Z" transform="translate(-96.51 -5.43)" fill="#673fbd"/><path d="M848.89,603.08s-37.06,8.13-34,41.83S759.85,719,705,687" transform="translate(-96.51 -5.43)" fill="none" stroke="#535461" stroke-miterlimit="10"/><path d="M806.89,688.54S769.29,681,759.26,671s-55.15-27.57-60.16-15S631.42,711.1,674,718.62s100.27,10,112.8,5S806.89,688.54,806.89,688.54Z" transform="translate(-96.51 -5.43)" fill="#a8a8a8"/><path d="M674,714c42.62,7.52,100.27,10,112.8,5,9.55-3.82,16.18-22.16,18.8-30.7l1.25.26s-7.52,30.08-20.05,35.09-70.19,2.51-112.8-5c-12.3-2.17-15.82-7.27-14.49-13.72C660.59,709.11,664.88,712.35,674,714Z" transform="translate(-96.51 -5.43)" opacity="0.2"/><path d="M179.36,683.8s22.41-.69,29.16-5.5,34.47-10.55,36.14-2.84S278.33,713.82,253,714s-58.78-3.94-65.52-8S179.36,683.8,179.36,683.8Z" transform="translate(-96.51 -5.43)" fill="#a8a8a8"/><path d="M253.48,711.34c-25.3.2-58.78-3.94-65.52-8-5.13-3.13-7.18-14.34-7.86-19.52l-.75,0s1.42,18.07,8.16,22.18,40.22,8.25,65.52,8c7.3-.06,9.82-2.66,9.69-6.5C261.7,709.84,258.92,711.29,253.48,711.34Z" transform="translate(-96.51 -5.43)" opacity="0.2"/></svg>