<svg xmlns="http://www.w3.org/2000/svg" width="700" height="350" viewBox="0 0 700 350"><style>.shp0{fill:#5629b6}</style><g id="Layer_1"><g id="Layer"><path id="Layer" d="M364.82 177.45C398.77 127.75 430.73 75.13 459.03 20.71C426.82 56.99 388.85 109.78 354.08 161.53C335.65 134.98 313.6 106.52 288.34 79.86C313.37 126.06 326.03 151.49 343.35 177.63C290.68 257.02 247.8 329.35 247.8 329.35C283.91 287.76 319.9 241.97 354.08 193.08C368.73 213.27 387.68 236.13 417.96 270.43C417.9 270.38 399 229.31 364.82 177.45Z" class="shp0"/><g id="Layer"><path id="Layer" fill-rule="evenodd" d="M40.54 177.8C40.54 153.3 46.38 134.05 58.04 120.11C69.71 106.17 86.68 99.17 109.03 99.17C119.58 99.17 128.68 100.8 136.38 104.13C144.08 107.39 150.5 111.83 155.69 117.31C160.88 122.79 164.73 129.21 167.18 136.62C169.69 143.97 170.92 151.84 170.92 160.24C170.92 162.22 170.86 164.21 170.74 166.08C170.63 168 170.51 169.93 170.28 171.91C159.48 171.73 148.87 171.5 138.25 171.33C127.69 171.15 117.02 171.03 106.22 171.03C99.63 171.03 93.1 171.15 86.62 171.33C80.15 171.5 73.62 171.73 67.02 171.91C66.85 172.9 66.73 174.42 66.73 176.4L66.73 180.31C66.73 188.07 67.9 195.36 70.17 202.12C72.45 208.89 75.83 214.72 80.21 219.62C84.58 224.52 89.95 228.37 96.37 231.29C102.72 234.21 110.13 235.61 118.47 235.61C122.44 235.61 126.52 235.08 130.72 233.97C134.92 232.87 139.01 231.41 142.97 229.48C146.94 227.62 150.67 225.34 154.17 222.77C157.67 220.21 160.71 217.41 163.28 214.37L164.79 215.25L162.98 229.89C156.97 234.67 149.57 238.76 140.7 242.14C131.83 245.53 122.62 247.22 113.05 247.22C102.26 247.22 92.46 245.58 83.59 242.26C74.73 238.99 67.02 234.21 60.55 227.91C54.07 221.61 49.06 214.2 45.62 205.62C42.29 197.05 40.54 187.78 40.54 177.8ZM109.61 108.73C102.26 108.73 96.02 110.43 90.94 113.81C85.87 117.19 81.67 121.45 78.4 126.53C75.13 131.6 72.63 137.2 70.93 143.27C69.24 149.33 68.19 155.05 67.78 160.48C73.97 160.65 80.38 160.88 87.09 161.06C93.74 161.23 100.28 161.35 106.69 161.35C113.28 161.35 119.93 161.23 126.7 161.06C133.47 160.88 140.06 160.65 146.42 160.48C146.42 155.11 145.95 149.39 145.07 143.44C144.2 137.43 142.39 131.89 139.71 126.7C137.03 121.51 133.29 117.25 128.51 113.87C123.67 110.43 117.43 108.73 109.61 108.73Z" class="shp0"/><path id="Layer" d="M265.01 123.38C262.09 122.38 259.18 121.86 256.2 121.86C251.42 121.86 247.1 122.97 243.37 125.13C239.58 127.34 236.37 130.26 233.8 133.93C231.23 137.61 229.19 141.98 227.79 147.12C226.39 152.19 225.69 157.62 225.69 163.39L225.69 196.29C225.69 209.65 225.75 219.86 225.87 226.92C225.98 233.97 226.33 239.75 226.92 244.12C222.95 243.72 218.93 243.54 214.96 243.54C210.58 243.54 206.38 243.72 202.42 244.12C203 237.36 203.35 228.14 203.47 216.47C203.58 204.81 203.64 190.52 203.64 173.54L203.64 163.98C203.64 156.22 203.58 147.23 203.47 137.08C203.35 126.93 203 115.27 202.42 102.08C204.63 102.49 206.68 102.84 208.72 103.13C210.7 103.43 212.8 103.6 215.02 103.6C216.83 103.6 218.69 103.43 220.68 103.13C222.66 102.84 224.76 102.49 226.98 102.08C226.16 109.26 225.75 114.92 225.63 119.12C225.52 123.32 225.46 127.28 225.46 131.08L226.04 131.37C237.83 109.84 250.95 99.05 265.53 99.05C267.34 99.05 268.86 99.17 270.14 99.34C271.43 99.52 273.06 100.04 275.1 100.86C274.11 103.25 273.52 106.87 273.29 111.77C273.12 116.67 273 121.1 273 125.07L270.9 126.58C269.79 125.48 267.87 124.37 265.01 123.38Z" class="shp0"/></g><g id="Layer"><path id="Layer" fill-rule="evenodd" d="M416.03 177.8C416.03 153.3 421.87 134.05 433.53 120.11C445.2 106.17 462.18 99.17 484.52 99.17C495.08 99.17 504.18 100.8 511.88 104.13C519.58 107.39 525.99 111.83 531.18 117.31C536.38 122.79 540.23 129.21 542.68 136.62C545.18 143.97 546.41 151.84 546.41 160.24C546.41 162.22 546.35 164.21 546.23 166.08C546.12 168 546 169.93 545.77 171.91C534.98 171.73 524.36 171.5 513.74 171.33C503.18 171.15 492.51 171.03 481.72 171.03C475.13 171.03 468.59 171.15 462.12 171.33C455.64 171.5 449.11 171.73 442.52 171.91C442.34 172.9 442.23 174.42 442.23 176.4L442.23 180.31C442.23 188.07 443.39 195.36 445.67 202.12C447.94 208.89 451.33 214.72 455.7 219.62C460.08 224.52 465.44 228.37 471.86 231.29C478.22 234.21 485.63 235.61 493.97 235.61C497.93 235.61 502.02 235.08 506.22 233.97C510.42 232.87 514.5 231.41 518.47 229.48C522.43 227.62 526.17 225.34 529.67 222.77C533.17 220.21 536.2 217.41 538.77 214.37L540.28 215.25L538.48 229.89C532.47 234.67 525.06 238.76 516.19 242.14C507.33 245.53 498.11 247.22 488.54 247.22C477.75 247.22 467.95 245.58 459.08 242.26C450.22 238.99 442.52 234.21 436.04 227.91C429.57 221.61 424.55 214.2 421.11 205.62C417.78 197.05 416.03 187.78 416.03 177.8ZM485.1 108.73C477.75 108.73 471.51 110.43 466.43 113.81C461.36 117.19 457.16 121.45 453.89 126.53C450.63 131.6 448.12 137.2 446.43 143.27C444.73 149.33 443.68 155.05 443.28 160.48C449.46 160.65 455.88 160.88 462.58 161.06C469.23 161.23 475.77 161.35 482.18 161.35C488.78 161.35 495.43 161.23 502.19 161.06C508.96 160.88 515.55 160.65 521.91 160.48C521.91 155.11 521.44 149.39 520.57 143.44C519.69 137.43 517.88 131.89 515.2 126.7C512.52 121.51 508.78 117.25 504 113.87C499.16 110.43 492.86 108.73 485.1 108.73Z" class="shp0"/><path id="Layer" d="M580.94 222.95C583.04 225.34 585.55 227.56 588.41 229.66C591.33 231.76 594.59 233.51 598.27 234.91C601.94 236.31 605.91 237.01 610.05 237.01C613.84 237.01 617.46 236.43 620.96 235.2C624.46 233.97 627.55 232.28 630.23 230.13C632.92 227.91 635.08 225.17 636.65 221.73C638.23 218.34 639.04 214.43 639.04 210.06C639.04 203.88 637.29 199.15 633.79 195.83C630.29 192.56 625.98 189.82 620.78 187.78C615.59 185.68 609.93 183.87 603.75 182.23C597.57 180.66 591.91 178.38 586.72 175.53C581.52 172.67 577.21 168.82 573.71 164.03C570.21 159.25 568.46 152.66 568.46 144.32C568.46 137.73 569.57 131.72 571.73 126.23C573.94 120.75 577.09 116.03 581.29 112.06C585.49 108.09 590.68 104.94 596.87 102.67C603.05 100.39 610.11 99.23 618.1 99.23C625.45 99.23 631.69 100.22 636.77 102.2C641.84 104.18 646.68 105.99 651.29 107.57C649.72 110.54 648.2 114.28 646.8 118.65C645.4 123.03 644.53 126.41 644.12 128.8L640.5 128.8C638.93 124.02 635.83 119.76 631.23 115.97C626.62 112.18 620.96 110.31 614.19 110.31C611.22 110.31 608.18 110.83 605.21 111.83C602.23 112.82 599.55 114.33 597.16 116.32C594.77 118.3 592.78 120.93 591.15 124.08C589.58 127.28 588.76 131.08 588.76 135.45C588.76 141.81 590.51 146.77 594.01 150.27C597.51 153.77 601.83 156.51 607.02 158.49C612.21 160.48 617.87 162.23 624.05 163.74C630.23 165.26 635.89 167.36 641.08 170.04C646.28 172.73 650.59 176.46 654.09 181.24C657.59 186.03 659.34 192.62 659.34 200.96C659.34 206.73 658.12 212.45 655.61 217.99C653.1 223.59 649.54 228.61 644.82 233.1C640.15 237.59 634.49 241.09 627.9 243.54C621.31 246.05 613.84 247.28 605.5 247.28C596.34 247.28 588.64 246.4 582.46 244.59C576.27 242.78 571.08 240.68 566.88 238.29C568.05 235.72 569.33 232.17 570.62 227.67C571.9 223.18 572.54 219.45 572.54 216.47L576.16 216.47C577.33 218.4 578.84 220.56 580.94 222.95Z" class="shp0"/></g></g></g></svg>