<svg xmlns="http://www.w3.org/2000/svg" id="a4b4d3ba-298a-4a01-b7c2-bf784b737cdf" width="759.523" height="640.549" data-name="Layer 1" viewBox="0 0 759.523 640.549"><rect width="699.341" height="447.889" x="11.619" y=".396" fill="#e6e6e6"/><rect width="659.346" height="365.215" x="31.616" y="56.573" fill="#fff"/><rect width="699.341" height="29.711" x="11.32" fill="#673fbd"/><circle cx="33.399" cy="15.19" r="5.507" fill="#fff"/><circle cx="54.3" cy="15.19" r="5.507" fill="#fff"/><circle cx="75.202" cy="15.19" r="5.507" fill="#fff"/><polygon fill="#a0616a" points="747.941 576.821 753.08 597.379 730.468 603.546 728.412 581.961 747.941 576.821"/><polygon fill="#a0616a" points="665.713 602.518 665.713 622.047 643.099 626.159 638.988 615.88 647.211 598.407 665.713 602.518"/><path fill="#2f2e41" d="M931.1769,519.477l-3.08355,27.75217,2.0557,53.44864s0,5.13926,3.08356,7.195c1.654,1.12324,38.03077,102.78582,38.03077,102.78582s-8.22286,10.2786-23.64072,7.195L944.5391,707.575s-4.11145-13.36215-6.16715-16.44571-32.89147-65.78294-32.89147-65.78294l-14.39-25.69647L886.979,634.59708s8.22286,44.19792,6.16715,64.75509-6.16715,42.14218-6.16715,42.14218l-24.66861-4.11145a17.162,17.162,0,0,0-3.08356-9.25071c-3.08356-4.11145-2.0557-18.50146-2.0557-18.50146v-3.08356l-6.1672-79.14506L839.6975,523.58844Z" transform="translate(-220.23872 -129.72559)"/><circle cx="641.044" cy="174.929" r="27.752" fill="#a0616a"/><polygon fill="#a0616a" points="665.199 175.443 676.505 203.195 649.781 222.725 633.335 193.944 665.199 175.443"/><path fill="#3f3d56" d="M886.979,326.23966l10.2786-5.13929,6.16715,14.39s40.08648,12.3343,37.00292,68.86651S930.149,482.47412,930.149,482.47412s17.47361,37.00289,7.195,41.11432-97.64656,19.52929-99.70227,5.13928,7.195-98.67439,7.195-98.67439-3.08356-60.64364,22.61287-72.97793L862.31041,345.769Z" transform="translate(-220.23872 -129.72559)"/><path fill="#a0616a" d="M830.44679,525.64415s-23.64072,24.66859-10.27856,30.83574,21.585-27.75217,21.585-27.75217Z" transform="translate(-220.23872 -129.72559)"/><path fill="#2f2e41" d="M878.75612,746.63369l11.30646-4.11145s12.3343,27.75217,2.0557,27.75217H865.394s-15.41786-5.1393-23.64072-5.1393-23.64076-15.41787-12.3343-22.61287,25.69646-5.1393,25.69646-5.1393l4.11145-9.25071,5.1393,14.39S870.53326,752.80084,878.75612,746.63369Z" transform="translate(-220.23872 -129.72559)"/><path fill="#2f2e41" d="M962.01263,724.02078s6.43659-4.06146,9.8994-2.54463,5.5185,17.96253,5.5185,17.96253,10.27861,12.33431-12.3343,14.39-27.75217-2.0557-29.80788-8.22285,2.05571-12.33431,2.05571-12.33431l6.16715-2.0557s7.195-5.13931,5.1393-7.195,0-6.16715,0-6.16715S955.84548,732.24364,962.01263,724.02078Z" transform="translate(-220.23872 -129.72559)"/><path fill="#2f2e41" d="M870.77488,304.20991a13.61976,13.61976,0,0,0-.60363-2.64083c-1.4916-3.1293-7.31137-2.21593-8.34839-5.5238-.20294-.64739-.16053-1.35161-.35936-2.00026-.5071-1.654-2.45243-2.47435-4.18063-2.395a22.585,22.585,0,0,0-5.01088,1.29029c-4.06606,1.15395-8.39194.71346-12.59454.2636A12.67215,12.67215,0,0,1,834.3,291.8041c-1.59159-.97906-2.73829-2.95-2.15887-4.7265.55551-1.70327,2.41943-2.63921,3.2575-4.22269,1.33078-2.5144-.296-5.76184.78363-8.39389,1.73183-4.22223,8.28581-3.37443,11.61554-6.49522.80824-.75751,1.39023-1.72588,2.16486-2.51767,2.29837-2.34916,5.9281-2.80392,9.19855-2.47983s6.48427,1.28445,9.77024,1.22634c3.11627-.05511,6.38289-1.00409,9.25425.208a13.19858,13.19858,0,0,1,4.34712,3.57115l7.36491,8.07749a9.07755,9.07755,0,0,1,2.27637,3.42883c.44309,1.54768.03524,3.20935.2243,4.80807.43111,3.64612,3.84461,6.40012,4.30518,10.04265a13.05932,13.05932,0,0,1-.16244,3.38221l-1.0316,7.60654a5.66072,5.66072,0,0,1-.58126,2.13149c-.3.51257-.75364.91739-1.09137,1.40595-.95362,1.37939-.86659,3.20272-1.34048,4.81129-.47386,1.60839-2.17325,3.20024-3.65976,2.425-.96979-.50576-1.61143-4.68831-2.78955-5.77421-1.641-1.51253-2.49822-1.32611-4.5237-1.30051C877.46686,309.0699,872.07286,309.41774,870.77488,304.20991Z" transform="translate(-220.23872 -129.72559)"/><path fill="#3f3d56" d="M875.67257,364.27043s30.83572,12.3343,21.585,40.08648-33.91932,113.06438-33.91932,113.06438l-14.39,7.195-4.11145,11.30644-19.52931-7.195,3.08355-15.41788,7.195-15.41786,18.50146-115.12012S854.08751,363.24255,875.67257,364.27043Z" transform="translate(-220.23872 -129.72559)"/><polygon points="678.561 280.284 646.697 389.237 633.335 402.6 641.044 388.723 678.561 280.284" opacity=".1" style="isolation:isolate"/><path fill="#fbbebe" d="M271.43739,427.631l6.008,42.72331,25.367,45.39352c7.34307,6.67552.66755,22.69676.66755,22.69676l-6.67552-4.67286-1.3351-8.01062S266.097,492.38348,258.7539,484.37286s-10.01328-52.069-10.01328-52.069Z" transform="translate(-220.23872 -129.72559)"/><path fill="#fbbebe" d="M249.32848,717.35905s1.3351,15.35369.66755,19.359-20.69411-.66755-20.69411-.66755c3.33776-6.67552,5.34042-26.70207,5.34042-26.70207Z" transform="translate(-220.23872 -129.72559)"/><path fill="#fbbebe" d="M348.79373,721.36436s2.00266,21.36165,1.3351,25.367-20.6941-.66756-20.6941-.66756c3.33776-6.67551,5.34041-26.70207,5.34041-26.70207Z" transform="translate(-220.23872 -129.72559)"/><circle cx="87.647" cy="224.904" r="24.281" fill="#fbbebe"/><path fill="#fbbebe" d="M312.07834,377.5752c-4.00531,5.34041-2.00265,14.68614-2.00265,14.68614S269.355,439.65751,262.012,439.65751s-6.008-33.37759-6.008-33.37759,10.68083-12.68348,16.68884-15.35369,16.68879-31.37493,16.68879-31.37493S316.08365,372.23478,312.07834,377.5752Z" transform="translate(-220.23872 -129.72559)"/><path fill="#2f2e41" d="M339.448,468.36224l26.13063,43.894c4.76906,7.84618-4.10143,47.56062-4.10143,47.56062l-4.00531,84.77907-6.67551,85.42539V739.367l-22.02921-.66755-7.34307-91.43335-10.68083-68.75783-17.35635,52.73659-28.70472,64.75252a177.45051,177.45051,0,0,1-9.01328,23.35369l-5.34041,9.34573-20.02125-2.34042L260.67686,623.9018l6.008-66.75518c.6676-37.3829,12.68353-58.077,12.68353-58.077V491.059Z" transform="translate(-220.23872 -129.72559)"/><path fill="#2f2e41" d="M247.99337,733.38029s3.33776-5.34041,3.33776-3.33776,8.67817,7.34307,8.67817,7.34307,8.67818-1.3351,10.01328,8.67817-12.01593,12.01594-15.35369,11.34838-12.01593.66756-12.01593.66756-6.67552,1.3351-17.35635,0-1.3351-19.359,0-22.69676,8.01062-.66756,8.01062-.66756C245.32317,738.05315,247.99337,733.38029,247.99337,733.38029Z" transform="translate(-220.23872 -129.72559)"/><path fill="#2f2e41" d="M348.12618,743.39357s3.33776-5.34042,3.33776-3.33776,8.67817,7.34307,8.67817,7.34307,8.67817-1.33511,10.01328,8.67817S358.13946,768.093,354.8017,767.42543s-12.01593.66755-12.01593.66755-6.67552,1.33511-17.35635,0-1.3351-19.359,0-22.69676,8.01062-.66755,8.01062-.66755C345.456,748.06643,348.12618,743.39357,348.12618,743.39357Z" transform="translate(-220.23872 -129.72559)"/><path fill="#3f3d56" d="M302.06507,391.59378c16.68879-17.35634,34.71269,26.03452,34.71269,26.03452s6.008,16.02125,1.3351,24.69942,4.67284,28.03718,4.67284,28.03718c-22.86077,19.46112-45.64184,37.45312-66.75512,24.6994,2.67016-16.02124-6.008-24.03186-12.016-39.38555s-17.35635-12.01593-17.35635-12.01593.66755-17.35634,2.67021-31.37493,20.02659-19.28246,20.02659-19.28246C272.62262,398.87546,285.37627,408.95013,302.06507,391.59378Z" transform="translate(-220.23872 -129.72559)"/><path fill="#fbbebe" d="M331.43739,419.631l6.008,42.72331,25.367,45.39352c7.34307,6.67552.66755,22.69676.66755,22.69676l-6.67552-4.67286-1.3351-8.01062S326.097,484.38348,318.7539,476.37286s-10.01328-52.069-10.01328-52.069Z" transform="translate(-220.23872 -129.72559)"/><path fill="#3f3d56" d="M335.4427,426.30648l-28.03718,3.33776s-2.00265-32.71,2.23107-40.87906,19.79814.826,19.79814.826C333.44,390.25868,335.4427,426.30648,335.4427,426.30648Z" transform="translate(-220.23872 -129.72559)"/><path fill="#2f2e41" d="M335.06867,340.571c-17.95534,8.97415-7.59607,33.47737-9.71528,43.75879-3.471,16.8401-54.65742,8.2821-54.65742,8.2821-6.22762-1.12021-10.023-70.4068,24.08241-69.79416C311.96971,323.12653,350.44877,332.88394,335.06867,340.571Z" transform="translate(-220.23872 -129.72559)"/><ellipse cx="103.884" cy="228.15" fill="#fbbebe" rx="2.5" ry="4"/><path fill="#e6e6e6" d="M422.41667,272.293c26.39,4.87,53.31,0,79.59-3.3l79.87-10c3.23-.41,7.93-2.34,9.83,1.61,1.07,2.21.35,7,.43,9.54.21,7,.19,14,0,21-.36,13.38-1.34,26.73-2.59,40.05-2.43,26.07-5.87,52-7.59,78.17-.88,13.32-1.32,26.68-.93,40,.09,3.18.22,6.36.41,9.53.21,3.55,1.8,8.82-2.07,11.19-2.21,1.36-6.56,1.29-9.09,1.69-4,.63-8,1.13-12.08,1.54-26.89,2.69-54.13,1.57-81.12,1.41l-81.5-.42-19.88-.11c-1.8,0-8.29,1.08-9.4-1.06-.47-.91.78-5.17,1-6.31q.46-2.82,1-5.63c2.32-13.15,5.06-26.22,7.82-39.28,5.93-28,12-56.14,14.44-84.74,1.21-14.35.41-28.83,1.89-43.15.69-6.65,1.51-21.49,10.36-22.08,7.5-.5,15.22,0,22.74,0a1.5,1.5,0,0,0,0-3c-7.1,0-14.21-.19-21.31-.05-4.72.09-8,1.21-10.25,5.55-5.75,11.14-5.16,26-5.34,38.16-.43,29.11-4.9,57.6-10.72,86.07-2.93,14.33-6.09,28.61-9,42.95-1.37,6.85-2.68,13.72-3.88,20.61-.56,3.28-3.39,10.51-.9,13.52s10.15,1.39,13.58,1.41l23.86.14,45.72.26c29.54.17,59.18,1,88.71.13,14.1-.42,29-1,42.73-4.37,4.09-1,6.06-2.88,6.22-7.24.24-6.76-.86-13.73-1-20.52-1-58.1,12.65-115.39,11.25-173.51-.09-3.95,1.4-13.91-2.92-16.3-1.94-1.08-4.46-.49-6.5-.25-3.9.45-7.79,1-11.69,1.46l-50.65,6.32c-16.19,2-32.37,4.16-48.59,6-17.17,2-34.51,3.19-51.62,0-1.89-.35-2.7,2.54-.8,2.89Z" transform="translate(-220.23872 -129.72559)"/><path fill="#e6e6e6" d="M390.57668,307.643l199.82-9.8c1.93-.1,1.94-3.1,0-3l-199.82,9.8C388.65666,304.733,388.64669,307.733,390.57668,307.643Z" transform="translate(-220.23872 -129.72559)"/><path fill="#e6e6e6" d="M452.13668,282.913a5,5,0,0,0,1.77,8.07c2.69,1.23,5.85.2,8.52-.47,4-1,8-1.89,12.11-2.62a165.14989,165.14989,0,0,1,27.09-2.52c4.14-.05,8.25.14,12.39.32,3,.12,6.23.36,8.77-1.5,2.9-2.12,3.84-6.26,1-8.84-4-3.65-12.62-1.53-17.24-1.15a386.61732,386.61732,0,0,0-49.86,7.44c-1.88.4-1.09,3.3.8,2.89q16.27-3.51,32.79-5.64,8.12-1,16.27-1.69c2.56-.21,5.12-.4,7.68-.55,1-.06,2.06-.17,3.08-.14,3.17.07,3.54-.5,1.64,3.33-1.69,3.39-1.15,3-4.08,2.89-1.24,0-2.48-.14-3.72-.2q-3.81-.16-7.62-.17-8.11,0-16.18.78c-4.56.44-9.11,1.06-13.62,1.86-2.82.5-5.62,1.08-8.41,1.72-1.23.29-2.47.59-3.7.9-.59.16-1.19.3-1.78.45q-3.28,1.14-5.59-3c1.34-1.39-.77-3.52-2.12-2.12Z" transform="translate(-220.23872 -129.72559)"/><path fill="#e6e6e6" d="M488.35668,325.593c-14.47-.56-30.1,3.35-39.63,15-7.46,9.11-11.71,24.74-3.81,35,8.49,11,27.11,9.06,38.34,4.37,11.88-5,24.88-15.31,28.45-28.21,4.45-16.11-10-28.29-25.05-28.47a1.501,1.501,0,0,0,0,3c8.58.1,17,3.78,21,11.77,4.19,8.42.58,17.26-5,24-8.94,10.73-22.92,18.82-37.16,18.59-8.55-.13-18-3.06-20.65-12.08-2.18-7.31-.52-15.3,3.28-21.78,8.22-14,24.95-18.74,40.29-18.14,1.93.07,1.93-2.93,0-3Z" transform="translate(-220.23872 -129.72559)"/><path fill="#e6e6e6" d="M473.98668,347.813a3.9,3.9,0,0,0-5.24,4c.3,3.9,4.6,5,7.83,4.77,2.79-.24,6.05-1.27,5.07-4.76a4.47991,4.47991,0,0,0-2.44-2.82,5.64988,5.64988,0,0,0-2.82-.35c-.37,0-3.76,1.24-2.32-.25l-2.36-.31a2.45994,2.45994,0,0,1,.72,2,1.51,1.51,0,0,0,2.25,1.29,2,2,0,0,1,2.71,2.34,1.51,1.51,0,0,0,2.74,1.16c1-1.8,2.21-5.38.71-7.26-1-1.27-2.93-.89-4.13-.15a14.4701,14.4701,0,0,0-2.06,1.77c-1.21,1.07-2,1.57-1.55-.48.75-3.73,4.31-6.7,7.56-8.19l-2.2-1.69a31.61976,31.61976,0,0,1-6.05,11.85l2.56,1.06a6.68,6.68,0,0,1,4.08-6.51h-1.47l.78,1.28c-.29,1.89,2.6,2.7,2.89.79.38-2.47-1.18-5.68-4.07-4.47-3.45,1.44-5.24,5.39-5.17,8.91,0,1.2,1.7,2.13,2.57,1.07a35.25979,35.25979,0,0,0,6.81-13.19,1.52,1.52,0,0,0-2.21-1.69,16.76983,16.76983,0,0,0-7.28,6.34c-1.22,2-2.75,5.12-1.51,7.42a3.18,3.18,0,0,0,4.3211,1.24618l.0289-.01617a11.69984,11.69984,0,0,0,2.51-2c.37-.33.78-.9,1.27-1,.44-.3.42-.13-.07.53a5.45012,5.45012,0,0,1-.87,2.92l2.74,1.15a5,5,0,0,0-7.11-5.73l2.26,1.3a5.45,5.45,0,0,0-1.13-3.53,1.52,1.52,0,0,0-2.35-.31c-1.52,1.59-1.81,4.34.1,5.81,1.43,1.09,2.13,0,3.7-.25,5.33-.69,2.22,1.71.34,1.79a7.08966,7.08966,0,0,1-2.51-.18q-3.13-1.06-.39-2.73c1.79.73,2.56-2.17.8-2.89Z" transform="translate(-220.23872 -129.72559)"/><path fill="#e6e6e6" d="M471.57668,353.293c1.23,4-3.85,5.32-6.26,6.7a13.94006,13.94006,0,0,0-4.33,3.79c-2.52,3.38-3.46,7.68-4.29,11.73-.38,1.89,2.51,2.69,2.9.8a34,34,0,0,1,2.53-8.63c1.8-3.58,4.38-4.78,7.74-6.62s5.79-4.69,4.6-8.57c-.56-1.84-3.46-1.05-2.89.8Z" transform="translate(-220.23872 -129.72559)"/><path fill="#e6e6e6" d="M476.57668,351.283a2.9,2.9,0,0,0-2.5,3c0,1.19.79,1.95,1.33,2.9a22.89933,22.89933,0,0,1,2.9,6.31c.48,2.15.95,6-.17,8-2.07,3.71-5.81,3-9,3-3,0-5.32,1-5.22-3.18.06-2.35,1.7-4.73,3-6.58l-2.74-.36a52.27123,52.27123,0,0,1,.91,9.26c0,1.39,2.13,2.16,2.79.75a57.93054,57.93054,0,0,0,3.81-10.54l-2.95-.4.52,7.6a1.51,1.51,0,0,0,2.79.76,3.3997,3.3997,0,0,0,.75-1.35c.1-.47-.82-3.64-1.19-2.51l2.94.4.21-7.22-3,.4a14.94031,14.94031,0,0,1,.56,6.3c-.19,1.67,2.62,2.05,3,.4l1.88-9.7-2.74.35a6.63006,6.63006,0,0,1,.51,4.32c-.22,1.92,2.78,1.9,3,0a10.54011,10.54011,0,0,0-.92-5.83,1.51,1.51,0,0,0-2.74.36l-1.89,9.7,2.95.4a16.3605,16.3605,0,0,0-.67-7.09,1.5,1.5,0,0,0-2.94.39l-.21,7.22a1.50706,1.50706,0,0,0,2.95.4l.16-.49a1.52,1.52,0,0,0-.38-1.46c-3.11-3.38-3.74,2-4.82,3.49l2.8.76-.52-7.6c-.11-1.62-2.51-2.12-2.95-.4a53.7608,53.7608,0,0,1-3.5,9.83l2.8.76a56.54012,56.54012,0,0,0-1-10.06c-.26-1.38-2.07-1.32-2.74-.36-2,2.88-5.46,9.17-2.79,12.62,2.33,3,9.66,1.84,12.79,1.65,4.94-.28,6.73-3.41,7.27-8.07a19.75928,19.75928,0,0,0-.37-6.68c-.27-1.18-3-8.66-3.82-8.51,1.9-.35,1.09-3.25-.8-2.9Z" transform="translate(-220.23872 -129.72559)"/><path fill="#e6e6e6" d="M470.76668,358.023l-8.19,10.81,2.59,1.51,6-8.68-2.74-1.16-2.99,11.41a1.51,1.51,0,0,0,2.74,1.16,52.71373,52.71373,0,0,1,4.57-6.43l-2.5-1.46a16.33,16.33,0,0,1-3.77,6.93l2.51,1.46a13.40018,13.40018,0,0,1,1.09-4c.77-1.73-1.67-3.26-2.59-1.52a35.209,35.209,0,0,1-2.89,4.54l2.74.36.61-2.85-2.74-.36.44,2.5a1.51,1.51,0,0,0,2.51.66,29.85955,29.85955,0,0,0,6-9.05h-2.58a13.47038,13.47038,0,0,1,1.41,4c.36,1.8,2.75,1.13,2.94-.4a81.30872,81.30872,0,0,0,.66-10.1h-3v6.29c0,1.63,2.67,2.11,2.95.4a11.46007,11.46007,0,0,1,1.47-4.3h-2.63a6.67011,6.67011,0,0,1,1,3.4,1.5,1.5,0,0,0,3,0l.38-2h-2.89c.29,1.77,1.39,11.74-2.52,10.57-.66-.16-.85-.12-.57.11l.89-1.9,2.09-4.43-2.8-.76c.18,2.06.37,5-.87,6.76-1,1.43-4.08,2-5.65,1.16a10.00016,10.00016,0,0,1-2.61-2.74l-2.05,2c1.66,1.21,4.35,4.18,6.49,4.35,1.63.13,3-1.22,4.07-2.3a17.43006,17.43006,0,0,0,4.89-12.83,1.5,1.5,0,0,0-3,0v3.42a1.5,1.5,0,0,0,3,0v-8.39a1.5,1.5,0,0,0-3,0,35.99883,35.99883,0,0,1-.52,6l2.95.4a69.06162,69.06162,0,0,1-.33-7.19,1.5,1.5,0,0,0-2.94-.4c-.45,1.91-1,3.79-1.53,5.66l2.74-.36-.21-.8c-.14-1.91-3.14-1.92-3,0a5.4903,5.4903,0,0,0,.62,2.32c.58,1.22,2.39.79,2.74-.36.57-1.88,1.08-3.76,1.53-5.66l-2.95-.4a69.06143,69.06143,0,0,0,.33,7.19c.15,1.54,2.63,2.2,2.94.4a41.32765,41.32765,0,0,0,.63-6.84h-3v8.39h3v-3.42h-3a14.42,14.42,0,0,1-3.65,10.27984,12.28529,12.28529,0,0,1-1.26,1.24c-.71.68-1.36.58-1.93-.31-1.42-.59-2.89-2.11-4.13-3s-2.94.87-2.06,2.05c2.3,3.06,5.73,6.47,10,5,4.49-1.59,5.1-7.67,4.76-11.67-.11-1.33-2.1-2.23-2.79-.75-1,2.11-2,4.21-3,6.33a5.59267,5.59267,0,0,0-.9,2.64c.33,2.25,3.06,1.88,4.74,1.75,6.51-.49,5.48-9.72,4.73-14.36-.25-1.54-2.49-1.3-2.89,0a8.82977,8.82977,0,0,0-.49,2.84h3a11.89014,11.89014,0,0,0-1.41-4.91,1.51,1.51,0,0,0-2.59,0,14.58031,14.58031,0,0,0-1.78,5l3,.4v-6.29a1.5,1.5,0,0,0-3,0,81.30872,81.30872,0,0,1-.66,10.1l2.95-.4a17.1703,17.1703,0,0,0-1.71-4.68,1.51,1.51,0,0,0-2.59,0,27.36029,27.36029,0,0,1-5.53,8.44l2.51.66-.44-2.5c-.23-1.33-2.11-1.37-2.74-.36a6.57993,6.57993,0,0,0-.91,5.16c.25,1.42,2.05,1.27,2.74.36a35.09787,35.09787,0,0,0,2.89-4.53l-2.59-1.52a17.05981,17.05981,0,0,0-1.4,4.71c-.18,1.32,1.39,2.7,2.51,1.46a20,20,0,0,0,4.54-8.26c.37-1.36-1.51-2.65-2.51-1.46a57.28759,57.28759,0,0,0-5,7l2.74,1.16,3.05-11.37a1.51,1.51,0,0,0-2.74-1.16l-6,8.69c-1.12,1.61,1.45,3,2.59,1.51l8.16-10.8c1.16-1.54-1.44-3-2.59-1.52Z" transform="translate(-220.23872 -129.72559)"/><path fill="#e6e6e6" d="M598.3467,394.113c12-7.34,21.54-18.29,32.14-27.45,11.5-9.93,23.57-19.18,36-27.94,24.14-17,49.49-32.21,74.82-47.38a1.5,1.5,0,0,0-1.51-2.59c-25.33,15.17-50.69,30.35-74.83,47.38-11.39,8-22.51,16.48-33.17,25.48-11.6,9.8-21.93,22-35,29.91-1.65,1-.14,3.6,1.51,2.59Z" transform="translate(-220.23872 -129.72559)"/><path fill="#e6e6e6" d="M780.0367,244.763c-13,1.32-27,4.63-35,16-6.91,9.78-6.76,26.84-.27,36.88,7.37,11.41,22.43,11.82,34.13,8.13s23.81-10.16,23.7-24.14c-.06-7.5-2.77-15.31-5.76-22.11-2.58-5.87-7.15-11-14.07-10.35-1.91.18-1.93,3.18,0,3,9.27-.86,12.25,10.15,14.45,17.1,2,6.49,3.85,14.17.71,20.62s-10.71,9.74-17.18,12.1c-7,2.54-14.69,4.09-22,2-14.48-4.05-18.48-22.4-14.31-35.42,4.8-15,21.8-19.41,35.65-20.81,1.9-.19,1.92-3.19,0-3Z" transform="translate(-220.23872 -129.72559)"/><path fill="#e6e6e6" d="M800.0367,360.763c-13,1.32-27,4.63-35,16-6.91,9.78-6.76,26.84-.27,36.88,7.37,11.41,22.43,11.82,34.13,8.13s23.81-10.16,23.7-24.14c-.06-7.5-2.77-15.31-5.76-22.11-2.58-5.87-7.15-11-14.07-10.35-1.91.18-1.93,3.18,0,3,9.27-.86,12.25,10.15,14.45,17.1,2,6.49,3.85,14.17.71,20.62s-10.71,9.74-17.18,12.1c-7,2.54-14.69,4.09-22,2-14.48-4.05-18.48-22.4-14.31-35.42,4.8-15,21.8-19.41,35.65-20.81,1.9-.19,1.92-3.19,0-3Z" transform="translate(-220.23872 -129.72559)"/><path fill="#e6e6e6" d="M760.42665,273.973l9.47,10.8a1.51,1.51,0,0,0,2.5-.67c2-5.26,1.62-10.71,2.09-16.24a53.46994,53.46994,0,0,1,4.25-16.57,55.92982,55.92982,0,0,1,22.38-25.65c1.65-1,.14-3.6-1.51-2.59a58.72008,58.72008,0,0,0-22.62995,24.86,57.4708,57.4708,0,0,0-5,15.87c-1,6.49-.09,13.29-2.49,19.52l2.51-.67-9.42-10.78c-1.28-1.45-3.39.68-2.12,2.12Z" transform="translate(-220.23872 -129.72559)"/><path fill="#e6e6e6" d="M603.17665,405.803q77.37-2.36,154.78-1a1.501,1.501,0,0,0,0-3q-77.39-1.38-154.78,1C601.24666,402.863,601.23665,405.863,603.17665,405.803Z" transform="translate(-220.23872 -129.72559)"/><path fill="#e6e6e6" d="M768.73665,376.223a309.91983,309.91983,0,0,1,50.67,25.46c1.64,1,3.15-1.57,1.51-2.59a313.22936,313.22936,0,0,0-51.34-25.76c-1.79-.71-2.57,2.19-.79,2.89Z" transform="translate(-220.23872 -129.72559)"/><path fill="#e6e6e6" d="M800.75667,362.633a122.5,122.5,0,0,0-29.41,74.53c-.08,1.93,2.92,1.93,3,0a119.13985,119.13985,0,0,1,28.53-72.41c1.25-1.46-.86-3.59-2.12-2.12Z" transform="translate(-220.23872 -129.72559)"/><path fill="#e6e6e6" d="M400.80669,394.913l111.77-1.46,12.85-.17c2.31,0,4.62-.08,6.93-.09,3.25,0,5.44,2.7,5.38,6-.15,7-4.55,6.75-10.31,7l-13.89.63-56.56,2.49c-10.13.45-20.27,1-30.4,1.35-9.14.28-26.52-2.7-22.46-16,.56-1.85-2.33-2.64-2.9-.8-2,6.54,1.54,13.18,7.24,16.61,8.09,4.86,18.75,3.21,27.68,2.81l69.44-3.15,16.86-.75c4.32-.2,10.33.68,14.3-1.33,4.66-2.35,5.48-11.68,2.54-15.61-1.51-2-3.63-2.18-6-2.27-6.22-.24-12.55.17-18.78.25l-34.62.46-79.11,1a1.501,1.501,0,0,0,0,3Z" transform="translate(-220.23872 -129.72559)"/><polygon fill="#673fbd" points="508.937 343.083 476.472 323.524 485.953 360.222 491.668 346.852 501.2 359.634 504.027 357.526 494.495 344.744 508.937 343.083"/><rect width="55" height="19" x="502.384" y="364.15" fill="#673fbd"/><polygon fill="#3f3d56" points="316.831 188.083 349.296 168.524 339.815 205.222 334.1 191.852 324.568 204.634 321.741 202.526 331.273 189.744 316.831 188.083"/><rect width="55" height="19" x="268.384" y="210.15" fill="#3f3d56"/></svg>