<svg xmlns="http://www.w3.org/2000/svg" xmlns:xlink="http://www.w3.org/1999/xlink" id="a7414020-5bea-4f71-b338-a76fc53f6834" width="1081.37" height="821.13" data-name="Layer 1" viewBox="0 0 1081.37 821.13"><defs><linearGradient id="28b8f648-935a-4876-8069-a3f270d16230" x1="852.98" x2="852.98" y1="854.53" y2="216.11" gradientUnits="userSpaceOnUse"><stop offset="0" stop-color="gray" stop-opacity=".25"/><stop offset=".54" stop-color="gray" stop-opacity=".12"/><stop offset="1" stop-color="gray" stop-opacity=".1"/></linearGradient></defs><title>preferences</title><path fill="#673fbd" d="M1062.1,622.82q-5.05,4.44-10.35,8.64c-.59.48-1.2,1-1.8,1.43a363.56,363.56,0,0,1-39.52,26.7c-15.77,9.32-32.23,17.8-48.91,25.8a810.82,810.82,0,0,1-76.94,32.45l-1.18.43q-17.28,6.16-34.95,11.37l-.21.06q-12.33,3.6-24.83,6.65l-1.14.28q-18.4,4.44-37.17,7.55l-2.88.46q-13.72,2.16-27.63,3.52c-52.12,5-104.87.94-156.67-6.08-104.61-14.19-207.83-40.79-302-82.49A836.8,836.8,0,0,1,192,604.78q-7.08-4.41-14.07-9c-.73-.49-1.47-1-2.2-1.47C129.79,563.6,88.3,526.2,69,479c-21.53-52.69-7.75-119.47,45.58-150.66C133,317.64,154.25,311.81,175.75,307l2.2-.49c3.64-.8,7.28-1.57,10.91-2.34,12.69-2.69,25.45-5.36,38.09-8.35h0c23.49-5.53,46.57-12.13,68.08-21.82q2.38-1.06,4.74-2.19c16.83-8,35.14-19.64,49-33.62,11.94-12.07,20.53-25.91,21.95-40.76h0a45,45,0,0,0-.56-12.64c-1.48-7.9-2.91-15.62-4-23.16-2-14.16-2.64-27.7.09-40.76h0c2.78-13.31,9.07-26.12,21.09-38.54q2.73-2.82,5.86-5.61a123.7,123.7,0,0,1,32.54-20.58q2.21-1,4.44-1.87c33-13.36,72.67-16.15,109.73-14.31A598.88,598.88,0,0,1,642.74,54.25c2.68.6,5.36,1.23,8,1.87a713.29,713.29,0,0,1,84.74,26.19C816.85,112.91,893,157,963.42,204.86l3.36,2.29q2.47,1.69,4.94,3.4,5.06,3.48,10.06,7,3.72,2.59,7.42,5.22h0l5.31,3.77,3.31,2.38c18,13,35.71,26.47,52.12,40.92l1.8,1.6c20,17.8,38.11,37.06,52.61,58.56C1165.86,421.24,1147.62,547.65,1062.1,622.82Z" opacity=".1" transform="translate(-59.31 -39.43)"/><path d="M1051.75,54.25V631.46c-.59.48-1.2,1-1.8,1.43a363.56,363.56,0,0,1-39.52,26.7H296A836.8,836.8,0,0,1,192,604.78q-7.08-4.41-14.07-9c-.73-.49-1.47-1-2.2-1.47v-540Z" opacity=".03" transform="translate(-59.31 -39.43)"/><path fill="#fefefe" d="M1050,56.12V632.89a363.56,363.56,0,0,1-39.52,26.7H296A836.8,836.8,0,0,1,192,604.78q-7.08-4.41-14.07-9V56.12Z" transform="translate(-59.31 -39.43)"/><g opacity=".7"><path fill="#ff6584" d="M840.41,273.35a21,21,0,1,0,21,21A21,21,0,0,0,840.41,273.35Zm0,38a17,17,0,0,1-17-17,16.64,16.64,0,0,1,.95-5.58s0,0,0,0a17,17,0,1,1,16,22.55Z" transform="translate(-59.31 -39.43)"/><path fill="#ff6584" d="M846.85,303.47l2.64-2.65a1.17,1.17,0,0,0,0-1.66l-4.77-4.78,4.77-4.77a1.17,1.17,0,0,0,0-1.66l-2.64-2.65a1.18,1.18,0,0,0-1.67,0l-4.77,4.77-4.77-4.77a1.17,1.17,0,0,0-1.66,0L831.33,288a1.17,1.17,0,0,0,0,1.66l4.77,4.77-4.77,4.78a1.17,1.17,0,0,0,0,1.66l2.65,2.65a1.17,1.17,0,0,0,1.66,0l4.77-4.78,4.77,4.78A1.2,1.2,0,0,0,846.85,303.47Z" transform="translate(-59.31 -39.43)"/></g><path fill="#673fbd" d="M798.44,442.34h0a21,21,0,0,0-8.92-13.51h0a21.08,21.08,0,0,0-16-3.13l-.63.15a19.71,19.71,0,0,0-3.31,1.08,21.07,21.07,0,0,0,.05,38.74l.6.24a21,21,0,0,0,28.62-19.62A20.41,20.41,0,0,0,798.44,442.34Zm-3.88,6.47a.13.13,0,0,1,0,.06l0,.19a17,17,0,0,1-23.9,12.59,6.45,6.45,0,0,1-.59-.29,16.41,16.41,0,0,1-3.12-2.07,17,17,0,0,1,2.27-27.62,16.16,16.16,0,0,1,3.36-1.52l.63-.19a17,17,0,0,1,21.58,16.32A16.29,16.29,0,0,1,794.56,448.81Z" opacity=".1" transform="translate(-59.31 -39.43)"/><path fill="#673fbd" d="M784.23,455.37l2.65-2.65a1.17,1.17,0,0,0,0-1.66l-4.77-4.77,4.77-4.77a1.18,1.18,0,0,0,0-1.67l-2.65-2.64a1.17,1.17,0,0,0-1.66,0L777.8,442,773,437.21a1.17,1.17,0,0,0-1.66,0l-2.65,2.64a1.18,1.18,0,0,0,0,1.67l4.78,4.77-4.78,4.77a1.17,1.17,0,0,0,0,1.66l2.65,2.65a1.17,1.17,0,0,0,1.66,0l4.78-4.77,4.77,4.77A1.17,1.17,0,0,0,784.23,455.37Z" opacity=".1" transform="translate(-59.31 -39.43)"/><path fill="#3acc6c" d="M736.33,135.32l-1.91-1.92a1,1,0,0,0-1.44,0l-12,11.89-5.07-5.11a1,1,0,0,0-1.43,0l-1.93,1.91a1,1,0,0,0,0,1.44l7.7,7.76a1,1,0,0,0,1.44,0l14.63-14.52A1,1,0,0,0,736.33,135.32Zm0,0-1.91-1.92a1,1,0,0,0-1.44,0l-12,11.89-5.07-5.11a1,1,0,0,0-1.43,0l-1.93,1.91a1,1,0,0,0,0,1.44l7.7,7.76a1,1,0,0,0,1.44,0l14.63-14.52A1,1,0,0,0,736.33,135.32Zm0,0-1.91-1.92a1,1,0,0,0-1.44,0l-12,11.89-5.07-5.11a1,1,0,0,0-1.43,0l-1.93,1.91a1,1,0,0,0,0,1.44l7.7,7.76a1,1,0,0,0,1.44,0l14.63-14.52A1,1,0,0,0,736.33,135.32Zm0,0-1.91-1.92a1,1,0,0,0-1.44,0l-12,11.89-5.07-5.11a1,1,0,0,0-1.43,0l-1.93,1.91a1,1,0,0,0,0,1.44l7.7,7.76a1,1,0,0,0,1.44,0l14.63-14.52A1,1,0,0,0,736.33,135.32Zm-11.89-15.11a21,21,0,1,0,21,21A21,21,0,0,0,724.44,120.21Zm0,38a17,17,0,1,1,17-17A16.95,16.95,0,0,1,724.44,158.19Zm11.89-22.87-1.91-1.92a1,1,0,0,0-1.44,0l-12,11.89-5.07-5.11a1,1,0,0,0-1.43,0l-1.93,1.91a1,1,0,0,0,0,1.44l7.7,7.76a1,1,0,0,0,1.44,0l14.63-14.52A1,1,0,0,0,736.33,135.32Zm0,0-1.91-1.92a1,1,0,0,0-1.44,0l-12,11.89-5.07-5.11a1,1,0,0,0-1.43,0l-1.93,1.91a1,1,0,0,0,0,1.44l7.7,7.76a1,1,0,0,0,1.44,0l14.63-14.52A1,1,0,0,0,736.33,135.32Zm0,0-1.91-1.92a1,1,0,0,0-1.44,0l-12,11.89-5.07-5.11a1,1,0,0,0-1.43,0l-1.93,1.91a1,1,0,0,0,0,1.44l7.7,7.76a1,1,0,0,0,1.44,0l14.63-14.52A1,1,0,0,0,736.33,135.32Zm0,0-1.91-1.92a1,1,0,0,0-1.44,0l-12,11.89-5.07-5.11a1,1,0,0,0-1.43,0l-1.93,1.91a1,1,0,0,0,0,1.44l7.7,7.76a1,1,0,0,0,1.44,0l14.63-14.52A1,1,0,0,0,736.33,135.32Zm0,0-1.91-1.92a1,1,0,0,0-1.44,0l-12,11.89-5.07-5.11a1,1,0,0,0-1.43,0l-1.93,1.91a1,1,0,0,0,0,1.44l7.7,7.76a1,1,0,0,0,1.44,0l14.63-14.52A1,1,0,0,0,736.33,135.32Z" opacity=".7" transform="translate(-59.31 -39.43)"/><path fill="#673fbd" d="M773.54,288.47l-1.91-1.93a1,1,0,0,0-1.44,0l-12,11.89-5.07-5.11a1,1,0,0,0-1.44,0l-1.93,1.91a1,1,0,0,0,0,1.44l7.69,7.76a1,1,0,0,0,1.44,0l14.64-14.52A1,1,0,0,0,773.54,288.47Zm0,0-1.91-1.93a1,1,0,0,0-1.44,0l-12,11.89-5.07-5.11a1,1,0,0,0-1.44,0l-1.93,1.91a1,1,0,0,0,0,1.44l7.69,7.76a1,1,0,0,0,1.44,0l14.64-14.52A1,1,0,0,0,773.54,288.47Zm0,0-1.91-1.93a1,1,0,0,0-1.44,0l-12,11.89-5.07-5.11a1,1,0,0,0-1.44,0l-1.93,1.91a1,1,0,0,0,0,1.44l7.69,7.76a1,1,0,0,0,1.44,0l14.64-14.52A1,1,0,0,0,773.54,288.47Zm0,0-1.91-1.93a1,1,0,0,0-1.44,0l-12,11.89-5.07-5.11a1,1,0,0,0-1.44,0l-1.93,1.91a1,1,0,0,0,0,1.44l7.69,7.76a1,1,0,0,0,1.44,0l14.64-14.52A1,1,0,0,0,773.54,288.47Zm-11.89-15.12a21,21,0,1,0,21,21A21,21,0,0,0,761.65,273.35Zm0,38a17,17,0,1,1,17-17A16.95,16.95,0,0,1,761.65,311.34Zm11.89-22.87-1.91-1.93a1,1,0,0,0-1.44,0l-12,11.89-5.07-5.11a1,1,0,0,0-1.44,0l-1.93,1.91a1,1,0,0,0,0,1.44l7.69,7.76a1,1,0,0,0,1.44,0l14.64-14.52A1,1,0,0,0,773.54,288.47Zm0,0-1.91-1.93a1,1,0,0,0-1.44,0l-12,11.89-5.07-5.11a1,1,0,0,0-1.44,0l-1.93,1.91a1,1,0,0,0,0,1.44l7.69,7.76a1,1,0,0,0,1.44,0l14.64-14.52A1,1,0,0,0,773.54,288.47Zm0,0-1.91-1.93a1,1,0,0,0-1.44,0l-12,11.89-5.07-5.11a1,1,0,0,0-1.44,0l-1.93,1.91a1,1,0,0,0,0,1.44l7.69,7.76a1,1,0,0,0,1.44,0l14.64-14.52A1,1,0,0,0,773.54,288.47Zm0,0-1.91-1.93a1,1,0,0,0-1.44,0l-12,11.89-5.07-5.11a1,1,0,0,0-1.44,0l-1.93,1.91a1,1,0,0,0,0,1.44l7.69,7.76a1,1,0,0,0,1.44,0l14.64-14.52A1,1,0,0,0,773.54,288.47Zm0,0-1.91-1.93a1,1,0,0,0-1.44,0l-12,11.89-5.07-5.11a1,1,0,0,0-1.44,0l-1.93,1.91a1,1,0,0,0,0,1.44l7.69,7.76a1,1,0,0,0,1.44,0l14.64-14.52A1,1,0,0,0,773.54,288.47Z" opacity=".1" transform="translate(-59.31 -39.43)"/><path fill="#3acc6c" d="M710.67,441.61l-1.91-1.93a1,1,0,0,0-1.44,0l-12,11.89-5.07-5.11a1,1,0,0,0-1.44,0l-1.93,1.91a1,1,0,0,0,0,1.44l7.69,7.76a1,1,0,0,0,1.44,0l14.64-14.52A1,1,0,0,0,710.67,441.61Zm0,0-1.91-1.93a1,1,0,0,0-1.44,0l-12,11.89-5.07-5.11a1,1,0,0,0-1.44,0l-1.93,1.91a1,1,0,0,0,0,1.44l7.69,7.76a1,1,0,0,0,1.44,0l14.64-14.52A1,1,0,0,0,710.67,441.61Zm0,0-1.91-1.93a1,1,0,0,0-1.44,0l-12,11.89-5.07-5.11a1,1,0,0,0-1.44,0l-1.93,1.91a1,1,0,0,0,0,1.44l7.69,7.76a1,1,0,0,0,1.44,0l14.64-14.52A1,1,0,0,0,710.67,441.61Zm0,0-1.91-1.93a1,1,0,0,0-1.44,0l-12,11.89-5.07-5.11a1,1,0,0,0-1.44,0l-1.93,1.91a1,1,0,0,0,0,1.44l7.69,7.76a1,1,0,0,0,1.44,0l14.64-14.52A1,1,0,0,0,710.67,441.61Zm-11.89-15.12a21,21,0,1,0,21,21A21,21,0,0,0,698.78,426.49Zm0,38a17,17,0,1,1,17-17A16.94,16.94,0,0,1,698.78,464.48Zm11.89-22.87-1.91-1.93a1,1,0,0,0-1.44,0l-12,11.89-5.07-5.11a1,1,0,0,0-1.44,0l-1.93,1.91a1,1,0,0,0,0,1.44l7.69,7.76a1,1,0,0,0,1.44,0l14.64-14.52A1,1,0,0,0,710.67,441.61Zm0,0-1.91-1.93a1,1,0,0,0-1.44,0l-12,11.89-5.07-5.11a1,1,0,0,0-1.44,0l-1.93,1.91a1,1,0,0,0,0,1.44l7.69,7.76a1,1,0,0,0,1.44,0l14.64-14.52A1,1,0,0,0,710.67,441.61Zm0,0-1.91-1.93a1,1,0,0,0-1.44,0l-12,11.89-5.07-5.11a1,1,0,0,0-1.44,0l-1.93,1.91a1,1,0,0,0,0,1.44l7.69,7.76a1,1,0,0,0,1.44,0l14.64-14.52A1,1,0,0,0,710.67,441.61Zm0,0-1.91-1.93a1,1,0,0,0-1.44,0l-12,11.89-5.07-5.11a1,1,0,0,0-1.44,0l-1.93,1.91a1,1,0,0,0,0,1.44l7.69,7.76a1,1,0,0,0,1.44,0l14.64-14.52A1,1,0,0,0,710.67,441.61Zm0,0-1.91-1.93a1,1,0,0,0-1.44,0l-12,11.89-5.07-5.11a1,1,0,0,0-1.44,0l-1.93,1.91a1,1,0,0,0,0,1.44l7.69,7.76a1,1,0,0,0,1.44,0l14.64-14.52A1,1,0,0,0,710.67,441.61Z" opacity=".7" transform="translate(-59.31 -39.43)"/><path fill="#673fbd" d="M670.35,594.75l-1.91-1.92a1,1,0,0,0-1.44,0l-12,11.89-5.07-5.11a1,1,0,0,0-1.44,0l-1.92,1.92a1,1,0,0,0,0,1.43l7.7,7.76a1,1,0,0,0,1.44,0l14.63-14.52A1,1,0,0,0,670.35,594.75Zm0,0-1.91-1.92a1,1,0,0,0-1.44,0l-12,11.89-5.07-5.11a1,1,0,0,0-1.44,0l-1.92,1.92a1,1,0,0,0,0,1.43l7.7,7.76a1,1,0,0,0,1.44,0l14.63-14.52A1,1,0,0,0,670.35,594.75Zm0,0-1.91-1.92a1,1,0,0,0-1.44,0l-12,11.89-5.07-5.11a1,1,0,0,0-1.44,0l-1.92,1.92a1,1,0,0,0,0,1.43l7.7,7.76a1,1,0,0,0,1.44,0l14.63-14.52A1,1,0,0,0,670.35,594.75Zm0,0-1.91-1.92a1,1,0,0,0-1.44,0l-12,11.89-5.07-5.11a1,1,0,0,0-1.44,0l-1.92,1.92a1,1,0,0,0,0,1.43l7.7,7.76a1,1,0,0,0,1.44,0l14.63-14.52A1,1,0,0,0,670.35,594.75Zm-11.89-15.11a21,21,0,1,0,21,21A21,21,0,0,0,658.46,579.64Zm0,38a17,17,0,1,1,17-17A17,17,0,0,1,658.46,617.63Zm11.89-22.88-1.91-1.92a1,1,0,0,0-1.44,0l-12,11.89-5.07-5.11a1,1,0,0,0-1.44,0l-1.92,1.92a1,1,0,0,0,0,1.43l7.7,7.76a1,1,0,0,0,1.44,0l14.63-14.52A1,1,0,0,0,670.35,594.75Zm0,0-1.91-1.92a1,1,0,0,0-1.44,0l-12,11.89-5.07-5.11a1,1,0,0,0-1.44,0l-1.92,1.92a1,1,0,0,0,0,1.43l7.7,7.76a1,1,0,0,0,1.44,0l14.63-14.52A1,1,0,0,0,670.35,594.75Zm0,0-1.91-1.92a1,1,0,0,0-1.44,0l-12,11.89-5.07-5.11a1,1,0,0,0-1.44,0l-1.92,1.92a1,1,0,0,0,0,1.43l7.7,7.76a1,1,0,0,0,1.44,0l14.63-14.52A1,1,0,0,0,670.35,594.75Zm0,0-1.91-1.92a1,1,0,0,0-1.44,0l-12,11.89-5.07-5.11a1,1,0,0,0-1.44,0l-1.92,1.92a1,1,0,0,0,0,1.43l7.7,7.76a1,1,0,0,0,1.44,0l14.63-14.52A1,1,0,0,0,670.35,594.75Zm0,0-1.91-1.92a1,1,0,0,0-1.44,0l-12,11.89-5.07-5.11a1,1,0,0,0-1.44,0l-1.92,1.92a1,1,0,0,0,0,1.43l7.7,7.76a1,1,0,0,0,1.44,0l14.63-14.52A1,1,0,0,0,670.35,594.75Z" opacity=".1" transform="translate(-59.31 -39.43)"/><path fill="#3acc6c" d="M913.16,211.89,911.25,210a1,1,0,0,0-1.44,0l-6.24,6.2-2.25,2.23s0,0,0,0l-.19.18h0l-1.17,1.17,0,0-2.09,2.07-5.07-5.11a1,1,0,0,0-1.44,0l-1.93,1.91a1,1,0,0,0,0,1.44l7.26,7.33.43.43a1.08,1.08,0,0,0,.59.3,1,1,0,0,0,.85-.29l6.06-6,2-2,6.56-6.51A1,1,0,0,0,913.16,211.89Zm0,0L911.25,210a1,1,0,0,0-1.44,0l-6.24,6.2-2.25,2.23s0,0,0,0l-.19.18h0l-1.17,1.17,0,0-2.09,2.07-5.07-5.11a1,1,0,0,0-1.44,0l-1.93,1.91a1,1,0,0,0,0,1.44l7.26,7.33.43.43a1.08,1.08,0,0,0,.59.3,1,1,0,0,0,.85-.29l6.06-6,2-2,6.56-6.51A1,1,0,0,0,913.16,211.89Zm0,0L911.25,210a1,1,0,0,0-1.44,0l-6.24,6.2-2.25,2.23s0,0,0,0l-.19.18h0l-1.17,1.17,0,0-2.09,2.07-5.07-5.11a1,1,0,0,0-1.44,0l-1.93,1.91a1,1,0,0,0,0,1.44l7.26,7.33.43.43a1.08,1.08,0,0,0,.59.3,1,1,0,0,0,.85-.29l6.06-6,2-2,6.56-6.51A1,1,0,0,0,913.16,211.89Zm0,0L911.25,210a1,1,0,0,0-1.44,0l-6.24,6.2-2.25,2.23s0,0,0,0l-.19.18h0l-1.17,1.17,0,0-2.09,2.07-5.07-5.11a1,1,0,0,0-1.44,0l-1.93,1.91a1,1,0,0,0,0,1.44l7.26,7.33.43.43a1.08,1.08,0,0,0,.59.3,1,1,0,0,0,.85-.29l6.06-6,2-2,6.56-6.51A1,1,0,0,0,913.16,211.89Zm-11.89-15.11a21,21,0,0,0-6.91,40.89c.22.08.44.16.67.22a21,21,0,0,0,14-.52,19.46,19.46,0,0,0,3-1.49,21,21,0,0,0-10.76-39.1Zm7.45,36.27a16.6,16.6,0,0,1-2.18.89,17.11,17.11,0,0,1-9.83.21c-.45-.13-.9-.27-1.33-.43a17,17,0,1,1,13.34-.67Zm4.44-21.16L911.25,210a1,1,0,0,0-1.44,0l-6.24,6.2-2.25,2.23s0,0,0,0l-.19.18h0l-1.17,1.17,0,0-2.09,2.07-5.07-5.11a1,1,0,0,0-1.44,0l-1.93,1.91a1,1,0,0,0,0,1.44l7.26,7.33.43.43a1.08,1.08,0,0,0,.59.3,1,1,0,0,0,.85-.29l6.06-6,2-2,6.56-6.51A1,1,0,0,0,913.16,211.89Zm0,0L911.25,210a1,1,0,0,0-1.44,0l-6.24,6.2-2.25,2.23s0,0,0,0l-.19.18h0l-1.17,1.17,0,0-2.09,2.07-5.07-5.11a1,1,0,0,0-1.44,0l-1.93,1.91a1,1,0,0,0,0,1.44l7.26,7.33.43.43a1.08,1.08,0,0,0,.59.3,1,1,0,0,0,.85-.29l6.06-6,2-2,6.56-6.51A1,1,0,0,0,913.16,211.89Zm0,0L911.25,210a1,1,0,0,0-1.44,0l-6.24,6.2-2.25,2.23s0,0,0,0l-.19.18h0l-1.17,1.17,0,0-2.09,2.07-5.07-5.11a1,1,0,0,0-1.44,0l-1.93,1.91a1,1,0,0,0,0,1.44l7.26,7.33.43.43a1.08,1.08,0,0,0,.59.3,1,1,0,0,0,.85-.29l6.06-6,2-2,6.56-6.51A1,1,0,0,0,913.16,211.89Zm0,0L911.25,210a1,1,0,0,0-1.44,0l-6.24,6.2-2.25,2.23s0,0,0,0l-.19.18h0l-1.17,1.17,0,0-2.09,2.07-5.07-5.11a1,1,0,0,0-1.44,0l-1.93,1.91a1,1,0,0,0,0,1.44l7.26,7.33.43.43a1.08,1.08,0,0,0,.59.3,1,1,0,0,0,.85-.29l6.06-6,2-2,6.56-6.51A1,1,0,0,0,913.16,211.89Zm0,0L911.25,210a1,1,0,0,0-1.44,0l-6.24,6.2-2.25,2.23s0,0,0,0l-.19.18h0l-1.17,1.17,0,0-2.09,2.07-5.07-5.11a1,1,0,0,0-1.44,0l-1.93,1.91a1,1,0,0,0,0,1.44l7.26,7.33.43.43a1.08,1.08,0,0,0,.59.3,1,1,0,0,0,.85-.29l6.06-6,2-2,6.56-6.51A1,1,0,0,0,913.16,211.89Z" opacity=".7" transform="translate(-59.31 -39.43)"/><rect width="439.1" height="40.76" x="167.58" y="81.43" fill="#673fbd" opacity=".2" rx="20.38" ry="20.38"/><rect width="616.71" height="40.76" x="167.58" y="158" fill="#673fbd" opacity=".2" rx="20.38" ry="20.38"/><rect width="476.52" height="40.76" x="167.58" y="234.57" fill="#673fbd" opacity=".1" rx="20.38" ry="20.38"/><rect width="616.71" height="40.76" x="167.58" y="311.14" fill="#673fbd" opacity=".1" rx="20.38" ry="20.38"/><rect width="415.38" height="40.76" x="167.58" y="387.71" fill="#673fbd" opacity=".2" rx="20.38" ry="20.38"/><rect width="616.71" height="40.76" x="167.58" y="464.29" fill="#673fbd" opacity=".1" rx="20.38" ry="20.38"/><rect width="373.1" height="40.76" x="167.58" y="540.86" fill="#673fbd" opacity=".1" rx="20.38" ry="20.38"/><path fill="#673fbd" d="M803.69,120.21a21,21,0,1,0,21,21A21,21,0,0,0,803.69,120.21Zm0,38a17,17,0,1,1,17-17A16.95,16.95,0,0,1,803.69,158.19Z" opacity=".1" transform="translate(-59.31 -39.43)"/><path fill="#673fbd" d="M810.13,150.32l2.65-2.64a1.18,1.18,0,0,0,0-1.67L808,141.24l4.77-4.77a1.18,1.18,0,0,0,0-1.67l-2.65-2.64a1.17,1.17,0,0,0-1.66,0l-4.77,4.77-4.77-4.77a1.18,1.18,0,0,0-1.67,0l-2.64,2.64a1.17,1.17,0,0,0,0,1.67l4.77,4.77L794.62,146a1.17,1.17,0,0,0,0,1.67l2.64,2.64a1.18,1.18,0,0,0,1.67,0l4.77-4.77,4.77,4.77A1.17,1.17,0,0,0,810.13,150.32Z" opacity=".1" transform="translate(-59.31 -39.43)"/><path fill="#673fbd" d="M980,196.78a21,21,0,1,0,21,21A20.94,20.94,0,0,0,980,196.78Zm0,38a17,17,0,1,1,14.54-8.24A17,17,0,0,1,980,234.77Z" opacity=".1" transform="translate(-59.31 -39.43)"/><path fill="#673fbd" d="M986.42,226.89l2.65-2.64a1.18,1.18,0,0,0,0-1.67l-4.78-4.77,4.78-4.77a1.17,1.17,0,0,0,0-1.66l-2.65-2.65a1.17,1.17,0,0,0-1.66,0L980,213.5l-4.77-4.77a1.17,1.17,0,0,0-1.66,0l-2.65,2.65a1.17,1.17,0,0,0,0,1.66l4.77,4.77-4.77,4.77a1.18,1.18,0,0,0,0,1.67l2.65,2.64a1.15,1.15,0,0,0,1.66,0l4.77-4.77,4.78,4.77A1.17,1.17,0,0,0,986.42,226.89Z" opacity=".1" transform="translate(-59.31 -39.43)"/><g opacity=".7"><path fill="#ff6584" d="M736.63,579.64a21,21,0,1,0,21,21A21,21,0,0,0,736.63,579.64Zm0,38a17,17,0,1,1,17-17A16.95,16.95,0,0,1,736.63,617.63Z" transform="translate(-59.31 -39.43)"/><path fill="#ff6584" d="M743.07,609.75l2.64-2.64a1.18,1.18,0,0,0,0-1.67l-4.77-4.77,4.77-4.77a1.17,1.17,0,0,0,0-1.66l-2.64-2.65a1.18,1.18,0,0,0-1.67,0l-4.77,4.77-4.77-4.77a1.17,1.17,0,0,0-1.66,0l-2.65,2.65a1.17,1.17,0,0,0,0,1.66l4.77,4.77-4.77,4.77a1.18,1.18,0,0,0,0,1.67l2.65,2.64a1.15,1.15,0,0,0,1.66,0l4.77-4.77,4.77,4.77A1.18,1.18,0,0,0,743.07,609.75Z" transform="translate(-59.31 -39.43)"/></g><ellipse cx="766.54" cy="809.27" fill="#673fbd" opacity=".1" rx="118.88" ry="5.8"/><path fill="url(#28b8f648-935a-4876-8069-a3f270d16230)" d="M928.7,438s-28.11-51.38-23.36-59.74,8.22-20.46,8.22-20.46,10.38-7.1,10.38-10,8.22-9.61,12.55-12.53,2.16-16.71,0-18.38-5.59-7.52-5.59-7.52,3-8.35,0-10.86.44-5,0-7.52,0-11.69,0-11.69c-3.51-4.88-7.4-7.16-11.06-8l-.32-1.32-1.85-7.79s9-17.25-5.6-26.28a24.4,24.4,0,0,0-3.23-1.7s0-.42-.08-1.13c-.2-2.58-.81-9.05-2.12-13.21-.76-2.42-1.75-4.05-3-3.68a2,2,0,0,0-.82.47,9.12,9.12,0,0,0-1.55,1.83h0a.41.41,0,0,1-.07.11h0a31.36,31.36,0,0,0-3.44,9.55,55.16,55.16,0,0,0-1,6,.08.08,0,0,0,0,0,33,33,0,0,0-1.67,3.71c-1.77,4.59-3.84,12.54-.07,18.42,3.2,5,7.51,11.87,10.64,16.87l.1.16.19.31-.33.21.05.77.29,4.21,2.47,36.37a15.45,15.45,0,0,0-2.22-.47,20.17,20.17,0,0,0-3.23-.21c-2.11-8.29-7.9-16-8.95-24.66a22.87,22.87,0,0,1-.17-2.61c.09-5.45,1.45-10.92,1.34-16.36,0-1,0-2-.1-3v0c0-.27,0-.55-.08-.83a24.59,24.59,0,0,0-13.37-18.63c-2.51-1.25-5.23-2.08-7.67-3.45-5.64-3.16-9.25-8.86-14.37-12.77-3.81-2.91-9.5-4.47-13.75-3a63.49,63.49,0,0,0-6.69,1.38h0a60.35,60.35,0,0,0-15.31,6.36c-.65.39-1.3.79-1.92,1.25a8.46,8.46,0,0,0-3.09,3.61,9.46,9.46,0,0,0-.48,3.89c0,.95,0,1.92.06,2.87-.28,16-17.52,28.38-18.94,44,0,.37-.06.74-.08,1.11,0,.11,0,.22,0,.34,0,.45,0,.91,0,1.37v0c0,.21,0,.41,0,.62s0,.42,0,.63c.25,6.85,3.81,13.23,4.46,20.05.06.61.09,1.21.1,1.82a30.24,30.24,0,0,1-1.77,9.18,26.87,26.87,0,0,0-6.21,2.52c-5.24,3.37-14.7,9.19-18.15,20.32a29.76,29.76,0,0,0-1.31,8.92,186.26,186.26,0,0,1-2.92,31.85,59.53,59.53,0,0,1-1.84,7.83,1.84,1.84,0,0,0-.06.77l-2.08,27-.37,4.75-.52,6.76s.15.41.37,1.1a31.8,31.8,0,0,1,.82,3.12,16.78,16.78,0,0,1,.27,7,4.82,4.82,0,0,1-1.46,2.57,1.08,1.08,0,0,0-.17.19c-.59.83-1.12,3.3-1.58,6.88-.18,1.4-.35,3-.52,4.66-1,10.65-1.62,26.59-2,39.77-.36,13-.49,23.27-.49,23.27a26.54,26.54,0,0,0,5.37,2.66c-.14.35-.29.71-.43,1.09a52.53,52.53,0,0,0-3.26,13.74c-.84,9.83,1.91,20.75,15.62,26.37a22.06,22.06,0,0,0,2.69.92c3,.8,5.21.58,6.84-.42,0,.59.07,1.16.1,1.73.14,2.44.26,4.67.32,6.54.43,11.7,3.33,32.16,3.33,32.16s1,8.36.13,10.86,0,12.53,0,12.53,3,5,0,7.52-3.89,15-3,16.71a.56.56,0,0,1,0,.19c.66,4.15-3.07,65.81-3.07,65.81s-3.53,9.44-6.34,19.24c-2.74,9.54-4.8,19.42-2.26,21.27,1.26.92,4.19,1.61,7.91,2.14,0,.41-.06.82-.1,1.24-.36,4.41-.93,9.16-1.75,10.36-1.19,1.7-2.44,14.88-3,22l-.06.79a73.7,73.7,0,0,0-3.22,9.34s-9.57,24-6.33,30.23a5.11,5.11,0,0,0,1.19,1.47h0a2.7,2.7,0,0,0,.31.28c4.61,3.69,16.16,4.46,20.35,4.63l-.16,5.94v.22h5.45v-.15c0-.75.12-4.19.3-8.79,0-.82.06-1.68.1-2.56,0-.69.07-1.39.1-2.11a37,37,0,0,0,2.37-13.34,58.58,58.58,0,0,1,2.1-15.48,43,43,0,0,1,2.77-7.55s1.7-9-.67-15.37a11.1,11.1,0,0,0-2-3.46c0-.21,0-.42,0-.64s0-.48,0-.73,0-.41,0-.63a57.69,57.69,0,0,1,1.28-12.82,1.42,1.42,0,0,1,0-.2c.08-.35.17-.68.26-1l.06-.22,1.77.06c5.43.15,9.42.15,9.42.15s4.33-22.14,3.9-31.74c0-.42,0-.86,0-1.3-.15-9.54,2.62-22.51,2.62-22.51l3.46-33.83s-1.73-5.86,0-10c1.07-2.58,3.28-7.37,4.82-10.67.72-1.53,1.29-2.73,1.53-3.25l.14-.28a6.47,6.47,0,0,1-1.54-.77h0c-1.41-.94-2.67-2.78,1.55-5.49,6.49-4.18,4.33-14.62,4.33-14.62s-1.91-3.76.34-7.1,0-15.87,0-15.87A52.47,52.47,0,0,0,844,601.75c1.61-5,5.68-29.45,7.6-41.24.63-3.87,1-6.37,1-6.37l.06.61.06.66h0l.54,5.57.07.74,1,10.53s2,27.68.75,38.53c0,.07,0,.14,0,.2a12.82,12.82,0,0,1-.73,3.29c-2.3,5.2-1.88,25.86-1.76,30.43,0,.37,0,.67,0,.92s-1.63,4.08-1.22,7.06h0a4.53,4.53,0,0,0,.79,2.1,5.32,5.32,0,0,1,.77,3.25v.1a11.81,11.81,0,0,1-.12,1.44,27.46,27.46,0,0,1-1.52,5.66s-2.32,6.1-1.44,9.29c0,0,0,0,0,0a2.94,2.94,0,0,0,.57,1.13,2.67,2.67,0,0,1,.33,1.2.43.43,0,0,0,0,.11c.81,6.73-1.28,36.44-2.52,52.7-.5,6.42-.86,10.74-.86,10.74L844,775.94l.34.24c.39.28,1.12.76,2.1,1.34,0,0,0,.05,0,.08l-.15,1.07c-.49,3.42-1.15,7.4-1.87,10.44-.06.23-.11.45-.17.66a9.57,9.57,0,0,0-3.67,1.47c-7.28,12.93-4.06,23.18,0,26.16,1.15.84,1.93,3.19,2.45,6.11l1,12.89c0,.52,0,1,0,1.48a3.84,3.84,0,0,0,.19,1.18l.31,3.91.42,5.44h3.32v-6.58h.18c5.24.18,13.69.4,17.37.11h.1c.39,0,.72-.07,1-.11a2.51,2.51,0,0,0,.58-.16c1.95-.94,6.81-14.72,2.43-17.85s-5.35-12-5.35-12c-.38-1.16-.76-2.26-1.15-3.31,0-.23,0-.45,0-.68-.12-4.29-.07-8.94.52-11.46.66-2.77,1-8.59,1.14-13.69,0-.39,0-.77,0-1.15v-.12a17.07,17.07,0,0,0,2.23-.73l.16-.07a15.71,15.71,0,0,0,3.73-2.21l12.12-54.29,1.29-6.31L891.93,682s-2.59-12.53,0-14.61c1-.76,1.21-4,1.15-7.75-.1-6.56-1.15-14.81-1.15-14.81s3.46-5.43,5.2-8.77,0-12.11,0-12.11l3.45-20S904.48,580,914,560c7-14.75,2.54-54.58-2-75.78-.12-.55-.24-1.09-.36-1.61l0-.08c2.14-1.06,4.76-2.34,7.56-3.68l1.06-.5c3.55-1.67,7.31-3.39,10.68-4.82l.22-.09a74.58,74.58,0,0,1,7.43-2.78,12.47,12.47,0,0,1,2.28-.47C946.87,469.76,928.7,438,928.7,438ZM793.39,506l1.8,0c-.21.39-.41.79-.61,1.19-.12.24-.24.47-.35.71-.66,1.37-1.27,2.77-1.77,4.14.2-1.48.45-3.09.73-4.81C793.26,506.77,793.32,506.37,793.39,506ZM788.53,532a.74.74,0,0,0,0-.14l-.15-.47c-.11-.32-.21-.64-.31-.95q.93-.29,1.89-.63l.13-.05c0,.11,0,.22,0,.33,0,.47-.11.94-.17,1.4h0a1,1,0,0,1,0,.18c0,.38-.09.74-.13,1.1-.09.72-.18,1.42-.26,2.09-.19-.63-.38-1.25-.58-1.86C788.75,532.71,788.64,532.37,788.53,532Z" transform="translate(-59.31 -39.43)"/><path fill="#a1616a" d="M918.35,277.74l-10.8,3.83-3.92-6.5c-3-5-7.16-11.84-10.23-16.81-5.42-8.75,1.67-22.07,1.67-22.07s1.24-13.32,5.82-17.48,5.83,17.48,5.83,17.48c18.31,8.33,8.5,27.89,8.5,27.89l1.78,7.77Z" transform="translate(-59.31 -39.43)"/><path d="M918.35,277.74l-10.8,3.83-3.92-6.5,0-.57s6.19-4.25,13.41-2.65Z" opacity=".1" transform="translate(-59.31 -39.43)"/><path fill="#5a5773" d="M900.89,321.54,906.3,317l-2.71-41.22s13.95-9.57,24.36,5.42c0,0-.42,9.16,0,11.66s-2.91,5,0,7.49,0,10.82,0,10.82,3.29,5.83,5.37,7.5,4.17,15.4,0,18.32-12.07,9.57-12.07,12.49-10,10-10,10l-8.75-11.66Z" transform="translate(-59.31 -39.43)"/><path fill="#a1616a" d="M783.89,571.77c-20.18-8.56-15.7-29.47-11.9-40a55.48,55.48,0,0,1,2.67-6.24L786,518.68s2.31,5.89,4.78,13.8C796.49,550.79,803.08,579.91,783.89,571.77Z" transform="translate(-59.31 -39.43)"/><path fill="#a1616a" d="M811.63,762.56a33.74,33.74,0,0,0-3,8.41,60.89,60.89,0,0,0-1.25,14.34c.08,3.33.36,5.51.36,5.51l-22.48,15.46s.13-1.81.35-4.47c.58-7.08,1.79-20.22,2.93-21.92.79-1.19,1.34-5.93,1.69-10.32s.49-8.26.49-8.26S817.72,751.16,811.63,762.56Z" transform="translate(-59.31 -39.43)"/><path fill="#a1616a" d="M864.72,773.65s0,4.3-.16,9.3-.46,10.89-1.09,13.65c-.58,2.51-.62,7.15-.51,11.42.15,5,.51,9.5.51,9.5s-23-21.7-20.61-23.42c.63-.46,1.25-2.31,1.82-4.77.7-3,1.33-7,1.8-10.41.56-4,.91-7.3.91-7.3Z" transform="translate(-59.31 -39.43)"/><path d="M811.63,762.56a33.74,33.74,0,0,0-3,8.41,180.87,180.87,0,0,1-18.4-1.4c.34-4.3.49-8.26.49-8.26S817.72,751.16,811.63,762.56Z" opacity=".1" transform="translate(-59.31 -39.43)"/><path d="M864.72,773.65s0,4.3-.16,9.3c-7.16,1.83-14.52-1.83-18.08-4,.56-4,.91-7.3.91-7.3Z" opacity=".1" transform="translate(-59.31 -39.43)"/><path fill="#605d82" d="M911.71,561c-9.16,20-12.91,43.71-12.91,43.71l-3.32,20s1.66,8.74,0,12.07-5,8.74-5,8.74,2.5,20.41,0,22.48,0,14.58,0,14.58l-8.33,42.05-11.66,54.12c-11.24,9.16-26.2-2.5-26.2-2.5l3.3-35.38s5-62,2.92-64.54.83-10.4.83-10.4,2.92-7.5.84-10.42.41-9.16.41-9.16-.83-25.39,1.67-31.22,0-41.9,0-41.9l-1-11.23-.57-6.22-.06-.61s-.38,2.5-1,6.36c-1.84,11.75-5.76,36.1-7.31,41.11A53.53,53.53,0,0,1,840,613s2.16,12.49,0,15.82-.33,7.08-.33,7.08,2.08,10.4-4.17,14.57,0,6.24,0,6.24-4.58,10-6.24,14.16,0,10,0,10L826,714.58s-2.92,14.15-2.5,23.73S819.7,770,819.7,770s-32.06,0-37-3.75S791,725.82,791,725.82s3.75-64.12,2.91-65.79,0-14.15,2.92-16.65,0-7.49,0-7.49-.83-10,0-12.49-.13-10.83-.13-10.83-2.79-20.4-3.2-32.06-2.5-37.89-2.5-37.89,2.18-16.22,2.51-23.94c.12-2.84,1.39-6.38,2.95-9.72a87.37,87.37,0,0,1,6.2-10.89s98.67-29.14,102.84-26.23c1.1.77,2.7,6,4.28,13.58C914.15,506.55,918.45,546.24,911.71,561Z" transform="translate(-59.31 -39.43)"/><circle cx="791.61" cy="238.31" r="28.73" fill="#a1616a"/><path d="M909.75,485.42c-3.31,1.69-5.53,2.87-5.53,2.87s-46.63,22.07-59.93,20.82c-10.26-1-36.45-.44-47.86-.15a87.37,87.37,0,0,1,6.2-10.89s98.67-29.14,102.84-26.23C906.57,472.61,908.17,477.82,909.75,485.42Z" opacity=".1" transform="translate(-59.31 -39.43)"/><path fill="#5a5773" d="M830.94,323.62s-26.65,4.17-32.89,8.33S779.31,344,779.31,361.1s-2.91,34.55-4.58,39.55S801,446,801,446l-10,61.2s40-1.24,53.32,0,59.93-20.81,59.93-20.81,27.48-14.58,33.31-15-11.66-32.06-11.66-32.06-27.06-51.21-22.48-59.54,7.91-20.4,7.91-20.4l-5-42.47s-7.49-2.49-13.74,2.08-27.48,2.09-27.48,2.09Z" transform="translate(-59.31 -39.43)"/><path d="M785.77,397.73l-10.41,2.92-2.92,39.14s3.75,10.4,0,13.74-4.58,74.52-4.58,74.52,12.08,8.75,26.23,2.08c0,0-2.08-7.91,4.17-36.64s6.24-43.3,6.24-43.3,0-35.8,2.92-41.63,0-20.4,0-20.4-5.83-7.91-5.42-10.83S785.77,397.73,785.77,397.73Z" opacity=".1" transform="translate(-59.31 -39.43)"/><path d="M790.76,532.48a26.52,26.52,0,0,1-18.77-.69,55.48,55.48,0,0,1,2.67-6.24L786,518.68S788.29,524.57,790.76,532.48Z" opacity=".1" transform="translate(-59.31 -39.43)"/><path fill="#5a5773" d="M785.14,397.73l-10.41,2.92-2.91,39.14s3.75,10.4,0,13.74-4.58,74.52-4.58,74.52,12.07,8.75,26.23,2.08c0,0-2.08-7.91,4.16-36.64s6.25-43.3,6.25-43.3,0-35.8,2.91-41.63,0-20.4,0-20.4-5.83-7.91-5.41-10.83S785.14,397.73,785.14,397.73Z" transform="translate(-59.31 -39.43)"/><path d="M891.73,404s-5.41,46.63-21.24,55.37C870.49,459.35,905.88,449.36,891.73,404Z" opacity=".1" transform="translate(-59.31 -39.43)"/><path d="M812.21,408.14s19.56,9.58,15,16.24S812.21,408.14,812.21,408.14Z" opacity=".1" transform="translate(-59.31 -39.43)"/><path d="M812.21,427.3s12.49,12.9,10,17.48S812.21,427.3,812.21,427.3Z" opacity=".1" transform="translate(-59.31 -39.43)"/><path d="M913,320.29s4.9,8.33,5.37,13.74S913,320.29,913,320.29Z" opacity=".1" transform="translate(-59.31 -39.43)"/><path d="M913,309.05s2.46-2.08,8.74,0S913,309.05,913,309.05Z" opacity=".1" transform="translate(-59.31 -39.43)"/><path d="M888.92,552.41a57.9,57.9,0,0,1-30.45-3.9l-5.25,13.43-.57-6.22c.85-5.21,2.52-10.8,5.82-12.21C858.47,543.51,870,552.72,888.92,552.41Z" opacity=".1" transform="translate(-59.31 -39.43)"/><path d="M803.51,569.89s25.61,5.31,32.79,4.38Z" opacity=".1" transform="translate(-59.31 -39.43)"/><path d="M806.17,576.61s10.93-.47,16.39,1.72Z" opacity=".1" transform="translate(-59.31 -39.43)"/><path d="M807.42,581.14a99.44,99.44,0,0,0,15.14,2Z" opacity=".1" transform="translate(-59.31 -39.43)"/><path d="M806.79,638.44c.47-.32,21.86-5.31,24.52-1.72Z" opacity=".1" transform="translate(-59.31 -39.43)"/><path d="M806.79,645s18.58-2.18,19.05,0S806.79,645,806.79,645Z" opacity=".1" transform="translate(-59.31 -39.43)"/><path d="M806.79,650.93s19.83-4.06,22.17-3.13S806.79,650.93,806.79,650.93Z" opacity=".1" transform="translate(-59.31 -39.43)"/><path d="M807.73,790.82l-22.48,15.46s.13-1.81.35-4.47c5-12.31,11.51-18.8,11.51-18.8,5.07-1.31,8.27-.09,10.26,2.3C807.45,788.64,807.73,790.82,807.73,790.82Z" opacity=".1" transform="translate(-59.31 -39.43)"/><path fill="#5a5773" d="M809.92,804.72a55.74,55.74,0,0,0-4.69,22.95,35.7,35.7,0,0,1-4.76,18.51,17.52,17.52,0,0,1-1.58,2.25s-15.62-.12-21.09-4.66a5.48,5.48,0,0,1-1.45-1.74c-3.13-6.24,6.09-30.13,6.09-30.13,4.84-18.43,14.67-28.26,14.67-28.26C814.6,779.11,809.92,804.72,809.92,804.72Z" transform="translate(-59.31 -39.43)"/><path d="M800.47,846.18a17.52,17.52,0,0,1-1.58,2.25s-15.62-.12-21.09-4.66c2.69-8.9,11.28-35.82,15.29-31.25C796.87,816.82,799.5,837.52,800.47,846.18Z" opacity=".1" transform="translate(-59.31 -39.43)"/><path fill="#5a5773" d="M798.31,814.2l-1.09,40.33h5.24s.85-35.38,3.19-40.33S798.31,814.2,798.31,814.2Z" transform="translate(-59.31 -39.43)"/><path d="M863.47,817.52s-23-21.7-20.61-23.42c.63-.46,1.25-2.31,1.82-4.77,4.41-.78,12,1.07,18.28,18.69C863.11,813,863.47,817.52,863.47,817.52Z" opacity=".1" transform="translate(-59.31 -39.43)"/><path fill="#5a5773" d="M866.9,841.72a3.09,3.09,0,0,1-.55.15c-2.7.48-12.65.2-18.22,0a4,4,0,0,1-3.81-3.93c0-1.5,0-3.33-.12-5.28-.26-6.16-1-13.49-3.21-15.14-3.91-3-7-13.19,0-26.08,0,0,13.42-10.24,23.1,20.56,0,0,.94,8.8,5.16,11.92S868.78,840.78,866.9,841.72Z" transform="translate(-59.31 -39.43)"/><path d="M866.35,841.87c-2.7.48-12.65.2-18.22,0a4,4,0,0,1-3.81-3.93c0-1.5,0-3.33-.12-5.28,1.69-7.47,4.12-15.14,7.25-16.89C851.45,815.77,860.92,814.7,866.35,841.87Z" opacity=".1" transform="translate(-59.31 -39.43)"/><polygon fill="#5a5773" points="783.38 775.43 785.89 809 789.09 809 789.09 772.57 783.38 775.43"/><path d="M850.51,232a57.42,57.42,0,0,0-25.62,8.23c-2,1.21-4,2.67-4.83,4.84-.72,1.88-.42,4-.39,6,.27,17.23-18.93,30.26-18.33,47.47.24,6.83,3.67,13.19,4.3,20,1.05,11.35-5.67,21.81-12.11,31.22a25.9,25.9,0,0,0,18.25-6.05,138.38,138.38,0,0,1,2.58,69.78l9.21,0a7.15,7.15,0,0,1,2.69.34,6.61,6.61,0,0,1,2.13,1.59c8.61,8.57,14.38,21.24,11.09,32.94l19.6-7.35c4.69-1.76,9.45-3.55,13.53-6.46s7.5-7.1,8.36-12c.53-3,.36-6.58,2.83-8.32a15,15,0,0,1,3.86-1.44c5.38-1.89,7.76-8.11,8.86-13.71a79,79,0,0,0,1.25-20.87c-.87-11.7-4.33-23.58-1.48-35,1.61-6.41,5.19-12.39,5.48-19,.47-10.92-8.06-20.31-9.33-31.16-.89-7.57,1.84-15.21.95-22.77a24.46,24.46,0,0,0-12.87-18.57c-2.41-1.24-5-2.08-7.38-3.44-5.43-3.15-8.9-8.83-13.83-12.73s-13.14-5.37-16.85-.29Z" opacity=".1" transform="translate(-59.31 -39.43)"/><path fill="#4a4347" d="M850.51,230.72A57.42,57.42,0,0,0,824.89,239c-2,1.21-4,2.67-4.83,4.85-.72,1.88-.42,4-.39,6,.27,17.22-18.93,30.25-18.33,47.46.24,6.83,3.67,13.19,4.3,20,1.05,11.36-5.67,21.81-12.11,31.22a25.9,25.9,0,0,0,18.25-6.05,138.38,138.38,0,0,1,2.58,69.78l9.21,0a7.15,7.15,0,0,1,2.69.34,6.61,6.61,0,0,1,2.13,1.59c8.61,8.57,14.38,21.24,11.09,32.94l19.6-7.35c4.69-1.76,9.45-3.55,13.53-6.46s7.5-7.1,8.36-12c.53-3,.36-6.58,2.83-8.32a14.66,14.66,0,0,1,3.86-1.43c5.38-1.9,7.76-8.12,8.86-13.72a79,79,0,0,0,1.25-20.87c-.87-11.7-4.33-23.58-1.48-35,1.61-6.41,5.19-12.39,5.48-19,.47-10.92-8.06-20.31-9.33-31.16-.89-7.57,1.84-15.21.95-22.77a24.46,24.46,0,0,0-12.87-18.57c-2.41-1.24-5-2.07-7.38-3.44-5.43-3.15-8.9-8.83-13.83-12.73s-13.14-5.37-16.85-.29Z" transform="translate(-59.31 -39.43)"/><g opacity=".1"><path d="M819.65,245.63a11.46,11.46,0,0,0-.06,1.17C819.62,246.41,819.64,246,819.65,245.63Z" transform="translate(-59.31 -39.43)"/><path d="M892.37,285.67c.36-5.3,1.54-10.62,1.1-15.9C893.1,275.07,891.92,280.38,892.37,285.67Z" transform="translate(-59.31 -39.43)"/><path d="M805.64,312c-.58-6.2-3.47-12-4.15-18.2a22.86,22.86,0,0,0-.15,3.42c.24,6.76,3.59,13.06,4.27,19.79A27,27,0,0,0,805.64,312Z" transform="translate(-59.31 -39.43)"/><path d="M896.29,336.65a42.85,42.85,0,0,0-1,12.42,38.46,38.46,0,0,1,1-7.21c1.61-6.41,5.19-12.39,5.48-19a20.61,20.61,0,0,0-.16-3.52C900.87,325.29,897.76,330.78,896.29,336.65Z" transform="translate(-59.31 -39.43)"/><path d="M811.78,337.19a25.88,25.88,0,0,1-14.76,6c-1.14,1.78-2.32,3.53-3.49,5.24a25.9,25.9,0,0,0,18.25-6.05,138,138,0,0,1,5.82,37.38A138.23,138.23,0,0,0,811.78,337.19Z" transform="translate(-59.31 -39.43)"/><path d="M896.52,392.47c-1.1,5.6-3.48,11.82-8.86,13.72a15.4,15.4,0,0,0-3.86,1.43c-2.47,1.75-2.3,5.35-2.82,8.32-.87,4.94-4.28,9.14-8.37,12.05s-8.84,4.7-13.53,6.46l-18.7,7a25.29,25.29,0,0,1-.9,5.56l19.6-7.35c4.69-1.76,9.45-3.55,13.53-6.46s7.5-7.1,8.37-12c.52-3,.35-6.58,2.82-8.32a14.66,14.66,0,0,1,3.86-1.43c5.38-1.9,7.76-8.12,8.86-13.72a78.42,78.42,0,0,0,1.41-17.7A78.05,78.05,0,0,1,896.52,392.47Z" transform="translate(-59.31 -39.43)"/><path d="M828.39,408.86a6.61,6.61,0,0,0-2.13-1.59,7.15,7.15,0,0,0-2.69-.34l-8.17,0c-.32,1.75-.66,3.49-1,5.22l9.21,0a7.15,7.15,0,0,1,2.69.34,6.61,6.61,0,0,1,2.13,1.59c6.3,6.27,11.08,14.74,11.89,23.42C841.32,427.07,836,416.38,828.39,408.86Z" transform="translate(-59.31 -39.43)"/></g><path d="M782.7,442.91s7.44-3.12,9.1,0S782.7,442.91,782.7,442.91Z" opacity=".1" transform="translate(-59.31 -39.43)"/><path d="M785.28,448.26s7.44-3.13,9.11,0S785.28,448.26,785.28,448.26Z" opacity=".1" transform="translate(-59.31 -39.43)"/><path fill="#673fbd" d="M1062.16,786.91s5.5,7.19-2.53,18-14.65,20-12,26.77c0,0,12.12-20.15,22-20.43S1073,799,1062.16,786.91Z" transform="translate(-59.31 -39.43)"/><path d="M1062.16,786.91a8.83,8.83,0,0,1,1.12,2.26c9.62,11.3,14.75,21.85,5.5,22.11-8.61.25-18.94,15.65-21.42,19.54a9.24,9.24,0,0,0,.29.89s12.12-20.15,22-20.43S1073,799,1062.16,786.91Z" opacity=".1" transform="translate(-59.31 -39.43)"/><path fill="#ffd037" d="M1072.37,796.07c0,2.53-.28,4.58-.63,4.58s-.63-2-.63-4.58.35-1.34.7-1.34S1072.37,793.54,1072.37,796.07Z" transform="translate(-59.31 -39.43)"/><path fill="#ffd037" d="M1075.88,799.09c-2.22,1.21-4.16,1.94-4.32,1.63s1.49-1.54,3.71-2.75,1.35-.32,1.51,0S1078.1,797.88,1075.88,799.09Z" transform="translate(-59.31 -39.43)"/><path fill="#673fbd" d="M1033.14,786.91s-5.49,7.19,2.54,18,14.65,20,12,26.77c0,0-12.11-20.15-22-20.43S1022.3,799,1033.14,786.91Z" transform="translate(-59.31 -39.43)"/><path d="M1033.14,786.91a9.25,9.25,0,0,0-1.12,2.26c-9.62,11.3-14.74,21.85-5.5,22.11,8.62.25,19,15.65,21.43,19.54a7.16,7.16,0,0,1-.3.89s-12.11-20.15-22-20.43S1022.3,799,1033.14,786.91Z" opacity=".1" transform="translate(-59.31 -39.43)"/><path fill="#ffd037" d="M1022.93,796.07c0,2.53.29,4.58.64,4.58s.63-2,.63-4.58-.35-1.34-.7-1.34S1022.93,793.54,1022.93,796.07Z" transform="translate(-59.31 -39.43)"/><path fill="#ffd037" d="M1019.43,799.09c2.22,1.21,4.15,1.94,4.32,1.63s-1.5-1.54-3.72-2.75-1.34-.32-1.51,0S1017.21,797.88,1019.43,799.09Z" transform="translate(-59.31 -39.43)"/><path fill="#a8a8a8" d="M1024.68,830.77s15.36-.48,20-3.77,23.63-7.23,24.77-2,23.09,26.29,5.75,26.43-40.3-2.7-44.92-5.51S1024.68,830.77,1024.68,830.77Z" transform="translate(-59.31 -39.43)"/><path d="M1075.5,849.64c-17.34.14-40.3-2.7-44.92-5.51-3.51-2.15-4.92-9.84-5.39-13.38l-.51,0s1,12.38,5.59,15.2,27.58,5.65,44.92,5.51c5,0,6.73-1.82,6.64-4.46C1081.13,848.62,1079.22,849.61,1075.5,849.64Z" opacity=".2" transform="translate(-59.31 -39.43)"/><rect width="872" height="26.19" x="118.64" y="16.69" fill="#673fbd" opacity=".1"/><circle cx="136.14" cy="29.79" r="5.55" fill="#fefefe"/><circle cx="153.14" cy="29.79" r="5.55" fill="#fefefe"/><circle cx="170.14" cy="29.79" r="5.55" fill="#fefefe"/><path fill="#673fbd" d="M518.44,818.24s-42.28-2.55-37.3,27.07c0,0-1,5.24,3.76,7.62,0,0,.08-2.2,4.34-1.45a19.85,19.85,0,0,0,4.59.22,9.62,9.62,0,0,0,5.62-2.32h0s11.88-4.91,16.5-24.33c0,0,3.42-4.24,3.28-5.33l-7.13,3s2.44,5.14.52,9.42c0,0-.23-9.24-1.6-9-.28.05-3.71,1.78-3.71,1.78s4.2,9,1,15.49c0,0,1.2-11.05-2.34-14.84l-5,2.93s4.9,9.27,1.58,16.82c0,0,.85-11.59-2.64-16.1l-4.55,3.55s4.61,9.13,1.8,15.39c0,0-.37-13.49-2.78-14.51,0,0-4,3.51-4.59,5,0,0,3.15,6.62,1.2,10.12,0,0-1.2-9-2.19-9,0,0-4,5.95-4.38,10,0,0,.17-6.07,3.42-10.6a11.85,11.85,0,0,0-6.07,3.14s.61-4.21,7.05-4.58c0,0,3.28-4.51,4.15-4.79,0,0-6.4-.53-10.28,1.19,0,0,3.42-4,11.46-2.17l4.49-3.67s-8.43-1.15-12,.12c0,0,4.11-3.51,13.21-.95l4.89-2.93s-7.18-1.54-11.46-1c0,0,4.51-2.43,12.9.21l3.49-1.57s-5.26-1-6.8-1.2-1.62-.59-1.62-.59a18.22,18.22,0,0,1,9.88,1.1S518.57,818.71,518.44,818.24Z" transform="translate(-59.31 -39.43)"/><ellipse cx="430" cy="816.08" fill="#673fbd" opacity=".1" rx="29.92" ry="5.06"/><path fill="#673fbd" d="M444.37,819.82s-23.84-1.44-21,15.26a4.07,4.07,0,0,0,2.12,4.29s0-1.23,2.44-.81a11.15,11.15,0,0,0,2.59.12,5.34,5.34,0,0,0,3.17-1.31h0s6.7-2.76,9.3-13.71c0,0,1.93-2.39,1.85-3l-4,1.72s1.38,2.9.3,5.31c0,0-.13-5.2-.91-5.08-.15,0-2.09,1-2.09,1s2.37,5.06.58,8.73c0,0,.68-6.22-1.32-8.36l-2.83,1.65s2.77,5.22.89,9.48c0,0,.48-6.53-1.48-9.07l-2.57,2s2.6,5.14,1,8.68c0,0-.2-7.61-1.56-8.19a15.42,15.42,0,0,0-2.59,2.8s1.78,3.73.67,5.7c0,0-.67-5.06-1.23-5.09,0,0-2.23,3.36-2.47,5.66a12.24,12.24,0,0,1,1.93-6,6.72,6.72,0,0,0-3.42,1.77s.34-2.37,4-2.58c0,0,1.85-2.54,2.35-2.7,0,0-3.61-.3-5.8.67,0,0,1.92-2.24,6.46-1.22l2.53-2.07s-4.75-.65-6.77.07c0,0,2.32-2,7.45-.54l2.76-1.65a25.18,25.18,0,0,0-6.46-.56s2.54-1.37,7.27.12l2-.89s-3-.58-3.84-.67-.91-.33-.91-.33a10.28,10.28,0,0,1,5.57.62S444.44,820.08,444.37,819.82Z" transform="translate(-59.31 -39.43)"/><ellipse cx="368.63" cy="801.4" fill="#673fbd" opacity=".1" rx="16.87" ry="2.85"/><path fill="#673fbd" d="M489.74,784.41s-28.78-1.74-25.38,18.43a4.91,4.91,0,0,0,2.55,5.18s0-1.5,2.95-1a13.14,13.14,0,0,0,3.13.15,6.46,6.46,0,0,0,3.82-1.58h0s8.09-3.34,11.24-16.56c0,0,2.33-2.88,2.23-3.63l-4.85,2.08s1.66,3.5.35,6.41c0,0-.16-6.28-1.09-6.14-.19,0-2.52,1.22-2.52,1.22s2.85,6.1.7,10.54c0,0,.82-7.52-1.59-10.1l-3.42,2s3.33,6.31,1.07,11.45c0,0,.58-7.89-1.79-11l-3.1,2.42s3.14,6.21,1.22,10.48c0,0-.25-9.19-1.89-9.88,0,0-2.71,2.39-3.12,3.37,0,0,2.14,4.51.81,6.89,0,0-.82-6.12-1.49-6.15,0,0-2.69,4.06-3,6.83a14.77,14.77,0,0,1,2.33-7.22,8.1,8.1,0,0,0-4.13,2.15s.42-2.87,4.8-3.12c0,0,2.23-3.08,2.83-3.26,0,0-4.36-.37-7,.8,0,0,2.32-2.7,7.79-1.47l3.06-2.5s-5.73-.78-8.17.08c0,0,2.8-2.39,9-.64l3.33-2s-4.89-1-7.81-.67c0,0,3.08-1.66,8.78.14l2.38-1.07s-3.58-.7-4.63-.81-1.1-.4-1.1-.4a12.36,12.36,0,0,1,6.73.74S489.83,784.72,489.74,784.41Z" transform="translate(-59.31 -39.43)"/><ellipse cx="410.61" cy="770.34" fill="#673fbd" opacity=".1" rx="20.37" ry="3.44"/><ellipse cx="620.55" cy="771.76" fill="#673fbd" opacity=".1" rx="29.92" ry="5.06"/><path fill="#a8a8a8" d="M659.76,787.68s17.07-.52,22.22-4.18,26.25-8,27.53-2.17,25.65,29.22,6.38,29.38-44.78-3-49.91-6.13S659.76,787.68,659.76,787.68Z" transform="translate(-59.31 -39.43)"/><path d="M716.23,808.66c-19.27.16-44.77-3-49.91-6.13-3.91-2.38-5.46-10.92-6-14.87l-.57,0s1.09,13.77,6.22,16.9,30.64,6.28,49.91,6.13c5.56-.05,7.48-2,7.38-5C722.49,807.52,720.37,808.63,716.23,808.66Z" opacity=".2" transform="translate(-59.31 -39.43)"/></svg>