<svg xmlns="http://www.w3.org/2000/svg" viewBox="0 0 1068.36 544"><defs><style>.cls-1{fill:#5629b6;}</style></defs><title>erxes logo 2</title><g id="Layer_1" data-name="Layer 1"><path class="cls-1" d="M362.65,536.11s216-364.27,362.18-529C622.9,203.11,493.32,385.66,362.65,536.11Z"/><path class="cls-1" d="M654.37,435.11S572,256,432.22,108.43C515.22,261.7,518.83,281.44,654.37,435.11Z"/><path class="cls-1" d="M7.51,276.42q0-63.06,30-98.94t87.4-35.88q27.16,0,46.91,8.45a97.93,97.93,0,0,1,33.06,22.56,89.21,89.21,0,0,1,19.74,33.06,125.81,125.81,0,0,1,6.41,40.5c0,3.42-.09,6.76-.26,10s-.43,6.58-.77,10l-54.85-1q-27.18-.51-54.85-.51-16.92,0-33.58.51l-33.58,1a42.68,42.68,0,0,0-.51,7.69v6.66a116,116,0,0,0,5.89,37.42,85,85,0,0,0,17.18,30,82,82,0,0,0,27.68,20q16.39,7.44,37.93,7.44a82.71,82.71,0,0,0,21-2.82,119.25,119.25,0,0,0,21-7.69,115,115,0,0,0,19.23-11.54A97.46,97.46,0,0,0,218.2,339l2.56,1.54-3.07,25.12q-15.39,12.3-38.19,21a132,132,0,0,1-47.42,8.71q-27.69,0-50.5-8.46a111.81,111.81,0,0,1-39.47-24.6,110.43,110.43,0,0,1-25.63-38.2A125,125,0,0,1,7.51,276.42ZM125.93,158q-19,0-32,8.71A74.75,74.75,0,0,0,72.36,188.5a103.73,103.73,0,0,0-12.82,28.71,151.44,151.44,0,0,0-5.38,29.48q15.89.51,33.06,1t33.58.51q16.92,0,34.35-.51t33.83-1a197,197,0,0,0-2.31-29.22,91.06,91.06,0,0,0-9.22-28.71,61.39,61.39,0,0,0-19.23-22Q145.92,158,125.93,158Z"/><path class="cls-1" d="M392.24,183.12a46.09,46.09,0,0,0-15.12-2.56,43.29,43.29,0,0,0-22.05,5.63,51.45,51.45,0,0,0-16.4,15.13,71.71,71.71,0,0,0-10.25,22.55,104.88,104.88,0,0,0-3.59,27.94V308.2q0,34.35.26,52.55a249.82,249.82,0,0,0,1.79,29.47,204.1,204.1,0,0,0-20.51-1,214.69,214.69,0,0,0-21.53,1q1.55-17.42,1.8-47.42t.25-73.56v-16.4q0-20-.25-46.14t-1.8-60c3.76.69,7.35,1.28,10.77,1.8a72.78,72.78,0,0,0,10.76.76,66,66,0,0,0,9.74-.76c3.42-.52,7-1.11,10.77-1.8q-2.06,18.47-2.31,29.22t-.25,20.51l1,.51Q355.58,141.6,393,141.6a53.57,53.57,0,0,1,7.95.51,41,41,0,0,1,8.45,2.56q-2.57,6.15-3.07,18.71t-.51,22.81l-3.59,2.57Q399.66,185.69,392.24,183.12Z"/><path class="cls-1" d="M651.19,276.42q0-63.06,30-98.94t87.4-35.88q27.17,0,46.91,8.45a97.93,97.93,0,0,1,33.06,22.56,89.08,89.08,0,0,1,19.74,33.06,125.81,125.81,0,0,1,6.41,40.5c0,3.42-.09,6.76-.26,10s-.43,6.58-.77,10l-54.85-1q-27.18-.51-54.85-.51-16.92,0-33.58.51l-33.58,1a42.68,42.68,0,0,0-.51,7.69v6.66a116,116,0,0,0,5.89,37.42,85,85,0,0,0,17.18,30,82,82,0,0,0,27.68,20q16.4,7.44,37.94,7.44a82.7,82.7,0,0,0,21-2.82,119.25,119.25,0,0,0,21-7.69,115,115,0,0,0,19.23-11.54A97,97,0,0,0,861.88,339l2.56,1.54-3.07,25.12q-15.39,12.3-38.19,21a132,132,0,0,1-47.42,8.71q-27.69,0-50.5-8.46a111.81,111.81,0,0,1-39.47-24.6,110.43,110.43,0,0,1-25.63-38.2A125,125,0,0,1,651.19,276.42ZM769.61,158q-19,0-32,8.71A74.75,74.75,0,0,0,716,188.5a103.73,103.73,0,0,0-12.82,28.71,151.44,151.44,0,0,0-5.38,29.48q15.88.51,33.06,1t33.58.51q16.92,0,34.35-.51t33.83-1a197,197,0,0,0-2.31-29.22,91.06,91.06,0,0,0-9.22-28.71,61.39,61.39,0,0,0-19.23-22Q789.6,158,769.61,158Z"/><path class="cls-1" d="M933.91,353.83a76.21,76.21,0,0,0,12.81,11.53,71.54,71.54,0,0,0,16.92,9,58.65,58.65,0,0,0,39,.51,51.22,51.22,0,0,0,15.89-8.71,40.44,40.44,0,0,0,11-14.35,46.53,46.53,0,0,0,4.1-20q0-15.88-9-24.35a70.59,70.59,0,0,0-22.3-13.84,236,236,0,0,0-29.22-9.48,122.38,122.38,0,0,1-29.22-11.54,68.56,68.56,0,0,1-22.3-19.73q-9-12.3-9-33.84a82.78,82.78,0,0,1,5.64-31,68.16,68.16,0,0,1,16.41-24.35,76.73,76.73,0,0,1,26.65-16.15q15.88-5.88,36.4-5.89,19,0,32,5.12t24.86,9.23a113.84,113.84,0,0,0-7.69,19,135.93,135.93,0,0,0-4.61,17.43h-6.15q-4.11-12.32-15.89-22t-29.22-9.74a48.32,48.32,0,0,0-15.38,2.57,42.41,42.41,0,0,0-13.85,7.69,40.8,40.8,0,0,0-10.25,13.32q-4.11,8.21-4.1,19.48,0,16.42,9,25.38a62.89,62.89,0,0,0,22.3,14.1,234.68,234.68,0,0,0,29.22,9,129.12,129.12,0,0,1,29.22,10.76,63.54,63.54,0,0,1,22.3,19.23q9,12.3,9,33.83a71.15,71.15,0,0,1-6.4,29.22A82.07,82.07,0,0,1,1043.61,371a84.68,84.68,0,0,1-29,17.94q-16.92,6.4-38.45,6.41-23.6,0-39.47-4.61A123.53,123.53,0,0,1,910.07,380a134.57,134.57,0,0,0,6.41-18.2q3.33-11.53,3.33-19.22H926A55.22,55.22,0,0,0,933.91,353.83Z"/></g></svg>