<svg xmlns="http://www.w3.org/2000/svg" xmlns:xlink="http://www.w3.org/1999/xlink" version="1.1" style="enable-background:new 0 0 486.392 486.392;" xml:space="preserve" width="486.392" height="486.392"><rect id="backgroundrect" width="100%" height="100%" x="0" y="0" fill="none" stroke="none"/>
















<g class="currentLayer" style=""><title>Layer 1</title><g id="svg_1" class="selected" fill="#673fbd" fill-opacity="1">
	<g id="svg_2" fill="#673fbd" fill-opacity="1">
		<g id="svg_3" fill="#673fbd" fill-opacity="1">
			<g id="svg_4" fill="#673fbd" fill-opacity="1">
				<path style="" d="M486.392,285.709c0-43.41-24.228-82.109-62.167-108.04c2.675,12.038,4.226,24.411,4.226,37.118      c0,98.129-83.295,179.934-192.976,197.505c23.195,9.363,49.156,14.835,76.88,14.835c26.052,0,50.767-4.803,72.959-13.224      c28.211,9.576,58.945,12.069,84.389,12.069c-13.285-15.838-22.404-31.403-28.971-45.082      C469.003,355.78,486.392,322.432,486.392,285.709z" id="svg_5" fill="#673fbd" fill-opacity="1"/>
				<path style="" d="M382.851,214.787c0-85.879-85.666-155.524-191.425-155.524C85.696,59.264,0,128.909,0,214.787      c0,44.809,23.438,85.058,60.769,113.42c-7.022,18.118-18.908,41.799-39.063,66.028c38.243,0,87.49-4.985,125.398-28.332      c14.257,2.797,29.062,4.408,44.322,4.408C297.155,370.311,382.851,300.666,382.851,214.787z" id="svg_6" fill="#673fbd" fill-opacity="1"/>
			</g>
		</g>
	</g>
	<g id="svg_7" fill="#673fbd" fill-opacity="1">
	</g>
	<g id="svg_8" fill="#673fbd" fill-opacity="1">
	</g>
	<g id="svg_9" fill="#673fbd" fill-opacity="1">
	</g>
	<g id="svg_10" fill="#673fbd" fill-opacity="1">
	</g>
	<g id="svg_11" fill="#673fbd" fill-opacity="1">
	</g>
	<g id="svg_12" fill="#673fbd" fill-opacity="1">
	</g>
	<g id="svg_13" fill="#673fbd" fill-opacity="1">
	</g>
	<g id="svg_14" fill="#673fbd" fill-opacity="1">
	</g>
	<g id="svg_15" fill="#673fbd" fill-opacity="1">
	</g>
	<g id="svg_16" fill="#673fbd" fill-opacity="1">
	</g>
	<g id="svg_17" fill="#673fbd" fill-opacity="1">
	</g>
	<g id="svg_18" fill="#673fbd" fill-opacity="1">
	</g>
	<g id="svg_19" fill="#673fbd" fill-opacity="1">
	</g>
	<g id="svg_20" fill="#673fbd" fill-opacity="1">
	</g>
	<g id="svg_21" fill="#673fbd" fill-opacity="1">
	</g>
</g><g id="svg_22">
</g><g id="svg_23">
</g><g id="svg_24">
</g><g id="svg_25">
</g><g id="svg_26">
</g><g id="svg_27">
</g><g id="svg_28">
</g><g id="svg_29">
</g><g id="svg_30">
</g><g id="svg_31">
</g><g id="svg_32">
</g><g id="svg_33">
</g><g id="svg_34">
</g><g id="svg_35">
</g><g id="svg_36">
</g></g></svg>