<svg xmlns="http://www.w3.org/2000/svg" xmlns:xlink="http://www.w3.org/1999/xlink" version="1.1" style="" xml:space="preserve" width="502.66400146484375" height="502.66400146484375"><rect id="backgroundrect" width="100%" height="100%" x="0" y="0" fill="none" stroke="none"/>
















<g class="currentLayer" style=""><title>Layer 1</title><g id="svg_1" class="selected" fill="#6569df" fill-opacity="1">
	<g id="svg_2" fill="#6569df" fill-opacity="1">
		<g id="svg_3" fill="#6569df" fill-opacity="1">
			<path style="" d="M378.74,181.184c0-76.576-84.708-138.743-189.305-138.743C84.73,42.441,0,104.608,0,181.184     c0,47.154,32.291,88.591,81.343,113.7l-47.024,89.389l101.987-70.515c16.955,3.645,34.6,6.234,53.129,6.234     C294.053,319.992,378.74,257.846,378.74,181.184z M129.942,196.24H89.95v-40.014h39.992V196.24z M251.3,156.226h39.992v40.014     H251.3V156.226z M170.625,156.226h39.971v40.014h-39.971V156.226z" id="svg_4" fill="#6569df" fill-opacity="1"/>
			<path style="" d="M502.664,268.481c0-50.325-38.763-93.984-95.602-115.943c2.804,10.332,4.314,21.053,4.314,32.097     c0,90.77-100.304,164.412-224.25,164.412c-1.532,0-2.955-0.324-4.465-0.324c32.68,30.868,83.695,50.799,141.138,50.799     c17.515,0,34.147-2.438,50.152-5.846l96.378,66.546l-44.457-84.363C472.206,352.111,502.664,312.981,502.664,268.481z" id="svg_5" fill="#6569df" fill-opacity="1"/>
		</g>
	</g>
	<g id="svg_6" fill="#6569df" fill-opacity="1">
	</g>
	<g id="svg_7" fill="#6569df" fill-opacity="1">
	</g>
	<g id="svg_8" fill="#6569df" fill-opacity="1">
	</g>
	<g id="svg_9" fill="#6569df" fill-opacity="1">
	</g>
	<g id="svg_10" fill="#6569df" fill-opacity="1">
	</g>
	<g id="svg_11" fill="#6569df" fill-opacity="1">
	</g>
	<g id="svg_12" fill="#6569df" fill-opacity="1">
	</g>
	<g id="svg_13" fill="#6569df" fill-opacity="1">
	</g>
	<g id="svg_14" fill="#6569df" fill-opacity="1">
	</g>
	<g id="svg_15" fill="#6569df" fill-opacity="1">
	</g>
	<g id="svg_16" fill="#6569df" fill-opacity="1">
	</g>
	<g id="svg_17" fill="#6569df" fill-opacity="1">
	</g>
	<g id="svg_18" fill="#6569df" fill-opacity="1">
	</g>
	<g id="svg_19" fill="#6569df" fill-opacity="1">
	</g>
	<g id="svg_20" fill="#6569df" fill-opacity="1">
	</g>
</g><g id="svg_21">
</g><g id="svg_22">
</g><g id="svg_23">
</g><g id="svg_24">
</g><g id="svg_25">
</g><g id="svg_26">
</g><g id="svg_27">
</g><g id="svg_28">
</g><g id="svg_29">
</g><g id="svg_30">
</g><g id="svg_31">
</g><g id="svg_32">
</g><g id="svg_33">
</g><g id="svg_34">
</g><g id="svg_35">
</g></g></svg>