<?xml version="1.0" encoding="utf-8"?>
<!-- Generator: Adobe Illustrator 22.1.0, SVG Export Plug-In . SVG Version: 6.00 Build 0)  -->
<svg version="1.1" id="Layer_1" xmlns="http://www.w3.org/2000/svg" xmlns:xlink="http://www.w3.org/1999/xlink" x="0px" y="0px"
	 viewBox="0 0 484 484" style="enable-background:new 0 0 484 484;" xml:space="preserve">
<style type="text/css">
	.st0{fill:#7076DA;}
</style>
<g>
	<g>
		<path class="st0" d="M398.3,111.2H327c-9.9,0-18,8.1-18,18s8.1,18,18,18h28L235.2,267c-7,7-7,18.4,0,25.5
			c3.5,3.4,8.1,5.2,12.7,5.2c4.6,0,9.2-1.8,12.7-5.3l119.7-119.7v28c0,9.9,8.1,18,18,18s18-8.1,18-18v-71.4
			C416.3,119.3,408.2,111.2,398.3,111.2z"/>
	</g>
</g>
<g>
	<g>
		<path class="st0" d="M238.8,136.8c-7-7-18.4-7-25.5,0L103.6,246.6v-28c0-9.9-8.1-18-18-18s-18,8.1-18,18V290c0,9.9,8.1,18,18,18
			H157c9.9,0,18-8.1,18-18s-8.1-18-18-18h-28l109.8-109.8C245.9,155.1,245.9,143.8,238.8,136.8z"/>
	</g>
</g>
<g>
	<g>
		<path class="st0" d="M444.5,14.9h-405C17.7,14.9,0,32.7,0,54.5v300.4c0,21.8,17.7,39.6,39.6,39.6H224v38.7h-56.7
			c-9.9,0-18,8.1-18,18s8.1,18,18,18h149.4c9.9,0,18-8.1,18-18s-8.1-18-18-18H260v-56.7c0-9.9-8.1-18-18-18H39.5
			c-2,0-3.6-1.6-3.6-3.6V54.5c0-2,1.6-3.6,3.6-3.6h404.9c2,0,3.6,1.6,3.6,3.6v300.4c0,2-1.6,3.6-3.6,3.6H332.8c-9.9,0-18,8.1-18,18
			s8.1,18,18,18h111.6c21.8,0,39.6-17.7,39.6-39.6V54.5C484,32.7,466.3,14.9,444.5,14.9z"/>
	</g>
</g>
</svg>
