<?xml version="1.0" encoding="UTF-8"?>
<svg viewBox="0 0 411 411" version="1.1" xmlns="http://www.w3.org/2000/svg" xmlns:xlink="http://www.w3.org/1999/xlink">
    <!-- Generator: Sketch 46.2 (44496) - http://www.bohemiancoding.com/sketch -->
    <title>erxes</title>
    <desc>Created with Sketch.</desc>
    <defs></defs>
    <g id="Page-1" stroke="none" stroke-width="1" fill="none" fill-rule="evenodd">
        <g id="Artboard" fill-rule="nonzero">
            <g id="profit" transform="translate(0.000000, 69.000000)">
                <polygon id="Shape" fill="#B7AFFE" points="163.376073 104 8 264 120.168564 210.678677 164 104.626113"></polygon>
                <polygon id="Shape" fill="#FFFFFF" points="259.193118 8 307.128211 56.2004813 211.257223 152.602246 163.947711 105.028318 120 211.291278 157.331445 194.777066 211.257223 249 355.064106 104.400963 403 152.602246 403 8"></polygon>
                <g id="Group" fill="#5629B6">
                    <path d="M7.32314453,272.311076 C5.02089844,272.311076 2.77630859,271.220682 1.36693359,269.239024 C-0.694277344,266.350041 -0.3971875,262.397162 2.07322266,259.849429 L157.817969,99.3936794 C160.640723,96.4862294 165.274844,96.4244029 168.170469,99.2507559 C171.070098,102.081124 171.131758,106.727744 168.309805,109.631179 L40.9463477,240.853447 L116.616973,204.863215 C120.266934,203.112 124.633594,204.683356 126.368887,208.346374 C128.100176,212.009391 126.544258,216.388632 122.891094,218.124591 L10.4566016,271.602079 C9.45001953,272.083041 8.38097656,272.311076 7.32314453,272.311076 Z" id="Shape"></path>
                    <path d="M143.897188,160.361806 C142.963477,160.361806 142.012148,160.177932 141.092852,159.80055 C137.358809,158.24445 135.58748,153.949518 137.135391,150.205403 L156.939512,102.341276 C157.876426,100.076179 159.882383,98.4317559 162.280723,97.9548088 C164.678262,97.4850882 167.160684,98.2374441 168.887969,99.9774176 L211.001055,142.354244 L244.690723,108.416329 C247.542305,105.545815 252.177227,105.534574 255.043223,108.390635 C257.909219,111.249909 257.92043,115.900544 255.068848,118.775074 L216.19252,157.938529 C214.81998,159.321997 212.952559,160.10085 211.005059,160.10085 C209.057559,160.10085 207.190938,159.3228 205.817598,157.938529 L166.263809,118.1271 L150.662188,155.827597 C149.493848,158.654753 146.770391,160.361806 143.897188,160.361806 Z" id="Shape"></path>
                    <path d="M271.805977,98.8757824 C269.935352,98.8757824 268.06873,98.1635735 266.640938,96.7359441 C263.774941,93.8766706 263.76373,89.2260353 266.619316,86.3555206 L296.505273,56.2604824 L253.733145,13.2083824 C251.646309,11.1086912 251.024102,7.95232941 252.158809,5.21028529 C253.293516,2.47225588 255.96252,0.688120588 258.919805,0.688120588 L402.676055,0.688120588 C406.717598,0.688120588 409.997598,3.97696765 409.997598,8.02941176 L409.997598,39.2292971 C409.997598,43.2817412 406.717598,46.5705882 402.676055,46.5705882 C398.634512,46.5705882 395.354512,43.2817412 395.354512,39.2292971 L395.354512,15.3707029 L276.546602,15.3707029 L312.022813,51.0815118 C314.867188,53.9448 314.867188,58.5769676 312.022813,61.4402559 L276.989434,96.7142647 C275.561641,98.1563471 273.683809,98.8757824 271.805977,98.8757824 Z" id="Shape"></path>
                    <path d="M211.001855,256.563794 C209.058359,256.563794 207.187734,255.785744 205.814395,254.405488 L155.439648,203.718221 L122.694902,218.202476 C119.953027,219.4101 116.757109,218.826362 114.619023,216.733897 C112.480938,214.638221 111.829902,211.444924 112.97502,208.673171 L125.01877,179.56575 C126.56748,175.821635 130.842852,174.048741 134.588105,175.597615 C138.322148,177.153715 140.093477,181.448647 138.545566,185.192762 L133.508652,197.371774 L154.125566,188.250362 C156.885859,187.028285 160.129023,187.633703 162.267109,189.784782 L211.001855,238.8204 L349.574648,99.3487147 C352.32373,96.5809765 357.199688,96.5809765 359.94877,99.3487147 L395.355313,134.986456 L395.355313,75.9341471 C395.355313,71.8817029 398.635313,68.5928559 402.676855,68.5928559 C406.718398,68.5928559 409.998398,71.8817029 409.998398,75.9341471 L409.998398,152.759559 C409.998398,155.73285 408.211855,158.40825 405.473984,159.546821 C402.728105,160.677362 399.584238,160.049462 397.490195,157.939332 L354.758906,114.931394 L216.188516,254.402276 C214.815977,255.785744 212.949355,256.563794 211.001855,256.563794 Z" id="Shape"></path>
                </g>
            </g>
        </g>
    </g>
</svg>