<?xml version="1.0" encoding="utf-8"?>
<!-- Generator: Adobe Illustrator 23.0.3, SVG Export Plug-In . SVG Version: 6.00 Build 0)  -->
<svg version="1.1" id="Layer_1" xmlns="http://www.w3.org/2000/svg" xmlns:xlink="http://www.w3.org/1999/xlink" x="0px" y="0px"
	 viewBox="0 0 411 411" style="enable-background:new 0 0 411 411;" xml:space="preserve">
<style type="text/css">
	.st0{fill:#63D2D6;}
	.st1{display:none;}
	.st2{display:inline;fill:#FFFFFF;}
	.st3{fill:#5629B6;}
</style>
<g id="Page-1">
	<g id="Artboard">
		<g id="agree" transform="translate(0.000000, 85.000000)">
			<path id="Shape" class="st0" d="M66,171.4v26c0,10.2-8.1,18.5-18.1,18.6H15.3c-4,0-7.2-3.3-7.3-7.4V15.4C8,11.3,11.3,8,15.3,8
				h43.5c4,0,7.2,3.3,7.3,7.4V171.4z"/>
			<g id="Group" transform="translate(66.000000, 18.000000)" class="st1">
				<path class="st2" d="M148.4,179.1c3,10.6-2.4,21.9-12.5,26.1c-2.6,1.1-5.4,1.7-8.3,1.7c-8.8,0-16.7-5.3-20-13.5l-2.5-6
					c3.2,10.6-2.2,21.9-12.3,26.1c-2.6,1.1-5.4,1.7-8.2,1.7c-8.7,0-16.5-5.3-19.8-13.4l-20.6-50.3H0.2V11.1h128.3L64.7,73.7
					c-5.7,5.8-5.7,15.1,0,20.9c12,12.1,31.4,12.1,43.4,0c0,0,0,0,0,0l27.9-30c3.4-3.5,8.1-5.4,12.9-5.4h45.5l39.5,99.9
					c4.5,11.1-0.7,23.8-11.7,28.5c-2.6,1.1-5.5,1.7-8.3,1.7c-8.8,0-16.7-5.4-20-13.6l-2.5-5.8c3.2,10.7-2.2,22.2-12.4,26.5
					c-2.6,1.1-5.5,1.7-8.3,1.7c-8.8,0-16.7-5.4-20-13.6L148.4,179.1z"/>
				<path class="st2" d="M278.8,33.3v140.5h-44.2c1.5-4.9,1.3-10.1-0.7-14.8l-39.5-99.9h-45.5c-4.9,0-9.5,1.9-12.9,5.4l-27.9,30
					c-12,12.1-31.4,12.1-43.4,0c0,0,0,0,0,0c-5.7-5.8-5.7-15.1,0-20.9l62-60.7l8.5-8.6C138,1.6,141.7,0,145.6,0h63
					c3.9,0,7.6,1.6,10.4,4.3l22,20.3c5.5,5.5,12.9,8.7,20.7,8.7H278.8z"/>
			</g>
			<path class="st0" d="M402,15.4v193.1c0,4.1-3.3,7.4-7.3,7.4h-32.6c-10,0-18.1-8.3-18.1-18.6v-182c0-4.1,3.3-7.4,7.3-7.4h43.5
				C398.7,8,402,11.3,402,15.4z"/>
			<g>
				<path class="st3" d="M95.2,37.1H65.9c-4,0-7.3-3.3-7.3-7.4s3.3-7.4,7.3-7.4h29.3c4,0,7.3,3.3,7.3,7.4S99.2,37.1,95.2,37.1z"/>
				<path class="st3" d="M193.8,37.1h-62c-4,0-7.3-3.3-7.3-7.4s3.3-7.4,7.3-7.4h62c4,0,7.3,3.3,7.3,7.4S197.9,37.1,193.8,37.1z"/>
				<path class="st3" d="M344.1,199.9H300c-4,0-7.3-3.3-7.3-7.4c0-4.1,3.3-7.4,7.3-7.4h44.1c4,0,7.3,3.3,7.3,7.4
					C351.4,196.6,348.1,199.9,344.1,199.9z"/>
				<path class="st3" d="M110,177.7H69.6c-4,0-7.3-3.3-7.3-7.4c0-4.1,3.3-7.4,7.3-7.4H110c4,0,7.3,3.3,7.3,7.4
					C117.3,174.4,114,177.7,110,177.7z"/>
				<path class="st3" d="M279.4,215.3c-11.9,0-22.4-7.1-26.8-18.2l-2.4-5.6c0-0.1-0.1-0.2-0.1-0.2c-1.5-3.6,0.1-7.8,3.6-9.5
					c3.6-1.7,7.8-0.3,9.6,3.2c0.2,0.3,0.3,0.6,0.4,0.9l2.4,5.6c2.2,5.6,7.4,9.1,13.2,9.1c0,0,0,0,0,0c1.9,0,3.7-0.4,5.5-1.1
					c7.2-3.1,10.6-11.5,7.7-18.9L275,136.1c-1.5-3.8,0.3-8.1,4.1-9.6c3.8-1.5,8,0.3,9.5,4.1l17.5,44.4c6,14.8-1,31.9-15.6,38.1
					C287,214.5,283.3,215.3,279.4,215.3C279.4,215.3,279.4,215.3,279.4,215.3z"/>
				<path class="st3" d="M162.4,68c-1.9,0-3.8-0.7-5.2-2.2c-2.8-2.9-2.8-7.6,0.1-10.5l38.3-37.7c4.1-4.1,9.6-6.4,15.5-6.4
					c0,0,21,0,62.9,0c5.9,0,11.4,2.3,15.5,6.5l21.7,20.1c4.4,4.4,9.9,6.7,15.7,6.7c0,0,5.7,0,17.2,0c4,0,7.3,3.3,7.3,7.4
					s-3.3,7.4-7.3,7.4h-17.2c-9.8,0-19-3.8-25.9-10.8l-21.7-20.1c-1.6-1.6-3.4-2.4-5.4-2.4c0,0-21,0-62.9,0c-2,0-3.8,0.8-5.2,2.2
					l-38.4,37.8C166.1,67.3,164.2,68,162.4,68z"/>
				<path class="st3" d="M151.9,129.7c-9.7,0-19.4-3.7-26.8-11.2c-8.5-8.7-8.5-22.7,0-31.4l10-9.8c2.9-2.8,7.5-2.8,10.4,0.2
					c2.8,2.9,2.7,7.6-0.2,10.5l-9.9,9.7c-2.8,2.8-2.8,7.5,0.1,10.4c9.1,9.2,23.9,9.2,33,0l27.7-29.9c5-5,11.4-7.7,18.3-7.7h45.4
					c3,0,5.7,1.8,6.8,4.7l9,22.8c1.5,3.8-0.3,8.1-4.1,9.6c-3.8,1.5-8-0.3-9.5-4.1l-7.2-18.1h-40.5c-2.9,0-5.7,1.2-7.8,3.2
					l-27.7,29.9C171.4,125.9,161.6,129.7,151.9,129.7z"/>
				<path class="st3" d="M209.4,206l-2.2-5.3c-1.6-3.8,0.1-8.1,3.9-9.7c3.7-1.6,8,0.1,9.6,3.9l2.3,5.4c2.3,5.6,7.4,9.1,13.3,9.1
					c1.9,0,3.8-0.4,5.5-1.1c7.3-3.1,10.7-11.5,7.7-18.9l-23.8-58.4c-1.5-3.8,0.2-8.1,4-9.7c3.7-1.6,8,0.2,9.6,4l23.8,58.4
					c6.1,14.9-0.9,32-15.6,38.2c-3.5,1.5-7.2,2.2-11.1,2.3C224.4,224.2,213.9,217.1,209.4,206z"/>
				<path class="st3" d="M193.2,233.1c-11.8,0-22.3-7.1-26.7-18.1l-2.4-6h0c-0.5-1.1-0.7-2.4-0.6-3.6c0.4-4.1,4-7,8-6.7
					c2.9,0.3,5.3,2.3,6.2,4.9l2.4,5.8c2.2,5.4,7.4,8.9,13.2,8.9c0,0,0,0,0,0c1.9,0,3.7-0.4,5.4-1.1c7.3-3.1,10.8-11.5,7.8-18.9
					L184.6,145c-1.5-3.8,0.2-8.1,4-9.7c3.7-1.5,8,0.2,9.6,4l21.8,53.3c6.1,14.9-0.9,32-15.6,38.2C200.8,232.3,197,233.1,193.2,233.1
					C193.2,233.1,193.2,233.1,193.2,233.1z"/>
				<path class="st3" d="M150.3,241.4C150.3,241.4,150.3,241.4,150.3,241.4c-11.7,0-22.1-7-26.6-17.9l-20.5-50.3
					c-1.5-3.8,0.2-8.1,4-9.7c3.7-1.6,8,0.2,9.6,4l20.5,50.3c2.2,5.3,7.3,8.8,13,8.8c0,0,0,0,0,0c1.9,0,3.6-0.4,5.3-1.1
					c7.2-3,10.6-11.3,7.6-18.5l-19.5-47.8c-1.5-3.8,0.2-8.1,4-9.7c3.7-1.6,8,0.2,9.6,4l19.5,47.8c6,14.7-0.9,31.7-15.5,37.8
					C157.8,240.6,154.1,241.4,150.3,241.4z"/>
				<path class="st3" d="M47.6,222.1H14.6c-8.1,0-14.6-6.7-14.6-14.8v-111c0-4.1,3.3-7.4,7.3-7.4s7.3,3.3,7.3,7.4v111h32.9
					c6.1,0,11-5,11-11.1v-48.1c0-4.1,3.3-7.4,7.3-7.4s7.3,3.3,7.3,7.4v48.1C73.2,210.5,61.7,222.1,47.6,222.1z"/>
				<path class="st3" d="M65.9,118.5c-4,0-7.3-3.3-7.3-7.4V14.9H14.6v44.4c0,4.1-3.3,7.4-7.3,7.4S0,63.4,0,59.3V14.9
					C0,6.8,6.6,0.1,14.6,0.1h44c8.1,0,14.6,6.7,14.6,14.8v96.2C73.2,115.2,69.9,118.5,65.9,118.5z"/>
				<path class="st3" d="M336.8,196.2v-37c0-4.1,3.3-7.4,7.3-7.4c4,0,7.3,3.3,7.3,7.4v37c0,6.1,4.9,11.1,11,11.1h32.9V77.8
					c0-4.1,3.3-7.4,7.3-7.4c4,0,7.3,3.3,7.3,7.4v129.5c0,8.1-6.6,14.8-14.6,14.8h-33C348.3,222.1,336.8,210.5,336.8,196.2z"/>
				<path class="st3" d="M344.1,129.6c-4,0-7.3-3.3-7.3-7.4V14.9c0-8.1,6.6-14.8,14.6-14.8h44c8.1,0,14.6,6.7,14.6,14.8v25.9
					c0,4.1-3.3,7.4-7.3,7.4c-4,0-7.3-3.3-7.3-7.4V14.9h-43.9v107.3C351.4,126.3,348.1,129.6,344.1,129.6z"/>
			</g>
		</g>
	</g>
</g>
</svg>
