<?xml version="1.0" encoding="UTF-8"?>
<svg viewBox="0 0 410 410" version="1.1" xmlns="http://www.w3.org/2000/svg" xmlns:xlink="http://www.w3.org/1999/xlink">
    <!-- Generator: Sketch 46.2 (44496) - http://www.bohemiancoding.com/sketch -->
    <title>erxes</title>
    <desc>Created with Sketch.</desc>
    <defs></defs>
    <g id="Page-1" stroke="none" stroke-width="1" fill="none" fill-rule="evenodd">
        <g id="Artboard" fill-rule="nonzero">
            <g id="loss" transform="translate(0.000000, 69.000000)">
                <polygon id="Shape" fill="#B7AFFE" points="162.376073 168 7 8 119.168564 61.3207897 163 167.373883"></polygon>
                <polygon id="Shape" fill="#FFFFFF" points="259.193512 265 307.128741 216.798716 211.257481 120.397754 163.947836 167.97088 120 61.7079196 157.33155 78.222132 211.257481 24 355.064771 168.598235 403 120.397754 403 265"></polygon>
                <g id="Group" fill="#5629B6">
                    <path d="M163.066289,175.1824 C161.158828,175.1824 159.255371,174.444 157.820371,172.9696 L2.07482422,13.1016 C-0.396386719,10.5632 -0.696679688,6.6248 1.36853516,3.7432 C3.42974609,0.8648 7.26228516,-0.1296 10.4582031,1.388 L122.893496,54.6656 C126.54666,56.3992 128.102578,60.7584 126.371289,64.408 C124.635996,68.0576 120.272539,69.6192 116.619375,67.8824 L40.94875,32.028 L168.312207,162.7672 C171.134961,165.66 171.068496,170.2936 168.172871,173.1096 C166.748281,174.4912 164.907285,175.1824 163.066289,175.1824 Z" id="Shape"></path>
                    <path d="M163.706914,174.5456 C163.234453,174.5456 162.758789,174.4984 162.286328,174.4064 C159.884785,173.9312 157.878828,172.2928 156.945117,170.036 L137.140996,122.3472 C135.592285,118.6136 137.364414,114.3384 141.098457,112.7872 C144.843711,111.2368 149.115078,113.0104 150.667793,116.7408 L166.269414,154.3032 L205.82,114.6344 C207.192539,113.2592 209.059961,112.484 211.007461,112.484 L211.007461,112.484 C212.954961,112.484 214.821582,113.2592 216.198125,114.6384 L255.075254,153.66 C257.923633,156.5232 257.912422,161.1568 255.049629,164.0064 C252.179629,166.852 247.548711,166.8368 244.693125,163.9808 L211.003457,130.1632 L168.894375,172.392 C167.506621,173.7856 165.635996,174.5456 163.706914,174.5456 Z" id="Shape"></path>
                    <path d="M402.677656,271.3144 L258.921406,271.3144 C255.960117,271.3144 253.295117,269.5368 252.16041,266.8088 C251.021699,264.0768 251.643906,260.9352 253.734746,258.84 L296.506875,215.9456 L266.620117,185.96 C263.768535,183.1 263.775742,178.4664 266.641738,175.6176 C269.504531,172.7688 274.145859,172.776 276.994238,175.6392 L312.027617,210.784 C314.871992,213.6368 314.871992,218.252 312.027617,221.1048 L276.551406,256.6848 L395.356113,256.6848 L395.356113,232.9136 C395.356113,228.876 398.636113,225.5992 402.677656,225.5992 C406.719199,225.5992 409.999199,228.876 409.999199,232.9136 L409.999199,264 C409.999199,268.0408 406.723203,271.3144 402.677656,271.3144 Z" id="Shape"></path>
                    <path d="M402.677656,203.6568 C398.636113,203.6568 395.356113,200.38 395.356113,196.3424 L395.356113,137.5064 L359.946367,173.0136 C357.204492,175.7712 352.321328,175.7712 349.572246,173.0136 L211.002656,34.0528 L162.26791,82.9016 C160.133828,85.0448 156.897871,85.648 154.126367,84.4304 L133.505449,75.3424 L138.546367,87.4768 C140.095078,91.2104 138.322949,95.4856 134.588906,97.0368 C130.847656,98.584 126.572285,96.8136 125.01957,93.0832 L112.97582,64.0824 C111.829902,61.3216 112.477734,58.1392 114.619824,56.0512 C116.753906,53.9592 119.957031,53.3816 122.695703,54.588 L155.440449,69.0192 L205.815195,18.5216 C207.191738,17.1464 209.058359,16.3712 211.002656,16.3712 C212.950156,16.3712 214.816777,17.1464 216.190117,18.5216 L354.758906,157.4896 L397.490195,114.6352 C399.584238,112.536 402.739316,111.9072 405.473984,113.0368 C408.211855,114.1672 409.998398,116.8368 409.998398,119.7992 L409.998398,196.3432 C409.999199,200.384 406.723203,203.6568 402.677656,203.6568 Z" id="Shape"></path>
                </g>
            </g>
        </g>
    </g>
</svg>