<?xml version="1.0" encoding="utf-8"?>
<!-- Generator: Adobe Illustrator 23.0.3, SVG Export Plug-In . SVG Version: 6.00 Build 0)  -->
<svg version="1.1" id="Layer_1" xmlns="http://www.w3.org/2000/svg" xmlns:xlink="http://www.w3.org/1999/xlink" x="0px" y="0px"
	 viewBox="0 0 411 411" style="enable-background:new 0 0 411 411;" xml:space="preserve">
<style type="text/css">
	.st0{fill:#63D2D6;}
	.st1{display:none;fill:#FFFFFF;}
	.st2{fill:#5629B6;}
</style>
<g id="Page-1">
	<g id="Artboard">
		<g id="profit" transform="translate(0.000000, 69.000000)">
			<polygon id="Shape" class="st0" points="163.4,104 8,264 120.2,210.7 164,104.6 			"/>
			<polygon class="st1" points="259.2,8 307.1,56.2 211.3,152.6 163.9,105 120,211.3 157.3,194.8 211.3,249 355.1,104.4 403,152.6 
				403,8 			"/>
			<g id="Group">
				<path class="st2" d="M7.3,272.3c-2.3,0-4.5-1.1-6-3.1c-2.1-2.9-1.8-6.8,0.7-9.4L157.8,99.4c2.8-2.9,7.5-3,10.4-0.1
					c2.9,2.8,3,7.5,0.1,10.4L40.9,240.9l75.7-36c3.6-1.8,8-0.2,9.8,3.5c1.7,3.7,0.2,8-3.5,9.8L10.5,271.6
					C9.5,272.1,8.4,272.3,7.3,272.3z"/>
				<path class="st2" d="M143.9,160.4c-0.9,0-1.9-0.2-2.8-0.6c-3.7-1.6-5.5-5.9-4-9.6l19.8-47.9c0.9-2.3,2.9-3.9,5.3-4.4
					c2.4-0.5,4.9,0.3,6.6,2l42.1,42.4l33.7-33.9c2.9-2.9,7.5-2.9,10.4,0c2.9,2.9,2.9,7.5,0,10.4l-38.9,39.2
					c-1.4,1.4-3.2,2.2-5.2,2.2c-1.9,0-3.8-0.8-5.2-2.2l-39.6-39.8l-15.6,37.7C149.5,158.7,146.8,160.4,143.9,160.4z"/>
				<path class="st2" d="M271.8,98.9c-1.9,0-3.7-0.7-5.2-2.1c-2.9-2.9-2.9-7.5,0-10.4l29.9-30.1l-42.8-43.1c-2.1-2.1-2.7-5.3-1.6-8
					c1.1-2.7,3.8-4.5,6.8-4.5h143.8c4,0,7.3,3.3,7.3,7.3v31.2c0,4.1-3.3,7.3-7.3,7.3s-7.3-3.3-7.3-7.3V15.4H276.5L312,51.1
					c2.8,2.9,2.8,7.5,0,10.4l-35,35.3C275.6,98.2,273.7,98.9,271.8,98.9z"/>
				<path class="st2" d="M211,256.6c-1.9,0-3.8-0.8-5.2-2.2l-50.4-50.7l-32.7,14.5c-2.7,1.2-5.9,0.6-8.1-1.5
					c-2.1-2.1-2.8-5.3-1.6-8.1l12-29.1c1.5-3.7,5.8-5.5,9.6-4c3.7,1.6,5.5,5.9,4,9.6l-5,12.2l20.6-9.1c2.8-1.2,6-0.6,8.1,1.5
					l48.7,49L349.6,99.3c2.7-2.8,7.6-2.8,10.4,0l35.4,35.6V75.9c0-4.1,3.3-7.3,7.3-7.3s7.3,3.3,7.3,7.3v76.8c0,3-1.8,5.6-4.5,6.8
					c-2.7,1.1-5.9,0.5-8-1.6l-42.7-43L216.2,254.4C214.8,255.8,212.9,256.6,211,256.6z"/>
			</g>
		</g>
	</g>
</g>
</svg>
