<svg id="Layer_1" data-name="Layer 1" xmlns="http://www.w3.org/2000/svg" viewBox="0 0 566.93 566.93"><defs><style>.cls-1{fill:#fff;}.cls-2{fill:#6c64b3;}.cls-3{fill:#392a6f;}</style></defs><title>erxes</title><path class="cls-1" d="M283.46,86c-47.54,84.12-153.6,69.49-153.6,69.49,0,135.31,0,285.26,153.6,325.48,153.6-40.23,153.6-190.17,153.6-325.48,0,0-106.05,14.63-153.6-69.49Zm0,0"/><path class="cls-2" d="M232.27,356.6c0-28.27,25.6-51.2,51.2-51.2s51.2,22.93,51.2,51.2c0,0-11,14.63-51.2,14.63s-51.2-14.63-51.2-14.63Zm0,0"/><path class="cls-2" d="M316.38,272.49a32.91,32.91,0,1,1-32.91-32.91,32.91,32.91,0,0,1,32.91,32.91Zm0,0"/><path class="cls-3" d="M430.31,306a7.32,7.32,0,0,1-7.27-8.27,785.23,785.23,0,0,0,6.59-105.62,7.32,7.32,0,0,1,7.27-7.35h0a7.31,7.31,0,0,1,7.31,7.27,799.77,799.77,0,0,1-6.71,107.6,7.32,7.32,0,0,1-7.24,6.37Zm0,0"/><path class="cls-3" d="M201.47,445.91a7.29,7.29,0,0,1-4.89-1.88c-39.31-35.4-61.43-87.34-69.63-163.45A7.32,7.32,0,0,1,141.49,279c7.79,72.32,28.41,121.3,64.88,154.15a7.32,7.32,0,0,1-4.89,12.75Zm0,0"/><path class="cls-3" d="M131.36,250.55a7.32,7.32,0,0,1-7.3-6.93c-.78-15.14-1.23-31.52-1.4-51.52a7.31,7.31,0,0,1,7.25-7.37H130a7.32,7.32,0,0,1,7.32,7.25c.17,19.79.61,36,1.38,50.89a7.32,7.32,0,0,1-6.93,7.68Zm0,0"/><path class="cls-3" d="M283.46,488.26a7.29,7.29,0,0,1-1.79-.23,219.73,219.73,0,0,1-54.06-21.6,7.31,7.31,0,1,1,7.18-12.75,205.14,205.14,0,0,0,48.64,19.7C352.26,454.83,393.71,413,413.78,342a7.32,7.32,0,0,1,14.08,4c-21.52,76.08-68.14,122.53-142.55,142a7.14,7.14,0,0,1-1.85.24Zm0,0"/><path class="cls-2" d="M283.46,86c-47.54,84.12-153.6,69.49-153.6,69.49,0,12.11,0,24.33.11,36.57,2.37.27,95.71,10.24,153.49-47.54,57.78,57.78,151.12,47.82,153.48,47.54.11-12.25.11-24.48.11-36.57,0,0-106.05,14.63-153.6-69.49Zm0,0"/><path class="cls-3" d="M418.27,200.18c-30.6,0-90.8-5.67-134.85-45.64a163,163,0,0,1-56.12,32.79,7.31,7.31,0,1,1-4.69-13.86,148.14,148.14,0,0,0,55.75-34.21,7.3,7.3,0,0,1,10.29.06c47.23,47.23,119.37,47.17,141.05,46q.07-11,.06-21.88a198,198,0,0,1-64.09-6.65,7.31,7.31,0,0,1,3.84-14.11,183.69,183.69,0,0,0,66.83,5.56,7.31,7.31,0,0,1,8,7.28c0,12.13,0,24.36-.11,36.64a7.32,7.32,0,0,1-6.42,7.2,184.92,184.92,0,0,1-19.58.89Zm0,0"/><path class="cls-3" d="M149.73,200.18q-10.2,0-20.37-.86a7.31,7.31,0,0,1-6.7-7.22c-.11-12.27-.11-24.51-.11-36.64a7.32,7.32,0,0,1,8.31-7.25c1,.14,101.76,12.85,146.23-65.84a7.32,7.32,0,0,1,6.37-3.71h0a7.31,7.31,0,0,1,6.37,3.75,121.8,121.8,0,0,0,44.84,45.71,7.31,7.31,0,1,1-7.37,12.63,136.37,136.37,0,0,1-43.87-40.91c-43.21,63.27-120.83,64.86-146.27,63.55q0,10.87.06,21.82a226.37,226.37,0,0,0,49.93-2.77,7.31,7.31,0,1,1,2.42,14.43,240.8,240.8,0,0,1-39.86,3.32Zm0,0"/><path class="cls-3" d="M283.46,312.72a40.23,40.23,0,1,1,40.23-40.23,40.28,40.28,0,0,1-40.23,40.23Zm0-65.83a25.6,25.6,0,1,0,25.6,25.6,25.63,25.63,0,0,0-25.6-25.6Zm0,0"/><path class="cls-3" d="M276.15,378.4h-.36c-36.65-1.76-48.19-15.8-49.39-17.4a7.3,7.3,0,0,1-1.46-4.39c0-31.17,27.34-58.51,58.52-58.51S342,325.43,342,356.6a7.34,7.34,0,0,1-1.46,4.39c-.7.93-7.34,9.21-26,14a7.32,7.32,0,1,1-3.66-14.17c9-2.32,14-5.44,16.34-7.28-1.76-23.58-23.89-40.86-43.77-40.86s-42,17.29-43.78,40.89c3.65,2.83,14.16,9.09,36.81,10.18a7.31,7.31,0,0,1-.35,14.62Zm0,0"/></svg>