<svg id="Layer_1" data-name="Layer 1" xmlns="http://www.w3.org/2000/svg" viewBox="0 0 566.93 566.93"><defs><style>.cls-1{fill:#fff;}.cls-2{fill:#6c64b3;}.cls-3{fill:#392a6f;}</style></defs><title>erxes</title><path class="cls-1" d="M144.75,155.47H437.32a14.63,14.63,0,0,1,14.63,14.63V382.21H130.12V170.1a14.63,14.63,0,0,1,14.63-14.63Zm0,0"/><path class="cls-1" d="M100.86,382.21H481.2a7.31,7.31,0,0,1,7.31,7.32,21.94,21.94,0,0,1-21.94,21.94H115.49a21.94,21.94,0,0,1-21.95-21.94,7.31,7.31,0,0,1,7.32-7.32Zm0,0"/><path class="cls-2" d="M243.49,301.75H206.92V199.35H338.57v36.57H243.49Zm0,0"/><path class="cls-3" d="M451.94,294.44a7.32,7.32,0,0,1-7.32-7.31v-117a7.32,7.32,0,0,0-7.31-7.32h-38.4a7.31,7.31,0,1,1,0-14.63h38.4a22,22,0,0,1,21.94,21.95v117a7.31,7.31,0,0,1-7.31,7.31Zm0,0"/><path class="cls-3" d="M164.86,389.52H130.12a7.32,7.32,0,0,1-7.32-7.31V170.1a22,22,0,0,1,21.95-21.95H296.51a7.31,7.31,0,1,1,0,14.63H144.75a7.32,7.32,0,0,0-7.32,7.32V374.9h27.43a7.31,7.31,0,0,1,0,14.63Zm0,0"/><path class="cls-3" d="M362.34,162.78H325.77a7.31,7.31,0,0,1,0-14.63h36.57a7.31,7.31,0,1,1,0,14.63Zm0,0"/><path class="cls-3" d="M451.94,389.52H201.43a7.31,7.31,0,0,1,0-14.63h243.2v-51.2a7.31,7.31,0,0,1,14.63,0v58.52a7.31,7.31,0,0,1-7.31,7.31Zm0,0"/><path class="cls-3" d="M314.8,418.78H115.49a29.29,29.29,0,0,1-29.26-29.26,14.76,14.76,0,0,1,14.58-14.63h64.05a7.31,7.31,0,0,1,0,14.63h-64a14.64,14.64,0,0,0,14.63,14.63H314.8a7.31,7.31,0,1,1,0,14.63Zm0,0"/><path class="cls-3" d="M466.58,418.78H351.37a7.31,7.31,0,1,1,0-14.63h115.2a14.68,14.68,0,0,0,14.63-14.64H201.43a7.31,7.31,0,0,1,0-14.63H481.2a14.69,14.69,0,0,1,14.63,14.61,29.35,29.35,0,0,1-29.25,29.27Zm0,0"/><path class="cls-3" d="M243.49,309.06H206.92a7.31,7.31,0,0,1-7.32-7.31V199.35a7.32,7.32,0,0,1,7.32-7.32H338.57a7.32,7.32,0,0,1,7.31,7.32v36.57a7.31,7.31,0,0,1-14.63,0V206.67h-117v87.77h29.26a7.31,7.31,0,0,1,0,14.63Zm0,0"/><path class="cls-3" d="M291,345.64H243.49a7.32,7.32,0,0,1-7.32-7.32v-51.2a7.31,7.31,0,1,1,14.63,0V331H291a7.31,7.31,0,0,1,0,14.63Zm0,0"/><path class="cls-3" d="M375.14,345.64H327.6a7.31,7.31,0,0,1,0-14.63h40.23V243.24h-117v7.32a7.31,7.31,0,0,1-14.63,0V235.92a7.32,7.32,0,0,1,7.32-7.32H375.14a7.32,7.32,0,0,1,7.31,7.32v102.4a7.31,7.31,0,0,1-7.31,7.32Zm0,0"/></svg>