<svg id="Layer_1" data-name="Layer 1" xmlns="http://www.w3.org/2000/svg" viewBox="0 0 566.93 566.93"><defs><style>.cls-1{fill:#6c64b3;}.cls-2{fill:#fff;}.cls-3{fill:#392a6f;}</style></defs><title>erxes</title><circle class="cls-1" cx="444.93" cy="136.17" r="36.57"/><circle class="cls-2" cx="499.79" cy="291.6" r="36.57"/><circle class="cls-1" cx="444.93" cy="447.03" r="36.57"/><circle class="cls-2" cx="134.07" cy="136.17" r="36.57"/><circle class="cls-1" cx="79.22" cy="291.6" r="36.57"/><circle class="cls-2" cx="134.07" cy="447.03" r="36.57"/><circle class="cls-2" cx="289.5" cy="291.6" r="128"/><path class="cls-3" d="M289.23,428.69a137.08,137.08,0,0,1-120.11-71.36,9.14,9.14,0,1,1,16-8.77A118.86,118.86,0,1,0,344.13,186a9.14,9.14,0,0,1,8.41-16.24C419.69,204.58,446,287.5,411.23,354.65A137.28,137.28,0,0,1,289.23,428.69Z"/><path class="cls-3" d="M163.55,323.6a9.15,9.15,0,0,1-9-7.49,134.81,134.81,0,0,1-2.21-24.53c0-75.6,61.52-137.12,137.14-137.12a135.76,135.76,0,0,1,18.38,1.22,9.14,9.14,0,0,1-2.46,18.12,123.22,123.22,0,0,0-15.89-1.06A119,119,0,0,0,170.65,291.6a116.77,116.77,0,0,0,1.91,21.21,9.16,9.16,0,0,1-9,10.8Z"/><path class="cls-3" d="M444.93,181.88a45.71,45.71,0,1,1,45.71-45.71A45.77,45.77,0,0,1,444.93,181.88Zm0-73.14a27.43,27.43,0,1,0,27.43,27.43A27.46,27.46,0,0,0,444.93,108.74Z"/><path class="cls-3" d="M499.79,337.31A45.71,45.71,0,1,1,545.5,291.6,45.77,45.77,0,0,1,499.79,337.31Zm0-73.14a27.43,27.43,0,1,0,27.43,27.43A27.46,27.46,0,0,0,499.79,264.17Z"/><path class="cls-3" d="M444.91,492.73h0a45.72,45.72,0,0,1-32.32-78,46.31,46.31,0,0,1,20.88-11.93,9.14,9.14,0,1,1,4.63,17.69,27.93,27.93,0,0,0-12.61,7.2,27.43,27.43,0,0,0,19.42,46.8h0a27.43,27.43,0,0,0,20.58-45.55,9.14,9.14,0,1,1,13.72-12.09,45.72,45.72,0,0,1-34.3,75.93Z"/><path class="cls-3" d="M134.07,181.88a45.71,45.71,0,0,1,0-91.43A44.62,44.62,0,0,1,145.92,92a9.14,9.14,0,1,1-4.76,17.65,26.7,26.7,0,0,0-7-.92,27.43,27.43,0,1,0,27.39,27.43,26.65,26.65,0,0,0-.92-7.08,9.14,9.14,0,0,1,17.66-4.76,44.77,44.77,0,0,1,1.55,11.88A45.76,45.76,0,0,1,134.07,181.88Z"/><path class="cls-3" d="M79.22,337.31a45.71,45.71,0,1,1,45.72-45.71A45.77,45.77,0,0,1,79.22,337.31Zm0-73.14a27.43,27.43,0,1,0,27.43,27.43A27.46,27.46,0,0,0,79.22,264.17Z"/><path class="cls-3" d="M133.93,492.74a45.21,45.21,0,0,1-20-4.7,9.14,9.14,0,0,1,8.14-16.37,29.05,29.05,0,0,0,12,2.79A27.43,27.43,0,1,0,106.65,447c0,.24,0,.47,0,.7a9.17,9.17,0,0,1-8.34,9.87,9.08,9.08,0,0,1-9.87-8.27c-.07-.77-.08-1.54-.08-2.31a45.71,45.71,0,1,1,45.71,45.71Z"/><path class="cls-3" d="M161.5,300.74H115.79a9.14,9.14,0,0,1,0-18.29H161.5a9.14,9.14,0,0,1,0,18.29Z"/><path class="cls-3" d="M199,210.23a9.1,9.1,0,0,1-6.46-2.68l-39-39a9.14,9.14,0,0,1,12.93-12.93l39,39A9.14,9.14,0,0,1,199,210.23Z"/><path class="cls-3" d="M159.95,430.3a9.14,9.14,0,0,1-6.46-15.61l39-39a9.14,9.14,0,0,1,12.93,12.93l-39,39A9.1,9.1,0,0,1,159.95,430.3Z"/><path class="cls-3" d="M463.22,300.74H417.5a9.14,9.14,0,1,1,0-18.29h45.71a9.14,9.14,0,1,1,0,18.29Z"/><path class="cls-3" d="M380,210.23a9.14,9.14,0,0,1-6.46-15.61l39-39a9.14,9.14,0,0,1,12.93,12.93l-39,39A9.11,9.11,0,0,1,380,210.23Z"/><path class="cls-3" d="M419.06,430.3a9.1,9.1,0,0,1-6.46-2.68l-39-39a9.14,9.14,0,0,1,12.93-12.93l39,39a9.14,9.14,0,0,1-6.46,15.61Z"/><circle class="cls-1" cx="289.5" cy="250.46" r="41.14"/><path class="cls-1" d="M225.5,355.6c0-35.35,32-64,64-64s64,28.65,64,64c0,0-13.71,18.29-64,18.29S225.5,355.6,225.5,355.6Z"/><path class="cls-3" d="M289.5,300.74a50.29,50.29,0,1,1,50.29-50.29A50.35,50.35,0,0,1,289.5,300.74Zm0-82.29a32,32,0,1,0,32,32A32,32,0,0,0,289.5,218.46Z"/><path class="cls-3" d="M280.37,382.84h-.45c-45.81-2.2-60.24-19.76-61.73-21.76a9.13,9.13,0,0,1-1.82-5.48c0-39,34.18-73.14,73.14-73.14s73.14,34.18,73.14,73.14a9.16,9.16,0,0,1-1.83,5.49c-.87,1.16-9.18,11.52-32.45,17.54a9.15,9.15,0,0,1-4.58-17.71c11.22-2.9,17.49-6.8,20.43-9.1-2.2-29.47-29.87-51.07-54.71-51.07S237,322.36,234.78,351.85c4.56,3.53,17.7,11.36,46,12.72a9.14,9.14,0,0,1-.43,18.27Z"/></svg>