<svg id="Layer_1" data-name="Layer 1" xmlns="http://www.w3.org/2000/svg" viewBox="0 0 566.93 566.93"><defs><style>.cls-1{fill:#fff;}.cls-2{fill:#392a6f;}.cls-3{fill:#6c64b3;}</style></defs><title>erxes</title><path class="cls-1" d="M459,129.86H107.92A22,22,0,0,0,86,151.81V415.12a22,22,0,0,0,21.95,21.94h65.55v-6.31c0-8.21-6.52-12.8-12.4-15.3a15.26,15.26,0,0,1-9.27-14.07,15.8,15.8,0,0,1,16.06-15.52h48.34a15.8,15.8,0,0,1,16.06,15.52A15.26,15.26,0,0,1,223,415.45c-5.88,2.49-12.39,7.09-12.39,15.3v6.31H356.32v-6.31c0-8.21-6.51-12.8-12.39-15.3a15.25,15.25,0,0,1-9.27-14.07,15.8,15.8,0,0,1,16.05-15.52h48.35a15.8,15.8,0,0,1,16.06,15.52,15.25,15.25,0,0,1-9.27,14.07c-5.89,2.49-12.39,7.09-12.39,15.3v6.31H459a22,22,0,0,0,21.94-21.94V151.81A22,22,0,0,0,459,129.86Zm0,0"/><path class="cls-2" d="M480.95,177.41a7.31,7.31,0,0,1-7.31-7.31V151.81A14.73,14.73,0,0,0,459,137.18H257.86a7.31,7.31,0,0,1,0-14.63H459a29.39,29.39,0,0,1,29.26,29.23v18.31a7.32,7.32,0,0,1-7.32,7.31Zm0,0"/><path class="cls-2" d="M290.78,444.38H210.61a7.32,7.32,0,0,1-7.31-7.32v-6.32c0-9.61,6-17.43,16.86-22a7.94,7.94,0,0,0,4.79-7.32,8.48,8.48,0,0,0-8.49-8.21h-48.6a8.54,8.54,0,0,0-8.74,8.32,7.92,7.92,0,0,0,4.82,7.23c10.84,4.58,16.83,12.4,16.83,22v6.32a7.32,7.32,0,0,1-7.31,7.32H107.92a29.4,29.4,0,0,1-29.26-29.23V371.23a7.31,7.31,0,0,1,14.63,0v43.89a14.73,14.73,0,0,0,14.65,14.63h58.15c-.23-1.75-1.44-4.85-7.87-7.56a22.58,22.58,0,0,1-13.72-20.84,23.18,23.18,0,0,1,23.11-22.8h49a23.14,23.14,0,0,1,23,22.69,22.59,22.59,0,0,1-13.68,20.94c-6.47,2.73-7.69,5.82-7.91,7.58h72.79a7.31,7.31,0,1,1,0,14.63Zm0,0"/><path class="cls-2" d="M86,342a7.31,7.31,0,0,1-7.31-7.31V151.81a29.39,29.39,0,0,1,29.23-29.26h47.57a7.31,7.31,0,0,1,0,14.63H107.92a14.72,14.72,0,0,0-14.63,14.65V334.66A7.31,7.31,0,0,1,86,342Zm0,0"/><path class="cls-2" d="M356.32,444.38h-29a7.31,7.31,0,1,1,0-14.63h21.59c-.23-1.75-1.44-4.85-7.87-7.56a22.57,22.57,0,0,1-13.72-20.84,23.22,23.22,0,0,1,23.48-22.8h24.06a7.31,7.31,0,0,1,0,14.63H350.72a8.67,8.67,0,0,0-8.74,8.32,7.92,7.92,0,0,0,4.82,7.23c10.84,4.58,16.83,12.4,16.83,22v6.32a7.32,7.32,0,0,1-7.31,7.32Zm0,0"/><path class="cls-2" d="M393.47,444.38a7.32,7.32,0,0,1-7.32-7.32v-6.32c0-9.61,6-17.43,16.86-22a7.92,7.92,0,0,0,4.79-7.32,8.24,8.24,0,0,0-5.82-7.74,7.31,7.31,0,1,1,4.33-14,22.83,22.83,0,0,1,16.12,21.6,22.58,22.58,0,0,1-13.69,20.89c-6.47,2.73-7.68,5.82-7.91,7.57H459a14.73,14.73,0,0,0,14.63-14.65V206.66a7.31,7.31,0,0,1,14.63,0V415.12A29.4,29.4,0,0,1,459,444.38Zm0,0"/><path class="cls-2" d="M228.6,137.18H192a7.31,7.31,0,0,1,0-14.63H228.6a7.31,7.31,0,1,1,0,14.63Zm0,0"/><path class="cls-3" d="M228.6,224.95A32.91,32.91,0,1,1,195.69,192a32.91,32.91,0,0,1,32.91,32.91Zm0,0"/><path class="cls-3" d="M144.49,309.06c0-28.27,25.6-51.2,51.2-51.2s51.2,22.93,51.2,51.2c0,0-11,14.63-51.2,14.63s-51.2-14.63-51.2-14.63Zm0,0"/><path class="cls-2" d="M195.69,265.18a40.23,40.23,0,1,1,40.23-40.23,40.28,40.28,0,0,1-40.23,40.23Zm0-65.83a25.6,25.6,0,1,0,25.6,25.6,25.62,25.62,0,0,0-25.6-25.6Zm0,0"/><path class="cls-2" d="M188.38,330.86H188c-36.65-1.76-48.19-15.81-49.39-17.41a7.31,7.31,0,0,1-1.46-4.38c0-31.17,27.35-58.51,58.51-58.51s58.52,27.34,58.52,58.51a7.29,7.29,0,0,1-1.46,4.39c-.7.93-7.34,9.21-26,14a7.32,7.32,0,0,1-3.66-14.17c9-2.32,14-5.45,16.35-7.28-1.77-23.58-23.9-40.85-43.77-40.85s-42,17.29-43.78,40.89c3.65,2.83,14.16,9.09,36.81,10.18a7.31,7.31,0,0,1-.34,14.62Zm0,0"/><path class="cls-2" d="M378.55,301.75H290.78a7.31,7.31,0,0,1,0-14.63h87.77a7.31,7.31,0,0,1,0,14.63Zm0,0"/><path class="cls-2" d="M422.43,265.18H290.78a7.31,7.31,0,0,1,0-14.63H422.43a7.31,7.31,0,1,1,0,14.63Zm0,0"/><path class="cls-2" d="M422.43,228.6H352.95a7.31,7.31,0,0,1,0-14.63h69.48a7.31,7.31,0,1,1,0,14.63Zm0,0"/><path class="cls-2" d="M316.38,228.6h-25.6a7.31,7.31,0,0,1,0-14.63h25.6a7.31,7.31,0,0,1,0,14.63Zm0,0"/></svg>