<svg id="Layer_1" data-name="Layer 1" xmlns="http://www.w3.org/2000/svg" viewBox="0 0 566.93 566.93"><defs><style>.cls-1{fill:#fff;}.cls-2{fill:#6c64b3;}.cls-3{fill:#392a6f;}</style></defs><title>erxes</title><path class="cls-1" d="M424.78,262a40.08,40.08,0,0,0-28,11.66v-78.2a21,21,0,0,0-21-21h-78.2a40.08,40.08,0,0,0,11.66-28c0-23.21-20.38-42-45.53-42s-45.53,18.81-45.53,42a40.08,40.08,0,0,0,11.66,28h-78.2a21,21,0,0,0-21,21v78.2a40.07,40.07,0,0,1,28-11.66c23.21,0,42,20.38,42,45.53S181.84,353,158.64,353a40.07,40.07,0,0,1-28-11.66v78.2a21,21,0,0,0,21,21h78.2a40.08,40.08,0,0,1-11.66-28c0-23.21,20.38-42,45.53-42s45.53,18.82,45.53,42a40.07,40.07,0,0,1-11.66,28h78.2a21,21,0,0,0,21-21v-78.2a40.07,40.07,0,0,0,28,11.66c23.21,0,42-20.38,42-45.52S448,262,424.78,262Zm0,0"/><path class="cls-2" d="M309.22,412.57a40,40,0,0,1-11.66,28h78.2a21,21,0,0,0,21-21v-78.2a40.07,40.07,0,0,0,28,11.66c23.21,0,42-20.38,42-45.52S448,262,424.78,262a40.06,40.06,0,0,0-28,11.66v-78.2a21,21,0,0,0-21-21H348.68c-51.69,62.56,6,143.88-66.59,199.7a42,42,0,0,1,27.13,38.42Zm0,0"/><path class="cls-3" d="M466.8,314.51a7,7,0,0,1-7-7c0-21.24-15.71-38.52-35-38.52a32.9,32.9,0,0,0-23.08,9.62,7,7,0,0,1-11.94-5v-78.2a14,14,0,0,0-14-14h-78.2a7,7,0,0,1-5-11.94,32.92,32.92,0,0,0,9.63-23.12c0-19.27-17.28-35-38.52-35s-38.52,15.71-38.52,35a32.88,32.88,0,0,0,9.63,23.08,7,7,0,0,1-5,11.94H200.66a7,7,0,1,1,0-14h15.55a46.94,46.94,0,0,1-5-21c0-27.08,23.56-49.07,52.53-49.07s52.53,22,52.53,49a47,47,0,0,1-5,21h64.58a28,28,0,0,1,28,28V260a46.92,46.92,0,0,1,21-5c27.08,0,49.07,23.56,49.07,52.53a7,7,0,0,1-7,7Zm0,0"/><path class="cls-3" d="M344.24,447.59H297.56a7,7,0,0,1-5-11.94,32.9,32.9,0,0,0,9.62-23.12,34.89,34.89,0,0,0-22.59-31.86,42.71,42.71,0,0,0-15.91-3.11c-21.26,0-38.54,15.71-38.54,35a32.89,32.89,0,0,0,9.62,23.08,7,7,0,0,1-5,11.94h-78.2a28,28,0,0,1-28-28,7,7,0,1,1,14,0,14,14,0,0,0,14,14h64.58a46.92,46.92,0,0,1-5-21c0-27.08,23.56-49.07,52.53-49.07h.18a55.25,55.25,0,0,1,20.87,4.09,48.83,48.83,0,0,1,31.47,44.79,47.39,47.39,0,0,1-5.06,21.16h33.08a7,7,0,0,1,0,14Zm0,0"/><path class="cls-3" d="M379.25,447.27a7,7,0,0,1-1.15-13.91,13.93,13.93,0,0,0,11.66-13.79v-78.2a7,7,0,0,1,11.94-5A32.9,32.9,0,0,0,424.83,346a34,34,0,0,0,27.34-14.52,7,7,0,1,1,11.48,8A48.07,48.07,0,0,1,424.86,360,47.19,47.19,0,0,1,403.77,355v64.59a27.9,27.9,0,0,1-23.35,27.6,7.19,7.19,0,0,1-1.17.1Zm0,0"/><path class="cls-3" d="M130.62,391.55a7,7,0,0,1-7-7V341.37a7,7,0,0,1,11.94-5A32.91,32.91,0,0,0,158.68,346c19.27,0,35-17.28,35-38.52S177.95,269,158.64,269a32.89,32.89,0,0,0-23.08,9.62,7,7,0,0,1-11.94-5v-78.2a28,28,0,0,1,28-28h14a7,7,0,0,1,0,14h-14a14,14,0,0,0-14,14V260a46.93,46.93,0,0,1,21-5c27.08,0,49.07,23.56,49.07,52.53s-22,52.53-49,52.53a47,47,0,0,1-21-5v29.56a7,7,0,0,1-7,7Zm0,0"/><path class="cls-3" d="M325.72,237.47a6.7,6.7,0,0,1-.7,0,7,7,0,0,1-6.27-7.66A113,113,0,0,1,343.19,170a7,7,0,0,1,10.92,8.78,99,99,0,0,0-21.42,52.34,7,7,0,0,1-7,6.3Zm0,0"/><path class="cls-3" d="M282.12,381.12a7,7,0,0,1-4.27-12.56c36.83-28.29,37.71-63.68,38.64-101.15l.06-2.1a7,7,0,1,1,14,.35l0,2.09c-1,39.1-2,79.54-44.11,111.91a7,7,0,0,1-4.26,1.45Zm0,0"/></svg>