<svg id="Layer_1" data-name="Layer 1" xmlns="http://www.w3.org/2000/svg" viewBox="0 0 566.93 566.93"><defs><style>.cls-1{fill:#fff;}.cls-2{fill:#392a6f;}.cls-3{fill:#6c64b3;}</style></defs><title>erxes</title><path class="cls-1" d="M73.49,450.12H490.68a19,19,0,0,1,19,19v19a19,19,0,0,1-19,19H73.49a19,19,0,0,1-19-19v-19A19,19,0,0,1,73.49,450.12Z"/><path class="cls-1" d="M244.16,51.9H320a9.48,9.48,0,0,1,9.48,9.48V393.23a9.48,9.48,0,0,1-9.48,9.48H244.16a9.48,9.48,0,0,1-9.48-9.48V61.38A9.48,9.48,0,0,1,244.16,51.9Z"/><path class="cls-1" d="M101.94,165.68h75.85a9.48,9.48,0,0,1,9.48,9.48V393.23a9.48,9.48,0,0,1-9.48,9.48H101.94a9.48,9.48,0,0,1-9.48-9.48V175.16A9.48,9.48,0,0,1,101.94,165.68Z"/><path class="cls-1" d="M386.38,108.79h75.85a9.48,9.48,0,0,1,9.48,9.48v275a9.48,9.48,0,0,1-9.48,9.48H386.38a9.48,9.48,0,0,1-9.48-9.48v-275A9.48,9.48,0,0,1,386.38,108.79Z"/><path class="cls-2" d="M490.68,516.49H206.23a9.48,9.48,0,0,1,0-19H490.68a9.49,9.49,0,0,0,9.48-9.48v-19a9.49,9.49,0,0,0-9.48-9.48H73.49A9.49,9.49,0,0,0,64,469.09v19a9.49,9.49,0,0,0,9.48,9.48h85.33a9.48,9.48,0,0,1,0,19H73.49A28.47,28.47,0,0,1,45,488v-19a28.47,28.47,0,0,1,28.44-28.44H490.68a28.47,28.47,0,0,1,28.44,28.44v19A28.47,28.47,0,0,1,490.68,516.49Z"/><path class="cls-2" d="M234.68,213.09a9.48,9.48,0,0,1-9.48-9.48V146.72a9.48,9.48,0,0,1,19,0V203.6A9.49,9.49,0,0,1,234.68,213.09Z"/><path class="cls-2" d="M244.16,412.2a19,19,0,0,1-19-18.93V251a9.48,9.48,0,0,1,19,0V393.23H320V61.38H244.16v47.41a9.48,9.48,0,1,1-19,0V61.38a19,19,0,0,1,18.93-19H320a19,19,0,0,1,19,18.94V393.23a19,19,0,0,1-18.94,19H244.16Z"/><path class="cls-2" d="M177.79,412.2H101.94a19,19,0,0,1-19-19V175.16a19,19,0,0,1,19-19h75.85a19,19,0,0,1,19,19V393.23A19,19,0,0,1,177.79,412.2Zm-75.85-237h0V393.23h75.85V175.16Z"/><path class="cls-2" d="M386.38,412.2a19,19,0,0,1-19-18.94v-275a18.82,18.82,0,0,1,5.66-13.47,9.48,9.48,0,0,1,13.33.08l92,92a9.48,9.48,0,0,1,2.78,6.7v85.33a9.48,9.48,0,1,1-19,0v-81.4l-75.91-75.92.06,261.62h75.85V336.34a9.48,9.48,0,0,1,19,0v56.89a19,19,0,0,1-18.94,19H386.38Z"/><path class="cls-3" d="M462.23,108.79H386.38a9.44,9.44,0,0,0-6.7,2.78l92,92V118.27A9.48,9.48,0,0,0,462.23,108.79Z"/><path class="cls-2" d="M471.72,213.09a9.46,9.46,0,0,1-6.7-2.78l-92-92a9.49,9.49,0,0,1-.08-13.33,18.87,18.87,0,0,1,13.42-5.65h28.5a9.48,9.48,0,0,1,0,19h-15l62.45,62.44V118.27h-9.48a9.48,9.48,0,0,1,0-19h9.48a19,19,0,0,1,19,18.94V203.6a9.48,9.48,0,0,1-9.48,9.48Z"/><path class="cls-3" d="M320,51.9H244.16a9.44,9.44,0,0,0-6.7,2.78l92,92V61.38A9.48,9.48,0,0,0,320,51.9Z"/><path class="cls-2" d="M329.49,156.2a9.46,9.46,0,0,1-6.7-2.78l-92-92a9.49,9.49,0,0,1,0-13.4,19.08,19.08,0,0,1,13.41-5.56H320a19,19,0,0,1,19,19v85.33a9.48,9.48,0,0,1-9.48,9.48ZM257.57,61.38,320,123.82V61.38Z"/><path class="cls-3" d="M177.79,165.68H101.94a9.44,9.44,0,0,0-6.7,2.78l92,92V175.16A9.48,9.48,0,0,0,177.79,165.68Z"/><path class="cls-2" d="M187.27,270a9.47,9.47,0,0,1-6.71-2.78L156.34,243a9.48,9.48,0,0,1,13.41-13.41l8,8V175.16H115.35l26,26a9.48,9.48,0,0,1-13.41,13.41L88.56,175.18a9.49,9.49,0,0,1-.08-13.33A19.35,19.35,0,0,1,102,156.2h75.79a19,19,0,0,1,19,18.93v85.36a9.48,9.48,0,0,1-9.48,9.48Z"/></svg>