<?xml version="1.0" encoding="utf-8"?>
<!-- Generator: Adobe Illustrator 23.0.3, SVG Export Plug-In . SVG Version: 6.00 Build 0)  -->
<svg version="1.1" id="Layer_1" xmlns="http://www.w3.org/2000/svg" xmlns:xlink="http://www.w3.org/1999/xlink" x="0px" y="0px"
	 viewBox="0 0 566.9 566.9" style="enable-background:new 0 0 566.9 566.9;" xml:space="preserve">
<style type="text/css">
	.st0{fill:#63D2D6;}
	.st1{fill:#5629B6;}
</style>
<path class="st0" d="M376.3,86.9l-59.4,157.3l157.3-59.4C457.1,139.7,421.4,104.1,376.3,86.9z"/>
<path class="st1" d="M106.2,353.3c-3.4,0-6.4-2.2-7.4-5.4c-16.3-51.2-8.2-107.1,21.9-151.6c2.4-3.5,7.3-4.5,10.9-2.1
	c3.5,2.4,4.5,7.3,2.1,10.9c-27.5,40.6-34.8,91.5-20,138.2c1.3,4.1-1,8.5-5.1,9.8C107.7,353.2,106.9,353.3,106.2,353.3z"/>
<path class="st1" d="M266.5,302.5c-4.3,0-7.8-3.5-7.8-7.8c0-0.9,0.2-1.9,0.5-2.8l38.6-102.4c1.6-4,6.1-6,10.1-4.5c4,1.6,6,6,4.5,10
	l-32.5,86.2L421,227.9c4-1.6,8.6,0.5,10.1,4.5l0,0c6,15.9,9.7,32.7,10.8,49.7c0.3,4.3-3,8.1-7.3,8.3c-4.3,0.2-8.1-3-8.3-7.3
	c-0.9-12.9-3.4-25.6-7.3-37.8l-149.9,56.5C268.4,302.3,267.4,302.5,266.5,302.5z"/>
<path class="st1" d="M316.1,171c-4.3,0-7.8-3.5-7.8-7.8c0-0.9,0.2-1.9,0.5-2.7l6.9-18.3c-50.2-16.3-105.3-6.8-147.1,25.7
	c-3.3,2.8-8.2,2.3-11.1-1c-2.8-3.3-2.3-8.2,1-11.1c0.2-0.2,0.3-0.2,0.5-0.4c48.3-37.5,112.5-47,169.5-25.3c4,1.5,6.1,6,4.5,10.1
	l-9.7,25.8C322.3,168.9,319.3,171,316.1,171z"/>
<path class="st1" d="M266.9,470.7c-9.7,0-19.3-0.7-28.9-2.3c-52.4-8.5-98.1-40.3-124.3-86.4c-2.1-3.7-0.8-8.5,2.9-10.6
	c3.7-2.1,8.5-0.8,10.6,2.9c44,76.9,142,103.5,218.9,59.6c42-24,70.9-65.7,78.7-113.3c0.7-4.3,4.7-7.2,9-6.4c4.3,0.7,7.2,4.7,6.4,9
	l0,0C426.2,408,353,470.4,266.9,470.7z"/>
<path class="st1" d="M316.9,252.2c-4.3,0-7.8-3.5-7.8-7.8c0-1,0.2-1.9,0.5-2.8l59.4-157.4c1.5-4,6-6.1,10.1-4.5c0,0,0,0,0.1,0
	c47.3,18,84.6,55.3,102.5,102.5c1.6,4-0.5,8.6-4.5,10.1l0,0l-39.9,15.1c-4,1.6-8.6-0.5-10.1-4.5c-1.6-4,0.5-8.6,4.5-10.1l32.4-12.3
	c-16.3-37.2-45.9-67-83.2-83.2l-50.5,133.6l67.2-25.4c4-1.6,8.6,0.5,10.1,4.5c1.6,4-0.5,8.6-4.5,10.1l-83.3,31.5
	C318.8,251.9,317.8,252.1,316.9,252.2z"/>
<path class="st1" d="M285.6,353.1c-3.2,0-6.2-2-7.3-5l-19.1-50.7c-1.5-4,0.6-8.6,4.6-10.1c4-1.5,8.5,0.5,10,4.5l19.1,50.7
	c1.5,4-0.6,8.6-4.6,10.1C287.4,353,286.5,353.1,285.6,353.1L285.6,353.1z"/>
<path class="st1" d="M325.8,459.9c-3.2,0-6.2-2-7.3-5l-25.6-67.6c-1.6-4,0.5-8.6,4.5-10.1c4-1.6,8.6,0.5,10.1,4.5v0.1l25.6,67.6
	c1.5,4-0.5,8.6-4.5,10.1C327.7,459.7,326.8,459.9,325.8,459.9L325.8,459.9z"/>
</svg>
