<svg id="Layer_1" data-name="Layer 1" xmlns="http://www.w3.org/2000/svg" viewBox="0 0 566.93 566.93"><defs><style>.cls-1{fill:#fff;}.cls-2{fill:#392a6f;}.cls-3{fill:#6c64b3;}</style></defs><title>erxes</title><path class="cls-1" d="M405.7,176.36V141H373.53v-38.6h-238V411.18h38.6v38.6H405.7v-222a25.73,25.73,0,1,0,0-51.47Zm0,0"/><path class="cls-2" d="M373.53,147.4A6.44,6.44,0,0,1,367.1,141V108.8H141.93v25.74a6.43,6.43,0,0,1-12.87,0V102.37a6.44,6.44,0,0,1,6.43-6.43h238a6.44,6.44,0,0,1,6.44,6.43V141a6.44,6.44,0,0,1-6.44,6.44Zm0,0"/><path class="cls-2" d="M174.09,417.62h-38.6a6.44,6.44,0,0,1-6.43-6.44V215a6.43,6.43,0,0,1,12.87,0V404.75h25.73V369.36a6.43,6.43,0,0,1,12.87,0v41.82a6.43,6.43,0,0,1-6.43,6.44Zm0,0"/><path class="cls-2" d="M174.09,346.85a6.44,6.44,0,0,1-6.44-6.44V141a6.44,6.44,0,0,1,6.44-6.43H312.42a6.43,6.43,0,0,1,0,12.87H180.52v193a6.43,6.43,0,0,1-6.43,6.44Zm0,0"/><path class="cls-2" d="M405.7,408a6.44,6.44,0,0,1-6.43-6.43V147.4H344.58a6.43,6.43,0,0,1,0-12.87H405.7a6.44,6.44,0,0,1,6.44,6.43V401.53A6.44,6.44,0,0,1,405.7,408Zm0,0"/><path class="cls-2" d="M405.7,456.22H174.09a6.44,6.44,0,0,1-6.44-6.44V369.36a6.43,6.43,0,0,1,12.87,0v74H399.27V430.48a6.43,6.43,0,1,1,12.87,0v19.3a6.44,6.44,0,0,1-6.44,6.44Zm0,0"/><path class="cls-2" d="M341.37,234.26a19.3,19.3,0,0,1,0-38.6H380a6.43,6.43,0,0,1,0,12.87h-38.6a6.43,6.43,0,1,0,0,12.87H405.7a19.29,19.29,0,0,0,6.44-37.47v18.17a6.43,6.43,0,1,1-12.87,0V176.36a6.43,6.43,0,0,1,6.43-6.44h0a32.17,32.17,0,0,1,0,64.34Zm0,0"/><rect class="cls-3" x="212.7" y="189.22" width="77.2" height="77.2"/><path class="cls-2" d="M289.9,272.86H277A6.43,6.43,0,0,1,277,260h6.44V195.65H219.13V260h25.74a6.43,6.43,0,0,1,0,12.87H212.7a6.44,6.44,0,0,1-6.44-6.44v-77.2a6.44,6.44,0,0,1,6.44-6.44h77.2a6.44,6.44,0,0,1,6.44,6.44v77.2a6.44,6.44,0,0,1-6.44,6.44Zm0,0"/><path class="cls-2" d="M367.1,311.46H212.7a6.43,6.43,0,1,1,0-12.87H367.1a6.43,6.43,0,0,1,0,12.87Zm0,0"/><path class="cls-2" d="M367.1,343.63H296.33a6.43,6.43,0,1,1,0-12.87H367.1a6.43,6.43,0,0,1,0,12.87Zm0,0"/><path class="cls-2" d="M264.16,343.63H212.7a6.43,6.43,0,1,1,0-12.87h51.47a6.43,6.43,0,1,1,0,12.87Zm0,0"/><path class="cls-2" d="M367.1,375.8H212.7a6.43,6.43,0,1,1,0-12.87H367.1a6.43,6.43,0,0,1,0,12.87Zm0,0"/><path class="cls-2" d="M328.5,408H212.7a6.43,6.43,0,1,1,0-12.87H328.5a6.43,6.43,0,0,1,0,12.87Zm0,0"/><path class="cls-2" d="M135.49,189.22a6.44,6.44,0,0,1-6.43-6.44V160.27a6.43,6.43,0,0,1,12.87,0v22.52a6.44,6.44,0,0,1-6.44,6.44Zm0,0"/></svg>