<?xml version="1.0" encoding="utf-8"?>
<!-- Generator: Adobe Illustrator 23.0.3, SVG Export Plug-In . SVG Version: 6.00 Build 0)  -->
<svg version="1.1" id="Layer_1" xmlns="http://www.w3.org/2000/svg" xmlns:xlink="http://www.w3.org/1999/xlink" x="0px" y="0px"
	 viewBox="0 0 566.9 566.9" style="enable-background:new 0 0 566.9 566.9;" xml:space="preserve">
<style type="text/css">
	.st0{fill:#63D2D6;}
	.st1{fill:#5629B6;}
</style>
<circle class="st0" cx="444.9" cy="136.2" r="36.6"/>
<circle class="st0" cx="444.9" cy="447" r="36.6"/>
<circle class="st0" cx="79.2" cy="291.6" r="36.6"/>
<path class="st1" d="M289.2,428.7c-50.1-0.1-96.1-27.4-120.1-71.4c-2.7-4.3-1.4-9.9,2.9-12.6c4.3-2.7,9.9-1.4,12.6,2.9
	c0.2,0.3,0.4,0.6,0.5,1c31.5,57.6,103.7,78.7,161.3,47.2s78.7-103.7,47.2-161.3c-11.3-20.7-28.6-37.6-49.5-48.5
	c-4.5-2.3-6.2-7.8-3.9-12.3c2.3-4.5,7.8-6.2,12.3-3.9c67.1,34.8,93.5,117.7,58.7,184.9C387.6,400.2,340.5,428.7,289.2,428.7z"/>
<path class="st1" d="M163.6,323.6c-4.4,0-8.2-3.1-9-7.5c-1.5-8.1-2.2-16.3-2.2-24.5c0-75.6,61.5-137.1,137.1-137.1
	c6.1,0,12.3,0.4,18.4,1.2c5,0.7,8.5,5.3,7.8,10.3c-0.7,5-5.3,8.5-10.3,7.8c-5.3-0.7-10.6-1-15.9-1.1
	c-65.6,0.1-118.8,53.2-118.9,118.9c0,7.1,0.6,14.2,1.9,21.2c0.9,5-2.4,9.7-7.4,10.7C164.7,323.6,164.1,323.6,163.6,323.6
	L163.6,323.6z"/>
<path class="st1" d="M444.9,181.9c-25.2,0-45.7-20.5-45.7-45.7c0-25.2,20.5-45.7,45.7-45.7c25.2,0,45.7,20.5,45.7,45.7v0
	C490.6,161.4,470.2,181.8,444.9,181.9z M444.9,108.7c-15.1,0-27.4,12.3-27.4,27.4c0,15.1,12.3,27.4,27.4,27.4
	c15.1,0,27.4-12.3,27.4-27.4C472.3,121,460.1,108.8,444.9,108.7z"/>
<path class="st1" d="M499.8,337.3c-25.2,0-45.7-20.5-45.7-45.7c0-25.2,20.5-45.7,45.7-45.7s45.7,20.5,45.7,45.7c0,0,0,0,0,0
	C545.5,316.8,525,337.3,499.8,337.3z M499.8,264.2c-15.1,0-27.4,12.3-27.4,27.4c0,15.1,12.3,27.4,27.4,27.4
	c15.1,0,27.4-12.3,27.4-27.4C527.2,276.5,514.9,264.2,499.8,264.2L499.8,264.2z"/>
<path class="st1" d="M444.9,492.7L444.9,492.7c-25.3,0-45.7-20.5-45.7-45.8c0-12.1,4.8-23.7,13.3-32.2c5.8-5.7,13-9.9,20.9-11.9
	c4.9-1.3,9.9,1.6,11.2,6.5s-1.6,9.9-6.5,11.2c-4.8,1.2-9.1,3.7-12.6,7.2c-10.7,10.7-10.7,28.1,0.1,38.8c5.1,5.1,12.1,8,19.4,8l0,0
	c15.1,0,27.4-12.3,27.4-27.4c0-6.7-2.4-13.1-6.8-18.1c-3.3-3.8-3-9.6,0.8-12.9s9.6-3,12.9,0.8c16.7,19,14.8,47.8-4.1,64.5
	C466.8,488.7,456,492.8,444.9,492.7L444.9,492.7z"/>
<path class="st1" d="M134.1,181.9c-25.2,0-45.7-20.5-45.7-45.7s20.5-45.7,45.7-45.7c4,0,8,0.5,11.8,1.5c4.9,1.3,7.8,6.3,6.4,11.2
	c-1.3,4.9-6.3,7.8-11.2,6.4l0,0c-2.3-0.6-4.6-0.9-7-0.9c-15.1,0-27.4,12.2-27.5,27.4c0,15.1,12.2,27.4,27.4,27.5
	c15.1,0,27.4-12.2,27.5-27.4c0,0,0,0,0,0c0-2.4-0.3-4.8-0.9-7.1c-1.3-4.9,1.6-9.9,6.4-11.2c4.9-1.3,9.9,1.6,11.2,6.4
	c1,3.9,1.6,7.9,1.6,11.9C179.8,161.4,159.3,181.9,134.1,181.9z"/>
<path class="st1" d="M79.2,337.3c-25.2,0-45.7-20.5-45.7-45.7s20.5-45.7,45.7-45.7c25.2,0,45.7,20.5,45.7,45.7
	C124.9,316.8,104.5,337.3,79.2,337.3z M79.2,264.2c-15.1,0-27.4,12.3-27.4,27.4S64.1,319,79.2,319s27.4-12.3,27.4-27.4l0,0
	C106.6,276.5,94.4,264.2,79.2,264.2L79.2,264.2z"/>
<path class="st1" d="M133.9,492.7c-6.9,0-13.8-1.6-20-4.7c-4.5-2.2-6.4-7.7-4.1-12.3c2.2-4.5,7.7-6.4,12.3-4.1
	c3.8,1.8,7.8,2.7,12,2.8c15.1,0,27.4-12.3,27.4-27.4c0-15.1-12.3-27.4-27.4-27.4c-15.1,0-27.4,12.3-27.4,27.4c0,0.2,0,0.5,0,0.7
	c0.4,5-3.3,9.4-8.3,9.9c-5,0.5-9.4-3.2-9.9-8.2c0,0,0,0,0-0.1c-0.1-0.8-0.1-1.5-0.1-2.3c0-25.2,20.5-45.7,45.7-45.7
	c25.2,0,45.7,20.5,45.7,45.7c0,25.2-20.5,45.7-45.7,45.7c0,0,0,0,0,0L133.9,492.7z"/>
<path class="st1" d="M161.5,300.7h-45.7c-5.1,0-9.1-4.1-9.1-9.1c0-5.1,4.1-9.1,9.1-9.1h45.7c5.1,0,9.1,4.1,9.1,9.1
	C170.6,296.6,166.6,300.7,161.5,300.7L161.5,300.7z"/>
<path class="st1" d="M199,210.2c-2.4,0-4.7-1-6.5-2.7l-39-39c-3.6-3.6-3.6-9.4,0-12.9s9.4-3.6,12.9,0l39,39c3.6,3.6,3.6,9.4,0,12.9
	C203.8,209.3,201.4,210.2,199,210.2z"/>
<path class="st1" d="M159.9,430.3c-5,0-9.1-4.1-9.1-9.1c0-2.4,1-4.8,2.7-6.5l39-39c3.6-3.6,9.4-3.6,12.9,0s3.6,9.4,0,12.9l-39,39
	C164.7,429.3,162.4,430.3,159.9,430.3z"/>
<path class="st1" d="M463.2,300.7h-45.7c-5.1,0-9.1-4.1-9.1-9.1c0-5.1,4.1-9.1,9.1-9.1h45.7c5.1,0,9.1,4.1,9.1,9.1
	C472.4,296.6,468.3,300.7,463.2,300.7L463.2,300.7z"/>
<path class="st1" d="M380,210.2c-5,0-9.1-4.1-9.1-9.1c0-2.4,1-4.8,2.7-6.5l39-39c3.6-3.6,9.4-3.6,12.9,0s3.6,9.4,0,12.9l-39,39
	C384.8,209.3,382.4,210.2,380,210.2z"/>
<path class="st1" d="M419.1,430.3c-2.4,0-4.7-1-6.5-2.7l-39-39c-3.6-3.6-3.6-9.4,0-12.9s9.4-3.6,12.9,0l39,39
	c3.6,3.6,3.6,9.4,0,12.9C423.8,429.3,421.5,430.3,419.1,430.3L419.1,430.3z"/>
<ellipse transform="matrix(0.1602 -0.9871 0.9871 0.1602 -4.0987 496.1026)" class="st0" cx="289.5" cy="250.5" rx="41.1" ry="41.1"/>
<path class="st0" d="M225.5,355.6c0-35.4,32-64,64-64s64,28.6,64,64c0,0-13.7,18.3-64,18.3S225.5,355.6,225.5,355.6z"/>
<path class="st1" d="M289.5,300.7c-27.8,0-50.3-22.5-50.3-50.3s22.5-50.3,50.3-50.3c27.8,0,50.3,22.5,50.3,50.3
	C339.8,278.2,317.3,300.7,289.5,300.7z M289.5,218.4c-17.7,0-32,14.3-32,32s14.3,32,32,32s32-14.3,32-32
	C321.5,232.8,307.2,218.5,289.5,218.4L289.5,218.4z"/>
<path class="st1" d="M280.4,382.8h-0.5c-45.8-2.2-60.2-19.8-61.7-21.8c-1.2-1.6-1.8-3.5-1.8-5.5c0-39,34.2-73.1,73.1-73.1
	s73.1,34.2,73.1,73.1c0,2-0.6,3.9-1.8,5.5c-0.9,1.2-9.2,11.5-32.5,17.5c-4.9,1.1-9.8-2-11-6.9c-1.1-4.7,1.7-9.5,6.4-10.8
	c11.2-2.9,17.5-6.8,20.4-9.1c-2.2-29.5-29.9-51.1-54.7-51.1s-52.5,21.6-54.7,51.1c4.6,3.5,17.7,11.4,46,12.7c5,0.2,8.9,4.5,8.7,9.6
	C289.3,379,285.2,382.8,280.4,382.8L280.4,382.8z"/>
</svg>
