<?xml version="1.0" encoding="utf-8"?>
<!-- Generator: Adobe Illustrator 23.0.3, SVG Export Plug-In . SVG Version: 6.00 Build 0)  -->
<svg version="1.1" id="Layer_1" xmlns="http://www.w3.org/2000/svg" xmlns:xlink="http://www.w3.org/1999/xlink" x="0px" y="0px"
	 viewBox="0 0 566.9 566.9" style="enable-background:new 0 0 566.9 566.9;" xml:space="preserve">
<style type="text/css">
	.st0{fill:#5629B6;}
	.st1{fill:#63D2D6;}
</style>
<path class="st0" d="M490.7,516.5H206.2c-5.2,0-9.5-4.3-9.5-9.5s4.3-9.5,9.5-9.5h284.5c5.2,0,9.5-4.2,9.5-9.5v-19
	c0-5.2-4.2-9.5-9.5-9.5H73.5c-5.2,0-9.5,4.2-9.5,9.5c0,0,0,0,0,0.1v19c0,5.2,4.2,9.5,9.5,9.5h85.3c5.2,0,9.5,4.3,9.5,9.5
	s-4.3,9.5-9.5,9.5H73.5c-15.7,0-28.5-12.7-28.5-28.4c0,0,0-0.1,0-0.1v-19c0-15.7,12.7-28.4,28.4-28.4h417.2
	c15.7,0,28.4,12.7,28.4,28.4v19C519.1,503.7,506.4,516.5,490.7,516.5z"/>
<path class="st0" d="M234.7,213.1c-5.2,0-9.5-4.2-9.5-9.5v-56.9c0-5.2,4.3-9.5,9.5-9.5s9.5,4.3,9.5,9.5v56.9
	C244.2,208.8,240,213.1,234.7,213.1C234.7,213.1,234.7,213.1,234.7,213.1z"/>
<path class="st0" d="M244.2,412.2c-10.5,0-19-8.5-19-18.9V251c0-5.2,4.3-9.5,9.5-9.5s9.5,4.3,9.5,9.5l0,0v142.2H320V61.4h-75.8v47.4
	c0,5.2-4.3,9.5-9.5,9.5s-9.5-4.3-9.5-9.5V61.4c0-10.5,8.5-19,18.9-19H320c10.5,0,19,8.5,19,18.9v331.9c0,10.5-8.5,19-18.9,19
	L244.2,412.2L244.2,412.2z"/>
<path class="st0" d="M177.8,412.2h-75.8c-10.5,0-19-8.5-19-19l0,0v-218c0-10.5,8.5-19,19-19h75.9c10.5,0,19,8.5,19,19v218.1
	C196.8,403.7,188.3,412.2,177.8,412.2z M101.9,175.2L101.9,175.2v218h75.8V175.2L101.9,175.2z"/>
<path class="st0" d="M386.4,412.2c-10.5,0-19-8.5-19-18.9v-275c0-5.1,2-9.9,5.7-13.5c3.7-3.6,9.7-3.6,13.3,0.1l92,92
	c1.8,1.8,2.8,4.2,2.8,6.7v85.3c0,5.2-4.3,9.5-9.5,9.5s-9.5-4.3-9.5-9.5l0,0v-81.4l-75.9-75.9l0.1,261.6h75.9v-56.9
	c0-5.2,4.3-9.5,9.5-9.5s9.5,4.3,9.5,9.5l0,0v56.9c0,10.5-8.5,19-18.9,19L386.4,412.2L386.4,412.2z"/>
<path class="st1" d="M462.2,108.8h-75.9c-2.5,0-4.9,1-6.7,2.8l92,92v-85.3C471.7,113,467.5,108.8,462.2,108.8z"/>
<path class="st0" d="M471.7,213.1c-2.5,0-4.9-1-6.7-2.8l-92-92c-3.7-3.7-3.7-9.6-0.1-13.3c3.5-3.6,8.4-5.6,13.4-5.7h28.5
	c5.2,0,9.5,4.3,9.5,9.5s-4.3,9.5-9.5,9.5h-15l62.5,62.4v-62.5h-9.5c-5.2,0-9.5-4.3-9.5-9.5s4.3-9.5,9.5-9.5l0,0h9.5
	c10.5,0,19,8.5,19,18.9v85.4c0,5.2-4.2,9.5-9.5,9.5l0,0L471.7,213.1z"/>
<path class="st1" d="M320,51.9h-75.8c-2.5,0-4.9,1-6.7,2.8l92,92V61.4C329.5,56.2,325.2,51.9,320,51.9z"/>
<path class="st0" d="M329.5,156.2c-2.5,0-4.9-1-6.7-2.8l-92-92c-3.7-3.7-3.7-9.7,0-13.4c3.6-3.5,8.4-5.5,13.4-5.6H320
	c10.5,0,19,8.5,19,19l0,0v85.3C339,152,334.8,156.3,329.5,156.2L329.5,156.2L329.5,156.2z M257.6,61.4l62.4,62.4V61.4H257.6z"/>
<path class="st1" d="M177.8,165.7h-75.8c-2.5,0-4.9,1-6.7,2.8l92,92v-85.3C187.2,169.9,183,165.7,177.8,165.7z"/>
<path class="st0" d="M187.3,270c-2.5,0-4.9-1-6.7-2.8L156.3,243c-3.7-3.7-3.7-9.7,0-13.4s9.7-3.7,13.4,0l8,8v-62.4h-62.4l26,26
	c3.7,3.7,3.7,9.7,0,13.4s-9.7,3.7-13.4,0l-39.4-39.4c-3.7-3.7-3.7-9.6-0.1-13.3c3.6-3.6,8.4-5.6,13.5-5.6h75.8
	c10.5,0,19,8.5,19,18.9v85.4C196.8,265.7,192.5,270,187.3,270L187.3,270L187.3,270z"/>
</svg>
