<?xml version="1.0" encoding="utf-8"?>
<!-- Generator: Adobe Illustrator 23.0.3, SVG Export Plug-In . SVG Version: 6.00 Build 0)  -->
<svg version="1.1" id="Layer_1" xmlns="http://www.w3.org/2000/svg" xmlns:xlink="http://www.w3.org/1999/xlink" x="0px" y="0px"
	 viewBox="0 0 566.9 566.9" style="enable-background:new 0 0 566.9 566.9;" xml:space="preserve">
<style type="text/css">
	.st0{fill:#63D2D6;}
	.st1{fill:#FFFFFF;}
	.st2{fill:#5629B6;}
</style>
<path class="st0" d="M174.4,359.1c-10.5,0-19-8.6-18.9-19.1c0-5,2-9.8,5.5-13.3l85.3-85.3c7.4-7.4,19.4-7.4,26.8,0l38.7,38.7
	l76.7-76.7c7.9-6.9,19.9-6.2,26.8,1.7c6.3,7.2,6.3,17.9,0,25.1l-90.1,90.1c-7.4,7.4-19.4,7.4-26.8,0l-38.7-38.7l-71.9,71.9
	C184.3,357.1,179.5,359.1,174.4,359.1z"/>
<path class="st0" d="M259.8,55.7h47.4c10.5,0,19,8.5,19,19v19h-85.4v-19C240.8,64.2,249.3,55.7,259.8,55.7z"/>
<path class="st1" d="M392.4,501.8c-5.4,8.7-16.6,11.6-25.5,6.6l-54.9-30.6v14.1c0.6,10.5-7.3,19.5-17.8,20.1
	c-10.5,0.6-19.5-7.3-20.1-17.8c0-0.8,0-1.5,0-2.3v-14.1l-54.9,30.6c-8.9,5-20.2,2-25.6-6.6c-5-8.5-2.2-19.4,6.2-24.4l0.6-0.3
	L274,436v-29.5h37.9V436l73.6,41.1c8.6,4.7,11.8,15.5,7.2,24.1c0,0,0,0,0,0L392.4,501.8z"/>
<path class="st2" d="M492.1,160H74.9c-15.7,0-28.4-12.7-28.4-28.4v-19c0-15.7,12.8-28.4,28.4-28.4h85.3c5.2,0,9.5,4.3,9.5,9.5
	s-4.3,9.5-9.5,9.5H74.9c-5.2,0-9.5,4.2-9.5,9.5v19c0.1,5.2,4.3,9.4,9.5,9.4h417.2c5.2,0,9.5-4.2,9.5-9.5v-19c0-5.2-4.2-9.5-9.5-9.5
	H207.6c-5.2,0-9.5-4.3-9.5-9.5s4.3-9.5,9.5-9.5h284.5c15.7,0,28.5,12.8,28.4,28.5c0,0,0,0,0,0.1v19C520.5,147.3,507.7,160,492.1,160
	z"/>
<path class="st2" d="M326.1,103.1h-85.3c-5.2,0-9.5-4.2-9.5-9.5v-19c0-15.7,12.7-28.4,28.4-28.4h47.4c15.7,0,28.4,12.7,28.4,28.4v19
	C335.6,98.9,331.4,103.1,326.1,103.1z M250.3,84.1h66.4v-9.5c0-5.2-4.2-9.5-9.5-9.5h-47.4c-5.2,0-9.5,4.2-9.5,9.5L250.3,84.1
	L250.3,84.1z"/>
<path class="st2" d="M477.8,307c-5.2,0-9.5-4.2-9.5-9.5c0,0,0,0,0,0V160H108.1v33.2c0,5.2-4.3,9.5-9.5,9.5s-9.5-4.3-9.5-9.5v-42.7
	c0-5.2,4.2-9.5,9.4-9.5c0,0,0.1,0,0.1,0h379.3c5.2,0,9.5,4.2,9.5,9.5v147C487.3,302.7,483.1,307,477.8,307
	C477.9,307,477.8,307,477.8,307z"/>
<path class="st2" d="M378.3,416H112.8c-13.1,0-23.7-10.6-23.7-23.7V240.6c0-5.2,4.3-9.5,9.5-9.5s9.5,4.3,9.5,9.5v151.7
	c0,2.6,2.1,4.7,4.7,4.7h265.5c5.2,0,9.5,4.3,9.5,9.5S383.5,416,378.3,416z"/>
<path class="st2" d="M463.6,416h-47.4c-5.2,0-9.5-4.3-9.5-9.5s4.3-9.5,9.5-9.5h47.4c2.6,0,4.7-2.1,4.7-4.7v-47.4
	c0-5.2,4.3-9.5,9.5-9.5s9.5,4.3,9.5,9.5v47.4C487.3,405.4,476.7,416,463.6,416z"/>
<path class="st2" d="M376.1,520.3c-4.9,0-9.7-1.3-13.9-3.6l-40.9-22.8c-1.1,15.7-14.8,27.5-30.4,26.3c-14.1-1-25.3-12.2-26.3-26.3
	l-40.9,22.8c-13.3,7.5-30.2,3.1-38.2-9.9c-7.7-13-3.5-29.7,9.4-37.5c0,0,0,0,0,0c0.3-0.2,0.6-0.3,0.9-0.5l68.6-38.3v-23.9
	c0-5.2,4.2-9.5,9.5-9.5c0,0,0,0,0,0h37.9c5.2,0,9.5,4.2,9.5,9.5c0,0,0,0,0,0v23.9l68.8,38.4c13.2,7.2,18,23.7,10.8,36.9
	c-0.2,0.4-0.4,0.7-0.6,1v0C395.2,515.2,386,520.3,376.1,520.3z M283.5,416v20c0,3.4-1.9,6.6-4.9,8.3L205,485.3
	c-4.1,2.2-5.6,7.3-3.4,11.4c0,0.1,0.1,0.1,0.1,0.2c2.7,4.3,8.3,5.7,12.8,3.2l54.9-30.6c4.6-2.6,10.3-0.9,12.9,3.7
	c0.8,1.4,1.2,3,1.2,4.6v14.1c0,5.2,4.3,9.5,9.5,9.5s9.5-4.3,9.5-9.5v-14.1c0-5.2,4.2-9.5,9.5-9.5c1.6,0,3.2,0.4,4.6,1.2l54.9,30.6
	c4.5,2.5,10.1,1.1,12.8-3.3l0.1-0.2c2.1-4,0.6-9.1-3.4-11.2l-73.7-41.2c-3-1.7-4.9-4.8-4.9-8.3v-20H283.5L283.5,416z"/>
<path class="st2" d="M174.4,368.6c-15.7,0-28.5-12.7-28.5-28.4c0-7.6,3-14.9,8.4-20.2l85.3-85.3c11.1-11.1,29.1-11.1,40.2,0l32,32
	l22.5-22.5c3.7-3.7,9.7-3.7,13.4,0s3.7,9.7,0,13.4l-29.2,29.2c-3.7,3.7-9.7,3.7-13.4,0c0,0,0,0,0,0l-38.7-38.7
	c-3.7-3.7-9.7-3.7-13.4,0l-85.3,85.3c-3.7,3.7-3.7,9.7,0,13.4s9.7,3.7,13.4,0l71.9-71.8c3.7-3.7,9.7-3.7,13.4,0c0,0,0,0,0,0
	l38.7,38.7c3.7,3.7,9.7,3.7,13.4,0l90.1-90.1c3.7-3.7,3.7-9.7,0-13.4s-9.7-3.7-13.4,0l0,0l-19,19c-3.7,3.7-9.7,3.7-13.4,0
	s-3.7-9.7,0-13.4l19-19c10.6-11.6,28.6-12.4,40.2-1.8s12.4,28.6,1.8,40.2c-0.6,0.6-1.1,1.2-1.8,1.8L332,327.1
	c-11.1,11.1-29.1,11.1-40.2,0l-32-32l-65.2,65.2C189.2,365.6,182,368.6,174.4,368.6z"/>
</svg>
