<svg id="Layer_1" data-name="Layer 1" xmlns="http://www.w3.org/2000/svg" viewBox="0 0 566.93 566.93"><defs><style>.cls-1{fill:#fff;}.cls-2{fill:#392a6f;}.cls-3{fill:#6c64b3;}</style></defs><title>erxes</title><path class="cls-1" d="M134.72,355.14l62.58,62.57a34,34,0,0,0,24.12,10c.53,0,1,0,1.55,0a34.12,34.12,0,0,0,24.65-12.25L354.27,287.51l20.67-24.84,32.35-38.8,24.27-29.17,24.65-29.58a34.13,34.13,0,0,0-52.41-43.69l-24.5,29.43L355,180,259.27,294.91l-20.71,24.8L219.14,343l-76-76A34.11,34.11,0,1,0,94.9,315.31L112,332.38Zm0,0"/><path class="cls-2" d="M219.14,350.62a7.6,7.6,0,0,1-5.36-2.22l-76-76a26.53,26.53,0,1,0-37.51,37.51L117.33,327a7.58,7.58,0,0,1-10.73,10.73L89.53,320.68a41.7,41.7,0,0,1,59-59l70.13,70.09,14.11-16.94a7.58,7.58,0,1,1,11.66,9.7L225,347.88a7.58,7.58,0,0,1-5.49,2.73Zm0,0"/><path class="cls-2" d="M221.38,435.31a41.88,41.88,0,0,1-29.46-12.25L129.35,360.5a7.58,7.58,0,1,1,10.73-10.73l62.58,62.58a26.59,26.59,0,0,0,18.73,7.79h.36l.7,0a26.7,26.7,0,0,0,19.35-9.54L348.44,282.66a7.58,7.58,0,1,1,11.65,9.71L253.45,420.29a41.77,41.77,0,0,1-30.12,15,18.48,18.48,0,0,1-1.94,0Zm0,0"/><path class="cls-2" d="M259.26,302.5a7.58,7.58,0,0,1-5.82-12.44L398,116.58a41.72,41.72,0,0,1,64.21,53.22l-81.41,97.73a7.59,7.59,0,0,1-11.65-9.72l81.27-97.54a26.55,26.55,0,0,0-40.91-33.8L265.1,299.76a7.6,7.6,0,0,1-5.84,2.73Zm0,0"/><path class="cls-3" d="M417.19,182.65l14.38,12.06-24.27,29.17L355,180l24.31-29.12,19.34,16.2Zm0,0"/><path class="cls-2" d="M407.29,231.46a7.6,7.6,0,0,1-4.87-1.78l-52.3-43.88a7.58,7.58,0,0,1-.95-10.67L373.48,146a7.59,7.59,0,0,1,10.69-1l19.35,16.19a7.59,7.59,0,0,1-9.74,11.63l-13.51-11.32L365.66,179l40.67,34.12,14.57-17.51-8.59-7.2a7.59,7.59,0,0,1,9.75-11.62l14.37,12.06a7.59,7.59,0,0,1,1,10.67l-24.27,29.16a7.58,7.58,0,0,1-5.15,2.7c-.23,0-.46,0-.68,0Zm0,0"/></svg>