<svg id="Layer_1" data-name="Layer 1" xmlns="http://www.w3.org/2000/svg" viewBox="0 0 566.93 566.93"><defs><style>.cls-1{fill:#fff;}.cls-2{fill:#6c64b3;}.cls-3{fill:#392a6f;}</style></defs><title>erxes</title><path class="cls-1" d="M308.45,408.34a27.34,27.34,0,0,1,.93,7,26.53,26.53,0,1,1-53.07,0,27.34,27.34,0,0,1,.93-7c8.29.27,16.85.4,25.6.4S300.15,408.61,308.45,408.34Z"/><path class="cls-2" d="M416.64,352.23a83.74,83.74,0,0,1,5.51,33.3c0,11.38-49,20.83-113.7,22.82-8.29.27-16.85.4-25.6.4s-17.31-.13-25.6-.4c-64.71-2-113.7-11.44-113.7-22.82a83.71,83.71,0,0,1,5.51-33.3c16.85,9.65,70.35,16.72,133.8,16.72S399.79,361.88,416.64,352.23Z"/><path class="cls-1" d="M385.66,219.69c0,100.23,20.83,107.69,31,132.54-16.85,9.65-70.35,16.72-133.8,16.72S165.89,361.88,149,352.23c10.15-24.84,31-32.3,31-132.54a102.84,102.84,0,0,1,70.08-97.48,31.29,31.29,0,0,1-.43-5.34,33.17,33.17,0,1,1,66.33,0,31.29,31.29,0,0,1-.43,5.34A102.84,102.84,0,0,1,385.66,219.69Z"/><path class="cls-3" d="M386.35,256.17a6.63,6.63,0,0,1-6.62-6.31c-.47-9.68-.7-19.83-.7-30.17a96.12,96.12,0,0,0-65.56-91.19,6.63,6.63,0,0,1-4.43-7.38,25.43,25.43,0,0,0,.34-4.21,26.53,26.53,0,1,0-53.07,0,25,25,0,0,0,.34,4.25,6.63,6.63,0,0,1-4.42,7.38,96.07,96.07,0,0,0-22,10.67,6.63,6.63,0,1,1-7.27-11.1,109.21,109.21,0,0,1,20.06-10.35c0-.29,0-.58,0-.88a39.8,39.8,0,0,1,79.6,0c0,.28,0,.56,0,.85a109.37,109.37,0,0,1,69.66,102c0,10.13.23,20.07.69,29.53a6.63,6.63,0,0,1-6.3,6.95Z"/><path class="cls-3" d="M308.44,415a6.63,6.63,0,0,1-.2-13.26c65.7-2,102.4-11.2,107.3-17a76.9,76.9,0,0,0-5.09-30.14,104.49,104.49,0,0,0-7.32-13.87c-6.83-11.54-15.32-25.91-20.11-57a6.63,6.63,0,0,1,13.11-2c4.4,28.58,11.84,41.17,18.42,52.28a116.35,116.35,0,0,1,8.23,15.74,90,90,0,0,1,6,36.06c0,9.36-11.69,16-37.92,21.18-21.1,4.19-50.3,7-82.2,8Z"/><path class="cls-3" d="M257.24,415H257c-22.37-.69-43.56-2.29-61.29-4.63a6.63,6.63,0,1,1,1.74-13.15c17.3,2.28,38,3.85,60,4.52a6.63,6.63,0,0,1-.2,13.26Z"/><path class="cls-3" d="M180.5,216.37l-.65,0a6.63,6.63,0,0,1-6-7.24,108.34,108.34,0,0,1,26.49-61.31,6.63,6.63,0,1,1,10,8.74,95.14,95.14,0,0,0-23.26,53.84A6.63,6.63,0,0,1,180.5,216.37Z"/><path class="cls-3" d="M163.44,404.1a6.65,6.65,0,0,1-1.75-.24c-11.54-3.15-24.79-8.08-24.79-18.34a89.45,89.45,0,0,1,5.95-35.68A116.16,116.16,0,0,1,151.11,334c9.2-15.57,19.63-33.22,21.85-91.37a6.63,6.63,0,0,1,13.26.51c-2.34,61.51-14.18,81.53-23.68,97.61a105.08,105.08,0,0,0-7.35,14,76.52,76.52,0,0,0-5,30c.8.79,4.09,3.37,15,6.35a6.64,6.64,0,0,1-1.74,13Z"/><path class="cls-3" d="M282.84,448.54a33.2,33.2,0,0,1-33.17-33.17,33.87,33.87,0,0,1,1.15-8.75,6.6,6.6,0,0,1,6.62-4.91c16.37.52,34.42.52,50.79,0a6.5,6.5,0,0,1,6.62,4.91,33.89,33.89,0,0,1,1.16,8.74A33.21,33.21,0,0,1,282.84,448.54Zm-19.9-33.4v.24a19.9,19.9,0,0,0,39.8,0c0-.08,0-.16,0-.24C289.76,415.46,275.92,415.46,262.94,415.14Z"/><path class="cls-3" d="M379,369.14A6.63,6.63,0,0,1,378,356c22.55-3.54,31.82-7.46,35.34-9.48a6.63,6.63,0,0,1,6.61,11.5c-7.67,4.4-21.08,8.13-39.88,11.08A7,7,0,0,1,379,369.14Z"/><path class="cls-3" d="M266.26,375.44h-.14c-57.46-1.16-103.58-7.85-120.37-17.46a6.63,6.63,0,0,1,6.59-11.51c12.09,6.92,52,14.46,114,15.7a6.64,6.64,0,0,1-.13,13.27Z"/><path class="cls-3" d="M299.42,375.44a6.63,6.63,0,0,1-.14-13.26c16.6-.37,32.08-1.16,46-2.36A6.63,6.63,0,0,1,346.43,373c-14.21,1.23-30,2-46.86,2.41Z"/></svg>