<svg id="Layer_1" data-name="Layer 1" xmlns="http://www.w3.org/2000/svg" viewBox="0 0 566.93 566.93"><defs><style>.cls-1{fill:#fff;}.cls-2{fill:#6c64b3;}.cls-3{fill:#392a6f;}.cls-4{fill:#2a457f;}</style></defs><title>erxes</title><path class="cls-1" d="M465,217.68V406.93a30.42,30.42,0,0,1-30.34,30.34H131.21a30.43,30.43,0,0,1-30.34-30.34V217.68a15.56,15.56,0,0,0,5.31,11.76l66.75,49.68,110,82.3,110-82.3,66.75-49.68A15.56,15.56,0,0,0,465,217.68Zm0,0"/><path class="cls-1" d="M392.9,279.12V103.52h-220v175.6l110,82.3Zm0,0"/><path class="cls-1" d="M106.18,205.16l66.75-49.68V279.11l-66.75-49.68a15.55,15.55,0,0,1-5.31-11.75v-1.14a15.36,15.36,0,0,1,5.31-11.37Zm0,0"/><path class="cls-1" d="M465,216.92v1.14a15.55,15.55,0,0,1-5.31,11.76l-66.75,49.3V155.48l66.75,49.68A15.54,15.54,0,0,1,465,216.92Zm0,0"/><rect class="cls-2" x="218.44" y="149.03" width="45.51" height="75.85"/><path class="cls-1" d="M323.49,103.52H242.33l40.58-30.34Zm0,0"/><path class="cls-3" d="M323.49,111.1H242.33a7.58,7.58,0,0,1-4.54-13.66L278.37,67.1a7.59,7.59,0,0,1,9.08,0L328,97.44a7.59,7.59,0,0,1-4.54,13.66ZM265.14,95.93h35.54L282.91,82.65Zm0,0"/><path class="cls-3" d="M282.91,369a7.55,7.55,0,0,1-4.53-1.5L231,332.23A7.59,7.59,0,0,1,240,320.06l42.87,31.89L388.35,273l66.48-49.48a8,8,0,0,0,2.54-5.8v-.08a7.59,7.59,0,0,1,7.57-7.59h0a7.59,7.59,0,0,1,7.59,7.56v102a7.58,7.58,0,1,1-15.17,0V240.58L397.43,285.2l-110,82.29a7.57,7.57,0,0,1-4.54,1.51Zm0,0"/><path class="cls-3" d="M138.79,444.85h-7.58a38.11,38.11,0,0,1-37.93-37.9V217.65a7.58,7.58,0,0,1,7.58-7.56h0a7.59,7.59,0,0,1,7.57,7.59v.1a8,8,0,0,0,2.54,5.78l102.12,76a7.58,7.58,0,1,1-9.05,12.17l-95.6-71.16V406.93a22.9,22.9,0,0,0,22.78,22.75h7.56a7.59,7.59,0,0,1,0,15.17Zm0,0"/><path class="cls-3" d="M267.74,444.85a7.59,7.59,0,0,1,0-15.17H434.62a22.89,22.89,0,0,0,22.75-22.78V357.62a7.59,7.59,0,1,1,15.17,0v49.3a38.11,38.11,0,0,1-37.9,37.93Zm0,0"/><path class="cls-3" d="M229.82,444.85H169.14a7.59,7.59,0,0,1,0-15.17h60.68a7.59,7.59,0,0,1,0,15.17Zm0,0"/><path class="cls-3" d="M172.93,286.7a7.59,7.59,0,0,1-7.59-7.58V103.52a7.59,7.59,0,0,1,7.59-7.59H339.8a7.58,7.58,0,0,1,0,15.17H180.51v168a7.59,7.59,0,0,1-7.58,7.59Zm0,0"/><path class="cls-3" d="M392.9,286.7a7.59,7.59,0,0,1-7.59-7.58v-168h-7.59a7.58,7.58,0,0,1,0-15.17H392.9a7.59,7.59,0,0,1,7.59,7.59v175.6a7.59,7.59,0,0,1-7.59,7.58Zm0,0"/><path class="cls-3" d="M465,225.64a7.59,7.59,0,0,1-7.59-7.59v-1.14a8,8,0,0,0-2.54-5.88l-66.47-49.47a7.58,7.58,0,1,1,9.06-12.17l66.75,49.68c.16.12.31.25.47.38a23.13,23.13,0,0,1,7.9,17.49v1.11a7.59,7.59,0,0,1-7.59,7.59Zm0,0"/><path class="cls-4" d="M172.92,286.7a7.56,7.56,0,0,1-4.53-1.5l-66.75-49.68-.47-.38a23.1,23.1,0,0,1-7.9-17.49v-1.11a23.11,23.11,0,0,1,7.9-17.46c.16-.14.32-.27.49-.39l66.75-49.3a7.58,7.58,0,1,1,9,12.2L111,210.66a8,8,0,0,0-2.53,5.85v1.17a8,8,0,0,0,2.54,5.88L177.46,273a7.59,7.59,0,0,1-4.53,13.67Zm0,0"/><path class="cls-3" d="M172.92,286.7a7.56,7.56,0,0,1-4.53-1.5l-66.75-49.68-.47-.38a23.1,23.1,0,0,1-7.9-17.49v-1.11a23.11,23.11,0,0,1,7.9-17.46c.16-.14.32-.27.49-.39l66.75-49.3a7.58,7.58,0,1,1,9,12.2L111,210.66a8,8,0,0,0-2.53,5.85v1.17a8,8,0,0,0,2.54,5.88L177.46,273a7.59,7.59,0,0,1-4.53,13.67Zm0,0"/><path class="cls-3" d="M100.87,225.64a7.59,7.59,0,0,1-7.58-7.59v-1.14a23.11,23.11,0,0,1,7.9-17.47l.47-.38,66.75-49.68a7.59,7.59,0,1,1,9.06,12.17L111,211a8,8,0,0,0-2.54,5.86v1.16a7.59,7.59,0,0,1-7.59,7.59Zm0,0"/><path class="cls-3" d="M263.95,232.47H218.44a7.58,7.58,0,0,1-7.58-7.58V198.33a7.58,7.58,0,0,1,15.17,0v19h30.34V156.62H226V168a7.58,7.58,0,1,1-15.17,0V149a7.59,7.59,0,0,1,7.58-7.59h45.51a7.59,7.59,0,0,1,7.59,7.59v75.85a7.59,7.59,0,0,1-7.59,7.58Zm0,0"/><path class="cls-3" d="M347.39,156.61H294.29a7.58,7.58,0,1,1,0-15.17h53.09a7.58,7.58,0,1,1,0,15.17Zm0,0"/><path class="cls-3" d="M347.39,194.54H294.29a7.58,7.58,0,1,1,0-15.17h53.09a7.58,7.58,0,1,1,0,15.17Zm0,0"/><path class="cls-3" d="M347.39,232.47H294.29a7.58,7.58,0,1,1,0-15.17h53.09a7.58,7.58,0,1,1,0,15.17Zm0,0"/><path class="cls-3" d="M347.39,270.39H320.84a7.58,7.58,0,1,1,0-15.17h26.55a7.58,7.58,0,1,1,0,15.17Zm0,0"/><path class="cls-3" d="M282.91,270.39H218.44a7.58,7.58,0,0,1,0-15.17h64.48a7.58,7.58,0,1,1,0,15.17Zm0,0"/><path class="cls-3" d="M309.46,308.32H256.37a7.58,7.58,0,1,1,0-15.17h53.09a7.58,7.58,0,1,1,0,15.17Zm0,0"/></svg>