<svg id="Layer_1" data-name="Layer 1" xmlns="http://www.w3.org/2000/svg" viewBox="0 0 566.93 566.93"><defs><style>.cls-1{fill:#fff;}.cls-2{fill:#6c64b3;}.cls-3{fill:#a6caff;}.cls-4{fill:#392a6f;}</style></defs><title>erxes</title><path class="cls-1" d="M184.81,440.72H382.3a7.31,7.31,0,0,1,7.31,7.31v14.63A7.31,7.31,0,0,1,382.3,470H184.81a7.31,7.31,0,0,1-7.31-7.32V448a7.31,7.31,0,0,1,7.31-7.31Zm0,0"/><path class="cls-2" d="M184.81,411.46H382.3a7.31,7.31,0,0,1,7.31,7.32v14.63a7.31,7.31,0,0,1-7.31,7.31H184.81a7.31,7.31,0,0,1-7.31-7.31V418.78a7.31,7.31,0,0,1,7.31-7.32Zm0,0"/><path class="cls-1" d="M389.61,389.52v14.63a7.34,7.34,0,0,1-7.31,7.31H184.81a7.34,7.34,0,0,1-7.31-7.31V389.52a7.34,7.34,0,0,1,7.31-7.32H382.3a7.34,7.34,0,0,1,7.31,7.32Zm0,0"/><path class="cls-3" d="M254.66,159.12A14.63,14.63,0,1,1,240,144.49a14.63,14.63,0,0,1,14.63,14.63Zm0,0"/><path class="cls-1" d="M252.83,212.95c-17.88-9.69-39-5.56-56.68,15.66-18.28,21.94-29.26,21.94-40.23,7.31s-7.31-21.94,3.66-36.57c7.57-10.09,51.86-65.64,78.48-99,126.32,55.08,133.63,130.16,133.63,179.42V382.2H196.15c0-51.2,3.66-69.48,36.57-106.05,22.34-24.8,24.46-46.26,20.11-63.2Zm1.83-53.83A14.63,14.63,0,1,0,240,173.75a14.63,14.63,0,0,0,14.63-14.63Zm0,0"/><path class="cls-1" d="M433.86,294.43l-62.17,17.77v-32.4c0-49.26-7.32-124.34-133.63-179.42C249.94,85.46,258.32,75,258.32,75s157.25,32.91,175.54,219.43Zm0,0"/><path class="cls-4" d="M171.07,253.43h-.54c-7.52-.2-14.32-4.49-20.79-13.11-14.12-18.83-7.72-30.18,3.66-45.35,1.88-2.53,6-7.87,13.05-16.77a7.32,7.32,0,0,1,11.49,9.05c-6.84,8.68-11,14.07-12.82,16.47-10.42,13.89-11.64,17.21-3.68,27.82,5.37,7.16,8.45,7.24,9.46,7.27,2.93.11,8.93-2.43,19.29-14.87,19.09-22.87,43.69-29.38,65.79-17.4.71.38,1.49.79,2.22,1.25,8.17,4.89,17.91,5.62,24.71,1.77,7.61-4.31,11.64-14.16,11.64-28.48a7.31,7.31,0,0,1,14.63,0c0,25.14-10.36,36.29-19.06,41.21-11.49,6.5-26.65,5.73-39.56-2-.55-.34-1-.58-1.49-.83-15.82-8.57-33.16-3.5-47.65,13.87-11.58,13.9-21,20.14-30.36,20.14Zm0,0"/><path class="cls-4" d="M371.35,319.52a7.32,7.32,0,0,1-2-14.35l56.32-16.1a266,266,0,0,0-29-95.8,7.31,7.31,0,0,1,13-6.79,280.69,280.69,0,0,1,31.24,107.34,7.31,7.31,0,0,1-5.28,7.65l-62.17,17.77a7.06,7.06,0,0,1-2,.29Zm0,0"/><path class="cls-4" d="M386.18,170.23a7.3,7.3,0,0,1-5.92-3,222.25,222.25,0,0,0-41.6-43.37,232.79,232.79,0,0,0-25.14-17.41A204.85,204.85,0,0,0,260.72,83.3c-3.44,4.31-9.63,12.05-17.27,21.64-14.2,17.75-33.36,41.8-49.37,61.91a7.32,7.32,0,0,1-11.45-9.12c16-20.12,35.19-44.19,49.38-61.93,11.89-14.92,20.26-25.38,20.26-25.38a7.33,7.33,0,0,1,7.51-2.52,219.1,219.1,0,0,1,61.32,26,247.28,247.28,0,0,1,26.63,18.45,236.77,236.77,0,0,1,44.34,46.23,7.32,7.32,0,0,1-5.91,11.62Zm0,0"/><path class="cls-4" d="M313.17,389.52H195.82a7.32,7.32,0,0,1-7.31-7.18,311.67,311.67,0,0,1,1.95-41.2A7.31,7.31,0,0,1,205,342.8a297.22,297.22,0,0,0-1.9,32.09H313.17a7.32,7.32,0,0,1,0,14.63Zm0,0"/><path class="cls-4" d="M289.43,135.31a7.28,7.28,0,0,1-4-1.18,335.6,335.6,0,0,0-50.6-27,7.31,7.31,0,0,1,5.76-13.45,349.94,349.94,0,0,1,52.82,28.21,7.31,7.31,0,0,1-4,13.44Zm0,0"/><path class="cls-4" d="M371.36,389.52H349.74a7.31,7.31,0,0,1,0-14.63H364V279.81c0-41.56-6.59-85.76-54.43-127.38a7.32,7.32,0,1,1,9.6-11c52.39,45.59,59.46,95.55,59.46,138.42V382.2a7.32,7.32,0,0,1-7.32,7.32Zm0,0"/><path class="cls-4" d="M210,312.72a7.32,7.32,0,0,1-6.22-11.14,189,189,0,0,1,23.25-30.43c17.16-19.05,23.2-37.52,18.36-56.37a7.31,7.31,0,0,1,14.17-3.64c6.07,23.63-1.25,47.15-21.76,69.91a174.78,174.78,0,0,0-21.55,28.19,7.33,7.33,0,0,1-6.24,3.48Zm0,0"/><path class="cls-4" d="M184.85,418.77a14.64,14.64,0,0,1-14.63-14.63V389.52a14.64,14.64,0,0,1,14.63-14.63H313.17a7.31,7.31,0,0,1,0,14.63H184.85v14.63H382.33V389.52H349.74a7.31,7.31,0,0,1,0-14.63h32.59A14.7,14.7,0,0,1,397,389.49v14.65a14.69,14.69,0,0,1-14.61,14.63Zm0,0"/><path class="cls-4" d="M262,448a7.31,7.31,0,1,1,0-14.63H382.33V418.77H184.85V433.4H225.4a7.31,7.31,0,1,1,0,14.63H184.85a14.64,14.64,0,0,1-14.63-14.63V418.77a14.64,14.64,0,0,1,14.63-14.63H382.33A14.7,14.7,0,0,1,397,418.75V433.4A14.69,14.69,0,0,1,382.35,448Zm0,0"/><path class="cls-4" d="M283.92,477.29H184.85a14.64,14.64,0,0,1-14.63-14.63V448a14.64,14.64,0,0,1,14.63-14.63h47.87a7.31,7.31,0,0,1,0,14.63H184.85v14.63h99.07a7.31,7.31,0,1,1,0,14.63Zm0,0"/><path class="cls-4" d="M320.49,477.29a7.31,7.31,0,0,1,0-14.63h61.84V448H262a7.31,7.31,0,1,1,0-14.63H382.33A14.7,14.7,0,0,1,397,448v14.65a14.69,14.69,0,0,1-14.61,14.63Zm0,0"/><path class="cls-4" d="M239.69,181.06a21.94,21.94,0,1,1,21.95-21.95,22,22,0,0,1-21.95,21.95Zm0-29.26a7.31,7.31,0,1,0,7.32,7.31,7.32,7.32,0,0,0-7.32-7.31Zm0,0"/></svg>