<?xml version="1.0" encoding="utf-8"?>
<!-- Generator: Adobe Illustrator 23.0.3, SVG Export Plug-In . SVG Version: 6.00 Build 0)  -->
<svg version="1.1" id="Layer_1" xmlns="http://www.w3.org/2000/svg" xmlns:xlink="http://www.w3.org/1999/xlink" x="0px" y="0px"
	 viewBox="0 0 566.9 566.9" style="enable-background:new 0 0 566.9 566.9;" xml:space="preserve">
<style type="text/css">
	.st0{fill:#63D2D6;}
	.st1{fill:#5629B6;}
</style>
<path class="st0" d="M309.2,412.6c-0.1,10.5-4.2,20.6-11.7,28h78.2c11.6,0,21-9.4,21-21l0,0v-78.2c7.4,7.4,17.5,11.6,28,11.7
	c23.2,0,42-20.4,42-45.5S448,262,424.8,262c-10.5,0.1-20.6,4.3-28,11.7v-78.2c0-11.6-9.4-21-21-21h-27.1
	c-51.7,62.6,6,143.9-66.6,199.7C298.1,380.2,308.9,395.4,309.2,412.6L309.2,412.6z"/>
<path class="st1" d="M466.8,314.5c-3.9,0-7-3.1-7-7c0-21.2-15.7-38.5-35-38.5c-8.7,0-17,3.5-23.1,9.6c-2.7,2.7-7.2,2.7-9.9,0
	c-1.3-1.3-2.1-3.1-2-5v-78.2c0-7.7-6.3-14-14-14l0,0h-78.2c-3.9,0-7-3.1-7-7c0-1.9,0.7-3.7,2-5c6.1-6.1,9.6-14.4,9.6-23.1
	c0-19.3-17.3-35-38.5-35s-38.5,15.7-38.5,35c0,8.7,3.5,17,9.6,23.1c2.7,2.7,2.7,7.2,0,9.9c-1.3,1.3-3.1,2.1-5,2h-29.1
	c-3.9,0-7-3.1-7-7s3.1-7,7-7l0,0h15.6c-3.3-6.5-5-13.7-5-21c0-27.1,23.6-49.1,52.5-49.1s52.5,22,52.5,49c0,7.3-1.7,14.5-5,21h64.6
	c15.5,0,28,12.5,28,28V260c6.5-3.3,13.7-5,21-5c27.1,0,49.1,23.6,49.1,52.5c0,3.9-3.1,7-7,7L466.8,314.5z"/>
<path class="st1" d="M344.2,447.6h-46.7c-3.9,0-7-3.1-7-7c0-1.9,0.7-3.7,2-5c6.1-6.1,9.6-14.4,9.6-23.1
	c-0.3-14.2-9.3-26.8-22.6-31.9c-5.1-2-10.5-3.1-15.9-3.1c-21.3,0-38.5,15.7-38.5,35c0,8.7,3.5,17,9.6,23.1c2.7,2.7,2.7,7.2,0,9.9
	c-1.3,1.3-3.1,2.1-5,2h-78.2c-15.5,0-28-12.5-28-28c0-3.9,3.1-7,7-7c3.9,0,7,3.1,7,7l0,0c0,7.7,6.3,14,14,14h64.6
	c-3.3-6.5-5-13.7-5-21c0-27.1,23.6-49.1,52.5-49.1h0.2c7.2,0,14.2,1.4,20.9,4.1c18.7,7.1,31.1,24.8,31.5,44.8
	c0,7.4-1.8,14.6-5.1,21.2h33.1c3.9,0,7,3.1,7,7S348.1,447.5,344.2,447.6L344.2,447.6L344.2,447.6z"/>
<path class="st1" d="M379.2,447.3c-3.9,0-7-3.1-7-7c0-3.4,2.5-6.4,5.9-6.9c6.7-1.1,11.7-7,11.7-13.8v-78.2c0-3.9,3.1-7,7-7
	c1.9,0,3.7,0.7,5,2c6.1,6.1,14.5,9.6,23.1,9.6c10.9-0.2,21.1-5.6,27.3-14.5c2.1-3.2,6.4-4.2,9.7-2.1c3.2,2.1,4.2,6.4,2.1,9.7
	c-0.1,0.1-0.2,0.3-0.3,0.4c-8.9,12.7-23.3,20.3-38.8,20.5c-7.3,0-14.5-1.7-21.1-5v64.6c0,13.7-9.9,25.4-23.4,27.6
	C380,447.3,379.6,447.3,379.2,447.3L379.2,447.3z"/>
<path class="st1" d="M130.6,391.5c-3.9,0-7-3.1-7-7v-43.2c0-3.9,3.1-7,7-7c1.9,0,3.7,0.7,5,2c6.1,6.1,14.4,9.6,23.1,9.6
	c19.3,0,35-17.3,35-38.5s-15.7-38.5-35-38.5c-8.7,0-17,3.5-23.1,9.6c-2.7,2.7-7.2,2.7-9.9,0c-1.3-1.3-2.1-3.1-2-5v-78.2
	c0-15.5,12.5-28,28-28h14c3.9,0,7,3.1,7,7s-3.1,7-7,7h-14c-7.7,0-14,6.3-14,14V260c6.5-3.3,13.7-5,21-5c27.1,0,49.1,23.6,49.1,52.5
	s-22,52.5-49,52.5c-7.3,0-14.5-1.7-21-5v29.6C137.7,388.5,134.6,391.6,130.6,391.5L130.6,391.5z"/>
<path class="st1" d="M325.7,237.5c-0.2,0-0.5,0-0.7,0c-3.8-0.4-6.7-3.8-6.3-7.7c2.2-21.9,10.6-42.7,24.4-59.8c2.4-3,6.8-3.5,9.9-1.1
	s3.5,6.8,1.1,9.9c-12.1,15-19.5,33.2-21.4,52.3C332.3,234.7,329.3,237.4,325.7,237.5L325.7,237.5z"/>
<path class="st1" d="M282.1,381.1c-3.9,0-7-3.1-7-7c0-2.2,1-4.2,2.7-5.6c36.8-28.3,37.7-63.7,38.6-101.1l0.1-2.1
	c0.1-3.9,3.3-6.9,7.2-6.8c3.9,0.1,6.9,3.3,6.8,7.2v2.1c-1,39.1-2,79.5-44.1,111.9C285.2,380.6,283.7,381.1,282.1,381.1L282.1,381.1z
	"/>
</svg>
