<svg id="Layer_1" data-name="Layer 1" xmlns="http://www.w3.org/2000/svg" viewBox="0 0 566.93 566.93"><defs><style>.cls-1{fill:#fff;}.cls-2{fill:#6c64b3;}.cls-3{fill:#392a6f;}</style></defs><title>erxes</title><path class="cls-1" d="M331.51,116.68C226.2,77,108.63,130.13,68.9,235.44S82.35,458.33,187.66,498.06,410.54,484.61,450.27,379.3a203.82,203.82,0,0,0,0-143.85l-190.73,72Z"/><path class="cls-2" d="M392.59,55.61l-72,190.73,190.74-72A204.41,204.41,0,0,0,392.59,55.61Z"/><path class="cls-3" d="M65.15,378.54a9.49,9.49,0,0,1-9-6.63A212.8,212.8,0,0,1,82.65,188.08a9.48,9.48,0,1,1,15.73,10.59A193.92,193.92,0,0,0,74.19,366.21,9.48,9.48,0,0,1,68,378.1,9.62,9.62,0,0,1,65.15,378.54Z"/><path class="cls-3" d="M259.53,316.91a9.48,9.48,0,0,1-8.88-12.83l46.84-124.15a9.48,9.48,0,0,1,17.74,6.69L275.79,291.16,446.94,226.6a9.48,9.48,0,0,1,12.22,5.52,212,212,0,0,1,13.15,60.15,9.48,9.48,0,1,1-18.92,1.33,193.14,193.14,0,0,0-8.85-45.82L262.88,316.3A9.47,9.47,0,0,1,259.53,316.91Z"/><path class="cls-3" d="M319.69,157.48a9.49,9.49,0,0,1-8.87-12.83l8.39-22.25a193.32,193.32,0,0,0-178.33,31.07,9.48,9.48,0,1,1-11.57-15,212.23,212.23,0,0,1,205.53-30.66A9.48,9.48,0,0,1,340.37,120l-11.8,31.34A9.49,9.49,0,0,1,319.69,157.48Z"/><path class="cls-3" d="M260,520.81A215.45,215.45,0,0,1,225,518,212.51,212.51,0,0,1,74.28,413.3a9.48,9.48,0,0,1,16.46-9.42,194.41,194.41,0,0,0,360.63-65.1,9.48,9.48,0,0,1,18.71,3.07A213.51,213.51,0,0,1,260,520.81Z"/><path class="cls-3" d="M320.59,255.85A9.48,9.48,0,0,1,311.72,243l72-190.77A9.48,9.48,0,0,1,396,46.73,214.2,214.2,0,0,1,520.22,171a9.48,9.48,0,0,1-5.51,12.23l-48.4,18.3a9.48,9.48,0,0,1-6.7-17.74l39.3-14.86A195.25,195.25,0,0,0,398,68l-61.17,162,81.39-30.75a9.48,9.48,0,1,1,6.7,17.74l-101,38.16A9.47,9.47,0,0,1,320.59,255.85Z"/><path class="cls-3" d="M282.66,378.26a9.49,9.49,0,0,1-8.87-6.14l-23.13-61.35a9.48,9.48,0,0,1,17.74-6.69l23.13,61.35a9.5,9.5,0,0,1-8.87,12.83Z"/><path class="cls-3" d="M331.54,507.68a9.49,9.49,0,0,1-8.87-6.14l-31-82a9.48,9.48,0,1,1,17.74-6.69l31,82a9.49,9.49,0,0,1-8.87,12.83Z"/></svg>