<?xml version="1.0" encoding="utf-8"?>
<!-- Generator: Adobe Illustrator 23.0.3, SVG Export Plug-In . SVG Version: 6.00 Build 0)  -->
<svg version="1.1" id="Layer_1" xmlns="http://www.w3.org/2000/svg" xmlns:xlink="http://www.w3.org/1999/xlink" x="0px" y="0px"
	 viewBox="0 0 566.9 566.9" style="enable-background:new 0 0 566.9 566.9;" xml:space="preserve">
<style type="text/css">
	.st0{fill:#63D2D6;}
	.st1{fill:#5629B6;}
</style>
<path class="st0" d="M392.6,55.6l-72,190.7l190.7-72C490.6,119.6,447.3,76.4,392.6,55.6z"/>
<path class="st1" d="M65.2,378.5c-4.1,0-7.8-2.7-9-6.6c-19.8-62.1-10-129.8,26.5-183.8c2.9-4.3,8.8-5.5,13.2-2.6
	c4.3,2.9,5.5,8.8,2.6,13.2c-33.3,49.2-42.2,110.9-24.2,167.5c1.6,5-1.2,10.3-6.2,11.9C67.1,378.4,66.1,378.5,65.2,378.5z"/>
<path class="st1" d="M259.5,316.9c-5.2,0-9.5-4.2-9.5-9.5c0-1.1,0.2-2.3,0.6-3.4l46.8-124.1c1.9-4.9,7.4-7.3,12.3-5.4
	c4.8,1.9,7.3,7.3,5.5,12.1l-39.4,104.5l171.1-64.6c4.9-1.9,10.4,0.6,12.2,5.5c0,0,0,0,0,0c7.3,19.3,11.7,39.6,13.1,60.2
	c0.4,5.2-3.6,9.8-8.8,10.1s-9.8-3.6-10.1-8.8c-1.1-15.6-4.1-31-8.9-45.8l-181.7,68.5C261.8,316.7,260.7,316.9,259.5,316.9z"/>
<path class="st1" d="M319.7,157.5c-5.2,0-9.5-4.3-9.5-9.5c0-1.1,0.2-2.3,0.6-3.3l8.4-22.2c-60.9-19.8-127.7-8.2-178.3,31.1
	c-4,3.4-10,2.8-13.4-1.2s-2.8-10,1.2-13.4c0.2-0.2,0.4-0.3,0.6-0.5c58.5-45.4,136.4-57,205.5-30.7c4.9,1.8,7.4,7.3,5.5,12.2
	l-11.8,31.3C327.2,155,323.6,157.5,319.7,157.5z"/>
<path class="st1" d="M260,520.8c-11.7,0-23.4-0.9-35-2.8c-63.5-10.3-118.9-48.8-150.7-104.7c-2.6-4.5-1-10.3,3.5-12.9
	s10.3-1,12.9,3.5C144,497.1,262.8,529.4,356,476.2c50.9-29.1,85.9-79.6,95.4-137.4c0.8-5.2,5.7-8.7,10.9-7.8
	c5.2,0.8,8.7,5.7,7.8,10.9l0,0C453.2,444.8,364.4,520.5,260,520.8z"/>
<path class="st1" d="M320.6,255.9c-5.2,0-9.5-4.2-9.5-9.5c0-1.2,0.2-2.3,0.6-3.4l72-190.8c1.8-4.9,7.3-7.4,12.2-5.5c0,0,0,0,0.1,0
	c57.3,21.8,102.5,67,124.2,124.3c1.9,4.9-0.6,10.4-5.5,12.2c0,0,0,0,0,0l-48.4,18.3c-4.9,1.9-10.4-0.6-12.2-5.5
	c-1.9-4.9,0.6-10.4,5.5-12.2l39.3-14.9C479.2,123.8,443.2,87.7,398,68l-61.2,162l81.4-30.8c4.9-1.9,10.4,0.6,12.2,5.5
	c1.9,4.9-0.6,10.4-5.5,12.2l-101,38.2C322.9,255.6,321.7,255.8,320.6,255.9z"/>
<path class="st1" d="M282.7,378.3c-3.9,0-7.5-2.4-8.9-6.1l-23.1-61.4c-1.8-4.9,0.7-10.4,5.6-12.2c4.9-1.8,10.3,0.6,12.1,5.5
	l23.1,61.4c1.8,4.9-0.7,10.4-5.6,12.2C284.9,378.1,283.8,378.3,282.7,378.3L282.7,378.3z"/>
<path class="st1" d="M331.5,507.7c-3.9,0-7.5-2.4-8.9-6.1l-31-82c-1.9-4.9,0.6-10.4,5.4-12.3c4.9-1.9,10.4,0.6,12.3,5.4
	c0,0,0,0.1,0,0.1l31,82c1.8,4.9-0.6,10.4-5.5,12.2C333.8,507.5,332.7,507.7,331.5,507.7L331.5,507.7z"/>
</svg>
