<svg id="Layer_1" data-name="Layer 1" xmlns="http://www.w3.org/2000/svg" viewBox="0 0 566.93 566.93"><defs><style>.cls-1{fill:#fff;}.cls-2{fill:#392a6f;}.cls-3{fill:#6c64b3;}</style></defs><title>erxes</title><path class="cls-1" d="M111.27,118.89H447.73A29.26,29.26,0,0,1,477,148.15V396.83a29.26,29.26,0,0,1-29.26,29.26H111.27A29.26,29.26,0,0,1,82,396.83V148.15a29.26,29.26,0,0,1,29.26-29.26Zm0,0"/><path class="cls-2" d="M195.39,433.41H111.27A36.77,36.77,0,0,1,74.7,396.86V148.15a36.74,36.74,0,0,1,36.55-36.57H316.07a7.31,7.31,0,1,1,0,14.63H111.27a22.06,22.06,0,0,0-21.94,22V396.83a22.1,22.1,0,0,0,22,21.95h84.09a7.31,7.31,0,0,1,0,14.63Zm0,0"/><path class="cls-2" d="M232,433.41a7.31,7.31,0,1,1,0-14.63H447.73a22.1,22.1,0,0,0,21.95-22V232.26a7.31,7.31,0,0,1,14.63,0V396.83a36.78,36.78,0,0,1-36.55,36.57Zm0,0"/><path class="cls-2" d="M477,203a7.31,7.31,0,0,1-7.31-7.31V148.15a22.07,22.07,0,0,0-22-21.95H352.64a7.31,7.31,0,0,1,0-14.62h95.09a36.74,36.74,0,0,1,36.57,36.55v47.56A7.32,7.32,0,0,1,477,203Zm0,0"/><path class="cls-2" d="M279.4,312.73c-22.23,0-43.61-10.11-60.05-28.75L139.4,193.21a7.31,7.31,0,0,1,11-9.67l79.95,90.78c16,18.18,37.53,26.54,58.94,23a7.32,7.32,0,1,1,2.42,14.43,74.91,74.91,0,0,1-12.29,1Zm0,0"/><path class="cls-2" d="M319.74,299.48a7.31,7.31,0,0,1-4.23-13.28,75.51,75.51,0,0,0,13.17-11.87l133.9-152a7.32,7.32,0,0,1,11,9.68L339.68,284A90.26,90.26,0,0,1,324,298.14a7.28,7.28,0,0,1-4.22,1.34Zm0,0"/><path class="cls-2" d="M119.1,166.43a7.29,7.29,0,0,1-5.49-2.48L85.46,132a7.31,7.31,0,1,1,11-9.67l28.16,32a7.32,7.32,0,0,1-5.49,12.15Zm0,0"/><path class="cls-2" d="M175.49,307.93a7.31,7.31,0,0,1-5.94-11.57l30.61-42.75a7.31,7.31,0,0,1,11.9,8.52l-30.61,42.75a7.29,7.29,0,0,1-5.95,3.06Zm0,0"/><path class="cls-2" d="M91.37,425.54A7.31,7.31,0,0,1,85.43,414l41.62-58.14a7.31,7.31,0,1,1,11.9,8.51L97.33,422.48a7.29,7.29,0,0,1-6,3.06Zm0,0"/><path class="cls-2" d="M467.63,425.54a7.31,7.31,0,0,1-6-3.06L347,262.12a7.31,7.31,0,0,1,11.9-8.51L473.58,414a7.31,7.31,0,0,1-5.95,11.57Zm0,0"/><path class="cls-3" d="M191.73,331a36.57,36.57,0,1,1-36.57-36.57A36.57,36.57,0,0,1,191.73,331Zm0,0"/><path class="cls-2" d="M155.08,374.9a43.94,43.94,0,0,1-42.4-32.84A44.27,44.27,0,0,1,111.27,331,43.11,43.11,0,0,1,114,315.88,7.31,7.31,0,0,1,127.68,321a28.36,28.36,0,0,0-1.77,10,29.26,29.26,0,1,0,57.57-7.35,29.25,29.25,0,0,0-35.69-20.94,7.31,7.31,0,0,1-3.68-14.16,43.89,43.89,0,1,1,11,86.38Zm0,0"/></svg>