<svg id="Layer_1" data-name="Layer 1" xmlns="http://www.w3.org/2000/svg" viewBox="0 0 566.93 566.93"><defs><style>.cls-1{fill:#fff;}.cls-2{fill:#392a6f;}.cls-3{fill:#6c64b3;}</style></defs><title>erxes</title><path class="cls-1" d="M461.44,243.19a14.61,14.61,0,0,1,14.64,14.59c0,.3,0,.61,0,.91-2.67,44.89-14.68,124.68-19.48,155.22a14.61,14.61,0,0,1-14.46,12.38H115.61a14.61,14.61,0,0,1-14.46-12.38c-5.38-34.49-20-131.86-20-170.71V206.58a14.65,14.65,0,0,1,14.65-14.65H191c51.26,0,45.15,51.27,99.49,51.27h171Zm0,0"/><path class="cls-2" d="M139.45,389.67H96.35a7.32,7.32,0,1,1,0-14.64h43.1a7.32,7.32,0,1,1,0,14.64Zm0,0"/><path class="cls-2" d="M461.36,389.67H176.07a7.32,7.32,0,1,1,0-14.64H461.36a7.32,7.32,0,1,1,0,14.64Zm0,0"/><path class="cls-3" d="M446.79,170a14.61,14.61,0,0,1,14.64,14.59c0,.3,0,.6,0,.9V243.2H290.46c-54.34,0-48.23-51.27-99.49-51.27H95.77V133.34a14.65,14.65,0,0,1,14.64-14.65h95.21c51.27,0,45.15,51.27,99.49,51.27Zm0,0"/><path class="cls-2" d="M436.06,433.61H322.54a7.32,7.32,0,1,1,0-14.65H436.06a7.32,7.32,0,1,1,0,14.65Zm0,0"/><path class="cls-2" d="M304.23,250.52H290.46c-30.8,0-44.63-15.18-56.82-28.59C222.57,209.76,213,199.25,191,199.25H95.77a7.33,7.33,0,0,0-7.33,7.32v18.31a7.32,7.32,0,1,1-14.65,0V206.58a22,22,0,0,1,22-22H191c28.5,0,41.78,14.59,53.5,27.46s21.66,23.8,46,23.8h13.77a7.32,7.32,0,1,1,0,14.64Zm0,0"/><path class="cls-2" d="M115.58,433.61A21.82,21.82,0,0,1,93.91,415c-1.21-7.8-2.89-18.8-4.8-31.6-5.43-37-12.37-88-14.6-121.43a7.32,7.32,0,0,1,14.61-1c2.2,32.93,9.08,83.57,14.48,120.26,1.9,12.75,3.58,23.72,4.79,31.51a7.25,7.25,0,0,0,7.2,6.18H285.92a7.32,7.32,0,1,1,0,14.65H115.58Zm0,0"/><path class="cls-2" d="M457.49,415.3a8,8,0,0,1-1.13-.08,7.33,7.33,0,0,1-6.12-8.36c1.09-7.05,2.45-15.78,3.87-25.56,4.57-30.91,12.55-88,14.62-123a7.29,7.29,0,0,0-6.83-7.72h-121a7.32,7.32,0,1,1,0-14.65H461.44c.44,0,.89,0,1.34,0a21.93,21.93,0,0,1,20.57,23.21c-2,33.82-9.12,86.26-14.75,124.29-1.42,9.82-2.79,18.6-3.89,25.68a7.32,7.32,0,0,1-7.23,6.2Zm0,0"/><path class="cls-2" d="M461.4,247.55a7.33,7.33,0,0,1-7.32-7.32V185.45c0-.15,0-.29,0-.43l0-.47a7.3,7.3,0,0,0-7.29-7.26H410.42a7.32,7.32,0,0,1,0-14.65h36.41a21.94,21.94,0,0,1,21.93,21.89c0,.38,0,.75,0,1.12v54.58a7.33,7.33,0,0,1-7.33,7.32Zm0,0"/><path class="cls-2" d="M95.77,151.65a7.33,7.33,0,0,1-7.33-7.32v-11a22,22,0,0,1,22-22h36.36a7.32,7.32,0,1,1,0,14.65H110.41a7.33,7.33,0,0,0-7.32,7.33v11a7.32,7.32,0,0,1-7.32,7.32Zm0,0"/><path class="cls-2" d="M95.77,199.25a7.33,7.33,0,0,1-7.33-7.33v-11a7.32,7.32,0,0,1,14.65,0v11a7.33,7.33,0,0,1-7.32,7.33Zm0,0"/><path class="cls-1" d="M410.43,118.69v124.5h-120c-54.34,0-48.23-51.27-99.49-51.27h-44.2V118.69Zm0,0"/><path class="cls-2" d="M410.43,250.52H340.85a7.32,7.32,0,1,1,0-14.65H403.1v-7.32a7.32,7.32,0,1,1,14.65,0v14.64a7.33,7.33,0,0,1-7.32,7.32Zm0,0"/><path class="cls-2" d="M410.43,199.25a7.33,7.33,0,0,1-7.32-7.33V126H282.26a7.32,7.32,0,1,1,0-14.65H410.43a7.33,7.33,0,0,1,7.32,7.32v73.23a7.33,7.33,0,0,1-7.32,7.33Zm0,0"/><path class="cls-2" d="M304.23,250.52H290.46c-30.8,0-44.63-15.18-56.82-28.59C222.57,209.76,213,199.25,191,199.25h-44.2a7.33,7.33,0,0,1-7.32-7.33V118.69a7.33,7.33,0,0,1,7.32-7.32h98.87a7.32,7.32,0,0,1,0,14.65H154.1v58.59H191c28.5,0,41.78,14.59,53.5,27.46s21.66,23.8,46,23.8h13.77a7.32,7.32,0,1,1,0,14.64Zm0,0"/><path class="cls-2" d="M373.81,162.63H333.53a7.32,7.32,0,0,1,0-14.65h40.28a7.32,7.32,0,0,1,0,14.65Zm0,0"/><path class="cls-2" d="M296.91,162.63H183.39a7.32,7.32,0,1,1,0-14.65H296.91a7.32,7.32,0,1,1,0,14.65Zm0,0"/><path class="cls-2" d="M373.81,199.25H271.28a7.32,7.32,0,0,1,0-14.65H373.81a7.32,7.32,0,0,1,0,14.65Zm0,0"/></svg>