<svg id="Layer_1" data-name="Layer 1" xmlns="http://www.w3.org/2000/svg" viewBox="0 0 566.93 566.93"><defs><style>.cls-1{fill:#fff;}.cls-2{fill:#6c64b3;}.cls-3{fill:#392a6f;}</style></defs><title>erxes</title><path class="cls-1" d="M98.58,150.52H477.84V392.3a14.22,14.22,0,0,1-14.22,14.22H112.8A14.22,14.22,0,0,1,98.58,392.3V150.52Z"/><path class="cls-2" d="M174.43,359.12A19,19,0,0,1,161,326.74l85.33-85.33a19,19,0,0,1,26.81,0l38.74,38.74,76.67-76.67a19,19,0,0,1,26.81,26.82l-90.07,90.07a19,19,0,0,1-26.81,0l-38.74-38.74-71.93,71.93A18.91,18.91,0,0,1,174.43,359.12Z"/><path class="cls-1" d="M74.87,93.64H492.06a19,19,0,0,1,19,19v19a19,19,0,0,1-19,19H74.87a19,19,0,0,1-19-19v-19A19,19,0,0,1,74.87,93.64Z"/><path class="cls-2" d="M259.76,55.71h47.41a19,19,0,0,1,19,19v19H240.8v-19A19,19,0,0,1,259.76,55.71Z"/><path class="cls-1" d="M392.36,501.77a19.1,19.1,0,0,1-25.55,6.64l-54.9-30.62v14.08a19,19,0,1,1-37.93,0V477.78l-54.9,30.63a19.1,19.1,0,0,1-25.55-6.64,17.79,17.79,0,0,1,6.24-24.37l.58-.33L274,436V406.53h37.93V436l73.62,41.1a17.79,17.79,0,0,1,7.16,24.12Z"/><path class="cls-3" d="M492.06,160H74.87a28.47,28.47,0,0,1-28.44-28.44v-19A28.47,28.47,0,0,1,74.87,84.15h85.33a9.48,9.48,0,0,1,0,19H74.87a9.49,9.49,0,0,0-9.48,9.48v19A9.49,9.49,0,0,0,74.87,141H492.06a9.49,9.49,0,0,0,9.48-9.48v-19a9.49,9.49,0,0,0-9.48-9.48H207.61a9.48,9.48,0,1,1,0-19H492.06A28.47,28.47,0,0,1,520.5,112.6v19A28.47,28.47,0,0,1,492.06,160Z"/><path class="cls-3" d="M326.13,103.12H240.8a9.48,9.48,0,0,1-9.48-9.48v-19a28.47,28.47,0,0,1,28.44-28.44h47.41a28.47,28.47,0,0,1,28.44,28.44v19A9.49,9.49,0,0,1,326.13,103.12Zm-75.85-19h66.37V74.67a9.49,9.49,0,0,0-9.48-9.48H259.76a9.49,9.49,0,0,0-9.48,9.48v9.48Z"/><path class="cls-3" d="M477.84,307a9.48,9.48,0,0,1-9.48-9.48V160H108.06v33.18a9.48,9.48,0,1,1-19,0V150.52A9.48,9.48,0,0,1,98.58,141H477.84a9.49,9.49,0,0,1,9.48,9.48v147A9.49,9.49,0,0,1,477.84,307Z"/><path class="cls-3" d="M378.28,416H112.8a23.73,23.73,0,0,1-23.7-23.7V240.6a9.48,9.48,0,0,1,19,0V392.3A4.75,4.75,0,0,0,112.8,397H378.28a9.48,9.48,0,0,1,0,19Z"/><path class="cls-3" d="M463.61,416H416.21a9.48,9.48,0,0,1,0-19h47.41a4.74,4.74,0,0,0,4.74-4.74V344.9a9.48,9.48,0,0,1,19,0V392.3A23.73,23.73,0,0,1,463.61,416Z"/><path class="cls-3" d="M376.12,520.33a28.52,28.52,0,0,1-13.93-3.64l-40.86-22.8a28.45,28.45,0,0,1-56.75,0l-40.87,22.8a28.53,28.53,0,0,1-38.23-9.94,27.34,27.34,0,0,1,9.48-37.51c.26-.16.58-.34.91-.51L264.5,430.4V406.52A9.49,9.49,0,0,1,274,397h37.93a9.48,9.48,0,0,1,9.48,9.48V430.4l68.76,38.39A27.27,27.27,0,0,1,401,505.7c-.19.36-.38.69-.57,1l0,.05A28.54,28.54,0,0,1,376.12,520.33ZM283.47,416v20a9.47,9.47,0,0,1-4.86,8.28L205,485.34a8.4,8.4,0,0,0-3.29,11.59,9.57,9.57,0,0,0,12.77,3.19l54.9-30.62a9.48,9.48,0,0,1,14.1,8.28v14.08a9.48,9.48,0,1,0,19,0V477.78a9.48,9.48,0,0,1,14.1-8.28l54.9,30.63a9.59,9.59,0,0,0,12.84-3.3l.11-.2A8.31,8.31,0,0,0,381,485.4l-73.72-41.16a9.49,9.49,0,0,1-4.86-8.28V416h-19Z"/><path class="cls-3" d="M174.43,368.59A28.44,28.44,0,0,1,154.31,320l85.33-85.33a28.53,28.53,0,0,1,40.23,0l32,32,22.55-22.54a9.48,9.48,0,0,1,13.41,13.41l-29.25,29.25a9.48,9.48,0,0,1-13.41,0l-38.73-38.73a9.54,9.54,0,0,0-13.43,0l-85.32,85.32a9.49,9.49,0,0,0,13.43,13.43L253.06,275a9.48,9.48,0,0,1,13.41,0l38.73,38.73a9.54,9.54,0,0,0,13.43,0l90.07-90.07a9.49,9.49,0,0,0-13.43-13.43l-19,19a9.48,9.48,0,0,1-13.41-13.41l19-19A28.46,28.46,0,1,1,422.1,237L332,327.09a28.54,28.54,0,0,1-40.23,0l-32-32-65.21,65.21A28.37,28.37,0,0,1,174.43,368.59Z"/></svg>