<?xml version="1.0" encoding="utf-8"?>
<!-- Generator: Adobe Illustrator 22.0.1, SVG Export Plug-In . SVG Version: 6.00 Build 0)  -->
<svg version="1.1" id="Layer_1" xmlns="http://www.w3.org/2000/svg" xmlns:xlink="http://www.w3.org/1999/xlink" x="0px" y="0px"
	 viewBox="0 0 566.9 566.9" style="enable-background:new 0 0 566.9 566.9;" xml:space="preserve">
<style type="text/css">
	.st0{fill:#FFFFFF;}
	.st1{fill:#6C64B3;}
	.st2{fill:#392A6F;}
</style>
<title>erxes</title>
<path class="st0" d="M321.9,150c-84.3-31.8-178.4,10.8-210.2,95.1s10.8,178.4,95.1,210.2c84.3,31.8,178.4-10.8,210.2-95.1
	c14-37.1,14-78,0-115.1l-152.7,57.6L321.9,150z"/>
<path class="st1" d="M370.8,101.1l-57.6,152.7l152.7-57.6C449.3,152.3,414.6,117.7,370.8,101.1z"/>
<path class="st2" d="M108.7,359.6c-3.3,0-6.2-2.2-7.2-5.3c-15.8-49.7-8-103.9,21.2-147.1c2.3-3.5,7.1-4.4,10.5-2.1
	c3.5,2.3,4.4,7.1,2.1,10.5c-26.7,39.4-33.8,88.8-19.4,134.1c1.3,4-1,8.3-5,9.5C110.3,359.4,109.5,359.6,108.7,359.6z"/>
<path class="st2" d="M264.3,310.2c-4.2,0-7.6-3.4-7.6-7.6c0-0.9,0.2-1.8,0.5-2.7l37.5-99.4c1.5-3.9,5.9-5.9,9.8-4.4
	c3.9,1.5,5.8,5.8,4.4,9.7l-31.6,83.7l137-51.7c3.9-1.5,8.3,0.5,9.8,4.4c0,0,0,0,0,0c5.8,15.5,9.4,31.7,10.5,48.1
	c0.3,4.2-2.9,7.8-7,8.1c-4.2,0.3-7.8-2.9-8.1-7c-0.9-12.5-3.2-24.8-7.1-36.7L267,309.7C266.1,310.1,265.2,310.2,264.3,310.2z"/>
<path class="st2" d="M312.5,182.6c-4.2,0-7.6-3.4-7.6-7.6c0-0.9,0.2-1.8,0.5-2.7l6.7-17.8c-48.8-15.9-102.2-6.6-142.7,24.9
	c-3.2,2.7-8,2.3-10.7-0.9c-2.7-3.2-2.3-8,0.9-10.7c0.2-0.1,0.3-0.3,0.5-0.4c46.8-36.3,109.2-45.6,164.5-24.5
	c3.9,1.5,5.9,5.8,4.4,9.8l-9.4,25.1C318.5,180.7,315.6,182.6,312.5,182.6z"/>
<path class="st2" d="M264.7,473.4c-9.4,0-18.8-0.7-28-2.2c-50.8-8.2-95.2-39.1-120.6-83.8c-2.1-3.6-0.8-8.3,2.8-10.4
	s8.3-0.8,10.4,2.8c42.7,74.6,137.7,100.5,212.3,57.9c40.7-23.3,68.8-63.7,76.3-110c0.7-4.1,4.6-6.9,8.7-6.3c4.1,0.7,6.9,4.6,6.3,8.7
	l0,0C419.3,412.6,348.2,473.2,264.7,473.4z"/>
<path class="st2" d="M313.2,261.4c-4.2,0-7.6-3.4-7.6-7.6c0-0.9,0.2-1.8,0.5-2.7l57.6-152.7c1.5-3.9,5.9-5.9,9.8-4.4c0,0,0,0,0.1,0
	c45.8,17.4,82,53.6,99.4,99.5c1.5,3.9-0.5,8.3-4.4,9.8c0,0,0,0,0,0l-38.7,14.6c-3.9,1.5-8.3-0.5-9.8-4.4c-1.5-3.9,0.5-8.3,4.4-9.8
	l31.5-11.9c-15.8-36.2-44.6-65-80.8-80.8l-49,129.7l65.1-24.6c3.9-1.5,8.3,0.5,9.8,4.4c1.5,3.9-0.5,8.3-4.4,9.8l-80.8,30.5
	C315,261.1,314.1,261.3,313.2,261.4z"/>
<path class="st2" d="M282.8,359.3c-3.2,0-6-2-7.1-4.9l-18.5-49.1c-1.5-3.9,0.6-8.3,4.5-9.7c3.9-1.4,8.2,0.5,9.7,4.4l18.5,49.1
	c1.5,3.9-0.5,8.3-4.5,9.8C284.6,359.2,283.7,359.3,282.8,359.3L282.8,359.3z"/>
<path class="st2" d="M321.9,462.9c-3.2,0-6-2-7.1-4.9L290,392.4c-1.5-3.9,0.4-8.3,4.4-9.8c3.9-1.5,8.3,0.4,9.8,4.4c0,0,0,0.1,0,0.1
	l24.8,65.6c1.5,3.9-0.5,8.3-4.4,9.8C323.8,462.8,322.9,462.9,321.9,462.9L321.9,462.9z"/>
</svg>
