<?xml version="1.0" encoding="utf-8"?>
<!-- Generator: Adobe Illustrator 23.0.3, SVG Export Plug-In . SVG Version: 6.00 Build 0)  -->
<svg version="1.1" id="Layer_1" xmlns="http://www.w3.org/2000/svg" xmlns:xlink="http://www.w3.org/1999/xlink" x="0px" y="0px"
	 viewBox="0 0 566.9 566.9" style="enable-background:new 0 0 566.9 566.9;" xml:space="preserve">
<style type="text/css">
	.st0{fill:#63D2D6;}
	.st1{fill:#5629B6;}
</style>
<g>
	<path class="st0" d="M169.2,89h229c11.9,0,21.5,9.6,21.5,21.5l0,0c0,11.9-9.6,21.5-21.5,21.5h-229c-11.9,0-21.5-9.6-21.5-21.5l0,0
		C147.8,98.6,157.4,89,169.2,89z"/>
	<path class="st0" d="M169.2,432.5h229c11.9,0,21.5,9.6,21.5,21.5l0,0c0,11.9-9.6,21.5-21.5,21.5h-229c-11.9,0-21.5-9.6-21.5-21.5
		l0,0C147.8,442.1,157.4,432.5,169.2,432.5z"/>
</g>
<g>
	<path class="st1" d="M208.6,139.1h-39.4c-15.8,0-28.6-12.8-28.6-28.6c0-15.8,12.9-28.6,28.6-28.6h161c4,0,7.2,3.2,7.2,7.2
		c0,4-3.2,7.2-7.2,7.2h-161c-7.9,0-14.3,6.4-14.3,14.3c0,7.9,6.4,14.3,14.3,14.3h39.4c4,0,7.2,3.2,7.2,7.2S212.5,139.1,208.6,139.1z
		"/>
	<path class="st1" d="M398.2,139.1H244.4c-4,0-7.2-3.2-7.2-7.2c0-4,3.2-7.2,7.2-7.2h153.9c7.9,0,14.3-6.4,14.3-14.3
		c0-7.9-6.4-14.3-14.3-14.3H366c-4,0-7.2-3.2-7.2-7.2s3.2-7.2,7.2-7.2h32.2c15.8,0,28.6,12.8,28.6,28.6
		C426.8,126.2,414,139.1,398.2,139.1z"/>
	<path class="st1" d="M398.2,482.6H230.1c-4,0-7.2-3.2-7.2-7.2s3.2-7.2,7.2-7.2h168.2c7.9,0,14.3-6.4,14.3-14.3
		c0-7.9-6.4-14.3-14.3-14.3H341c-4,0-7.2-3.2-7.2-7.2s3.2-7.2,7.2-7.2h57.3c15.8,0,28.6,12.8,28.6,28.6
		C426.8,469.8,414,482.6,398.2,482.6z"/>
	<path class="st1" d="M194.3,482.6h-25c-15.8,0-28.6-12.8-28.6-28.6c0-15.8,12.9-28.6,28.6-28.6h136c4,0,7.2,3.2,7.2,7.2
		s-3.2,7.2-7.2,7.2h-136c-7.9,0-14.3,6.4-14.3,14.3c0,7.9,6.4,14.3,14.3,14.3h25c4,0,7.2,3.2,7.2,7.2
		C201.4,479.4,198.2,482.6,194.3,482.6z"/>
	<path class="st1" d="M287.3,289.1c-29.3,0-58.5-11.1-80.8-33.3c-3.8-3.8-7.3-7.9-10.6-12.2c-14.9-19.7-23.1-44.1-23.1-68.7V132
		c0-4,3.2-7.2,7.2-7.2h28.6c4,0,7.2,3.2,7.2,7.2c0,4-3.2,7.2-7.2,7.2h-21.5v35.8c0,21.6,7.2,42.9,20.2,60.1c2.8,3.8,6,7.3,9.3,10.7
		c39.2,39,102.8,38.9,141.8-0.3c11.2-11.3,19.7-25.3,24.5-40.4c1.2-3.8,5.2-5.9,9-4.7c3.8,1.2,5.9,5.2,4.7,9
		c-5.5,17.3-15.2,33.3-28,46.2C346.1,277.9,316.7,289.1,287.3,289.1z"/>
	<path class="st1" d="M394.7,178.5c-4,0-7.2-3.2-7.2-7.2v-32.2H244.4c-4,0-7.2-3.2-7.2-7.2c0-4,3.2-7.2,7.2-7.2h150.3
		c4,0,7.2,3.2,7.2,7.2v39.4C401.8,175.3,398.6,178.5,394.7,178.5z"/>
	<path class="st1" d="M394.7,439.7H341c-4,0-7.2-3.2-7.2-7.2s3.2-7.2,7.2-7.2h46.5v-35.8c0-55.2-44.9-100.2-100.2-100.2
		s-100.2,44.9-100.2,100.2v35.8h118.1c4,0,7.2,3.2,7.2,7.2s-3.2,7.2-7.2,7.2H180c-4,0-7.2-3.2-7.2-7.2v-42.9
		c0-63.1,51.4-114.5,114.5-114.5s114.5,51.4,114.5,114.5v42.9C401.8,436.5,398.6,439.7,394.7,439.7z"/>
	<path class="st1" d="M366,439.7h-25c-4,0-7.2-3.2-7.2-7.2s3.2-7.2,7.2-7.2h17.9v-7.2c0-39.6-56.9-76-71.6-84.8
		c-8.2,4.8-16.1,10.2-23.6,15.9c-3.1,2.4-7.6,1.8-10-1.3c-2.4-3.1-1.8-7.6,1.3-10c9.1-7,18.8-13.4,28.8-19.1c2.2-1.2,4.8-1.3,7-0.1
		c3.4,1.8,82.4,45.6,82.4,99.3v14.3C373.2,436.5,370,439.7,366,439.7z"/>
	<path class="st1" d="M305.2,439.7h-96.6c-4,0-7.2-3.2-7.2-7.2v-14.3c0-19.3,10-39.3,29.8-59.5c2.8-2.8,7.3-2.9,10.1-0.1
		c2.8,2.8,2.9,7.3,0.1,10.1c-17.1,17.5-25.8,34.1-25.8,49.5v7.2h89.5c4,0,7.2,3.2,7.2,7.2S309.2,439.7,305.2,439.7z"/>
	<path class="st1" d="M373,246.5H201.6c-4,0-7.2-3.2-7.2-7.2c0-4,3.2-7.2,7.2-7.2H373c4,0,7.2,3.2,7.2,7.2S377,246.5,373,246.5z"/>
</g>
</svg>
