<svg id="Layer_1" data-name="Layer 1" xmlns="http://www.w3.org/2000/svg" viewBox="0 0 566.93 566.93"><defs><style>.cls-1{fill:#6c64b3;}.cls-2{fill:#fff;}.cls-3{fill:#392a6f;}</style></defs><title>erxes</title><path class="cls-1" d="M133.74,391.33H433.18a13.61,13.61,0,0,1,13.61,13.61v13.61a13.61,13.61,0,0,1-13.61,13.61H133.74a13.61,13.61,0,0,1-13.61-13.61V404.95a13.61,13.61,0,0,1,13.61-13.61Zm0,0"/><path class="cls-2" d="M256.24,105.5h54.44a6.8,6.8,0,0,1,6.81,6.81V350.5a6.8,6.8,0,0,1-6.81,6.81H256.24a6.8,6.8,0,0,1-6.81-6.81V112.31a6.8,6.8,0,0,1,6.81-6.81Zm0,0"/><path class="cls-2" d="M154.16,187.17H208.6a6.8,6.8,0,0,1,6.81,6.81V350.5a6.8,6.8,0,0,1-6.81,6.81H154.16a6.8,6.8,0,0,1-6.8-6.81V194a6.8,6.8,0,0,1,6.8-6.81Zm0,0"/><path class="cls-2" d="M358.33,146.33h54.44a6.8,6.8,0,0,1,6.81,6.81V350.5a6.8,6.8,0,0,1-6.81,6.81H358.33a6.8,6.8,0,0,1-6.81-6.81V153.14a6.8,6.8,0,0,1,6.81-6.81Zm0,0"/><path class="cls-3" d="M433.19,439H229a6.81,6.81,0,0,1,0-13.61H433.18a6.81,6.81,0,0,0,6.81-6.8V404.95a6.81,6.81,0,0,0-6.81-6.81H133.74a6.81,6.81,0,0,0-6.81,6.81v13.61a6.81,6.81,0,0,0,6.81,6.8H195A6.81,6.81,0,0,1,195,439H133.74a20.44,20.44,0,0,1-20.42-20.42V404.95a20.43,20.43,0,0,1,20.42-20.42H433.18a20.44,20.44,0,0,1,20.42,20.42v13.61A20.44,20.44,0,0,1,433.19,439Zm0,0"/><path class="cls-3" d="M249.44,221.2a6.81,6.81,0,0,1-6.81-6.8V173.56a6.81,6.81,0,0,1,13.61,0v40.83a6.81,6.81,0,0,1-6.81,6.8Zm0,0"/><path class="cls-3" d="M256.24,364.11a13.67,13.67,0,0,1-13.61-13.59V248.42a6.8,6.8,0,0,1,13.61,0V350.5h54.45V112.31H256.24v34a6.8,6.8,0,1,1-13.61,0v-34A13.67,13.67,0,0,1,256.22,98.7h54.46a13.67,13.67,0,0,1,13.61,13.59V350.5a13.67,13.67,0,0,1-13.59,13.61Zm0,0"/><path class="cls-3" d="M208.6,364.11H154.16a13.62,13.62,0,0,1-13.61-13.61V194a13.63,13.63,0,0,1,13.61-13.61H208.6A13.63,13.63,0,0,1,222.22,194V350.5a13.63,13.63,0,0,1-13.61,13.61ZM154.16,194h0V350.5H208.6V194Zm0,0"/><path class="cls-3" d="M358.33,364.11a13.67,13.67,0,0,1-13.61-13.59V153.14a13.51,13.51,0,0,1,4.06-9.67,6.81,6.81,0,0,1,9.57.06l66,66.05a6.8,6.8,0,0,1,2,4.81v61.25a6.81,6.81,0,0,1-13.61,0V217.21l-54.49-54.49,0,187.79h54.45V309.67a6.8,6.8,0,1,1,13.61,0V350.5a13.67,13.67,0,0,1-13.59,13.61Zm0,0"/><path class="cls-1" d="M412.77,146.33H358.33a6.77,6.77,0,0,0-4.81,2l66.06,66.06V153.14a6.8,6.8,0,0,0-6.81-6.81Zm0,0"/><path class="cls-3" d="M419.58,221.2a6.79,6.79,0,0,1-4.81-2l-66-66a6.81,6.81,0,0,1-.06-9.57,13.55,13.55,0,0,1,9.63-4.06h20.45a6.81,6.81,0,1,1,0,13.61H367.95L412.77,198V153.14H406a6.81,6.81,0,1,1,0-13.61h6.81a13.67,13.67,0,0,1,13.61,13.59v61.27a6.79,6.79,0,0,1-6.81,6.81Zm0,0"/><path class="cls-1" d="M310.69,105.5H256.24a6.77,6.77,0,0,0-4.81,2l66.06,66.06V112.31a6.8,6.8,0,0,0-6.81-6.81Zm0,0"/><path class="cls-3" d="M317.49,180.36a6.79,6.79,0,0,1-4.81-2l-66.06-66.06a6.8,6.8,0,0,1,0-9.62,13.68,13.68,0,0,1,9.62-4h54.45a13.62,13.62,0,0,1,13.61,13.61v61.25a6.79,6.79,0,0,1-6.81,6.81Zm-51.63-68.05,44.82,44.82V112.31Zm0,0"/><path class="cls-1" d="M208.6,187.17H154.16a6.77,6.77,0,0,0-4.81,2l66.06,66.06V194a6.8,6.8,0,0,0-6.81-6.81Zm0,0"/><path class="cls-3" d="M215.41,262a6.8,6.8,0,0,1-4.82-2l-17.39-17.39a6.8,6.8,0,0,1,9.62-9.62l5.78,5.77V194H163.78l18.64,18.64a6.81,6.81,0,1,1-9.62,9.62L144.55,194a6.81,6.81,0,0,1-.06-9.56,13.88,13.88,0,0,1,9.71-4.06h54.4A13.67,13.67,0,0,1,222.22,194v61.27a6.81,6.81,0,0,1-4.21,6.29,6.88,6.88,0,0,1-2.6.52Zm0,0"/></svg>