<svg id="Layer_1" data-name="Layer 1" xmlns="http://www.w3.org/2000/svg" viewBox="0 0 566.9 566.9"><defs><style>.cls-1{fill:#63d2d6;}.cls-2{fill:#5629b6;}</style></defs><title>erxes-22</title><polygon class="cls-1" points="290.23 195.23 226.46 195.23 290.23 131.46 354 195.23 290.23 195.23"/><path class="cls-2" d="M231,364.81H120.3a7.6,7.6,0,0,1,0-15.2H231c4.2,0,8,3.4,8,7.6S235.3,364.81,231,364.81Z"/><path class="cls-2" d="M454.85,364.81H344.15a7.6,7.6,0,1,1,0-15.2h110.7c4.2,0,8,3.4,8,7.6S459.15,364.81,454.85,364.81Z"/><path class="cls-2" d="M295.61,203V413.77a7.67,7.67,0,0,1-7.53,7.69,7.51,7.51,0,0,1-7.44-7.59V203"/><path class="cls-2" d="M440.5,474.1H135.64a23,23,0,0,1-22.94-22.94V390.25c0-4.18,3.12-8.15,7.3-8.25s7.9,4,7.9,8.25v60.91a7.64,7.64,0,0,0,7.64,7.64H440.36a7.64,7.64,0,0,0,7.64-7.64V390.55a7.84,7.84,0,0,1,7.41-7.95,7.6,7.6,0,0,1,7.79,7.6v61A22.6,22.6,0,0,1,440.5,474.1Z"/><path class="cls-2" d="M364.41,195.74a7.21,7.21,0,0,1-7.22,7.22h-130A7.22,7.22,0,0,1,222,190.63l16.26-16.25a7.22,7.22,0,0,1,10.21,10.21l-3.92,3.93h95.16l-47.58-47.58-22,22A7.22,7.22,0,0,1,260,152.71l27.09-27.09a7.21,7.21,0,0,1,10.22,0l65,65A7.21,7.21,0,0,1,364.41,195.74Z"/></svg>