<svg id="Layer_1" data-name="Layer 1" xmlns="http://www.w3.org/2000/svg" viewBox="0 0 566.93 566.93"><defs><style>.cls-1{fill:#fff;}.cls-2{fill:#6c64b3;}.cls-3{fill:#392a6f;}</style></defs><title>erxes</title><path class="cls-1" d="M144.49,140.84V192H107.92A21.94,21.94,0,0,0,86,214V382.21a43.89,43.89,0,0,0,43.89,43.88H459a21.94,21.94,0,0,0,21.94-21.94V140.84A21.94,21.94,0,0,0,459,118.89H166.43a21.94,21.94,0,0,0-21.94,21.95Zm0,0"/><rect class="cls-2" x="188.38" y="162.78" width="87.77" height="109.72"/><path class="cls-3" d="M480.95,342a7.31,7.31,0,0,1-7.31-7.31V140.84A14.73,14.73,0,0,0,459,126.21H342a7.31,7.31,0,0,1,0-14.63H459a29.39,29.39,0,0,1,29.26,29.23V334.66a7.32,7.32,0,0,1-7.32,7.31Zm0,0"/><path class="cls-3" d="M166.43,433.41H129.86a51.45,51.45,0,0,1-51.2-51.18V261.52a7.31,7.31,0,0,1,14.63,0V382.21a36.78,36.78,0,0,0,36.59,36.57h36.55a7.31,7.31,0,0,1,0,14.63Zm0,0"/><path class="cls-3" d="M203,433.41a7.31,7.31,0,1,1,0-14.63H459a14.73,14.73,0,0,0,14.63-14.65V371.23a7.31,7.31,0,0,1,14.63,0v32.91A29.39,29.39,0,0,1,459,433.41Zm0,0"/><path class="cls-3" d="M86,232.26a7.32,7.32,0,0,1-7.31-7.31V214a29.4,29.4,0,0,1,29.23-29.26h29.28V140.84a29.39,29.39,0,0,1,29.23-29.26h139a7.31,7.31,0,1,1,0,14.63h-139a14.72,14.72,0,0,0-14.62,14.65V192a7.32,7.32,0,0,1-7.32,7.31H107.92A14.73,14.73,0,0,0,93.29,214v10.95A7.32,7.32,0,0,1,86,232.26Zm0,0"/><path class="cls-3" d="M144.49,389.52a7.32,7.32,0,0,1-7.31-7.31V309.06a7.31,7.31,0,0,1,14.63,0v73.15a7.32,7.32,0,0,1-7.32,7.31Zm0,0"/><path class="cls-3" d="M144.49,279.8a7.32,7.32,0,0,1-7.31-7.31V188.38a7.31,7.31,0,1,1,14.63,0v84.11a7.32,7.32,0,0,1-7.32,7.31Zm0,0"/><path class="cls-3" d="M276.15,279.8H188.38a7.32,7.32,0,0,1-7.32-7.31v-25.6a7.31,7.31,0,0,1,14.63,0v18.29h73.15V170.09H195.69v40.23a7.31,7.31,0,0,1-14.63,0V162.78a7.32,7.32,0,0,1,7.32-7.32h87.77a7.32,7.32,0,0,1,7.32,7.32V272.49a7.32,7.32,0,0,1-7.32,7.31Zm0,0"/><path class="cls-3" d="M437.06,170.09H320a7.31,7.31,0,0,1,0-14.63h117a7.31,7.31,0,1,1,0,14.63Zm0,0"/><path class="cls-3" d="M437.06,206.66H393.18a7.31,7.31,0,1,1,0-14.63h43.88a7.31,7.31,0,1,1,0,14.63Zm0,0"/><path class="cls-3" d="M356.6,206.66H320A7.31,7.31,0,0,1,320,192H356.6a7.31,7.31,0,1,1,0,14.63Zm0,0"/><path class="cls-3" d="M437.06,243.23H320a7.31,7.31,0,0,1,0-14.63h117a7.31,7.31,0,1,1,0,14.63Zm0,0"/><path class="cls-3" d="M437.06,279.8H415.12a7.31,7.31,0,1,1,0-14.63h21.94a7.31,7.31,0,1,1,0,14.63Zm0,0"/><path class="cls-3" d="M378.55,279.8H320a7.31,7.31,0,0,1,0-14.63h58.52a7.31,7.31,0,0,1,0,14.63Zm0,0"/><path class="cls-3" d="M437.06,316.38H276.15a7.31,7.31,0,0,1,0-14.63H437.06a7.31,7.31,0,1,1,0,14.63Zm0,0"/><path class="cls-3" d="M239.58,316.38h-51.2a7.31,7.31,0,1,1,0-14.63h51.2a7.31,7.31,0,1,1,0,14.63Zm0,0"/><path class="cls-3" d="M437.06,352.95H188.38a7.31,7.31,0,1,1,0-14.63H437.06a7.31,7.31,0,1,1,0,14.63Zm0,0"/><path class="cls-3" d="M437.06,389.52H389.52a7.31,7.31,0,0,1,0-14.63h47.54a7.31,7.31,0,1,1,0,14.63Zm0,0"/><path class="cls-3" d="M279.81,389.52H188.38a7.31,7.31,0,1,1,0-14.63h91.43a7.31,7.31,0,0,1,0,14.63Zm0,0"/><path class="cls-3" d="M352.95,389.52H316.38a7.31,7.31,0,1,1,0-14.63h36.57a7.31,7.31,0,1,1,0,14.63Zm0,0"/></svg>