<?xml version="1.0" encoding="utf-8"?>
<!-- Generator: Adobe Illustrator 22.1.0, SVG Export Plug-In . SVG Version: 6.00 Build 0)  -->
<svg version="1.1" id="Capa_1" xmlns="http://www.w3.org/2000/svg" xmlns:xlink="http://www.w3.org/1999/xlink" x="0px" y="0px"
	 viewBox="0 0 512 512" style="enable-background:new 0 0 512 512;" xml:space="preserve">
<style type="text/css">
	.st0{fill:#7076DA;}
</style>
<g>
	<g>
		<path class="st0" d="M191.1,162.9L68.3,40H147c11,0,20-9,20-20s-9-20-20-20H60C26.9,0,0,26.9,0,60v87c0,11,9,20,20,20s20-9,20-20
			V68.3l122.9,122.9c3.9,3.9,9,5.9,14.1,5.9s10.2-2,14.1-5.9C199,183.3,199,170.7,191.1,162.9z"/>
	</g>
</g>
<g>
	<g>
		<path class="st0" d="M191.1,320.9c-7.8-7.8-20.5-7.8-28.3,0L40,443.7V365c0-11-9-20-20-20s-20,9-20,20v87c0,33.1,26.9,60,60,60h87
			c11,0,20-9,20-20s-9-20-20-20H68.3l122.9-122.9C199,341.3,199,328.7,191.1,320.9z"/>
	</g>
</g>
<g>
	<g>
		<path class="st0" d="M492,345c-11,0-20,9-20,20v78.7L349.1,320.9c-7.8-7.8-20.5-7.8-28.3,0s-7.8,20.5,0,28.3L443.7,472H365
			c-11,0-20,9-20,20s9,20,20,20h87c33.1,0,60-26.9,60-60v-87C512,354,503,345,492,345z"/>
	</g>
</g>
<g>
	<g>
		<path class="st0" d="M452,0h-87c-11,0-20,9-20,20s9,20,20,20h78.7L320.9,162.9c-7.8,7.8-7.8,20.5,0,28.3c3.9,3.9,9,5.9,14.1,5.9
			s10.2-2,14.1-5.9L472,68.3V147c0,11,9,20,20,20s20-9,20-20V60C512,26.9,485.1,0,452,0z"/>
	</g>
</g>
</svg>
