<svg xmlns="http://www.w3.org/2000/svg" aria-labelledby="simpleicons-facebook-icon" role="img" width="24" height="24"><rect id="backgroundrect" width="100%" height="100%" x="0" y="0" fill="none" stroke="none"/><title id="simpleicons-facebook-icon">Facebook icon</title><g class="currentLayer" style=""><title>Layer 1</title><path d="M22.676 0H1.324C.593 0 0 .593 0 1.324v21.352C0 23.408.593 24 1.324 24h11.494v-9.294H9.689v-3.621h3.129V8.41c0-3.099 1.894-4.785 4.659-4.785 1.325 0 2.464.097 2.796.141v3.24h-1.921c-1.5 0-1.792.721-1.792 1.771v2.311h3.584l-.465 3.63H16.56V24h6.115c.733 0 1.325-.592 1.325-1.324V1.324C24 .593 23.408 0 22.676 0" id="svg_1" class="selected" fill="#3a5999" fill-opacity="1"/></g></svg>