<svg xmlns="http://www.w3.org/2000/svg" aria-labelledby="simpleicons-gmail-icon" role="img" width="24" height="24"><rect id="backgroundrect" width="100%" height="100%" x="0" y="0" fill="none" stroke="none"/><title id="simpleicons-gmail-icon">Gmail icon</title><g class="currentLayer" style=""><title>Layer 1</title><path d="M24 4.5v15c0 .85-.65 1.5-1.5 1.5H21V7.387l-9 6.463-9-6.463V21H1.5C.649 21 0 20.35 0 19.5v-15c0-.425.162-.8.431-1.068C.7 3.16 1.076 3 1.5 3H2l10 7.25L22 3h.5c.425 0 .8.162 1.069.432.27.268.431.643.431 1.068z" id="svg_1" class="selected" fill="#f7412d" fill-opacity="1"/></g></svg>