<?xml version="1.0" encoding="utf-8"?>
<!-- Generator: Adobe Illustrator 22.1.0, SVG Export Plug-In . SVG Version: 6.00 Build 0)  -->
<svg version="1.1" id="Capa_1" xmlns="http://www.w3.org/2000/svg" xmlns:xlink="http://www.w3.org/1999/xlink" x="0px" y="0px"
	 viewBox="0 0 512 512" style="enable-background:new 0 0 512 512;" xml:space="preserve">
<style type="text/css">
	.st0{fill:#6F75DB;}
</style>
<g>
	<g>
		<path class="st0" d="M494.5,115.6C483.1,104.2,468.1,98,452,98H60c-16,0-31.1,6.2-42.4,17.6c-23.4,23.4-23.4,61.5,0,84.9l196,196
			c11.7,11.7,27.1,17.5,42.4,17.5c15.4,0,30.8-5.9,42.5-17.6l128.7-129.3c7.8-7.8,7.8-20.5-0.1-28.3c-7.8-7.8-20.5-7.8-28.3,0.1
			L270.1,368.2c-7.8,7.8-20.5,7.8-28.3,0l-196-196c-7.8-7.8-7.8-20.5,0-28.3c3.8-3.8,8.8-5.9,14.1-5.9h392c5.3,0,10.4,2.1,14.1,5.9
			c7.8,7.8,7.8,20.5,0,28.3c-7.8,7.8-7.8,20.5,0,28.3s20.5,7.8,28.3,0C517.8,177,517.8,139,494.5,115.6z"/>
	</g>
</g>
</svg>
