<?xml version="1.0" encoding="utf-8"?>
<!-- Generator: Adobe Illustrator 22.1.0, SVG Export Plug-In . SVG Version: 6.00 Build 0)  -->
<svg version="1.1" id="Layer_1" xmlns="http://www.w3.org/2000/svg" xmlns:xlink="http://www.w3.org/1999/xlink" x="0px" y="0px"
	 viewBox="0 0 490 490" style="enable-background:new 0 0 490 490;" xml:space="preserve">
<style type="text/css">
	.st0{fill:#6F75DB;}
</style>
<g>
	<g>
		<path class="st0" d="M257.6,227H61.5l75.8-75.8c7-7,7-18.4,0-25.5c-7-7-18.4-7-25.5,0L5.2,232.3c-7,7-7,18.4,0,25.5l106.5,106.5
			c3.5,3.5,8.1,5.3,12.7,5.3c4.6,0,9.2-1.8,12.7-5.3c7-7,7-18.4,0-25.5L61.4,263h196.2c9.9,0,18-8.1,18-18
			C275.6,235.1,267.5,227,257.6,227z"/>
	</g>
</g>
<g>
	<g>
		<path class="st0" d="M370.5,227h-41.2c-9.9,0-18,8.1-18,18s8.1,18,18,18h41.2c10,0,18-8.1,18-18S380.4,227,370.5,227z"/>
	</g>
</g>
<g>
	<g>
		<path class="st0" d="M472,33.8H352.9c-9.9,0-18,8.1-18,18s8.1,18,18,18H454v350.3H352.9c-9.9,0-18,8.1-18,18s8.1,18,18,18H472
			c9.9,0,18-8.1,18-18V51.8C490,41.9,481.9,33.8,472,33.8z"/>
	</g>
</g>
</svg>
