<?xml version="1.0" encoding="utf-8"?>
<!-- Generator: Adobe Illustrator 22.1.0, SVG Export Plug-In . SVG Version: 6.00 Build 0)  -->
<svg version="1.1" id="Layer_1" xmlns="http://www.w3.org/2000/svg" xmlns:xlink="http://www.w3.org/1999/xlink" x="0px" y="0px"
	 viewBox="0 0 488 488" style="enable-background:new 0 0 488 488;" xml:space="preserve">
<style type="text/css">
	.st0{fill:#6F75DB;}
</style>
<g>
	<g>
		<path class="st0" d="M59,226.1H18c-9.9,0-18,8.1-18,18s8.1,18,18,18h41c9.9,0,18-8.1,18-18S69,226.1,59,226.1z"/>
	</g>
</g>
<g>
	<g>
		<path class="st0" d="M381.7,231.4l-106-106c-7-7-18.4-7-25.5,0s-7,18.4,0,25.5l75.3,75.3H130.4c-9.9,0-18,8.1-18,18s8.1,18,18,18
			h195.1l-75.3,75.3c-7,7-7,18.4,0,25.5c3.5,3.5,8.1,5.3,12.7,5.3s9.2-1.8,12.7-5.3l106-106C388.7,249.8,388.7,238.4,381.7,231.4z"
			/>
	</g>
</g>
<g>
	<g>
		<path class="st0" d="M470,33.8H351.4c-9.9,0-18,8.1-18,18s8.1,18,18,18H452v348.5H351.4c-9.9,0-18,8.1-18,18s8.1,18,18,18H470
			c9.9,0,18-8.1,18-18V51.8C488,41.8,479.9,33.8,470,33.8z"/>
	</g>
</g>
</svg>
