<svg id="Layer_1" data-name="Layer 1" xmlns="http://www.w3.org/2000/svg" viewBox="0 0 20 20"><defs><style>.cls-1{fill:#fff;}</style></defs><title>nav-06</title><path class="cls-1" d="M10,5.9A4.1,4.1,0,1,0,14.1,10,4.11,4.11,0,0,0,10,5.9Zm0,7A2.93,2.93,0,1,1,12.93,10,2.93,2.93,0,0,1,10,12.93Z"/><path class="cls-1" d="M19.55,8.26,17.26,7.7a7.56,7.56,0,0,0-.53-1.26L17.8,4.66a.59.59,0,0,0-.09-.72L16.06,2.28a.59.59,0,0,0-.72-.09L13.56,3.26a7.58,7.58,0,0,0-1.25-.52L11.74.45A.59.59,0,0,0,11.17,0H8.83a.59.59,0,0,0-.57.45L7.69,2.74a7.57,7.57,0,0,0-1.33.57l-1-.58-.88-.53a.59.59,0,0,0-.72.09L2.14,3.94a.59.59,0,0,0-.09.72L3.2,6.56a7.58,7.58,0,0,0-.46,1.13L.45,8.26A.59.59,0,0,0,0,8.83v2.34a.59.59,0,0,0,.45.57l2.29.56a7.52,7.52,0,0,0,.54,1.28l-1,1.71a.59.59,0,0,0,.09.72L4,17.66a.59.59,0,0,0,.72.09l1.71-1a7.58,7.58,0,0,0,1.27.53l.56,2.29a.59.59,0,0,0,.57.45h2.34a.59.59,0,0,0,.57-.45l.56-2.29a7.46,7.46,0,0,0,1.3-.55l1.74,1a.59.59,0,0,0,.72-.09L17.71,16a.59.59,0,0,0,.09-.72l-1.05-1.76a7.53,7.53,0,0,0,.51-1.23l2.29-.56a.59.59,0,0,0,.45-.57V8.83A.59.59,0,0,0,19.55,8.26Zm-.73,2.45-2.14.53h0a.59.59,0,0,0-.42.42,6.37,6.37,0,0,1-.66,1.58.59.59,0,0,0,0,.6l1,1.65-1,1-1.64-1a.59.59,0,0,0-.61,0,6.28,6.28,0,0,1-1.64.7.59.59,0,0,0-.41.41l-.06.25-.48,1.94H9.29l-.42-1.72-.11-.46a.59.59,0,0,0-.42-.42,6.41,6.41,0,0,1-1.62-.68.59.59,0,0,0-.6,0l-1.61,1-1-1,1-1.61a.59.59,0,0,0,0-.6,6.34,6.34,0,0,1-.68-1.63.59.59,0,0,0-.42-.42l-2.18-.54V9.29l2.18-.54a.59.59,0,0,0,.42-.42,6.4,6.4,0,0,1,.61-1.5.59.59,0,0,0,0-.59L3.3,4.45l1-1,.49.29,1.27.76a.59.59,0,0,0,.6,0,6.41,6.41,0,0,1,1.67-.71.59.59,0,0,0,.42-.42l.54-2.18h1.43l.54,2.18a.59.59,0,0,0,.42.42,6.41,6.41,0,0,1,1.6.67.59.59,0,0,0,.6,0l1.68-1,1,1-1,1.68a.59.59,0,0,0,0,.6,6.39,6.39,0,0,1,.68,1.61.59.59,0,0,0,.41.41l.25.07,1.94.48Z"/></svg>