<svg id="Capa_1" data-name="Capa 1" xmlns="http://www.w3.org/2000/svg" viewBox="0 0 20 16.25"><defs><style>.cls-1{fill:#fff;}</style></defs><title>nav-01</title><path class="cls-1" d="M20,10a.6.6,0,0,0,0-.12.62.62,0,0,0,0-.12v0l-4.38-7.5A.62.62,0,0,0,15,1.88H5a.62.62,0,0,0-.54.31L.09,9.69v0a.62.62,0,0,0,0,.12A.6.6,0,0,0,0,10s0,0,0,0v6.88a1.25,1.25,0,0,0,1.25,1.25h17.5A1.25,1.25,0,0,0,20,16.88V10S20,10,20,10ZM5.36,3.13h9.28l3.64,6.25H15.63a.63.63,0,0,0-.56.35L14,11.88H6L4.93,9.72a.63.63,0,0,0-.56-.35H1.71ZM18.75,17.5v-.62H1.25V10.63H4l1.08,2.15a.63.63,0,0,0,.56.35h8.75a.63.63,0,0,0,.56-.35L16,10.63h2.74v6.25h0Z" transform="translate(0 -1.88)"/><path class="cls-1" d="M13.13,4.38H6.88a.63.63,0,0,0,0,1.25h6.25a.63.63,0,0,0,0-1.25Z" transform="translate(0 -1.88)"/><path class="cls-1" d="M14.38,6.88H5.63a.63.63,0,0,0,0,1.25h8.75a.63.63,0,0,0,0-1.25Z" transform="translate(0 -1.88)"/></svg>