<svg id="Layer_1" data-name="Layer 1" xmlns="http://www.w3.org/2000/svg" viewBox="0 0 20 16.41"><defs><style>.cls-1{fill:#fff;}</style></defs><title>nav-04</title><path class="cls-1" d="M18.24,6.49h-.58c0-1,0-2,0-2.94a1.76,1.76,0,0,0-3-1.23,11.32,11.32,0,0,1-8.34,3H4.1A1.76,1.76,0,0,0,2.44,6.49H1.76A1.76,1.76,0,0,0,0,8.24V9.42a1.76,1.76,0,0,0,1.76,1.76h.69a1.77,1.77,0,0,0,1.07,1.07v4.2a1.76,1.76,0,0,0,3.52,0v-4.1a11,11,0,0,1,7.62,3,1.75,1.75,0,0,0,3-1.23q0-1.49,0-3h.59A1.76,1.76,0,0,0,20,9.42V8.24A1.76,1.76,0,0,0,18.24,6.49ZM2.34,10H1.76a.59.59,0,0,1-.59-.59V8.24a.59.59,0,0,1,.59-.59h.59Zm3.52,6.45a.59.59,0,0,1-1.17,0v-4.1H5.86ZM7,11.17H4.1a.59.59,0,0,1-.59-.59V7.07a.59.59,0,0,1,.59-.59H7Zm9.45,3a.58.58,0,0,1-1,.38A12.11,12.11,0,0,0,8.2,11.23V6.43a12,12,0,0,0,7.27-3.28.58.58,0,0,1,1,.39C16.49,7.07,16.49,10.53,16.48,14.13Zm2.34-4.71a.59.59,0,0,1-.59.59h-.59q0-1.19,0-2.34h.59a.59.59,0,0,1,.59.59Z" transform="translate(0 -1.8)"/></svg>