<svg id="Layer_1" data-name="Layer 1" xmlns="http://www.w3.org/2000/svg" viewBox="0 0 566.93 566.93"><defs><style>.cls-1{fill:#fff;}.cls-2{fill:#6c64b3;}.cls-3{fill:#392a6f;}</style></defs><title>Erxes new icons (1)</title><path class="cls-1" d="M302.44,115.53v250H114.93a50,50,0,0,1-50-50v-150a50,50,0,0,1,50-50Z"/><path class="cls-2" d="M64.93,179.28V301.79a62.5,62.5,0,0,1,0-122.51Z"/><path class="cls-1" d="M500.75,450.22,302.44,365.3V115.77L500.75,30.85a37.5,37.5,0,0,1,51.7,34.64V415.58a37.5,37.5,0,0,1-51.7,34.64Z"/><path class="cls-2" d="M223.43,365.54H139.93s-.69,108,32.25,180.68a11.69,11.69,0,0,0,10.68,6.83h57.7a12,12,0,0,0,11-16.47C222.79,464.34,223.43,365.54,223.43,365.54Z"/><path class="cls-3" d="M302.44,378H114.93a62.57,62.57,0,0,1-62.5-62.5v-25a12.5,12.5,0,0,1,25,0v25a37.54,37.54,0,0,0,37.5,37.5h175V128H271.19a12.5,12.5,0,1,1,0-25h31.25a12.5,12.5,0,0,1,12.5,12.5v250A12.5,12.5,0,0,1,302.44,378Z"/><path class="cls-3" d="M64.93,240.53A12.5,12.5,0,0,1,52.43,228v-62.5a62.57,62.57,0,0,1,62.5-62.5h93.76a12.5,12.5,0,1,1,0,25H114.93a37.54,37.54,0,0,0-37.5,37.5V228A12.51,12.51,0,0,1,64.93,240.53Z"/><path class="cls-3" d="M64.94,314.29a12.47,12.47,0,0,1-2.49-.25,74.58,74.58,0,0,1-29.2-12.93c-.28-.18-.56-.37-.82-.56A75,75,0,0,1,62.44,167a12.5,12.5,0,1,1,5,24.49A50,50,0,0,0,46.79,280a9.17,9.17,0,0,1,.76.53,49.36,49.36,0,0,0,19.87,9,12.5,12.5,0,0,1-2.47,24.75Z"/><path class="cls-3" d="M333.69,391.17a12.54,12.54,0,0,1-4.91-1l-31.25-13.38a12.5,12.5,0,0,1-7.58-11.49V115.77a12.5,12.5,0,0,1,7.57-11.49L495.85,19.34A50,50,0,0,1,565,65.43V90.53a12.5,12.5,0,0,1-25,0V65.46A25,25,0,0,0,505.5,42.41L314.94,124V357l23.67,10.13a12.5,12.5,0,0,1-4.93,24Z"/><path class="cls-3" d="M515,465.52h-.12A49.75,49.75,0,0,1,496,461.8L391.27,416.9a12.5,12.5,0,1,1,9.85-23l104.56,44.81a24.62,24.62,0,0,0,9.22,1.78H515a25,25,0,0,0,25-24.94V153a12.5,12.5,0,1,1,25,0V415.61a50,50,0,0,1-50,49.91Z"/><path class="cls-3" d="M182.84,565.55a24.34,24.34,0,0,1-22-14.05C127.11,477,127.4,370,127.43,365.46A12.5,12.5,0,0,1,139.93,353h83.5a12.5,12.5,0,0,1,12.5,12.41,586.32,586.32,0,0,0,3.67,61.19,12.5,12.5,0,1,1-24.84,2.81c-1.92-17-3.13-34.26-3.61-51.41H152.67c1,29.88,5.88,107.33,30.66,162.51h56.4a328.43,328.43,0,0,1-14.43-47.26,12.5,12.5,0,0,1,24.39-5.48A307.88,307.88,0,0,0,263.21,532a24.54,24.54,0,0,1-22.48,33.55H182.84Z"/><path class="cls-3" d="M490,278a12.5,12.5,0,0,1-12.5-12.5V35.46a12.5,12.5,0,0,1,25,0V265.54A12.51,12.51,0,0,1,490,278Z"/><path class="cls-3" d="M490,458.1a12.5,12.5,0,0,1-12.5-12.5V328a12.5,12.5,0,0,1,25,0V445.6A12.5,12.5,0,0,1,490,458.1Z"/></svg>