<svg id="Capa_1" data-name="Capa 1" xmlns="http://www.w3.org/2000/svg" viewBox="0 0 20 20"><defs><style>.cls-1{fill:#fff;}</style></defs><title>nav-07</title><path class="cls-1" d="M18.24,5.94H16.41V.59A.59.59,0,0,0,15.82,0H4.1a.59.59,0,0,0-.59.59v3H1.76A1.76,1.76,0,0,0,0,5.35V18.24A1.76,1.76,0,0,0,1.76,20H18.24A1.76,1.76,0,0,0,20,18.24V7.7A1.76,1.76,0,0,0,18.24,5.94ZM4.69,1.17H15.23V8.29a1.75,1.75,0,0,0-1.43,1l-.52,1a.58.58,0,0,1-.52.32H4.69ZM1.17,5.35a.59.59,0,0,1,.59-.59H3.52v5.86H1.17ZM18.83,18.24a.59.59,0,0,1-.59.59H1.76a.59.59,0,0,1-.59-.59V11.8H12.75a1.75,1.75,0,0,0,1.57-1l.52-1a.58.58,0,0,1,.52-.32h2.87a.59.59,0,0,1,.59.59Zm0-9.86a1.75,1.75,0,0,0-.59-.1H16.41V7.11h1.84a.59.59,0,0,1,.59.59Z"/><path class="cls-1" d="M13.48,2.34h-7a.59.59,0,0,0,0,1.17h7a.59.59,0,0,0,0-1.17Z"/><path class="cls-1" d="M13.48,4.77h-7a.59.59,0,0,0,0,1.17h7a.59.59,0,0,0,0-1.17Z"/><path class="cls-1" d="M13.48,7.11h-7a.59.59,0,0,0,0,1.17h7a.59.59,0,0,0,0-1.17Z"/></svg>