<svg id="Layer_1" data-name="Layer 1" xmlns="http://www.w3.org/2000/svg" viewBox="0 0 566.93 566.93"><defs><style>.cls-1{fill:#fff;}.cls-2{fill:#6c64b3;}.cls-3{fill:#392a6f;}</style></defs><title>Erxes new icons (1)</title><path class="cls-1" d="M286.13,10.88c150.06,0,271.69,121.65,271.69,271.71a271.7,271.7,0,0,1-80.42,193,571.06,571.06,0,0,0-70.75-48.4c-29.49-16.25-55-30.4-55-48.17a63,63,0,0,1,23.94-50.66c5-.79,11.21-4.64,16.47-16.76a71.57,71.57,0,0,0,5.89-27.11c0-10.13-3.11-15.23-6.45-17.77,16-79.47-10.47-117.28-28-133a84.86,84.86,0,0,0-81-17.09c-39.34.23-70,13.87-88.42,39.74-23.26,32.32-23.55,77.77-13.42,110.89a21,21,0,0,0-5.89,17.26c0,14.66,7.59,41.26,22.36,43.87A63.08,63.08,0,0,1,220.64,379c0,17.77-25.53,31.93-55,48.17a571,571,0,0,0-70.75,48.4C-11.7,369.91-12.46,197.88,93.18,91.31A271.7,271.7,0,0,1,286.13,10.88Z"/><path class="cls-2" d="M406.64,427.15a571,571,0,0,1,70.75,48.4c-105.91,105-276.62,105-382.53,0a571.06,571.06,0,0,1,70.75-48.4c29.49-16.25,55-30.4,55-48.17a63.09,63.09,0,0,0-23.55-50.66c-14.77-2.6-22.36-29.21-22.36-43.87a21,21,0,0,1,5.89-17.26c-10.13-33.11-9.85-78.57,13.42-110.89,18.45-25.87,49.08-39.51,88.42-39.74a84.86,84.86,0,0,1,81,17.09c17.55,15.74,44,53.55,28,133,3.34,2.55,6.45,7.64,6.45,17.77A71.57,71.57,0,0,1,392,311.56c-5.26,12.11-11.43,16-16.47,16.76A63,63,0,0,0,351.62,379C351.62,396.75,377.15,410.9,406.64,427.15Z"/><path class="cls-3" d="M452.09,78.81a11.27,11.27,0,0,1-6.91-2.36C354.83,6.7,227,4.5,134.3,71.07a11.32,11.32,0,1,1-13.21-18.39c100.77-72.36,239.73-70,337.92,5.84a11.32,11.32,0,0,1-6.92,20.28Z"/><path class="cls-3" d="M399.35,541a11.32,11.32,0,0,1-4.73-21.61C484.73,478,544.31,387.15,546.4,288A11.56,11.56,0,0,1,558,276.92,11.33,11.33,0,0,1,569,288.48C566.76,396.24,502,495,404.06,540A11.28,11.28,0,0,1,399.35,541Z"/><path class="cls-3" d="M35,190a11.32,11.32,0,0,1-10.45-15.66A281.11,281.11,0,0,1,89,79.57a11.32,11.32,0,1,1,15.75,16.26A258.75,258.75,0,0,0,45.48,183,11.31,11.31,0,0,1,35,190Z"/><path class="cls-3" d="M286.21,565.6c-156.08,0-283.05-126.93-283.1-283a273.73,273.73,0,0,1,2-33.42,11.32,11.32,0,1,1,22.48,2.75,249.63,249.63,0,0,0-1.84,30.64C25.79,426.17,142.63,543,286.21,543h.08a260.83,260.83,0,0,0,64.95-8.24,11.32,11.32,0,0,1,5.65,21.93,283.18,283.18,0,0,1-70.59,9Z"/><path class="cls-3" d="M553.07,243A11.32,11.32,0,0,1,542,233.75,258.92,258.92,0,0,0,480.18,109,11.32,11.32,0,0,1,497,93.88a281.53,281.53,0,0,1,67.18,135.65A11.32,11.32,0,0,1,553.07,243Z"/><path class="cls-3" d="M477.39,486.87a11.33,11.33,0,0,1-7.07-2.48A560.13,560.13,0,0,0,401,437c-32.46-17.89-60.67-33.42-60.67-58a74.6,74.6,0,0,1,28.25-59.55,11.26,11.26,0,0,1,5.26-2.3c1.71-.27,4.8-3.07,7.85-10.08a59.86,59.86,0,0,0,4.95-22.82c0-5.52-1.3-8-2-8.55a11.34,11.34,0,0,1-4.24-11.23c14.87-74-9-108.44-24.48-122.36a74,74,0,0,0-70.09-14.72,11.21,11.21,0,0,1-3.29.51c-35.67.2-63.08,12.31-79.26,35a68.32,68.32,0,0,0-4.13,6.42,11.32,11.32,0,1,1-19.7-11.16,89.71,89.71,0,0,1,5.45-8.48c20.26-28.41,53.41-43.76,95.85-44.4a96.86,96.86,0,0,1,90.18,19.87C389.7,142,418.35,182,403.64,263.3c3.11,4.54,5.6,11.26,5.6,21.15a82.74,82.74,0,0,1-6.82,31.62c-6.4,14.72-14.79,20.52-21.66,22.64a52,52,0,0,0-17.82,40.05c0,11.39,26.12,25.78,49.16,38.47a585,585,0,0,1,72.37,49.47,11.32,11.32,0,0,1-7.08,20.16Z"/><path class="cls-3" d="M94.87,486.87a11.32,11.32,0,0,1-7.07-20.17,613.3,613.3,0,0,1,64.13-44.75,11.32,11.32,0,0,1,11.74,19.36,589.67,589.67,0,0,0-61.75,43.09A11.25,11.25,0,0,1,94.87,486.87Z"/><path class="cls-3" d="M200.5,417.7a11.32,11.32,0,0,1-6.58-20.54C204,390,209.32,383.7,209.32,379a52.26,52.26,0,0,0-17.54-40.34C171,332,163.63,300.13,163.42,285.11a32.17,32.17,0,0,1,4.76-20.34A159.58,159.58,0,0,1,163,220a11.32,11.32,0,1,1,22.63.6,137.11,137.11,0,0,0,5.81,43.3,11.33,11.33,0,0,1-2.77,11.21,9.63,9.63,0,0,0-2.72,8,11,11,0,0,1,.08,1.36c0,14.69,7.63,31.77,13,32.72a11.33,11.33,0,0,1,5.12,2.32A74.83,74.83,0,0,1,232,379.24c0,16.66-14.21,28.74-24.89,36.35A11.21,11.21,0,0,1,200.5,417.7Z"/></svg>