<svg id="Capa_1" data-name="Capa 1" xmlns="http://www.w3.org/2000/svg" viewBox="0 0 20 20"><defs><style>.cls-1{fill:#fff;}</style></defs><title>nav-02</title><path class="cls-1" d="M18.18,6.3a2.34,2.34,0,1,0-3.4,0,3.54,3.54,0,0,0-1,.83,4.14,4.14,0,0,0-.89-1.25,4.26,4.26,0,0,0-1-.72A2.85,2.85,0,0,0,12.06.85,3,3,0,0,0,10,0a2.93,2.93,0,0,0-1.9,5.16,4.13,4.13,0,0,0-1.85,2,3.54,3.54,0,0,0-1-.82,2.34,2.34,0,1,0-3.4,0A3.52,3.52,0,0,0,0,9.38v3A1.76,1.76,0,0,0,1.17,14v3a1.76,1.76,0,0,0,1.76,1.76H4.1a1.76,1.76,0,0,0,1.76-1.76V14a1.76,1.76,0,0,0,.59-.35A1.76,1.76,0,0,0,7,14v4.2A1.76,1.76,0,0,0,8.79,20h2.42A1.76,1.76,0,0,0,13,18.24V14a1.76,1.76,0,0,0,.59-.35,1.76,1.76,0,0,0,.59.35v3a1.76,1.76,0,0,0,1.76,1.76h1.17a1.76,1.76,0,0,0,1.76-1.76V14A1.76,1.76,0,0,0,20,12.38v-3A3.52,3.52,0,0,0,18.18,6.3ZM3.52,3.52A1.17,1.17,0,1,1,2.34,4.69,1.17,1.17,0,0,1,3.52,3.52Zm2.34,8.87a.59.59,0,0,1-.59.59.59.59,0,0,0-.59.59v3.52a.59.59,0,0,1-.59.59H2.93a.59.59,0,0,1-.59-.59V13.55A.59.59,0,0,0,1.76,13a.59.59,0,0,1-.59-.59v-3a2.34,2.34,0,0,1,4.69,0ZM10,1.17A1.82,1.82,0,0,1,11.8,2.93,1.82,1.82,0,0,1,10,4.69a1.76,1.76,0,0,1,0-3.52Zm3,11.21a.59.59,0,0,1-.59.59.59.59,0,0,0-.59.59v4.69a.59.59,0,0,1-.59.59H8.79a.59.59,0,0,1-.59-.59V13.55A.59.59,0,0,0,7.62,13,.59.59,0,0,1,7,12.38V8.79A2.93,2.93,0,0,1,9.38,5.92v4a.59.59,0,0,0,1.17,0v-4A3,3,0,0,1,13,8.79Zm3.52-8.87a1.17,1.17,0,1,1-1.17,1.17A1.17,1.17,0,0,1,16.48,3.52Zm2.34,8.87a.59.59,0,0,1-.59.59.59.59,0,0,0-.59.59v3.52a.59.59,0,0,1-.59.59H15.9a.59.59,0,0,1-.59-.59V13.55a.59.59,0,0,0-.59-.59.59.59,0,0,1-.59-.59v-3a2.34,2.34,0,0,1,4.69,0Z" transform="translate(0)"/></svg>