<svg id="Capa_1" data-name="Capa 1" xmlns="http://www.w3.org/2000/svg" viewBox="0 0 20 20"><defs><style>.cls-1{fill:#fff;}</style></defs><title>nav-05</title><path class="cls-1" d="M17,10.61H9.38V3a.59.59,0,0,0-.59-.59,8.79,8.79,0,1,0,8.79,8.79h0A.59.59,0,0,0,17,10.61Zm-8.2,8.21A7.62,7.62,0,0,1,8.2,3.62v7.59a.59.59,0,0,0,.59.59h7.59A7.63,7.63,0,0,1,8.79,18.83Z" transform="translate(0 0)"/><path class="cls-1" d="M17.43,2.57A8.73,8.73,0,0,0,11.21,0a.59.59,0,0,0-.59.59v8.2a.59.59,0,0,0,.59.59h8.2A.59.59,0,0,0,20,8.79,8.73,8.73,0,0,0,17.43,2.57ZM11.8,8.2v-7a7.63,7.63,0,0,1,7,7h-7Z" transform="translate(0 0)"/></svg>