<svg id="Layer_1" data-name="Layer 1" xmlns="http://www.w3.org/2000/svg" viewBox="0 0 566.93 566.93"><defs><style>.cls-1{fill:#6c64b3;}.cls-2{fill:#fff;}.cls-3{fill:#392a6f;}</style></defs><title>Erxes new icons (1)</title><path class="cls-1" d="M555.58,320V501.44a22.68,22.68,0,0,1-22.68,22.68H34a22.68,22.68,0,0,1-22.68-22.68V320H166.74a22.64,22.64,0,0,1,22.17,18.14,90.71,90.71,0,0,0,177.78,0A22.64,22.64,0,0,1,388.85,320Z"/><path class="cls-2" d="M470,63.44,555.58,320H388.85a22.64,22.64,0,0,0-22.17,18.14,90.71,90.71,0,0,1-177.78,0A22.64,22.64,0,0,0,166.74,320H11.34L96.89,63.44a22.61,22.61,0,0,1,21.49-15.53H448.55A22.61,22.61,0,0,1,470,63.44Z"/><path class="cls-3" d="M54.83,201A11.34,11.34,0,0,1,44.07,186L86.13,59.85a33.87,33.87,0,0,1,32.22-23.28h29a11.34,11.34,0,1,1,0,22.68h-29A11.26,11.26,0,0,0,107.66,67L65.58,193.22A11.34,11.34,0,0,1,54.83,201Z"/><path class="cls-3" d="M11.34,331.37a11.16,11.16,0,0,1-3.59-.59A11.34,11.34,0,0,1,.58,316.44l28.35-85a11.34,11.34,0,0,1,21.51,7.17l-28.35,85A11.34,11.34,0,0,1,11.34,331.37Z"/><path class="cls-3" d="M497,155.62a11.33,11.33,0,0,1-10.75-7.76L459.28,67a11.27,11.27,0,0,0-10.71-7.77H340.16a11.34,11.34,0,0,1,0-22.68H448.58a33.88,33.88,0,0,1,32.23,23.32l26.92,80.81A11.35,11.35,0,0,1,497,155.62Z"/><path class="cls-3" d="M555.58,331.37a11.34,11.34,0,0,1-10.75-7.75L505.14,204.56a11.34,11.34,0,0,1,21.51-7.17l39.68,119.05a11.34,11.34,0,0,1-10.76,14.93Z"/><path class="cls-3" d="M283.46,59.24h-68a11.34,11.34,0,1,1,0-22.68h68a11.34,11.34,0,0,1,0,22.68Z"/><path class="cls-3" d="M430.86,535.45H34a34,34,0,0,1-34-34v-73.7a11.34,11.34,0,0,1,22.68,0v73.7A11.35,11.35,0,0,0,34,512.78H430.86a11.34,11.34,0,0,1,0,22.68Z"/><path class="cls-3" d="M532.91,535.45H487.55a11.34,11.34,0,0,1,0-22.68h45.35a11.35,11.35,0,0,0,11.34-11.34V331.36H388.85a11.34,11.34,0,0,0-11.05,9.06,102.39,102.39,0,0,1-100,81.65h0a104.75,104.75,0,0,1-19.08-1.78A11.34,11.34,0,1,1,262.87,398a83.08,83.08,0,0,0,14.95,1.39h0a79.61,79.61,0,0,0,77.74-63.49,34.09,34.09,0,0,1,33.27-27.21H555.58A11.34,11.34,0,0,1,566.92,320V501.44A34,34,0,0,1,532.91,535.45Z"/><path class="cls-3" d="M204.1,384.31a11.31,11.31,0,0,1-9.22-4.73,101.46,101.46,0,0,1-17.09-39.15,11.34,11.34,0,0,0-11.07-9.07h-144V371A11.34,11.34,0,0,1,0,371V320a11.34,11.34,0,0,1,11.34-11.34H166.74A34.09,34.09,0,0,1,200,335.91a79,79,0,0,0,13.29,30.45,11.34,11.34,0,0,1-9.21,17.95Z"/></svg>