<svg id="Layer_1" data-name="Layer 1" xmlns="http://www.w3.org/2000/svg" viewBox="0 0 20 18.48"><defs><style>.cls-1{fill:#fff;}</style></defs><title>nav-08</title><path class="cls-1" d="M19.49,5.22,15.71,1.44A1.76,1.76,0,0,0,14.2.95h0l-4.74,1a.58.58,0,0,0-.26,0L7.09.9h0a1.76,1.76,0,0,0-1.9.39L.51,5.91A1.77,1.77,0,0,0,.21,8V8l1.6,2.74-.51.51a1.76,1.76,0,0,0,1.15,3,1.75,1.75,0,0,0,1.66,1.66,1.76,1.76,0,0,0,1.66,1.66,1.75,1.75,0,0,0,.51,1.15h0a1.76,1.76,0,0,0,2.49,0l.41-.41.29.29a1.76,1.76,0,0,0,2.94-.77,1.76,1.76,0,0,0,2.07-1.24,1.76,1.76,0,0,0,2.07-1.24,1.76,1.76,0,0,0,1.62-3l-1.55-1.55,2.92-3.2h0A1.76,1.76,0,0,0,19.49,5.22ZM2.14,12.92a.59.59,0,0,1,0-.83L3.8,10.43a.59.59,0,0,1,.83.83L3,12.92A.59.59,0,0,1,2.14,12.92ZM3.8,14.58a.59.59,0,0,1,0-.83l1.66-1.66a.59.59,0,0,1,.83.83L4.63,14.58A.59.59,0,0,1,3.8,14.58Zm2.49,1.66a.59.59,0,0,1-.83-.83l1.66-1.66a.59.59,0,0,1,.83.83Zm2.49.83-.83.83a.59.59,0,1,1-.83-.83l.83-.83a.59.59,0,0,1,.83.83Zm8.58-3.85a.59.59,0,0,1-.83.83l-1.66-1.66a.59.59,0,0,0-.83.83l1.24,1.24a.59.59,0,0,1-.83.83L13.21,14a.59.59,0,0,0-.83.83l.83.83h0a.59.59,0,1,1-.83.83l-.83-.83a.59.59,0,0,0-.83.83l.41.41a.59.59,0,0,1-.83.83l-.36-.36A1.76,1.76,0,0,0,9.05,15a1.76,1.76,0,0,0-1.43-2.63A1.76,1.76,0,0,0,6,10.75,1.76,1.76,0,0,0,3,9.61l-.29.29L1.24,7.43a.59.59,0,0,1,.1-.69L6,2.11A.59.59,0,0,1,6.6,2l1.59.76L5.46,5.46h0A1.76,1.76,0,0,0,7.87,8L10,5.87Zm1.33-6.37L15.8,10,10.43,4.63a.59.59,0,0,0-.83,0L7.11,7.12a.59.59,0,0,1-.83-.83L9.48,3.1l4.91-1a.59.59,0,0,1,.49.17L18.66,6A.59.59,0,0,1,18.68,6.84Z" transform="translate(0 -0.76)"/></svg>