<svg id="Layer_1" data-name="Layer 1" xmlns="http://www.w3.org/2000/svg" viewBox="0 0 20 19.99"><defs><style>.cls-1{fill:#fff;}</style></defs><title>nav-03</title><path class="cls-1" d="M19.34,16.73a.62.62,0,0,0-.61-.47h-.62v-10h1.26A.62.62,0,0,0,19.59,5l-9.3-5a.62.62,0,0,0-.59,0l-9.37,5A.62.62,0,0,0,.62,6.26H1.87v10H1.25a.62.62,0,0,0-.61.47L0,19.22A.63.63,0,0,0,.62,20H19.38a.62.62,0,0,0,.56-.89ZM10,1.34,16.86,5H3.12Zm6.87,4.91v10h-2.5v-10h2.5Zm-3.75,0v10h-2.5v-10h2.5Zm-3.75,0v10H6.87v-10h2.5Zm-6.25,0h2.5v10H3.12ZM1.42,18.75l.31-1.25H18.25l.31,1.25Z" transform="translate(0 -0.01)"/></svg>