<svg id="Layer_1" data-name="Layer 1" xmlns="http://www.w3.org/2000/svg" viewBox="0 0 566.93 566.93"><defs><style>.cls-1{fill:#fff;}.cls-2{fill:#6c64b3;}.cls-3{fill:#392a6f;}</style></defs><title>Erxes new icons (1)</title><path class="cls-1" d="M546.25,239.3l-35-5.83a11.35,11.35,0,0,1-9-8.24,223.83,223.83,0,0,0-20.63-49.87,11.35,11.35,0,0,1,.56-12.2l20.58-28.81a11.27,11.27,0,0,0-1.2-14.52L451.33,69.6a11.27,11.27,0,0,0-14.52-1.2L408,89a11.35,11.35,0,0,1-12.2.56,223.85,223.85,0,0,0-49.87-20.63,11.35,11.35,0,0,1-8.24-9l-5.83-35a11.27,11.27,0,0,0-11.11-9.43H249.7a11.27,11.27,0,0,0-11.12,9.41l-5.83,35a11.35,11.35,0,0,1-8.24,9,223.83,223.83,0,0,0-49.87,20.63,11.35,11.35,0,0,1-12.2-.56L133.64,68.38a11.27,11.27,0,0,0-14.52,1.2L68.88,119.84a11.27,11.27,0,0,0-1.2,14.52l20.58,28.81a11.35,11.35,0,0,1,.56,12.2,223.85,223.85,0,0,0-20.63,49.87,11.35,11.35,0,0,1-9,8.24l-35,5.83a11.27,11.27,0,0,0-9.43,11.11v71.06a11.27,11.27,0,0,0,9.41,11.12l35,5.83a11.35,11.35,0,0,1,9,8.24,223.83,223.83,0,0,0,20.63,49.87,11.35,11.35,0,0,1-.56,12.2L67.66,437.54a11.27,11.27,0,0,0,1.2,14.52l50.25,50.25a11.27,11.27,0,0,0,14.52,1.2l28.81-20.58a11.35,11.35,0,0,1,12.2-.56A223.85,223.85,0,0,0,224.51,503a11.35,11.35,0,0,1,8.24,9l5.83,35a11.27,11.27,0,0,0,11.13,9.43h71.06A11.27,11.27,0,0,0,331.87,547l5.83-35a11.35,11.35,0,0,1,8.24-9,223.82,223.82,0,0,0,49.87-20.63,11.35,11.35,0,0,1,12.2.56l28.81,20.58a11.27,11.27,0,0,0,14.52-1.2l50.25-50.25a11.27,11.27,0,0,0,1.2-14.52L482.2,408.74a11.35,11.35,0,0,1-.56-12.2,223.85,223.85,0,0,0,20.63-49.87,11.35,11.35,0,0,1,9-8.24l35-5.83a11.27,11.27,0,0,0,9.43-11.13V250.42A11.27,11.27,0,0,0,546.25,239.3Zm-261,136.79A90.15,90.15,0,1,1,375.37,286,90.14,90.14,0,0,1,285.23,376.1Z"/><path class="cls-2" d="M285.23,139.46A146.49,146.49,0,1,0,431.72,286,146.49,146.49,0,0,0,285.23,139.46Zm0,236.64A90.15,90.15,0,1,1,375.37,286,90.14,90.14,0,0,1,285.23,376.1Z"/><path class="cls-3" d="M285,443.71a156.26,156.26,0,0,1-36.19-4.25A11.27,11.27,0,0,1,254,417.54a127.08,127.08,0,0,0,31.17,3.64h.07c74.52,0,135.14-60.58,135.18-135.09a134.93,134.93,0,0,0-34.59-90.36,11.27,11.27,0,1,1,16.77-15.06A157.47,157.47,0,0,1,443,286.1c0,86.92-70.78,157.61-157.68,157.61Zm-89.92-31.1a11.21,11.21,0,0,1-6.92-2.39c-68.54-53.53-80.75-152.84-27.22-221.38,48.24-61.77,132.9-78.82,201.3-40.57a11.27,11.27,0,0,1-11,19.67,134.46,134.46,0,0,0-172.54,34.76C132.81,261.45,143.27,346.57,202,392.45a11.27,11.27,0,0,1-6.94,20.15Zm90.05-25.29A101.32,101.32,0,0,1,183.81,285.95a11.27,11.27,0,0,1,22.54,0,78.88,78.88,0,1,0,17.3-49.3,11.27,11.27,0,0,1-17.59-14.09,101.42,101.42,0,1,1,79.06,164.76Z"/><path class="cls-3" d="M249.68,567.66a22.53,22.53,0,0,1-22.2-18.8l-5.81-35a233.25,233.25,0,0,1-52.56-21.66l-28.95,20.49a22.39,22.39,0,0,1-29-2.4L80.74,479.85a11.27,11.27,0,0,1,15.93-15.93l30.42,30.42,28.82-20.59a22.7,22.7,0,0,1,24.32-1.16,213,213,0,0,0,47.27,19.53A22.73,22.73,0,0,1,243.87,510l5.83,35.12,71.08,0,5.79-35a22.81,22.81,0,0,1,16.49-18.06,213.27,213.27,0,0,0,47.25-19.56,22.63,22.63,0,0,1,24.18,1.17l28.9,20.6,50.23-50.23L473,415.26a22.37,22.37,0,0,1-1.93-22.71,11.27,11.27,0,1,1,20.29,9.79L511.95,431a22.38,22.38,0,0,1-2.4,29L459.3,510.27a22.39,22.39,0,0,1-29,2.37l-28.81-20.54A234.41,234.41,0,0,1,349,513.83l-6,35a22.55,22.55,0,0,1-22.18,18.83H249.68ZM83.4,426.81A11.27,11.27,0,0,1,74.23,409l4.85-6.82a235.67,235.67,0,0,1-21.73-52.48l-35-6A22.56,22.56,0,0,1,3.52,321.54V250.4a22.53,22.53,0,0,1,18.79-22.2l35-5.81A233.63,233.63,0,0,1,79,169.83L58.51,140.88a22.37,22.37,0,0,1,2.4-29l50.25-50.25,0,0a11.27,11.27,0,0,1,18.19,12.92,12.28,12.28,0,0,1-2.55,3.31l-50,50,20.59,28.82A22.72,22.72,0,0,1,98.59,181,212.76,212.76,0,0,0,79,228.25,22.72,22.72,0,0,1,61.16,244.6L26,250.43l0,71.07,35,5.79a22.82,22.82,0,0,1,18.06,16.49A213.07,213.07,0,0,0,98.64,391a22.65,22.65,0,0,1-1.17,24.19l-4.87,6.85A11.28,11.28,0,0,1,83.4,426.81Zm415.19-57.07a11.28,11.28,0,0,1-10.64-15c1.17-3.38,2.27-6.91,3.45-11.12a22.73,22.73,0,0,1,17.88-16.33l35.13-5.82,0-71.09-35-5.79a22.81,22.81,0,0,1-18.06-16.49,213,213,0,0,0-19.56-47.25A22.64,22.64,0,0,1,473,156.69l20.6-28.9L443.36,77.57,414.54,98.15a22.71,22.71,0,0,1-24.32,1.17,213,213,0,0,0-47.28-19.54A22.73,22.73,0,0,1,326.59,61.9l-5.82-35.13-71.09,0-5.79,35A22.81,22.81,0,0,1,227.4,79.81,207.79,207.79,0,0,0,193.51,92.5a11.27,11.27,0,1,1-9.72-20.33,230.39,230.39,0,0,1,37.68-14.1l6-35A22.55,22.55,0,0,1,249.63,4.24h71.15A22.55,22.55,0,0,1,343,23l5.8,35a233.65,233.65,0,0,1,52.56,21.66L430.3,59.24a22.37,22.37,0,0,1,29,2.4l50.25,50.25a22.39,22.39,0,0,1,2.37,29l-20.54,28.81a234.39,234.39,0,0,1,21.73,52.47l35,6a22.54,22.54,0,0,1,18.83,22.17v71.15a22.55,22.55,0,0,1-18.78,22.21l-35,5.8c-1.32,4.88-2.55,8.83-3.88,12.65A11.26,11.26,0,0,1,498.59,369.74Z"/></svg>