<svg id="Layer_1" data-name="Layer 1" xmlns="http://www.w3.org/2000/svg" viewBox="0 0 20 14.06"><defs><style>.cls-1{fill:#fff;}</style></defs><title>nav-09</title><path class="cls-1" d="M19.41,13.52h-.59V4.73A1.76,1.76,0,0,0,17.07,3H2.93A1.76,1.76,0,0,0,1.17,4.73v8.79H.59A.59.59,0,0,0,0,14.1v1.17A1.76,1.76,0,0,0,1.76,17H18.24A1.76,1.76,0,0,0,20,15.27V14.1A.59.59,0,0,0,19.41,13.52ZM2.34,4.73a.59.59,0,0,1,.59-.59H17.07a.59.59,0,0,1,.59.59v8.79H16.48V5.9a.59.59,0,0,0-.59-.59H4.1a.59.59,0,0,0-.59.59v7.62H2.34Zm13,1.76v7H4.69v-7Zm3.52,8.79a.59.59,0,0,1-.59.59H1.76a.59.59,0,0,1-.59-.59v-.59H18.83Z" transform="translate(0 -2.97)"/><path class="cls-1" d="M13.39,7.83a.59.59,0,0,0-.83,0L9.41,10.93,7.44,9a.59.59,0,1,0-.82.84L9,12.18a.59.59,0,0,0,.82,0l3.55-3.52A.59.59,0,0,0,13.39,7.83Z" transform="translate(0 -2.97)"/></svg>