<svg id="Layer_1" data-name="Layer 1" xmlns="http://www.w3.org/2000/svg" viewBox="0 0 566.93 566.93"><defs><style>.cls-1{fill:#fff;}.cls-2{fill:#6c64b3;}.cls-3{fill:#392a6f;}</style></defs><title>Erxes new icons (1)</title><path class="cls-1" d="M341,88.16c-125.23-47.23-265,16-312.28,141.22s16,265,141.22,312.28,265-16,312.28-141.22a242.37,242.37,0,0,0,0-171.06L255.43,315Z"/><path class="cls-2" d="M413.64,15.53,328.06,242.34l226.81-85.59A243.06,243.06,0,0,0,413.64,15.53Z"/><path class="cls-3" d="M24.28,399.54a11.28,11.28,0,0,1-10.75-7.89A253,253,0,0,1,45.09,173a11.27,11.27,0,1,1,18.7,12.59A230.6,230.6,0,0,0,35,384.87,11.27,11.27,0,0,1,27.68,399,11.44,11.44,0,0,1,24.28,399.54Z"/><path class="cls-3" d="M255.42,326.25A11.28,11.28,0,0,1,244.87,311l55.7-147.64a11.27,11.27,0,0,1,21.1,8l-46.9,124.31,203.51-76.77a11.27,11.27,0,0,1,14.53,6.57,252.14,252.14,0,0,1,15.64,71.52,11.27,11.27,0,0,1-22.49,1.58A229.67,229.67,0,0,0,475.43,244l-216,81.49A11.26,11.26,0,0,1,255.42,326.25Z"/><path class="cls-3" d="M327,136.67a11.29,11.29,0,0,1-10.55-15.26l10-26.46A229.89,229.89,0,0,0,114.32,131.9,11.28,11.28,0,1,1,100.56,114C170.72,60,262.11,46.38,345,77.57a11.27,11.27,0,0,1,6.58,14.52l-14,37.26A11.29,11.29,0,0,1,327,136.67Z"/><path class="cls-3" d="M255.94,568.72a256.2,256.2,0,0,1-41.54-3.4A252.7,252.7,0,0,1,35.13,440.87a11.28,11.28,0,0,1,19.58-11.2,231.18,231.18,0,0,0,428.83-77.41,11.27,11.27,0,1,1,22.25,3.65,253.89,253.89,0,0,1-249.86,212.8Z"/><path class="cls-3" d="M328,253.64a11.27,11.27,0,0,1-10.55-15.25L403.11,11.54A11.28,11.28,0,0,1,417.65,5,254.71,254.71,0,0,1,565.42,152.74a11.28,11.28,0,0,1-6.56,14.54L501.3,189a11.28,11.28,0,0,1-8-21.1l46.74-17.67a232.17,232.17,0,0,0-119.94-120L347.39,223l96.78-36.56a11.28,11.28,0,1,1,8,21.1L332,252.91A11.26,11.26,0,0,1,328,253.64Z"/><path class="cls-3" d="M282.93,399.2a11.28,11.28,0,0,1-10.55-7.3L244.87,319a11.28,11.28,0,0,1,21.1-8l27.51,72.95a11.29,11.29,0,0,1-10.55,15.26Z"/><path class="cls-3" d="M341.05,553.1a11.28,11.28,0,0,1-10.55-7.3l-36.81-97.53a11.27,11.27,0,1,1,21.1-8l36.81,97.53a11.29,11.29,0,0,1-10.55,15.26Z"/></svg>