<svg id="Layer_1" data-name="Layer 1" xmlns="http://www.w3.org/2000/svg" viewBox="0 0 566.93 566.93"><defs><style>.cls-1{fill:#fff;}.cls-2{fill:#392a6f;}.cls-3{fill:#6c64b3;}</style></defs><title>Erxes new icons (1)</title><polygon class="cls-1" points="281.42 187.65 281.42 21.93 16.27 21.93 16.27 552.24 281.42 552.24 546.58 552.24 546.58 187.65 281.42 187.65"/><path class="cls-2" d="M281.42,281.56a11.05,11.05,0,0,1-11-11V33H137.8a11,11,0,1,1,0-22.1H281.42a11.05,11.05,0,0,1,11,11V270.51A11.05,11.05,0,0,1,281.42,281.56Z"/><path class="cls-2" d="M16.27,209.75a11.05,11.05,0,0,1-11-11V21.93a11.05,11.05,0,0,1,11-11H93.6a11,11,0,1,1,0,22.1H27.32V198.7A11.05,11.05,0,0,1,16.27,209.75Z"/><path class="cls-2" d="M49.41,563.29H16.27a11.05,11.05,0,0,1-11-11V242.89a11,11,0,1,1,22.1,0v298.3h22.1a11,11,0,0,1,0,22.1Z"/><path class="cls-2" d="M281.42,563.29H93.6a11,11,0,0,1,0-22.1H270.37V314.71a11,11,0,0,1,22.1,0V552.24A11.05,11.05,0,0,1,281.42,563.29Z"/><rect class="cls-3" x="372.96" y="441.76" width="66.29" height="110.48"/><rect class="cls-3" x="107.8" y="441.76" width="66.29" height="110.48"/><path class="cls-2" d="M447.14,563.29H380.85a11.05,11.05,0,0,1-11-11v-22.1a11,11,0,1,1,22.1,0v11h44.19V452.81H391.9v33.14a11,11,0,1,1-22.1,0V441.76a11.05,11.05,0,0,1,11-11h66.29a11.05,11.05,0,0,1,11,11V552.24A11.05,11.05,0,0,1,447.14,563.29Z"/><path class="cls-2" d="M182,563.29H115.7a11.05,11.05,0,0,1-11-11V441.76a11.05,11.05,0,0,1,11-11H182a11.05,11.05,0,0,1,11,11V552.24A11.05,11.05,0,0,1,182,563.29Zm-55.24-22.1h44.19V452.81H126.75Z"/><path class="cls-2" d="M380.85,397.57H336.66a11.05,11.05,0,0,1-11-11V342.33a11.05,11.05,0,0,1,11-11h44.19a11.05,11.05,0,0,1,11,11v44.19A11.05,11.05,0,0,1,380.85,397.57Zm-33.14-22.1h22.1v-22.1h-22.1Z"/><path class="cls-2" d="M491.34,397.57H447.14a11.05,11.05,0,0,1-11-11V342.33a11.05,11.05,0,0,1,11-11h44.19a11.05,11.05,0,0,1,11,11v44.19A11.05,11.05,0,0,1,491.34,397.57Zm-33.14-22.1h22.1v-22.1h-22.1Z"/><path class="cls-2" d="M380.85,314.71H336.66a11.05,11.05,0,0,1-11-11V259.47a11.05,11.05,0,0,1,11-11h44.19a11.05,11.05,0,0,1,11,11v11a11,11,0,1,1-22.1,0h-22.1v22.1h33.14a11,11,0,0,1,0,22.1Z"/><path class="cls-2" d="M546.58,386.52a11.05,11.05,0,0,1-11-11V198.7H463.71a11,11,0,1,1,0-22.1h82.86a11.05,11.05,0,0,1,11,11V375.47A11,11,0,0,1,546.58,386.52Z"/><path class="cls-2" d="M281.42,281.56a11.05,11.05,0,0,1-11-11V187.65a11.05,11.05,0,0,1,11-11h138.1a11,11,0,0,1,0,22.1H292.47v71.81A11.05,11.05,0,0,1,281.42,281.56Z"/><path class="cls-2" d="M546.58,563.29H281.42a11.05,11.05,0,0,1-11-11V314.71a11,11,0,0,1,22.1,0V541.19H535.53V419.66a11,11,0,0,1,22.1,0V552.24A11.05,11.05,0,0,1,546.58,563.29Z"/><rect class="cls-3" x="447.14" y="259.46" width="44.19" height="44.19"/><path class="cls-2" d="M115.7,397.57H71.51a11.05,11.05,0,0,1-11-11V342.33a11.05,11.05,0,0,1,11-11H115.7a11.05,11.05,0,0,1,11,11v44.19A11.05,11.05,0,0,1,115.7,397.57Zm-33.14-22.1h22.1v-22.1H82.56Z"/><path class="cls-2" d="M226.18,397.57H182a11.05,11.05,0,0,1-11-11V342.33a11.05,11.05,0,0,1,11-11h44.19a11.05,11.05,0,0,1,11,11v11a11,11,0,0,1-22.1,0H193v22.1h33.14a11,11,0,0,1,0,22.1Z"/><path class="cls-2" d="M115.7,314.71H71.51a11.05,11.05,0,0,1-11-11V259.47a11.05,11.05,0,0,1,11-11H115.7a11.05,11.05,0,0,1,11,11v44.19A11.05,11.05,0,0,1,115.7,314.71Zm-33.14-22.1h22.1v-22.1H82.56Z"/><path class="cls-2" d="M226.18,314.71H182a11.05,11.05,0,0,1-11-11V259.47a11.05,11.05,0,0,1,11-11h44.19a11.05,11.05,0,0,1,11,11v44.19A11.05,11.05,0,0,1,226.18,314.71ZM193,292.61h22.1v-22.1H193Z"/><rect class="cls-3" x="70.61" y="176.6" width="44.19" height="44.19"/><path class="cls-2" d="M115.7,231.84H71.51a11.05,11.05,0,0,1-11-11V176.6a11.05,11.05,0,0,1,11-11H115.7a11.05,11.05,0,0,1,11,11V220.8A11.05,11.05,0,0,1,115.7,231.84Zm-33.14-22.1h22.1v-22.1H82.56Z"/><path class="cls-2" d="M226.18,231.84H182a11.05,11.05,0,0,1-11-11V176.6a11.05,11.05,0,0,1,11-11h44.19a11.05,11.05,0,0,1,11,11V220.8A11.05,11.05,0,0,1,226.18,231.84ZM193,209.75h22.1v-22.1H193Z"/><path class="cls-2" d="M115.7,149H71.51a11.05,11.05,0,0,1-11-11V93.74a11.05,11.05,0,0,1,11-11H115.7a11.05,11.05,0,0,1,11,11v44.19A11.05,11.05,0,0,1,115.7,149Zm-33.14-22.1h22.1v-22.1H82.56Z"/><rect class="cls-3" x="181.99" y="93.74" width="44.19" height="44.19"/><path class="cls-2" d="M226.18,149H182a11,11,0,0,1,0-22.1h33.14v-22.1H182a11,11,0,0,1,0-22.1h44.19a11.05,11.05,0,0,1,11,11v44.19A11.05,11.05,0,0,1,226.18,149Z"/><path class="cls-2" d="M491.34,314.71H447.14a11.05,11.05,0,0,1-11-11V259.47a11.05,11.05,0,0,1,11-11h44.19a11.05,11.05,0,0,1,11,11v44.19A11.05,11.05,0,0,1,491.34,314.71Zm-33.14-22.1h22.1v-22.1h-22.1Z"/></svg>