<?xml version="1.0" encoding="utf-8"?>
<!-- Generator: Adobe Illustrator 22.1.0, SVG Export Plug-In . SVG Version: 6.00 Build 0)  -->
<svg version="1.1" id="Layer_1" xmlns="http://www.w3.org/2000/svg" xmlns:xlink="http://www.w3.org/1999/xlink" x="0px" y="0px"
	 viewBox="0 0 488 488" style="enable-background:new 0 0 488 488;" xml:space="preserve">
<style type="text/css">
	.st0{fill:#7076DA;}
</style>
<g>
	<g>
		<path class="st0" d="M415.7,90.3C369.7,50,308.8,27.8,244,27.8S118.3,50,72.3,90.3C25.7,131.2,0,185.8,0,243.9
			c0,45.9,16.7,90.9,47.2,127.8c-6,11.7-14.2,21-24.6,27.8c-8.6,5.6-12.7,15.7-10.4,25.7c2.2,9.9,10.2,17.1,20.2,18.5
			c20.6,2.9,60.8,4.3,98.1-18c8.5-5.1,11.3-16.2,6.2-24.7s-16.2-11.3-24.7-6.2c-15.6,9.3-32.1,13.1-46.4,14.2
			c8.2-9.8,14.7-21.3,19.5-34.3c2.4-6.4,0.9-13.5-3.6-18.5C51.7,324,36,285.1,36,243.9c0-99.3,93.3-180.1,208-180.1
			s208,80.8,208,180.1S358.7,424,244,424c-16.7,0-33.2-1.7-49.2-5.1c-9.7-2-19.3,4.2-21.3,13.9c-2.1,9.8,4.1,19.3,13.8,21.4
			c18.5,3.9,37.5,5.9,56.7,5.9c64.7,0,125.7-22.2,171.7-62.5c46.6-41,72.3-95.5,72.3-153.7S462.3,131.2,415.7,90.3z"/>
	</g>
</g>
<g>
	<g>
		<path class="st0" d="M344.7,157.6h-53c-9.9,0-18,8.1-18,18s8.1,18,18,18h53c9.9,0,18-8.1,18-18S354.6,157.6,344.7,157.6z"/>
	</g>
</g>
<g>
	<g>
		<path class="st0" d="M228,157.6h-84.6c-9.9,0-18,8.1-18,18s8.1,18,18,18H228c9.9,0,18-8.1,18-18S237.9,157.6,228,157.6z"/>
	</g>
</g>
<g>
	<g>
		<path class="st0" d="M344.6,225.9h-91.7c-9.9,0-18,8.1-18,18s8.1,18,18,18h91.7c9.9,0,18-8.1,18-18
			C362.6,234.1,354.5,225.9,344.6,225.9z"/>
	</g>
</g>
<g>
	<g>
		<path class="st0" d="M189.1,225.9h-45.8c-9.9,0-18,8.1-18,18s8.1,18,18,18h45.8c9.9,0,18-8.1,18-18
			C207.1,234.1,199,225.9,189.1,225.9z"/>
	</g>
</g>
<g>
	<g>
		<path class="st0" d="M344.7,294.2h-30.2c-9.9,0-18,8.1-18,18s8.1,18,18,18h30.2c9.9,0,18-8.1,18-18S354.6,294.2,344.7,294.2z"/>
	</g>
</g>
<g>
	<g>
		<path class="st0" d="M250.7,294.2H143.3c-9.9,0-18,8.1-18,18s8.1,18,18,18h107.4c9.9,0,18-8.1,18-18S260.6,294.2,250.7,294.2z"/>
	</g>
</g>
</svg>
