<?xml version="1.0" encoding="UTF-8" standalone="no"?>
<svg
   xmlns:dc="http://purl.org/dc/elements/1.1/"
   xmlns:cc="http://creativecommons.org/ns#"
   xmlns:rdf="http://www.w3.org/1999/02/22-rdf-syntax-ns#"
   xmlns:svg="http://www.w3.org/2000/svg"
   xmlns="http://www.w3.org/2000/svg"
   xmlns:xlink="http://www.w3.org/1999/xlink"
   xmlns:sodipodi="http://sodipodi.sourceforge.net/DTD/sodipodi-0.dtd"
   xmlns:inkscape="http://www.inkscape.org/namespaces/inkscape"
   version="1.1"
   width="49.687927"
   height="68.571083"
   id="svg2"
   inkscape:version="0.48.2 r9819"
   sodipodi:docname="AJAX.svg">
  <metadata
     id="metadata18">
    <rdf:RDF>
      <cc:Work
         rdf:about="">
        <dc:format>image/svg+xml</dc:format>
        <dc:type
           rdf:resource="http://purl.org/dc/dcmitype/StillImage" />
      </cc:Work>
    </rdf:RDF>
  </metadata>
  <sodipodi:namedview
     pagecolor="#ffffff"
     bordercolor="#666666"
     borderopacity="1"
     objecttolerance="10"
     gridtolerance="10"
     guidetolerance="10"
     inkscape:pageopacity="0"
     inkscape:pageshadow="2"
     inkscape:window-width="1280"
     inkscape:window-height="1004"
     id="namedview16"
     showgrid="false"
     fit-margin-top="0"
     fit-margin-left="0"
     fit-margin-right="0"
     fit-margin-bottom="0"
     inkscape:zoom="5.3666668"
     inkscape:cx="79.983736"
     inkscape:cy="16.739179"
     inkscape:window-x="-8"
     inkscape:window-y="-8"
     inkscape:window-maximized="1"
     inkscape:current-layer="svg2" />
  <defs
     id="defs4">
    <linearGradient
       id="black-gradient">
      <stop
         id="black1"
         style="stop-color:#333333;stop-opacity:1"
         offset="0" />
      <stop
         id="black2"
         style="stop-color:#212121;stop-opacity:1"
         offset="1" />
    </linearGradient>
    <linearGradient
       id="blue-gradient">
      <stop
         id="blue1"
         style="stop-color:#33ccff;stop-opacity:1"
         offset="0" />
      <stop
         id="blue2"
         style="stop-color:#06c1ff;stop-opacity:1"
         offset="1" />
    </linearGradient>
    <linearGradient
       id="black"
       x1="3494.25"
       y1="-1044.3878"
       x2="3494.25"
       y2="-1028.5905"
       xlink:href="#black-gradient"
       gradientUnits="userSpaceOnUse"
       gradientTransform="matrix(4.2619852,0,0,4.2619852,-14710.634,4471.6445)" />
    <linearGradient
       id="blue"
       x1="3550.75"
       y1="-1045.5128"
       x2="3550.75"
       y2="-1026.9196"
       xlink:href="#blue-gradient"
       gradientUnits="userSpaceOnUse"
       gradientTransform="matrix(4.2619852,0,0,4.2619852,-14725.634,4456.5085)" />
  </defs>
  <path
     id="twitter"
     d="m 41.355747,34.359698 c 2.284424,0 4.247495,-0.84302 5.881114,-2.525652 1.634897,-1.684763 2.451067,-3.707075 2.451067,-6.0631 0,-2.358157 -0.81617,-4.37919 -2.457034,-6.062674 -1.639586,-1.684763 -3.606066,-2.52821 -5.898588,-2.52821 l -24.682861,0 0,-8.5896054 c 0,-2.360287 -0.81276,-4.3796156 -2.436577,-6.0609686 C 12.595019,0.84089 10.643029,0 8.373948,0 6.035823,0 4.054426,0.826825 2.432741,2.478344 0.811482,4.131568 0,6.1713536 0,8.5968496 L 0,42.883243 c 0,7.079583 2.432741,13.13075 7.303764,18.152647 4.867187,5.025733 10.729122,7.53519 17.587082,7.53519 l 16.467032,0 c 2.287408,0 4.244085,-0.841316 5.87813,-2.5248 1.634471,-1.680927 2.450642,-3.706649 2.450642,-6.063527 0,-2.358156 -0.816171,-4.377485 -2.450642,-6.061821 -1.634045,-1.685189 -3.597115,-2.529915 -5.881539,-2.529915 l -16.470868,0 c -2.287408,0 -4.233004,-0.827251 -5.835511,-2.479623 -1.60208,-1.659617 -2.401202,-3.669995 -2.401202,-6.035823 l 0,-8.516725 24.708859,0 z"
     style="fill:#33ccff;fill-opacity:1;stroke:none"
     inkscape:connector-curvature="0"
     sodipodi:nodetypes="ccscscscscsscsscscsscsccc" />
</svg>
