<svg xmlns="http://www.w3.org/2000/svg" xmlns:xlink="http://www.w3.org/1999/xlink" id="Layer_1" x="0" y="0" enable-background="new 0 0 566.9 566.9" version="1.1" viewBox="0 0 566.9 566.9" xml:space="preserve"><style type="text/css">.st0{fill:#63d2d6}.st1{fill:#fff}.st2{fill:#5629b6}.st3{fill:#2a457f}</style><rect width="45.5" height="75.9" x="218.4" y="149" class="st0"/><path d="M323.5,103.5h-81.2l40.6-30.3L323.5,103.5z" class="st1"/><path d="M323.5,111.1h-81.2c-4.2,0-7.6-3.4-7.6-7.6c0-2.4,1.1-4.7,3.1-6.1l40.6-30.3c2.7-2,6.4-2,9.1,0L328,97.4	c3.4,2.5,4,7.3,1.5,10.6C328.1,110,325.8,111.1,323.5,111.1L323.5,111.1z M265.1,95.9h35.5l-17.8-13.3L265.1,95.9z" class="st2"/><path d="M282.9,369c-1.6,0-3.2-0.5-4.5-1.5L231,332.2c-3.2-2.7-3.5-7.5-0.8-10.7c2.5-2.8,6.6-3.5,9.8-1.5l42.9,31.9	l105.5-79l66.5-49.5c1.6-1.5,2.5-3.6,2.5-5.8v-0.1c0-4.2,3.4-7.6,7.6-7.6l0,0c4.2,0,7.6,3.4,7.6,7.6v102c0,4.2-3.4,7.6-7.6,7.6	c-4.2,0-7.6-3.4-7.6-7.6l0,0v-79l-59.9,44.6l-110,82.3C286.1,368.5,284.5,369,282.9,369L282.9,369z" class="st2"/><path d="M138.8,444.9h-7.6c-20.9-0.1-37.8-17-37.9-37.9V217.6c0-4.2,3.4-7.6,7.6-7.6l0,0c4.2,0,7.6,3.4,7.6,7.6v0.1	c0,2.2,0.9,4.3,2.5,5.8l102.1,76c3.4,2.5,4.1,7.2,1.6,10.6c-2.5,3.4-7.2,4.1-10.6,1.6l0,0l-95.6-71.2v166.4	c0.1,12.5,10.2,22.7,22.8,22.8h7.6c4.2,0.2,7.5,3.7,7.3,7.9C145.9,441.5,142.8,444.7,138.8,444.9L138.8,444.9z" class="st2"/><path d="M267.7,444.9c-4.2-0.2-7.5-3.7-7.3-7.9c0.1-4,3.3-7.2,7.3-7.3h166.9c12.5-0.1,22.7-10.2,22.8-22.8v-49.3	c-0.2-4.2,3.1-7.7,7.3-7.9c4.2-0.2,7.7,3.1,7.9,7.3c0,0.2,0,0.4,0,0.6v49.3c-0.1,20.9-17,37.8-37.9,37.9L267.7,444.9z" class="st2"/><path d="M229.8,444.9h-60.7c-4.2-0.2-7.5-3.7-7.3-7.9c0.1-4,3.3-7.2,7.3-7.3h60.7c4.2,0.2,7.5,3.7,7.3,7.9	C237,441.5,233.8,444.7,229.8,444.9z" class="st2"/><path d="M172.9,286.7c-4.2,0-7.6-3.4-7.6-7.6V103.5c0-4.2,3.4-7.6,7.6-7.6l0,0h166.9c4.2,0,7.6,3.4,7.6,7.6	s-3.4,7.6-7.6,7.6H180.5v168C180.5,283.3,177.1,286.7,172.9,286.7L172.9,286.7z" class="st2"/><path d="M392.9,286.7c-4.2,0-7.6-3.4-7.6-7.6v-168h-7.6c-4.2,0-7.6-3.4-7.6-7.6s3.4-7.6,7.6-7.6h15.2	c4.2,0,7.6,3.4,7.6,7.6v175.6C400.5,283.3,397.1,286.7,392.9,286.7L392.9,286.7z" class="st2"/><path d="M465,225.6c-4.2,0-7.6-3.4-7.6-7.6v-1.1c0-2.2-0.9-4.4-2.5-5.9l-66.5-49.5c-3.4-2.5-4.1-7.3-1.6-10.6	c2.5-3.4,7.3-4.1,10.6-1.6l66.8,49.7c0.2,0.1,0.3,0.2,0.5,0.4c5,4.4,7.9,10.8,7.9,17.5v1.1C472.6,222.2,469.2,225.6,465,225.6	L465,225.6z" class="st2"/><path d="M172.9,286.7c-1.6,0-3.2-0.5-4.5-1.5l-66.8-49.7l-0.5-0.4c-5-4.4-7.9-10.8-7.9-17.5v-1.1	c0-6.7,2.9-13.1,7.9-17.5c0.2-0.1,0.3-0.3,0.5-0.4l66.8-49.3c3.4-2.5,8.1-1.8,10.6,1.6c2.5,3.4,1.8,8.1-1.6,10.6l0,0L111,210.7	c-1.6,1.5-2.5,3.6-2.5,5.9v1.2c0,2.2,0.9,4.4,2.5,5.9l66.5,49.4c3.4,2.5,4,7.3,1.5,10.6C177.6,285.5,175.3,286.7,172.9,286.7	L172.9,286.7z" class="st3"/><path d="M172.9,286.7c-1.6,0-3.2-0.5-4.5-1.5l-66.8-49.7l-0.5-0.4c-5-4.4-7.9-10.8-7.9-17.5v-1.1	c0-6.7,2.9-13.1,7.9-17.5c0.2-0.1,0.3-0.3,0.5-0.4l66.8-49.3c3.4-2.5,8.1-1.8,10.6,1.6c2.5,3.4,1.8,8.1-1.6,10.6l0,0L111,210.7	c-1.6,1.5-2.5,3.6-2.5,5.9v1.2c0,2.2,0.9,4.4,2.5,5.9l66.5,49.4c3.4,2.5,4,7.3,1.5,10.6C177.6,285.5,175.3,286.7,172.9,286.7	L172.9,286.7z" class="st2"/><path d="M100.9,225.6c-4.2,0-7.6-3.4-7.6-7.6v-1.1c0-6.7,2.9-13.1,7.9-17.5l0.5-0.4l66.8-49.7c3.3-2.6,8.1-2.1,10.7,1.2	c2.6,3.3,2.1,8.1-1.2,10.7c-0.1,0.1-0.3,0.2-0.4,0.3L111,211c-1.6,1.5-2.5,3.6-2.5,5.9v1.2C108.5,222.2,105.1,225.6,100.9,225.6	L100.9,225.6L100.9,225.6z" class="st2"/><path d="M264,232.5h-45.5c-4.2,0-7.6-3.4-7.6-7.6l0,0v-26.6c0-4.2,3.4-7.6,7.6-7.6c4.2,0,7.6,3.4,7.6,7.6v19h30.3v-60.7	H226V168c0,4.2-3.4,7.6-7.6,7.6c-4.2,0-7.6-3.4-7.6-7.6v-19c0-4.2,3.4-7.6,7.6-7.6h45.5c4.2,0,7.6,3.4,7.6,7.6v75.9	C271.5,229,268.1,232.4,264,232.5L264,232.5z" class="st2"/><path d="M347.4,156.6h-53.1c-4.2,0-7.6-3.4-7.6-7.6c0-4.2,3.4-7.6,7.6-7.6h53.1c4.2,0,7.6,3.4,7.6,7.6	C355,153.2,351.6,156.6,347.4,156.6L347.4,156.6z" class="st2"/><path d="M347.4,194.5h-53.1c-4.2,0-7.6-3.4-7.6-7.6c0-4.2,3.4-7.6,7.6-7.6h53.1c4.2,0,7.6,3.4,7.6,7.6	C355,191.1,351.6,194.5,347.4,194.5L347.4,194.5z" class="st2"/><path d="M347.4,232.5h-53.1c-4.2,0-7.6-3.4-7.6-7.6c0-4.2,3.4-7.6,7.6-7.6h53.1c4.2,0,7.6,3.4,7.6,7.6	C355,229.1,351.6,232.5,347.4,232.5L347.4,232.5z" class="st2"/><path d="M347.4,270.4h-26.6c-4.2,0-7.6-3.4-7.6-7.6s3.4-7.6,7.6-7.6h26.5c4.2,0,7.6,3.4,7.6,7.6	S351.6,270.4,347.4,270.4L347.4,270.4z" class="st2"/><path d="M282.9,270.4h-64.5c-4.2,0-7.6-3.4-7.6-7.6s3.4-7.6,7.6-7.6l0,0h64.5c4.2,0,7.6,3.4,7.6,7.6	S287.1,270.4,282.9,270.4L282.9,270.4z" class="st2"/><path d="M309.5,308.3h-53.1c-4.2,0-7.6-3.4-7.6-7.6c0-4.2,3.4-7.6,7.6-7.6h53.1c4.2,0,7.6,3.4,7.6,7.6	C317,304.9,313.6,308.3,309.5,308.3z" class="st2"/></svg>