<svg xmlns="http://www.w3.org/2000/svg" xmlns:xlink="http://www.w3.org/1999/xlink" id="Layer_1" x="0" y="0" enable-background="new 0 0 566.9 566.9" version="1.1" viewBox="0 0 566.9 566.9" xml:space="preserve"><style type="text/css">.st0{fill:#63d2d6}.st1{fill:#fff}.st2{fill:#5629b6}</style><path d="M391.8,250.1l35.9-21.5L391.8,207l24.9-33.6l-41.4-6.2l10.1-40.6l-40.6,10.2l-6.2-41.4L305,120.3l-21.5-35.9	L262,120.3l-33.6-24.9l-6.2,41.4l-40.6-10.1l10.1,40.6l-41.4,6.2l24.9,33.6l-35.9,21.5l35.9,21.5l-24.9,33.6l41.4,6.2l-10.1,40.6	l40.6-10.1l6.2,41.4l33.6-24.9l21.5,35.9l21.5-35.9l33.6,24.9l6.2-41.4l40.6,10.1l-10.2-40.6l41.4-6.2L391.8,250.1z" class="st0"/><g><circle cx="283.5" cy="228.5" r="77.6" class="st1"/></g><g><path d="M283.5,380.1L283.5,380.1c-2.6,0-5-1.4-6.3-3.6l-17.3-28.9l-27.1,20.1c-2.1,1.5-4.8,1.9-7.2,0.9 s-4.1-3.2-4.5-5.7l-5-33.3l-32.7,8.2c-2.5,0.6-5.2-0.1-7-1.9s-2.6-4.5-1.9-7l8.2-32.7l-33.3-5c-2.6-0.4-4.7-2.1-5.7-4.5 s-0.7-5.1,0.9-7.2l24.9-33.6c2.4-3.3,7.1-4,10.3-1.5c3.3,2.4,4,7.1,1.5,10.3l-17.6,23.7l29.2,4.3c2.1,0.3,3.9,1.5,5.1,3.2 c1.2,1.7,1.5,3.9,1,5.9l-7.2,28.6l28.7-7.2c2-0.5,4.2-0.1,5.9,1c1.7,1.2,2.9,3,3.2,5.1l4.3,29.2l23.7-17.6c1.7-1.2,3.8-1.7,5.8-1.3 c2,0.4,3.8,1.7,4.9,3.5l15.2,25.3l15.2-25.3c1.1-1.8,2.8-3,4.9-3.4s4.2,0.1,5.8,1.3l23.7,17.6l4.3-29.2c0.3-2.1,1.5-3.9,3.2-5.1 s3.9-1.5,5.9-1l28.7,7.2l-7.2-28.7c-0.5-2-0.1-4.2,1-5.9c1.2-1.7,3-2.9,5.1-3.2l29.2-4.3l-17.6-23.7c-1.2-1.7-1.7-3.8-1.3-5.8 c0.4-2,1.7-3.8,3.5-4.9l25.3-15.2l-25.3-15.2c-1.8-1.1-3-2.8-3.4-4.9c-0.4-2,0.1-4.2,1.3-5.8l17.6-23.7l-29.2-4.3 c-2.1-0.3-3.9-1.5-5.1-3.2s-1.5-3.9-1-5.9l10.1-40.6c1-4,5-6.4,9-5.4s6.4,5,5.4,9l-8.2,32.7l33.3,5c2.6,0.4,4.7,2.1,5.7,4.5 s0.7,5.1-0.9,7.2l-20.1,27.1l28.9,17.3c2.2,1.3,3.6,3.7,3.6,6.3s-1.4,5-3.6,6.3l-28.9,17.3l20.1,27.1c1.5,2.1,1.9,4.8,0.9,7.2 c-1,2.4-3.2,4.1-5.7,4.5l-33.3,5l8.2,32.7c0.6,2.5-0.1,5.2-1.9,7s-4.5,2.6-7,1.9l-32.7-8.2l-5,33.3c-0.4,2.6-2.1,4.7-4.5,5.7 s-5.1,0.7-7.2-0.9l-27.1-20.1l-17.3,28.9C288.5,378.7,286.1,380.1,283.5,380.1z M139.4,235.9c-2.5,0-5-1.3-6.3-3.6 c-2.1-3.5-1-8,2.5-10.1l28.9-17.3l-20.1-27.1c-1.5-2.1-1.9-4.8-0.9-7.2s3.2-4.1,5.7-4.5l33.3-5l-8.2-32.7c-0.6-2.5,0.1-5.2,1.9-7 c1.8-1.8,4.5-2.6,7-1.9l32.7,8.2l5-33.3c0.4-2.6,2.1-4.7,4.5-5.7s5.1-0.7,7.2,0.9l27.1,20.1L277,80.8c1.3-2.2,3.7-3.6,6.3-3.6l0,0 c2.6,0,5,1.4,6.3,3.6l17.3,28.9L334,89.6c2.1-1.5,4.8-1.9,7.2-0.9c2.4,1,4.1,3.2,4.5,5.7l6.2,41.4c0.6,4-2.2,7.8-6.2,8.4 c-4.1,0.6-7.8-2.2-8.4-6.2l-4.3-29.2l-23.7,17.6c-1.7,1.2-3.8,1.7-5.8,1.3s-3.8-1.7-4.9-3.4L283.4,99l-15.2,25.3 c-1.1,1.8-2.8,3-4.9,3.4c-2,0.4-4.2-0.1-5.8-1.3l-23.7-17.6l-4.3,29.2c-0.3,2.1-1.5,3.9-3.2,5.1c-1.7,1.2-3.9,1.5-5.9,1l-28.6-7.2 l7.2,28.7c0.5,2,0.1,4.2-1,5.9c-1.2,1.7-3,2.9-5.1,3.2l-29.2,4.3l17.6,23.7c1.2,1.7,1.7,3.8,1.3,5.8s-1.7,3.8-3.4,4.9l-35.9,21.5 C142,235.6,140.7,235.9,139.4,235.9z" class="st2"/><path d="M210.4,262.1c-3,0-5.9-1.9-7-4.9c-15.8-44.1,7.2-92.9,51.3-108.7c34.5-12.4,72.8-1.3,95.5,27.4 c2.5,3.2,2,7.9-1.2,10.4s-7.9,2-10.4-1.2c-18.7-23.7-50.4-32.8-78.9-22.6c-36.4,13.1-55.5,53.4-42.4,89.8c1.4,3.8-0.6,8.1-4.5,9.5 C212.1,262,211.3,262.1,210.4,262.1z" class="st2"/><path d="M283.5,313.5c-24.2,0-47.3-10.4-63.4-28.4c-2.7-3-2.5-7.7,0.6-10.4c3-2.7,7.7-2.5,10.4,0.6 c13.3,14.9,32.4,23.5,52.4,23.5c38.7,0,70.2-31.5,70.2-70.2c0-3.4-0.2-6.7-0.7-10c-0.6-4,2.2-7.8,6.2-8.4c4-0.6,7.8,2.2,8.4,6.2 s0.9,8.1,0.9,12.2C368.5,275.4,330.4,313.5,283.5,313.5z" class="st2"/><path d="M336.7,489.9c-0.2,0-0.3,0-0.5,0c-2.8-0.2-5.3-1.9-6.3-4.5L281.3,368c-0.9-2.2-0.7-4.6,0.5-6.6l17-28.3 c1.1-1.8,2.8-3,4.9-3.4s4.2,0.1,5.8,1.3l23.7,17.6l4.4-29.2c0.3-2.1,1.5-3.9,3.2-5.1s3.9-1.5,5.9-1l32,8c2.3,0.6,4.1,2.2,5,4.3 l17.5,42.2c1.6,3.8-0.2,8.1-4,9.7s-8.1-0.2-9.7-4l-16.1-38.8l-20.5-5.1l-5,33.3c-0.4,2.6-2.1,4.7-4.5,5.7s-5.1,0.7-7.2-0.9 l-27-20.1l-10.9,18.1l41.5,100.1l22.8-39.5c1.7-2.9,5.1-4.3,8.3-3.4l44,11.8l-14.5-35.1c-1.6-3.8,0.2-8.1,4-9.7s8.1,0.2,9.7,4 l20.3,49c1.1,2.6,0.6,5.6-1.3,7.7s-4.8,3-7.5,2.3l-53.1-14.3l-27.4,47.6C341.8,488.5,339.3,489.9,336.7,489.9z" class="st2"/><path d="M230.3,489.9c-2.6,0-5.1-1.4-6.4-3.7l-27.4-47.6l-6.7,1.8c-3.9,1.1-8-1.3-9.1-5.2c-1.1-3.9,1.3-8,5.2-9.1 l12.2-3.3c3.2-0.9,6.7,0.5,8.3,3.4l22.8,39.5l17.7-42.7c1.6-3.8,5.9-5.6,9.7-4c3.8,1.6,5.6,5.9,4,9.7l-23.4,56.6 c-1.1,2.6-3.5,4.4-6.3,4.5C230.6,489.9,230.5,489.9,230.3,489.9z" class="st2"/><path d="M141.5,453.1c-2.1,0-4.1-0.9-5.6-2.5c-1.9-2.1-2.4-5.1-1.3-7.7l48.6-117.4c0.9-2.2,2.8-3.8,5-4.3l32-8 c2-0.5,4.2-0.1,5.9,1c1.7,1.2,2.9,3,3.2,5.1l4.4,29.2l23.7-17.6c1.7-1.2,3.8-1.7,5.8-1.3c2,0.4,3.8,1.7,4.9,3.4l17,28.3 c1.2,2,1.4,4.5,0.5,6.6l-12.9,31c-1.6,3.8-5.9,5.6-9.7,4c-3.8-1.6-5.6-5.9-4-9.7l11.4-27.6l-10.9-18.1l-27.1,20.1 c-2.1,1.5-4.8,1.9-7.2,0.9s-4.1-3.2-4.5-5.7l-5-33.3l-20.5,5.1l-41.5,100.1c3.8-0.9,7.8,1.4,8.8,5.3c1.1,3.9-1.3,8-5.2,9.1 l-14.2,3.8C142.8,453,142.1,453.1,141.5,453.1z" class="st2"/></g></svg>