<svg xmlns="http://www.w3.org/2000/svg" xmlns:xlink="http://www.w3.org/1999/xlink" id="Layer_1" x="0" y="0" enable-background="new 0 0 566.9 566.9" version="1.1" viewBox="0 0 566.9 566.9" xml:space="preserve"><style type="text/css">.st0{fill:#63d2d6}.st1{fill:#5629b6}</style><g><path d="M200.4,100.6L200.4,100.6c8.4,0,15.2,6.8,15.2,15.2V154c0,8.4-6.8,15.2-15.2,15.2l0,0 c-8.4,0-15.2-6.8-15.2-15.2v-38.1C185.1,107.4,191.9,100.6,200.4,100.6z" class="st0"/><path d="M375.7,100.6L375.7,100.6c8.4,0,15.2,6.8,15.2,15.2V154c0,8.4-6.8,15.2-15.2,15.2l0,0 c-8.4,0-15.2-6.8-15.2-15.2v-38.1C360.4,107.4,367.3,100.6,375.7,100.6z" class="st0"/></g><rect width="45.7" height="45.7" x="265.2" y="268.3" class="st0"/><rect width="45.7" height="45.7" x="173.7" y="367.4" class="st0"/><g><path d="M360.4,138.7H215.6c-4.2,0-7.6-3.4-7.6-7.6c0-4.2,3.4-7.6,7.6-7.6h144.8c4.2,0,7.6,3.4,7.6,7.6 C368.1,135.3,364.7,138.7,360.4,138.7z" class="st1"/><path d="M120.3,298.8c-4.2,0-7.6-3.4-7.6-7.6V146.4c0-12.6,10.3-22.9,22.9-22.9h49.5c4.2,0,7.6,3.4,7.6,7.6 c0,4.2-3.4,7.6-7.6,7.6h-49.5c-4.2,0-7.6,3.4-7.6,7.6v144.8C127.9,295.4,124.5,298.8,120.3,298.8z" class="st1"/><path d="M440.5,474.1H135.6c-12.6,0-22.9-10.3-22.9-22.9v-122c0-4.2,3.4-7.6,7.6-7.6c4.2,0,7.6,3.4,7.6,7.6v122 c0,4.2,3.4,7.6,7.6,7.6h304.9c4.2,0,7.6-3.4,7.6-7.6v-61c0-4.2,3.4-7.6,7.6-7.6s7.6,3.4,7.6,7.6v61 C463.4,463.9,453.1,474.1,440.5,474.1z" class="st1"/><path d="M455.7,359.8c-4.2,0-7.6-3.4-7.6-7.6V146.4c0-4.2-3.4-7.6-7.6-7.6h-49.6c-4.2,0-7.6-3.4-7.6-7.6 c0-4.2,3.4-7.6,7.6-7.6h49.5c12.6,0,22.9,10.3,22.9,22.9v205.8C463.4,356.4,459.9,359.8,455.7,359.8z" class="st1"/><path d="M200.4,176.9c-12.6,0-22.9-10.3-22.9-22.9v-38.1c0-12.6,10.3-22.9,22.9-22.9s22.9,10.3,22.9,22.9V154 C223.2,166.6,213,176.9,200.4,176.9z M200.4,108.2c-4.2,0-7.6,3.4-7.6,7.6V154c0,4.2,3.4,7.6,7.6,7.6s7.6-3.4,7.6-7.6v-38.1 C208,111.7,204.6,108.2,200.4,108.2z" class="st1"/><path d="M375.7,176.9c-4.2,0-7.6-3.4-7.6-7.6c0-4.2,3.4-7.6,7.6-7.6c4.2,0,7.6-3.4,7.6-7.6v-38.1 c0-4.2-3.4-7.6-7.6-7.6c-4.2,0-7.6,3.4-7.6,7.6v30.5c0,4.2-3.4,7.6-7.6,7.6c-4.2,0-7.6-3.4-7.6-7.6v-30.5 c0-12.6,10.3-22.8,22.8-22.9c12.6,0,22.9,10.3,22.9,22.8V154C398.5,166.6,388.3,176.8,375.7,176.9 C375.7,176.9,375.7,176.9,375.7,176.9z" class="st1"/><path d="M455.7,222.6H280.4c-4.2,0-7.6-3.4-7.6-7.6c0-4.2,3.4-7.6,7.6-7.6h175.3c4.2,0,7.6,3.4,7.6,7.6 C463.4,219.2,459.9,222.6,455.7,222.6z" class="st1"/><path d="M242.3,222.6h-122c-4.2,0-7.6-3.4-7.6-7.6c0-4.2,3.4-7.6,7.6-7.6h122c4.2,0,7.6,3.4,7.6,7.6 C249.9,219.2,246.5,222.6,242.3,222.6z" class="st1"/><path d="M219.4,321.7h-45.7c-4.2,0-7.6-3.4-7.6-7.6v-45.7c0-4.2,3.4-7.6,7.6-7.6h45.7c4.2,0,7.6,3.4,7.6,7.6v45.7 C227,318.3,223.6,321.7,219.4,321.7z M181.3,306.4h30.5V276h-30.5V306.4z" class="st1"/><path d="M310.9,321.7h-45.7c-4.2,0-7.6-3.4-7.6-7.6v-45.7c0-4.2,3.4-7.6,7.6-7.6h45.7c4.2,0,7.6,3.4,7.6,7.6v45.7 C318.5,318.3,315.1,321.7,310.9,321.7z M272.8,306.4h30.5V276h-30.5V306.4L272.8,306.4z" class="st1"/><path d="M402.4,321.7h-45.7c-4.2,0-7.6-3.4-7.6-7.6v-45.7c0-4.2,3.4-7.6,7.6-7.6h45.7c4.2,0,7.6,3.4,7.6,7.6v22.9 c0,4.2-3.4,7.6-7.6,7.6s-7.6-3.4-7.6-7.6V276h-30.5v30.5h38.1c4.2,0,7.6,3.4,7.6,7.6C410,318.3,406.6,321.7,402.4,321.7z" class="st1"/><path d="M219.4,420.8h-15.2c-4.2,0-7.6-3.4-7.6-7.6s3.4-7.6,7.6-7.6h7.6v-30.5h-30.5v30.5c4.2,0,7.6,3.4,7.6,7.6 s-3.4,7.6-7.6,7.6h-7.6c-4.2,0-7.6-3.4-7.6-7.6v-45.7c0-4.2,3.4-7.6,7.6-7.6h45.7c4.2,0,7.6,3.4,7.6,7.6v45.7 C227,417.4,223.6,420.8,219.4,420.8z" class="st1"/><path d="M310.9,420.8h-45.7c-4.2,0-7.6-3.4-7.6-7.6v-45.7c0-4.2,3.4-7.6,7.6-7.6h45.7c4.2,0,7.6,3.4,7.6,7.6v45.7 C318.5,417.4,315.1,420.8,310.9,420.8z M272.8,405.5h30.5V375h-30.5V405.5L272.8,405.5z" class="st1"/></g></svg>