<svg xmlns="http://www.w3.org/2000/svg" xmlns:xlink="http://www.w3.org/1999/xlink" id="Layer_1" x="0" y="0" enable-background="new 0 0 566.9 566.9" version="1.1" viewBox="0 0 566.9 566.9" xml:space="preserve"><style type="text/css">.st0{fill:#fff}.st1{fill:#63d2d6}.st2{fill:#5629b6}</style><path d="M144.5,140.8V192h-36.6c-12.1,0-21.9,9.8-21.9,22c0,0,0,0,0,0v168.2c0,24.2,19.7,43.9,43.9,43.9H459	c12.1,0,21.9-9.8,21.9-21.9l0,0V140.8c0-12.1-9.8-21.9-21.9-21.9c0,0,0,0,0,0H166.4C154.3,118.9,144.5,128.7,144.5,140.8	C144.5,140.8,144.5,140.8,144.5,140.8L144.5,140.8z" class="st0"/><rect width="87.8" height="109.7" x="188.4" y="162.8" class="st1"/><path d="M481,342c-4,0-7.3-3.3-7.3-7.3V140.8c-0.1-8.1-6.6-14.6-14.6-14.6H342c-4,0-7.3-3.3-7.3-7.3	c0-4,3.3-7.3,7.3-7.3h117c16.1,0.1,29.2,13.1,29.3,29.2v193.9C488.3,338.7,485,342,481,342L481,342z" class="st2"/><path d="M166.4,433.4h-36.6c-28.2-0.1-51.1-23-51.2-51.2V261.5c0-4,3.3-7.3,7.3-7.3c4,0,7.3,3.3,7.3,7.3v120.7	c0.1,20.2,16.4,36.5,36.6,36.6h36.6c4,0,7.3,3.3,7.3,7.3S170.5,433.4,166.4,433.4L166.4,433.4z" class="st2"/><path d="M203,433.4c-4,0-7.3-3.3-7.3-7.3s3.3-7.3,7.3-7.3l0,0h256c8.1-0.1,14.6-6.6,14.6-14.6v-32.9	c0-4,3.3-7.3,7.3-7.3s7.3,3.3,7.3,7.3v32.9c-0.1,16.1-13.1,29.2-29.3,29.3H203z" class="st2"/><path d="M86,232.3c-4,0-7.3-3.3-7.3-7.3V214c0.1-16.1,13.1-29.2,29.2-29.3h29.3v-43.9c0.1-16.1,13.1-29.2,29.2-29.3h139	c4,0,7.3,3.3,7.3,7.3c0,4-3.3,7.3-7.3,7.3h-139c-8.1,0.1-14.6,6.6-14.6,14.6V192c0,4-3.3,7.3-7.3,7.3h-36.6	c-8.1,0.1-14.6,6.6-14.6,14.7v10.9C93.3,229,90,232.2,86,232.3z" class="st2"/><path d="M144.5,389.5c-4,0-7.3-3.3-7.3-7.3v-73.1c0-4,3.3-7.3,7.3-7.3s7.3,3.3,7.3,7.3v73.1	C151.8,386.2,148.5,389.5,144.5,389.5z" class="st2"/><path d="M144.5,279.8c-4,0-7.3-3.3-7.3-7.3v-84.1c0-4,3.3-7.3,7.3-7.3s7.3,3.3,7.3,7.3v84.1	C151.8,276.5,148.5,279.8,144.5,279.8z" class="st2"/><path d="M276.1,279.8h-87.8c-4,0-7.3-3.3-7.3-7.3v-25.6c0-4,3.3-7.3,7.3-7.3s7.3,3.3,7.3,7.3v18.3h73.1v-95.1h-73.1	v40.2c0,4-3.3,7.3-7.3,7.3s-7.3-3.3-7.3-7.3v-47.5c0-4,3.3-7.3,7.3-7.3h0h87.8c4,0,7.3,3.3,7.3,7.3v0v109.7	C283.5,276.5,280.2,279.8,276.1,279.8z" class="st2"/><path d="M437.1,170.1H320c-4,0-7.3-3.3-7.3-7.3s3.3-7.3,7.3-7.3h117c4,0,7.3,3.3,7.3,7.3S441,170.1,437.1,170.1	L437.1,170.1L437.1,170.1z" class="st2"/><path d="M437.1,206.7h-43.9c-4,0-7.3-3.3-7.3-7.3s3.3-7.3,7.3-7.3h43.9c4,0,7.3,3.3,7.3,7.3S441.1,206.7,437.1,206.7z" class="st2"/><path d="M356.6,206.7H320c-4,0-7.3-3.3-7.3-7.3s3.3-7.3,7.3-7.3h36.6c4,0,7.3,3.3,7.3,7.3S360.6,206.6,356.6,206.7	L356.6,206.7z" class="st2"/><path d="M437.1,243.2H320c-4,0-7.3-3.3-7.3-7.3s3.3-7.3,7.3-7.3h117c4,0,7.3,3.3,7.3,7.3S441,243.2,437.1,243.2	L437.1,243.2L437.1,243.2z" class="st2"/><path d="M437.1,279.8h-21.9c-4,0-7.3-3.3-7.3-7.3s3.3-7.3,7.3-7.3h21.9c4,0,7.3,3.3,7.3,7.3S441.1,279.8,437.1,279.8z" class="st2"/><path d="M378.5,279.8H320c-4,0-7.3-3.3-7.3-7.3s3.3-7.3,7.3-7.3h58.5c4,0,7.3,3.3,7.3,7.3S382.6,279.8,378.5,279.8	L378.5,279.8z" class="st2"/><path d="M437.1,316.4H276.1c-4,0-7.3-3.3-7.3-7.3s3.3-7.3,7.3-7.3h160.9c4,0,7.3,3.3,7.3,7.3S441.1,316.4,437.1,316.4z" class="st2"/><path d="M239.6,316.4h-51.2c-4,0-7.3-3.3-7.3-7.3s3.3-7.3,7.3-7.3h51.2c4,0,7.3,3.3,7.3,7.3S243.6,316.4,239.6,316.4z" class="st2"/><path d="M437.1,353H188.4c-4,0-7.3-3.3-7.3-7.3s3.3-7.3,7.3-7.3h248.7c4,0,7.3,3.3,7.3,7.3S441.1,353,437.1,353z" class="st2"/><path d="M437.1,389.5h-47.5c-4,0-7.3-3.3-7.3-7.3s3.3-7.3,7.3-7.3h47.5c4,0,7.3,3.3,7.3,7.3S441.1,389.5,437.1,389.5z" class="st2"/><path d="M279.8,389.5h-91.4c-4,0-7.3-3.3-7.3-7.3s3.3-7.3,7.3-7.3h91.4c4,0,7.3,3.3,7.3,7.3S283.8,389.5,279.8,389.5z" class="st2"/><path d="M353,389.5h-36.6c-4,0-7.3-3.3-7.3-7.3s3.3-7.3,7.3-7.3H353c4,0,7.3,3.3,7.3,7.3S357,389.5,353,389.5z" class="st2"/></svg>