<svg xmlns="http://www.w3.org/2000/svg" xmlns:xlink="http://www.w3.org/1999/xlink" id="Layer_1" x="0" y="0" enable-background="new 0 0 566.9 566.9" version="1.1" viewBox="0 0 566.9 566.9" xml:space="preserve"><style type="text/css">.st0{fill:#fff}.st1{fill:#63d2d6}.st2{fill:#5629b6}</style><path d="M100.9,382.2h380.3c4,0,7.3,3.3,7.3,7.3c0,0,0,0,0,0c0,12.1-9.8,21.9-21.9,21.9l0,0H115.5	c-12.1,0-21.9-9.8-22-21.9c0,0,0,0,0,0C93.5,385.5,96.8,382.2,100.9,382.2C100.8,382.2,100.9,382.2,100.9,382.2z" class="st0"/><path d="M243.5,301.8h-36.6V199.4h131.7v36.6h-95.1V301.8z" class="st1"/><path d="M451.9,294.4c-4,0-7.3-3.3-7.3-7.3v-117c0-4-3.3-7.3-7.3-7.3h-38.4c-4,0-7.3-3.3-7.3-7.3s3.3-7.3,7.3-7.3h38.4	c12.1,0,21.9,9.8,21.9,21.9v117C459.2,291.2,456,294.4,451.9,294.4z" class="st2"/><path d="M164.9,389.5h-34.7c-4,0-7.3-3.3-7.3-7.3V170.1c0-12.1,9.8-21.9,22-21.9h151.8c4,0,7.3,3.3,7.3,7.3	s-3.3,7.3-7.3,7.3H144.8c-4,0-7.3,3.3-7.3,7.3v0v204.8h27.4c4,0,7.3,3.3,7.3,7.3S168.9,389.5,164.9,389.5L164.9,389.5z" class="st2"/><path d="M362.3,162.8h-36.6c-4,0-7.3-3.3-7.3-7.3s3.3-7.3,7.3-7.3h36.6c4,0,7.3,3.3,7.3,7.3S366.4,162.8,362.3,162.8z" class="st2"/><path d="M451.9,389.5H201.4c-4,0-7.3-3.3-7.3-7.3s3.3-7.3,7.3-7.3h243.2v-51.2c0-4,3.3-7.3,7.3-7.3s7.3,3.3,7.3,7.3	v58.5C459.3,386.2,456,389.5,451.9,389.5L451.9,389.5z" class="st2"/><path d="M314.8,418.8H115.5c-16.2,0-29.2-13.1-29.3-29.3c0.1-8,6.5-14.5,14.6-14.6h64.1c4,0,7.3,3.3,7.3,7.3	s-3.3,7.3-7.3,7.3h-64c0,8.1,6.6,14.6,14.6,14.6h199.3c4,0,7.3,3.3,7.3,7.3S318.8,418.8,314.8,418.8z" class="st2"/><path d="M466.6,418.8H351.4c-4,0-7.3-3.3-7.3-7.3s3.3-7.3,7.3-7.3h115.2c8.1,0,14.6-6.6,14.6-14.6H201.4	c-4,0-7.3-3.3-7.3-7.3s3.3-7.3,7.3-7.3h279.8c8.1,0,14.6,6.6,14.6,14.6C495.8,405.6,482.7,418.7,466.6,418.8L466.6,418.8z" class="st2"/><path d="M243.5,309.1h-36.6c-4,0-7.3-3.3-7.3-7.3c0,0,0,0,0,0V199.4c0-4,3.3-7.3,7.3-7.3h0h131.7c4,0,7.3,3.3,7.3,7.3	v36.6c0,4-3.3,7.3-7.3,7.3s-7.3-3.3-7.3-7.3v-29.3h-117v87.8h29.3c4,0,7.3,3.3,7.3,7.3S247.5,309.1,243.5,309.1L243.5,309.1z" class="st2"/><path d="M291,345.6h-47.5c-4,0-7.3-3.3-7.3-7.3l0,0v-51.2c0-4,3.3-7.3,7.3-7.3s7.3,3.3,7.3,7.3V331H291	c4,0,7.3,3.3,7.3,7.3S295,345.6,291,345.6L291,345.6z" class="st2"/><path d="M375.1,345.6h-47.5c-4,0-7.3-3.3-7.3-7.3s3.3-7.3,7.3-7.3h40.2v-87.8h-117v7.3c0,4-3.3,7.3-7.3,7.3	s-7.3-3.3-7.3-7.3l0,0v-14.6c0-4,3.3-7.3,7.3-7.3h0h131.6c4,0,7.3,3.3,7.3,7.3v102.4C382.5,342.4,379.2,345.6,375.1,345.6	C375.1,345.6,375.1,345.6,375.1,345.6z" class="st2"/></svg>