<svg xmlns="http://www.w3.org/2000/svg" xmlns:xlink="http://www.w3.org/1999/xlink" id="Layer_1" x="0" y="0" enable-background="new 0 0 566.9 566.9" version="1.1" viewBox="0 0 566.9 566.9" xml:space="preserve"><style type="text/css">.st0{fill:#5629b6}.st1{fill:#63d2d6}</style><path d="M195.4,433.4h-84.1c-20.1-0.1-36.4-16.4-36.6-36.6V148.1c0.1-20.2,16.4-36.5,36.6-36.6h204.8	c4,0,7.3,3.3,7.3,7.3c0,4-3.3,7.3-7.3,7.3H111.3c-12.1,0.1-21.9,9.9-21.9,22v248.6c0.1,12.1,9.9,21.9,22,22h84.1	c4,0,7.3,3.3,7.3,7.3S199.5,433.4,195.4,433.4L195.4,433.4z" class="st0"/><path d="M232,433.4c-4,0-7.3-3.3-7.3-7.3s3.3-7.3,7.3-7.3h215.7c12.1-0.1,21.9-9.9,22-22V232.3c0-4,3.3-7.3,7.3-7.3	s7.3,3.3,7.3,7.3v164.6c-0.1,20.1-16.4,36.4-36.5,36.6L232,433.4z" class="st0"/><path d="M477,203c-4,0-7.3-3.3-7.3-7.3v-47.5c-0.1-12.1-9.9-21.9-22-21.9h-95c-4,0-7.3-3.3-7.3-7.3c0-4,3.3-7.3,7.3-7.3	h95.1c20.2,0.1,36.5,16.4,36.6,36.5v47.6C484.3,199.7,481,203,477,203z" class="st0"/><path d="M279.4,312.7c-22.2,0-43.6-10.1-60.1-28.8l-79.9-90.8c-2.7-3-2.4-7.7,0.7-10.3c3-2.7,7.7-2.4,10.3,0.7	l79.9,90.8c16,18.2,37.5,26.5,58.9,23c4-0.8,7.8,1.8,8.6,5.7c0.8,4-1.8,7.8-5.7,8.6c-0.2,0-0.3,0.1-0.5,0.1	C287.6,312.4,283.5,312.8,279.4,312.7L279.4,312.7z" class="st0"/><path d="M319.7,299.5c-4,0-7.3-3.3-7.3-7.3c0-2.4,1.1-4.6,3.1-6c4.8-3.4,9.3-7.4,13.2-11.9l133.9-152	c2.7-3,7.3-3.3,10.3-0.7s3.3,7.3,0.7,10.3L339.7,284c-4.7,5.3-9.9,10.1-15.7,14.1C322.8,299,321.3,299.5,319.7,299.5L319.7,299.5z" class="st0"/><path d="M119.1,166.4c-2.1,0-4.1-0.9-5.5-2.5L85.5,132c-2.7-3-2.4-7.7,0.7-10.3s7.7-2.4,10.3,0.7l0,0l28.2,32	c2.7,3,2.4,7.7-0.7,10.3C122.6,165.8,120.9,166.5,119.1,166.4L119.1,166.4z" class="st0"/><path d="M175.5,307.9c-4,0-7.3-3.3-7.3-7.3c0-1.5,0.5-3,1.4-4.3l30.6-42.8c2.4-3.3,6.9-4,10.2-1.7s4,6.9,1.7,10.2	l-30.6,42.8C180.1,306.8,177.9,307.9,175.5,307.9L175.5,307.9z" class="st0"/><path d="M91.4,425.5c-4,0-7.3-3.3-7.3-7.3c0-1.5,0.5-3,1.3-4.2l41.6-58.1c2.3-3.3,6.9-4,10.2-1.7	c3.3,2.3,4,6.9,1.7,10.2l-41.6,58.1C95.9,424.4,93.7,425.6,91.4,425.5L91.4,425.5z" class="st0"/><path d="M467.6,425.5c-2.4,0-4.6-1.1-6-3.1L347,262.1c-2.3-3.3-1.6-7.9,1.7-10.2c3.3-2.3,7.9-1.6,10.2,1.7L473.6,414	c2.4,3.3,1.6,7.8-1.7,10.2C470.7,425.1,469.2,425.6,467.6,425.5L467.6,425.5z" class="st0"/><path d="M191.7,331c0,20.2-16.4,36.6-36.6,36.6c-20.2,0-36.6-16.4-36.6-36.6c0-20.2,16.4-36.6,36.6-36.6	S191.7,310.8,191.7,331L191.7,331z" class="st1"/><path d="M155.1,374.9c-19.9-0.1-37.4-13.5-42.4-32.8c-0.9-3.6-1.4-7.3-1.4-11.1c0-5.2,0.9-10.3,2.7-15.1	c1.6-3.7,5.9-5.5,9.6-3.9c3.5,1.5,5.3,5.4,4.1,9c-1.2,3.2-1.8,6.6-1.8,10c0,16.2,13.1,29.3,29.2,29.3s29.3-13.1,29.3-29.2	c0-2.5-0.3-5-0.9-7.4c-4.1-15.6-20-25-35.7-20.9c0,0,0,0,0,0c-3.9,1-7.9-1.3-8.9-5.2c-1-3.9,1.3-7.9,5.2-8.9	c23.5-6.1,47.4,8,53.5,31.5s-8,47.4-31.5,53.5C162.5,374.5,158.8,374.9,155.1,374.9L155.1,374.9z" class="st0"/></svg>