<svg version="1.2" baseProfile="tiny-ps" xmlns="http://www.w3.org/2000/svg" viewBox="0 0 567 567" width="567" height="567">
	<title>007-settings-svg</title>
	<style>
		tspan { white-space:pre }
		.shp0 { fill: #2a457f } 
		.shp1 { fill: #5629b6 } 
		.shp2 { fill: #a6caff } 
		.shp3 { fill: #63d2d6 } 
	</style>
	<g id="Layer">
		<path id="Layer" class="shp0" d="M369.76 496.55L302.26 496.55C298.05 496.55 294.63 493.13 294.63 488.92C294.63 484.7 298.05 481.28 302.26 481.28L369.76 481.28C372.03 481.28 374.25 480.81 376.34 479.87C380.29 478.11 383.31 474.92 384.85 470.89C386.39 466.85 386.27 462.46 384.51 458.52C378.34 445.35 375.07 431.18 374.83 416.51C374.76 412.3 378.13 408.82 382.35 408.76C386.54 408.86 390.04 412.05 390.1 416.27C390.3 428.76 393.09 440.85 398.39 452.17C401.88 459.96 402.11 468.5 399.11 476.34C396.11 484.19 390.24 490.4 382.57 493.82C378.5 495.63 374.2 496.55 369.76 496.55Z" />
		<path id="Color Fill 8" class="shp1" d="M369.76 496.55L302.26 496.55C298.05 496.55 294.63 493.13 294.63 488.92C294.63 484.7 298.05 481.28 302.26 481.28L369.76 481.28C372.03 481.28 374.25 480.81 376.34 479.87C380.29 478.11 383.31 474.92 384.85 470.89C386.39 466.85 386.27 462.46 384.51 458.52C378.34 445.35 375.07 431.18 374.83 416.51C374.76 412.3 378.13 408.82 382.35 408.76C386.54 408.86 390.04 412.05 390.1 416.27C390.3 428.76 393.09 440.85 398.39 452.17C401.88 459.96 402.11 468.5 399.11 476.34C396.11 484.19 390.24 490.4 382.57 493.82C378.5 495.63 374.2 496.55 369.76 496.55Z" />
		<path id="Layer" class="shp0" d="M264.09 496.55L257.37 496.55C240.04 496.53 225.94 482.42 225.91 465.11C225.91 463.59 225.76 462.07 225.47 460.59C224.27 454.58 220.8 449.41 215.71 446.02C210.62 442.63 204.52 441.43 198.51 442.62L186.11 445.09C184.12 445.5 182.17 445.67 180.03 445.7C163.22 445.68 149.55 431.97 149.56 415.15L149.56 367.29C149.56 364.8 148.37 362.48 146.34 361.05L122.24 347.15C122.09 347.07 121.95 346.98 121.82 346.89C121.76 346.85 121.69 346.81 121.62 346.75L121.62 346.75C118.26 344.44 116 340.96 115.26 336.95C114.52 332.93 115.39 328.88 117.7 325.52L151.54 281.02C154.63 276.56 155.98 270.83 155.14 265.15C150.35 234.14 155.91 206.53 171.68 183.15C174.03 179.66 178.78 178.73 182.27 181.09C185.77 183.45 186.69 188.19 184.33 191.69C170.79 211.78 166.05 235.73 170.24 262.87C171.65 272.47 169.39 282.08 163.88 290L130.29 334.16L154.22 347.97C154.36 348.05 154.51 348.14 154.65 348.23C161.03 352.49 164.84 359.62 164.84 367.29L164.84 415.16C164.83 423.57 171.65 430.42 180.06 430.43C180.07 430.43 180.08 430.43 180.09 430.43C181.1 430.43 182.11 430.33 183.09 430.13L195.52 427.65C205.51 425.64 215.69 427.65 224.18 433.31C232.67 438.97 238.44 447.59 240.44 457.58C240.94 460.05 241.18 462.58 241.18 465.1C241.2 474.01 248.46 481.27 257.38 481.28L264.09 481.28C268.3 481.28 271.72 484.7 271.72 488.92C271.72 493.13 268.3 496.55 264.09 496.55Z" />
		<path id="Color Fill 7" class="shp1" d="M264.09 496.55L257.37 496.55C240.04 496.53 225.94 482.42 225.91 465.11C225.91 463.59 225.76 462.07 225.47 460.59C224.27 454.58 220.8 449.41 215.71 446.02C210.62 442.63 204.52 441.43 198.51 442.62L186.11 445.09C184.12 445.5 182.17 445.67 180.03 445.7C163.22 445.68 149.55 431.97 149.56 415.15L149.56 367.29C149.56 364.8 148.37 362.48 146.34 361.05L122.24 347.15C122.09 347.07 121.95 346.98 121.82 346.89C121.76 346.85 121.69 346.81 121.62 346.75L121.62 346.75C118.26 344.44 116 340.96 115.26 336.95C114.52 332.93 115.39 328.88 117.7 325.52L151.54 281.02C154.63 276.56 155.98 270.83 155.14 265.15C150.35 234.14 155.91 206.53 171.68 183.15C174.03 179.66 178.78 178.73 182.27 181.09C185.77 183.45 186.69 188.19 184.33 191.69C170.79 211.78 166.05 235.73 170.24 262.87C171.65 272.47 169.39 282.08 163.88 290L130.29 334.16L154.22 347.97C154.36 348.05 154.51 348.14 154.65 348.23C161.03 352.49 164.84 359.62 164.84 367.29L164.84 415.16C164.83 423.57 171.65 430.42 180.06 430.43C180.07 430.43 180.08 430.43 180.09 430.43C181.1 430.43 182.11 430.33 183.09 430.13L195.52 427.65C205.51 425.64 215.69 427.65 224.18 433.31C232.67 438.97 238.44 447.59 240.44 457.58C240.94 460.05 241.18 462.58 241.18 465.1C241.2 474.01 248.46 481.27 257.38 481.28L264.09 481.28C268.3 481.28 271.72 484.7 271.72 488.92C271.72 493.13 268.3 496.55 264.09 496.55Z" />
		<path id="Layer" class="shp0" d="M392.16 385.85C390.85 385.85 389.52 385.51 388.31 384.81C384.67 382.68 383.44 378 385.57 374.36C390.23 366.39 395.84 359.19 401.79 351.56C418.55 330.05 435.87 307.82 435.87 263.69C435.87 222.85 423.4 169.55 364.01 147.55C360.06 146.08 358.04 141.69 359.5 137.74C360.97 133.78 365.37 131.77 369.32 133.23C422.08 152.78 451.14 199.11 451.14 263.69C451.14 313.06 431.32 338.5 413.83 360.94C408.21 368.16 402.9 374.98 398.76 382.07C397.33 384.5 394.78 385.85 392.16 385.85Z" />
		<path id="Color Fill 6" class="shp1" d="M392.16 385.85C390.85 385.85 389.52 385.51 388.31 384.81C384.67 382.68 383.44 378 385.57 374.36C390.23 366.39 395.84 359.19 401.79 351.56C418.55 330.05 435.87 307.82 435.87 263.69C435.87 222.85 423.4 169.55 364.01 147.55C360.06 146.08 358.04 141.69 359.5 137.74C360.97 133.78 365.37 131.77 369.32 133.23C422.08 152.78 451.14 199.11 451.14 263.69C451.14 313.06 431.32 338.5 413.83 360.94C408.21 368.16 402.9 374.98 398.76 382.07C397.33 384.5 394.78 385.85 392.16 385.85Z" />
		<path id="Layer" class="shp0" d="M204.66 167.72C202.31 167.72 199.99 166.64 198.5 164.6C196 161.2 196.74 156.43 200.14 153.93C227.39 133.92 264.62 122.44 302.26 122.44C309.53 122.44 316.46 122.74 322.84 123.32C327.04 123.7 330.14 127.41 329.76 131.61C329.37 135.81 325.66 138.93 321.46 138.52C315.54 137.98 309.07 137.71 302.26 137.71C267.8 137.71 233.87 148.11 209.17 166.24C207.81 167.24 206.23 167.72 204.66 167.72Z" />
		<path id="Color Fill 5" class="shp1" d="M204.66 167.72C202.31 167.72 199.99 166.64 198.5 164.6C196 161.2 196.74 156.43 200.14 153.93C227.39 133.92 264.62 122.44 302.26 122.44C309.53 122.44 316.46 122.74 322.84 123.32C327.04 123.7 330.14 127.41 329.76 131.61C329.37 135.81 325.66 138.93 321.46 138.52C315.54 137.98 309.07 137.71 302.26 137.71C267.8 137.71 233.87 148.11 209.17 166.24C207.81 167.24 206.23 167.72 204.66 167.72Z" />
		<path id="Layer" class="shp0" d="M298.45 107.17C294.23 107.17 290.81 103.75 290.81 99.54L290.81 76.63C290.81 72.42 294.23 69 298.45 69C302.66 69 306.08 72.42 306.08 76.63L306.08 99.54C306.08 103.75 302.66 107.17 298.45 107.17Z" />
		<path id="Color Fill 4" class="shp1" d="M298.45 107.17C294.23 107.17 290.81 103.75 290.81 99.54L290.81 76.63C290.81 72.42 294.23 69 298.45 69C302.66 69 306.08 72.42 306.08 76.63L306.08 99.54C306.08 103.75 302.66 107.17 298.45 107.17Z" />
		<path id="Layer" class="shp0" d="M244.4 117.92C241.4 117.92 238.56 116.15 237.34 113.21L228.57 92.05C226.96 88.15 228.81 83.69 232.71 82.07C236.6 80.46 241.07 82.31 242.68 86.21L251.45 107.37C253.06 111.27 251.21 115.73 247.31 117.34C246.36 117.74 245.37 117.92 244.4 117.92Z" />
		<path id="Color Fill 3" class="shp1" d="M244.4 117.92C241.4 117.92 238.56 116.15 237.34 113.21L228.57 92.05C226.96 88.15 228.81 83.69 232.71 82.07C236.6 80.46 241.07 82.31 242.68 86.21L251.45 107.37C253.06 111.27 251.21 115.73 247.31 117.34C246.36 117.74 245.37 117.92 244.4 117.92Z" />
		<path id="Layer" class="shp0" d="M352.49 117.92C351.52 117.92 350.53 117.74 349.57 117.34C345.68 115.73 343.83 111.26 345.44 107.37L354.21 86.21C355.82 82.31 360.27 80.45 364.18 82.07C368.08 83.68 369.93 88.15 368.31 92.05L359.55 113.21C358.33 116.15 355.49 117.92 352.49 117.92Z" />
		<path id="Color Fill 2" class="shp1" d="M352.49 117.92C351.52 117.92 350.53 117.74 349.57 117.34C345.68 115.73 343.83 111.26 345.44 107.37L354.21 86.21C355.82 82.31 360.27 80.45 364.18 82.07C368.08 83.68 369.93 88.15 368.31 92.05L359.55 113.21C358.33 116.15 355.49 117.92 352.49 117.92Z" />
	</g>
	<path id="Layer" fill-rule="evenodd" class="shp2" d="M373.3 295.64L385.83 311.56L370.56 337.98L350.48 335.11C347.47 337.86 344.25 340.38 340.86 342.63C334.92 346.63 328.44 349.74 321.62 351.87L314.13 370.58L283.59 370.58L276.11 351.87C265.37 348.49 255.51 342.77 247.25 335.11L227.14 337.98L211.87 311.56L224.39 295.64C221.89 284.66 221.89 273.26 224.39 262.28L211.87 246.36L227.14 219.94L247.25 222.81C249.78 220.46 252.48 218.31 255.31 216.35L278.14 200.97L283.59 187.34L314.13 187.34L321.62 206.05C332.35 209.44 342.2 215.17 350.48 222.81L370.56 219.94L385.83 246.36L373.3 262.28C374.56 267.75 375.2 273.34 375.21 278.96C375.2 284.57 374.56 290.17 373.3 295.64ZM337.04 278.96C337.04 257.88 319.95 240.79 298.87 240.79C277.78 240.79 260.69 257.88 260.69 278.96C260.69 300.04 277.78 317.13 298.87 317.13C319.95 317.13 337.04 300.04 337.04 278.96Z" />
	<path id="Color Fill 9" fill-rule="evenodd" class="shp3" d="M373.3 295.64L385.83 311.56L370.56 337.98L350.48 335.11C347.47 337.86 344.25 340.38 340.86 342.63C334.92 346.63 328.44 349.74 321.62 351.87L314.13 370.58L283.59 370.58L276.11 351.87C265.37 348.49 255.51 342.77 247.25 335.11L227.14 337.98L211.87 311.56L224.39 295.64C221.89 284.66 221.89 273.26 224.39 262.28L211.87 246.36L227.14 219.94L247.25 222.81C249.78 220.46 252.48 218.31 255.31 216.35L278.14 200.97L283.59 187.34L314.13 187.34L321.62 206.05C332.35 209.44 342.2 215.17 350.48 222.81L370.56 219.94L385.83 246.36L373.3 262.28C374.56 267.75 375.2 273.34 375.21 278.96C375.2 284.57 374.56 290.17 373.3 295.64ZM337.04 278.96C337.04 257.88 319.95 240.79 298.87 240.79C277.78 240.79 260.69 257.88 260.69 278.96C260.69 300.04 277.78 317.13 298.87 317.13C319.95 317.13 337.04 300.04 337.04 278.96Z" />
	<path id="Layer" fill-rule="evenodd" class="shp0" d="M314.13 378.21L283.6 378.21C280.47 378.21 277.67 376.31 276.51 373.41L270.33 357.97C261.06 354.59 252.36 349.54 244.83 343.17L228.21 345.54C225.14 345.95 222.08 344.5 220.52 341.8L210.68 324.77C208.56 321.12 209.81 316.45 213.46 314.34C217.11 312.23 221.78 313.47 223.9 317.13L231.16 329.69L246.17 327.55C248.44 327.24 250.75 327.95 252.44 329.51C259.82 336.36 268.79 341.57 278.4 344.59C280.58 345.28 282.35 346.91 283.2 349.03L288.76 362.94L308.97 362.94L314.53 349.03C315.38 346.9 317.15 345.27 319.34 344.58C325.47 342.67 331.28 339.88 336.6 336.3C339.7 334.24 342.63 331.95 345.33 329.48C347.01 327.94 349.31 327.22 351.56 327.56L366.53 329.69L376.63 312.22L367.31 300.36C365.88 298.54 365.35 296.18 365.87 293.92C368.14 284.13 368.14 273.79 365.87 264C365.35 261.75 365.88 259.38 367.31 257.55L376.63 245.7L366.53 228.23L351.56 230.36C349.29 230.68 346.99 229.97 345.3 228.41C337.9 221.58 328.92 216.36 319.32 213.33C317.14 212.64 315.38 211.01 314.53 208.88L308.97 194.98L288.77 194.98L285.23 203.81C283.66 207.72 279.21 209.62 275.3 208.05C271.38 206.49 269.48 202.04 271.05 198.13L276.51 184.5C277.67 181.61 280.48 179.71 283.6 179.71L314.14 179.71C317.25 179.71 320.07 181.61 321.22 184.5L327.4 199.95C336.66 203.34 345.35 208.39 352.88 214.75L369.48 212.38C372.56 211.93 375.6 213.42 377.17 216.12L392.44 242.53C394 245.24 393.76 248.62 391.83 251.07L381.5 264.2C383.28 273.91 383.28 283.99 381.5 293.71L391.83 306.83C393.76 309.29 394 312.67 392.44 315.37L377.17 341.79C375.61 344.49 372.56 345.96 369.48 345.53L352.86 343.16C350.39 345.24 347.78 347.19 345.08 348.98C339.59 352.68 333.65 355.7 327.4 357.97L321.22 373.4C320.07 376.31 317.26 378.21 314.13 378.21ZM298.73 324.77C295.85 324.77 292.93 324.49 290.07 323.95C285.92 323.16 283.21 319.16 283.99 315.02C284.78 310.88 288.76 308.14 292.92 308.94C294.87 309.31 296.8 309.46 298.84 309.5L298.85 309.5C307.03 309.5 314.69 306.32 320.46 300.56C326.23 294.79 329.41 287.12 329.41 278.96C329.41 270.81 326.24 263.14 320.47 257.37C314.7 251.6 307.03 248.42 298.87 248.42C298.87 248.42 298.87 248.42 298.86 248.42C290.71 248.42 283.05 251.6 277.28 257.36C271.51 263.13 268.33 270.8 268.33 278.96C268.33 283.96 269.57 288.93 271.93 293.34C273.92 297.07 272.51 301.69 268.79 303.68C265.07 305.67 260.45 304.25 258.46 300.54C254.93 293.92 253.06 286.46 253.06 278.96C253.06 266.72 257.83 255.21 266.48 246.56C275.14 237.91 286.63 233.15 298.86 233.15C298.87 233.15 298.87 233.15 298.87 233.15C311.11 233.15 322.62 237.92 331.26 246.57C339.92 255.23 344.68 266.73 344.68 278.97C344.67 291.2 339.91 302.71 331.26 311.35C322.6 320 311.1 324.77 298.87 324.77C298.87 324.77 298.87 324.77 298.87 324.77C298.82 324.77 298.77 324.77 298.73 324.77ZM222.93 294.23C219.08 294.23 215.77 291.33 215.35 287.42C215.04 284.64 214.89 281.8 214.88 278.98C214.9 274.02 215.34 269.08 216.21 264.23L205.86 251.08C203.93 248.63 203.69 245.24 205.25 242.54L220.52 216.12C222.09 213.43 225.14 211.94 228.21 212.39L244.83 214.75C245.95 213.81 247.09 212.9 248.26 212.03C251.64 209.51 256.42 210.21 258.94 213.59C261.46 216.97 260.77 221.76 257.38 224.27C255.67 225.55 254.02 226.93 252.46 228.39C250.77 229.97 248.45 230.7 246.17 230.37L231.16 228.23L221.06 245.71L230.38 257.56C231.8 259.36 232.33 261.71 231.83 263.95C230.73 268.88 230.16 273.94 230.14 278.99C230.15 281.23 230.28 283.52 230.52 285.77C230.98 289.96 227.95 293.73 223.76 294.19C223.48 294.21 223.2 294.23 222.93 294.23Z" />
	<path id="Color Fill 1" fill-rule="evenodd" class="shp1" d="M314.13 378.21L283.6 378.21C280.47 378.21 277.67 376.31 276.51 373.41L270.33 357.97C261.06 354.59 252.36 349.54 244.83 343.17L228.21 345.54C225.14 345.95 222.08 344.5 220.52 341.8L210.68 324.77C208.56 321.12 209.81 316.45 213.46 314.34C217.11 312.23 221.78 313.47 223.9 317.13L231.16 329.69L246.17 327.55C248.44 327.24 250.75 327.95 252.44 329.51C259.82 336.36 268.79 341.57 278.4 344.59C280.58 345.28 282.35 346.91 283.2 349.03L288.76 362.94L308.97 362.94L314.53 349.03C315.38 346.9 317.15 345.27 319.34 344.58C325.47 342.67 331.28 339.88 336.6 336.3C339.7 334.24 342.63 331.95 345.33 329.48C347.01 327.94 349.31 327.22 351.56 327.56L366.53 329.69L376.63 312.22L367.31 300.36C365.88 298.54 365.35 296.18 365.87 293.92C368.14 284.13 368.14 273.79 365.87 264C365.35 261.75 365.88 259.38 367.31 257.55L376.63 245.7L366.53 228.23L351.56 230.36C349.29 230.68 346.99 229.97 345.3 228.41C337.9 221.58 328.92 216.36 319.32 213.33C317.14 212.64 315.38 211.01 314.53 208.88L308.97 194.98L288.77 194.98L285.23 203.81C283.66 207.72 279.21 209.62 275.3 208.05C271.38 206.49 269.48 202.04 271.05 198.13L276.51 184.5C277.67 181.61 280.48 179.71 283.6 179.71L314.14 179.71C317.25 179.71 320.07 181.61 321.22 184.5L327.4 199.95C336.66 203.34 345.35 208.39 352.88 214.75L369.48 212.38C372.56 211.93 375.6 213.42 377.17 216.12L392.44 242.53C394 245.24 393.76 248.62 391.83 251.07L381.5 264.2C383.28 273.91 383.28 283.99 381.5 293.71L391.83 306.83C393.76 309.29 394 312.67 392.44 315.37L377.17 341.79C375.61 344.49 372.56 345.96 369.48 345.53L352.86 343.16C350.39 345.24 347.78 347.19 345.08 348.98C339.59 352.68 333.65 355.7 327.4 357.97L321.22 373.4C320.07 376.31 317.26 378.21 314.13 378.21ZM298.73 324.77C295.85 324.77 292.93 324.49 290.07 323.95C285.92 323.16 283.21 319.16 283.99 315.02C284.78 310.88 288.76 308.14 292.92 308.94C294.87 309.31 296.8 309.46 298.84 309.5L298.85 309.5C307.03 309.5 314.69 306.32 320.46 300.56C326.23 294.79 329.41 287.12 329.41 278.96C329.41 270.81 326.24 263.14 320.47 257.37C314.7 251.6 307.03 248.42 298.87 248.42C298.87 248.42 298.87 248.42 298.86 248.42C290.71 248.42 283.05 251.6 277.28 257.36C271.51 263.13 268.33 270.8 268.33 278.96C268.33 283.96 269.57 288.93 271.93 293.34C273.92 297.07 272.51 301.69 268.79 303.68C265.07 305.67 260.45 304.25 258.46 300.54C254.93 293.92 253.06 286.46 253.06 278.96C253.06 266.72 257.83 255.21 266.48 246.56C275.14 237.91 286.63 233.15 298.86 233.15C298.87 233.15 298.87 233.15 298.87 233.15C311.11 233.15 322.62 237.92 331.26 246.57C339.92 255.23 344.68 266.73 344.68 278.97C344.67 291.2 339.91 302.71 331.26 311.35C322.6 320 311.1 324.77 298.87 324.77C298.87 324.77 298.87 324.77 298.87 324.77C298.82 324.77 298.77 324.77 298.73 324.77ZM222.93 294.23C219.08 294.23 215.77 291.33 215.35 287.42C215.04 284.64 214.89 281.8 214.88 278.98C214.9 274.02 215.34 269.08 216.21 264.23L205.86 251.08C203.93 248.63 203.69 245.24 205.25 242.54L220.52 216.12C222.09 213.43 225.14 211.94 228.21 212.39L244.83 214.75C245.95 213.81 247.09 212.9 248.26 212.03C251.64 209.51 256.42 210.21 258.94 213.59C261.46 216.97 260.77 221.76 257.38 224.27C255.67 225.55 254.02 226.93 252.46 228.39C250.77 229.97 248.45 230.7 246.17 230.37L231.16 228.23L221.06 245.71L230.38 257.56C231.8 259.36 232.33 261.71 231.83 263.95C230.73 268.88 230.16 273.94 230.14 278.99C230.15 281.23 230.28 283.52 230.52 285.77C230.98 289.96 227.95 293.73 223.76 294.19C223.48 294.21 223.2 294.23 222.93 294.23Z" />
	<g id="Layer">
	</g>
	<g id="Layer">
	</g>
	<g id="Layer">
	</g>
	<g id="Layer">
	</g>
	<g id="Layer">
	</g>
	<g id="Layer">
	</g>
	<g id="Layer">
	</g>
	<g id="Layer">
	</g>
	<g id="Layer">
	</g>
	<g id="Layer">
	</g>
	<g id="Layer">
	</g>
	<g id="Layer">
	</g>
	<g id="Layer">
	</g>
	<g id="Layer">
	</g>
	<g id="Layer">
	</g>
</svg>