<svg width="40" height="33" viewBox="0 0 40 33" fill="none" xmlns="http://www.w3.org/2000/svg">
<path d="M37.875 1.5625C38.125 2.0625 37.9375 2.6875 37.4375 2.9375L33.4375 4.9375C32.9375 5.1875 32.3125 5 32.0625 4.5C31.8125 4 32 3.375 32.5 3.125L36.5 1.125C37 0.875 37.625 1.0625 37.875 1.5625ZM19 2C19 1.5 19.4375 1 20 1C20.5 1 21 1.5 21 2V3.0625C26 3.5625 30 7.8125 30 13V14.875C30 17.5625 31.0625 20.1875 33 22.125L33.1875 22.3125C33.6875 22.8125 34 23.5 34 24.25C34 25.8125 32.75 27 31.1875 27H8.75C7.1875 27 6 25.8125 6 24.25C6 23.5 6.25 22.8125 6.75 22.3125L6.9375 22.125C8.875 20.1875 10 17.5625 10 14.875V13C10 7.8125 13.9375 3.5625 19 3.0625V2ZM20 5C15.5625 5 12 8.625 12 13V14.875C12 18.125 10.6875 21.25 8.375 23.5625L8.1875 23.6875C8.0625 23.875 8 24.0625 8 24.25C8 24.6875 8.3125 25 8.75 25H31.1875C31.625 25 32 24.6875 32 24.25C32 24.0625 31.875 23.875 31.75 23.6875L31.5625 23.5625C29.25 21.25 28 18.125 28 14.875V13C28 8.625 24.375 5 19.9375 5H20ZM20 31C20.8125 31 21.5625 30.5 21.875 29.6875C22.0625 29.1875 22.625 28.875 23.125 29.0625C23.625 29.25 23.9375 29.8125 23.75 30.375C23.1875 31.9375 21.6875 33 20 33C18.25 33 16.75 31.9375 16.1875 30.375C16 29.8125 16.3125 29.25 16.8125 29.0625C17.3125 28.875 17.875 29.1875 18.0625 29.6875C18.375 30.5 19.125 31 20 31ZM0 12C0 11.5 0.4375 11 1 11H6C6.5 11 7 11.5 7 12C7 12.5625 6.5 13 6 13H1C0.4375 13 0 12.5625 0 12ZM39 11C39.5 11 40 11.5 40 12C40 12.5625 39.5 13 39 13H34C33.4375 13 33 12.5625 33 12C33 11.5 33.4375 11 34 11H39ZM2.5 2.9375C2 2.6875 1.8125 2.0625 2.0625 1.5625C2.3125 1.0625 2.9375 0.875 3.4375 1.125L7.4375 3.125C7.9375 3.375 8.125 4 7.875 4.5C7.625 5 7 5.1875 6.5 4.9375L2.5 2.9375Z" fill="#9CA3AF"/>
</svg>
