<svg width="20" height="32" viewBox="0 0 20 32" fill="none" xmlns="http://www.w3.org/2000/svg">
<path d="M10 27.5C9.125 27.5 8.5 26.875 8.5 26C8.5 25.1875 9.125 24.5 10 24.5C10.8125 24.5 11.5 25.1875 11.5 26C11.5 26.875 10.8125 27.5 10 27.5ZM16 0C18.1875 0 20 1.8125 20 4V28C20 30.25 18.1875 32 16 32H4C1.75 32 0 30.25 0 28V4C0 1.8125 1.75 0 4 0H16ZM18 28V22H2V28C2 29.125 2.875 30 4 30H16C17.0625 30 18 29.125 18 28ZM18 20V4C18 2.9375 17.0625 2 16 2H4C2.875 2 2 2.9375 2 4V20H18Z" fill="#9CA3AF"/>
</svg>
