<?xml version="1.0" encoding="iso-8859-1"?>
<!-- Generator: Adobe Illustrator 19.0.0, SVG Export Plug-In . SVG Version: 6.00 Build 0)  -->
<svg xmlns="http://www.w3.org/2000/svg" xmlns:xlink="http://www.w3.org/1999/xlink" version="1.1" id="Capa_1" x="0px" y="0px" viewBox="0 0 511.999 511.999" style="enable-background:new 0 0 511.999 511.999;" xml:space="preserve" width="512px" height="512px">
<g>
	<g>
		<path d="M420.999,373.999c-5.523,0-10,4.477-10,10v98c0,5.514-4.486,10-10,10H57.025c-5.514,0-10-4.486-10-10v-181    c0-5.523-4.477-10-10-10s-10,4.477-10,10v181c0,16.542,13.458,30,30,30h343.974c16.542,0,30-13.458,30-30v-98    C430.999,378.476,426.522,373.999,420.999,373.999z" fill="#595959"/>
	</g>
</g>
<g>
	<g>
		<path d="M460.255,187.148c-8.59-8.59-18.59-14.919-29.255-19.032v-60.127c-0.008-0.001-0.016-0.002-0.024-0.002    c-0.001-2.601-0.993-5.157-2.905-7.069L330.083,2.93c-1.912-1.912-4.47-2.903-7.07-2.904c0-0.009-0.001-0.017-0.001-0.026H57.025    c-16.542,0-30,13.458-30,30v186.333c0,5.523,4.477,10,10,10s10-4.477,10-10V29.999c0-5.514,4.486-10,10-10h255.987v67.99    c0,16.542,13.458,30,30,30h67.987v45.114c-25.003-3.109-51.136,4.89-70.291,24.045l-142.521,142.52    c-3.905,3.905-3.905,10.237,0,14.143c3.905,3.905,10.237,3.905,14.143,0L354.851,201.29c25.16-25.16,66.101-25.161,91.262,0    s25.161,66.101,0,91.261L312.447,426.217c-15.69,15.689-41.219,15.69-56.908,0c-7.6-7.6-11.786-17.705-11.786-28.454    c0-10.748,4.186-20.854,11.786-28.454l134.316-134.316c2.96-2.96,6.896-4.591,11.082-4.591c4.186,0,8.122,1.63,11.082,4.591    c2.96,2.96,4.59,6.896,4.59,11.082c0,4.186-1.63,8.122-4.591,11.082L290.965,378.209c-3.905,3.905-3.905,10.237,0,14.143    c3.905,3.904,10.237,3.904,14.143,0L426.16,271.299c6.738-6.737,10.449-15.696,10.449-25.224s-3.711-18.487-10.448-25.224    c-6.737-6.738-15.696-10.449-25.224-10.449c-9.528,0-18.486,3.711-25.224,10.448L241.397,355.166    c-23.487,23.488-23.487,61.705,0,85.193c11.745,11.745,27.168,17.617,42.596,17.615c15.424-0.001,30.854-5.873,42.596-17.615    l133.666-133.666C493.213,273.735,493.213,220.106,460.255,187.148z M343.012,97.989c-5.514,0-10-4.486-10-10V34.143    l63.845,63.846H343.012z" fill="#595959"/>
	</g>
</g>
<g>
	<g>
		<path d="M44.098,252.139c-1.86-1.86-4.44-2.93-7.07-2.93c-2.64,0-5.21,1.07-7.08,2.93c-1.86,1.86-2.92,4.44-2.92,7.07    s1.06,5.21,2.92,7.07c1.87,1.87,4.44,2.93,7.08,2.93c2.63,0,5.21-1.06,7.07-2.93c1.86-1.86,2.93-4.44,2.93-7.07    S45.958,253.999,44.098,252.139z" fill="#595959"/>
	</g>
</g>
<g>
	<g>
		<path d="M182.95,364.358l-0.198-0.611c-1.705-5.253-7.346-8.13-12.599-6.425c-5.253,1.705-8.13,7.346-6.425,12.599l0.198,0.611    c1.372,4.228,5.293,6.916,9.51,6.916c1.023,0,2.064-0.159,3.089-0.491C181.778,375.252,184.655,369.611,182.95,364.358z" fill="#595959"/>
	</g>
</g>
<g>
</g>
<g>
</g>
<g>
</g>
<g>
</g>
<g>
</g>
<g>
</g>
<g>
</g>
<g>
</g>
<g>
</g>
<g>
</g>
<g>
</g>
<g>
</g>
<g>
</g>
<g>
</g>
<g>
</g>
</svg>
