<svg xmlns="http://www.w3.org/2000/svg" xmlns:xlink="http://www.w3.org/1999/xlink" viewBox="0 0 512 512"><style><![CDATA[.G{fill:#e8e8e8}.H{enable-background:new}.I{opacity:.1}]]></style><g opacity=".3" fill="#fff"><path d="M129.9 115.1l43.4-4.8-43.4-4.8-4.8-43.4-4.8 43.4-43.4 4.8 43.4 4.8 4.8 43.4zM436.5 314l30.8-3.4-30.8-3.4-3.4-30.9-3.4 30.9-30.9 3.4 30.9 3.4 3.4 30.8zm-341-1.6l23.3-2.6-23.3-2.6-2.6-23.3-2.6 23.3-23.2 2.6 23.2 2.6 2.6 23.2z"/><use xlink:href="#B"/><use xlink:href="#B" x="267.322" y="-7.281"/><use xlink:href="#B" x="106.697" y="13.006"/><use xlink:href="#B" x="259.885" y="59.016"/><use xlink:href="#B" x="176.722" y="-98.594"/><use xlink:href="#B" x="79.4" y="-132.467"/><use xlink:href="#B" x="-156.863" y="101.402"/><use xlink:href="#B" x="-117.08" y="-20.998"/></g><use xlink:href="#C" class="G"/><use xlink:href="#C" class="H I"/><use xlink:href="#D" class="G"/><use xlink:href="#D" class="H I"/><ellipse cx="105.9" cy="255.3" rx="33.6" ry="35.7" class="G"/><ellipse cx="106" cy="255.3" rx="33.7" ry="35.9" class="H I"/><ellipse cx="404.7" cy="255.2" rx="33.6" ry="35.8" class="G"/><ellipse cx="404.9" cy="255.3" rx="33.7" ry="35.9" class="H I"/><path d="M103.7 459v2.6c18.6 13.8 39.2 25.2 61.2 33.6V379.5c-53 8.9-60.5 58.4-61.2 79.5z" class="G"/><path d="M157 381.2c-17.9 17.5-35.2 39.4-38 91.1 14.4 9.2 29.8 16.9 46 23V379.5c-2.8.5-5.5 1-8 1.7z" opacity=".07" class="H"/><path d="M409.5 458.9v2.6c-18.6 13.6-39.2 24.7-61.2 33V381.1c52.9 8.7 60.4 57.2 61.2 77.8h0z" class="G"/><path d="M361.9 386.1a164.78 164.78 0 0 1 20.7 29.5c11 20 15.7 38.7 17.9 52-7.8 4.8-16.4 9.7-25.6 14.5-8.9 4.6-17.5 8.7-25.7 12.2V381.8c1.5-.1 3.7 0 6.1.7 3.1 1.1 5.3 2.6 6.6 3.6h0z" opacity=".07" class="H"/><path d="M256.3 339.8c-61.6 0-127.6 47.6-127.7 138.1 37.6 21.7 81.2 34.1 127.7 34.1 33.4 0 59.5-6.5 73.1-10.6 27.5-8.2 48.9-19.7 63.6-29.1-2.8-12.7-21.1-91.2-86.4-121-6.9-3.1-25.3-11.5-50.3-11.5h0z" class="G"/><path d="M255.5 339.8c-42.7 0-80.3 21.7-102.6 54.8 28.2 22.5 63.8 36 102.6 36s74.4-13.5 102.6-36c-22.4-33.1-60-54.8-102.6-54.8z" class="H I"/><circle cx="255.5" cy="255.3" r="156.8" class="G"/><path d="M255.5 98.5c-13.2 0-26.1 1.6-38.3 4.7v93.2h76.7v-93.2c-12.4-3-25.2-4.7-38.4-4.7z" opacity=".07" class="H"/><path d="M255.5 358.8c-35.5 0-69.1-10-94.6-28.1-27.6-19.6-42.9-46.4-42.9-75.3s15.2-55.7 42.9-75.3c25.5-18.1 59.2-28.1 94.6-28.1s69.1 10 94.6 28.1c27.6 19.6 42.9 46.4 42.9 75.3s-15.2 55.7-42.9 75.3c-25.5 18.1-59.2 28.1-94.6 28.1z" fill="#4DB1E0" stroke="#ddd" stroke-width="5" stroke-miterlimit="10"/><defs ><path id="B" d="M176.84 161.894l7.354-7.354 7.354 7.354-7.354 7.354z"/><path id="C" d="M112.9 398.8c-4.8 0-9.3 2.5-11.6 6.8v.1c-5.8 10.4-9.1 21.1-10.9 30.8-.7 3.7 2.1 7.1 5.9 7.1h50.4v-44.7l-33.8-.1z"/><path id="D" d="M399.6 398.8c4.8 0 9.3 2.5 11.6 6.8v.1c5.8 10.4 9.1 21.1 10.9 30.8.7 3.7-2.1 7.1-5.9 7.1h-50.4v-44.7l33.8-.1z"/></defs></svg>