<svg id="e59edb86-a3bc-4694-8aac-31e565ca5cfc" xmlns="http://www.w3.org/2000/svg" viewBox="0 0 676 676.03"><defs><style>.cls-1{fill:none;opacity:0;}.cls-2{opacity:0.15;}.cls-2,.cls-3{isolation:isolate;}.cls-3{opacity:0.2;}.cls-4{fill:#fafafa;}.cls-5{fill:#2f2e41;}</style></defs><path class="cls-1" d="M676,338a336.86,336.86,0,0,1-27.22,133.1l-1.12,2.58A338.56,338.56,0,0,1,279.35,670.93q-3-.54-6.08-1.12a334.65,334.65,0,0,1-61.14-18q-4.81-1.93-9.56-4c-2.16-.94-4.32-1.91-6.46-2.91A338.41,338.41,0,0,1,0,338C0,151.33,151.33,0,338,0S676,151.33,676,338Z"/><path class="cls-2" d="M279.35,670.93q-3-.54-6.08-1.12C272,631.5,267.42,552.87,252,470.52c-8.45-45.07-20.18-91.27-36.45-132.57a411.5,411.5,0,0,0-19.07-41.84c-16.44-31.05-36.38-57.19-60.56-74.9l3.56-4.86q30.17,22.11,54.22,62.08,7.22,12,13.86,25.54,7.13,14.52,13.59,30.83,4.13,10.38,8,21.48,16.74,48.2,28.46,110,2.59,13.65,4.94,28C274.6,568.2,278.25,636.59,279.35,670.93Z"/><path class="cls-2" d="M202.57,647.77c-2.16-.94-4.32-1.91-6.46-2.91-2.09-22.7-5.93-50.86-13-77.59a253.49,253.49,0,0,0-11.81-35.2c-8-18.75-18.38-34.69-31.79-44.52l3.56-4.85c14,10.28,24.87,26.53,33.24,45.54,9.43,21.42,15.72,46.35,19.91,70.17C199.38,616.1,201.34,633.19,202.57,647.77Z"/><circle class="cls-2" cx="102.26" cy="190.98" r="30.09"/><circle class="cls-2" cx="111.95" cy="449.99" r="30.09" transform="matrix(0.07, -1, 1, 0.07, -344.84, 529.76)"/><path class="cls-3" d="M221.71,241.52c-6.38,36,7.71,68.59,7.71,68.59s24.43-25.76,30.81-61.76-7.71-68.59-7.71-68.59S228.09,205.52,221.71,241.52Z"/><path class="cls-2" d="M121.72,327c34.33,12.56,68.83,4.5,68.83,4.5s-21.16-28.41-55.5-41S66.22,286,66.22,286,87.38,314.42,121.72,327Z"/><path class="cls-2" d="M115.9,556.33c24.06,8.8,48.28,3.06,48.28,3.06s-14.8-20-38.87-28.81S77,527.52,77,527.52,91.83,547.53,115.9,556.33Z"/><circle class="cls-4" cx="337.31" cy="281.08" r="131.77"/><path class="cls-4" d="M285.83,382s16.47,78.23,16.47,86.47,78.24,45.3,78.24,45.3l70-12.36,24.7-74.12s-41.18-61.77-41.18-86.47Z"/><path class="cls-5" d="M648.78,471.1l-1.12,2.58A338.56,338.56,0,0,1,279.35,670.93q-3-.54-6.08-1.12a334.65,334.65,0,0,1-61.14-18q-4.81-1.93-9.56-4c-2.16-.94-4.32-1.91-6.46-2.91a337.25,337.25,0,0,1-55.25-32.28l-15.62-45.31,8.78-6.7,18.06-13.79,19.27-14.71,5-3.83L252,470.52l5.58-4.26,39.3-30h0s42.5,69.25,104.27,48.66,60.42-79.63,60.42-79.63Z"/><path class="cls-5" d="M223,174.92s41.83-90.65,122-69.73,125.51,52.29,129,83.67-1.74,78.44-1.74,78.44-8.71-64.49-64.5-50.55-142.94,3.49-142.94,3.49L250.93,345.75s-15.69-22.66-33.12-8.72S167.25,202.81,223,174.92Z"/><path class="cls-5" d="M212.13,651.78q-4.81-1.93-9.56-4c-2.16-.94-4.32-1.91-6.46-2.91a338.8,338.8,0,0,1-87.59-58.7c9.19-12.52,16.72-18.89,16.72-18.89H187l9.26,31.14Z"/><path class="cls-5" d="M594.67,464.32l53,9.36a337.78,337.78,0,0,1-56.76,88.57Z"/></svg>