<svg xmlns="http://www.w3.org/2000/svg" xmlns:xlink="http://www.w3.org/1999/xlink" viewBox="0 0 512 512"><style><![CDATA[.H{fill:#e8e8e8}.I{enable-background:new}.J{opacity:.1}]]></style><circle cx="256" cy="256" r="256" fill="#5629b6"/><g opacity=".3" fill="#fff"><path d="M129.9 115.1l43.4-4.8-43.4-4.8-4.8-43.4-4.8 43.4-43.4 4.8 43.4 4.8 4.8 43.4zM436.5 314l30.8-3.4-30.8-3.4-3.4-30.9-3.4 30.9-30.9 3.4 30.9 3.4 3.4 30.8zm-341-1.6l23.3-2.6-23.3-2.6-2.6-23.2-2.6 23.2-23.2 2.6 23.2 2.6 2.6 23.2z"/><use xlink:href="#B"/><use xlink:href="#B" x="267.3" y="-7.353"/><use xlink:href="#B" x="106.712" y="12.993"/><use xlink:href="#B" x="259.938" y="58.987"/><use xlink:href="#B" x="176.675" y="-98.643"/><use xlink:href="#B" x="79.437" y="-132.537"/><use xlink:href="#B" x="-156.863" y="101.427"/><use xlink:href="#B" x="-117.118" y="-21.028"/></g><use xlink:href="#C" class="H"/><use xlink:href="#C" class="I J"/><use xlink:href="#D" class="H"/><use xlink:href="#D" class="I J"/><ellipse cx="105.9" cy="255.3" rx="33.6" ry="35.8" class="H"/><ellipse cx="106" cy="255.3" rx="33.7" ry="35.9" class="I J"/><ellipse cx="404.7" cy="255.2" rx="33.6" ry="35.8" class="H"/><ellipse cx="404.9" cy="255.3" rx="33.7" ry="35.9" class="I J"/><path d="M103.7 459v2.6c18.8 14 39.4 25.3 61.2 33.6V379.5c-53 8.9-60.5 58.4-61.2 79.5z" class="H"/><path d="M157 381.2c-17.9 17.5-35.2 39.4-38 91.1 14.5 9.2 29.9 16.9 46 23V379.5c-2.8.5-5.5 1-8 1.7h0z" opacity=".07" class="I"/><path d="M409.5 459v2.6c-18.8 13.7-39.4 24.8-61.2 33V381.1c52.9 8.7 60.4 57.2 61.2 77.9z" class="H"/><path d="M361.9 386.1c20.3 23 33.7 51.3 38.6 81.6-7.8 4.8-16.4 9.7-25.6 14.5-8.9 4.6-17.5 8.7-25.7 12.2V382c4.6-.2 9.1 1.3 12.7 4.1h0z" opacity=".07" class="I"/><path d="M256.3 339.8c-61.6 0-127.6 47.6-127.7 138.1 82.3 47.6 184.2 45.4 264.4-5.6-2.8-12.7-21.1-91.2-86.4-121-15.8-7.4-32.9-11.4-50.3-11.5h0z" class="H"/><path d="M255.4 339.8c-41.2 0-79.7 20.6-102.6 54.8 60 48 145.2 48 205.1 0-22.8-34.2-61.3-54.8-102.5-54.8z" class="I J"/><circle cx="255.4" cy="255.3" r="156.8" class="H"/><path d="M255.4 98.5c-12.9 0-25.8 1.6-38.3 4.7v93.2h76.7v-93.2a159.58 159.58 0 0 0-38.4-4.7h0z" opacity=".07" class="I"/><path d="M255.4 358.8c-35.5 0-69.1-10-94.6-28.1-27.6-19.6-42.8-46.4-42.8-75.3s15.2-55.7 42.9-75.3c25.5-18.1 59.2-28.1 94.6-28.1s69.1 10 94.6 28.1c27.6 19.6 42.9 46.4 42.9 75.3s-15.2 55.7-42.9 75.3c-25.5 18.1-59.2 28.1-94.7 28.1h0z" fill="#4DB1E0" stroke="#ddd" stroke-width="5" stroke-miterlimit="10"/><defs ><path id="B" d="M176.84 161.913l7.354-7.354 7.354 7.354-7.354 7.354z"/><path id="C" d="M113 398.8c-4.8 0-9.3 2.6-11.7 6.8v.1c-5.3 9.6-8.9 20-10.9 30.8a6.03 6.03 0 0 0 4.8 7c.3.1.7.1 1.1.1h50.4v-44.7H113z"/><path id="D" d="M399.6 398.8c4.8 0 9.3 2.6 11.6 6.8v.1c5.3 9.6 8.9 20 10.9 30.8a6.03 6.03 0 0 1-4.8 7c-.4.1-.7.1-1.1.1h-50.3v-44.7h33.7z"/></defs></svg>