<svg xmlns="http://www.w3.org/2000/svg" xmlns:xlink="http://www.w3.org/1999/xlink" viewBox="0 0 512 512"><defs><style>.cls-1{fill:none;}.cls-2{clip-path:url(#clip-path);}.cls-3{fill:#e6af78;}.cls-4{fill:#392a6f;}.cls-5{fill:#d29b6e;}.cls-6{fill:#f0c087;}.cls-7{fill:#2e255e;}.cls-8{fill:#5b5d6e;}.cls-9{fill:#515262;}.cls-10{fill:#785550;}.cls-11{fill:#694b4b;}.cls-12{fill:#5a4146;}</style><clipPath id="clip-path"><circle class="cls-1" cx="256.73" cy="256.73" r="255.27"/></clipPath></defs><title>avatar</title><g id="Layer_1" data-name="Layer 1"><g class="cls-2"><polygon class="cls-3" points="326.05 379.97 326.05 326.05 187.41 326.05 187.41 379.97 256.73 441.59 326.05 379.97"/><path class="cls-4" d="M433.24,405.19l-95.31-22.43a15.32,15.32,0,0,1-4-1.61l-77.2,45L182.54,379a15.34,15.34,0,0,1-7,3.79L80.22,405.19a30.81,30.81,0,0,0-23.75,30v60.33a15.4,15.4,0,0,0,15.41,15.41H441.59A15.4,15.4,0,0,0,457,495.51V435.18A30.81,30.81,0,0,0,433.24,405.19Z"/><path class="cls-5" d="M187.41,326.05v56.89c87.33,31.46,138.65-47.28,138.65-47.28v-9.61H187.41Z"/><path class="cls-6" d="M156.6,148.9l6.71,147.67a46.21,46.21,0,0,0,18.44,34.87l31.85,23.89a46.22,46.22,0,0,0,27.73,9.24h30.81a46.22,46.22,0,0,0,27.73-9.24l31.85-23.89a46.22,46.22,0,0,0,18.44-34.87l6.71-147.67Z"/><path class="cls-3" d="M233.62,179.71c30.81,0,77-7.7,88-30.81h-165l6.71,147.67a46.21,46.21,0,0,0,18.44,34.87l31.85,23.89a46.22,46.22,0,0,0,27.73,9.24h15.41c-15.41,0-46.22-30.81-46.22-69.32V202.81C210.51,195.11,218.22,179.71,233.62,179.71Z"/><path class="cls-7" d="M113,460.92,63.1,416.09a30.76,30.76,0,0,0-6.63,19.09v60.33a15.4,15.4,0,0,0,15.41,15.41h53.92V489.58A38.52,38.52,0,0,0,113,460.92Z"/><path class="cls-7" d="M400.45,460.92l49.91-44.84A30.76,30.76,0,0,1,457,435.18v60.33a15.4,15.4,0,0,1-15.41,15.41H387.67V489.58A38.51,38.51,0,0,1,400.45,460.92Z"/><polygon class="cls-8" points="275.99 510.91 237.47 510.91 242.29 441.59 271.17 441.59 275.99 510.91"/><path class="cls-9" d="M276,426.19H237.47v14.5a8.61,8.61,0,0,0,8.61,8.61h21.29a8.61,8.61,0,0,0,8.61-8.61v-14.5Z"/><path class="cls-7" d="M186.32,362.82l70.41,63.36s-19.72,10-44,30a9.88,9.88,0,0,1-15.3-3.46L164.3,380l10.46-15.7A7.7,7.7,0,0,1,186.32,362.82Z"/><path class="cls-7" d="M327.13,362.82l-70.41,63.36s19.72,10,44,30a9.88,9.88,0,0,0,15.3-3.46L349.16,380l-10.46-15.7A7.7,7.7,0,0,0,327.13,362.82Z"/><path class="cls-10" d="M303.43,97.87l7.22,51c33,6.59,37.71,58.32,38.4,73.1a15.19,15.19,0,0,0,2.43,7.53L364.05,249s-4.3-32.25,15.41-53.92C379.46,195.11,386.23,67.06,303.43,97.87Z"/><path class="cls-6" d="M371.78,245.74l-8.7,34.78a9.26,9.26,0,0,1-9,7h0a9.26,9.26,0,0,1-9.19-8.11l-4.45-35.58a16,16,0,0,1,15.83-17.93h0A16,16,0,0,1,371.78,245.74Z"/><path class="cls-11" d="M164,84.06l11.39,7.78c-51.51,38-41.88,103.26-41.88,103.26C148.89,210.51,148.89,249,148.89,249l15.41-15.41s-5.95-44.5,23.11-61.62c27-15.89,50.55-7.7,74.62-7.7,64.51,0,82.56-24.31,79.43-53.92-1.62-15.32-25-47.23-84.73-46.22C232.64,64.58,187.41,71.87,164,84.06Z"/><path class="cls-12" d="M159.48,157.56s-8.18-32.25,15.89-65.71c-51.51,38-41.88,103.26-41.88,103.26C148.89,210.52,148.89,249,148.89,249l15.41-15.41s-5.95-44.5,23.11-61.62c27-15.89,50.55-7.7,74.62-7.7a189.34,189.34,0,0,0,27.78-1.91C240.12,164.06,210.84,126.43,159.48,157.56Z"/><path class="cls-3" d="M141.68,245.74l8.7,34.78a9.26,9.26,0,0,0,9,7h0a9.26,9.26,0,0,0,9.19-8.11L173,243.85a16,16,0,0,0-15.83-17.93h0A16,16,0,0,0,141.68,245.74Z"/><path class="cls-7" d="M356.86,495.51H302.94a7.7,7.7,0,0,0-7.7,7.7v7.7h69.32v-7.7A7.7,7.7,0,0,0,356.86,495.51Z"/></g></g></svg>