<?xml version="1.0" encoding="utf-8"?>
<!-- Generator: Adobe Illustrator 24.1.0, SVG Export Plug-In . SVG Version: 6.00 Build 0)  -->
<svg version="1.1" id="Layer_1" xmlns="http://www.w3.org/2000/svg" xmlns:xlink="http://www.w3.org/1999/xlink" x="0px" y="0px"
	 viewBox="0 0 512 512" style="enable-background:new 0 0 512 512;" xml:space="preserve">
<style type="text/css">
	.st0{fill:#2F2E41;}
	.st1{fill:#FAFAFA;}
	.st2{fill:#4DB1E0;}
	.st3{opacity:0.7;}
	.st4{fill:#FFFFFF;}
</style>
<g>
	<path class="st0" d="M302.3,377.6h-92.1c-39.4,0-71.5,32.1-71.5,71.5v34.5c35.1,18.1,75,28.4,117.3,28.4
		c42.5,0,82.5-10.4,117.8-28.7v-34.2C373.8,409.7,341.7,377.6,302.3,377.6z"/>
</g>
<path class="st1" d="M400.3,229.8c-3.3,0-5.9-2.6-5.9-5.9v-52.8c0-3.3,2.6-5.9,5.9-5.9s5.9,2.6,5.9,5.9v52.8
	C406.2,227.2,403.5,229.8,400.3,229.8z"/>
<g>
	<path class="st0" d="M135.7,218h-21.1c-12.4,0-22.5,10.1-22.5,22.5v43.4c0,12.4,10.1,22.5,22.5,22.5h21.1c3.3,0,5.9-2.6,5.9-5.9
		v-76.7C141.6,220.6,139,218,135.7,218z"/>
	<path class="st0" d="M397.9,218h-21.1c-3.3,0-5.9,2.6-5.9,5.9v76.7c0,3.3,2.6,5.9,5.9,5.9h21.1c12.4,0,22.5-10.1,22.5-22.5v-43.4
		C420.4,228.1,410.3,218,397.9,218z"/>
</g>
<ellipse class="st1" cx="257.8" cy="368.9" rx="92.7" ry="44.3"/>
<g>
	<circle class="st0" cx="256.3" cy="248.6" r="133.8"/>
	<path class="st0" d="M256.3,108.9c-77,0-139.7,62.7-139.7,139.7s62.7,139.7,139.7,139.7S396,325.7,396,248.6
		S333.3,108.9,256.3,108.9z"/>
</g>
<path class="st2" d="M381.1,216.5c-0.2-0.8-0.6-1.6-1.1-2.2c-14.8-17.7-33.3-31.4-55.1-40.5c-20.8-8.8-44.1-13.2-69.2-13.2
	s-48.3,4.4-69.2,13.2c-21.7,9.1-40.3,22.8-55.1,40.5c-0.5,0.6-0.9,1.4-1.1,2.2c-2.3,9.8-3.5,19.8-3.5,29.9
	c0,71,57.8,128.8,128.8,128.8s128.8-57.8,128.8-128.8C384.6,236.3,383.4,226.3,381.1,216.5z"/>
<g class="st3">
	<path class="st4" d="M149.8,98.7l27-3l-27-3l-3-27l-3,27l-27,3l27,3l3,27L149.8,98.7z M434.1,354.6l19.2-2.1l-19.2-2.1l-2.1-19.3
		l-2.1,19.3l-19.3,2.1l19.3,2.1l2.1,19.2L434.1,354.6z M92.2,356.6l17.3-1.9l-17.3-1.9l-1.9-17.2l-1.9,17.2l-17.2,1.9l17.2,1.9
		l1.9,17.2L92.2,356.6z"/>
	<g>
		<path id="B" class="st4" d="M95.8,406.4l6.8-6.8l6.8,6.8l-6.8,6.8L95.8,406.4z"/>
	</g>
	<g>
		<path id="B_1_" class="st4" d="M396.8,132.6l3.4-3.4l3.4,3.4l-3.4,3.4L396.8,132.6z"/>
	</g>
	<g>
		<path id="B_2_" class="st4" d="M343.6,76.6l6.8-6.8l6.8,6.8l-6.8,6.8L343.6,76.6z"/>
	</g>
	<g>
		<path id="B_3_" class="st4" d="M449.7,223.5l6.8-6.8l6.8,6.8l-6.8,6.8L449.7,223.5z"/>
	</g>
	<g>
		<path id="B_5_" class="st4" d="M240.5,34.9l3.4-3.4l3.4,3.4l-3.4,3.4L240.5,34.9z"/>
	</g>
	<g>
		<path id="B_6_" class="st4" d="M27.3,249.3l3.4-3.4l3.4,3.4l-3.4,3.4L27.3,249.3z"/>
	</g>
	<g>
		<path id="B_7_" class="st4" d="M64.3,164.8l6.8-6.8l6.8,6.8l-6.8,6.8L64.3,164.8z"/>
	</g>
</g>
</svg>
