<?xml version="1.0" encoding="UTF-8"?>
<svg enable-background="new 0 0 512 512" version="1.1" viewBox="0 0 512 512" xml:space="preserve" xmlns="http://www.w3.org/2000/svg">
<style type="text/css">
	.st0{fill:#6569DF;}
	.st1{fill:#2F2E41;}
	.st2{fill:#FAFAFA;}
	.st3{fill:#4DB1E0;}
	.st4{opacity:0.7;}
	.st5{fill:#FFFFFF;}
</style>
<circle class="st0" cx="256" cy="256" r="256"/>
	<path class="st1" d="m302.3 377.6h-92.1c-39.4 0-71.5 32.1-71.5 71.5v34.5c35.1 18.1 75 28.4 117.3 28.4 42.5 0 82.5-10.4 117.8-28.7v-34.2c0-39.4-32.1-71.5-71.5-71.5z"/>
<path class="st2" d="m400.3 229.8c-3.3 0-5.9-2.6-5.9-5.9v-52.8c0-3.3 2.6-5.9 5.9-5.9s5.9 2.6 5.9 5.9v52.8c0 3.3-2.7 5.9-5.9 5.9z"/>
	<path class="st1" d="m135.7 218h-21.1c-12.4 0-22.5 10.1-22.5 22.5v43.4c0 12.4 10.1 22.5 22.5 22.5h21.1c3.3 0 5.9-2.6 5.9-5.9v-76.7c0-3.2-2.6-5.8-5.9-5.8z"/>
	<path class="st1" d="m397.9 218h-21.1c-3.3 0-5.9 2.6-5.9 5.9v76.7c0 3.3 2.6 5.9 5.9 5.9h21.1c12.4 0 22.5-10.1 22.5-22.5v-43.4c0-12.5-10.1-22.6-22.5-22.6z"/>
<ellipse class="st2" cx="257.8" cy="368.9" rx="92.7" ry="44.3"/>
	<circle class="st1" cx="256.3" cy="248.6" r="133.8"/>
	<path class="st1" d="m256.3 108.9c-77 0-139.7 62.7-139.7 139.7s62.7 139.7 139.7 139.7 139.7-62.6 139.7-139.7-62.7-139.7-139.7-139.7z"/>
<path class="st3" d="m381.1 216.5c-0.2-0.8-0.6-1.6-1.1-2.2-14.8-17.7-33.3-31.4-55.1-40.5-20.8-8.8-44.1-13.2-69.2-13.2s-48.3 4.4-69.2 13.2c-21.7 9.1-40.3 22.8-55.1 40.5-0.5 0.6-0.9 1.4-1.1 2.2-2.3 9.8-3.5 19.8-3.5 29.9 0 71 57.8 128.8 128.8 128.8s128.8-57.8 128.8-128.8c0.2-10.1-1-20.1-3.3-29.9z"/>
<g class="st4">
	<path class="st5" d="m149.8 98.7 27-3-27-3-3-27-3 27-27 3 27 3 3 27 3-27zm284.3 255.9 19.2-2.1-19.2-2.1-2.1-19.3-2.1 19.3-19.3 2.1 19.3 2.1 2.1 19.2 2.1-19.2zm-341.9 2 17.3-1.9-17.3-1.9-1.9-17.2-1.9 17.2-17.2 1.9 17.2 1.9 1.9 17.2 1.9-17.2z"/>
		<path class="st5" d="m95.8 406.4 6.8-6.8 6.8 6.8-6.8 6.8-6.8-6.8z"/>
		<path class="st5" d="m396.8 132.6 3.4-3.4 3.4 3.4-3.4 3.4-3.4-3.4z"/>
		<path class="st5" d="m343.6 76.6 6.8-6.8 6.8 6.8-6.8 6.8-6.8-6.8z"/>
		<path class="st5" d="m449.7 223.5 6.8-6.8 6.8 6.8-6.8 6.8-6.8-6.8z"/>
		<path class="st5" d="m240.5 34.9 3.4-3.4 3.4 3.4-3.4 3.4-3.4-3.4z"/>
		<path class="st5" d="m27.3 249.3 3.4-3.4 3.4 3.4-3.4 3.4-3.4-3.4z"/>
		<path class="st5" d="m64.3 164.8 6.8-6.8 6.8 6.8-6.8 6.8-6.8-6.8z"/>
</g>
</svg>
