<svg xmlns="http://www.w3.org/2000/svg" xmlns:xlink="http://www.w3.org/1999/xlink" id="Layer_1" x="0" y="0" enable-background="new 0 0 566.9 566.9" version="1.1" viewBox="0 0 566.9 566.9" xml:space="preserve"><style type="text/css">.st0{stroke:#000;stroke-miterlimit:10}.st0,.st1{fill:#63d2d6}.st2{fill:#5629b6}</style><path d="M232.3,356.6c0-28.3,25.6-51.2,51.2-51.2s51.2,22.9,51.2,51.2c0,0-11,14.6-51.2,14.6S232.3,356.6,232.3,356.6z" class="st0"/><path d="M316.4,272.5c0,18.2-14.7,32.9-32.9,32.9s-32.9-14.7-32.9-32.9c0-18.2,14.7-32.9,32.9-32.9	S316.4,254.3,316.4,272.5L316.4,272.5z" class="st1"/><path d="M430.3,306c-4,0-7.3-3.3-7.3-7.3c0-0.3,0-0.6,0.1-1c4.6-35,6.8-70.3,6.6-105.6c0-4,3.2-7.3,7.3-7.4l0,0	c4,0,7.3,3.2,7.3,7.3c0.2,36-2.1,71.9-6.7,107.6C437,303.3,433.9,306,430.3,306L430.3,306z" class="st2"/><path d="M201.5,445.9c-1.8,0-3.5-0.7-4.9-1.9c-39.3-35.4-61.4-87.3-69.6-163.4c-0.3-4,2.8-7.5,6.8-7.8	c3.8-0.2,7.1,2.4,7.7,6.2c7.8,72.3,28.4,121.3,64.9,154.1c3,2.7,3.2,7.3,0.5,10.3C205.5,445,203.5,445.9,201.5,445.9L201.5,445.9z" class="st2"/><path d="M131.4,250.6c-3.9,0-7.1-3-7.3-6.9c-0.8-15.1-1.2-31.5-1.4-51.5c0-4,3.2-7.3,7.2-7.4c0,0,0,0,0,0h0.1	c4,0,7.3,3.2,7.3,7.2c0.2,19.8,0.6,36,1.4,50.9c0.2,4-2.9,7.5-6.9,7.7H131.4z" class="st2"/><path d="M283.5,488.3c-0.6,0-1.2-0.1-1.8-0.2c-18.9-4.8-37.1-12-54.1-21.6c-3.5-2-4.8-6.4-2.8-10s6.4-4.8,10-2.8	c15.3,8.6,31.7,15.2,48.6,19.7C352.3,454.8,393.7,413,413.8,342c1.2-3.9,5.3-6,9.1-4.9c3.8,1.1,5.9,5.1,4.9,8.9	c-21.5,76.1-68.1,122.5-142.5,142C284.7,488.2,284.1,488.2,283.5,488.3L283.5,488.3z" class="st2"/><path d="M283.5,86c-47.5,84.1-153.6,69.5-153.6,69.5c0,12.1,0,24.3,0.1,36.6c2.4,0.3,95.7,10.2,153.5-47.5	c57.8,57.8,151.1,47.8,153.5,47.5c0.1-12.2,0.1-24.5,0.1-36.6C437,155.5,331,170.1,283.5,86L283.5,86z" class="st1"/><path d="M418.3,200.2c-30.6,0-90.8-5.7-134.9-45.6c-16.3,14.6-35.4,25.7-56.1,32.8c-3.8,1.3-8-0.8-9.3-4.6	c-1.3-3.8,0.8-8,4.6-9.3c20.9-7.1,39.9-18.8,55.8-34.2c2.9-2.8,7.5-2.8,10.3,0.1c47.2,47.2,119.4,47.2,141.1,46	c0-7.3,0.1-14.6,0.1-21.9c-21.6,1.3-43.2-0.9-64.1-6.6c-3.9-1.1-6.2-5.1-5.1-9c1.1-3.9,5.1-6.2,9-5.1l0,0	c21.7,5.9,44.4,7.8,66.8,5.6c4-0.4,7.6,2.6,8,6.6c0,0.2,0,0.5,0,0.7c0,12.1,0,24.4-0.1,36.6c0,3.7-2.8,6.7-6.4,7.2	C431.3,200,424.8,200.3,418.3,200.2L418.3,200.2z" class="st2"/><path d="M149.7,200.2c-6.8,0-13.6-0.3-20.4-0.9c-3.8-0.3-6.7-3.4-6.7-7.2c-0.1-12.3-0.1-24.5-0.1-36.6	c0-4,3.3-7.3,7.3-7.3c0.3,0,0.7,0,1,0.1c1,0.1,101.8,12.9,146.2-65.8c1.3-2.3,3.7-3.7,6.4-3.7l0,0c2.6,0,5.1,1.4,6.4,3.8	c10.6,19,26.1,34.7,44.8,45.7c3.5,2,4.7,6.5,2.6,10s-6.5,4.7-10,2.6c-17.5-10.2-32.5-24.2-43.9-40.9	c-43.2,63.3-120.8,64.9-146.3,63.6c0,7.2,0,14.5,0.1,21.8c16.7,0.9,33.4,0,49.9-2.8c4-0.7,7.8,2,8.4,6s-2,7.8-6,8.4l0,0	C176.4,199.1,163.1,200.2,149.7,200.2L149.7,200.2z" class="st2"/><path d="M283.5,312.7c-22.2,0-40.2-18-40.2-40.2c0-22.2,18-40.2,40.2-40.2c22.2,0,40.2,18,40.2,40.2	C323.7,294.7,305.7,312.7,283.5,312.7z M283.5,246.9c-14.1,0-25.6,11.5-25.6,25.6s11.5,25.6,25.6,25.6s25.6-11.5,25.6-25.6l0,0	C309,258.4,297.6,246.9,283.5,246.9L283.5,246.9z" class="st2"/><path d="M276.1,378.4h-0.4c-36.6-1.8-48.2-15.8-49.4-17.4c-0.9-1.3-1.5-2.8-1.5-4.4c0-31.2,27.3-58.5,58.5-58.5	s58.5,27.3,58.5,58.5c0,1.6-0.5,3.1-1.5,4.4c-0.7,0.9-7.3,9.2-26,14c-3.9,1.1-7.9-1.1-9.1-5c-1.1-3.9,1.1-7.9,5-9.1	c0.1,0,0.2-0.1,0.4-0.1c9-2.3,14-5.4,16.3-7.3c-1.8-23.6-23.9-40.9-43.8-40.9s-42,17.3-43.8,40.9c3.6,2.8,14.2,9.1,36.8,10.2	c4,0.1,7.2,3.4,7.1,7.5C283.5,375.3,280.2,378.5,276.1,378.4L276.1,378.4z" class="st2"/></svg>