<svg xmlns="http://www.w3.org/2000/svg" xmlns:xlink="http://www.w3.org/1999/xlink" viewBox="0 0 1086.1 611.7"><defs><style>.cls-1,.cls-3,.cls-6,.cls-7{fill:#673fbd;}.cls-1,.cls-21,.cls-8{opacity:0.1;}.cls-1,.cls-17,.cls-18,.cls-4,.cls-6,.cls-7,.cls-8{isolation:isolate;}.cls-15,.cls-2{fill:none;stroke-miterlimit:10;}.cls-2{stroke:#535461;stroke-width:2px;}.cls-4{opacity:0.25;}.cls-17,.cls-5{fill:#fff;}.cls-6{opacity:0.2;}.cls-7{opacity:0.5;}.cls-9{fill:#ffd037;}.cls-10{fill:#444053;}.cls-11{fill:#9d9cb5;}.cls-12{fill:url(#linear-gradient);}.cls-13{fill:#ff6484;}.cls-14{fill:#fbbebe;}.cls-15{stroke:#673fbd;}.cls-16{fill:#65617d;}.cls-18{opacity:0.02;}.cls-19{fill:#efb7b9;}.cls-20{fill:#925978;}</style><linearGradient id="linear-gradient" x1="102.69" y1="-112.42" x2="102.69" y2="29.68" gradientTransform="matrix(1, 0, 0, -1, -56.96, 467.13)" gradientUnits="userSpaceOnUse"><stop offset="0" stop-color="gray" stop-opacity="0.25"/><stop offset="0.54" stop-color="gray" stop-opacity="0.12"/><stop offset="1" stop-color="gray" stop-opacity="0.1"/></linearGradient></defs><title>12</title><g id="_83b95cf8-345b-454a-b8f1-f6ca7493daa9" data-name="83b95cf8-345b-454a-b8f1-f6ca7493daa9"><path class="cls-1" d="M604.7,83.4C542,83.1,482,67.1,424.5,49.3S310.2,11.9,248.8,3.2c-39.4-5.6-84.4-5.4-115.6,13.6S94,65.5,89.4,93.7c-3.5,21.2-5.3,43.5,6.1,63,7.9,13.5,21.6,24.7,31.3,37.7,33.5,44.9,12,101.9-22,147.4-16,21.3-34.6,41.8-46.8,64.4s-17.4,48.3-5.7,70.7,38.2,38.6,66.9,49.8c58.4,22.8,126.6,28.1,193,30.4,147.1,5.1,294.7-2.2,441.9-9.5,54.5-2.7,109.2-5.5,162.7-14,29.6-4.8,60.2-12,81.5-28,27-20.3,33-53.8,14-78-31.9-40.6-117.4-48.8-140-92.7-12.5-24.1-1-51.6,15.7-74.7,35.8-49.5,96.8-93.7,98.7-149.3,1.3-38.2-29.4-75.7-75.9-92.7C861.9.4,795,4.4,760.1,36.6S660,83.8,604.7,83.4Z" transform="translate(0 0)"/><g id="db976b58-83c4-4bad-bfc1-713fe8b9d2f6"><path class="cls-2" d="M569,243.9s-27.4-48.6-68.8-62.7a84.4,84.4,0,0,1-42.9-32.1,136.9,136.9,0,0,1-12.7-22.7" transform="translate(0 0)"/><path class="cls-3" d="M418.6,117.4c4.7,4.5,26.6,9.3,26.6,9.3s-5.3-21.8-10.1-26.4a11.9,11.9,0,0,0-16.8.2A12,12,0,0,0,418.6,117.4Z" transform="translate(0 0)"/><path class="cls-3" d="M431,156.9c6.5,1.2,27.5-6.7,27.5-6.7s-16.5-15.4-22.9-16.7a11.9,11.9,0,0,0-14,9.4A12.1,12.1,0,0,0,431,156.9Z" transform="translate(0 0)"/><path class="cls-3" d="M476.2,199.5c6.3-2.1,20.4-19.6,20.4-19.6s-21.9-5-28.1-2.8a11.8,11.8,0,1,0,7.4,22.5Z" transform="translate(0 0)"/><path class="cls-3" d="M517.8,224.2c6.4-1.1,23.3-16,23.3-16s-20.7-8.6-27.2-7.5a11.8,11.8,0,0,0-9.8,13.7,12,12,0,0,0,13.7,9.8Z" transform="translate(0 0)"/><path class="cls-3" d="M476.8,133.1c0,6.6-11.9,25.6-11.9,25.6s-11.9-19-11.9-25.6a11.9,11.9,0,0,1,23.8,0Z" transform="translate(0 0)"/><path class="cls-3" d="M525,162.5c-2,6.3-19,20.9-19,20.9s-5.7-21.7-3.7-28a11.8,11.8,0,0,1,14.9-7.8,12,12,0,0,1,7.8,14.9Z" transform="translate(0 0)"/><path class="cls-3" d="M567.9,197.5c-.9,6.5-15.2,23.8-15.2,23.8s-9.3-20.5-8.4-27a11.9,11.9,0,0,1,13.4-10.2A12,12,0,0,1,567.9,197.5Z" transform="translate(0 0)"/><path class="cls-4" d="M418.6,117.4c4.7,4.5,26.6,9.3,26.6,9.3s-5.3-21.8-10.1-26.4a11.9,11.9,0,0,0-16.8.2A12,12,0,0,0,418.6,117.4Z" transform="translate(0 0)"/><path class="cls-4" d="M431,156.9c6.5,1.2,27.5-6.7,27.5-6.7s-16.5-15.4-22.9-16.7a11.9,11.9,0,0,0-14,9.4A12.1,12.1,0,0,0,431,156.9Z" transform="translate(0 0)"/><path class="cls-4" d="M476.2,199.5c6.3-2.1,20.4-19.6,20.4-19.6s-21.9-5-28.1-2.8a11.8,11.8,0,1,0,7.4,22.5Z" transform="translate(0 0)"/><path class="cls-4" d="M517.8,224.2c6.4-1.1,23.3-16,23.3-16s-20.7-8.6-27.2-7.5a11.8,11.8,0,0,0-9.8,13.7,12,12,0,0,0,13.7,9.8Z" transform="translate(0 0)"/><path class="cls-4" d="M476.8,133.1c0,6.6-11.9,25.6-11.9,25.6s-11.9-19-11.9-25.6a11.9,11.9,0,0,1,23.8,0Z" transform="translate(0 0)"/><path class="cls-4" d="M525,162.5c-2,6.3-19,20.9-19,20.9s-5.7-21.7-3.7-28a11.8,11.8,0,0,1,14.9-7.8,12,12,0,0,1,7.8,14.9Z" transform="translate(0 0)"/><path class="cls-4" d="M567.9,197.5c-.9,6.5-15.2,23.8-15.2,23.8s-9.3-20.5-8.4-27a11.9,11.9,0,0,1,13.4-10.2A12,12,0,0,1,567.9,197.5Z" transform="translate(0 0)"/><path class="cls-2" d="M567.5,243s-5.4-55.7-37.6-85.3A84.6,84.6,0,0,1,503.7,111a142.1,142.1,0,0,1-2.4-26" transform="translate(0 0)"/><path class="cls-3" d="M481.2,66.3c2.4,6.1,20.6,19.3,20.6,19.3s3.9-22.1,1.5-28.2a11.9,11.9,0,1,0-22.2,8.5C481.1,66,481.2,66.1,481.2,66.3Z" transform="translate(0 0)"/><path class="cls-3" d="M476.6,107.4c5.3,3.8,27.8,5,27.8,5s-8.8-20.7-14.1-24.5a11.9,11.9,0,0,0-13.7,19.5Z" transform="translate(0 0)"/><path class="cls-3" d="M500.6,164.8c6.6.5,26.6-9.7,26.6-9.7s-18-13.5-24.6-14a11.9,11.9,0,0,0-2,23.7Z" transform="translate(0 0)"/><path class="cls-3" d="M528.6,204.1c6.4,1.7,27.8-5.1,27.8-5.1s-15.5-16.3-21.8-18a11.9,11.9,0,1,0-7.2,22.7l1.2.3Z" transform="translate(0 0)"/><path class="cls-3" d="M528,104.2c-2.6,6-21.2,18.7-21.2,18.7s-3.2-22.3-.5-28.3a11.9,11.9,0,1,1,21.7,9.6Z" transform="translate(0 0)"/><path class="cls-3" d="M560.2,150.7c-4.4,4.9-25.9,11.4-25.9,11.4s3.6-22.2,8-27.2a11.9,11.9,0,0,1,17.9,15.7h0Z" transform="translate(0 0)"/><path class="cls-3" d="M585.2,200c-3.4,5.6-23.5,15.7-23.5,15.7s-.2-22.5,3.2-28.1A11.9,11.9,0,0,1,585.2,200Z" transform="translate(0 0)"/></g><path class="cls-1" d="M826.5,596.9c3,6-17.9,12.5-43.8,14.3-23.1,1.7-42.2-1-44.6-5.9s12.4-10.8,35-13.5C798.4,588.9,823.6,591,826.5,596.9Z" transform="translate(0 0)"/><polygon class="cls-5" points="218.8 279.6 537.3 166.7 537.3 556.5 218.8 549.9 218.8 279.6"/><polygon class="cls-6" points="218.8 279.6 537.3 166.7 537.3 556.5 218.8 549.9 218.8 279.6"/><polygon class="cls-5" points="0 343.9 181.8 279.6 181.8 549.9 0 549.9 0 343.9"/><polygon class="cls-6" points="0 343.9 181.8 279.6 181.8 549.9 0 549.9 0 343.9"/><polygon class="cls-5" points="537.3 166.7 855.9 279.6 855.9 549.9 537.3 556.5 537.3 166.7"/><polygon class="cls-7" points="537.3 166.7 855.9 279.6 855.9 549.9 537.3 556.5 537.3 166.7"/><polygon class="cls-5" points="1077.9 344.7 893.9 279.6 893.9 549.9 1077.9 549.9 1077.9 344.7"/><polygon class="cls-7" points="1077.9 344.7 893.9 279.6 893.9 549.9 1077.9 549.9 1077.9 344.7"/><path class="cls-3" d="M553.6,499.8s5.9,7.7-2.7,19.4-15.9,21.7-13,28.9c0,0,13.1-21.7,23.8-22S565.3,512.9,553.6,499.8Z" transform="translate(0 0)"/><path class="cls-8" d="M553.6,499.8a9,9,0,0,1,1.2,2.4c10.4,12.2,15.9,23.6,6,23.9s-20.5,16.9-23.2,21.1l.3,1s13.1-21.8,23.8-22S565.3,512.9,553.6,499.8Z" transform="translate(0 0)"/><path class="cls-9" d="M564.6,509.7c0,2.7-.3,4.9-.7,4.9s-.6-2.2-.6-4.9.3-1.5.7-1.5S564.6,506.9,564.6,509.7Z" transform="translate(0 0)"/><path class="cls-9" d="M568.4,512.9c-2.4,1.3-4.5,2.1-4.6,1.8s1.6-1.7,4-3,1.4-.4,1.6,0S570.8,511.6,568.4,512.9Z" transform="translate(0 0)"/><path class="cls-3" d="M522.3,499.8s-6,7.7,2.7,19.4,15.8,21.7,12.9,28.9c0,0-13-21.7-23.7-22S510.6,512.9,522.3,499.8Z" transform="translate(0 0)"/><path class="cls-8" d="M522.3,499.8a9,9,0,0,0-1.2,2.4c-10.4,12.2-16,23.6-6,23.9s20.5,16.9,23.2,21.1a6.9,6.9,0,0,1-.4,1s-13-21.8-23.7-22S510.6,512.9,522.3,499.8Z" transform="translate(0 0)"/><path class="cls-9" d="M511.3,509.7c0,2.7.3,4.9.6,4.9s.7-2.2.7-4.9-.4-1.5-.7-1.5S511.3,506.9,511.3,509.7Z" transform="translate(0 0)"/><path class="cls-9" d="M507.5,512.9c2.4,1.3,4.5,2.1,4.6,1.8s-1.6-1.7-4-3-1.4-.4-1.6,0S505,511.6,507.5,512.9Z" transform="translate(0 0)"/><ellipse class="cls-1" cx="537.9" cy="597.9" rx="62" ry="9.5"/><path class="cls-10" d="M569.9,537.7l-.3,2.4-.5,3.4v1.4l-.4,3.5-.2,1.4-.4,3.4-4.8,38.9c-.4,3.5-6.1,6.2-12.9,6.2H525.6c-6.8,0-12.5-2.7-12.9-6.2l-4.8-38.9-.4-3.4-.2-1.4-.4-3.5-.2-1.4-.4-3.4-.3-2.4c-.2-2,2.9-3.6,6.7-3.6h50.5C567,534.1,570.1,535.7,569.9,537.7Z" transform="translate(0 0)"/><polygon class="cls-11" points="569.6 540.1 569.1 543.5 506.7 543.5 506.3 540.1 569.6 540.1"/><polygon class="cls-11" points="569 545 568.5 548.4 507.3 548.4 506.9 545 569 545"/><polygon class="cls-11" points="568.4 549.8 568 553.2 507.9 553.2 507.5 549.8 568.4 549.8"/><ellipse class="cls-5" cx="1018.9" cy="386.1" rx="9.9" ry="13.2"/><path class="cls-5" d="M1018.9,404.4a11.3,11.3,0,0,1-3.2-.5l-9.8,13.3a.5.5,0,0,0,0,.7l15.5,22a4.4,4.4,0,0,1,0,5.1,2.3,2.3,0,0,1-1.9,1,2.6,2.6,0,0,1-1.9-1l-15.4-22a.3.3,0,0,0-.5-.1c-.1,0-.1,0-.1.1l-3.8,5.1c-3.1,4.3-7.3,3.6-11.8,3.7s-8.9-2.6-12.1-6.9l-3.6-4.9c-.1-.2-.3-.2-.5-.1a.1.1,0,0,0-.1.1l-15.5,22a2.3,2.3,0,0,1-1.9,1,2.2,2.2,0,0,1-1.8-1,4.4,4.4,0,0,1,0-5.1l15.5-22a.9.9,0,0,0,0-.7L943.8,384c-.3-.3-.7-.1-.7.4v60.3c0,4.8,3,8.8,6.6,8.8l72.5,3c3.6,0,6.6-4,6.6-8.8V398.8C1026.3,402.2,1022.8,404.4,1018.9,404.4Z" transform="translate(0 0)"/><path class="cls-5" d="M1005.2,386.1a22.2,22.2,0,0,1,1.7-8.8l-57.3-3a5.7,5.7,0,0,0-4,2l32.3,43.9a10.1,10.1,0,0,0,8,4.5c3,0,6,1.4,8.1-1.5l16.6-22.6C1007.3,397.3,1005.2,392,1005.2,386.1Z" transform="translate(0 0)"/><path class="cls-3" d="M1085.9,544.2s-11.7-.7-10.4,7.5a2.1,2.1,0,0,0,1,2.1s0-.6,1.2-.4h1.3a3.3,3.3,0,0,0,1.6-.7h0s3.2-1.3,4.5-6.7c0,0,1-1.2.9-1.5l-2,.9a3.3,3.3,0,0,1,.2,2.6s-.1-2.6-.5-2.5l-1,.5s1.2,2.5.3,4.3c0,0,.4-3-.6-4.1l-1.4.8s1.4,2.5.4,4.6c0,0,.3-3.2-.7-4.4l-1.3,1s1.3,2.5.5,4.2c0,0-.1-3.7-.7-4a8.6,8.6,0,0,0-1.3,1.4s.9,1.8.3,2.8-.3-2.5-.6-2.5a8.8,8.8,0,0,0-1.2,2.8,6.3,6.3,0,0,1,1-3,4.6,4.6,0,0,0-1.7.9s.2-1.1,2-1.3l1.1-1.3a5.5,5.5,0,0,0-2.8.4,3.3,3.3,0,0,1,3.2-.6l1.2-1a9.2,9.2,0,0,0-3.3,0s1.1-1,3.6-.3l1.4-.8a17.3,17.3,0,0,0-3.2-.3,5,5,0,0,1,3.6.1l1-.5-1.9-.3c-.4,0-.4-.2-.4-.2a6.3,6.3,0,0,1,2.7.3A8.8,8.8,0,0,0,1085.9,544.2Z" transform="translate(0 0)"/><ellipse class="cls-1" cx="1077.8" cy="554.5" rx="8.3" ry="1.4"/><path class="cls-3" d="M905.8,544.6s-14.1-.9-12.4,9a2.3,2.3,0,0,0,1.2,2.5s0-.7,1.5-.5h1.5a2.7,2.7,0,0,0,1.9-.8h0s4-1.6,5.5-8.1a7,7,0,0,0,1.1-1.8l-2.4,1a4.4,4.4,0,0,1,.2,3.2s-.1-3.1-.6-3l-1.2.6s1.4,3,.4,5.1c0,0,.4-3.7-.8-5l-1.7,1s1.6,3.1.5,5.6c0,0,.3-3.8-.8-5.3l-1.6,1.2s1.6,3,.6,5.1c0,0-.1-4.5-.9-4.9a8,8,0,0,0-1.5,1.7s1,2.2.4,3.4-.4-3-.8-3a12.2,12.2,0,0,0-1.4,3.3,6.6,6.6,0,0,1,1.1-3.5,4.2,4.2,0,0,0-2,1s.2-1.4,2.4-1.5a5.4,5.4,0,0,1,1.4-1.6,8.2,8.2,0,0,0-3.5.4s1.2-1.4,3.9-.8l1.5-1.2a13.4,13.4,0,0,0-4,0s1.3-1.2,4.4-.3l1.6-1a12.5,12.5,0,0,0-3.8-.3s1.5-.9,4.3,0l1.1-.5-2.2-.4c-.6-.1-.6-.2-.6-.2a5.3,5.3,0,0,1,3.3.4Z" transform="translate(0 0)"/><ellipse class="cls-1" cx="896.1" cy="557" rx="10" ry="1.7"/><path class="cls-10" d="M784.6,590.8s-5.6.7-8.3-.3.8,4,4.5,5.2a31.2,31.2,0,0,0,8,1.4l4.3-4.1,4.6.4-.8,4.5h1.5l.5-5.9Z" transform="translate(0 0)"/><path class="cls-8" d="M784.6,590.8s-5.6.7-8.3-.3.8,4,4.5,5.2a31.2,31.2,0,0,0,8,1.4l4.3-4.1,4.6.4-.8,4.5h1.5l.5-5.9Z" transform="translate(0 0)"/><path class="cls-10" d="M776.5,601.1s-6.7,1.4-10.1.6,1.4,4.8,6,5.8a41.4,41.4,0,0,0,9.9.8l4.8-5.5h5.6l-.4,5.6H794v-7.2Z" transform="translate(0 0)"/><path class="cls-8" d="M776.5,601.1s-6.7,1.4-10.1.6,1.4,4.8,6,5.8a41.4,41.4,0,0,0,9.9.8l4.8-5.5h5.6l-.4,5.6H794v-7.2Z" transform="translate(0 0)"/><path class="cls-12" d="M71,568.6a14.2,14.2,0,0,1-5.8-2.2H65a.9.9,0,0,0,.3-.7,4,4,0,0,1-.3-1.5,4,4,0,0,0-.3-1.5v-2.5a4.8,4.8,0,0,1-.9-2.9c0-2-.1-12.2-.1-12.2a4.3,4.3,0,0,1-.1-1.6c.1-1.2.1-1.6.1-1.6a3.4,3.4,0,0,1-.2-2.2,3.3,3.3,0,0,0-.6-1.9l1.2-5.6s.6-19.3-1.3-25.1h0c.2-3.8-2.1-10-.8-14.4s1.5-5.3,1.5-5.3-5.7-14.3-7.2-17.6a37.3,37.3,0,0,0-3-6.4l-.3-.4h-.1a3.7,3.7,0,0,0,.5-1.7c.1-1,0-2.3.7-3l1-.7a3.7,3.7,0,0,0,1.6-3.6,5.4,5.4,0,0,0-1.5-2.9,7.7,7.7,0,0,0,.2-1.5,8.5,8.5,0,0,0-2.6-6h0v-.4a4.8,4.8,0,0,0-1-2.9l.3.2-.4-.3-.6-.5a11,11,0,0,0-11.6-.6,7.4,7.4,0,0,0-2.3,2c-1.1,1.8-.8,4.2-1.5,6.3s-2,3.6-3.1,5.4-2.2,3.8-1.7,5.8,1.3,2.8,1.3,4.3a3.3,3.3,0,0,1-3,3.1h-.4a10.2,10.2,0,0,0,4.9,1.6.8.8,0,0,1-.2.4c-1.3,5.3-2.6,12-2.6,12s.9,6.8-.9,12.1S28.5,508,28.5,508s4.9-2.5,5.2-.9,0,2.1,0,2.1l2.1,1v.6l-.2,2.9a2.9,2.9,0,0,0,.3,1.8c.4.8,0,3,0,3s-.4.2,0,1.3a5.4,5.4,0,0,1-.3,2.5s-.4,5.5-.5,6.7a32.6,32.6,0,0,1-1.5,4.4s1.3,1.7,0,1.9-1.5,2.2-1.5,2.2-1.5,1.3-1.5,1.7A35,35,0,0,0,22,557.4s-1.6,1.5-1.3,2.9-.2,1.1-.4,1.2.6.2.4.9-.8,3.7-.8,3.7H20c-1.2,1.4-3,3.8-3.3,6v.2l-.7,1.6,6,2.6.5-.8s2.7,3,5.7,3.7l1.6.2a15.8,15.8,0,0,0,4.9-1s2.2-2.8-3.5-3.3c0,0-3.3-3.8-3-5.4a14.9,14.9,0,0,0,.2-2.1v-.4h.4v-1.2a.8.8,0,0,0,.2-.8c0-.5-.4-.5,0-.8s.5,0,.5-.8-.3-.5.4-1.2-.1-2.1-.1-2.1a3.5,3.5,0,0,0,1.5-2.6c-.1-1.6,5.1-11.4,6.1-11.8s1.2-2.2,1.2-2.2,1.4.3,1.9,0a24.8,24.8,0,0,0,1.9-2.6s5.7-14.6,5.8-20.1l.4-1.3s2.2,2.9,1.9,5,1.7,3.5,1.7,3.5v6.3a29.8,29.8,0,0,1,.4,3.3c-.1,1,.9,2,.5,2.9a4.9,4.9,0,0,0,0,2.4,23.6,23.6,0,0,0,0,2.7c.1.6-.3,7.4,1.7,10.3,0,0,.8,2.1,0,3.5s.7,2.8.7,2.8-1,1.7,0,2.8a3.6,3.6,0,0,1,.7,2.6c-.4,1.5-.7,3.5,0,4.9h0l.2,2.1,5.8-.5v-1.1a22.1,22.1,0,0,0,7.7.4,7,7,0,0,0,5.1-2.7S77.4,567,71,568.6Z" transform="translate(0 0)"/><path class="cls-13" d="M74,571.1a7.1,7.1,0,0,1-5,2.8,23.1,23.1,0,0,1-7.4-.5v1.1L56,575l-.2-2.1h0a8.2,8.2,0,0,1,.1-4.9,17.2,17.2,0,0,1,.7-2.1s4.8-4.1,6.4-1a5.6,5.6,0,0,0,1.4,1.6,13.3,13.3,0,0,0,5.7,2.2C76.3,567.1,74,571.1,74,571.1Z" transform="translate(0 0)"/><path class="cls-8" d="M59,567.1s0,3.8,2.8,3.7,3.2-1.5,2.3-2.5a9.1,9.1,0,0,1-1.5-2.3Z" transform="translate(0 0)"/><path class="cls-13" d="M35,578.6a12.8,12.8,0,0,1-4.7,1l-1.6-.2c-2.9-.6-5.5-3.6-5.5-3.6l-.5.8-5.8-2.7.7-1.5v-.3c.3-2.1,2-4.5,3.2-5.9l1.2-1.3,7,1v2a15,15,0,0,1-.2,2c-.2,1.6,3,5.4,3,5.4C37.2,575.9,35,578.6,35,578.6Z" transform="translate(0 0)"/><path class="cls-10" d="M21.1,561.6h-.3A.2.2,0,0,1,21.1,561.6Z" transform="translate(0 0)"/><path class="cls-8" d="M29,565.9v2l-8.2-1.3a1,1,0,0,1,.1-.4l1.1-1.3Z" transform="translate(0 0)"/><path class="cls-8" d="M64.5,566.5c-1.3,2.9-8.6,2.2-8.6,2.2V568a17.2,17.2,0,0,1,.7-2.1s4.8-4.1,6.5-1A4.3,4.3,0,0,0,64.5,566.5Z" transform="translate(0 0)"/><path class="cls-10" d="M64.6,565.7c-.7,3.3-8.7,2.6-8.7,2.6a4,4,0,0,0-.7-2.8c-1-1.2,0-2.8,0-2.8s-1.5-1.4-.7-2.8,0-3.5,0-3.5c-1.9-3-1.6-9.7-1.7-10.3v-2.6a9.6,9.6,0,0,1,0-2.4c.4-.9-.5-2-.5-3a16.6,16.6,0,0,0-.3-3.2v-6.3a4.5,4.5,0,0,1-1.6-3.5c.3-2.1-1.8-4.9-1.8-4.9l-.4,1.2c-.1,5.5-5.6,20-5.6,20a24.8,24.8,0,0,1-1.9,2.6c-.4.3-1.8,0-1.8,0s-.1,1.9-1.1,2.3-6,10.1-5.9,11.6a3.6,3.6,0,0,1-1.5,2.7s.7,1.4.1,2.1-.4.5-.4,1.2,0,.5-.4.8,0,.3,0,.8a1.1,1.1,0,0,1-.3.8v1.2l-8.6-1.4s.6-2.5.8-3.6-.2-.9-.4-.9.4-.4.3-1.2,1.3-2.8,1.3-2.8A35.6,35.6,0,0,1,31,539.3c0-.4,1.4-1.7,1.4-1.7s.2-2,1.4-2.2,0-1.8,0-1.8a19.8,19.8,0,0,0,1.5-4.5c.1-1.2.5-6.7.5-6.7a5.1,5.1,0,0,0,.3-2.5c-.4-1,0-1.2,0-1.2s.4-2.2,0-3a2.9,2.9,0,0,1-.3-1.8l.2-2.8.3-4.3s22.8-3.9,25.3-.8a3.1,3.1,0,0,1,.6,1.3c1.8,5.8,1.2,25,1.2,25l-1.1,5.6a2.5,2.5,0,0,1,.5,1.9,5,5,0,0,0,.2,2.1s0,.5-.1,1.6a8.1,8.1,0,0,0,.1,1.6s.1,10.1.2,12.2a4.4,4.4,0,0,0,.8,2.9v2.5a3.2,3.2,0,0,1,.3,1.4A2.9,2.9,0,0,0,64.6,565.7Z" transform="translate(0 0)"/><path class="cls-8" d="M30.3,579.6l-1.6-.2c-2.9-.7-5.5-3.7-5.5-3.7l-.5.8-5.8-2.6.7-1.5v-.3l6,3S28.4,577.4,30.3,579.6Z" transform="translate(0 0)"/><path class="cls-8" d="M69,573.9a23.1,23.1,0,0,1-7.4-.5v1.1L56,575l-.2-2.1c1.8,0,4.7.1,5.9,0A25.2,25.2,0,0,1,69,573.9Z" transform="translate(0 0)"/><path class="cls-8" d="M24,559.7a1.1,1.1,0,0,1,.8.1,2.4,2.4,0,0,1,.9.6l.5.3.5.7a2.8,2.8,0,0,0,1.6.5.1.1,0,0,1,.1.1c0,.1,0,.2-.1.2h-.8l-.7-.5a4.2,4.2,0,0,0-1.4-.9c-.7-.3-1.9-.3-2.3-1A1.4,1.4,0,0,1,24,559.7Z" transform="translate(0 0)"/><path class="cls-8" d="M23.4,561.2l.4.2.8.4a2.4,2.4,0,0,1-1.5-.4l-.5-.2A1.1,1.1,0,0,1,23.4,561.2Z" transform="translate(0 0)"/><path class="cls-8" d="M24.4,562.5h.5l.8.5a3.1,3.1,0,0,0,1.9.6H25.1l-.7-.2c-.2-.2-1.4-.5-1.4-.8S24.1,562.5,24.4,562.5Z" transform="translate(0 0)"/><path class="cls-8" d="M60.2,564.4h1.5a3.4,3.4,0,0,0,1.4-.5c.5-.3.4-.7-.2-.7a3.3,3.3,0,0,0-1.4.4l-.7.3Z" transform="translate(0 0)"/><path class="cls-8" d="M62,565.2l-.4.3a2.8,2.8,0,0,1-1.3.3c-.1,0-.4,0-.3-.2s.5-.1.6-.1Z" transform="translate(0 0)"/><path class="cls-8" d="M57.6,564.9a2.9,2.9,0,0,1,1.8.3h0a.7.7,0,0,1-.6.3l-.7-.2H56.4c-.5-.1-.3-.3,0-.4Z" transform="translate(0 0)"/><path class="cls-8" d="M37.5,536.1a4.8,4.8,0,0,0-2.5-.9A3.8,3.8,0,0,1,37.5,536.1Z" transform="translate(0 0)"/><path class="cls-8" d="M36.8,533.1a4.5,4.5,0,0,1,1.9.5l-.7-.2-1.2-.2h0Z" transform="translate(0 0)"/><path class="cls-8" d="M39,534.5c.2,0,.5.1.5.4a4.4,4.4,0,0,0-1.6-.6c-.3-.1-1.2-.6-1.5-.3A20,20,0,0,0,39,534.5Z" transform="translate(0 0)"/><path class="cls-8" d="M41,528a6.3,6.3,0,0,0,2.6-1.6,2.1,2.1,0,0,1-1,1.6,4,4,0,0,1-1.8.7,6,6,0,0,0-1.9.6c-.3.1-1.2,1-1.5,1s.2-.6.4-.7A13.7,13.7,0,0,1,41,528Z" transform="translate(0 0)"/><path class="cls-8" d="M59,537.5c-.3-.1-4.1.6-3.8-.1s1.3-.3,1.6-.3Z" transform="translate(0 0)"/><path class="cls-14" d="M54.9,449.9a11,11,0,0,1-.2,1.8,8.4,8.4,0,0,1-10,6.3,8.3,8.3,0,1,1,10.2-8.1Z" transform="translate(0 0)"/><path class="cls-15" d="M50.9,453.3s-2.7,7.9-1.2,9.5-11.1,2.6-11.1,2.6,5.3-9.5,4.8-11.8S50.9,453.3,50.9,453.3Z" transform="translate(0 0)"/><path class="cls-8" d="M62.2,507.3v.5c-.2,3.8-6.9,11.3-8.4,10s-12-3.7-12-3.7-1.5-2.4-3.1-2.4A7.7,7.7,0,0,1,36,511l.3-4.3s22.8-3.9,25.3-.7A3.1,3.1,0,0,1,62.2,507.3Z" transform="translate(0 0)"/><path class="cls-16" d="M62.2,507.2c-.1,1.9-1.8,4.7-3.7,6.9s-3.9,3.7-4.7,3.1l-1.8-.8c-3.5-1.3-10.2-2.9-10.2-2.9s-1.6-2.4-3.2-2.4-4.7-1.6-4.7-1.6.3-.5,0-2.1-5,.9-5,.9-.2-10.9,1.5-16.1.9-12,.9-12,1.2-6.7,2.5-11.9c.8-3.2,1.6-5.8,2.2-6.3s10.5,0,10.5,0a44,44,0,0,1,5.1.5,2.7,2.7,0,0,1,1,.8l.3.4a39.6,39.6,0,0,1,2.9,6.3c1.4,3.4,6.9,17.6,6.9,17.6a39.4,39.4,0,0,1-1.4,5.3C60.1,497.2,62.3,503.4,62.2,507.2Z" transform="translate(0 0)"/><path class="cls-14" d="M55.9,511.5l2.6,2.6s2.4,8.3-.7,7.6-5.8-5.3-5.8-5.3Z" transform="translate(0 0)"/><path class="cls-8" d="M62.5,488.3c-6.2-.1-7.8-8.8-7.8-8.8s-.5-8.7-1.3-10.3a20,20,0,0,1-.7-4.9,40.6,40.6,0,0,1,2.9,6.4C57,474,62.5,488.3,62.5,488.3Z" transform="translate(0 0)"/><path class="cls-16" d="M62.8,487.6c-6.3-.1-7.9-8.8-7.9-8.8s-.4-8.6-1.2-10.3a15.6,15.6,0,0,1-.8-4.8,36.4,36.4,0,0,1,3,6.3C57.3,473.4,62.8,487.6,62.8,487.6Z" transform="translate(0 0)"/><path class="cls-8" d="M51.6,466.1s-1.8-5-4.8,0a24.8,24.8,0,0,0-3.1,11.3l-.5,13.8a8.4,8.4,0,0,1,.9,2.8c0,1,1.8,4,1.8,4s.4,5.8,2.1,6.8l1.6,4.7s.1,3.2,1.2,4.4a4,4,0,0,1,.5,3.2l6.5-2.3s-.7.3,0-1.7-.4-4.5-.4-4.5-4.2-9.1-4.7-10.4-1.2-2.9-1-4.4.1-17.9.4-20.4S51.6,466.1,51.6,466.1Z" transform="translate(0 0)"/><path class="cls-13" d="M52.3,465.4s-1.9-5-4.9,0a26.2,26.2,0,0,0-3.1,11.3l-.5,13.8a8.5,8.5,0,0,1,1,2.8c0,1,1.7,4,1.7,4s.5,5.8,2.2,6.8l1.6,4.7s.1,3.2,1.2,4.4a4,4,0,0,1,.5,3.2l6.5-2.3s-.7.3,0-1.7-.5-4.5-.5-4.5l-4.7-10.5a9.2,9.2,0,0,1-1-4.4c.3-1.5.1-17.8.5-20.3S52.3,465.4,52.3,465.4Z" transform="translate(0 0)"/><path class="cls-8" d="M52.4,508.5l.8.2.6.4.7.2H53.1l-.5-.2a1,1,0,0,0-.5-.4c-.2,0-.4-.1-.4-.2Z" transform="translate(0 0)"/><path class="cls-8" d="M54.9,510.5h2a2.6,2.6,0,0,1-1.9.4.6.6,0,0,0-.6,0c-.2.1-.8.8-.8.1S54.5,510.5,54.9,510.5Z" transform="translate(0 0)"/><path class="cls-8" d="M51.5,441.1l-1.1-.8h.4l.6.5.3.3Z" transform="translate(0 0)"/><path class="cls-8" d="M52.7,463.3a3.1,3.1,0,0,1-.9,1.1,1.3,1.3,0,0,1-.8.3H49.8l-1.4-.5-2.9-1a4.6,4.6,0,0,0-4.2.9c-.9.9-1.1,2.4-2.1,3.3s-3.2,1.2-5,.9h-.4c.8-3.2,1.6-5.8,2.3-6.2s10.5,0,10.5,0a28.1,28.1,0,0,1,5,.4A2.4,2.4,0,0,1,52.7,463.3Z" transform="translate(0 0)"/><path class="cls-8" d="M38.2,449.9a8.3,8.3,0,0,1,14.2-6h0c0,1.4-.3,3,.1,4.3a11.1,11.1,0,0,0,2.2,3.4,8.4,8.4,0,0,1-16.5-1.7Z" transform="translate(0 0)"/><path class="cls-10" d="M51.7,440.8a10.3,10.3,0,0,0-12.1-1.4,7,7,0,0,0-2.2,2c-1.1,1.8-.9,4.2-1.5,6.3a21.3,21.3,0,0,1-3,5.3c-1.1,1.7-2.1,3.8-1.7,5.8s1.4,2.8,1.4,4.3a3.5,3.5,0,0,1-3.3,3.2,10.8,10.8,0,0,0,4.9,1.5c1.8.3,3.8.4,5-.9s1.2-2.4,2.1-3.3a4.6,4.6,0,0,1,4.2-.9l4.3,1.4a2.5,2.5,0,0,0,1.2.2c1.2-.2,2-1.6,2.1-2.9s-.1-2.2.6-3l.9-.6a3.7,3.7,0,0,0,1.6-3.6c-.3-2.5-3-4-3.7-6.4a16.1,16.1,0,0,1-.1-4.4c0-1.4-.6-3.1-2-3.6" transform="translate(0 0)"/><path class="cls-8" d="M56.1,454.2c-.3-2.4-3-4-3.7-6.4s-.1-2.9-.2-4.4a4,4,0,0,0-.8-2.8l.2.2-.4-.3-.5-.5-.4-.3.2.2h-.2a4.7,4.7,0,0,1,.9,2.8c0,1.5-.3,3,.1,4.3s3.4,4,3.7,6.5a3.7,3.7,0,0,1-1.6,3.6l-.9.6c-.7.8-.6,2-.7,3s-.8,2.7-2,2.8a2.3,2.3,0,0,1-1.2-.1c-1.5-.4-2.8-1.1-4.3-1.4a4.5,4.5,0,0,0-4.2.8c-.9,1-1.2,2.4-2.1,3.4s-3.3,1.2-5,.9a14,14,0,0,1-3.4-.8.3.3,0,0,1-.4,0,9.8,9.8,0,0,0,4.9,1.6c1.7.3,3.8.4,5-.9s1.1-2.4,2.1-3.3a4.3,4.3,0,0,1,4.2-.9c1.4.3,2.8,1,4.3,1.4a2,2,0,0,0,1.1.1c1.3-.1,2-1.5,2.1-2.8s-.1-2.2.7-3l.9-.6A3.7,3.7,0,0,0,56.1,454.2Z" transform="translate(0 0)"/><path class="cls-1" d="M88.3,573.7c1.6,5.3-19.9,8.7-45.3,7.8-22.7-.9-40.5-5.1-41.8-9.5s14.2-7.9,36.6-8C62.9,564,86.7,568.3,88.3,573.7Z" transform="translate(0 0)"/><path class="cls-17" d="M750.8,420.5a7.9,7.9,0,0,1,1.2-4.2l.7-1.1a55.9,55.9,0,0,0,9.5-31.2c.1-31.9-26.8-57.7-60-57.7-29.1,0-53.2,19.7-58.9,45.9A52.7,52.7,0,0,0,642,384a58.6,58.6,0,0,0,59.1,58.5c5.3,0,12.4-1.6,16.4-2.6s7.7-2.5,8.7-2.9a9.6,9.6,0,0,1,3.3-.6,8,8,0,0,1,3.4.7l19.7,6.9,1.3.4a2.8,2.8,0,0,0,2.8-2.7h0c-.1-.3-.1-.6-.2-.9Z" transform="translate(0 0)"/><path class="cls-17" d="M114.9,413.5l7.9-1.6s-6.6,7.5-7.9,7.9h0a38.4,38.4,0,0,0,0,4.8c-15.1,65.1-71.1,36.3-71.1,36.3C64.2,461.4,66,453,66,453c-11.9-1.7-14.3-9.5-14.3-9.5a4.9,4.9,0,0,0,6.4-1.6C45.3,438.6,47,426.1,47,426.1a15.6,15.6,0,0,0,7.7,3c-1.4-1.7-13.4-16.1-6.1-23.5,0,0,8.8,15.8,32.1,17.2l1.5-.3a19.8,19.8,0,0,1-.3-3.5,16.7,16.7,0,0,1,16.6-16.6c11.1,0,13.4,6.4,13.4,6.4l7.9-4.8C119.7,404,118.9,411.9,114.9,413.5Z" transform="translate(0 0)"/><path class="cls-17" d="M391.6,352.2v11.5h18.3l-2.3,20.5h-16v57.2H366.4V384.2H355V363.6h11.4V352.3s-2.1-21.7,18.3-25.2h25.1v18.3H398.4A6.9,6.9,0,0,0,391.6,352.2Z" transform="translate(0 0)"/></g><g id="Layer_2" data-name="Layer 2"><path class="cls-10" d="M801.4,472.9s11.5,12.9,4.6,27.3a14.7,14.7,0,0,0-.1,3.1c.3.5-1.1,6.5-1.1,6.5s-.2,10.8,0,12.7.4,2.8.4,2.8,2.6,20.1,1.8,26.1-1.2,16.7-1.2,16.7l-3.5,28.8-17.7-3.3,8-39.5.3-7s-3.3-8.6-1.8-12.9-.4-59.6-.4-59.6Z" transform="translate(0 0)"/><path class="cls-18" d="M801.4,472.9s11.5,12.9,4.6,27.3a14.7,14.7,0,0,0-.1,3.1c.3.5-1.1,6.5-1.1,6.5s-.2,10.8,0,12.7.4,2.8.4,2.8,2.6,20.1,1.8,26.1-1.2,16.7-1.2,16.7l-3.5,28.8-17.7-3.3,8-39.5.3-7s-3.3-8.6-1.8-12.9-.4-59.6-.4-59.6Z" transform="translate(0 0)"/><path class="cls-10" d="M792.9,534.9c-2,3.9-.7,13.3-.7,13.3,2.7,2.3,1.2,22.4,1.2,22.4s1.8,19.9,3,22.2,1,11.8,1,11.8c-13.6,2.5-22.4-2.9-22.4-2.9s4.3-9.8,4.4-10.3.6.4.8.6l-.8-1.1c-1.8-2.5,0-7.5,0-7.5s-2.3-16-1.2-17.6-.2-6.9-.8-8.2a18.6,18.6,0,0,1-1.5-5.6,9.4,9.4,0,0,0-.6-2.9c-2.8-4.1-2.3-10.8-2.3-10.8a91.5,91.5,0,0,0-1.4-17.4c-1.7-7.6,2-29.3,2-29.3s-1.2-4.3-.3-5.8a8.2,8.2,0,0,0,.2-4c-.2-2-.6-3.9-.6-3.9l25.1-4.4c.6.9,1,1.7,1.5,2.5,8.3,15.4,2.7,21.1,2.7,21.1l-5.3,16.4S795,531.1,792.9,534.9Z" transform="translate(0 0)"/><path class="cls-19" d="M753,414.6l-3.6,3-1.6-1.4c-2.3-2-5.9-5.8-4.5-7.3a2.5,2.5,0,0,1,3.7-.7h.1c-.2-.2-4.4-4.7-2.6-4.3s5,4.2,5,4.2l2.5,4.6Z" transform="translate(0 0)"/><polygon class="cls-19" points="801.2 464.4 797 465.7 800.2 471.3 803.9 466.5 801.2 464.4"/><circle class="cls-19" cx="791.3" cy="399.4" r="12.1"/><path class="cls-19" d="M784.2,403.9s11,17.4.5,18.9,14,12,14,12l9.1-9.2s-9.5-16.4-8-22.7S784.2,403.9,784.2,403.9Z" transform="translate(0 0)"/><path class="cls-8" d="M799.5,476a46.7,46.7,0,0,1-7.4,1.7s-13.6,6-18.5,4c-.3-2-.7-3.8-.7-3.8l25.1-4.4A23.6,23.6,0,0,1,799.5,476Z" transform="translate(0 0)"/><path class="cls-13" d="M812,430.4l-2.4,5.1-2.8,5.7-.4.9-3.3,7.1-4.2,9s1.5,1.7,1,3.1-1.1.7-1.2.7,1,1.3.2,1.8a1.6,1.6,0,0,0-.5,1.7s3.4,5.7,4,7.7-10.3,3.8-10.3,3.8-15.6,6.9-19.5,3.5,0-19.5,0-19.5,0-9.2,1-10,.6-7.2.6-7.2c-2.7-4.9-.9-7.7-.9-7.7l-.7-12.5s1.2-1.3,2.1-1.4h1.8l1.2-.4c1.5-.4,3.9-1,4.8-.5s9.6-1,9.6-1a78.9,78.9,0,0,1,10.8-1,8.9,8.9,0,0,1,3.6.4,4.7,4.7,0,0,1,3.6,3.1,5.7,5.7,0,0,0,1.1,4.2C812.7,429.4,812,430.4,812,430.4Z" transform="translate(0 0)"/><path class="cls-8" d="M753,414.6l-3.6,3-1.6-1.4c-.3-3.2,2.3-3.6,4.2-3.5Z" transform="translate(0 0)"/><path class="cls-13" d="M774.2,423.5h-1.6s-3.7.5-4.9-.7-5.4-1.4-5.4-1.4a9.7,9.7,0,0,0-2.5-3.2c-1.3-.7-4.4-2.1-4.5-2.8a7.2,7.2,0,0,0-1.2-2.1s-6.9-1.7-5.9,3.7,6.6,10.2,6.6,10.2.7,3,2.8,3.8,15.9,7.2,18.1,5.5S774.2,423.5,774.2,423.5Z" transform="translate(0 0)"/><path class="cls-8" d="M811.2,427a6.1,6.1,0,0,1-1.1-4.3,5.2,5.2,0,0,0-3.5-3.1,11.3,11.3,0,0,0-1.8-.3,4.6,4.6,0,0,1,3.4,3.1,6.8,6.8,0,0,0,1.1,4.2c1.5,2.4.9,3.4.9,3.4l-2.5,5.1-2.8,5.8-.3.8-3.3,7.1-4.2,9s1.5,1.7,1,3.1-1.1.8-1.2.7,1,1.3.2,1.8a1.9,1.9,0,0,0-.6,1.8,72.1,72.1,0,0,1,4.1,7.6c.6,2.1-10.4,3.8-10.4,3.8s-10.8,4.8-16.6,4.4c5,2,18.5-4,18.5-4s11-1.8,10.3-3.8-4-7.7-4-7.7a1.6,1.6,0,0,1,.5-1.7c.8-.5-.1-1.7-.2-1.9s.8.7,1.2-.6-1-3.1-1-3.1l4.2-9,3.3-7.2.4-.8,2.8-5.7,2.4-5.1S812.7,429.4,811.2,427Z" transform="translate(0 0)"/><path class="cls-13" d="M810.4,429l1.6,1.4a7.7,7.7,0,0,0,1.4,2.5c.9,1,3.4,11.1,3.4,11.1a2,2,0,0,0,0,1.5c.4.7-.7,1.8-.7,1.8s-.6-.2.3.8-.8,2.3-.8,2.3-7.5,12.9-9.1,14.3-3.2,5-3.2,5-3.2-5.2-4-5.3l3.2-7.3s2.2-10.1,3.9-12-.8-8.2-.8-8.2Z" transform="translate(0 0)"/><path class="cls-8" d="M811.4,447.9c-1.4,1.6-3.8,2-6,1.7h-.9l-1.4-.3a15.3,15.3,0,0,1-4.6-2.3,2.1,2.1,0,0,0-1-.6,2.2,2.2,0,0,0-2.2,1.2c-.5.7-.7,1.6-1.2,2.4a5.5,5.5,0,0,1-4.5,2.2,17.8,17.8,0,0,1-5.1-1,17.2,17.2,0,0,0,3.3-5.5,11.2,11.2,0,0,0,.2-4.1c-.4-6.5-2.6-13.4-8-17.2a6.1,6.1,0,0,1-2.3-2.5c1.5-.4,3.9-1,4.8-.5s9.6-1,9.6-1a98.5,98.5,0,0,1,10.8-1,8.7,8.7,0,0,1,3.6.4,22.6,22.6,0,0,0-.3,8.2,17.2,17.2,0,0,0,1.9,4.9c.4.9,1,1.8,1.4,2.7a18.3,18.3,0,0,1,3,7.9A5.6,5.6,0,0,1,811.4,447.9Z" transform="translate(0 0)"/><path class="cls-8" d="M793.2,460.9a5,5,0,0,1,2.1-.2,4,4,0,0,1,1.7.9h-4.8c-1.2,0-3,.1-4-.8C789,460,792,461,793.2,460.9Z" transform="translate(0 0)"/><path class="cls-20" d="M776.8,398a7.3,7.3,0,0,0-.9,7c.8,1.7,2.2,3.1,3.2,4.9a9.1,9.1,0,0,1-.3,8.5,3.7,3.7,0,0,0-.8,1.5c-.2,1.5,1.3,2.5,2.4,3.3,5.3,3.8,7.6,10.7,8,17.2a14,14,0,0,1-.2,4.1,17.2,17.2,0,0,1-3.3,5.5,17.1,17.1,0,0,0,5.1,1,5.5,5.5,0,0,0,4.5-2.2c.5-.8.7-1.7,1.2-2.4a2.2,2.2,0,0,1,2.2-1.2,2.7,2.7,0,0,1,1,.6,14.3,14.3,0,0,0,6.9,2.7c2.2.3,4.6-.1,6-1.8a5.3,5.3,0,0,0,1.1-4.4c-.4-5.6-5.2-10-6.3-15.5s.8-9,1-13.5c.5-6.7-2-13.2-4.3-19.5a31,31,0,0,0-2.1-4.5,13.1,13.1,0,0,0-9-5,10,10,0,0,0-3.9.4,13.6,13.6,0,0,0-3.4,2.3c-2.3,2-4.6,4-6,6.8-.5,1.1-.9,2.3-1.5,3.4" transform="translate(0 0)"/><g class="cls-21"><path d="M778.9,395.6c.6-1.1,1-2.3,1.5-3.4a14.5,14.5,0,0,1,1.9-2.9,20.7,20.7,0,0,0-3.4,4.4c-.5,1.1-.8,2.3-1.4,3.4l.7-.7a5.6,5.6,0,0,1-.5.8A6.1,6.1,0,0,0,778.9,395.6Z" transform="translate(0 0)"/><path d="M807.3,446.9a13.4,13.4,0,0,1-6.9-2.7l-1-.6a2.2,2.2,0,0,0-2.2,1.2l-.3.5a1.7,1.7,0,0,1,1-.1,2.1,2.1,0,0,1,1,.6,15.1,15.1,0,0,0,7,2.7c2.1.3,4.6-.1,6-1.8l.4-.6A7.9,7.9,0,0,1,807.3,446.9Z" transform="translate(0 0)"/><path d="M791.4,449.4a15.4,15.4,0,0,1-5.1-1,14.7,14.7,0,0,0,3.3-5.5,13.9,13.9,0,0,0,.3-4.1c-.4-6.5-2.7-13.4-8-17.2-1.2-.8-2.6-1.8-2.4-3.2a4.6,4.6,0,0,1,.7-1.6,8.6,8.6,0,0,0,.3-8.5c-.9-1.7-2.3-3.1-3.1-4.9a7.5,7.5,0,0,1,.3-6.2,3,3,0,0,1-.8.8,2.7,2.7,0,0,1-.7.8,7.5,7.5,0,0,0-.3,6.2c.8,1.7,2.2,3.1,3.1,4.9a8.6,8.6,0,0,1-.3,8.5,5.1,5.1,0,0,0-.7,1.5c-.2,1.5,1.2,2.5,2.4,3.3,5.3,3.8,7.6,10.7,8,17.2a11.2,11.2,0,0,1-.3,4.1,14.2,14.2,0,0,1-3.3,5.5,18.4,18.4,0,0,0,5.2,1,5.5,5.5,0,0,0,4.5-2.2l.2-.3A6.3,6.3,0,0,1,791.4,449.4Z" transform="translate(0 0)"/></g></g></svg>