<svg id="fb638577-3af1-4e62-8e8d-f046cc0653af" data-name="Layer 1" xmlns="http://www.w3.org/2000/svg" xmlns:xlink="http://www.w3.org/1999/xlink" width="1150.44" height="866.47" viewBox="0 0 1150.44 866.47"><defs><linearGradient id="fe8c9d3d-ae8a-494a-b31b-bd29b33b8840" x1="296.46" y1="871.67" x2="296.46" y2="306.73" gradientTransform="translate(636.4)" gradientUnits="userSpaceOnUse"><stop offset="0" stop-color="gray" stop-opacity="0.25"/><stop offset="0.54" stop-color="gray" stop-opacity="0.12"/><stop offset="1" stop-color="gray" stop-opacity="0.1"/></linearGradient></defs><title>site stats</title><path d="M1150.19,608.8q-1.62,1.1-3.3,2.13a115.77,115.77,0,0,1-12.91,6.91c-23.47,10.85-52.37,16.15-80.52,19.75-63.16,8.08-127.64,9.65-191.84,11.19-173.48,4.17-347.41,8.35-520.43-1.28-68.36-3.8-138.25-10.16-200.21-29.66q-13.32-4.19-26.12-9.22c-17.26-6.81-33.85-15.11-47.63-25-13-9.28-23.47-19.94-29.75-32.06-13.09-25.24-6.16-53.59,8.79-78.34a241.83,241.83,0,0,1,21-28.76C78.77,430.57,91.5,417,103.11,403.12c41.32-49.55,68.28-112.12,30.14-162.87-11-14.58-26.8-27.38-35.73-42.61-11.41-19.46-10.52-41.08-6.9-62.08.47-2.65,1-5.3,1.49-7.92C98.35,96.5,110,63,145.86,43.51c37.29-20.2,90.25-19.18,136.55-12,72,11.24,138.42,34.71,205.5,55.92S625.23,128,699,130.12c65.13,1.83,141.09-11.93,184.31-47.73,42-34.75,120.9-37.4,177.8-16.4,39,14.4,68.16,40.37,80.44,69.57a82,82,0,0,1,5.36,18.12,73.59,73.59,0,0,1,1,17.08c-.18,2.83-.51,5.62-1,8.38-9.51,57.62-77.91,103.06-119.5,154.54-20.32,25.14-34.66,55.33-20.69,82.45,21.31,41.31,95.41,56,140.19,86.74,8.6,5.89,16.12,12.39,22,19.8C1190.53,550,1182.52,587,1150.19,608.8Z" transform="translate(-30.56 -15.24)" fill="#673fbd" opacity="0.1"/><g id="bcb547b9-8dd8-4d76-924a-52de61933c6c" data-name="flowers"><path d="M325.47,340.09s-46-81.52-115.32-105c-29.09-9.86-54.48-28.4-71.84-53.74a237.72,237.72,0,0,1-21.2-38.13" transform="translate(-30.56 -15.24)" fill="none" stroke="#535461" stroke-miterlimit="10" stroke-width="2"/><path d="M73.52,128.15c7.9,7.66,44.68,15.59,44.68,15.59s-9-36.53-16.92-44.19a19.93,19.93,0,0,0-27.76,28.6Z" transform="translate(-30.56 -15.24)" fill="#673fbd"/><path d="M94.33,194.24c10.79,2.14,46-11.19,46-11.19s-27.42-25.76-38.22-27.9a19.93,19.93,0,0,0-7.75,39.09Z" transform="translate(-30.56 -15.24)" fill="#673fbd"/><path d="M170.08,265.76c10.4-3.6,34-32.87,34-32.87s-36.68-8.39-47.07-4.79a19.93,19.93,0,1,0,13,37.66Z" transform="translate(-30.56 -15.24)" fill="#673fbd"/><path d="M239.59,307c10.86-1.79,39.1-26.64,39.1-26.64S244,265.85,233.1,267.64A19.93,19.93,0,1,0,239.59,307Z" transform="translate(-30.56 -15.24)" fill="#673fbd"/><path d="M171,154.51c0,11-19.9,42.92-19.9,42.92s-19.94-31.9-19.95-42.9a19.93,19.93,0,1,1,39.85,0Z" transform="translate(-30.56 -15.24)" fill="#673fbd"/><path d="M251.65,203.73c-3.29,10.5-31.84,35-31.84,35s-9.48-36.41-6.2-46.91a19.93,19.93,0,0,1,38,11.91Z" transform="translate(-30.56 -15.24)" fill="#673fbd"/><path d="M323.49,262.33C322,273.23,298,302.21,298,302.21s-15.5-34.28-14-45.19a19.93,19.93,0,1,1,39.5,5.31Z" transform="translate(-30.56 -15.24)" fill="#673fbd"/><path d="M73.52,128.15c7.9,7.66,44.68,15.59,44.68,15.59s-9-36.53-16.92-44.19a19.93,19.93,0,0,0-27.76,28.6Z" transform="translate(-30.56 -15.24)" opacity="0.25"/><path d="M94.33,194.24c10.79,2.14,46-11.19,46-11.19s-27.42-25.76-38.22-27.9a19.93,19.93,0,0,0-7.75,39.09Z" transform="translate(-30.56 -15.24)" opacity="0.25"/><path d="M170.08,265.76c10.4-3.6,34-32.87,34-32.87s-36.68-8.39-47.07-4.79a19.93,19.93,0,1,0,13,37.66Z" transform="translate(-30.56 -15.24)" opacity="0.25"/><path d="M239.59,307c10.86-1.79,39.1-26.64,39.1-26.64S244,265.85,233.1,267.64A19.93,19.93,0,1,0,239.59,307Z" transform="translate(-30.56 -15.24)" opacity="0.25"/><path d="M171,154.51c0,11-19.9,42.92-19.9,42.92s-19.94-31.9-19.95-42.9a19.93,19.93,0,1,1,39.85,0Z" transform="translate(-30.56 -15.24)" opacity="0.25"/><path d="M251.65,203.73c-3.29,10.5-31.84,35-31.84,35s-9.48-36.41-6.2-46.91a19.93,19.93,0,0,1,38,11.91Z" transform="translate(-30.56 -15.24)" opacity="0.25"/><path d="M323.49,262.33C322,273.23,298,302.21,298,302.21s-15.5-34.28-14-45.19a19.93,19.93,0,1,1,39.5,5.31Z" transform="translate(-30.56 -15.24)" opacity="0.25"/><path d="M322.82,338.47s-9-93.17-62.88-142.73c-22.59-20.8-38.29-48.05-43.9-78.24a238.23,238.23,0,0,1-3.92-43.45" transform="translate(-30.56 -15.24)" fill="none" stroke="#535461" stroke-miterlimit="10" stroke-width="2"/><path d="M178.37,42.62C182.49,52.82,212.9,75,212.9,75s6.55-37,2.44-47.25a19.93,19.93,0,0,0-37,14.9Z" transform="translate(-30.56 -15.24)" fill="#673fbd"/><path d="M170.61,111.47c9,6.33,46.57,8.4,46.57,8.4s-14.64-34.66-23.64-41a19.93,19.93,0,0,0-22.93,32.6Z" transform="translate(-30.56 -15.24)" fill="#673fbd"/><path d="M210.89,207.55c11,.92,44.44-16.26,44.44-16.26s-30.13-22.53-41.1-23.45a19.93,19.93,0,1,0-3.34,39.71Z" transform="translate(-30.56 -15.24)" fill="#673fbd"/><path d="M257.73,273.38c10.66,2.77,46.55-8.51,46.55-8.51s-25.89-27.3-36.54-30.06a19.92,19.92,0,0,0-10,38.57Z" transform="translate(-30.56 -15.24)" fill="#673fbd"/><path d="M256.78,106.2c-4.45,10.07-35.59,31.18-35.59,31.18s-5.3-37.25-.85-47.31a19.93,19.93,0,0,1,36.44,16.13Z" transform="translate(-30.56 -15.24)" fill="#673fbd"/><path d="M310.59,183.89c-7.26,8.27-43.29,19.1-43.29,19.1s6.08-37.13,13.35-45.4a19.93,19.93,0,1,1,29.94,26.3Z" transform="translate(-30.56 -15.24)" fill="#673fbd"/><path d="M352.53,266.58c-5.76,9.38-39.44,26.14-39.44,26.14s-.28-37.62,5.48-47a19.93,19.93,0,0,1,34,20.86Z" transform="translate(-30.56 -15.24)" fill="#673fbd"/></g><ellipse cx="639.99" cy="849.64" rx="335.02" ry="16.83" fill="#673fbd" opacity="0.1"/><path d="M296.73,832.62s-42.28-2.55-37.3,27.07c0,0-1,5.24,3.76,7.62,0,0,.07-2.2,4.33-1.45a20,20,0,0,0,4.6.22,9.56,9.56,0,0,0,5.61-2.32h0s11.89-4.91,16.51-24.34c0,0,3.42-4.23,3.28-5.32l-7.13,3s2.44,5.14.52,9.42c0,0-.23-9.24-1.6-9-.28.05-3.71,1.78-3.71,1.78s4.19,9,1,15.49c0,0,1.2-11.05-2.34-14.84l-5,2.93s4.9,9.27,1.58,16.82c0,0,.85-11.59-2.64-16.1l-4.55,3.55s4.61,9.12,1.8,15.39c0,0-.37-13.49-2.79-14.51,0,0-4,3.51-4.58,5,0,0,3.15,6.62,1.19,10.12,0,0-1.2-9-2.18-9,0,0-4,5.95-4.38,10,0,0,.17-6.07,3.42-10.6a11.9,11.9,0,0,0-6.08,3.14s.62-4.21,7.06-4.58c0,0,3.28-4.51,4.15-4.79,0,0-6.4-.54-10.28,1.19,0,0,3.42-4,11.46-2.17l4.49-3.67s-8.43-1.15-12,.12c0,0,4.11-3.51,13.21-.95L283,838.9s-7.18-1.54-11.46-1c0,0,4.51-2.43,12.9.21l3.49-1.57s-5.26-1-6.8-1.2-1.63-.59-1.63-.59a18.26,18.26,0,0,1,9.89,1.1S296.85,833.08,296.73,832.62Z" transform="translate(-30.56 -15.24)" fill="#673fbd"/><ellipse cx="237.04" cy="854.65" rx="29.92" ry="5.06" fill="#673fbd" opacity="0.1"/><path d="M222.65,834.2s-23.83-1.44-21,15.26a4.07,4.07,0,0,0,2.12,4.29s0-1.23,2.44-.81a11.13,11.13,0,0,0,2.59.12,5.34,5.34,0,0,0,3.17-1.31h0s6.7-2.76,9.3-13.72c0,0,1.93-2.38,1.85-3l-4,1.72s1.37,2.9.29,5.31c0,0-.13-5.2-.9-5.08-.16,0-2.09,1-2.09,1s2.37,5.06.58,8.73c0,0,.68-6.23-1.32-8.36L212.81,840s2.76,5.22.89,9.48c0,0,.48-6.53-1.48-9.07l-2.57,2s2.6,5.14,1,8.67c0,0-.2-7.6-1.57-8.18a15.45,15.45,0,0,0-2.58,2.8s1.77,3.73.67,5.7c0,0-.67-5.06-1.23-5.09,0,0-2.24,3.36-2.47,5.66a12.24,12.24,0,0,1,1.93-6,6.77,6.77,0,0,0-3.43,1.77s.35-2.37,4-2.58c0,0,1.85-2.54,2.34-2.7,0,0-3.61-.3-5.79.67,0,0,1.92-2.24,6.45-1.22l2.54-2.07s-4.75-.65-6.77.07c0,0,2.32-2,7.45-.54l2.76-1.65a25.22,25.22,0,0,0-6.47-.56s2.55-1.37,7.28.12l2-.89s-3-.58-3.84-.67-.91-.33-.91-.33a10.17,10.17,0,0,1,5.57.62S222.73,834.46,222.65,834.2Z" transform="translate(-30.56 -15.24)" fill="#673fbd"/><ellipse cx="175.67" cy="839.97" rx="16.87" ry="2.85" fill="#673fbd" opacity="0.1"/><path d="M268,798.78s-28.78-1.73-25.39,18.44a4.92,4.92,0,0,0,2.56,5.18s.05-1.5,3-1a13.14,13.14,0,0,0,3.13.15A6.46,6.46,0,0,0,255.1,820h0s8.09-3.34,11.24-16.56c0,0,2.32-2.88,2.23-3.63l-4.85,2.08s1.65,3.5.35,6.41c0,0-.16-6.28-1.09-6.14-.19,0-2.52,1.22-2.52,1.22s2.85,6.1.7,10.54c0,0,.81-7.52-1.6-10.1l-3.41,2s3.33,6.31,1.07,11.45c0,0,.58-7.89-1.79-11l-3.1,2.42s3.13,6.21,1.22,10.47c0,0-.25-9.18-1.89-9.87,0,0-2.71,2.39-3.13,3.37,0,0,2.15,4.51.82,6.89,0,0-.82-6.12-1.49-6.15,0,0-2.7,4.06-3,6.83a14.77,14.77,0,0,1,2.33-7.22,8.15,8.15,0,0,0-4.14,2.15s.42-2.87,4.81-3.12c0,0,2.23-3.08,2.82-3.26,0,0-4.35-.37-7,.8,0,0,2.33-2.7,7.8-1.47l3.06-2.5s-5.74-.78-8.17.08c0,0,2.8-2.39,9-.64l3.33-2s-4.89-1-7.8-.67c0,0,3.07-1.66,8.78.14l2.38-1.07s-3.58-.7-4.63-.81-1.11-.41-1.11-.41a12.43,12.43,0,0,1,6.73.75S268.12,799.1,268,798.78Z" transform="translate(-30.56 -15.24)" fill="#673fbd"/><ellipse cx="217.64" cy="808.92" rx="20.37" ry="3.44" fill="#673fbd" opacity="0.1"/><path d="M707.54,842.05v7.82H476.28v-6.35a76,76,0,0,0,5.23-140.37H706a76.09,76.09,0,0,0-42,50.39A76,76,0,0,0,693.36,834,76.07,76.07,0,0,0,707.54,842.05Z" transform="translate(-30.56 -15.24)" fill="#c8cad7"/><path d="M706,703.15a76.09,76.09,0,0,0-42,50.39H523.53a76.09,76.09,0,0,0-42-50.39Z" transform="translate(-30.56 -15.24)" opacity="0.1"/><path d="M211.48,663.31v43.9c0,24.24,17.74,43.89,39.63,43.89H931.49c21.89,0,39.63-19.65,39.63-43.89v-43.9Z" transform="translate(-30.56 -15.24)" fill="#c8cad7"/><path d="M707.54,842.05v7.82H476.28v-6.35a76.11,76.11,0,0,0,17.84-9.5H693.36A76.07,76.07,0,0,0,707.54,842.05Z" transform="translate(-30.56 -15.24)" opacity="0.1"/><rect x="369.3" y="821.22" width="384.09" height="23.17" rx="9.5" ry="9.5" fill="#c8cad7"/><path d="M971.12,182.28a39.63,39.63,0,0,0-39.63-39.63H251.11a39.63,39.63,0,0,0-39.63,39.63V671.85H971.12Z" transform="translate(-30.56 -15.24)" fill="#474157"/><path d="M950.39,200V620.63a19.5,19.5,0,0,1-19.51,19.51H251.71a19.5,19.5,0,0,1-19.51-19.51V200a19.51,19.51,0,0,1,19.51-19.51H930.88A19.51,19.51,0,0,1,950.39,200Z" transform="translate(-30.56 -15.24)" fill="#f4f4f7"/><circle cx="560.74" cy="146.32" r="9.15" fill="#fff"/><circle cx="560.74" cy="693.8" r="22.56" fill="#fff"/><path d="M950.39,200H232.21a19.5,19.5,0,0,1,19.5-19.51H930.88A19.5,19.5,0,0,1,950.39,200Z" transform="translate(-30.56 -15.24)" fill="#fff"/><circle cx="221.15" cy="174.97" r="4.88" fill="#ededf4"/><circle cx="235.78" cy="174.97" r="4.88" fill="#ededf4"/><circle cx="250.42" cy="174.97" r="4.88" fill="#ededf4"/><rect x="269.26" y="238.76" width="579.62" height="338.72" fill="#fff"/><path d="M398.85,540.23h21.37v4H398.85Zm10.69-10.69a2.67,2.67,0,1,0-.74-5.24l-5.57-4.07-.33.3,4.08,5.56a2.83,2.83,0,0,0-.11.78A2.66,2.66,0,0,0,409.54,529.54Z" transform="translate(-30.56 -15.24)" fill="#65617d"/><path d="M409.54,509.5a17.37,17.37,0,0,0-13.69,28.06h4.91l.34-.34,1.84-1.84L401,533.47l-1.84,1.83a13.26,13.26,0,0,1-2.94-7.09h2.6v-2.68h-2.6a13.26,13.26,0,0,1,2.94-7.09l1.84,1.83,1.91-1.91-1.83-1.84a13.27,13.27,0,0,1,7.09-2.94v2.6h2.67v-2.6a13.34,13.34,0,0,1,7.1,2.94l-1.84,1.84,1.92,1.91,1.84-1.83a13.34,13.34,0,0,1,2.94,7.09h-2.61v2.68h2.61a13.34,13.34,0,0,1-2.94,7.09l-1.84-1.83-1.92,1.91,1.85,1.84.33.34h4.91a17.37,17.37,0,0,0-13.68-28.06Z" transform="translate(-30.56 -15.24)" fill="#65617d"/><path d="M409.53,436.66a9,9,0,0,1-3.58-.91.64.64,0,0,0-.91.63l.29,4.26a.33.33,0,0,0,.53.23l1.21-.92a.33.33,0,0,1,.47.09l1.71,2.68a.33.33,0,0,0,.55,0l1.72-2.68A.33.33,0,0,1,412,440l1.21.92a.33.33,0,0,0,.53-.23l.29-4.26a.65.65,0,0,0-.91-.63,9.07,9.07,0,0,1-3.58.91Z" transform="translate(-30.56 -15.24)" fill="#65617d"/><path d="M421.36,425.93l-4-4.1c0-13.19-7.78-19-7.78-19s-7.86,5.85-7.86,19l-4,4.1a.7.7,0,0,0-.19.59l1.54,9.33a.64.64,0,0,0,1,.46l5.61-3.8a6.34,6.34,0,0,0,3.93,1.67,6,6,0,0,0,3.85-1.67l5.6,3.8a.64.64,0,0,0,1-.46l1.55-9.34A.73.73,0,0,0,421.36,425.93Zm-11.79-8.44a2.68,2.68,0,1,1,2.56-2.67A2.62,2.62,0,0,1,409.57,417.49Z" transform="translate(-30.56 -15.24)" fill="#65617d"/><path d="M422.86,334.53h-.42c-.55,0-1-.07-1.06-.62h0c-1.22-11.34-8.37-11.56-8.37-14.23s7.16-2.89,8.37-14.23h0c.06-.55.51-.62,1.06-.62h.42a1.2,1.2,0,0,0,1.21-1.11,1.18,1.18,0,0,0-1.17-1.23H396.21a1.2,1.2,0,0,0-1.2,1.11,1.17,1.17,0,0,0,1.17,1.23h.46c.54,0,1,.07,1.06.62h0c1.22,11.34,8.37,11.56,8.37,14.23s-7.16,2.89-8.37,14.23h0c-.06.55-.52.62-1.06.62h-.43a1.2,1.2,0,0,0-1.2,1.11,1.17,1.17,0,0,0,1.17,1.23H422.9a1.17,1.17,0,0,0,1.17-1.23A1.21,1.21,0,0,0,422.86,334.53Zm-21.06-2.85c2.4-6.67,6.64-5.86,6.64-8.49v-4.64c0-1.62-3.07-2.75-5-5.38a.65.65,0,0,1,.54-1h11.1a.65.65,0,0,1,.56,1c-1.89,2.64-5,3.77-5,5.39v4.64c0,2.61,4.08,1.9,6.66,8.49.24.59.06,1.33-.57,1.33H402.38C401.73,333,401.58,332.28,401.8,331.68Z" transform="translate(-30.56 -15.24)" fill="#65617d"/><path d="M787.1,319.67A11.13,11.13,0,0,1,776,330.82H490.25a11.15,11.15,0,1,1,0-22.29H776A11.14,11.14,0,0,1,787.1,319.67Z" transform="translate(-30.56 -15.24)" fill="#5a5773" opacity="0.2"/><path d="M787.1,422.84A11.13,11.13,0,0,1,776,434H490.25a11.15,11.15,0,0,1,0-22.29H776A11.15,11.15,0,0,1,787.1,422.84Z" transform="translate(-30.56 -15.24)" fill="#5a5773" opacity="0.2"/><path d="M787.1,526.87A11.13,11.13,0,0,1,776,538H490.25a11.15,11.15,0,1,1,0-22.29H776A11.14,11.14,0,0,1,787.1,526.87Z" transform="translate(-30.56 -15.24)" fill="#5a5773" opacity="0.2"/><path d="M729.75,308.53v22.29H490.25a11.15,11.15,0,1,1,0-22.29Z" transform="translate(-30.56 -15.24)" fill="#673fbd"/><path d="M772.25,411.69V434h-282a11.15,11.15,0,0,1,0-22.29Z" transform="translate(-30.56 -15.24)" fill="#673fbd"/><path d="M667.75,515.73V538H490.25a11.15,11.15,0,1,1,0-22.29Z" transform="translate(-30.56 -15.24)" fill="#673fbd"/><path d="M1068.58,484.82c.55-1.49-3.55-9.78-3.55-10.19s-4.25-5-4.25-7.61-5.61-8.16-5.61-8.16-7.53-3.13-8.35-9.92-9-6.93-9-6.93h0s0-.62,0-1.56c0-2.12-.06-5.88-1-7.95a8,8,0,0,0-4.66-3.94s-.82-5.31-2.46-6.94a7.8,7.8,0,0,1-1.91-7.34c.82-2.57-1.09-9.1-5.07-10s-8.48-2.45-8.48-2.45-.45.09-1.1.18l-.55-.18a23.61,23.61,0,0,1-2.87.36,3.54,3.54,0,0,1-2.32-.77C1006,399.87,995,397,992.9,397s-7.95-2.73-7.95-2.73l-5.88-4.48c-1.65-1.26-4.7-6.36-5.14-7.1l-.06-.1h0l0,0a25.59,25.59,0,0,1-1.24-3.58v0a32.58,32.58,0,0,0,5.09-7c.14-.26.26-.53.4-.8a2.89,2.89,0,0,0,.88-.14l.37-.14a6,6,0,0,0,2.9-3.47h0c.11-.3.19-.6.27-.9l.06-.3c0-.21.09-.42.13-.62l.06-.35c0-.21.07-.41.09-.62s0-.23,0-.34.06-.52.1-.77h0a27.39,27.39,0,0,1,.43-2.86s0,0,0,0h0c.82-3.69,3-6.81,4.61-10.22h0c.22-.49.44-1,.63-1.49s.38-1.09.54-1.65c0-.17.09-.34.13-.51.11-.41.2-.81.28-1.23,0-.18.07-.36.1-.54.09-.56.17-1.13.22-1.7a21,21,0,0,0-1.41-9.55c-1-2.55-2.55-4.85-3.59-7.4-1.57-3.87-2-8.25-3.91-11.93-3.22-6.18-10.81-9.28-17-6.95-3,1.11-5.55,3.26-8.57,4.22-4,1.29-8.38.32-12.56-.26s-8.82-.63-12.18,2.1c-3.88,3.15-4.94,9.06-8.58,12.52-1.53,1.45-3.42,2.38-5,3.72a8.14,8.14,0,0,0-2.53,3.46,2.46,2.46,0,0,0-.09.29,2,2,0,0,0-.09.35c0,.14-.05.27-.07.41s0,.19,0,.28a5.93,5.93,0,0,0,0,.73h0a5.07,5.07,0,0,0,.11.68c0,.07,0,.13,0,.19s.1.38.17.57l0,.11c.07.21.16.41.24.62s.09.2.14.31a2.72,2.72,0,0,0,.11.25,16.84,16.84,0,0,1,1.27,3.16,3.49,3.49,0,0,1-.13,2.09,6.37,6.37,0,0,1-1.51,2,28.24,28.24,0,0,0-6.18,9.89c-.16.42-.31.84-.44,1.27v0l.18.05a7.36,7.36,0,0,0,1.2.26c.23,0,.46.06.69.07a10.51,10.51,0,0,0,2.79-.21l.7-.16a17.85,17.85,0,0,0,2.77-1c0,.28,0,.55,0,.83s0,.31,0,.47a32.33,32.33,0,0,0,18,28.91l.12.88.09.74-.37-.35s-2.47-1.23-4.79,2.31a15.49,15.49,0,0,1-6.71,5.16s-24.91,3.94-25.87,7.21l-11.63.68s-4.11.54-4.52,9.1-2.6,9.38-2.6,9.38-4.79,8.43-4.38,12.78S870,440.1,870,440.1l-.55,7.75s-4.52-.68-5.75,4.62-3.42,7.75-3.42,7.75-7.53,6.25-7.94,11.55l-4.65,2.86s-10.82-2.45-13.28-6.8l-.76-.71a.53.53,0,0,1-.06-.1v0c-1.62-1.52-5.05-4.72-4.53-4a3.32,3.32,0,0,1,.22,2.19l-.8-.9L826.33,462S810.24,443.51,800,442.21h0a6.51,6.51,0,0,0-4.6,4.46c-1.3,4.42-2.66,11.74.72,15.34L812.3,479.3l.42.31,3.52,4.52c-.59,1.42-1.09,2.8-1.51,4.05l0,.12c-.09.27-.17.54-.25.79l-.09.27c-.08.26-.15.51-.23.75s-.08.3-.13.45,0,.17-.07.26c-.39,1.36-.63,2.41-.76,3l-.91-.28.89.38a.89.89,0,0,0,0,.14,2.11,2.11,0,0,0-.06.29c.27.12.55.25.84.36,4.79,2.09,28.72,12.59,30,14.18,1.37,1.77,10.41,6.93,18.62,2.58s10-11,10-11,7.94-11,8.21-12.64,6.43-3.53,6.43-3.53.55,18.21-2.6,24.87-9,36.16-9,36.16a4.16,4.16,0,0,1,1.17-.07l-.35,1.7a4.07,4.07,0,0,1,1.45,0c-.44,3.35-3,18.92-3,18.92s-.83,7.07-2.19,9.52-1.51,15.22-1.51,15.22l-2.19,9.24s.29.64.83,1.6v0s2.35,5.21,6.31,8.14a16.69,16.69,0,0,1-1.11,4.22,14.78,14.78,0,0,0-1.09,6.53s-2.33,10.46-2.05,13.46-1.51,10.33-1.51,10.33l-2.46,23.65s-1.64,20.52-.82,26.1-.55,13.18-.55,13.18,1.64,16.18,1.23,17.94-2.46,9.38-1.23,13.59.55,15.77.55,15.77.82,15.23,1.77,20.12-.27,11.15-.27,11.15-1,10.46-1.37,10.46-4,7.2,3.28,14.27,2.75,6,2.75,6-5.75-2.85-5.07,3c.65,5.57,1.55,4.11,1.63,4l-1.36,4.47,1,.13c-.26.31-.52.63-.8,1a21.67,21.67,0,0,1-2.75,2.87c-1.65,1.22-1.79,3.93-1.79,3.93s-10.12,11-19.57,16.58c-5,2.94-9.25,5.42-11.12,7.48-1.69,1.84-1.41,3.33,2.09,4.49,7.39,2.45,20.39,3.67,29.7.55a34.77,34.77,0,0,0,14.51-9.38s5.88-3,11.63-1.91,17.25-6.39,17.25-6.39l-.21-1.92-.61-5.56a4.4,4.4,0,0,1-1-3.39,17.4,17.4,0,0,0-.48-4.89c-.1-.54-.2-1.07-.3-1.58l1.05-.19s-1.37-6.93,1.1-8.3,1.77-19.16,1.77-19.16-3.14-4.08-4.79-4.76-.14-9.11.14-10.19S907.63,765,907.63,765s-.82-6.65.27-9.51-1.37-13.86-1.37-13.86-.82-1.36.69-3,.95-16.17.95-16.17-.13-7.34-.13-9.25,1.64-8.83,3.14-11.14.55-9.51.55-9.51v0l.08-.55c0-.2.08-.46.13-.76l.12-.73a104.42,104.42,0,0,1,2.67-11.8c1.78-5.71,3.83-15.76,3.83-15.76L931.3,629.7l.14-.39s5.88,10.87,5.88,20.94c0,0,1.51,12.09,1.1,15.35s1.24,18.62,1.24,18.62,1.77,22,1.77,23,2.19,17.94,3.56,20.52-1.37,10.47-2.19,11.28.27,20.8.27,20.8-2.05,15.76-2.46,19-2.05,15.77-.68,20.66.82,5.57.82,5.57,4.93,5,2,5.44a7.54,7.54,0,0,0-5.48,9.92,129.35,129.35,0,0,0,6,14.55l2.27-.48,0,1.62.16,8.1s1,7.75.42,9.52A100.9,100.9,0,0,0,945,864.29c-.1,1.16-.16,1.94-.16,1.94s0,7.2,15.2,5S978,863.1,978,863.1s0-.28.12-.75c.22-1.37.71-4.29,1.12-5.91.55-2.18-4.38-12-4.38-12s-.82-6.66-2.19-8.16a6.93,6.93,0,0,1-1.1-2.85c-.13-.55-.24-1.12-.33-1.68q.54.08,1,.18s-.83-4.75,2.33-6.25,2.32-4.62,1.91-6,1.23-9,1.23-9a4.44,4.44,0,0,1,1.1-4.35c1.92-1.9,3.42-15.22,3.42-15.22l.27-51.38s1-9.11-.13-12.78-2.19-10.73-.69-12.64.14-10.74.14-10.74,0-18.62,2.05-23.24,1.37-33.84,1.37-33.84l.55-19.17s4.47-4.23,3.41-26.29c4.77-.3,10.15-.47,11,.19,1.51,1.22,11.22,7.48,17,3.53,1.23-.54,6.84-5.3,6.84-5.3l-2.41-40.75c1.5,2.27,2.42,3.78,2.42,3.78,0-5.71,16.15-24.19,16.15-24.19s15.05-19.44,18.34-21.75,9.71-14.55,9.71-14.55a59.23,59.23,0,0,1,3.29-6.79C1073,492.84,1068,486.32,1068.58,484.82Zm-35.31,14.27c-4.1.41-12.73,9.79-12.86,11.83a8.57,8.57,0,0,1-1.82,3.65c-.07-.82-.14-1.65-.2-2.5-1-12-2-26.65-1.54-28.07.82-2.44.54-13.45.54-13.45l0,0,.15-.21c2.76,8.53,11.33,18.59,11.33,18.59s1.51,4.35,3.29,4.48S1033.27,499.09,1033.27,499.09Z" transform="translate(-30.56 -15.24)" fill="url(#fe8c9d3d-ae8a-494a-b31b-bd29b33b8840)"/><path d="M813.82,496s5-26.17,21-26.3l11.73,24.14-7.82,5.4S821.78,499.77,813.82,496Z" transform="translate(-30.56 -15.24)" fill="#65617d"/><path d="M846.6,493.83l-7.83,5.4s-12,.38-20.5-1.73a23.18,23.18,0,0,1-4.45-1.51s0-.15.09-.42a.54.54,0,0,1,0-.1,59.19,59.19,0,0,1,3-9.61c.49-1.18,1-2.39,1.66-3.6,2.35-4.52,5.65-9,10.17-11.15a13.88,13.88,0,0,1,5.35-1.4l.48,0h.24l.25.53,4,8.16Z" transform="translate(-30.56 -15.24)" opacity="0.1"/><path d="M979.88,602.56s16.86-1.62,18.34-.41,11.06,7.42,16.73,3.51,1.89-17.54,1.89-18.08-.54-19.83-.54-19.83l-10.12-13.62L993.5,530.25l-25.9-2.56.67,37.9L968.14,585Z" transform="translate(-30.56 -15.24)" fill="#65617d"/><path d="M979.88,602.56s16.86-1.62,18.34-.41,11.06,7.42,16.73,3.51,1.89-17.54,1.89-18.08-.54-19.83-.54-19.83l-10.12-13.62L993.5,530.25l-25.9-2.56.67,37.9L968.14,585Z" transform="translate(-30.56 -15.24)" opacity="0.1"/><path d="M831.49,469s-1.34,16.46-11.6,16.73c0,0-2.9-1.75-6.81-4.67-9-6.75-23.3-19.7-19.35-31.76,5.66-17.26,33.18,14.57,33.18,14.57l2.12,2.37Z" transform="translate(-30.56 -15.24)" fill="#fbbebe"/><path d="M831.49,469s-1.34,16.46-11.6,16.73c0,0-2.9-1.75-6.81-4.67l-.88-1.13a13.29,13.29,0,0,0,5.62,1.51,7.57,7.57,0,0,0,7.33-4.62A57.39,57.39,0,0,0,828,470.3a19,19,0,0,0,1-4.05Z" transform="translate(-30.56 -15.24)" opacity="0.1"/><path d="M827,498.82l-2.31-3-7.76-10-4-5.11a13.29,13.29,0,0,0,5.62,1.51,7.58,7.58,0,0,0,7.33-4.62,57.39,57.39,0,0,0,2.84-6.53c1.28-3.64,1.26-5.51.8-6.14s2.87,2.44,4.46,3.95l.06.06.75.71.27.55,3.91,7.81s0,.11,0,.33C839.39,480.85,840.71,496.59,827,498.82Z" transform="translate(-30.56 -15.24)" fill="#e7effd"/><path d="M907.85,846s-11.34,7.42-17,6.33-11.47,1.9-11.47,1.9a34.15,34.15,0,0,1-14.3,9.31c-9.17,3.1-22,1.88-29.27-.55-3.45-1.15-3.72-2.63-2.06-4.46,1.84-2,6.07-4.5,11-7.41C854,845.63,864,834.71,864,834.71s.14-2.7,1.76-3.91a22.55,22.55,0,0,0,2.72-2.84c1.45-1.72,2.81-3.51,2.81-3.51l33.32,1.09s.56,2.4,1,4.85a17.49,17.49,0,0,1,.47,4.86,4.37,4.37,0,0,0,.95,3.37l.59,5.51Z" transform="translate(-30.56 -15.24)" fill="#65617d"/><path d="M977.58,855.35c-.4,1.61-.88,4.5-1.1,5.86-.07.46-.11.75-.11.75s-2.7,5.93-17.67,8.09-15-5-15-5,.06-.77.16-1.93a103.33,103.33,0,0,1,1.2-10.48c.53-1.76-.41-9.45-.41-9.45l-.16-8-.11-5.59L969.22,827a46.25,46.25,0,0,0,.8,5.53,7.37,7.37,0,0,0,1.08,2.83c1.36,1.49,2.17,8.09,2.17,8.09S978.12,853.18,977.58,855.35Z" transform="translate(-30.56 -15.24)" fill="#65617d"/><path d="M904.61,825.54s.56,2.4,1,4.85c-3.6.67-19.34,3.39-23.27,1.48-4.45-2.16-14-3.37-14-3.37l.16-.54c1.45-1.72,2.81-3.51,2.81-3.51Z" transform="translate(-30.56 -15.24)" opacity="0.1"/><path d="M970,832.55c-6.29-1.07-20.08,1.51-25.51,2.62l-.11-5.59L969.22,827A46.25,46.25,0,0,0,970,832.55Z" transform="translate(-30.56 -15.24)" opacity="0.1"/><path d="M984.05,628.05l-.53,19s.67,29-1.35,33.59-2,23.07-2,23.07,1.35,8.76-.14,10.65-.41,8.9.68,12.54.13,12.69.13,12.69l-.27,51s-1.48,13.21-3.37,15.11A4.41,4.41,0,0,0,976.1,810s-1.62,7.55-1.22,8.9,1.22,4.46-1.88,5.94-2.3,6.2-2.3,6.2c-7.41-1.75-28.46,3-28.46,3a128.25,128.25,0,0,1-5.94-14.43,7.48,7.48,0,0,1,5.4-9.85c2.83-.4-2-5.39-2-5.39s.54-.68-.81-5.53.27-17.27.67-20.51S942,759.44,942,759.44s-1.08-19.83-.27-20.64,3.51-8.64,2.16-11.2-3.51-19.42-3.51-20.37-1.75-22.8-1.75-22.8S937,669.19,937.39,666s-1.09-15.25-1.09-15.25c0-10-5.79-20.77-5.79-20.77l-.15.39-12.54,32.93s-2,10-3.77,15.64a102.69,102.69,0,0,0-2.64,11.72l-.12.72c0,.3-.09.56-.12.76l-.08.54v0s.94,7.15-.54,9.45-3.1,9.17-3.1,11.06.13,9.17.13,9.17.54,14.43-.94,16a2.52,2.52,0,0,0-.68,3s2.43,10.93,1.35,13.76-.26,9.44-.26,9.44-2.16,20.91-2.43,22-1.76,9.44-.14,10.12,4.72,4.72,4.72,4.72.68,17.67-1.75,19-1.08,8.23-1.08,8.23-19.56,3.78-24,1.62-14-3.38-14-3.38l1.34-4.44c-.08.16-1,1.6-1.61-3.92-.67-5.8,5-3,5-3s4.45,1.08-2.7-5.93-3.64-14.17-3.24-14.17,1.35-10.38,1.35-10.38,1.22-6.21.27-11.07S867,754,867,754s.67-11.46-.54-15.65.81-11.73,1.21-13.49-1.21-17.81-1.21-17.81,1.35-7.55.54-13.07.81-25.9.81-25.9l2.43-23.48s1.75-7.28,1.48-10.25,2-13.35,2-13.35a14.81,14.81,0,0,1,1.08-6.48c1.35-2.69,1.9-11.6,1.9-11.6l12.94-29.68L896,547.12l85.66-.81s.31,2.26.83,6.39,1.25,10.23,2.06,17.77c.75,6.84,1.57,14.9,2.37,23.86C989.45,622.92,984.05,628.05,984.05,628.05Z" transform="translate(-30.56 -15.24)" fill="#3f3d56"/><path d="M976.1,391.85l-20,21.32s-25.62-10.26-22.93-13.76c1-1.36.88-5.64.28-10.37-1-7.47-3-16.07-3-16.07s44.78-7.29,41,.26c-1.38,2.76-1.14,6-.28,9A33.62,33.62,0,0,0,976.1,391.85Z" transform="translate(-30.56 -15.24)" fill="#fbbebe"/><path d="M971.51,373.23c-1.38,2.76-2,3-1.18,6-5.85,6.28-13.3,13.15-22.56,13.15A31.85,31.85,0,0,1,933.48,389c-1-7.47-3-16.07-3-16.07S975.29,365.68,971.51,373.23Z" transform="translate(-30.56 -15.24)" opacity="0.1"/><path d="M979.88,359.47a32.11,32.11,0,0,1-64.22,0c0-.15,0-.3,0-.46a32.11,32.11,0,0,1,64.21.46Z" transform="translate(-30.56 -15.24)" fill="#fbbebe"/><path d="M984.52,571.28c-4.25,0-18.41.15-34.23.4h-.2l-5.22.09h-.17c-18.77.3-37.26-3.37-44.68-2.67-15.78,1.48,5.66-14.57,5.66-14.57a131.83,131.83,0,0,0,36,3.63l4.54-.23c14.34-.81,28.75-2.16,36.28-4.42C983,557.68,983.71,563.74,984.52,571.28Z" transform="translate(-30.56 -15.24)" opacity="0.1"/><path d="M984.52,570.47c-4.25,0-18.41.15-34.23.4h-.2l-5.22.09h-.17c-18.77.3-37.26-3.37-44.68-2.67-15.78,1.48,5.66-14.57,5.66-14.57a132.06,132.06,0,0,0,36,3.64l4.54-.24c14.34-.81,28.75-2.16,36.28-4.42C983,556.87,983.71,562.93,984.52,570.47Z" transform="translate(-30.56 -15.24)" fill="#e3a79f"/><path d="M939.14,400.76l-24.82,11.6L895.16,560.47s11.33-5.13,17.81-1.89,26.44.27,26.44.27,14.57-.81,16.72.81,27.52-6.75,27.52-6.75,4.59-10.25,1.08-11.87,1.08-17.53,1.08-17.53l-2.16-106.84-4.31-13.76-11.6-7-11.88,9.44-5.66.81Z" transform="translate(-30.56 -15.24)" opacity="0.1"/><path d="M939.14,399.14l-24.82,11.6L895.16,558.85S906.49,553.72,913,557s26.44.27,26.44.27,14.57-.81,16.72.81,27.52-6.74,27.52-6.74,4.59-10.26,1.08-11.87,1.08-17.54,1.08-17.54l-2.16-106.84-4.31-13.76-11.6-7-11.88,9.44-5.66.81Z" transform="translate(-30.56 -15.24)" fill="#e7effd"/><path d="M938.73,406s7.15,8.49,7,10.25-.41,5.93-.41,5.93L940,433.13s-3,13.62-3,16.46S932.26,477,932.26,477l-5.67,37.77-7.15,49.51,7.29,12.54,8.63-7.28,11.47-88.22,2.42-17.4s2.57-31.3,2.57-34.54-1.49-11.73-1.49-11.73,1.76-8.1,9-10-.54-.4-.54-.4l-4.18-3.37L951,405.34S940.89,402.24,938.73,406Z" transform="translate(-30.56 -15.24)" opacity="0.1"/><path d="M937.92,405.21s7.15,8.49,7,10.25-.41,5.93-.41,5.93l-5.39,10.93s-3,13.62-3,16.46-4.72,27.38-4.72,27.38l-5.67,37.77-7.15,49.51L925.92,576l8.63-7.28L946,480.48l2.43-17.4s2.56-31.3,2.56-34.54-1.49-11.73-1.49-11.73,1.76-8.1,9-10-.54-.41-.54-.41l-4.18-3.37-3.64,1.48S940.08,401.43,937.92,405.21Z" transform="translate(-30.56 -15.24)" fill="#3f3d56"/><path d="M933.2,391s-1.08.81-1.35,6.21-4,17.53-4,17.53,14-9.71,21-8.63Z" transform="translate(-30.56 -15.24)" opacity="0.1"/><path d="M933.2,389.42s-1.08.81-1.35,6.21-4,17.54-4,17.54,14-9.72,21-8.64Z" transform="translate(-30.56 -15.24)" fill="#e7effd"/><path d="M971.51,386.73l-22.12,19.42s18.62,11.06,21,13.76,4.86-26.44,4.86-26.44Z" transform="translate(-30.56 -15.24)" opacity="0.1"/><path d="M972.32,385.11,950.2,404.53s18.61,11.06,21,13.76,4.86-26.44,4.86-26.44Z" transform="translate(-30.56 -15.24)" fill="#e7effd"/><path d="M934,391s-2.43-1.21-4.72,2.3a15.26,15.26,0,0,1-6.61,5.12s-24.55,3.91-25.49,7.15l-11.47.68s-4.05.54-4.45,9-2.56,9.31-2.56,9.31S874,433,874.39,437.31s-3.64,6.48-3.64,6.48l16.86,43.84s.54,18.07-2.56,24.68-8.91,35.88-8.91,35.88,2.43-.54,2.3,1.08-3,19.29-3,19.29-.81,7-2.16,9.44-1.48,15.11-1.48,15.11l-2.16,9.18s5.12,11.46,13,9.84,22-32.24,22-32.24l9-33,7-32.64,2-22.12,3.24-49,4.72-32.37S935.9,393.34,934,391Z" transform="translate(-30.56 -15.24)" opacity="0.1"/><path d="M933.2,389.42s-2.43-1.21-4.72,2.3a15.26,15.26,0,0,1-6.61,5.12s-24.55,3.92-25.49,7.15l-11.47.68s-4,.54-4.45,9S877.9,423,877.9,423s-4.72,8.37-4.32,12.68-3.64,6.48-3.64,6.48L886.8,486s.54,18.07-2.56,24.68-8.91,35.88-8.91,35.88,2.43-.53,2.3,1.08-3,19.29-3,19.29-.81,7-2.16,9.45-1.48,15.1-1.48,15.1l-2.16,9.18s5.12,11.46,12.95,9.84,22-32.24,22-32.24l9-33,7-32.65,2-22.12,3.24-49,4.72-32.37S935.09,391.72,933.2,389.42Z" transform="translate(-30.56 -15.24)" fill="#65617d"/><path d="M846.6,493.83l-7.83,5.4s-12,.38-20.5-1.73l-4.36-1.93-.87-.38.9.28c4.5,1.34,8,1.31,10.79.38,11.07-3.72,9.85-22,9.42-26.14,0-.41-.07-.68-.09-.79v0a.53.53,0,0,0,.06.1,5.78,5.78,0,0,0,.51.71c.15.18.32.36.49.53l0,0,3.91,7.81s0,.11,0,.33Z" transform="translate(-30.56 -15.24)" opacity="0.1"/><path d="M873.71,441.09l-3.77,1.08-.54,7.69s-4.45-.68-5.67,4.58-3.37,7.69-3.37,7.69-7.42,6.21-7.82,11.47L848,476.43s-10.66-2.43-13.08-6.74c0,0,4.85,34.8-21,26.3,0,0,29,12.68,30.35,14.43s10.25,6.88,18.35,2.57,9.85-10.93,9.85-10.93,7.82-10.93,8.09-12.55,6.34-3.5,6.34-3.5L898.4,458Z" transform="translate(-30.56 -15.24)" fill="#65617d"/><path d="M968.41,402.91l3.91-17.8s1.76,5.8,3.51,7.15l5.8,4.45s5.8,2.7,7.82,2.7,12.95,2.83,14.3,4.31,6.75.41,6.75.41,4.45,1.48,8.36,2.43,5.8,7.41,5,10a7.77,7.77,0,0,0,1.89,7.28c1.62,1.62,2.43,6.88,2.43,6.88a7.94,7.94,0,0,1,4.58,3.91c1.35,3,1,9.45,1,9.45l-20.1,28.32s.27,10.93-.54,13.36,2.83,43.7,2.83,43.7l4.18,71s-5.53,4.72-6.74,5.26-2.43-25.09-2.43-26S979.74,533,979.74,533s-4.18-6.74-4.18-8.23-3.91-15.11-3.91-15.11l-5.94-26.3Z" transform="translate(-30.56 -15.24)" opacity="0.1"/><path d="M1035.37,442.51c0,.93,0,1.54,0,1.54l-20.09,28.31v0s.27,10.93-.54,13.36c-.47,1.4.56,15.92,1.51,27.85.68,8.6,1.32,15.85,1.32,15.85l1.78,30.1,2.4,40.86s-5.53,4.72-6.74,5.26-2.43-25.09-2.43-26S981.36,533,981.36,533s-4.18-6.75-4.18-8.23-3.91-15.11-3.91-15.11l-5.94-26.3,2.7-80.4,2.29-17.8s3.37,5.8,5.13,7.14,5.8,4.46,5.8,4.46,5.8,2.7,7.82,2.7,12.95,2.83,14.3,4.31,6.75.41,6.75.41,4.45,1.48,8.36,2.43,5.8,7.42,5,10a7.78,7.78,0,0,0,1.89,7.29c1.61,1.62,2.42,6.88,2.42,6.88a7.94,7.94,0,0,1,4.59,3.92C1035.31,436.66,1035.4,440.4,1035.37,442.51Z" transform="translate(-30.56 -15.24)" fill="#65617d"/><path d="M870.48,801.93c.67,0,29,1.08,28.46,5.66S870.48,801.93,870.48,801.93Z" transform="translate(-30.56 -15.24)" opacity="0.1"/><path d="M876.82,809.62s19,3.1,14,5.93S876.82,809.62,876.82,809.62Z" transform="translate(-30.56 -15.24)" opacity="0.1"/><path d="M947.5,799s31.57,2.7,26.85,6.2-15.92,4.05-16.46,4.19S947.5,799,947.5,799Z" transform="translate(-30.56 -15.24)" opacity="0.1"/><path d="M943.72,812.85s17.54,3,18.08,6.34S943.72,812.85,943.72,812.85Z" transform="translate(-30.56 -15.24)" opacity="0.1"/><path d="M953.44,731.65s16,3.78,17,6.34Z" transform="translate(-30.56 -15.24)" opacity="0.1"/><path d="M891.52,743.25s-8.36,2.43-.27,7.28S891.52,743.25,891.52,743.25Z" transform="translate(-30.56 -15.24)" opacity="0.1"/><path d="M928.62,613.62c.94,0,15.64-4.86,20.77-2.7a34.25,34.25,0,0,0,11.47,2.16Z" transform="translate(-30.56 -15.24)" opacity="0.1"/><path d="M930.51,629l-.15,1.34-12.54,32.93s-2,10-3.77,15.64a102.69,102.69,0,0,0-2.64,11.72l11.13-69Z" transform="translate(-30.56 -15.24)" opacity="0.1"/><path d="M950.09,570.87l-5.22.09h-.17l-3.06-13.6,4.54-.24Z" transform="translate(-30.56 -15.24)" fill="#3f3d56"/><path d="M1013.73,554.4l-3.35,2.77-11.21,9.23s-30.36,16.19-38.72.81c-7.37-13.55,27-23.22,35.33-25.33l1.77-.43Z" transform="translate(-30.56 -15.24)" fill="#fbbebe"/><path d="M884.1,421.8s5.94,2.7,7.29,6.47S884.1,421.8,884.1,421.8Z" transform="translate(-30.56 -15.24)" opacity="0.1"/><path d="M865.76,462.27s-8.64,10.52-5.13,14.56S865.76,462.27,865.76,462.27Z" transform="translate(-30.56 -15.24)" opacity="0.1"/><path d="M1020.07,427.73s-8.09.81-8.36,7.83Z" transform="translate(-30.56 -15.24)" opacity="0.1"/><path d="M945.07,538.35c.81-.81,19.43-28.33,23.74-25.9Z" transform="translate(-30.56 -15.24)" opacity="0.1"/><path d="M979.88,359.47a32,32,0,0,1-3.8,15.16l-.24,0c-2-.43-3.09-2.8-4.65-4.29a6.32,6.32,0,0,0-7.28-1,7.4,7.4,0,0,0-3.58,6.92c-1-4.32-.7-8.91-1.71-13.24s-4-8.71-8.15-8.78c-1.78,0-3.86.66-5.15-.68-.78-.8-.94-2.07-1.52-3.05-3-4.78-11.95-2.36-15.62.09s-7.94,6.37-12.51,8.47a32.11,32.11,0,0,1,64.21.46Z" transform="translate(-30.56 -15.24)" opacity="0.1"/><path d="M943.8,349.64c.58,1,.74,2.25,1.52,3.05,1.28,1.34,3.36.65,5.15.68,4.13.07,7.15,4.45,8.15,8.78s.68,8.92,1.71,13.25a7.38,7.38,0,0,1,3.58-6.92,6.34,6.34,0,0,1,7.28,1c1.56,1.49,2.62,3.86,4.65,4.28s4-1.52,4.73-3.66.69-4.5,1.17-6.72c.91-4.21,3.66-7.66,5.18-11.66a21.1,21.1,0,0,0-.14-15.07c-1-2.53-2.52-4.81-3.54-7.34-1.55-3.85-2-8.19-3.85-11.85-3.17-6.13-10.66-9.2-16.8-6.89-2.94,1.1-5.48,3.23-8.46,4.19-4,1.28-8.25.32-12.37-.26s-8.69-.63-12,2.09c-3.82,3.12-4.86,9-8.45,12.42-1.51,1.44-3.38,2.36-5,3.69s-3,3.32-2.77,5.48c.23,2.79,3,5.33,2,7.92a6.29,6.29,0,0,1-1.5,2,28.19,28.19,0,0,0-6.53,11.11c7.22,2.26,15-5.7,20.68-9.46C931.85,347.28,940.84,344.86,943.8,349.64Z" transform="translate(-30.56 -15.24)" fill="#3f3d56"/><path d="M1013.73,554.4l-3.35,2.77c-3-4.93-15.12-14.78-15.12-14.78l.52-.51,1.77-.43Z" transform="translate(-30.56 -15.24)" opacity="0.1"/><path d="M1017,549.41s-1.2,3-2.45,5.6-2.61,5-2.67,3c-.14-3.78-15.78-16.46-15.78-16.46l2.12-2.06,2.46-2.39Z" transform="translate(-30.56 -15.24)" fill="#e7effd"/><path d="M1017.51,529.44l1.78,30.1c-4.2-6.51-15.7-23.22-23.09-22.68l17.94-20.64a23.85,23.85,0,0,0,2.05-2.63C1016.87,522.19,1017.51,529.44,1017.51,529.44Z" transform="translate(-30.56 -15.24)" opacity="0.1"/><path d="M1017,549.41s-1.2,3-2.45,5.6c-4.7-6.45-11.17-14.07-16.33-15.49l2.46-2.39Z" transform="translate(-30.56 -15.24)" opacity="0.1"/><path d="M1030.46,440.28l4.86,3.78s8.09.13,8.9,6.88,8.23,9.84,8.23,9.84,5.53,5.53,5.53,8.1,4.18,7.15,4.18,7.55,4,8.63,3.51,10.12,4.31,8,2.83,10.38a60.84,60.84,0,0,0-3.24,6.75s-6.34,12.14-9.57,14.43-18.08,21.59-18.08,21.59-15.92,18.34-15.92,24c0,0-15.51-25.9-24.68-25.23L1015,517.84s3.1-3.37,3.24-5.39,8.63-11.33,12.68-11.74c0,0,.67-5.53-1.08-5.66s-3.24-4.46-3.24-4.46-11.87-14-12-22.93S1030.46,440.28,1030.46,440.28Z" transform="translate(-30.56 -15.24)" fill="#65617d"/><path d="M1037.61,453.09s-11.33,8.37-8.9,11.06S1037.61,453.09,1037.61,453.09Z" transform="translate(-30.56 -15.24)" opacity="0.1"/><path d="M1038.15,487.63s21-6.75,23.2,0Z" transform="translate(-30.56 -15.24)" opacity="0.1"/><path d="M907.85,846s-11.34,7.42-17,6.33-11.47,1.9-11.47,1.9a34.15,34.15,0,0,1-14.3,9.31c-9.17,3.1-22,1.88-29.27-.55-3.45-1.15-3.72-2.63-2.06-4.46,7.91,1.58,25.61,4.72,30.39,2.44,6.2-3,15.1-9.44,15.1-9.44S890.85,850,892.47,850c1.15,0,10.11-3.7,15.16-5.82Z" transform="translate(-30.56 -15.24)" opacity="0.1"/><path d="M976.48,861.21c-.07.46-.11.75-.11.75s-2.7,5.93-17.67,8.09-15-5-15-5,.06-.77.16-1.93C948.61,864.93,959,866.94,976.48,861.21Z" transform="translate(-30.56 -15.24)" opacity="0.1"/><path d="M889.7,451.47s0,30.76-2.63,33.8S889.7,451.47,889.7,451.47Z" transform="translate(-30.56 -15.24)" opacity="0.1"/><path d="M1011.31,461.39l3.91,11S1016.77,461.59,1011.31,461.39Z" transform="translate(-30.56 -15.24)" opacity="0.1"/><g opacity="0.1"><path d="M915.92,343.48c1-2.53-1.59-5-1.93-7.73a5,5,0,0,0-.43,2.44c.17,2.05,1.68,3.95,2.08,5.84A3.55,3.55,0,0,0,915.92,343.48Z" transform="translate(-30.56 -15.24)"/><path d="M960.69,372.54c-1-4.26-.68-8.76-1.66-13s-4-8.71-8.16-8.78c-1.78,0-3.86.66-5.15-.68-.78-.8-.93-2.07-1.52-3.05-3-4.78-11.94-2.36-15.62.09-5.52,3.67-13.1,11.34-20.17,9.6-.34.82-.66,1.64-.92,2.49,7.22,2.26,15-5.7,20.68-9.46,3.68-2.45,12.67-4.87,15.63-.09.58,1,.74,2.25,1.52,3.05,1.28,1.34,3.36.65,5.15.68,4.13.07,7.15,4.45,8.15,8.78s.68,8.92,1.71,13.25A7.66,7.66,0,0,1,960.69,372.54Z" transform="translate(-30.56 -15.24)"/><path d="M981,367.48c-.74,2.14-2.66,4.1-4.74,3.66s-3.09-2.79-4.64-4.28a6.34,6.34,0,0,0-7.28-1,7.32,7.32,0,0,0-3.58,6.53,7,7,0,0,1,3.17-3.9,6.34,6.34,0,0,1,7.28,1c1.56,1.49,2.62,3.86,4.65,4.28s4-1.52,4.73-3.66a18.1,18.1,0,0,0,.74-3.88A11,11,0,0,1,981,367.48Z" transform="translate(-30.56 -15.24)"/><path d="M987.32,349.1c-1.52,4-4.26,7.45-5.18,11.66-.18.85-.29,1.72-.39,2.59.92-4.19,3.65-7.64,5.17-11.62a21,21,0,0,0,1.25-5.6A21.47,21.47,0,0,1,987.32,349.1Z" transform="translate(-30.56 -15.24)"/></g></svg>