<svg xmlns="http://www.w3.org/2000/svg" id="_9af98f83-10c5-4067-bc84-20554b2827d8" data-name="9af98f83-10c5-4067-bc84-20554b2827d8" viewBox="0 0 1009.5 775.5"><defs><style>.cls-1,.cls-10{fill:#6c63ff}.cls-1,.cls-13,.cls-2,.cls-4,.cls-9{opacity:.1}.cls-1,.cls-13,.cls-15,.cls-2,.cls-4{isolation:isolate}.cls-12,.cls-2{fill:#5629b6}.cls-3{fill:#efb7b9}.cls-5{fill:#dce6f2}.cls-6{fill:#444053}.cls-7{fill:#a36468}.cls-8{fill:#965d7b}.cls-11{fill:#562ec6}.cls-13{fill:#fff}.cls-14{fill:#a8a8a8}.cls-15{opacity:.2}</style></defs><title>5</title><ellipse cx="354.1" cy="742.1" class="cls-1" rx="176.1" ry="33.4"/><path d="M586.6,110.5c-64.8-2.2-126.4-23.1-185.3-46S284.2,16.4,221,4.2c-40.6-7.7-87.1-8.9-119.8,12.9S59.5,74.3,54,107.8c-4.1,25.3-6.5,51.9,4.8,75.5,7.8,16.4,21.7,30.2,31.3,46,33.5,54.7,9.8,122.2-26.4,175.6-17,25.1-36.8,49-49.9,75.7s-19.2,57.2-7.7,84.5S44.6,612.3,74,626.6c59.7,28.9,130,37.2,198.6,41.9,151.8,10.4,304.4,5.9,456.7,1.4,56.3-1.7,112.9-3.3,168.3-12.1,30.8-4.8,62.6-12.5,84.9-31,28.4-23.5,35.4-63.4,16.4-92.9C967,484.4,878.9,472.1,856.6,419c-12.3-29.2.3-61.8,18.1-88.9C913,271.9,977.1,220.9,980.4,154.4c2.4-45.6-28.4-91.4-76.1-113-49.9-22.6-119.2-19.8-156,17.7S643.7,112.5,586.6,110.5Z" class="cls-2" transform="translate(0 0.9)"/><path d="M463.3,408.8c-10,14.3-45.9,6.7-45.9,6.7l-27.9-26.1-3.7-3.5,6.3-13.4,5.4,1.6C415.5,379.3,471.8,396.7,463.3,408.8Z" class="cls-3" transform="translate(0 0.9)"/><path d="M397.5,374.1a61.1,61.1,0,0,1-8,15.3l-3.7-3.5,6.3-13.4Z" class="cls-4" transform="translate(0 0.9)"/><path d="M301.9,223.4s-25.7,11.4-24.4,39.4a461.6,461.6,0,0,0,5.9,53.7s-5.3,42.1,16.6,53,42.1,19.7,42.1,19.7,34.2,3.7,38.4,5.2,17.6-21.7,15.1-25.3-33.8-11.2-37.8-17.3-13.3-9.7-13.3-9.7-9.5-5.8-10.2-11,1.9-9.1,2.5-11.4,2.3-24.4,2.3-24.4S349.9,216.6,301.9,223.4Z" class="cls-5" transform="translate(0 0.9)"/><path d="M318.9,315.4s-35.3,5.9-31.9,18.2C287,333.6,299.8,320.3,318.9,315.4Z" class="cls-4" transform="translate(0 0.9)"/><path d="M319.1,320.4s-19.3,15.8-15.5,16.6S319.1,320.4,319.1,320.4Z" class="cls-4" transform="translate(0 0.9)"/><path d="M328.4,325.9s-5.1,10.6-2,9.9S328.4,325.9,328.4,325.9Z" class="cls-4" transform="translate(0 0.9)"/><path d="M398.8,375.2l-2.2-.6c.6-2,.8-3.6.3-4.4-2.4-3.6-33.8-11.2-37.8-17.2s-13.3-9.8-13.3-9.8-9.5-5.8-10.2-11,1.9-9.1,2.6-11.4,2.2-24.4,2.2-24.4,10.8-78.7-37.2-71.9c0,0-25.7,11.4-24.4,39.4a459.2,459.2,0,0,0,5.9,53.7s-5.3,42.1,16.6,53,42.1,19.8,42.1,19.8,34.2,3.6,38.4,5.2c1.6.5,4.6-2.5,7.4-6.6l1.6,1.5,27.9,26.1s35.9,7.6,45.9-6.7C473.1,397.8,416.8,380.4,398.8,375.2Z" class="cls-4" transform="translate(0 0.9)"/><polygon points="317.2 201.9 332.5 220.2 330.5 238.7 312.1 209.9 317.2 201.9" class="cls-5"/><polygon points="332.5 220.2 330.6 237.6 330.5 238.7 313.9 212.7 312.1 209.9 312.6 209.1 317.2 201.9 318.3 203.1 332.5 220.2" class="cls-4"/><path d="M340.4,176.2c-5.2,1.5-10.1,6.5-14.4,12.7a104.3,104.3,0,0,0-7.7,13.3c-1.5,2.9-2.7,5.6-3.7,7.9l-.7,1.7c-1.8,4.1-2.7,6.9-2.7,6.9S271.7,189,277.9,187c2.1-.7,4.9-5.2,7.6-10.9l.3-.7c1.8-3.6,3.5-7.7,5-11.5,3.1-7.9,5.4-14.7,5.4-14.7S356.2,171.7,340.4,176.2Z" class="cls-3" transform="translate(0 0.9)"/><path d="M364,147.6s9.2,16.5,21.4,14.2,7.2-8.9,7.2-8.9Z" class="cls-6" transform="translate(0 0.9)"/><path d="M346.4,718.7c-8.1,3.7-26.4,0-26.4,0l-7.7-.5L279.6,716c-8.6-.7-6.5-4.2-6.5-4.2V690.4L315,679.8s16.6,5.6,21.2,10.6,6.8,1.1,14.5,2.4l1.2.3c7.3,1.6,11.2,2.3,13.6,8.4a22.2,22.2,0,0,1,1.1,3.9C368.8,715.1,354.4,715,346.4,718.7Z" class="cls-7" transform="translate(0 0.9)"/><path d="M365.5,701.5a41.6,41.6,0,0,1-4.7,2.4c-5.5,2.5-10.8,5.5-16.3,7.9s-11.6,4.1-17.6,3.6c-3.2-.2-6.4-1-9.4-.1a22.2,22.2,0,0,0-5.2,2.9L279.6,716c-8.6-.7-6.5-4.2-6.5-4.2v-2.5h1.1a15.9,15.9,0,0,1,6.1.9l13,3.5a9.8,9.8,0,0,1,5-6.4,16,16,0,0,1,8-1.9c6.8.1,13.1,3.3,19.9,3.6a10.7,10.7,0,0,0,5.5-.9l2.6-1.6a24.1,24.1,0,0,1,4.5-1.6,115.4,115.4,0,0,0,13-4.1c1.2-.5,2.6-1.4,2.4-2.6s-2.9-1.9-3.6-3.5a2.3,2.3,0,0,1,.1-1.8l1.2.3C359.2,694.8,363.1,695.4,365.5,701.5Z" class="cls-4" transform="translate(0 0.9)"/><path d="M337.8,765.5c-9.5,4.3-31,0-31,0l-9-.5c-11.8-.8-31.5-2-38.5-2.6-10.1-.9-7.6-5-7.6-5V732.2L301,719.7s19.5,6.6,24.8,12.5,8,1.3,17.1,2.9l1.4.2c8.6,2,13.3,2.8,16,9.9a35,35,0,0,1,1.4,4.6C364.2,761.3,347.3,761.2,337.8,765.5Z" class="cls-7" transform="translate(0 0.9)"/><path d="M360.3,745.2a36,36,0,0,1-5.5,2.9c-6.5,2.9-12.7,6.5-19.2,9.3s-13.6,4.8-20.7,4.3c-3.7-.3-7.5-1.3-11-.2a24.7,24.7,0,0,0-6.1,3.5c-11.8-.8-31.5-2-38.5-2.6-10.1-.9-7.6-5-7.6-5v-3h1.2a21.7,21.7,0,0,1,7.2,1.1l15.3,4.1a12.3,12.3,0,0,1,5.9-7.5,18.5,18.5,0,0,1,9.5-2.2c7.9.1,15.4,3.9,23.3,4.2a13.1,13.1,0,0,0,6.5-1c1.1-.6,2-1.4,3.1-2a25.5,25.5,0,0,1,5.3-1.8,117,117,0,0,0,15.2-4.9c1.4-.5,3-1.5,2.8-3s-3.4-2.3-4.2-4.1a2.6,2.6,0,0,1,.1-2.1l1.4.3C352.9,737.3,357.6,738.1,360.3,745.2Z" class="cls-4" transform="translate(0 0.9)"/><path d="M316.3,592.5l-2.7,62.8s-4,12.9-1.8,16.5,5.8,7.4,4.5,9.5S299,707,293.8,698s-10.3-48-10.3-48l4.8-48.2Z" class="cls-6" transform="translate(0 0.9)"/><path d="M327.9,436l7.4,9.9v86.3s2.2,23,0,27.7-13.1,14.3-13.1,14.3l-9.3-47.5,2-50.3Z" class="cls-6" transform="translate(0 0.9)"/><path d="M316.3,592.5l-2.7,62.8s-4,12.9-1.8,16.5,5.8,7.4,4.5,9.5S299,707,293.8,698s-10.3-48-10.3-48l4.8-48.2Z" class="cls-4" transform="translate(0 0.9)"/><path d="M327.9,436l7.4,9.9v86.3s2.2,23,0,27.7-13.1,14.3-13.1,14.3l-9.3-47.5,2-50.3Z" class="cls-4" transform="translate(0 0.9)"/><path d="M335.3,399.2v46.6L327,482.2s-2.7,87.6-.3,98.3-8,20.7-8,20.7-6,.6-6,5.3-10,18-10,18l.3,26s4.3,48.7-2.3,58,2.3,10.7,2.3,10.7c-8.3,27.3-48.3,21-52,18s0-62,0-62,9-90,16-94,.3-9,2.7-15-2.4-22.4-2.4-22.4-2-19.3-7-28.6-4.3-35-4.3-35-14-18.7-18.2-26-6.8-26.4-5.8-40.7c.7-9.7,5.8-23.8,9-31.9,1.5-3.9,2.7-6.4,2.7-6.4l.9.2,54.6,14.3Z" class="cls-6" transform="translate(0 0.9)"/><path d="M340.4,176.2c-5.2,1.5-10.1,6.5-14.4,12.7h-1.1a35.7,35.7,0,0,1-31-17.9,32.6,32.6,0,0,1-3.1-7.2c3-7.8,5.3-14.6,5.3-14.6S356.2,171.7,340.4,176.2Z" class="cls-4" transform="translate(0 0.9)"/><path d="M360.7,151.2a35.8,35.8,0,1,1-71.5.1,33.8,33.8,0,0,1,4.6-17.6,33.5,33.5,0,0,1,12-12.7,35.7,35.7,0,0,1,49.3,11,35.2,35.2,0,0,1,5.5,16.6C360.6,149.4,360.7,150.3,360.7,151.2Z" class="cls-3" transform="translate(0 0.9)"/><path d="M330.6,236.8v1.1l-16.6-26c-1.8,4.1-2.7,6.8-2.7,6.8S271.7,189,277.9,187c2.1-.7,4.9-5.2,7.6-10.9l.3-.7c2.9,8.7,19.8,25.9,26.8,32.8l2,2,1.1,1,.5.5C318.8,214.4,329.5,226,330.6,236.8Z" class="cls-4" transform="translate(0 0.9)"/><path d="M343,325l-1.8,58.5-.3,10.5s-21.6-2-41.7-4.2c-16.2-1.8-31.4-3.7-33.8-4.8s-9.4-2.5-14.5-3.2l-7-.8-2.9.6c-3.9.7-10.7,1.3-14.6-2.1s8.2-20.4,11.5-24.2l.8-.8-1.3-11.6L234.2,313s-2-17.3-5-26.5a47.1,47.1,0,0,1-1.8-8.1,64.9,64.9,0,0,1,1.7-25.2,48.9,48.9,0,0,0,1.8-10.7c.5-9.3,28.7-45,35.7-48.3a14.6,14.6,0,0,0,7.2-7.1,12.8,12.8,0,0,0,1.1-3.1c3-13,10.6-7.9,10.6-7.9,1.8,10.2,30.1,37.1,30.1,37.1l.6.6c2.8,2.9,15.3,16.4,14.4,27.9a36.6,36.6,0,0,0,1.9,12.7,212.4,212.4,0,0,1,9.9,56Z" class="cls-5" transform="translate(0 0.9)"/><path d="M302.9,255.4s-7,17-12.2,19.8S305.4,281,302.9,255.4Z" class="cls-4" transform="translate(0 0.9)"/><path d="M308.2,287.2s-16,2-16,5S308.2,287.2,308.2,287.2Z" class="cls-4" transform="translate(0 0.9)"/><path d="M324.9,306.7s-23.2,49.5-29.7,51S324.9,306.7,324.9,306.7Z" class="cls-4" transform="translate(0 0.9)"/><path d="M315.2,215.7,296,224.1,272.8,189a16.3,16.3,0,0,0,1.1-3.1c3-13,10.5-7.8,10.5-7.8,1.9,10.2,30.2,37.1,30.2,37.1Z" class="cls-4" transform="translate(0 0.9)"/><path d="M316.2,213.7,297,222.1,273.8,187a16.3,16.3,0,0,0,1.1-3.1c3-13,10.5-7.8,10.5-7.8,1.9,10.2,30.2,37.1,30.2,37.1Z" class="cls-5" transform="translate(0 0.9)"/><path d="M340.9,394s-21.6-2-41.7-4.2l36.1,9.4v11c-1.6,1.5-2.9,2.2-3.8,1.8-4.2-1.7-38.1-7.2-38.1-7.2s-19.7-10-41-22l-1.5-1a23.6,23.6,0,0,1-6.3-6.3c-4-5.7-5.9-13-6.7-20.2a72.4,72.4,0,0,1-.5-12.3,93.4,93.4,0,0,1,1.3-14,444.3,444.3,0,0,1-3-54c.2-28,26.5-38,26.5-38,48.2-4.3,33.2,73.7,33.2,73.7s-2.7,22-3.5,24.3-3.5,6-3.1,11.2,9.6,11.6,9.6,11.6,9,4.2,12.7,10.4c2.7,4.6,20.2,10.9,30.1,15.3Z" class="cls-4" transform="translate(0 0.9)"/><path d="M357.1,129a13.7,13.7,0,0,1-1,4.8,38.4,38.4,0,0,1-1.8,3.5,18.1,18.1,0,0,1-4.4,5.5c-2.3,1.6-5.2,2.1-8,2.7s-5.6,1.8-7.2,4.1a12.5,12.5,0,0,0-1.7,4.9,11.4,11.4,0,0,1-2,4.8,4,4,0,0,1-4.7,1.1,5,5,0,0,1-1.8-2.3c-1.2-2.6-1.4-5.5-1.9-8.2s-1.1-5.6-2.8-7.9-4.7-3.7-7.4-2.8a7.3,7.3,0,0,0-4,3.9,24.8,24.8,0,0,0-1.5,5.5c-1.2,6.8-2.7,13.5-4.4,20.2a1.9,1.9,0,0,1-.3.8,1.3,1.3,0,0,1-1,.4c-2.3.3-4.4-1.3-6.7-1.1h-.7a36,36,0,0,1,3.6-40.8h.2a10.7,10.7,0,0,0,4-2.6,29.3,29.3,0,0,0,4-4.6l.8-1a49.8,49.8,0,0,1,7.8-7.4,8.7,8.7,0,0,1,2.7-1.4,7,7,0,0,1,2.5-.1,72.4,72.4,0,0,0,10.4.4c2.4-.4,4.9-.6,7.3-.8,6.4.2,11.8,4.7,15.8,9.6C355,122.8,356.9,125.7,357.1,129Z" class="cls-4" transform="translate(0 0.9)"/><path d="M285.8,133.4c-1.4,2.3-.6,5-1.5,7.5s.9,8.2-1.2,11.4c-.7,1.1-1.9,1.9-2.3,3.2s1.2,4.3.7,6.5-3.3,4-2.6,6.1a3.9,3.9,0,0,0,2.2,2,8,8,0,0,0,5,1.1c2.7-.4,4.8-3.1,7.5-3.3s4.4,1.4,6.7,1.1a1.8,1.8,0,0,0,1-.4,1.9,1.9,0,0,0,.3-.8c1.7-6.7,3.2-13.4,4.4-20.2a24.8,24.8,0,0,1,1.5-5.5,7.3,7.3,0,0,1,4-3.9c2.7-.9,5.7.6,7.4,2.8s2.4,5.1,2.8,7.9.8,5.6,1.9,8.2a5,5,0,0,0,1.8,2.3c1.5.9,3.5.2,4.7-1.1a12,12,0,0,0,2-4.8,12.5,12.5,0,0,1,1.7-4.9c1.6-2.3,4.4-3.4,7.2-4.1s5.7-1.1,8-2.8a16.6,16.6,0,0,0,4.4-5.4c1.5-2.6,2.8-5.4,2.7-8.3s-2-6.2-4.1-8.7c-4-4.9-9.4-9.4-15.7-9.5a58.2,58.2,0,0,0-7.3.7,59.9,59.9,0,0,1-10.4-.4,7.6,7.6,0,0,0-2.6.1,9.4,9.4,0,0,0-2.6,1.4,49.8,49.8,0,0,0-7.8,7.4,52.3,52.3,0,0,1-4.8,5.6,11.5,11.5,0,0,1-4,2.6c-1,.3-2,.1-3,.4C290.9,128.5,287.1,131.2,285.8,133.4Z" class="cls-8" transform="translate(0 0.9)"/><path d="M385.4,161.8c-8,1.5-14.6-5-18.3-9.7-1.1-1.5-2.2-3-3.1-4.5l27.5,5.1,1.1.2S397.7,159.6,385.4,161.8Z" class="cls-4" transform="translate(0 0.9)"/><g class="cls-9"><path d="M281.5,159.1a8.2,8.2,0,0,0-.6-3.8v.3c-.4,1.3.1,2.7.5,4.1C281.4,159.5,281.4,159.3,281.5,159.1Z" transform="translate(0 0.9)"/><path d="M283.9,142.8a28.1,28.1,0,0,0,0,4.1A18.7,18.7,0,0,0,283.9,142.8Z" transform="translate(0 0.9)"/><path d="M353.3,133.4a15.5,15.5,0,0,1-4.4,5.5c-2.3,1.6-5.2,2.1-8,2.7s-5.6,1.8-7.2,4.1a17.8,17.8,0,0,0-1.7,4.9,9.3,9.3,0,0,1-2,4.8,3.9,3.9,0,0,1-4.7,1.1,5.8,5.8,0,0,1-1.8-2.3c-1.1-2.6-1.4-5.4-1.9-8.2a17.1,17.1,0,0,0-2.8-7.9c-1.7-2.2-4.7-3.7-7.4-2.8a7.3,7.3,0,0,0-4,3.9,24.8,24.8,0,0,0-1.5,5.5c-1.2,6.8-2.7,13.5-4.4,20.2a1.1,1.1,0,0,1-.3.8,1.2,1.2,0,0,1-1,.4c-2.2.3-4.4-1.2-6.6-1.1s-4.8,2.9-7.6,3.3a8.2,8.2,0,0,1-5-1.1,5.5,5.5,0,0,1-1.8-1.3,2.9,2.9,0,0,0-.4,2.4,4.7,4.7,0,0,0,2.2,2,9.9,9.9,0,0,0,5,1.1c2.8-.5,4.8-3.1,7.6-3.3s4.4,1.3,6.6,1.1a1.6,1.6,0,0,0,1-.5,1.1,1.1,0,0,0,.3-.7c1.7-6.7,3.2-13.4,4.4-20.3a26.4,26.4,0,0,1,1.5-5.5,7.3,7.3,0,0,1,4-3.9c2.7-.8,5.7.6,7.4,2.9a16.3,16.3,0,0,1,2.8,7.8c.5,2.8.8,5.6,1.9,8.2a4.7,4.7,0,0,0,1.8,2.3,3.9,3.9,0,0,0,4.7-1.1,9.4,9.4,0,0,0,2-4.7,15.8,15.8,0,0,1,1.7-4.9c1.6-2.4,4.5-3.4,7.2-4.1s5.7-1.2,8-2.8a15.2,15.2,0,0,0,4.4-5.4c1.5-2.6,2.9-5.4,2.8-8.4-.1-.4-.1-.8-.2-1.1A17,17,0,0,1,353.3,133.4Z" transform="translate(0 0.9)"/></g><path d="M356.1,133.7a34.3,34.3,0,0,1,4.4,14.9c-8.9-5-17.2-10.5-21.5-12.4-7.3-3.4-43.3-2.1-53.7-1.8,1.1-2,10.8-4.5,12.2-6.2a35.9,35.9,0,0,1,57.6,3.8l1.1,1.7Z" class="cls-4" transform="translate(0 0.9)"/><path d="M387.9,157.6c-4.8,1.4-12.7-1.4-20.8-5.5-1.1-1.5-2.2-3-3.1-4.5l27.5,5.1C393.3,154,393.8,155.7,387.9,157.6Z" class="cls-4" transform="translate(0 0.9)"/><path d="M324.9,94.8c-8.7-.3-20.7,2.6-31.6,14.4-5.7,6.2-7.5,24.2-7.5,24.2l4-.6s40.1-1.7,49.3,2.4,37.5,24.9,48.8,21.4-1-6.8-1-6.8-15.6-6.6-15.6-11.8S360.7,95.8,324.9,94.8Z" class="cls-6" transform="translate(0 0.9)"/><path d="M276.4,567.3s16.8,16.2,24,15C300.4,582.3,279.9,580.5,276.4,567.3Z" class="cls-4" transform="translate(0 0.9)"/><path d="M272.9,574.8s1.5,8.3,5.5,7.5S272.9,574.8,272.9,574.8Z" class="cls-4" transform="translate(0 0.9)"/><path d="M299.2,714.5s-23.8,18.5-19.8,19S299.2,714.5,299.2,714.5Z" class="cls-4" transform="translate(0 0.9)"/><polygon points="331 348.2 408 335.7 408 408.6 334.8 404.7 331 348.2" class="cls-10"/><polygon points="331 348.2 408 335.7 408 408.6 334.8 404.7 331 348.2" class="cls-11"/><polygon points="408 335.7 500.3 342.6 495.2 406 408 408.6 408 335.7" class="cls-10"/><polygon points="408 335.7 500.3 342.6 495.2 406 408 408.6 408 335.7" class="cls-4"/><polygon points="436.4 313.4 408 335.7 500.3 342.6 515.4 319.8 436.4 313.4" class="cls-12"/><polygon points="303.1 323.9 372.4 315.5 408 335.7 331 348.2 303.1 323.9" class="cls-12"/><polygon points="424.8 354.6 424.8 454.3 388.8 450.6 373.1 449 368.3 448.5 352.6 446.9 331 444.6 331 348.2 408 353.4 424.8 354.6" class="cls-12"/><polygon points="500.3 342.6 500.3 439.8 471.4 445.3 457.3 448 424.8 454.3 424.8 354.6 500.3 342.6" class="cls-10"/><polygon points="500.3 342.6 500.3 439.8 471.4 445.3 457.3 448 424.8 454.3 424.8 354.6 500.3 342.6" class="cls-11"/><polygon points="303.1 369.2 331 348.2 424.8 354.6 411 377.9 303.1 369.2" class="cls-10"/><polygon points="303.1 369.2 331 348.2 424.8 354.6 411 377.9 303.1 369.2" class="cls-13"/><polygon points="500.3 342.6 424.8 354.6 449.4 376.6 530.2 363 500.3 342.6" class="cls-10"/><polygon points="500.3 342.6 424.8 354.6 449.4 376.6 530.2 363 500.3 342.6" class="cls-13"/><polygon points="471.4 445.3 457.3 448 457.3 427.3 470.5 423.9 471.4 445.3" class="cls-13"/><polygon points="388.8 436.8 388.8 450.6 373.1 449 373.1 436.8 388.8 436.8" class="cls-13"/><polygon points="368.3 441.2 368.3 448.5 352.6 446.9 352.6 441.2 368.3 441.2" class="cls-13"/><path d="M415.4,428.7c-10.7,13.7-46.2,4.2-46.2,4.2l-26.4-27.5-3.6-3.7,7-13,5.3,1.8C369.2,396.7,424.4,417.1,415.4,428.7Z" class="cls-4" transform="translate(0 0.9)"/><path d="M414.4,426.7c-10.7,13.7-46.2,4.2-46.2,4.2l-26.4-27.5-3.6-3.7,7-13,5.3,1.8C368.2,394.7,423.4,415.1,414.4,426.7Z" class="cls-3" transform="translate(0 0.9)"/><path d="M350.5,388.5c-1.5,4.2-5.2,10.4-8.8,14.9l-3.5-3.7,7-13Z" class="cls-4" transform="translate(0 0.9)"/><path d="M263.2,233s-26.3,10-26.5,38a444.3,444.3,0,0,0,3,54s-7.5,41.7,13.7,53.7,41,22,41,22,34,5.5,38.1,7.3,18.7-20.8,16.4-24.5-33.1-13-36.8-19.3-12.7-10.4-12.7-10.4-9.2-6.3-9.6-11.6,2.4-9,3.1-11.2,3.6-24.3,3.6-24.3S311.4,228.7,263.2,233Z" class="cls-5" transform="translate(0 0.9)"/><path d="M275.2,325.7s-35.5,4-32.8,16.5C242.4,342.2,255.9,329.6,275.2,325.7Z" class="cls-4" transform="translate(0 0.9)"/><path d="M275.2,330.7s-20.2,14.7-16.5,15.7S275.2,330.7,275.2,330.7Z" class="cls-4" transform="translate(0 0.9)"/><path d="M284.2,336.7s-5.8,10.3-2.5,9.8S284.2,336.7,284.2,336.7Z" class="cls-4" transform="translate(0 0.9)"/><path d="M653.8,112.4s-38-2.3-33.6,24.4c0,0-.9,4.7,3.4,6.8,0,0,.1-2,3.9-1.3a18.8,18.8,0,0,0,4.1.2,8.6,8.6,0,0,0,5.1-2.1h0s10.7-4.4,14.8-21.9c0,0,3.1-3.8,3-4.8l-6.4,2.8s2.2,4.6.5,8.5c0,0-.2-8.4-1.5-8.2l-3.3,1.6s3.8,8.1.9,14c0,0,1.1-10-2.1-13.4l-4.5,2.7s4.4,8.3,1.4,15.1c0,0,.8-10.4-2.3-14.5l-4.1,3.2s4.1,8.2,1.6,13.9c0,0-.4-12.2-2.5-13.1,0,0-3.6,3.2-4.2,4.5s2.9,6,1.1,9.1c0,0-1.1-8.1-2-8.2s-3.6,5.4-3.9,9a18.7,18.7,0,0,1,3-9.5,11.2,11.2,0,0,0-5.4,2.8s.5-3.8,6.3-4.1c0,0,3-4.1,3.8-4.3s-5.8-.5-9.3,1.1c0,0,3.1-3.6,10.3-2l4-3.3s-7.6-1-10.8.1c0,0,3.7-3.2,11.9-.9l4.4-2.6s-6.4-1.4-10.3-.9c0,0,4.1-2.2,11.6.2l3.2-1.4s-4.8-1-6.2-1.1-1.4-.6-1.4-.6a17,17,0,0,1,8.9,1S653.9,112.8,653.8,112.4Z" class="cls-10" transform="translate(0 0.9)"/><path d="M769.2,245.7s-38-2.3-33.5,24.4a6.6,6.6,0,0,0,3.4,6.9s0-2,3.9-1.4a14,14,0,0,0,4.1.2,8.5,8.5,0,0,0,5-2h0s10.7-4.5,14.8-21.9c0,0,3.1-3.8,3-4.8l-6.4,2.7s2.2,4.6.4,8.5c0,0-.2-8.3-1.4-8.1l-3.3,1.6s3.7,8.1.9,13.9c0,0,1.1-9.9-2.1-13.3l-4.5,2.6s4.4,8.3,1.4,15.1c0,0,.8-10.4-2.3-14.5l-4.1,3.2s4.1,8.2,1.6,13.9c0,0-.3-12.2-2.5-13.1,0,0-3.6,3.2-4.1,4.5s2.8,6,1,9.1c0,0-1-8.1-2-8.2s-3.5,5.4-3.9,9a19.1,19.1,0,0,1,3.1-9.5,11.1,11.1,0,0,0-5.5,2.8s.6-3.8,6.4-4.1c0,0,2.9-4.1,3.7-4.3s-5.8-.5-9.3,1.1c0,0,3.1-3.6,10.3-2l4-3.3s-7.5-1-10.8.1c0,0,3.7-3.1,11.9-.8l4.4-2.7s-6.4-1.4-10.3-.9c0,0,4.1-2.2,11.6.2l3.2-1.4-6.1-1.1c-1.4-.1-1.5-.5-1.5-.5a15.9,15.9,0,0,1,8.9,1S769.4,246.2,769.2,245.7Z" class="cls-1" transform="translate(0 0.9)"/><path d="M538.4,222.1s8.7-37.1-18.3-37.3c0,0-4.5-1.6-7.3,2.2,0,0,1.9.4.6,4.1a13.7,13.7,0,0,0-.9,4,8.3,8.3,0,0,0,1.2,5.3h0s2.5,11.3,19,18.4c0,0,3.2,3.7,4.2,3.7l-1.6-6.8s-4.9,1.4-8.4-1c0,0,8.2,1.2,8.2,0s-1-3.5-1-3.5-8.6,2.3-13.9-1.5c0,0,9.6,2.7,13.5.2l-1.8-4.9s-9,2.9-15.1-1.2c0,0,10.1,2.5,14.7.1l-2.5-4.5s-8.8,2.6-13.9-.8c0,0,12,1.7,13.3-.3,0,0-2.5-4-3.7-4.8s-6.4,1.8-9.2-.5c0,0,8.2.3,8.4-.5s-4.7-4.5-8.3-5.5a19.7,19.7,0,0,1,8.9,4.7,11.3,11.3,0,0,0-1.8-5.9s3.6,1.2,3,7c0,0,3.5,3.6,3.6,4.5s1.4-5.6.5-9.3c0,0,3,3.6.2,10.4l2.5,4.6s2.4-7.3,1.8-10.7c0,0,2.5,4.2-1.2,11.9l1.8,4.8s2.5-6.2,2.7-10c0,0,1.4,4.4-2.2,11.4l.9,3.3s1.7-4.5,2.1-5.8.7-1.4.7-1.4a15.2,15.2,0,0,1-2.5,8.6S537.9,222.1,538.4,222.1Z" class="cls-1" transform="translate(0 0.9)"/><path d="M455.2,234.7s-30.6-22.8-41.5,1.9c0,0-3.3,3.5-.9,7.6,0,0,1.1-1.6,4,1a15.9,15.9,0,0,0,3.3,2.5,9.2,9.2,0,0,0,5.4,1h0s11.4,2.2,24.4-10.1c0,0,4.7-1.5,5.2-2.4l-6.9-1.2s-.8,5-4.3,7.3c0,0,4.4-7,3.2-7.6l-3.6-.5s-1.3,8.9-6.9,12.2c0,0,6.4-7.7,5.6-12.3l-5.3-.3s-.8,9.4-7.1,13.4c0,0,6.4-8.3,6-13.4l-5.2.4s-1,9.2-6.2,12.5c0,0,6.4-10.3,5.1-12.3,0,0-4.8.7-5.9,1.5s-1,6.5-4.2,8.2c0,0,3.6-7.4,2.9-7.9s-6,2.5-8.3,5.4a19.2,19.2,0,0,1,7.8-6.3,10.5,10.5,0,0,0-6.1-.6s2.6-2.9,7.6,0c0,0,4.7-1.8,5.5-1.5s-4.6-3.6-8.3-4.2c0,0,4.5-1.3,9.6,4l5.2-.6s-5.7-5-9-5.8c0,0,4.8-.6,10.4,5.8l5.1.2s-4.7-4.7-8.1-6.4c0,0,4.5.4,9.5,6.5l3.5.6s-3.5-3.4-4.6-4.3-.9-1.2-.9-1.2a16,16,0,0,1,6.9,5.7S455,235.1,455.2,234.7Z" class="cls-1" transform="translate(0 0.9)"/><path d="M556.8,22.6S526.2-.2,515.3,24.5a6.5,6.5,0,0,0-.9,7.6s1.1-1.6,4,1a15.9,15.9,0,0,0,3.3,2.5,9.3,9.3,0,0,0,5.4,1h0s11.4,2.2,24.5-10.2c0,0,4.6-1.5,5.1-2.3l-6.9-1.2s-.7,5-4.3,7.3c0,0,4.4-7.1,3.3-7.6l-3.7-.5s-1.3,8.9-6.9,12.2c0,0,6.3-7.7,5.6-12.3l-5.3-.3s-.9,9.4-7.1,13.4c0,0,6.4-8.3,6-13.4l-5.2.4s-1,9.2-6.2,12.5c0,0,6.4-10.3,5-12.3,0,0-4.7.7-5.9,1.5s-.9,6.5-4.1,8.2c0,0,3.6-7.4,2.9-7.9s-6,2.5-8.3,5.4a19.2,19.2,0,0,1,7.8-6.3,10.6,10.6,0,0,0-6.1-.7s2.5-2.8,7.6.1c0,0,4.7-1.8,5.5-1.6s-4.6-3.5-8.4-4.2c0,0,4.6-1.2,9.7,4l5.2-.5s-5.7-5-9.1-5.8c0,0,4.9-.6,10.4,5.8l5.2.2s-4.7-4.7-8.2-6.4c0,0,4.6.4,9.6,6.5l3.4.6s-3.4-3.4-4.5-4.2-.9-1.3-.9-1.3a17.5,17.5,0,0,1,6.9,5.8S556.6,23,556.8,22.6Z" class="cls-1" transform="translate(0 0.9)"/><path d="M673.4,51.5s-12.2-36.1-35.2-21.9c0,0-4.7,1-5.1,5.7,0,0,1.9-.7,2.7,3.1a16.3,16.3,0,0,0,1.3,3.9,8.7,8.7,0,0,0,3.9,3.9h0s8.1,8.3,25.9,5.6c0,0,4.7,1.4,5.5.9l-5-4.9s-3.4,3.7-7.7,3.6c0,0,7.7-3.3,7-4.4s-2.7-2.5-2.7-2.5-6.1,6.6-12.6,6.1c0,0,9.6-2.7,11.6-7l-4.1-3.2s-6.1,7.3-13.5,7c0,0,10-3.2,12.5-7.6l-4.5-2.6s-6,6.9-12.2,6.7c0,0,11.1-4.9,11.1-7.2,0,0-4.2-2.2-5.6-2.2s-4.5,4.9-8,4.5c0,0,7-4.1,6.7-4.9s-6.3-1.3-9.8-.3a18.8,18.8,0,0,1,10-.7,10.7,10.7,0,0,0-4.7-4s3.7-.9,6.2,4.3c0,0,4.9,1.2,5.4,1.8s-1.7-5.5-4.5-8.1c0,0,4.5,1.5,5.7,8.8l4.6,2.5s-1.9-7.4-4.2-10c0,0,4.4,2.2,5.3,10.7l4.1,3.1s-1.1-6.5-3-9.9c0,0,3.5,2.9,4.2,10.8l2.4,2.4s-.9-4.8-1.3-6.1,0-1.4,0-1.4a16.2,16.2,0,0,1,2.4,8.6S673,51.8,673.4,51.5Z" class="cls-1" transform="translate(0 0.9)"/><path d="M593.8,53.3S555.9,49.1,559,76c0,0-1.1,4.6,3,7,0,0,.2-2,4-1.1a19,19,0,0,0,4.1.4,9.6,9.6,0,0,0,5.2-1.8h0s10.9-3.9,16-21.2c0,0,3.2-3.6,3.2-4.6l-6.6,2.4s2,4.7,0,8.5c0,0,.2-8.3-1-8.2l-3.4,1.5s3.4,8.2.2,14c0,0,1.6-9.9-1.4-13.5l-4.7,2.4s4,8.6.7,15.2c0,0,1.3-10.4-1.6-14.6l-4.3,3s3.7,8.4.9,13.9c0,0,.3-12.1-1.8-13.1,0,0-3.8,3-4.4,4.2s2.6,6.1.6,9.2c0,0-.6-8.2-1.5-8.2s-3.8,5.1-4.4,8.8a19.1,19.1,0,0,1,3.6-9.4,11,11,0,0,0-5.6,2.5s.7-3.7,6.5-3.7c0,0,3.1-4,4-4.2s-5.7-.7-9.3.6c0,0,3.2-3.4,10.4-1.4l4.2-3.1S568,60,564.8,61c0,0,3.8-3,11.9-.3l4.5-2.4s-6.4-1.7-10.2-1.4c0,0,4.1-2,11.5.8l3.3-1.3L579.7,55c-1.4-.2-1.4-.6-1.4-.6a16.8,16.8,0,0,1,8.8,1.5S593.8,53.7,593.8,53.3Z" class="cls-1" transform="translate(0 0.9)"/><path d="M925.4,347.5s-37.9-4.2-34.8,22.6c0,0-1.1,4.7,3,7,0,0,.2-2,4-1.1a19.6,19.6,0,0,0,4.1.4,8.8,8.8,0,0,0,5.2-1.8h0s10.9-3.9,15.9-21.1c0,0,3.3-3.7,3.2-4.7l-6.5,2.4s2,4.8,0,8.5c0,0,.2-8.3-1-8.1s-3.4,1.4-3.4,1.4,3.3,8.2.2,14c0,0,1.6-9.9-1.4-13.4l-4.7,2.4s4,8.5.7,15.2c0,0,1.3-10.4-1.7-14.6l-4.2,3s3.7,8.4.9,13.9c0,0,.3-12.2-1.9-13.2,0,0-3.7,3-4.3,4.2s2.5,6.1.6,9.2c0,0-.7-8.1-1.5-8.2s-3.9,5.2-4.4,8.8a18.9,18.9,0,0,1,3.5-9.4,11.1,11.1,0,0,0-5.6,2.6s.8-3.8,6.6-3.8c0,0,3.1-3.9,4-4.1s-5.8-.8-9.3.6c0,0,3.2-3.5,10.4-1.5l4.2-3.1s-7.6-1.4-10.8-.4c0,0,3.8-3,11.9-.3l4.5-2.4s-6.4-1.7-10.2-1.4c0,0,4.1-2,11.6.8l3.2-1.3-6.1-1.3c-1.4-.2-1.4-.6-1.4-.6a15.7,15.7,0,0,1,8.8,1.4S925.5,347.9,925.4,347.5Z" class="cls-1" transform="translate(0 0.9)"/><path d="M983.3,382.9s-37.9-4.3-34.8,22.6c0,0-1.1,4.7,3,7,0,0,.2-2,4-1.1a19.6,19.6,0,0,0,4.1.4,8.8,8.8,0,0,0,5.2-1.8h0s10.9-3.9,15.9-21.1c0,0,3.3-3.7,3.2-4.7l-6.6,2.4s2,4.8,0,8.5c0,0,.3-8.3-1-8.2l-3.4,1.5s3.4,8.2.3,14c0,0,1.5-9.9-1.5-13.5l-4.6,2.4s4,8.6.6,15.2c0,0,1.3-10.3-1.6-14.6l-4.3,3s3.8,8.5,1,14c0,0,.2-12.2-1.9-13.2,0,0-3.7,3-4.3,4.2s2.5,6.1.6,9.2c0,0-.7-8.2-1.6-8.2s-3.8,5.1-4.4,8.8a20.1,20.1,0,0,1,3.6-9.4,10.7,10.7,0,0,0-5.6,2.6s.7-3.8,6.5-3.8c0,0,3.2-3.9,4-4.2s-5.7-.7-9.3.7c0,0,3.3-3.5,10.4-1.5L965,391s-7.5-1.4-10.7-.4c0,0,3.8-3,11.9-.3l4.5-2.4s-6.4-1.7-10.3-1.4c0,0,4.2-2,11.6.8l3.2-1.3-6-1.4c-1.4-.2-1.5-.6-1.5-.6a17,17,0,0,1,8.9,1.5S983.4,383.3,983.3,382.9Z" class="cls-1" transform="translate(0 0.9)"/><path d="M854.7,84.8S824.2,62,813.3,86.7c0,0-3.4,3.5-1,7.6,0,0,1.2-1.6,4,1.1a26.2,26.2,0,0,0,3.4,2.4,8.4,8.4,0,0,0,5.4,1h0s11.3,2.2,24.4-10.1c0,0,4.7-1.5,5.1-2.4l-6.9-1.2s-.7,5.1-4.2,7.3c0,0,4.4-7,3.2-7.6l-3.6-.5s-1.3,8.9-6.9,12.2c0,0,6.3-7.7,5.5-12.3l-5.2-.3s-.9,9.4-7.1,13.4c0,0,6.4-8.3,6-13.4l-5.2.4s-1,9.2-6.3,12.5c0,0,6.4-10.3,5.1-12.3,0,0-4.7.7-5.9,1.5s-.9,6.5-4.1,8.2c0,0,3.6-7.4,2.8-7.9s-5.9,2.5-8.2,5.4a19.2,19.2,0,0,1,7.8-6.3,10.6,10.6,0,0,0-6.1-.6s2.5-2.9,7.6,0c0,0,4.6-1.8,5.4-1.5s-4.5-3.6-8.3-4.2c0,0,4.6-1.3,9.7,4l5.2-.6s-5.8-5-9.1-5.8c0,0,4.9-.6,10.4,5.8l5.2.2s-4.7-4.7-8.2-6.4c0,0,4.6.4,9.6,6.5l3.4.6s-3.4-3.4-4.5-4.3-.9-1.1-.9-1.1a17.2,17.2,0,0,1,6.9,5.7S854.6,85.3,854.7,84.8Z" class="cls-1" transform="translate(0 0.9)"/><path d="M878.3,249.7s-10.5-36.7-34.2-23.5a6.4,6.4,0,0,0-5.3,5.5s1.9-.6,2.5,3.2a26.4,26.4,0,0,0,1.2,4,9.2,9.2,0,0,0,3.7,4.1h0s7.7,8.6,25.6,6.7c0,0,4.6,1.6,5.5,1.1l-4.8-5.1s-3.6,3.6-7.8,3.3c0,0,7.8-3,7.2-4.1l-2.7-2.6s-6.3,6.3-12.8,5.5c0,0,9.8-2.3,11.9-6.4l-4-3.4s-6.4,6.9-13.8,6.4c0,0,10.1-2.8,12.9-7.1l-4.4-2.8s-6.4,6.7-12.5,6.2c0,0,11.3-4.4,11.4-6.7,0,0-4.1-2.4-5.5-2.4s-4.7,4.6-8.3,4c0,0,7.3-3.7,7-4.6s-6.2-1.5-9.8-.7a19.9,19.9,0,0,1,10-.2,10.2,10.2,0,0,0-4.5-4.2s3.8-.8,6,4.6c0,0,4.8,1.4,5.3,2s-1.5-5.6-4.1-8.3c0,0,4.4,1.7,5.3,9l4.5,2.7s-1.6-7.5-3.8-10.1c0,0,4.3,2.4,4.8,10.9l4,3.3s-.8-6.6-2.6-10c0,0,3.5,3.1,3.7,11l2.4,2.5s-.7-4.8-1-6.2,0-1.5,0-1.5a16.7,16.7,0,0,1,2.1,8.7S877.9,249.9,878.3,249.7Z" class="cls-1" transform="translate(0 0.9)"/><path d="M643.9,332.2s-20.5-32.2-39.4-12.9c0,0-4.4,2-3.6,6.7,0,0,1.6-1.1,3.3,2.4a21.2,21.2,0,0,0,2.3,3.5,9.3,9.3,0,0,0,4.6,2.9h0s9.9,6,26.5-.8c0,0,4.9.2,5.6-.4l-6-3.6s-2.5,4.5-6.6,5.3c0,0,6.6-5,5.7-5.9a35.8,35.8,0,0,0-3.2-1.8s-4.3,7.8-10.8,8.9c0,0,8.7-4.9,9.6-9.5l-4.8-2.1s-4.1,8.5-11.4,10c0,0,8.9-5.5,10.4-10.4l-5-1.4s-4.3,8.1-10.3,9.4c0,0,9.6-7.4,9.1-9.7,0,0-4.7-1.1-6-.7s-3.2,5.8-6.8,6.2c0,0,6-5.6,5.5-6.4s-6.5.3-9.7,2.1a20.6,20.6,0,0,1,9.6-3.1,11.1,11.1,0,0,0-5.5-2.8s3.4-1.7,7,2.8c0,0,5,0,5.7.5s-3-5-6.3-6.9c0,0,4.7.4,7.6,7.2l5.1,1.4s-3.6-6.8-6.5-8.7c0,0,4.8,1.1,7.7,9.1l4.7,2s-2.6-6-5.3-8.9c0,0,4.2,2,6.6,9.5l3,1.8s-2-4.4-2.7-5.6-.4-1.5-.4-1.5a15.6,15.6,0,0,1,4.4,7.8S643.6,332.5,643.9,332.2Z" class="cls-1" transform="translate(0 0.9)"/><path d="M778.1,167.8s-19.4-32.8-39-14.1c0,0-4.4,1.9-3.7,6.6,0,0,1.6-1.1,3.2,2.5a18.6,18.6,0,0,0,2.2,3.5,8.2,8.2,0,0,0,4.5,3h0s9.7,6.4,26.5,0c0,0,4.9.4,5.6-.2l-5.8-3.8s-2.6,4.4-6.8,5.1c0,0,6.8-4.8,5.9-5.7l-3.2-1.9s-4.6,7.7-11,8.6c0,0,8.9-4.7,9.9-9.2l-4.7-2.2s-4.5,8.3-11.8,9.6c0,0,9.1-5.2,10.7-10l-4.9-1.6s-4.5,8-10.6,9.1c0,0,9.8-7.1,9.4-9.4,0,0-4.6-1.2-6-1s-3.4,5.7-6.9,6c0,0,6-5.4,5.6-6.1s-6.5,0-9.7,1.8a18.2,18.2,0,0,1,9.6-2.8,11.1,11.1,0,0,0-5.4-3s3.5-1.6,7,3c0,0,5,.1,5.7.6s-2.8-5-6.1-7c0,0,4.7.5,7.4,7.4l5,1.5s-3.4-6.8-6.1-8.9c0,0,4.7,1.3,7.3,9.4l4.7,2.2s-2.5-6.2-5-9c0,0,4.1,2.1,6.3,9.7l3,1.8s-1.9-4.4-2.6-5.7-.3-1.5-.3-1.5a17.2,17.2,0,0,1,4.1,7.9S777.9,168.1,778.1,167.8Z" class="cls-10" transform="translate(0 0.9)"/><path d="M655.2,236.7s1-38.1-25.5-32.7c0,0-4.7-.7-6.7,3.6,0,0,2,0,1.4,3.9a18.7,18.7,0,0,0,0,4.1,9.1,9.1,0,0,0,2.2,5h0s4.8,10.5,22.4,14.1c0,0,3.9,3,4.9,2.8l-3-6.3s-4.5,2.3-8.5.7c0,0,8.3-.4,8.1-1.7s-1.7-3.3-1.7-3.3-7.9,4.1-13.9,1.4c0,0,10,.8,13.3-2.5l-2.8-4.4s-8.2,4.6-15.1,1.9c0,0,10.5.4,14.4-2.9l-3.3-4s-8.1,4.5-13.8,2.1c0,0,12.1-.7,13-2.9,0,0-3.3-3.5-4.6-4s-5.9,3-9.1,1.4c0,0,8-1.4,8.1-2.3s-5.5-3.4-9.2-3.6a19.7,19.7,0,0,1,9.7,2.7,10.8,10.8,0,0,0-3-5.3s3.8.4,4.3,6.2c0,0,4.2,2.8,4.4,3.6s.3-5.8-1.3-9.2c0,0,3.6,2.9,2.3,10.2l3.4,3.9s.8-7.6-.5-10.8c0,0,3.3,3.6,1.3,11.9l2.8,4.3s1.1-6.5.5-10.3c0,0,2.3,4,.2,11.6l1.5,3.1s.8-4.8.9-6.2.5-1.5.5-1.5a17.2,17.2,0,0,1-.7,9S654.8,236.9,655.2,236.7Z" class="cls-10" transform="translate(0 0.9)"/><ellipse cx="671.4" cy="722.9" class="cls-1" rx="26.9" ry="4.5"/><ellipse cx="619.9" cy="763.2" class="cls-1" rx="26.9" ry="4.5"/><ellipse cx="93.1" cy="718.8" class="cls-1" rx="26.9" ry="4.5"/><ellipse cx="769.9" cy="763.2" class="cls-1" rx="26.9" ry="4.5"/><ellipse cx="833.1" cy="724" class="cls-10" rx="40.2" ry="6.8"/><path d="M849.8,712a12.1,12.1,0,0,0,3.8-5.8c.5-2.3-.5-5.1-2.7-5.9s-5.1.8-7.1,2.5-4.2,3.7-6.8,3.3a10.6,10.6,0,0,0,3.2-9.8,4,4,0,0,0-.9-2c-1.4-1.5-3.8-.8-5.5.3-5.2,3.7-6.6,10.7-6.7,17.1-.5-2.3,0-4.7-.1-7s-.6-5-2.6-6.2a7.9,7.9,0,0,0-4-1c-2.3-.1-5,.1-6.5,1.8s-1.5,5.7.2,8,4.4,3.8,6.8,5.5a14.1,14.1,0,0,1,4.8,4.6,2,2,0,0,1,.4.8h14.6A44.3,44.3,0,0,0,849.8,712Z" class="cls-10" transform="translate(0 0.9)"/><path d="M75.1,696.8s15.3-.4,20-3.7,23.6-7.3,24.7-2,23.1,26.3,5.8,26.4-40.3-2.7-44.9-5.5S75.1,696.8,75.1,696.8Z" class="cls-14" transform="translate(0 0.9)"/><path d="M125.9,715.7c-17.4.1-40.3-2.7-44.9-5.5s-5-9.8-5.4-13.4h-.5s1,12.4,5.6,15.2,27.5,5.7,44.9,5.5c5,0,6.7-1.8,6.6-4.4C131.5,714.7,129.6,715.7,125.9,715.7Z" class="cls-15" transform="translate(0 0.9)"/></svg>