<?xml version="1.0" encoding="utf-8"?>
<!-- Generator: Adobe Illustrator 22.0.1, SVG Export Plug-In . SVG Version: 6.00 Build 0)  -->
<svg version="1.1" id="_x30_3030b4a-9996-4111-83fa-29dc66776d7b"
	 xmlns="http://www.w3.org/2000/svg" xmlns:xlink="http://www.w3.org/1999/xlink" x="0px" y="0px" viewBox="0 0 1000.8 738.8"
	 style="enable-background:new 0 0 1000.8 738.8;" xml:space="preserve">
<style type="text/css">
	.st0{opacity:0.1;fill:#6C63FF;enable-background:new    ;}
	.st1{opacity:0.2;}
	.st2{fill:none;stroke:#535461;stroke-width:2;stroke-miterlimit:10;}
	.st3{fill:#6C63FF;}
	.st4{fill:url(#SVGID_1_);}
	.st5{fill:#F6F7F9;}
	.st6{fill:url(#SVGID_2_);}
	.st7{fill:#797C9C;}
	.st8{opacity:5.000000e-02;enable-background:new    ;}
	.st9{fill:none;stroke:#535461;stroke-miterlimit:10;}
	.st10{opacity:0.25;enable-background:new    ;}
	.st11{fill:url(#SVGID_3_);}
	.st12{fill:#5629B6;}
	.st13{fill:#E8EAF1;}
	.st14{fill:#FFB9B9;}
	.st15{fill:#E4E2F3;}
	.st16{fill:#4C4C78;}
	.st17{opacity:0.1;enable-background:new    ;}
	.st18{fill:#B36362;}
	.st19{fill:url(#SVGID_4_);}
	.st20{fill:#DB8B8B;}
	.st21{fill:#474463;}
	.st22{fill:#CBCDDA;}
	.st23{fill:#472727;}
</style>
<title>roganize resume</title>
<path class="st0" d="M27.7,463.9c-12,2-27,7.5-26.9,20.5c0.1,6.6,4.4,12.2,8.7,17c18.1,20.6,38.7,38.8,61.3,54.2
	c10.8,7.3,22.4,14.3,29.6,25.7s9,25.8,9.6,39.5c1.4,32.5-2.4,65-11.3,96.2c35.2,6.7,74.5,12.6,103.9-8.6
	c17.6-12.7,29.5-34,49.1-42.8c13.1-5.9,27.9-5.4,42.1-4.6c67.5,3.6,134.8,10.2,202,20c28.1,4.1,56.8,8.7,84.6,3.4
	s55.2-22.6,65.5-50.6c1.6-4.3,3-9.1,6.5-11.7c3.2-2.3,7.4-2.3,11.3-2.1l235.1,8.1c12.9,0.4,26.2,0.8,38-4.5
	c11.4-5.1,20.2-15,28.7-24.7c19.3-22.1,40.2-49.2,34.5-79.1c-4.6-24-24.9-40.8-45.1-52.5s-42.4-21.3-57.2-40.1
	c-22.5-28.6-21.7-69.5-23.1-106.5c-1.3-33.6-5.4-67-12.3-99.8c-6.1-28.9-14.6-57.8-30.5-82.2S791.4,94.6,763.9,91
	c-35.9-4.7-72.1,17.7-107.2,8.2c-29.7-8-50.1-36.4-74.8-56.1c-43.7-35-101.1-42.3-155.3-43c-57.5-0.7-116.5,5.1-167.8,32.1
	c-11.7,6.2-23.2,13.7-31.4,24.6C215,73.5,212,96,203.8,115.6C171,194.4,64.2,211.4,29.5,289.4c-12.3,27.7-12.2,59.9-3.2,89
	c9.6,31.3,36.8,48.5,47.6,75.8C62.3,461.7,41.7,461.6,27.7,463.9z"/>
<g class="st1">
	<path class="st2" d="M885.6,370.9c0,0,4.8-63.8,40.8-98.4c15.2-14.4,25.3-33.4,28.8-54.1c1.6-9.8,2.2-19.8,2-29.7"/>
	<path class="st3" d="M979.8,166.7c-2.7,7-23.1,22.6-23.1,22.6s-5-25.2-2.4-32.2c2.7-7,10.5-10.6,17.6-7.9
		C979,151.8,982.5,159.7,979.8,166.7L979.8,166.7z"/>
	<path class="st3" d="M986.2,213.6c-6.1,4.5-31.7,6.4-31.7,6.4s9.5-23.9,15.5-28.4c6.1-4.5,14.6-3.2,19,2.9
		C993.5,200.6,992.2,209.2,986.2,213.6L986.2,213.6z"/>
	<path class="st3" d="M960.1,279.8c-7.5,0.8-30.6-10.5-30.6-10.5s20.2-15.8,27.7-16.6c7.5-0.8,14.2,4.6,15,12.1
		C973,272.3,967.5,279,960.1,279.8L960.1,279.8L960.1,279.8z"/>
	<path class="st3" d="M929.1,325.5c-7.2,2-31.9-5.1-31.9-5.1s17.3-19,24.5-21.1c7.2-2,14.8,2.2,16.8,9.4S936.3,323.5,929.1,325.5z"
		/>
	<path class="st3" d="M927.2,211.3c3.2,6.8,24.8,20.8,24.8,20.8s3.1-25.5-0.1-32.3c-3.2-6.8-11.3-9.7-18.1-6.5
		C927,196.4,924,204.5,927.2,211.3z"/>
	<path class="st3" d="M891.6,265.2c5.1,5.5,29.8,12.4,29.8,12.4s-4.7-25.3-9.8-30.8c-5.1-5.5-13.7-5.9-19.2-0.8
		C886.9,251,886.5,259.6,891.6,265.2L891.6,265.2z"/>
	<path class="st3" d="M864.2,322.3c4.1,6.3,27.3,17.3,27.3,17.3s-0.4-25.7-4.4-32c-4.1-6.3-12.5-8.1-18.8-4.1
		S860.1,315.9,864.2,322.3L864.2,322.3z"/>
</g>
<linearGradient id="SVGID_1_" gradientUnits="userSpaceOnUse" x1="534.54" y1="188.4456" x2="534.54" y2="649.4456" gradientTransform="matrix(1 0 0 -1 0 737.2756)">
	<stop  offset="0" style="stop-color:#808080;stop-opacity:0.25"/>
	<stop  offset="0.54" style="stop-color:#808080;stop-opacity:0.12"/>
	<stop  offset="1" style="stop-color:#808080;stop-opacity:0.1"/>
</linearGradient>
<polygon class="st4" points="164.1,87.8 164.1,123.8 164.1,548.8 904.9,548.8 904.9,123.8 904.9,87.8 "/>
<rect x="172" y="92.7" class="st5" width="725.2" height="35.2"/>
<g class="st1">
	<rect x="172" y="92.7" class="st3" width="725.2" height="35.2"/>
</g>
<rect x="172" y="127.9" class="st5" width="725.2" height="416"/>
<circle class="st5" cx="189.4" cy="110.1" r="7.8"/>
<circle class="st5" cx="210.2" cy="110.1" r="7.8"/>
<circle class="st5" cx="231.1" cy="110.1" r="7.8"/>
<g class="st1">
	<rect x="197.2" y="179.7" class="st3" width="373" height="26.9"/>
</g>
<g class="st1">
	<rect x="665.8" y="179.7" class="st3" width="195.6" height="26.9"/>
</g>
<g class="st1">
	<rect x="269.8" y="434.4" class="st3" width="26.1" height="86.1"/>
	<rect x="320.2" y="372.7" class="st3" width="26.1" height="147.8"/>
	<rect x="370.6" y="310.9" class="st3" width="26.1" height="209.5"/>
	<rect x="421.1" y="330.9" class="st3" width="26.1" height="189.5"/>
	<rect x="471.5" y="390.1" class="st3" width="26.1" height="130.4"/>
</g>
<g class="st1">
	<rect x="665.4" y="265.7" class="st3" width="195.6" height="240.4"/>
</g>
<linearGradient id="SVGID_2_" gradientUnits="userSpaceOnUse" x1="1028.8221" y1="-78.2769" x2="1028.8221" y2="329.8867" gradientTransform="matrix(1 0 0 -1 -99.6 656.6856)">
	<stop  offset="0" style="stop-color:#808080;stop-opacity:0.25"/>
	<stop  offset="0.54" style="stop-color:#808080;stop-opacity:0.12"/>
	<stop  offset="1" style="stop-color:#808080;stop-opacity:0.1"/>
</linearGradient>
<path class="st6" d="M997.8,436.8c-1.2-6.4-3.7-12.6-3.7-19.1c-0.1-10.5,5.5-22.7-1.8-30.5c-1.7-1.8-3.9-3.1-5.2-5.2
	c-0.9-1.8-1.4-3.8-1.3-5.8c-0.1-12.3,6.6-24.7,2.6-36.4c-0.8-2.6-2.4-4.9-4.6-6.5c-2.3-1.5-5-1.8-7.9-1.8c-2.6,0-5.3,0.3-8,0.3
	c-1.5,0-3-0.2-4.5-0.6c-3.1-0.9-5.7-2.9-8.8-3.9c-1.6-0.5-3.3-0.8-5-0.7c-6.7-0.2-12.9,4.2-17.6,8.6c-2.4,2-4.9,3.8-7.6,5.5
	c0.4-0.3-9.3,6.4-5.7,6.5c2.6,0.1,5.1,1,7.2,2.5c-4.5,7-4.1,16.1,1,22.7c-1.6-1.6-3.3-3.3-5.2-5c-5.4-5.3-12.8-12.3-16.4-14.3
	c-5.8-3.1-14.1-9.9-14.1-9.9s-10.8,6-7.4,14.3c1.6,0.5,3.1,1.1,4.6,1.8c0,1.1,0.2,2.2,0.6,3.2c3.4,1.1,6.6,2.7,9.5,4.7
	c0.3,0.5,0.6,0.9,0.9,1.4c1.4,2.5,5.9,7,11.3,12.1c3.8,3.8,8.8,8.4,13.9,12.8c-1.5,3-3.1,6-3.4,9c-0.4-0.2-0.8-0.3-1.1-0.5
	c-7.4-4-24.8-3.6-24.8-3.6s-14.5-7.6-17.4-24.7c0,0-2.9-10.4-2.1-13.1h0l0.4-0.1l3.5-6.3c0.7-1.4,0.2-3-1.1-3.8
	c-0.3-0.2-0.7-0.3-1.1-0.3c-16.9-1.5-17.7,14-17.7,14h0.2l0,0.1c2.1,10,3.7,9.1,3.3,17.1l6.6,17.5c0,0,0.4,6,12.4,13.9
	s25.6,20.3,25.6,20.3s-7.2,3.8-4.5,21.1c3.3,21.2-1.7,51.3-1.7,51.3v19.5l0.9-0.2c-0.1,0.7-0.2,1.3-0.3,2.1
	c-1.5,9.8-1.7,19.8-0.6,29.6c2.5,20.7,12.4,49,12.4,49s3.7,10,4.5,17.9c0.1,1.6,0.5,3.1,1.1,4.6c1.9,4.4,2.8,9.1,2.9,13.8
	c0,11.9,2.1,23.8,6.4,34.9c4.2,10.6,5.8,16.9,6.2,20.5c-3,3.9-6.9,8.1-9.9,8.5c-5.8,0.8-17,1.6-9.5,11.1c0.3,0.3,0.5,0.6,0.9,0.9
	c-5.7,0.9-11.9,2.9-5.8,10.6c7.4,9.5,51.3,5.2,51.3,5.2s0.3-5.3,0-11.1c3.1-0.2,5-0.4,5-0.4s1.2-23.1-4.1-25.9c-1,0.1-2,0.3-2.9,0.7
	c-0.6-3.2-1-7.2-1.3-10.1l2.1-0.2v-0.2h0.1v-34.8c0,0-2.5-21.5-11.6-31c-1.2-1.2-2.2-2.5-3-4l-0.1-0.2c0.1-2.7,0.1-6.4,0-10.6
	l0.1-0.2c0.2-0.3,0.3-0.5,0.5-0.7c0.2-0.3,0.4-0.5,0.7-0.8l0.1-0.2l0,0c0,0,5-6,21.9-43.8c10.3-23.1,7.6-36,3.9-42.7
	c-0.8-3-2.4-9.7-4.4-21.2c-0.8-4.9-1.2-9.8-1.2-14.8c2.6,0.6,5.2,0.9,7.8,0.9c4.1,0.1,8.3-0.8,12-2.6c-2.7-3.9-5.5-8.6-4.2-13.1
	c1.5-5.2,7.6-7.5,11.2-11.7C999,450.4,999.1,443.2,997.8,436.8z"/>
<path class="st7" d="M893.1,347.7c0,0-10.3,5.9-7.1,14.2c0,0,10.7,3.2,15,11s37.9,36.3,37.9,36.3l24.5-12.2c0,0-8.5-11.4-35.4-19.3
	c0,0-15.9-17-21.4-20.2S893.1,347.7,893.1,347.7z"/>
<path class="st8" d="M898.1,352.7c0,0-10.3,5.9-7.1,14.2c0,0,10.7,3.2,15,11s37.9,36.3,37.9,36.3l24.5-12.2c0,0-8.5-11.4-35.4-19.3
	c0,0-15.9-17-21.4-20.2S898.1,352.7,898.1,352.7z"/>
<path class="st3" d="M15.6,643.8c0,0-57.7,34.8,48.6,88.3c0,0,23.4-43.5-2.5-78.9c-10.4-14.3-29.9-18.6-45.3-9.9L15.6,643.8z"/>
<path class="st9" d="M16.3,643.1c0,0,49.3,37.8,48,89.1"/>
<path class="st2" d="M67,732.8c0,0-18.1-61.4,3.4-106.5c9.1-18.9,11.9-40.2,7.8-60.8c-2-9.8-4.9-19.3-8.6-28.5"/>
<path class="st3" d="M83,508.4c0,7.5-13.6,29.3-13.6,29.3s-13.6-21.8-13.6-29.3c0-7.5,6.1-13.6,13.6-13.6
	C76.9,494.8,83,500.9,83,508.4L83,508.4L83,508.4z"/>
<path class="st3" d="M105.5,550.1c-4.1,6.3-27.4,17.2-27.4,17.2s0.4-25.7,4.5-32c4.1-6.3,12.5-8.1,18.8-4S109.6,543.8,105.5,550.1
	L105.5,550.1z"/>
<path class="st3" d="M104.5,621.3c-6.7,3.4-32.3,1-32.3,1s13.3-22,20.1-25.4c6.7-3.4,14.9-0.7,18.3,6
	C113.9,609.6,111.2,617.8,104.5,621.3L104.5,621.3L104.5,621.3z"/>
<path class="st3" d="M91.7,674.9c-6,4.5-31.7,6.5-31.7,6.5s9.4-23.9,15.5-28.4c6-4.5,14.6-3.2,19,2.8
	C99,661.9,97.7,670.5,91.7,674.9L91.7,674.9z"/>
<path class="st3" d="M49.6,568.8c5.4,5.2,30.5,10.7,30.5,10.7s-6.1-25-11.6-30.2c-5.4-5.2-14-5.1-19.3,0.3S44.1,563.5,49.6,568.8
	L49.6,568.8L49.6,568.8z"/>
<path class="st3" d="M35.3,631.7c6.7,3.4,32.3,1,32.3,1s-13.3-22-20.1-25.4c-6.7-3.4-14.9-0.7-18.3,6
	C25.9,620.1,28.6,628.3,35.3,631.7L35.3,631.7z"/>
<path class="st3" d="M29.9,694.8c6,4.5,31.7,6.5,31.7,6.5s-9.4-23.9-15.5-28.4c-6-4.5-14.6-3.2-19,2.8
	C22.5,681.8,23.8,690.4,29.9,694.8L29.9,694.8z"/>
<path class="st10" d="M83,508.4c0,7.5-13.6,29.3-13.6,29.3s-13.6-21.8-13.6-29.3c0-7.5,6.1-13.6,13.6-13.6
	C76.9,494.8,83,500.9,83,508.4L83,508.4L83,508.4z"/>
<path class="st10" d="M105.5,550.1c-4.1,6.3-27.4,17.2-27.4,17.2s0.4-25.7,4.5-32c4.1-6.3,12.5-8.1,18.8-4S109.6,543.8,105.5,550.1
	L105.5,550.1z"/>
<path class="st10" d="M104.5,621.3c-6.7,3.4-32.3,1-32.3,1s13.3-22,20.1-25.4c6.7-3.4,14.9-0.7,18.3,6
	C113.9,609.6,111.2,617.8,104.5,621.3L104.5,621.3L104.5,621.3z"/>
<path class="st10" d="M91.7,674.9c-6,4.5-31.7,6.5-31.7,6.5s9.4-23.9,15.5-28.4c6-4.5,14.6-3.2,19,2.8
	C99,661.9,97.7,670.5,91.7,674.9L91.7,674.9z"/>
<path class="st10" d="M49.6,568.8c5.4,5.2,30.5,10.7,30.5,10.7s-6.1-25-11.6-30.2c-5.4-5.2-14-5.1-19.3,0.3S44.1,563.5,49.6,568.8
	L49.6,568.8L49.6,568.8z"/>
<path class="st10" d="M35.3,631.7c6.7,3.4,32.3,1,32.3,1s-13.3-22-20.1-25.4c-6.7-3.4-14.9-0.7-18.3,6
	C25.9,620.1,28.6,628.3,35.3,631.7L35.3,631.7z"/>
<path class="st10" d="M29.9,694.8c6,4.5,31.7,6.5,31.7,6.5s-9.4-23.9-15.5-28.4c-6-4.5-14.6-3.2-19,2.8
	C22.5,681.8,23.8,690.4,29.9,694.8L29.9,694.8z"/>
<path class="st2" d="M108.8,734c0,0-18.1-61.3,3.4-106.5c9.1-18.9,11.9-40.2,7.8-60.8c-2-9.8-4.9-19.3-8.6-28.5"/>
<path class="st3" d="M124.8,509.6c0,7.5-13.6,29.3-13.6,29.3s-13.6-21.8-13.6-29.3c0-7.5,6.1-13.6,13.6-13.6
	C118.7,496,124.8,502.1,124.8,509.6L124.8,509.6z"/>
<path class="st3" d="M147.3,551.3c-4.1,6.3-27.4,17.2-27.4,17.2s0.4-25.7,4.5-32c4.1-6.3,12.5-8.1,18.8-4
	C149.6,536.5,151.4,545,147.3,551.3L147.3,551.3z"/>
<path class="st3" d="M146.3,622.4c-6.7,3.4-32.3,1-32.3,1s13.3-22,20.1-25.4c6.7-3.4,14.9-0.7,18.3,6
	C155.8,610.8,153.1,619,146.3,622.4z"/>
<path class="st3" d="M133.5,676.1c-6,4.5-31.7,6.5-31.7,6.5s9.4-23.9,15.5-28.4c6-4.5,14.6-3.2,19,2.8
	C140.8,663.1,139.5,671.6,133.5,676.1L133.5,676.1z"/>
<path class="st3" d="M91.4,569.9c5.4,5.2,30.5,10.7,30.5,10.7s-6.1-25-11.6-30.2c-5.4-5.2-14-5.1-19.3,0.3S86,564.7,91.4,569.9
	L91.4,569.9L91.4,569.9z"/>
<path class="st3" d="M77.1,632.9c6.7,3.4,32.3,1,32.3,1s-13.3-22-20.1-25.4c-6.7-3.4-14.9-0.7-18.3,6
	C67.7,621.3,70.4,629.5,77.1,632.9L77.1,632.9L77.1,632.9z"/>
<path class="st3" d="M71.7,696c6,4.5,31.7,6.5,31.7,6.5s-9.4-23.9-15.5-28.4c-6-4.5-14.6-3.2-19,2.8C64.3,683,65.6,691.5,71.7,696
	L71.7,696z"/>
<rect x="24.5" y="731.8" class="st3" width="953" height="7"/>
<linearGradient id="SVGID_3_" gradientUnits="userSpaceOnUse" x1="799.215" y1="148.2456" x2="799.215" y2="396.4456" gradientTransform="matrix(1 0 0 -1 0 737.2756)">
	<stop  offset="0" style="stop-color:#808080;stop-opacity:0.25"/>
	<stop  offset="0.54" style="stop-color:#808080;stop-opacity:0.12"/>
	<stop  offset="1" style="stop-color:#808080;stop-opacity:0.1"/>
</linearGradient>
<rect x="698.2" y="340.8" class="st11" width="202" height="248.2"/>
<rect x="701.4" y="344.7" class="st12" width="195.6" height="240.4"/>
<rect x="714.5" y="365.8" class="st13" width="40" height="40"/>
<rect x="734.5" y="429.8" class="st13" width="142" height="8"/>
<rect x="734.5" y="446.8" class="st13" width="142" height="8"/>
<rect x="734.5" y="463.8" class="st13" width="142" height="8"/>
<rect x="734.5" y="480.8" class="st13" width="142" height="8"/>
<rect x="734.5" y="497.8" class="st13" width="142" height="8"/>
<rect x="734.5" y="514.8" class="st13" width="142" height="8"/>
<rect x="734.5" y="531.8" class="st13" width="142" height="8"/>
<path class="st14" d="M957.1,684.3c0,0,1.2,17.4,3.2,19.3s-17.8,3.2-17.8,3.2l2.8-22.5H957.1z"/>
<path class="st8" d="M957.1,684.3c0,0,1.2,17.4,3.2,19.3s-17.8,3.2-17.8,3.2l2.8-22.5H957.1z"/>
<path class="st15" d="M961.4,697.7c0,0-2.8,0-12.6,5.1c0,0-6.7-1.2-9.5-10.7c0,0-8.3,14.2-13.8,15s-16.2,1.6-9.1,11
	s48.9,5.1,48.9,5.1S966.5,700.5,961.4,697.7z"/>
<path class="st8" d="M961.4,697.7c0,0-2.8,0-12.6,5.1c0,0-6.7-1.2-9.5-10.7c0,0-8.3,14.2-13.8,15s-16.2,1.6-9.1,11
	s48.9,5.1,48.9,5.1S966.5,700.5,961.4,697.7z"/>
<path class="st14" d="M955.5,711.1l-2.8,7.5l-18.2-5.1l1-7.4l0.2-1.8l0.7-5c0,0,15.4-4,15.4-2c0.2,1.6,0.5,3.2,1,4.8
	c0.6,2.4,1.4,5.2,2,7C955.2,710.4,955.5,711.1,955.5,711.1z"/>
<path class="st16" d="M945.6,608.2c-2,3.4-2,7.6,0,11c0.8,1.4,1.7,2.7,2.8,3.9c8.7,9.5,11.1,30.8,11.1,30.8v34.3l-5.9,0.5l-9.5,0.7
	L929.9,631c0,0-8.3-42.6-4.3-50.1c3.9-7.5,7.5-54.5,7.5-54.5l3.3-3.4l7.8-8h22.5c1.8,1.3,3.3,3,4.4,4.9c3.8,6.2,7.2,19.2-3.2,43.2
	c-16.2,37.5-20.9,43.4-20.9,43.4C946.3,607.1,945.9,607.6,945.6,608.2z"/>
<path class="st8" d="M945.7,608c-2,3.4-2,7.6,0,11c0.8,1.4,1.7,2.7,2.8,3.9c8.7,9.5,11.1,30.8,11.1,30.8v34.3l-5.9,0.5l-9.5,0.7
	L930,630.9c0,0-8.3-42.6-4.3-50.1c4-7.5,7.5-54.5,7.5-54.5l3.3-3.4l7.8-8h22.5c1.8,1.3,3.3,3,4.4,4.9c3.8,6.2,7.2,19.2-3.2,43.2
	c-16.2,37.5-20.9,43.4-20.9,43.4C946.5,606.9,946,607.4,945.7,608z"/>
<path class="st17" d="M952.9,702.1l-17.1,2.1l0.7-5c0,0,15.4-4,15.4-2C952.1,698.9,952.5,700.5,952.9,702.1z"/>
<path class="st16" d="M944.4,557.6c0,0,1,31.1,1.1,50.6c0,4.4,0,8.2,0,11c0,1.5-0.1,2.9-0.3,4.3c-1.2,3.5,1.2,11.4,1.2,11.4
	c5.9,15.6,8.3,32.3,7.1,48.9v17.4l-18.9,2.4c0,0,3.2-2.4-5.5-25.3c-4.1-11.1-6.1-22.8-6.1-34.6c0-4.7-1-9.4-2.8-13.7
	c-0.5-1.5-0.9-3-1-4.6c-0.8-7.9-4.3-17.8-4.3-17.8s-9.5-28-11.8-48.5c-1.1-9.8-0.9-19.6,0.5-29.4c0.3-2.5,0.8-4.9,1.4-7.3
	c0,0,38.6-24.3,53.1-7.5c1.4,1.6,2.5,3.5,3.3,5.5c0.8,2,1.4,4,1.9,6.2C967.8,548.9,944.4,557.6,944.4,557.6z"/>
<circle class="st14" cx="943.2" cy="364.6" r="20.1"/>
<path class="st14" d="M932.2,377.3c0,0,8.3,23.3,0,35.5s26.4,8.3,26.4,8.3l13.4-16.2c0,0-15.8,0-16.6-27.6S932.2,377.3,932.2,377.3z
	"/>
<path class="st17" d="M972,524.5c-2.9,1-5.8,1.7-8.8,2.2c-4.9,0.8-10.7,0.8-14.1-2.2c-2-1.8-7-2-12.9-1.4
	c-12.5,1.2-29.5,5.9-32.7,6.8c0.3-2.5,0.8-4.9,1.4-7.3c0,0,38.6-24.3,53.1-7.5h8.4c1.8,1.3,3.3,3,4.4,4.9
	C971.6,523,972,524.5,972,524.5z"/>
<path class="st17" d="M955.5,711.1l-2.8,7.5l-18.2-5.1l1-7.4c3.1,6.9,8.4,7.8,8.4,7.8c3.5-1.9,7.1-3.5,10.9-4.8
	C955.2,710.4,955.5,711.1,955.5,711.1z"/>
<path class="st15" d="M956.7,709.2c0,0-2.8,0-12.6,5.1c0,0-6.7-1.2-9.5-10.7c0,0-8.3,14.2-13.8,15s-16.2,1.6-9.1,11
	s48.9,5.1,48.9,5.1S961.8,711.9,956.7,709.2z"/>
<path class="st14" d="M863,368.5c0,0,0.8-15.4,16.9-13.9c1.5,0.2,2.6,1.5,2.5,3c0,0.3-0.1,0.7-0.3,1l-3.3,6.2L863,368.5z"/>
<path class="st7" d="M956.3,409.6c0,0-19.3-3.2-24.5-7.1c0,0-3.9,7.5-11,3.5s-23.7-3.5-23.7-3.5c-8.8-5.4-14.8-14.3-16.6-24.5
	c0,0-2.8-10.3-2-13c0,0-10.3-10.7-15.4,3.5c2,9.9,3.5,9.1,3.2,17l6.3,17.4c0,0,0.4,5.9,11.8,13.8s24.5,20.1,24.5,20.1
	s-6.9,3.8-4.3,20.9c3.1,21-1.6,50.9-1.6,50.9v19.3c0,0,39.5-11.4,46.2-5.5s22.9,0,22.9,0s-2-6.7-4.7-22.9s0.4-32,0.4-32
	s10.3-27.2,15-38.3s-3.6-26-11.8-31.6s-11.4-2.2-11.4-2.2S974,406.1,956.3,409.6z"/>
<path class="st8" d="M905.6,466.6c0,0,3.2-0.8,18.9-3.1s43.4,3.2,43.4,3.2"/>
<path class="st17" d="M919.2,351.6c9,0.2,15.7,11.3,11.7,19.3c-1.8,3.5-5.1,6.6-4.8,10.5c0.2,1.8,1.1,3.4,1.5,5.1
	c1.9,8-7.7,15.5-5.5,23.4c0.7,2.1,1.9,4.1,3.4,5.7l16.6,20.9c1,1.2,1.8,2.4,2.5,3.8c0.6,2,0.9,4.1,0.7,6.2
	c-0.1,10,0.6,20.7,6.5,28.8c7.1,9.7,21.5,13.2,32.3,7.8c-2.6-3.9-5.3-8.5-4-13c1.5-5.1,7.3-7.5,10.7-11.6c4.1-5,4.2-12.1,3-18.4
	s-3.5-12.5-3.5-18.9c-0.1-10.4,5.3-22.5-1.8-30.2c-1.6-1.8-3.8-3.1-4.9-5.1c-0.9-1.8-1.3-3.8-1.2-5.8c-0.1-12.2,6.3-24.5,2.5-36.1
	c-0.7-2.6-2.3-4.8-4.4-6.4c-5.5-3.7-13.1-0.1-19.4-2c-3-0.9-5.5-2.9-8.4-3.9c-7.9-2.7-15.2,2.7-20.7,7.8c-2.3,2-4.7,3.8-7.2,5.4
	C925,344.9,915.7,351.5,919.2,351.6z"/>
<path class="st18" d="M920.2,351.6c9,0.2,15.7,11.3,11.7,19.3c-1.8,3.5-5.1,6.6-4.8,10.5c0.2,1.8,1.1,3.4,1.5,5.1
	c1.9,8-7.7,15.5-5.5,23.4c0.7,2.1,1.9,4.1,3.4,5.7l16.6,20.9c1,1.2,1.8,2.4,2.5,3.8c0.6,2,0.9,4.1,0.7,6.2
	c-0.1,10,0.6,20.7,6.5,28.8c7.1,9.7,21.5,13.2,32.3,7.8c-2.6-3.9-5.3-8.5-4-13c1.5-5.1,7.3-7.5,10.7-11.6c4.1-5,4.2-12.1,3-18.4
	s-3.5-12.5-3.5-18.9c-0.1-10.4,5.3-22.5-1.8-30.2c-1.6-1.8-3.8-3.1-4.9-5.1c-0.9-1.8-1.3-3.8-1.2-5.8c-0.1-12.2,6.3-24.5,2.5-36.1
	c-0.7-2.6-2.3-4.8-4.4-6.4c-5.5-3.7-13.1-0.1-19.4-2c-3-0.9-5.5-2.9-8.4-3.9c-7.9-2.7-15.2,2.7-20.7,7.8c-2.3,2-4.7,3.8-7.2,5.4
	C926,344.9,916.7,351.5,920.2,351.6z"/>
<linearGradient id="SVGID_4_" gradientUnits="userSpaceOnUse" x1="2225.3577" y1="-80.271" x2="2225.3577" y2="314.118" gradientTransform="matrix(1 0 0 -1 -1655.6 656.6856)">
	<stop  offset="0" style="stop-color:#808080;stop-opacity:0.25"/>
	<stop  offset="0.54" style="stop-color:#808080;stop-opacity:0.12"/>
	<stop  offset="1" style="stop-color:#808080;stop-opacity:0.1"/>
</linearGradient>
<path class="st19" d="M618.1,542c-2.3-2.1-4.3-4.6-5.9-7.2c-3.5-5.4-9.2-8.4-13.2-9.8v-1.8h0.2l-0.1-1.6h0.1l-0.3-4.3l0,0l0,0
	l-1.4-21.7c0,0-5.1-14.5,3.9-27.8s0.6-26.1-7.9-31c0,0-4-21.1-0.6-26.1c-4.6-2.7-9.3-5.1-14.2-7.2c-0.1-0.3-0.1-0.5-0.2-0.8
	c-0.1-2-0.2-3.9-0.3-5.9c0.1-1,0.3-2,0.6-3c0.1-0.4,0.2-0.8,0.4-1.3c8.3-3.2,13.8-11.2,13.8-20.1c0-2.5-0.5-5.1-1.3-7.4
	c0.4-0.7,0.8-1.5,1-2.4c0.4-2.4,0-4.9-1.3-6.9c-2.2-5-7.9-9.6-12-11.2c-5.9-2.4-14.7-1.8-20.8-1.1c-3.4,0.4-7.3,1.6-8.6,4.7
	c-0.3,1.2-0.6,2.4-0.8,3.6c-1.3,4.8-6.8,7.1-10.3,10.8c-3,3.3-4.4,7.7-5.3,12c-2.8,12.4-3.5,25.1-2,37.7c0.3,2.9,0.8,5.8,1.3,8.7
	c-2.1,2.9-3.9,8-3.1,17l-6.8,32.2l-2.8,18.8c-0.8,5.3,1.1,10.7,5.1,14.4c4.3,4.2,9.6,11.4,12.8,16.1c-1.4,4.1-2.1,8.4-2.1,12.8
	c0.1,2,0.2,3.9,0.3,5.7c0.3,3.8,1,7.6,2.2,11.3c0.8,7.7,2.4,17.6,5.4,24l1.1,33.8c0,0-1.7,31-5.1,37.2s7.3,57.7,7.3,57.7v7.2
	l-1.8,5.3l-0.5-0.3c-8.5,10.5,0,14.4,0,14.4s2.3,0.1,6,0.2c-0.6,3,0.8,6.1,3.6,7.5c0,0,48,2.2,56.5,0s6.2-10,1.7-9.4
	c-2.3,0.1-4.6-0.2-6.8-0.9c2.6-3.1,0.5-7.3-2.8-6.9c-4.5,0.5-14.7-3.5-14.7-3.5v0.1c-0.3-0.1-0.7-0.2-1-0.3
	c-3.8-0.9-7.5-1.9-11.2-3.2c-2.2-4.7-7.2-17.2-3.6-27c1.6-4.4,2.2-10.3,2.2-15.9c0.1-17.1,2.6-34.2,7.4-50.6l6.8-23.3
	c0,0,9.6-28.3,10.2-36l-0.1-11.3c7.9,5.1,14.2,3.6,18.3,1.2c2.1-1.2,2.8-3.8,1.6-5.9C618.8,542.7,618.4,542.3,618.1,542z
	 M542.7,483.1c0.2-0.8,0.3-1.7,0.5-2.6c1.3,0,2.7,0,4,0c1.7,3.4,2.3,7.2,2,10.9C546.2,490.4,541.6,488,542.7,483.1z"/>
<path class="st20" d="M548.1,706.3l-2.2,6.5l7.1,7.1l23.4,5.4l16.8-1.6l-1.1-6l0,0c-0.7-2.6-2.7-4.6-5.3-5.3
	c-6.9-1.6-20.1-5.3-22.9-10.5L548.1,706.3z"/>
<path class="st17" d="M548.1,706.3l-2.2,6.5l7.1,7.1l23.4,5.4l16.8-1.6l-1.1-6l0,0c-0.7-2.6-2.7-4.6-5.3-5.3
	c-6.9-1.6-20.1-5.3-22.9-10.5L548.1,706.3z"/>
<path class="st21" d="M587.8,722l-3.3-4.3l3.3-5c0,0,9.8,4,14.1,3.4s6.5,7.1-1.6,9.2s-54.3,0-54.3,0s-8.2-3.8,0-14.1l7.1,5.4
	c0,0,12,6.5,17.9,5.4L587.8,722z"/>
<path class="st20" d="M602.4,731.3l-16.8,1.6l-23.3-5.5l-7.1-7l0.6-1.7l0.8-2.4l0.8-2.4l15.8-4.3c0.8,1.3,1.9,2.4,3.2,3.2
	c5.1,3.5,14.3,6,19.7,7.3c0.2,0.1,0.5,0.1,0.7,0.2c2.3,0.8,4.1,2.7,4.7,5.1L602.4,731.3z"/>
<path class="st17" d="M602.4,731.3l-16.8,1.6l-23.3-5.5l-7.1-7l0.6-1.7l6.5,5c0,0,12,6.5,17.9,5.4H597l-3.3-4.3l2.9-4.5
	c2.3,0.8,4.1,2.7,4.7,5.1L602.4,731.3z"/>
<path class="st21" d="M597,729.6l-3.3-4.3l3.3-5c0,0,9.8,4,14.1,3.4s6.5,7.1-1.6,9.2s-54.3,0-54.3,0s-8.2-3.8,0-14.1l7.1,5.4
	c0,0,12,6.5,17.9,5.4L597,729.6z"/>
<path class="st20" d="M583.4,414.5c0,0-26.1,2.7-22.3-8.1c1.1-3.1,1.3-6.4,0.8-9.6c-0.7-4-2.3-7.8-4.6-11l24.5,3.8
	c-1.5,2.4-2.6,5.1-3.3,7.9C575.6,408.9,583.4,414.5,583.4,414.5z"/>
<path class="st21" d="M538.9,538.4c0,0,0.5,23.4,6,34.8l1.1,33.1c0,0-1.6,30.4-4.9,36.4s7.1,56.5,7.1,56.5v8.7
	c0,0,17.4,6.5,22.3-1.1l-4.9-64.7l2.2-89.6L538.9,538.4z"/>
<path class="st17" d="M538.9,538.4c0,0,0.5,23.4,6,34.8l1.1,33.1c0,0-1.6,30.4-4.9,36.4s7.1,56.5,7.1,56.5v8.7
	c0,0,17.4,6.5,22.3-1.1l-4.9-64.7l2.2-89.6L538.9,538.4z"/>
<path class="st22" d="M528,463.4l-3.3,8.7l-2.7,18.5c-0.7,5.2,1.1,10.5,4.9,14.1c6.5,6.5,15.2,20.1,15.2,20.1l10.3-31
	c0,0-10.3-1.6-8.7-8.7s1.1-20.1,1.1-20.1L528,463.4z"/>
<path class="st8" d="M528,462.4l-3.3,8.7l-2.7,18.5c-0.7,5.2,1.1,10.5,4.9,14.1c6.5,6.5,15.2,20.1,15.2,20.1l10.3-31
	c0,0-10.3-1.6-8.7-8.7s1.1-20.1,1.1-20.1L528,462.4z"/>
<path class="st17" d="M576.3,712.7c-7,11-17.8,4.8-19.7,3.5l0.8-2.4l15.8-4.3C573.9,710.8,575,711.9,576.3,712.7z"/>
<path class="st21" d="M598.1,559.6c-0.5,7.6-9.8,35.3-9.8,35.3l-6.5,22.8c-4.7,16.1-7.1,32.8-7.2,49.6c0,5.6-0.5,11.3-2.1,15.6
	c-4.3,12,4.3,28.2,4.3,28.2c-7.6,13.6-20.6,4.3-20.6,4.3v-8.7c0,0-10.3-47.3-7.6-56.5s3.8-34.2,3.8-34.2V571
	c-8.7-8.7-14-20.2-14.9-32.4c-0.1-1.8-0.2-3.7-0.3-5.6c-0.4-12.3,7.9-26.6,11.2-31.8c0.8-1.2,1.3-1.9,1.3-1.9l48,19h0.1v1.9v4.1
	L598.1,559.6z"/>
<path class="st17" d="M581.8,389.5c-1.5,2.4-2.6,5.1-3.3,7.9c-5.4,2-11.3,1.8-16.5-0.6c-0.7-4-2.3-7.8-4.6-11L581.8,389.5z"/>
<circle class="st20" cx="570.9" cy="376.5" r="21.2"/>
<path class="st17" d="M598.1,524.3h-0.2c-22.8,4.7-51.4-19.1-51.4-19.1c0.8-1.3,1.4-2.6,2-4c0.8-1.2,1.3-1.9,1.3-1.9l48,19l0.1,1.9
	L598.1,524.3z"/>
<path class="st22" d="M592.1,414c0,0-30.4-18.5-40.2-10.9l-13.6,17.4c0,0-8.7,2.7-7.1,20.1l-6.5,31.5l19.6,4.9
	c0,0,11.4,10.9,2.2,26.6c0,0,28.8,23.9,51.6,19l-1.7-25.5c0,0-4.9-14.1,3.8-27.2s0.5-25.5-7.6-30.4
	C592.7,439.5,588.8,418.9,592.1,414z"/>
<path class="st20" d="M593.7,524.8c0,0,11.4,2.2,16.8,10.9c1.6,2.6,3.5,5,5.7,7.1c1.8,1.6,1.9,4.3,0.3,6.1c-0.3,0.3-0.6,0.6-1,0.8
	c-4.3,2.6-11.3,4.2-20.2-3.1C580.2,534.1,593.7,524.8,593.7,524.8z"/>
<path class="st17" d="M576.9,424.3c0,0-10.9-1.1-13.6,27.2s-7.1,34.8-7.1,34.8s-2.7,14.7,3.8,23.4s19,27.2,19,27.2
	s13.6,3.8,16.3-9.8l-16.8-31.5c0,0-2.7-10.9,3.8-18.5S593.7,418.9,576.9,424.3z"/>
<path class="st22" d="M578,422.7c0,0-10.9-1.1-13.6,27.2s-7.1,34.8-7.1,34.8s-2.7,14.7,3.8,23.4s19,27.2,19,27.2s13.6,3.8,16.3-9.8
	l-16.8-31.5c0,0-2.7-10.9,3.8-18.4S594.8,417.2,578,422.7z"/>
<path class="st17" d="M586.9,443.1c0,0,1.1,16.8-3.8,26.1s-4.9,21.2,0,27.7"/>
<path class="st17" d="M589.7,422.4c0,0-4.3-4.4-16.8-4.9s-17.9-4.4-17.9-4.4"/>
<path class="st17" d="M559.4,349.1c-3.3,0.4-7.1,1.5-8.3,4.6c-0.3,1.2-0.6,2.4-0.8,3.6c-1.2,4.8-6.6,7-9.9,10.6
	c-2.9,3.2-4.2,7.5-5.1,11.8c-2.7,12.1-3.4,24.6-1.9,36.9c1.1,9,3.2,17.9,3.8,26.9s-0.5,18.6-5.5,26.2c-2.1,3.3-4.9,6.1-6.4,9.7
	c3.1,2.5,7.4,2.9,11.4,3c4.7,0.2,9.3,0.2,14,0c2.5-0.1,5-0.2,7.1-1.5c1.6-1,2.9-2.4,3.7-4c2.7-4.5,3.3-10,3.2-15.2s-1-10.5-1-15.8
	c0-2.9,0.2-5.9,1.8-8.3c1.2-1.7,3-2.8,4.5-4.2c5.8-5.1,7.8-13.4,8-21.2s-1.1-15.5-0.4-23.3c0.3-3,1.4-6.7,4.4-7.3
	c1,0,1.9-0.2,2.8-0.4c2.4-0.9,2.2-4.3,2.8-6.8c0.8-2.8,3.1-4.9,3.8-7.7c1.6-6.6-6.8-14.4-12.3-16.7
	C573.8,347.8,565.3,348.4,559.4,349.1z"/>
<path class="st23" d="M558.9,348c-3.3,0.4-7.1,1.5-8.3,4.6c-0.3,1.2-0.6,2.4-0.8,3.6c-1.2,4.8-6.6,7-9.9,10.6
	c-2.9,3.2-4.2,7.5-5.1,11.8c-2.7,12.1-3.4,24.6-1.9,36.9c1.1,9,3.2,17.9,3.8,26.9s-0.5,18.6-5.5,26.2c-2.1,3.3-4.9,6.1-6.4,9.7
	c3.1,2.5,7.4,2.9,11.4,3c4.7,0.2,9.3,0.2,14,0c2.5-0.1,5-0.2,7.1-1.5c1.6-1,2.9-2.4,3.7-4c2.7-4.5,3.3-10,3.2-15.2s-1-10.5-1-15.8
	c0-2.9,0.2-5.9,1.8-8.3c1.2-1.7,3-2.8,4.5-4.2c5.8-5.1,7.8-13.4,8-21.2s-1.1-15.5-0.4-23.3c0.3-3,1.4-6.7,4.4-7.3
	c1,0,1.9-0.2,2.8-0.4c2.4-0.9,2.2-4.3,2.8-6.8c0.8-2.8,3.1-4.9,3.8-7.7c1.6-6.6-6.8-14.4-12.3-16.7
	C573.3,346.8,564.8,347.3,558.9,348z"/>
</svg>
