<svg width="80" height="80" viewBox="0 0 80 80" fill="none" xmlns="http://www.w3.org/2000/svg">
<g clip-path="url(#clip0)">
<path d="M26.5778 0.0609829C15.9434 0.753952 5.60621 9.61208 9.14168 21.1661C11.9956 30.4929 22.3764 34.874 30.184 39.2405C37.6728 43.4288 45.5903 48.6513 47.6898 57.5518C49.1347 63.6766 47.3642 70.8199 51.1292 75.8623C57.7434 84.7207 70.5164 77.9926 71.4907 68.4782C72.2995 60.581 66.5673 53.6812 61.2051 47.8274C56.0071 42.1529 50.1954 36.6752 45.5814 30.5082C41.3087 24.7972 39.0753 17.698 44.7409 12.0413C46.0136 10.7707 47.5296 9.46239 47.0646 7.39536C45.5381 0.615046 31.7807 -0.277923 26.5778 0.0609829Z" fill="url(#paint0_linear)"/>
<g opacity="0.1">
<g opacity="0.1">
<path opacity="0.1" d="M9.99601 41.5297H60.9584C66.8168 41.5297 71.5662 36.7805 71.5662 30.9219C71.5662 25.0635 66.8169 20.3141 60.9584 20.3141H19.0412C13.1827 20.3141 8.43335 25.0633 8.43335 30.9219V39.9672C8.43351 40.8302 9.13304 41.5297 9.99601 41.5297Z" fill="#4F33AF"/>
</g>
</g>
<g opacity="0.1">
<g opacity="0.1">
<path opacity="0.1" d="M70.0035 66.6526H19.0412C13.1827 66.6526 8.43335 61.9034 8.43335 56.0448C8.43335 50.1864 13.1826 45.437 19.0412 45.437H60.9582C66.8166 45.437 71.566 50.1862 71.566 56.0448V65.0901C71.566 65.9531 70.8665 66.6526 70.0035 66.6526Z" fill="#4F33AF"/>
</g>
</g>
<path d="M9.99601 37.7797H60.9584C66.8168 37.7797 71.5662 33.0305 71.5662 27.1719C71.5662 21.3135 66.8169 16.5641 60.9584 16.5641H19.0412C13.1827 16.5641 8.43335 21.3133 8.43335 27.1719V36.2172C8.43351 37.0802 9.13304 37.7797 9.99601 37.7797Z" fill="white"/>
<path d="M67.99 28.314C68.6205 24.4244 65.9786 20.7601 62.089 20.1296C58.1994 19.4991 54.5351 22.1411 53.9046 26.0307C53.2741 29.9202 55.9161 33.5845 59.8056 34.215C63.6952 34.8456 67.3595 32.2036 67.99 28.314Z" fill="#4F33AF"/>
<path d="M67.99 28.314C68.6205 24.4244 65.9786 20.7601 62.089 20.1296C58.1994 19.4991 54.5351 22.1411 53.9046 26.0307C53.2741 29.9202 55.9161 33.5845 59.8056 34.215C63.6952 34.8456 67.3595 32.2036 67.99 28.314Z" fill="white" fill-opacity="0.4"/>
<path d="M63.5568 26.2646C63.5568 24.8332 62.3923 23.6688 60.961 23.6688C59.5296 23.6688 58.3652 24.8334 58.3652 26.2646C58.3652 26.9705 58.6493 27.6107 59.108 28.0791C58.6493 28.5476 58.3652 29.1877 58.3652 29.8937C58.3652 30.3251 58.7151 30.6749 59.1465 30.6749C59.5779 30.6749 59.9277 30.3251 59.9277 29.8937C59.9277 29.324 60.3913 28.8604 60.961 28.8604C61.5309 28.8604 61.9943 29.324 61.9943 29.8937C61.9943 30.3251 62.3441 30.6749 62.7755 30.6749C63.207 30.6749 63.5568 30.3251 63.5568 29.8937C63.5568 29.1877 63.2727 28.5476 62.8138 28.0791C63.2727 27.6107 63.5568 26.9705 63.5568 26.2646ZM60.961 25.2312C61.5309 25.2312 61.9943 25.6948 61.9943 26.2644C61.9943 26.8341 61.5307 27.2977 60.961 27.2977C60.3913 27.2977 59.9277 26.8341 59.9277 26.2644C59.9277 25.6948 60.3912 25.2312 60.961 25.2312Z" fill="#4F33AF"/>
<path d="M30.9749 23.5804H49.9623C50.3939 23.5804 50.7436 23.2306 50.7436 22.7992C50.7436 22.3678 50.3939 22.0179 49.9623 22.0179H30.9749C30.5433 22.0179 30.1936 22.3678 30.1936 22.7992C30.1936 23.2306 30.5434 23.5804 30.9749 23.5804Z" fill="#4F33AF"/>
<path d="M50.7436 25.714C50.7436 26.1452 50.3936 26.4952 49.9624 26.4952H16.9124C16.4811 26.4952 16.1311 26.1452 16.1311 25.714C16.1311 25.2827 16.4811 24.9327 16.9124 24.9327H49.9624C50.3936 24.9327 50.7436 25.2827 50.7436 25.714Z" fill="#4F33AF"/>
<path d="M25.3278 24.9327L25.2653 24.9952C24.7497 25.5109 23.9747 25.4046 23.5637 24.9327H25.3278Z" fill="#DCFDEE"/>
<path d="M16.9126 29.4108H49.9624C50.394 29.4108 50.7437 29.0609 50.7437 28.6295C50.7437 28.1981 50.394 27.8483 49.9624 27.8483H16.9126C16.481 27.8483 16.1313 28.1981 16.1313 28.6295C16.1313 29.0609 16.481 29.4108 16.9126 29.4108Z" fill="#4F33AF"/>
<path d="M16.9126 32.3258H49.9624C50.394 32.3258 50.7437 31.976 50.7437 31.5446C50.7437 31.1131 50.394 30.7633 49.9624 30.7633H16.9126C16.481 30.7633 16.1313 31.1131 16.1313 31.5446C16.1313 31.9761 16.481 32.3258 16.9126 32.3258Z" fill="#4F33AF"/>
<path d="M70.0035 62.9027H19.0412C13.1827 62.9027 8.43335 58.1535 8.43335 52.2949C8.43335 46.4365 13.1826 41.6873 19.0412 41.6873H60.9582C66.8166 41.6873 71.566 46.4365 71.566 52.2949V61.3402C71.566 62.2032 70.8665 62.9027 70.0035 62.9027Z" fill="white"/>
<path d="M19.0385 59.4304C22.9794 59.4304 26.174 56.2357 26.174 52.2949C26.174 48.3541 22.9794 45.1594 19.0385 45.1594C15.0977 45.1594 11.9031 48.3541 11.9031 52.2949C11.9031 56.2357 15.0977 59.4304 19.0385 59.4304Z" fill="#4F33AF"/>
<path d="M19.0385 59.4304C22.9794 59.4304 26.174 56.2357 26.174 52.2949C26.174 48.3541 22.9794 45.1594 19.0385 45.1594C15.0977 45.1594 11.9031 48.3541 11.9031 52.2949C11.9031 56.2357 15.0977 59.4304 19.0385 59.4304Z" fill="white" fill-opacity="0.4"/>
<path d="M17.1858 53.2022C16.7271 53.6706 16.4429 54.3108 16.4429 55.0167C16.4429 55.4481 16.7927 55.798 17.2241 55.798C17.6555 55.798 18.0054 55.4481 18.0054 55.0167C18.0054 54.4469 18.469 53.9834 19.0387 53.9834C19.6083 53.9834 20.0719 54.447 20.0719 55.0167C20.0719 55.4481 20.4218 55.798 20.8532 55.798C21.2846 55.798 21.6344 55.4481 21.6344 55.0167C21.6344 54.3108 21.3504 53.6706 20.8915 53.2022C21.3502 52.7337 21.6344 52.0936 21.6344 51.3877C21.6344 49.9562 20.4699 48.7919 19.0387 48.7919C17.6072 48.7919 16.4429 49.9564 16.4429 51.3877C16.4429 52.0936 16.7269 52.7337 17.1858 53.2022ZM20.0721 51.3877C20.0721 51.9573 19.6085 52.4209 19.0388 52.4209C18.4691 52.4209 18.0055 51.9573 18.0055 51.3877C18.0055 50.8178 18.4691 50.3544 19.0388 50.3544C19.6085 50.3544 20.0721 50.8178 20.0721 51.3877Z" fill="#4F33AF"/>
<path d="M49.0246 48.7035H30.0371C29.6055 48.7035 29.2559 48.3536 29.2559 47.9222C29.2559 47.4908 29.6055 47.141 30.0371 47.141H49.0246C49.4562 47.141 49.8058 47.4908 49.8058 47.9222C49.8058 48.3536 49.456 48.7035 49.0246 48.7035Z" fill="#4F33AF"/>
<path d="M63.087 51.6187H30.0371C29.6055 51.6187 29.2559 51.2688 29.2559 50.8374C29.2559 50.406 29.6055 50.0562 30.0371 50.0562H63.087C63.5185 50.0562 63.8682 50.406 63.8682 50.8374C63.8682 51.2688 63.5185 51.6187 63.087 51.6187Z" fill="#4F33AF"/>
<path d="M63.087 54.5338H30.0371C29.6055 54.5338 29.2559 54.184 29.2559 53.7526C29.2559 53.3212 29.6055 52.9713 30.0371 52.9713H63.087C63.5185 52.9713 63.8682 53.3212 63.8682 53.7526C63.8682 54.184 63.5185 54.5338 63.087 54.5338Z" fill="#4F33AF"/>
<path d="M63.087 57.4489H30.0371C29.6055 57.4489 29.2559 57.099 29.2559 56.6676C29.2559 56.2362 29.6055 55.8864 30.0371 55.8864H63.087C63.5185 55.8864 63.8682 56.2362 63.8682 56.6676C63.8682 57.0992 63.5185 57.4489 63.087 57.4489Z" fill="#4F33AF"/>
<path d="M42.8042 74.5439C42.3726 74.5439 42.0229 74.1941 42.0229 73.7627C42.0229 73.2457 41.6025 72.8252 41.0854 72.8252C40.6539 72.8252 40.3042 72.4754 40.3042 72.0439C40.3042 71.6125 40.6539 71.2627 41.0854 71.2627C41.6025 71.2627 42.0229 70.8422 42.0229 70.3252C42.0229 69.8938 42.3726 69.5439 42.8042 69.5439C43.2358 69.5439 43.5854 69.8938 43.5854 70.3252C43.5854 70.8422 44.0059 71.2627 44.5229 71.2627C44.9545 71.2627 45.3042 71.6125 45.3042 72.0439C45.3042 72.4754 44.9545 72.8252 44.5229 72.8252C44.0059 72.8252 43.5854 73.2457 43.5854 73.7627C43.5854 74.1941 43.2358 74.5439 42.8042 74.5439Z" fill="#4F33AF"/>
<path d="M42.8042 74.5439C42.3726 74.5439 42.0229 74.1941 42.0229 73.7627C42.0229 73.2457 41.6025 72.8252 41.0854 72.8252C40.6539 72.8252 40.3042 72.4754 40.3042 72.0439C40.3042 71.6125 40.6539 71.2627 41.0854 71.2627C41.6025 71.2627 42.0229 70.8422 42.0229 70.3252C42.0229 69.8938 42.3726 69.5439 42.8042 69.5439C43.2358 69.5439 43.5854 69.8938 43.5854 70.3252C43.5854 70.8422 44.0059 71.2627 44.5229 71.2627C44.9545 71.2627 45.3042 71.6125 45.3042 72.0439C45.3042 72.4754 44.9545 72.8252 44.5229 72.8252C44.0059 72.8252 43.5854 73.2457 43.5854 73.7627C43.5854 74.1941 43.2358 74.5439 42.8042 74.5439Z" fill="white" fill-opacity="0.4"/>
<path d="M61.6465 13.0796C61.2149 13.0796 60.8652 12.7297 60.8652 12.2983C60.8652 11.7813 60.4448 11.3608 59.9277 11.3608C59.4962 11.3608 59.1465 11.011 59.1465 10.5796C59.1465 10.1482 59.4962 9.79834 59.9277 9.79834C60.4448 9.79834 60.8652 9.37771 60.8652 8.86084C60.8652 8.42943 61.2149 8.07959 61.6465 8.07959C62.078 8.07959 62.4277 8.42943 62.4277 8.86084C62.4277 9.37787 62.8482 9.79834 63.3652 9.79834C63.7968 9.79834 64.1465 10.1482 64.1465 10.5796C64.1465 11.011 63.7968 11.3608 63.3652 11.3608C62.8482 11.3608 62.4277 11.7813 62.4277 12.2983C62.4277 12.7299 62.078 13.0796 61.6465 13.0796Z" fill="#4F33AF"/>
<path d="M61.6465 13.0796C61.2149 13.0796 60.8652 12.7297 60.8652 12.2983C60.8652 11.7813 60.4448 11.3608 59.9277 11.3608C59.4962 11.3608 59.1465 11.011 59.1465 10.5796C59.1465 10.1482 59.4962 9.79834 59.9277 9.79834C60.4448 9.79834 60.8652 9.37771 60.8652 8.86084C60.8652 8.42943 61.2149 8.07959 61.6465 8.07959C62.078 8.07959 62.4277 8.42943 62.4277 8.86084C62.4277 9.37787 62.8482 9.79834 63.3652 9.79834C63.7968 9.79834 64.1465 10.1482 64.1465 10.5796C64.1465 11.011 63.7968 11.3608 63.3652 11.3608C62.8482 11.3608 62.4277 11.7813 62.4277 12.2983C62.4277 12.7299 62.078 13.0796 61.6465 13.0796Z" fill="white" fill-opacity="0.4"/>
<path d="M34.8357 72.0439C34.4041 72.0439 34.0544 71.6941 34.0544 71.2627C34.0544 70.7457 33.634 70.3252 33.1169 70.3252C32.6854 70.3252 32.3357 69.9754 32.3357 69.5439C32.3357 69.1125 32.6854 68.7627 33.1169 68.7627C33.634 68.7627 34.0544 68.3422 34.0544 67.8252C34.0544 67.3938 34.4041 67.0439 34.8357 67.0439C35.2673 67.0439 35.6169 67.3938 35.6169 67.8252C35.6169 68.3422 36.0374 68.7627 36.5544 68.7627C36.986 68.7627 37.3357 69.1125 37.3357 69.5439C37.3357 69.9754 36.986 70.3252 36.5544 70.3252C36.0374 70.3252 35.6169 70.7457 35.6169 71.2627C35.6169 71.6941 35.2673 72.0439 34.8357 72.0439Z" fill="#4F33AF"/>
<path d="M34.8357 72.0439C34.4041 72.0439 34.0544 71.6941 34.0544 71.2627C34.0544 70.7457 33.634 70.3252 33.1169 70.3252C32.6854 70.3252 32.3357 69.9754 32.3357 69.5439C32.3357 69.1125 32.6854 68.7627 33.1169 68.7627C33.634 68.7627 34.0544 68.3422 34.0544 67.8252C34.0544 67.3938 34.4041 67.0439 34.8357 67.0439C35.2673 67.0439 35.6169 67.3938 35.6169 67.8252C35.6169 68.3422 36.0374 68.7627 36.5544 68.7627C36.986 68.7627 37.3357 69.1125 37.3357 69.5439C37.3357 69.9754 36.986 70.3252 36.5544 70.3252C36.0374 70.3252 35.6169 70.7457 35.6169 71.2627C35.6169 71.6941 35.2673 72.0439 34.8357 72.0439Z" fill="white" fill-opacity="0.4"/>
<path d="M53.8254 10.4561C53.6256 10.4561 53.4254 10.3799 53.2731 10.2274L51.5543 8.50864C51.2492 8.20349 51.2492 7.7088 51.5543 7.4038L53.2731 5.68505C53.5779 5.38005 54.0729 5.38005 54.3777 5.68505L56.0965 7.4038C56.4016 7.70895 56.4016 8.20364 56.0965 8.50864L54.3777 10.2274C54.2254 10.3799 54.0254 10.4561 53.8254 10.4561ZM53.2116 7.95614L53.8256 8.57005L54.4395 7.95614L53.8256 7.34224L53.2116 7.95614Z" fill="#4F33AF"/>
<path d="M53.8254 10.4561C53.6256 10.4561 53.4254 10.3799 53.2731 10.2274L51.5543 8.50864C51.2492 8.20349 51.2492 7.7088 51.5543 7.4038L53.2731 5.68505C53.5779 5.38005 54.0729 5.38005 54.3777 5.68505L56.0965 7.4038C56.4016 7.70895 56.4016 8.20364 56.0965 8.50864L54.3777 10.2274C54.2254 10.3799 54.0254 10.4561 53.8254 10.4561ZM53.2116 7.95614L53.8256 8.57005L54.4395 7.95614L53.8256 7.34224L53.2116 7.95614Z" fill="white" fill-opacity="0.4"/>
<path d="M17.32 74.0753C17.1202 74.0753 16.92 73.999 16.7677 73.8465L15.0489 72.1278C14.7438 71.8226 14.7438 71.3279 15.0489 71.0229L16.7677 69.3042C17.0725 68.9992 17.5675 68.9992 17.8724 69.3042L19.5911 71.0229C19.8963 71.3281 19.8963 71.8228 19.5911 72.1278L17.8724 73.8465C17.7199 73.9989 17.5199 74.0753 17.32 74.0753ZM16.7061 71.5753L17.32 72.1892L17.9339 71.5753L17.32 70.9614L16.7061 71.5753Z" fill="#4F33AF"/>
<path d="M17.32 74.0753C17.1202 74.0753 16.92 73.999 16.7677 73.8465L15.0489 72.1278C14.7438 71.8226 14.7438 71.3279 15.0489 71.0229L16.7677 69.3042C17.0725 68.9992 17.5675 68.9992 17.8724 69.3042L19.5911 71.0229C19.8963 71.3281 19.8963 71.8228 19.5911 72.1278L17.8724 73.8465C17.7199 73.9989 17.5199 74.0753 17.32 74.0753ZM16.7061 71.5753L17.32 72.1892L17.9339 71.5753L17.32 70.9614L16.7061 71.5753Z" fill="white" fill-opacity="0.4"/>
<path d="M30.6719 15.6053L25.2655 10.1989C24.5351 9.46863 23.2865 9.98581 23.2865 11.0186V12.5891H16.6236C15.9834 12.5891 15.4644 13.108 15.4644 13.7483V19.1017C15.4644 19.7419 15.9834 20.261 16.6236 20.261H23.2865V21.8316C23.2865 22.8642 24.5351 23.3816 25.2655 22.6513L30.672 17.2447C31.1247 16.7921 31.1247 16.0582 30.6719 15.6053Z" fill="#4F33AF"/>
<path d="M30.6719 15.6053L25.2655 10.1989C24.5351 9.46863 23.2865 9.98581 23.2865 11.0186V12.5891H16.6236C15.9834 12.5891 15.4644 13.108 15.4644 13.7483V19.1017C15.4644 19.7419 15.9834 20.261 16.6236 20.261H23.2865V21.8316C23.2865 22.8642 24.5351 23.3816 25.2655 22.6513L30.672 17.2447C31.1247 16.7921 31.1247 16.0582 30.6719 15.6053Z" fill="white" fill-opacity="0.4"/>
<path d="M9.99618 38.561H60.9585C67.2384 38.561 72.3476 33.4519 72.3476 27.1719C72.3476 20.8919 67.2385 15.7829 60.9585 15.7829H36.2712C35.8396 15.7829 35.4899 16.1327 35.4899 16.5641C35.4899 16.9955 35.8396 17.3454 36.2712 17.3454H60.9585C66.377 17.3454 70.7851 21.7535 70.7851 27.1719C70.7851 32.5904 66.377 36.9985 60.9585 36.9985H9.99618C9.5654 36.9985 9.21493 36.648 9.21493 36.2172V27.1719C9.21493 23.4005 11.3401 20.0135 14.6832 18.3626V19.1018C14.6832 20.1718 15.5537 21.0422 16.6237 21.0422H22.5056V21.8316C22.5056 22.6193 22.9759 23.3229 23.7035 23.6244C23.9449 23.7244 24.1977 23.773 24.4481 23.773C24.9521 23.773 25.446 23.5758 25.8181 23.2038L31.2249 17.7972C31.9813 17.0407 31.9813 15.8096 31.2249 15.0532H31.2248L25.8182 9.64663C25.2613 9.08975 24.4313 8.92444 23.7037 9.226C22.976 9.52741 22.5057 10.2312 22.5057 11.0188V11.8082H16.6238C15.5538 11.8082 14.6834 12.6787 14.6834 13.7487V16.6477C10.4115 18.4182 7.65259 22.546 7.65259 27.1722V36.2176C7.65243 37.5096 8.70368 38.561 9.99618 38.561ZM16.2457 13.7483C16.2457 13.5399 16.4152 13.3704 16.6237 13.3704H23.2868C23.7184 13.3704 24.0681 13.0205 24.0681 12.5891V11.0187C24.0681 10.7907 24.2312 10.6985 24.3013 10.6694C24.3717 10.6404 24.5521 10.5904 24.7132 10.7513L30.1199 16.1579C30.2671 16.3052 30.2671 16.5451 30.1199 16.6923L24.7131 22.0988C24.5523 22.2596 24.3717 22.2097 24.3013 22.1807C24.2312 22.1516 24.0681 22.0594 24.0681 21.8315V20.261C24.0681 19.8296 23.7184 19.4797 23.2868 19.4797H16.6237C16.4152 19.4797 16.2457 19.3102 16.2457 19.1018V13.7483Z" fill="#4F33AF"/>
<path d="M19.0412 63.684H70.0035C71.2958 63.684 72.3473 62.6326 72.3473 61.3402V57.5544C72.3473 57.123 71.9976 56.7732 71.566 56.7732C71.1344 56.7732 70.7848 57.123 70.7848 57.5544V61.3402C70.7848 61.771 70.4343 62.1215 70.0035 62.1215H19.0412C13.6227 62.1215 9.2146 57.7134 9.2146 52.2949C9.2146 46.8766 13.6227 42.4685 19.0412 42.4685H60.9584C66.3768 42.4685 70.7849 46.8766 70.7849 52.2949C70.7849 52.7263 71.1346 53.0762 71.5662 53.0762C71.9977 53.0762 72.3474 52.7263 72.3474 52.2949C72.3474 46.0151 67.2383 40.906 60.9584 40.906H19.0412C12.7613 40.906 7.6521 46.0151 7.6521 52.2951C7.6521 58.5751 12.7613 63.684 19.0412 63.684Z" fill="#4F33AF"/>
</g>
<defs>
<linearGradient id="paint0_linear" x1="8.4348" y1="40.0001" x2="71.5673" y2="40.0001" gradientUnits="userSpaceOnUse">
<stop stop-color="#D2DEFF" stop-opacity="0"/>
<stop offset="1" stop-color="#B7C5FF"/>
</linearGradient>
<clipPath id="clip0">
<rect width="80" height="80" fill="white"/>
</clipPath>
</defs>
</svg>
