<svg width="80" height="80" viewBox="0 0 80 80" fill="none" xmlns="http://www.w3.org/2000/svg">
<g clip-path="url(#clip0)">
<path d="M78.4177 23.9973C74.9244 15.1086 64.1637 9.77809 55.0496 13.3056C44.6462 17.3322 48.0955 33.8795 38.646 37.2256C33.5415 39.0331 25.9957 32.2812 20.8383 31.2458C11.3351 29.3379 2.73194 36.0434 0.6135 45.3292C-1.54775 54.8026 1.91866 67.4558 12.3271 70.027C24.7255 73.0898 31.1838 61.9443 41.5848 58.744C52.2582 55.4598 64.1258 63.2162 72.9619 53.779C79.4901 46.8072 81.8768 32.7992 78.4177 23.9973Z" fill="url(#paint0_linear)"/>
<g opacity="0.1">
<path d="M74.5074 27.9052C74.5074 21.7338 69.5045 16.7307 63.3329 16.7307C58.5516 16.7307 54.4737 19.7346 52.8782 23.9572H12.4707C10.7448 23.9572 9.3457 25.3563 9.3457 27.0822V61.6775C9.3457 63.4035 10.7448 64.8025 12.4707 64.8025H67.5293C69.2552 64.8025 70.6543 63.4035 70.6543 61.6775V36.3431C73.0135 34.2942 74.5074 31.2752 74.5074 27.9052Z" fill="#4F33AF"/>
<path d="M74.5074 27.9052C74.5074 21.7338 69.5045 16.7307 63.3329 16.7307C58.5516 16.7307 54.4737 19.7346 52.8782 23.9572H12.4707C10.7448 23.9572 9.3457 25.3563 9.3457 27.0822V61.6775C9.3457 63.4035 10.7448 64.8025 12.4707 64.8025H67.5293C69.2552 64.8025 70.6543 63.4035 70.6543 61.6775V36.3431C73.0135 34.2942 74.5074 31.2752 74.5074 27.9052Z" fill="black" fill-opacity="0.4"/>
</g>
<path d="M67.5293 60.8963H12.4707C10.7448 60.8963 9.3457 59.4972 9.3457 57.7713V23.176C9.3457 21.45 10.7448 20.051 12.4707 20.051H67.5293C69.2552 20.051 70.6543 21.45 70.6543 23.176V57.7713C70.6543 59.4972 69.2552 60.8963 67.5293 60.8963Z" fill="white"/>
<path d="M40.952 34.9549L70.6545 57.7713C70.6545 59.4972 69.2554 60.8963 67.5295 60.8963H12.4707C10.7448 60.8963 9.3457 59.4972 9.3457 57.7713L39.0482 34.9549C39.6096 34.5237 40.3906 34.5237 40.952 34.9549Z" fill="white"/>
<path d="M39.0482 45.9925L9.3457 23.176C9.3457 21.45 10.7448 20.051 12.4707 20.051H67.5293C69.2552 20.051 70.6543 21.45 70.6543 23.176L40.952 45.9925C40.3906 46.4236 39.6096 46.4236 39.0482 45.9925Z" fill="white"/>
<path d="M57.9606 56.7383H52.9397C52.5081 56.7383 52.1584 56.3886 52.1584 55.957V52.4955C52.1584 52.0641 52.5081 51.7142 52.9397 51.7142H57.9606C58.3922 51.7142 58.7419 52.0641 58.7419 52.4955V55.957C58.7419 56.3886 58.3922 56.7383 57.9606 56.7383Z" fill="#4F33AF"/>
<path d="M48.73 53.5536H44.3811C43.9495 53.5536 43.5999 53.2038 43.5999 52.7724C43.5999 52.341 43.9495 51.9911 44.3811 51.9911H48.73C49.1616 51.9911 49.5113 52.341 49.5113 52.7724C49.5113 53.2038 49.1616 53.5536 48.73 53.5536Z" fill="#4F33AF"/>
<path d="M48.73 53.5536H44.3811C43.9495 53.5536 43.5999 53.2038 43.5999 52.7724C43.5999 52.341 43.9495 51.9911 44.3811 51.9911H48.73C49.1616 51.9911 49.5113 52.341 49.5113 52.7724C49.5113 53.2038 49.1616 53.5536 48.73 53.5536Z" fill="black" fill-opacity="0.4"/>
<path d="M48.73 56.7383H33.4436C33.012 56.7383 32.6624 56.3885 32.6624 55.9571C32.6624 55.5257 33.012 55.1758 33.4436 55.1758H48.73C49.1616 55.1758 49.5113 55.5257 49.5113 55.9571C49.5113 56.3887 49.1616 56.7383 48.73 56.7383Z" fill="#4F33AF"/>
<path d="M48.73 56.7383H33.4436C33.012 56.7383 32.6624 56.3885 32.6624 55.9571C32.6624 55.5257 33.012 55.1758 33.4436 55.1758H48.73C49.1616 55.1758 49.5113 55.5257 49.5113 55.9571C49.5113 56.3887 49.1616 56.7383 48.73 56.7383Z" fill="black" fill-opacity="0.4"/>
<path d="M74.3484 25.7881C75.3358 19.6968 71.1984 13.9584 65.1071 12.9709C59.0158 11.9835 53.2773 16.121 52.2899 22.2123C51.3024 28.3035 55.4399 34.042 61.5312 35.0294C67.6225 36.0169 73.3609 31.8794 74.3484 25.7881Z" fill="#4F33AF"/>
<path d="M63.3329 35.9547C69.9252 35.9547 75.2887 30.5914 75.2887 23.9989C75.2887 17.4064 69.9254 12.0432 63.3329 12.0432C56.7404 12.0432 51.3771 17.4064 51.3771 23.9989C51.3771 27.8339 53.1941 31.2505 56.0104 33.4397L40.476 45.3728C40.1962 45.5882 39.8046 45.5883 39.5241 45.3728L10.1551 22.8125C10.3302 21.6922 11.3021 20.8322 12.4707 20.8322H48.3091C48.7407 20.8322 49.0904 20.4824 49.0904 20.051C49.0904 19.6196 48.7407 19.2697 48.3091 19.2697H12.4707C10.3168 19.2697 8.56445 21.0221 8.56445 23.176V57.7713C8.56445 59.9252 10.3168 61.6775 12.4707 61.6775H67.5293C69.6832 61.6775 71.4356 59.9252 71.4356 57.7713V37.1244C71.4356 36.693 71.0859 36.3431 70.6543 36.3431C70.2227 36.3431 69.8731 36.693 69.8731 37.1244V56.186L49.4188 40.4736L57.3782 34.3596C59.1329 35.3721 61.1655 35.9547 63.3329 35.9547ZM30.5813 40.4736L10.127 56.186V24.7613L30.5813 40.4736ZM69.8423 58.1327C69.6676 59.2536 68.6985 60.115 67.5293 60.115H12.4707C11.3015 60.115 10.3324 59.2536 10.1577 58.1327L31.8638 41.4588L38.5723 46.6119C38.9926 46.9347 39.4963 47.0963 40.0001 47.0963C40.5038 47.0963 41.0074 46.9349 41.4279 46.6119L48.1363 41.4586L69.8423 58.1327ZM52.9396 23.9989C52.9396 18.2682 57.602 13.6057 63.3329 13.6057C69.0638 13.6057 73.7262 18.268 73.7262 23.9989C73.7262 29.7297 69.0638 34.3922 63.3329 34.3922C57.602 34.3922 52.9396 29.7297 52.9396 23.9989Z" fill="#4F33AF"/>
<path d="M63.3329 35.9547C69.9252 35.9547 75.2887 30.5914 75.2887 23.9989C75.2887 17.4064 69.9254 12.0432 63.3329 12.0432C56.7404 12.0432 51.3771 17.4064 51.3771 23.9989C51.3771 27.8339 53.1941 31.2505 56.0104 33.4397L40.476 45.3728C40.1962 45.5882 39.8046 45.5883 39.5241 45.3728L10.1551 22.8125C10.3302 21.6922 11.3021 20.8322 12.4707 20.8322H48.3091C48.7407 20.8322 49.0904 20.4824 49.0904 20.051C49.0904 19.6196 48.7407 19.2697 48.3091 19.2697H12.4707C10.3168 19.2697 8.56445 21.0221 8.56445 23.176V57.7713C8.56445 59.9252 10.3168 61.6775 12.4707 61.6775H67.5293C69.6832 61.6775 71.4356 59.9252 71.4356 57.7713V37.1244C71.4356 36.693 71.0859 36.3431 70.6543 36.3431C70.2227 36.3431 69.8731 36.693 69.8731 37.1244V56.186L49.4188 40.4736L57.3782 34.3596C59.1329 35.3721 61.1655 35.9547 63.3329 35.9547ZM30.5813 40.4736L10.127 56.186V24.7613L30.5813 40.4736ZM69.8423 58.1327C69.6676 59.2536 68.6985 60.115 67.5293 60.115H12.4707C11.3015 60.115 10.3324 59.2536 10.1577 58.1327L31.8638 41.4588L38.5723 46.6119C38.9926 46.9347 39.4963 47.0963 40.0001 47.0963C40.5038 47.0963 41.0074 46.9349 41.4279 46.6119L48.1363 41.4586L69.8423 58.1327ZM52.9396 23.9989C52.9396 18.2682 57.602 13.6057 63.3329 13.6057C69.0638 13.6057 73.7262 18.268 73.7262 23.9989C73.7262 29.7297 69.0638 34.3922 63.3329 34.3922C57.602 34.3922 52.9396 29.7297 52.9396 23.9989Z" fill="black" fill-opacity="0.4"/>
<path d="M58.4554 20.1881L60.0501 23.9989L58.4554 27.8097C58.1846 28.4568 58.8379 29.1053 59.4831 28.8297L69.111 24.7173C69.7435 24.4472 69.7435 23.5506 69.111 23.2804L59.4831 19.1681C58.8379 18.8925 58.1846 19.5409 58.4554 20.1881Z" fill="white"/>
<path d="M51.6921 12.7611C51.1118 12.7611 50.5316 12.5403 50.0901 12.0986C49.2066 11.2151 49.2066 9.7778 50.0901 8.89452C50.973 8.01139 52.4107 8.01108 53.294 8.89452C54.1774 9.77795 54.1774 11.2153 53.294 12.0986C52.8524 12.5403 52.2723 12.7611 51.6921 12.7611ZM51.6921 9.79373C51.5121 9.79373 51.3319 9.86217 51.1948 9.99936C50.9207 10.2734 50.9207 10.7195 51.1948 10.9937C51.4691 11.2678 51.9148 11.268 52.1891 10.9937C52.4632 10.7197 52.4632 10.2736 52.1891 9.99936C52.0521 9.86233 51.8719 9.79373 51.6921 9.79373Z" fill="#4F33AF"/>
<path d="M34.1469 71.768C33.5668 71.768 32.9865 71.547 32.5449 71.1055C31.6615 70.222 31.6615 68.7847 32.5449 67.9014C33.428 67.0181 34.8658 67.0181 35.749 67.9014C36.6324 68.7849 36.6324 70.2222 35.749 71.1055C35.3074 71.5472 34.7271 71.768 34.1469 71.768ZM34.1469 68.8006C33.9669 68.8006 33.7868 68.8691 33.6496 69.0063C33.3755 69.2803 33.3755 69.7264 33.6496 70.0006C33.924 70.2748 34.3697 70.2748 34.6441 70.0006C34.9182 69.7266 34.9182 69.2805 34.6441 69.0063C34.5071 68.8692 34.3269 68.8006 34.1469 68.8006Z" fill="#4F33AF"/>
<path d="M46.0595 14.7729C45.8597 14.7729 45.6595 14.6967 45.5072 14.5442L44.5752 13.6123L43.6431 14.5442C43.3383 14.8492 42.8433 14.8492 42.5384 14.5442C42.2333 14.239 42.2333 13.7443 42.5384 13.4393L44.0228 11.9549C44.3277 11.6499 44.8227 11.6499 45.1275 11.9549L46.6119 13.4393C46.917 13.7445 46.917 14.2392 46.6119 14.5442C46.4595 14.6965 46.2595 14.7729 46.0595 14.7729Z" fill="#4F33AF"/>
<path d="M68.7106 68.8003C68.5108 68.8003 68.3106 68.7241 68.1583 68.5716L67.2263 67.6397L66.2942 68.5716C65.9894 68.8766 65.4944 68.8766 65.1896 68.5716C64.8844 68.2664 64.8844 67.7717 65.1896 67.4667L66.6739 65.9824C66.9788 65.6774 67.4738 65.6774 67.7786 65.9824L69.263 67.4667C69.5681 67.7719 69.5681 68.2666 69.263 68.5716C69.1106 68.7239 68.9105 68.8003 68.7106 68.8003Z" fill="#4F33AF"/>
<path d="M27.9509 69.5425C27.751 69.5425 27.5509 69.4663 27.3985 69.3138L26.4665 68.3819L25.5345 69.3138C25.2296 69.6188 24.7346 69.6188 24.4298 69.3138C24.1246 69.0086 24.1246 68.5139 24.4298 68.2089L25.9142 66.7245C26.219 66.4195 26.714 66.4195 27.0189 66.7245L28.5032 68.2089C28.8084 68.5141 28.8084 69.0088 28.5032 69.3138C28.3507 69.4661 28.1507 69.5425 27.9509 69.5425Z" fill="#4F33AF"/>
</g>
<defs>
<linearGradient id="paint0_linear" x1="67.5523" y1="78.5382" x2="30.9898" y2="30.1009" gradientUnits="userSpaceOnUse">
<stop stop-color="#D2DEFF" stop-opacity="0"/>
<stop offset="1" stop-color="#B7C5FF"/>
</linearGradient>
<clipPath id="clip0">
<rect width="80" height="80" fill="white"/>
</clipPath>
</defs>
</svg>
