<svg xmlns="http://www.w3.org/2000/svg" width="1011.13" height="844.93"><defs><linearGradient id="ed695dba-63ca-4bb5-9f87-bbf25b60f2aa" x1=".5" x2=".5" y1="1" y2="0"><stop offset="0" stop-color="gray" stop-opacity=".25"/><stop offset=".54" stop-color="gray" stop-opacity=".12"/><stop offset="1" stop-color="gray" stop-opacity=".1"/></linearGradient></defs><title>balloons</title><g><title>background</title><rect id="canvas_background" width="582" height="402" x="-1" y="-1" fill="none"/></g><g><title>Layer 1</title><path id="svg_1" fill="#63d2d6" stroke="null" d="m312.367445,215.99c34.146165,-30.53 87.636853,-36.81 136.365965,-34.37c153.086154,7.65 291.201675,82 410.698341,166c43.26175,30.44 85.857475,63.24 113.939838,105.16c57.168732,85.32 40.209967,203.52 -39.275545,273.81c-27.048534,23.91 -59.832829,42.25 -93.442198,58.5c-59.842769,28.89 -124.417292,52.09 -192.341818,58.69c-48.440833,4.71 -97.418462,0.89 -145.620719,-5.68c-134.536884,-18.36 -266.598543,-59 -377.287785,-128.39c-48.54024,-30.45 -94.297095,-68.32 -114.317583,-117.59s-7.246741,-111.66 42.327328,-140.82c20.49764,-12.06 45.011306,-17.5 69.008057,-22.62c35.329103,-7.53 71.224824,-15 103.094578,-30.26c32.923464,-15.81 71.91073,-46.38 65.399598,-81.37c-7.028046,-37.59 -12.614697,-70.53 21.451943,-101.06z" opacity=".1"/><path id="svg_2" fill="#673fbd" d="m284.57,770.179999s-46,-2.77 -40.6,29.48c0,0 -1.07,5.7 4.09,8.29c0,0 0.08,-2.39 4.72,-1.58a21.85,21.85 0 0 0 5,0.24a10.45,10.45 0 0 0 6.12,-2.53l0,0s12.93,-5.34 18,-26.48c0,0 3.73,-4.62 3.58,-5.8l-7.77,3.31s2.65,5.61 0.57,10.26c0,0 -0.25,-10 -1.75,-9.81c-0.3,0 -4,1.94 -4,1.94s4.57,9.76 1.12,16.85c0,0 1.31,-12 -2.55,-16.15l-5.53,3.19s5.33,10.09 1.71,18.31c0,0 0.93,-12.62 -2.86,-17.53l-5,3.87s5,9.93 2,16.75c0,0 -0.4,-14.68 -3,-15.79c0,0 -4.33,3.82 -5,5.39c0,0 3.44,7.21 1.31,11c0,0 -1.31,-9.79 -2.38,-9.83c0,0 -4.32,6.48 -4.77,10.92c0,0 0.19,-6.61 3.72,-11.54c0,0 -4.17,0.71 -6.61,3.42c0,0 0.67,-4.58 7.68,-5c0,0 3.57,-4.92 4.52,-5.22c0,0 -7,-0.58 -11.19,1.29c0,0 3.72,-4.32 12.47,-2.36l4.89,-4s-9.17,-1.26 -13.06,0.13c0,0 4.47,-3.82 14.38,-1l5.32,-3.18s-7.82,-1.69 -12.48,-1.08c0,0 4.92,-2.65 14,0.22l3.85,-1.7s-5.73,-1.12 -7.41,-1.3s-1.76,-0.64 -1.76,-0.64a19.85,19.85 0 0 1 10.76,1.2s8.08,-3.03 7.91,-3.54z"/><ellipse id="svg_3" cx="252.9" cy="810.76" fill="#673fbd" opacity=".1" rx="32.57" ry="5.51"/><path id="svg_4" fill="#673fbd" d="m372.89,685.209999s-25.95,-1.57 -22.89,16.61a4.44,4.44 0 0 0 2.3,4.68s0,-1.35 2.66,-0.89a12.62,12.62 0 0 0 2.82,0.13a5.87,5.87 0 0 0 3.45,-1.42l0,0s7.29,-3 10.13,-14.94c0,0 2.1,-2.6 2,-3.26l-4.38,1.87s1.49,3.15 0.32,5.78c0,0 -0.15,-5.67 -1,-5.54c-0.17,0 -2.27,1.1 -2.27,1.1s2.57,5.5 0.63,9.5c0,0 0.74,-6.78 -1.44,-9.1l-3.08,1.8s3,5.68 1,10.32c0,0 0.52,-7.12 -1.62,-9.89l-2.79,2.18s2.83,5.6 1.1,9.45c0,0 -0.22,-8.28 -1.71,-8.91a16.92,16.92 0 0 0 -2.81,3s1.93,4.06 0.73,6.21c0,0 -0.73,-5.52 -1.34,-5.54c0,0 -2.43,3.65 -2.68,6.15a13.29,13.29 0 0 1 2.09,-6.51a7.33,7.33 0 0 0 -3.72,1.94s0.37,-2.59 4.32,-2.82c0,0 2,-2.77 2.55,-2.94c0,0 -3.92,-0.32 -6.31,0.73c0,0 2.1,-2.44 7,-1.33l2.76,-2.25s-5.17,-0.71 -7.36,0.07c0,0 2.52,-2.15 8.1,-0.58l3,-1.8a27,27 0 0 0 -7,-0.6s2.77,-1.5 7.92,0.12l2.14,-1s-3.23,-0.64 -4.17,-0.74s-1,-0.36 -1,-0.36a11.2,11.2 0 0 1 6.07,0.68s4.55,-1.65 4.48,-1.9z"/><ellipse id="svg_5" cx="355.01" cy="708.09" fill="#673fbd" opacity=".1" rx="18.36" ry="3.1"/><path id="svg_6" fill="#673fbd" d="m219.74,700.979999s-31.33,-1.88 -27.64,20.07a5.36,5.36 0 0 0 2.78,5.64s0.06,-1.63 3.22,-1.08a14.44,14.44 0 0 0 3.4,0.17a7,7 0 0 0 4.16,-1.72l0,0s8.81,-3.64 12.23,-18c0,0 2.54,-3.14 2.44,-4l-5.29,2.26s1.81,3.81 0.39,7c0,0 -0.18,-6.84 -1.19,-6.68c-0.21,0 -2.75,1.32 -2.75,1.32s3.11,6.65 0.76,11.47c0,0 0.89,-8.18 -1.73,-11l-3.72,2.17s3.63,6.87 1.17,12.47c0,0 0.63,-8.59 -1.95,-11.94l-3.37,2.63s3.41,6.77 1.33,11.41c0,0 -0.28,-10 -2.07,-10.75c0,0 -2.95,2.6 -3.4,3.67c0,0 2.34,4.91 0.89,7.5c0,0 -0.89,-6.66 -1.62,-6.69c0,0 -2.94,4.41 -3.24,7.44a16,16 0 0 1 2.53,-7.88a8.79,8.79 0 0 0 -4.5,2.33s0.46,-3.12 5.23,-3.4c0,0 2.42,-3.34 3.08,-3.55c0,0 -4.75,-0.39 -7.62,0.88c0,0 2.53,-2.94 8.48,-1.61l3.33,-2.65s-6.24,-0.86 -8.89,0.09c0,0 3.05,-2.61 9.79,-0.71l3.63,-2.17s-5.33,-1.14 -8.5,-0.73c0,0 3.35,-1.8 9.56,0.15l2.59,-1.16s-3.9,-0.77 -5,-0.89s-1.21,-0.44 -1.21,-0.44a13.55,13.55 0 0 1 7.33,0.82s5.46,-2.09 5.37,-2.44z"/><ellipse id="svg_7" cx="198.15" cy="728.61" fill="#673fbd" opacity=".1" rx="22.17" ry="3.75"/><path id="svg_8" fill="none" stroke="#444053" stroke-miterlimit="10" d="m483.72,193.269999c-8.28,3.21 -17.63,7.58 -19.78,16.19a19.81,19.81 0 0 0 0.52,10a33,33 0 0 0 15.9,19.76c9.51,5.11 21.32,5.39 30,11.75a25.84,25.84 0 0 1 10.08,16.22c0.47,2.72 0.51,5.55 1.51,8.13c2.67,6.91 11.07,9.6 18.47,10c3.56,0.21 7.46,0.22 10.18,2.53a14.68,14.68 0 0 1 2.74,3.52c5.76,9.19 11.72,19 11.78,29.87c0,8.52 -3.6,16.62 -7.81,24c-5.49,9.63 -12.24,19.09 -13.5,30.1c-1.48,13 5,25.54 5.84,38.57a46,46 0 0 1 -15.4,37.07"/><path id="svg_9" fill="#673fbd" d="m450.21,79.529999c6.36,46.32 5.28,104.57 -36.31,110.28s-107.93,-43.29 -114.33,-89.6s22.2,-88.49 63.79,-94.2s80.49,27.21 86.85,73.52z"/><path id="svg_10" fill="#673fbd" d="m437.57,206.009999s-6.8,3.08 -7.83,-3.54a12,12 0 0 1 -0.12,-1.78a17.79,17.79 0 0 0 -1.13,-6a21.69,21.69 0 0 0 -0.86,-2a28.62,28.62 0 0 0 -5.73,-7.93l16,-12.22s-2.82,9.86 -0.13,12.23a2.08,2.08 0 0 0 1.42,0.5a4,4 0 0 0 1.42,-0.27c0.55,-0.19 1.05,-0.34 1.51,-0.46c5.41,-1.38 5,2.07 5,2.07c4.27,7.48 -9.55,19.4 -9.55,19.4z"/><path id="svg_11" fill="#444053" d="m439.19,185.209999l-10.68,9.45a21.69,21.69 0 0 0 -0.86,-2c2.89,-2.12 7.32,-5.66 10.12,-7.92a2.08,2.08 0 0 0 1.42,0.47z"/><path id="svg_12" fill="#673fbd" d="m437.57,206.009999s-6.8,3.08 -7.83,-3.54a22.39,22.39 0 0 0 7.42,-4.52c2.85,-2.89 5.61,-9.42 4.94,-13.47c5.41,-1.38 5,2.07 5,2.07c4.29,7.54 -9.53,19.46 -9.53,19.46z"/><path id="svg_13" d="m437.57,206.009999s-6.8,3.08 -7.83,-3.54a22.39,22.39 0 0 0 7.42,-4.52c2.85,-2.89 5.61,-9.42 4.94,-13.47c5.41,-1.38 5,2.07 5,2.07c4.29,7.54 -9.53,19.46 -9.53,19.46z" opacity=".1"/><path id="svg_14" fill="#fff" d="m333.82,30.929999s-20.16,10.19 -17.17,26.12c0,0 3.46,-3.28 7,-4.06a11.49,11.49 0 0 0 4.92,-2.08s-1.73,-8.8 5.25,-19.98z" opacity=".1"/><path id="svg_15" fill="#673fbd" d="m465.94,309.559999a57.8,57.8 0 0 1 -4.7,15.73c-0.61,1.4 -1.28,2.82 -2,4.22c-18.83,36.14 -71.16,71.44 -110.24,66.14c-36.49,-4.95 -64.67,-30.07 -72.26,-60.83c-0.37,-1.5 -0.7,-3 -1,-4.56a69.31,69.31 0 0 1 -0.42,-21.3c4.58,-33.64 33,-58.8 68.26,-63.83a85.75,85.75 0 0 1 9.39,-0.86c1.52,-0.07 3.06,-0.09 4.61,-0.07a91.88,91.88 0 0 1 11.84,0.84c2.17,0.3 4.39,0.61 6.61,1c0.19,0 0.37,0.07 0.56,0.09a250.56,250.56 0 0 1 39.83,9.28c4,1.33 7.87,2.75 11.59,4.37c2.59,1.09 5.11,2.26 7.54,3.5c10.91,5.54 19.84,12.47 25.23,21.12c0.54,0.86 1,1.73 1.5,2.64l0.21,0.42a35,35 0 0 1 3.53,11.59a40.15,40.15 0 0 1 -0.08,10.51z"/><path id="svg_16" d="m465.94,309.559999a57.8,57.8 0 0 1 -4.7,15.73c-0.61,1.4 -1.28,2.82 -2,4.22c-18.83,36.14 -71.16,71.44 -110.24,66.14c-36.49,-4.95 -64.67,-30.07 -72.26,-60.83c-0.37,-1.5 -0.7,-3 -1,-4.56a69.31,69.31 0 0 1 -0.42,-21.3c4.58,-33.64 33,-58.8 68.26,-63.83a85.75,85.75 0 0 1 9.39,-0.86c1.52,-0.07 3.06,-0.09 4.61,-0.07a91.88,91.88 0 0 1 11.84,0.84c2.17,0.3 4.39,0.61 6.61,1c0.19,0 0.37,0.07 0.56,0.09a250.56,250.56 0 0 1 39.83,9.28c4,1.33 7.87,2.75 11.59,4.37c2.59,1.09 5.11,2.26 7.54,3.5c10.91,5.54 19.84,12.47 25.23,21.12c0.54,0.86 1,1.73 1.5,2.64l0.21,0.42a35,35 0 0 1 3.53,11.59a40.15,40.15 0 0 1 -0.08,10.51z" opacity=".1"/><path id="svg_17" fill="#673fbd" d="m482.38,297.649999a9,9 0 0 1 -1.75,-0.35a17.46,17.46 0 0 0 -6.1,-0.51a16.63,16.63 0 0 0 -2.22,0.28a26.77,26.77 0 0 0 -6.3,1.94a25.48,25.48 0 0 0 -2.85,1.44l-5.17,-12.87l-0.07,-0.19l-2.24,-5.58a37.8,37.8 0 0 0 5.09,2.55c2.46,1 5.19,1.77 6.64,0.84a2.19,2.19 0 0 0 0.86,-1.24a3.82,3.82 0 0 0 0.12,-1.45c0,-0.58 -0.05,-1.1 -0.05,-1.59c0.14,-5.56 3.37,-4.27 3.37,-4.27c3.71,-0.91 7.31,1.82 10.16,5.11c0.42,0.5 0.82,1 1.19,1.48a49.41,49.41 0 0 1 4.84,7.82s1.14,7.4 -5.52,6.59z"/><path id="svg_18" fill="#444053" d="m474.57,296.789999a16.63,16.63 0 0 0 -2.22,0.28c-1,-2.83 -2.8,-7 -4.2,-10.21c-0.09,-0.24 -0.19,-0.45 -0.28,-0.68s-0.3,-0.68 -0.42,-1a2.19,2.19 0 0 0 0.86,-1.24l0.94,1.94l0.37,0.77l4.95,10.14z"/><path id="svg_19" fill="#673fbd" d="m482.38,297.649999a22.46,22.46 0 0 0 -2.38,-8.36a17.8,17.8 0 0 0 -3.41,-4a14.14,14.14 0 0 0 -1.22,-1a15.44,15.44 0 0 0 -7,-3.37c0.14,-5.56 3.37,-4.27 3.37,-4.27c3.71,-0.91 7.31,1.82 10.16,5.11c0.42,0.5 0.82,1 1.19,1.48a49.41,49.41 0 0 1 4.84,7.82s1.11,7.4 -5.55,6.59z"/><path id="svg_20" d="m482.38,297.649999a22.46,22.46 0 0 0 -2.38,-8.36a17.8,17.8 0 0 0 -3.41,-4a14.14,14.14 0 0 0 -1.22,-1a15.44,15.44 0 0 0 -7,-3.37c0.14,-5.56 3.37,-4.27 3.37,-4.27c3.71,-0.91 7.31,1.82 10.16,5.11c0.42,0.5 0.82,1 1.19,1.48a49.41,49.41 0 0 1 4.84,7.82s1.11,7.4 -5.55,6.59z" opacity=".1"/><path id="svg_21" fill="#fff" d="m291.41,344.129999s4.41,22.16 20.56,23.54c0,0 -2.23,-4.21 -2,-7.79a11.38,11.38 0 0 0 -0.68,-5.31s-8.98,-0.71 -17.88,-10.44z" opacity=".1"/><path id="svg_22" fill="#673fbd" d="m524.18,113.819999c-8.13,18.57 -18.62,38.31 -31.05,53.36c-9.53,11.59 -20.23,20.37 -31.87,23.71a35.81,35.81 0 0 1 -15.48,1a39,39 0 0 1 -10.12,-3c-22.71,-9.95 -42.82,-40.65 -51.63,-73c-6.09,-22.43 -6.77,-45.58 0.91,-63.12c18.76,-42.76 65.13,-63.81 103.63,-46.97s54.36,65.2 35.61,108.02z"/><path id="svg_23" d="m524.18,113.819999c-8.13,18.57 -18.62,38.31 -31.05,53.36c-9.53,11.59 -20.23,20.37 -31.87,23.71a35.81,35.81 0 0 1 -15.48,1a39,39 0 0 1 -10.12,-3c-22.71,-9.95 -42.82,-40.65 -51.63,-73c-6.09,-22.43 -6.77,-45.58 0.91,-63.12c18.76,-42.76 65.13,-63.81 103.63,-46.97s54.36,65.2 35.61,108.02z" opacity=".1"/><path id="svg_24" fill="#673fbd" d="m465.7,203.509999c-0.3,8.64 -18.31,11.61 -18.31,11.61s-7.41,-0.94 -4.81,-7.11a11.33,11.33 0 0 1 0.81,-1.58a17.88,17.88 0 0 0 2.2,-5.75c0.14,-0.73 0.26,-1.45 0.33,-2.17a29.33,29.33 0 0 0 -0.14,-6.62a24.5,24.5 0 0 0 -0.61,-3.13l20,-2.1a42.18,42.18 0 0 0 -3.91,4.23c-1.65,2.1 -3.08,4.51 -2.59,6.14a2,2 0 0 0 1,1.17a3.73,3.73 0 0 0 1.35,0.52a13.34,13.34 0 0 1 1.52,0.39c5.29,1.64 3.16,4.4 3.16,4.4z"/><path id="svg_25" fill="#444053" d="m459.63,198.199999l-14,2.48c0.14,-0.73 0.26,-1.45 0.33,-2.17c3.55,-0.31 9.18,-1 12.75,-1.48a2,2 0 0 0 0.92,1.17z"/><path id="svg_26" fill="#673fbd" d="m465.7,203.509999c-0.3,8.64 -18.31,11.61 -18.31,11.61s-7.41,-0.94 -4.81,-7.11a22.35,22.35 0 0 0 8.69,0c3.92,-1 9.69,-5.09 11.23,-8.9c5.33,1.64 3.2,4.4 3.2,4.4z"/><path id="svg_27" d="m465.7,203.509999c-0.3,8.64 -18.31,11.61 -18.31,11.61s-7.41,-0.94 -4.81,-7.11a22.35,22.35 0 0 0 8.69,0c3.92,-1 9.69,-5.09 11.23,-8.9c5.33,1.64 3.2,4.4 3.2,4.4z" opacity=".1"/><path id="svg_28" fill="#fff" d="m450.29,11.609999s-22.51,-1.84 -28.28,13.32c0,0 4.66,-1 8.06,0.16a11.29,11.29 0 0 0 5.29,0.8s3.13,-8.43 14.93,-14.28z" opacity=".1"/><g id="svg_29" opacity=".1"><path id="svg_30" d="m220.27,299.149999c-0.18,3.57 2.06,7.77 2.06,7.77c-16.14,-1.37 -20.56,-23.52 -20.56,-23.52c8.9,9.72 17.82,10.44 17.82,10.44a11.34,11.34 0 0 1 0.68,5.31z"/><path id="svg_31" d="m373.57,239.709999l-7.47,-18.64a37.8,37.8 0 0 0 5.09,2.55a35.59,35.59 0 0 1 5.23,14.65a26.67,26.67 0 0 0 -2.85,1.44z"/><path id="svg_32" d="m376.57,246.089999c-0.07,0.89 -0.16,1.82 -0.28,2.74a57.7,57.7 0 0 1 -4.72,15.72c-0.61,1.4 -1.29,2.82 -2,4.23c-16.14,31 -56.9,61.37 -92.86,66a69.1,69.1 0 0 1 -1.4,-25.86c4.58,-33.64 33,-58.8 68.26,-63.83a93.1,93.1 0 0 1 25.84,-0.09c2.36,0.37 4.76,0.7 7.16,1.09z"/><path id="svg_33" d="m392.75,236.909999a9.11,9.11 0 0 1 -1.76,-0.35a17.42,17.42 0 0 0 -6.09,-0.51a16.23,16.23 0 0 0 -2.22,0.28a28.93,28.93 0 0 0 -9.16,3.38l-7.47,-18.64a37.8,37.8 0 0 0 5.09,2.55c2.45,1 5.18,1.77 6.63,0.84a2.25,2.25 0 0 0 0.87,-1.24a4.05,4.05 0 0 0 0.11,-1.45c0,-0.58 0,-1.09 0,-1.58c0.14,-5.56 3.36,-4.28 3.36,-4.28c8.39,-2.06 16.19,14.41 16.19,14.41s1.1,7.39 -5.55,6.59z"/><path id="svg_34" d="m384.9,236.049999a16.23,16.23 0 0 0 -2.22,0.28c-1.24,-3.34 -3.48,-8.55 -4.91,-11.87a2.25,2.25 0 0 0 0.87,-1.24l6.26,12.83z"/><path id="svg_35" d="m392.75,236.909999a22.74,22.74 0 0 0 -2.39,-8.36c-2,-3.51 -7.57,-7.92 -11.65,-8.36c0.14,-5.56 3.36,-4.28 3.36,-4.28c8.39,-2.06 16.19,14.41 16.19,14.41s1.14,7.39 -5.51,6.59z"/><path id="svg_36" d="m392.75,236.909999a22.74,22.74 0 0 0 -2.39,-8.36c-2,-3.51 -7.57,-7.92 -11.65,-8.36c0.14,-5.56 3.36,-4.28 3.36,-4.28c8.39,-2.06 16.19,14.41 16.19,14.41s1.14,7.39 -5.51,6.59z" opacity=".1"/><path id="svg_37" d="m222.33,306.919999c-16.14,-1.37 -20.56,-23.52 -20.56,-23.52c8.9,9.72 17.82,10.44 17.82,10.44a11.34,11.34 0 0 1 0.68,5.31c-0.18,3.57 2.06,7.77 2.06,7.77z" opacity=".1"/></g><path id="svg_38" fill="#673fbd" d="m376.3,244.149999c-0.09,0.61 -0.19,1.22 -0.28,1.85a60.07,60.07 0 0 1 -4.45,13.88c-0.19,0.42 -0.38,0.86 -0.59,1.28c-0.44,1 -0.93,2 -1.45,2.94c-16.3,31.28 -57.65,61.91 -93.84,66.16a64.26,64.26 0 0 1 -16.4,0c-46.32,-6.29 -79.29,-45.11 -73.66,-86.69c4.58,-33.64 33,-58.8 68.27,-63.83c1.09,-0.16 2.19,-0.3 3.31,-0.42a93.53,93.53 0 0 1 22.52,0.33c15.49,2.08 32.05,5.35 47,10.33q4.73,1.58 9.22,3.38c0.8,0.31 1.59,0.66 2.36,1c1.45,0.61 2.88,1.27 4.28,1.92c1.12,0.51 2.19,1.05 3.27,1.59c10.91,5.54 19.83,12.47 25.23,21.12a35.55,35.55 0 0 1 5.23,14.64a40.23,40.23 0 0 1 -0.02,10.52z"/><path id="svg_39" fill="#673fbd" d="m392.75,232.239999a9.11,9.11 0 0 1 -1.76,-0.35a17.67,17.67 0 0 0 -6.09,-0.52a18,18 0 0 0 -2.22,0.29a27.37,27.37 0 0 0 -6.31,1.93a27.7,27.7 0 0 0 -2.85,1.45l-7.47,-18.64a39.15,39.15 0 0 0 5.09,2.55c2.45,1 5.18,1.77 6.63,0.84a2.25,2.25 0 0 0 0.87,-1.24a4.05,4.05 0 0 0 0.11,-1.45c0,-0.58 0,-1.1 0,-1.59c0.14,-5.56 3.36,-4.27 3.36,-4.27c8.39,-2.06 16.19,14.41 16.19,14.41s1.1,7.38 -5.55,6.59z"/><path id="svg_40" fill="#444053" d="m384.9,231.369999a18,18 0 0 0 -2.22,0.29c-1.24,-3.35 -3.48,-8.55 -4.91,-11.87a2.25,2.25 0 0 0 0.87,-1.24l6.26,12.82z"/><path id="svg_41" fill="#673fbd" d="m392.75,232.239999a22.69,22.69 0 0 0 -2.39,-8.36c-2,-3.51 -7.57,-7.92 -11.65,-8.37c0.14,-5.56 3.36,-4.27 3.36,-4.27c8.39,-2.06 16.19,14.41 16.19,14.41s1.14,7.38 -5.51,6.59z"/><path id="svg_42" d="m392.75,232.239999a22.69,22.69 0 0 0 -2.39,-8.36c-2,-3.51 -7.57,-7.92 -11.65,-8.37c0.14,-5.56 3.36,-4.27 3.36,-4.27c8.39,-2.06 16.19,14.41 16.19,14.41s1.14,7.38 -5.51,6.59z" opacity=".1"/><path id="svg_43" fill="#fff" d="m201.76,278.719999s4.42,22.15 20.57,23.54c0,0 -2.24,-4.21 -2.05,-7.79a11.38,11.38 0 0 0 -0.68,-5.31s-8.93,-0.7 -17.84,-10.44z" opacity=".1"/><g id="svg_44" opacity=".1"><path id="svg_45" d="m231.21,89.879999a11.48,11.48 0 0 1 -4,3.57c-3.06,1.87 -5.28,6.08 -5.28,6.08c-8,-14.11 7.85,-30.26 7.85,-30.26c-3.01,12.85 1.43,20.61 1.43,20.61z"/><path id="svg_46" d="m338.36,194.319999q3.9,1.65 7.55,3.51a70,70 0 0 1 -9.34,1.73c-25.23,3 -57.54,-4.89 -82.58,-19.84a93,93 0 0 1 25.83,-0.09c15.49,2.08 32.05,5.35 47,10.33c3.95,1.33 7.83,2.75 11.54,4.36z"/><path id="svg_47" d="m374.69,175.379999a35.86,35.86 0 0 1 -9.12,12.59a23.19,23.19 0 0 0 -2.8,-1.54l11.17,-16.73a39.2,39.2 0 0 0 0.75,5.68z"/><path id="svg_48" d="m384.45,201.539999s-5.44,5.12 -8.55,-0.81a12.38,12.38 0 0 1 -0.7,-1.66a17.93,17.93 0 0 0 -3,-5.33c-0.47,-0.58 -1,-1.14 -1.47,-1.66a26.91,26.91 0 0 0 -5.17,-4.11a23.19,23.19 0 0 0 -2.8,-1.54l11.17,-16.73a39.2,39.2 0 0 0 0.77,5.68c0.54,2.62 1.47,5.28 3.06,6a2.23,2.23 0 0 0 1.49,0a3.82,3.82 0 0 0 1.27,-0.71c0.46,-0.35 0.88,-0.67 1.28,-0.93c4.67,-3 5.42,0.35 5.42,0.35c6.44,5.73 -2.77,21.45 -2.77,21.45z"/><path id="svg_49" d="m379.24,181.339999l-7.05,12.4c-0.47,-0.58 -1,-1.14 -1.47,-1.66c2.05,-2.92 5.09,-7.71 7,-10.74a2.23,2.23 0 0 0 1.52,0z"/><path id="svg_50" d="m384.45,201.539999s-5.44,5.12 -8.55,-0.81a22.69,22.69 0 0 0 5.56,-6.69c1.76,-3.64 2.27,-10.72 0.33,-14.34c4.67,-3 5.42,0.35 5.42,0.35c6.45,5.77 -2.76,21.49 -2.76,21.49z"/><path id="svg_51" d="m384.45,201.539999s-5.44,5.12 -8.55,-0.81a22.69,22.69 0 0 0 5.56,-6.69c1.76,-3.64 2.27,-10.72 0.33,-14.34c4.67,-3 5.42,0.35 5.42,0.35c6.45,5.77 -2.76,21.49 -2.76,21.49z" opacity=".1"/><path id="svg_52" d="m231.21,89.879999a11.48,11.48 0 0 1 -4,3.57c-3.06,1.87 -5.28,6.08 -5.28,6.08c-8,-14.11 7.85,-30.26 7.85,-30.26c-3.01,12.85 1.43,20.61 1.43,20.61z" opacity=".1"/></g><path id="svg_53" fill="#673fbd" d="m374.69,173.039999a35.77,35.77 0 0 1 -9.12,12.59a39.59,39.59 0 0 1 -8.76,5.89a55.52,55.52 0 0 1 -14.15,4.72c-2,0.42 -4,0.72 -6.12,1c-0.14,0 -0.26,0 -0.4,0.05c-24.06,2.78 -54.48,-4.35 -78.87,-18c-16.61,-9.27 -30.41,-21.54 -37.54,-35.76c-20.93,-41.8 -7.5,-90.92 30,-109.73s84.92,-0.18 105.84,41.66c7,14 13.67,29.48 18,44.64c0.4,1.38 0.77,2.73 1.12,4.09c4.74,18.11 5.88,35.49 0,48.85z"/><path id="svg_54" d="m374.69,173.039999a35.77,35.77 0 0 1 -9.12,12.59a39.59,39.59 0 0 1 -8.76,5.89a55.52,55.52 0 0 1 -14.15,4.72c-2,0.42 -4,0.72 -6.12,1c-0.14,0 -0.26,0 -0.4,0.05c-24.06,2.78 -54.48,-4.35 -78.87,-18c-16.61,-9.27 -30.41,-21.54 -37.54,-35.76c-20.93,-41.8 -7.5,-90.92 30,-109.73s84.92,-0.18 105.84,41.66c7,14 13.67,29.48 18,44.64c0.4,1.38 0.77,2.73 1.12,4.09c4.74,18.11 5.88,35.49 0,48.85z" opacity=".1"/><path id="svg_55" fill="#673fbd" d="m384.45,199.209999s-5.44,5.11 -8.55,-0.82a11.85,11.85 0 0 1 -0.7,-1.66a18.06,18.06 0 0 0 -3,-5.33a21.31,21.31 0 0 0 -1.47,-1.65a27,27 0 0 0 -5.17,-4.12a25.1,25.1 0 0 0 -2.8,-1.54l11.17,-16.72a39.15,39.15 0 0 0 0.77,5.67c0.54,2.62 1.47,5.28 3.06,6a2.17,2.17 0 0 0 1.49,0a4,4 0 0 0 1.27,-0.7c0.46,-0.35 0.88,-0.68 1.28,-0.94c4.67,-3 5.42,0.35 5.42,0.35c6.44,5.71 -2.77,21.46 -2.77,21.46z"/><path id="svg_56" fill="#444053" d="m379.24,178.999999l-7.05,12.4a21.31,21.31 0 0 0 -1.47,-1.65c2.05,-2.92 5.09,-7.71 7,-10.75a2.17,2.17 0 0 0 1.52,0z"/><path id="svg_57" fill="#673fbd" d="m384.45,199.209999s-5.44,5.11 -8.55,-0.82a22.63,22.63 0 0 0 5.56,-6.68c1.76,-3.65 2.27,-10.72 0.33,-14.35c4.67,-3 5.42,0.35 5.42,0.35c6.45,5.75 -2.76,21.5 -2.76,21.5z"/><path id="svg_58" d="m384.45,199.209999s-5.44,5.11 -8.55,-0.82a22.63,22.63 0 0 0 5.56,-6.68c1.76,-3.65 2.27,-10.72 0.33,-14.35c4.67,-3 5.42,0.35 5.42,0.35c6.45,5.75 -2.76,21.5 -2.76,21.5z" opacity=".1"/><path id="svg_59" fill="#fff" d="m229.77,66.929999s-15.8,16.15 -7.83,30.27c0,0 2.21,-4.23 5.28,-6.09a11.41,11.41 0 0 0 4,-3.56s-4.46,-7.77 -1.45,-20.62z" opacity=".1"/><path id="svg_60" fill="#673fbd" d="m673.1,201.799999c-5.23,41.66 -47.07,70.66 -93.47,64.87c-22.52,-2.82 -47.32,-8.06 -66.27,-17.49c-11,-5.47 -20,-12.32 -25.46,-20.94a35.84,35.84 0 0 1 -5.42,-14.57a40.55,40.55 0 0 1 0,-10.56c1.26,-10.07 6,-20.72 13.1,-31c22.27,-32.19 67.84,-60.69 103,-56.26c46.37,5.82 79.76,44.3 74.52,85.95z"/><path id="svg_61" fill="#673fbd" d="m493.04,230.769999a39.51,39.51 0 0 0 -5.14,-2.53c-2.48,-1 -5.21,-1.72 -6.64,-0.77a2,2 0 0 0 -0.86,1.27a4.34,4.34 0 0 0 -0.12,1.42c0,0.58 0.07,1.12 0.07,1.59c-0.07,5.58 -3.32,4.32 -3.32,4.32c-8.36,2.15 -16.33,-14.27 -16.33,-14.27s-1.21,-7.36 5.45,-6.64a11.79,11.79 0 0 1 1.75,0.33a17.36,17.36 0 0 0 6.12,0.47a17.92,17.92 0 0 0 2.2,-0.31a28.39,28.39 0 0 0 6.26,-2a25.2,25.2 0 0 0 2.87,-1.5l7.69,18.62z"/><path id="svg_62" fill="#444053" d="m481.26,227.459999a2,2 0 0 0 -0.86,1.27l-6.38,-12.78a17.92,17.92 0 0 0 2.2,-0.31c1.28,3.35 3.57,8.54 5.04,11.82z"/><path id="svg_63" fill="#673fbd" d="m480.35,231.749999c-0.07,5.58 -3.32,4.32 -3.32,4.32c-8.36,2.15 -16.33,-14.27 -16.33,-14.27s-1.21,-7.36 5.45,-6.64a22.28,22.28 0 0 0 2.47,8.32c2.04,3.5 7.64,7.87 11.73,8.27z"/><path id="svg_64" d="m480.35,231.749999c-0.07,5.58 -3.32,4.32 -3.32,4.32c-8.36,2.15 -16.33,-14.27 -16.33,-14.27s-1.21,-7.36 5.45,-6.64a22.28,22.28 0 0 0 2.47,8.32c2.04,3.5 7.64,7.87 11.73,8.27z" opacity=".1"/><path id="svg_65" fill="#fff" d="m656.67,166.799999s-4.64,-22.11 -20.8,-23.34c0,0 2.27,4.19 2.12,7.78a11.41,11.41 0 0 0 0.74,5.3s8.93,0.62 17.94,10.26z" opacity=".1"/><path id="svg_66" d="m513.36,249.179999c-11,-5.47 -20,-12.32 -25.46,-20.94c-2.48,-1 -5.21,-1.72 -6.64,-0.77a2,2 0 0 0 -0.86,1.27a4.34,4.34 0 0 0 -0.12,1.42c0,0.58 0.07,1.12 0.07,1.59c-0.07,5.58 -3.32,4.32 -3.32,4.32c-8.36,2.15 -16.33,-14.27 -16.33,-14.27s-1.21,-7.36 5.45,-6.64a11.79,11.79 0 0 1 1.75,0.33a17.36,17.36 0 0 0 6.12,0.47a17.92,17.92 0 0 0 2.2,-0.31a28.39,28.39 0 0 0 6.26,-2a40.55,40.55 0 0 1 0,-10.56c1.26,-10.07 6,-20.72 13.1,-31c11.92,25.67 21.4,54.78 17.78,77.09z" opacity=".1"/><path id="svg_67" d="m481.87,281.759999a54.51,54.51 0 0 1 -6.5,2.53a61.67,61.67 0 0 1 -6.16,1.61l-1.38,0.28c-1.8,0.33 -3.67,0.61 -5.56,0.82c-1.43,0.18 -2.87,0.3 -4.35,0.39c-27.7,1.8 -62.44,-8.52 -86.9,-26.23a92.29,92.29 0 0 1 -18.06,-16.89a63.12,63.12 0 0 1 -7.1,-11a92.55,92.55 0 0 1 -9.74,-36c-0.07,-1.33 -0.12,-2.62 -0.12,-3.93c-0.39,-29 13.58,-56 38.71,-69.19c4.72,18.15 5.84,35.53 0,48.89c0.54,2.62 1.47,5.28 3.06,6a2.17,2.17 0 0 0 1.49,0a4,4 0 0 0 1.27,-0.7c0.46,-0.35 0.88,-0.68 1.28,-0.94c4.67,-3 5.42,0.35 5.42,0.35c6.45,5.77 -2.76,21.5 -2.76,21.5s-5.44,5.11 -8.55,-0.82a11.85,11.85 0 0 1 -0.7,-1.66a18.06,18.06 0 0 0 -3,-5.33a21.31,21.31 0 0 0 -1.47,-1.65a27,27 0 0 0 -5.17,-4.12a39.59,39.59 0 0 1 -8.76,5.89a55.52,55.52 0 0 1 -14.15,4.72c1.12,0.51 2.19,1.05 3.27,1.59c10.91,5.54 19.83,12.47 25.23,21.12c2.45,1 5.18,1.77 6.63,0.84a2.25,2.25 0 0 0 0.87,-1.24a4.05,4.05 0 0 0 0.11,-1.45c0,-0.58 0,-1.1 0,-1.59c0.14,-5.56 3.36,-4.27 3.36,-4.27c8.39,-2.06 16.19,14.41 16.19,14.41s1.14,7.38 -5.51,6.59a9.11,9.11 0 0 1 -1.76,-0.35a17.67,17.67 0 0 0 -6.09,-0.52a18,18 0 0 0 -2.22,0.29a27.37,27.37 0 0 0 -6.31,1.93a40.23,40.23 0 0 1 -0.07,10.56c-0.09,0.61 -0.19,1.22 -0.28,1.85c0.19,0 0.37,0.07 0.56,0.09a250.56,250.56 0 0 1 39.83,9.28c4,1.33 7.87,2.75 11.59,4.37c2.59,1.09 5.11,2.26 7.54,3.5c10.91,5.54 19.84,12.47 25.23,21.12c2.46,1 5.19,1.77 6.64,0.84a2.19,2.19 0 0 0 0.86,-1.24a3.82,3.82 0 0 0 0.12,-1.45c0,-0.58 -0.05,-1.1 -0.05,-1.59c0.14,-5.56 3.37,-4.27 3.37,-4.27c3.64,-0.95 7.24,1.77 10.09,5.07z" opacity=".1"/><g id="svg_68" opacity=".1"><path id="svg_69" d="m364.36,170.259999a11.46,11.46 0 0 1 -4,3.55c-3.06,1.87 -5.28,6.1 -5.28,6.1c-8,-14.11 7.85,-30.25 7.85,-30.25c-3.01,12.85 1.43,20.6 1.43,20.6z"/><path id="svg_70" d="m488.76,158.139999c1.47,2.94 2.94,6 4.37,9c-9.53,11.59 -20.23,20.37 -31.87,23.71c-1.65,2.1 -3.08,4.51 -2.59,6.14a2,2 0 0 0 1,1.17a3.73,3.73 0 0 0 1.35,0.52a13.34,13.34 0 0 1 1.52,0.39c5.33,1.64 3.2,4.4 3.2,4.4c-0.3,8.64 -18.31,11.61 -18.31,11.61s-7.41,-0.94 -4.81,-7.11a11.33,11.33 0 0 1 0.81,-1.58a17.88,17.88 0 0 0 2.2,-5.75c0.14,-0.73 0.26,-1.45 0.33,-2.17a29.33,29.33 0 0 0 -0.14,-6.62a39,39 0 0 1 -10.12,-3c-22.71,-9.95 -42.82,-40.65 -51.63,-73c37.29,-17.75 83.95,0.92 104.69,42.29z"/><path id="svg_71" d="m507.82,255.739999a35.93,35.93 0 0 1 -9.11,12.62a24.38,24.38 0 0 0 -2.8,-1.55l11.17,-16.72a41.55,41.55 0 0 0 0.74,5.65z"/><path id="svg_72" d="m517.57,281.929999s-5.44,5.11 -8.55,-0.82a10.76,10.76 0 0 1 -0.7,-1.66a17.52,17.52 0 0 0 -3,-5.32a17,17 0 0 0 -1.47,-1.66a27.31,27.31 0 0 0 -5.17,-4.11a24.38,24.38 0 0 0 -2.8,-1.55l11.17,-16.72a41.55,41.55 0 0 0 0.74,5.65c0.56,2.62 1.5,5.3 3.09,6a2.06,2.06 0 0 0 1.49,0a3.83,3.83 0 0 0 1.26,-0.7a14.9,14.9 0 0 1 1.29,-0.93c4.67,-3.06 5.42,0.35 5.42,0.35c6.48,5.75 -2.77,21.47 -2.77,21.47z"/><path id="svg_73" d="m512.41,261.719999l-7.07,12.39a21,21 0 0 0 -1.46,-1.64c2.05,-2.94 5.1,-7.72 7,-10.76a2.06,2.06 0 0 0 1.53,0.01z"/><path id="svg_74" d="m517.57,281.929999s-5.44,5.11 -8.55,-0.82a22.31,22.31 0 0 0 5.55,-6.65c1.77,-3.65 2.27,-10.72 0.34,-14.35c4.67,-3 5.43,0.35 5.43,0.35c6.48,5.74 -2.77,21.47 -2.77,21.47z"/><path id="svg_75" d="m517.57,281.929999s-5.44,5.11 -8.55,-0.82a22.31,22.31 0 0 0 5.55,-6.65c1.77,-3.65 2.27,-10.72 0.34,-14.35c4.67,-3 5.43,0.35 5.43,0.35c6.48,5.74 -2.77,21.47 -2.77,21.47z" opacity=".1"/><path id="svg_76" d="m364.36,170.259999a11.46,11.46 0 0 1 -4,3.55c-3.06,1.87 -5.28,6.1 -5.28,6.1c-8,-14.11 7.85,-30.25 7.85,-30.25c-3.01,12.85 1.43,20.6 1.43,20.6z" opacity=".1"/></g><path id="svg_77" fill="#673fbd" d="m486.43,162.809999c20.95,41.79 38.71,97.29 1.19,116.1s-116.13,-6.18 -137.08,-48s-7.51,-90.92 30,-109.73s84.94,-0.16 105.89,41.63z"/><path id="svg_78" fill="#673fbd" d="m515.26,286.609999s-5.44,5.1 -8.55,-0.83a13.94,13.94 0 0 1 -0.69,-1.65a17.65,17.65 0 0 0 -3,-5.34a19.61,19.61 0 0 0 -1.47,-1.65a28.7,28.7 0 0 0 -8,-5.66l11.18,-16.71s0.51,10.23 3.82,11.61a2.06,2.06 0 0 0 1.51,0a4.18,4.18 0 0 0 1.26,-0.71c0.46,-0.36 0.89,-0.67 1.28,-0.93c4.67,-3.05 5.43,0.34 5.43,0.34c6.46,5.79 -2.77,21.53 -2.77,21.53z"/><path id="svg_79" fill="#444053" d="m510.07,266.399999l-7.06,12.39a19.61,19.61 0 0 0 -1.47,-1.65c2,-2.93 5.1,-7.72 7,-10.76a2.06,2.06 0 0 0 1.53,0.02z"/><path id="svg_80" fill="#673fbd" d="m515.26,286.609999s-5.44,5.1 -8.55,-0.83a22.48,22.48 0 0 0 5.57,-6.68c1.76,-3.65 2.27,-10.72 0.33,-14.34c4.67,-3.05 5.43,0.34 5.43,0.34c6.45,5.77 -2.78,21.51 -2.78,21.51z"/><path id="svg_81" d="m515.26,286.609999s-5.44,5.1 -8.55,-0.83a22.48,22.48 0 0 0 5.57,-6.68c1.76,-3.65 2.27,-10.72 0.33,-14.34c4.67,-3.05 5.43,0.34 5.43,0.34c6.45,5.77 -2.78,21.51 -2.78,21.51z" opacity=".1"/><path id="svg_82" fill="#fff" d="m360.57,154.319999s-15.8,16.15 -7.83,30.27c0,0 2.22,-4.22 5.28,-6.09a11.41,11.41 0 0 0 4,-3.56s-4.45,-7.77 -1.45,-20.62z" opacity=".1"/><path id="svg_83" fill="none" stroke="#444053" stroke-miterlimit="10" d="m504.73,274.309999c-6.43,4.53 -6.85,15.39 -0.79,20.42c7.47,6.19 18.63,2.31 28.28,3.35s18.12,7.36 24.25,14.93a63.34,63.34 0 0 1 12.64,51.81c-1.89,9.21 -5.84,17.91 -7.63,27.14c-2.14,11.06 -1.09,22.48 0.26,33.67c1,8.34 2.24,16.89 6.31,24.24c6.47,11.67 19.08,18.55 31.65,23s25.87,7.2 37.58,13.59a67.5,67.5 0 0 1 32.57,41.92a6.72,6.72 0 0 1 0.1,4.2c-0.55,1.32 -2.31,2.2 -3.46,1.36"/><path id="svg_84" fill="none" stroke="#444053" stroke-miterlimit="10" d="m472.11,293.879999c-0.61,2.87 1.48,5.86 4.24,6.85a9.84,9.84 0 0 0 8.38,-1.3c3,-1.91 5.69,-5.12 9.27,-5c2.6,0.07 4.79,1.95 6.41,4s2.92,4.37 4.94,6a15,15 0 0 0 5.92,2.7a16.9,16.9 0 0 0 7.77,0.37c5.52,-1.21 9.57,-6.13 15,-7.7c7.18,-2.07 14.6,2.17 20.35,6.94c6.89,5.71 13.09,12.69 15.95,21.17c1.9,5.61 2.26,11.59 3,17.46s2.06,11.88 5.5,16.69s9.51,8.18 15.28,6.88"/><path id="svg_85" fill="url(#ed695dba-63ca-4bb5-9f87-bbf25b60f2aa)" d="m921.25,302.979999s-31.65,-17.8 -34.3,-19.61s0,-4.34 0,-4.34c-5.07,-3.26 -15.59,3.44 -15.59,3.44s3.83,0.95 7.45,2.1c-13.14,-3.43 -35.12,-9.86 -46.32,-17.09c-8.69,-5.61 -16.29,-4 -21.56,-1.2l-0.12,-0.33c-1.34,-4.17 -1.12,-8.73 -2.74,-12.81c-2,-5 -6.83,-8.53 -12.13,-9.58c-3,-0.6 -3.53,-0.29 -5.31,-2.57c-2.12,-2.72 -3.79,-3.71 -7.32,-4.47c-4,-0.85 -8,-1.7 -12.12,-1.42s-8.24,1.86 -10.67,5c-1.36,1.79 -2.11,3.95 -3.44,5.76c-6.4,8.67 -21.66,4.73 -29.81,11.89c-5,4.42 -5.81,11.66 -6.93,18.16s-3.76,13.83 -10.16,16c-3.05,1 -6.38,0.65 -9.6,0.87s-6.78,1.34 -8.19,4.16a7.41,7.41 0 0 0 -0.66,3.62a1.93,1.93 0 0 0 0,0.24l0,0.13a42.33,42.33 0 0 0 0.77,5.52c0,-0.07 0,-0.14 0,-0.21c0.36,2.43 0.37,4.68 -1.38,6.32c-3.56,3.36 -11.28,0.29 -13.5,4.6a3.86,3.86 0 0 0 -0.39,2a6.86,6.86 0 0 0 2.21,4.92c1.69,1.7 3.85,3 5.24,4.91a8,8 0 0 1 1.24,2.66a2.61,2.61 0 0 1 0.06,-0.27a8.42,8.42 0 0 1 -0.18,4.56c-11.71,-0.47 -29,-1.55 -32.53,-3.9c-5.4,-3.62 -30.72,-9.74 -30.72,-9.74l-0.29,-0.18l0,0l-0.83,-0.48l-0.78,-0.43l-0.15,-0.08c-0.3,-0.16 -0.62,-0.33 -1,-0.5l-0.07,0l-1,-0.5l-0.18,-0.08l-1.16,-0.51l-0.2,-0.09c-0.37,-0.15 -0.75,-0.3 -1.14,-0.44l-0.13,-0.05c-0.41,-0.15 -0.83,-0.28 -1.24,-0.41l-0.22,-0.06a13.08,13.08 0 0 0 -2.49,-0.47l-0.1,0l-0.49,0l-0.25,0l-0.42,0l-0.31,0.05a3,3 0 0 0 -0.32,0.06a3.72,3.72 0 0 0 -0.59,0.2a2.25,2.25 0 0 0 -0.92,1.09l-1.8,-0.69l-31.35,-12.11s-3.78,-2 -5.45,-3.26a65.21,65.21 0 0 0 -17.1,-6.38l-0.22,-0.15l0,0.1c-6.9,-1.24 -12.76,0 -10.7,8.69c4.34,18.32 28.21,16.15 28.21,16.15l33.83,14.42l2.22,0.95c-0.2,10.12 0.8,20.79 3.33,22.2a12.47,12.47 0 0 0 1.27,0.63l0.27,0.13c0.41,0.18 0.82,0.34 1.22,0.47l0.09,0c0.4,0.14 0.79,0.25 1.16,0.35l0.17,0c0.4,0.11 0.8,0.19 1.17,0.26l0,0a17.65,17.65 0 0 0 3.84,0.3l0,0l0.32,0l0.12,0l-0.19,-12.12a8.58,8.58 0 0 1 1.13,0.52l0,0a25.36,25.36 0 0 1 3.53,2.38c3,2.35 22.9,4.7 22.9,4.7s19,7.05 20.11,8.51s55.48,3.07 55.48,3.07s-7.44,16.64 13.22,33.29c0,0 3.53,21.7 1.3,27.67c-1.4,3.75 -1.71,10.64 -1.74,15.24c-6.79,2.4 -23,8.51 -27.12,13.61c-5.3,6.51 -9.49,6.51 -9.49,6.51s-5.31,10 -11.73,12.48s-27.09,13.57 -29.05,16.55s-19.27,13 -19.27,13s-17.88,14.11 -21.23,19.26s-26.81,14.93 -26.81,14.93s-6.42,9 -4.47,18.45s-15.82,4.34 -0.37,20.35c3.63,3.76 10.19,7.76 18.36,12.06c-0.58,0.35 -1.16,0.66 -1.73,0.94a15.86,15.86 0 0 1 -2.85,1.11c-9.22,2.44 -35.47,44.49 -35.47,44.49s-16.07,20.18 -28.5,27.53c-0.42,0.25 -0.84,0.48 -1.25,0.7l0,0c-1,-2.36 -4.85,-4.69 -8.77,-6.49a46.49,46.49 0 0 0 -14,-3.81c-3.17,-0.38 -7.21,-1.29 -9.78,-3.45a25.48,25.48 0 0 0 -7.82,-4.51c-3.88,-1.22 -7.08,-0.21 -5.5,7.14a60.09,60.09 0 0 0 8.38,20.53s17.23,15.1 18.81,20.44s8.75,11.31 9.87,10.58c0.36,-0.24 2.24,-1.38 4.61,-3c4.84,-3.21 11.74,-8.26 12.14,-11.15c0,-0.07 -0.8,0.08 -2,0.16c0.16,-0.3 0.35,-0.65 0.58,-1.06c2.27,-4 7.92,-13.07 14.57,-16.19l26.54,-25.44s28.21,-14.65 33,-25.5c2,-4.53 9,-11.14 16.56,-17.3l1.66,-1.35c22.48,11.08 46.25,24 56.91,39.27c15.33,22 49.93,30.11 66.15,32.76c0.1,1.26 0.18,2.47 0.23,3.6a62.91,62.91 0 0 1 -0.75,14.11c-0.84,4.88 -0.62,42.87 -0.62,42.87s1.74,19.53 -3.29,25.77c-2.58,3.21 -4.58,10.86 -5.91,17.53c-0.08,0.4 -0.15,0.8 -0.23,1.2c-2.33,1.06 -4.2,3.37 -5.22,7.51c0,0 -4.28,2.8 -3.25,13.92c0.25,2.69 0.33,5 0.45,7c0.39,6.31 1.08,9.31 7.93,9.24c9,-0.09 27.83,-9.31 27.83,-9.31a29.56,29.56 0 0 0 -0.2,-5.66a22.61,22.61 0 0 0 -3.61,-10.16l0.07,-0.19l0.21,-0.49c0.18,-0.44 0.35,-0.93 0.51,-1.43l0.06,-0.13l0,0a12.25,12.25 0 0 0 0.64,-3.55l0,-12.71s0.56,-18.45 5,-28.22c3.6,-7.87 13.18,-44.63 13.84,-63.3a40.1,40.1 0 0 0 -0.1,-5.25a2.66,2.66 0 0 0 1.9,-2.54c-0.28,-7.06 -5.86,-3.8 -3.07,-17.64s4.75,-30.93 9.77,-39.07a140.13,140.13 0 0 0 9.22,-18.72s10.61,-35.82 15.08,-44.5s21.51,-65.12 -5.58,-91.44l-1.48,-5.73s0,-0.09 0.09,-0.19l0,0c0.16,-0.35 0.6,-1.33 1.17,-2.69l0,0c0.48,-1.12 1,-2.51 1.6,-4l0,0c0.32,-0.86 0.63,-1.76 0.94,-2.67l0,0c0.45,-1.35 0.85,-2.73 1.16,-4l0,0l0.15,-0.66c8.66,2 13.89,-4.18 16,-7.43c1.17,-0.67 1.65,-1.31 1.06,-1.87c-3.35,-3.26 -0.36,-10.31 -0.36,-10.31l0.17,-30.75s3.91,-0.73 4.85,-11.58a28.09,28.09 0 0 1 7.77,-17.23c8.38,-9.21 31.64,-19.21 31.64,-19.21c16.74,-5.48 41.72,-29.44 41.72,-29.44c13.4,-11.04 -1.68,-16.04 -1.68,-16.04zm-36.68,12.41c-5.21,1.08 -16.94,6.9 -16.94,6.9s-7.06,1.78 -13.41,4.17s-14.52,-1.24 -14.52,-1.24c-4.28,-5.75 -18.8,2.5 -22.16,4.49c-2.54,1.51 -4.66,1 -7.08,-1.11a23.56,23.56 0 0 1 -2.41,-2.51a9.48,9.48 0 0 0 -2.48,-2.06a22.05,22.05 0 0 1 4.08,-5.17c3.53,-3.44 7.71,-6.21 11.27,-9.63s6.59,-7.73 6.91,-12.58c0,-0.21 0,-0.42 0,-0.63a16.55,16.55 0 0 0 -2.17,-8.67a71.27,71.27 0 0 0 8.92,1.35c8.51,0.52 19,4.79 25.26,7.74l1.29,0.61l-0.69,0.24l0.25,0.32l-0.25,0.08l0.06,0.08l0,0l0.5,0.65l0.07,0.08c0.24,0.31 0.54,0.69 0.9,1.13l0.11,0.13c0.37,0.45 0.79,0.94 1.25,1.46l0.12,0.14c0.47,0.53 1,1.08 1.51,1.63l0.14,0.14c0.48,0.49 1,1 1.49,1.46l0,0a27.61,27.61 0 0 0 2.16,1.81l0.08,0.05a16.47,16.47 0 0 0 1.82,1.18l0.18,0.1a8.42,8.42 0 0 0 0.87,0.4c5,2 7.63,-2.71 7.63,-2.71a10.38,10.38 0 0 1 2.07,0.82c5.11,2.55 7.79,8.22 3.17,9.15z"/><path id="svg_86" fill="#efb7b9" d="m883.17,288.019999l0,5.57l-23.4,6.49s-2.14,-1.21 -5.47,-2.8c-6.14,-2.95 -16.31,-7.24 -24.61,-7.76c-12.79,-0.83 -54.83,-13.48 -42.18,-16.33s11.66,0 11.66,0s12.29,-15.67 28.49,-4.92c12.3,8.18 37.95,15.33 49.57,18.3c3.68,0.89 5.94,1.45 5.94,1.45z"/><path id="svg_87" fill="#925978" d="m779.73,237.219999c-3.88,-0.85 -7.84,-1.71 -11.8,-1.43s-8,1.87 -10.41,5.06c-1.32,1.79 -2.05,4 -3.35,5.77c-6.23,8.7 -21.11,4.75 -29.05,11.93c-4.9,4.43 -5.65,11.69 -6.74,18.21s-3.67,13.87 -9.91,16.05c-3,1 -6.22,0.65 -9.35,0.86s-6.6,1.35 -8,4.17c-2.37,4.88 2.72,11.9 -1.18,15.68c-3.48,3.36 -11,0.28 -13.16,4.61c-1.06,2.12 0.13,4.71 1.77,6.42s3.75,3 5.11,4.92a8.41,8.41 0 0 1 -6.61,13.23c-2.75,0.09 -5.86,-1.09 -8.06,0.58a5.71,5.71 0 0 0 -1.82,4.76a11.8,11.8 0 0 0 12.08,11c4.67,-0.3 8.61,-3.38 12.46,-6s8.5,-5.08 13,-3.89a21.22,21.22 0 0 1 5.84,3.07a59.63,59.63 0 0 0 17.7,7.6c5.52,1.37 11.8,1.81 16.49,-1.41c5.31,-3.64 7.3,-11.09 13,-14c6,-3.05 13.11,0.17 19.29,2.85s14.27,4.49 18.92,-0.38c5,-5.25 2.11,-14.08 4.7,-20.86a19.65,19.65 0 0 1 4.68,-6.72c3.44,-3.46 7.51,-6.24 11,-9.66s6.43,-7.75 6.73,-12.62c0.38,-5.86 -3.09,-11.24 -6.83,-15.77s-8,-8.91 -9.75,-14.52c-1.3,-4.18 -1.09,-8.75 -2.67,-12.84a16.1,16.1 0 0 0 -11.82,-9.61c-3,-0.6 -3.44,-0.29 -5.18,-2.59a10.28,10.28 0 0 0 -7.08,-4.47z"/><g id="svg_88" opacity=".1"><path id="svg_89" d="m690.7,299.659999c-0.55,2.4 0.16,5.15 0.55,7.73c0.6,-2.25 -0.16,-5.01 -0.55,-7.73z"/><path id="svg_90" d="m683.68,329.949999a8,8 0 0 1 1.2,2.67a8.61,8.61 0 0 0 -1.2,-7c-1.36,-1.94 -3.46,-3.21 -5.11,-4.92a8.5,8.5 0 0 1 -1.6,-2.32a2.33,2.33 0 0 0 -0.17,0.26c-1.06,2.12 0.13,4.71 1.77,6.42s3.75,2.95 5.11,4.89z"/><path id="svg_91" d="m816.38,305.759999c-3.47,3.43 -7.54,6.2 -11,9.66a19.73,19.73 0 0 0 -4.68,6.73c-2.59,6.78 0.31,15.6 -4.7,20.85c-4.65,4.87 -12.74,3.06 -18.92,0.38s-13.29,-5.9 -19.29,-2.85c-5.73,2.92 -7.72,10.38 -13,14c-4.69,3.22 -11,2.78 -16.49,1.41a59.63,59.63 0 0 1 -17.7,-7.6a21.22,21.22 0 0 0 -5.84,-3.07c-4.52,-1.19 -9.16,1.25 -13,3.9s-7.79,5.72 -12.46,6c-5.39,0.35 -10.58,-3.81 -11.81,-9a7.86,7.86 0 0 0 -0.27,2.31a11.81,11.81 0 0 0 12.08,11c4.67,-0.3 8.61,-3.38 12.46,-6s8.5,-5.08 13,-3.89a21.19,21.19 0 0 1 5.84,3.06a59.4,59.4 0 0 0 17.7,7.61c5.52,1.36 11.8,1.8 16.49,-1.41c5.31,-3.64 7.3,-11.09 13,-14c6,-3.06 13.11,0.16 19.29,2.84s14.27,4.49 18.92,-0.38c5,-5.24 2.11,-14.07 4.7,-20.85a19.82,19.82 0 0 1 4.68,-6.73c3.44,-3.45 7.51,-6.23 11,-9.65s6.43,-7.76 6.73,-12.62a13.64,13.64 0 0 0 -0.15,-3.07c-0.69,4.38 -3.39,8.25 -6.58,11.37z"/></g><path id="svg_92" fill="#4c4981" d="m823.25,438.059999l8.89,0.72s-6.7,15.13 -21,7.66s12.11,-8.38 12.11,-8.38z"/><path id="svg_93" d="m823.25,439.059999l8.89,0.72s-6.7,15.13 -21,7.66s12.11,-8.38 12.11,-8.38z" opacity=".1"/><path id="svg_94" fill="#efb7b9" d="m652.57,593.089999s-11.18,7.76 -21.43,16.39c-7.34,6.18 -14.2,12.81 -16.13,17.35c-4.67,10.89 -32.15,25.63 -32.15,25.63l-25.86,25.59c-6.47,3.13 -12,12.2 -14.19,16.24c-0.67,1.23 -1,2 -1,2l-11.7,0l-7.07,-7.08s-3.81,-17.14 8.16,-18.5a16.89,16.89 0 0 0 6.52,-2.6c12.12,-7.37 27.77,-27.61 27.77,-27.61s25.58,-42.18 34.56,-44.63a15,15 0 0 0 2.78,-1.11c8.88,-4.48 20.63,-18.21 20.63,-18.21l29.11,16.54z"/><path id="svg_95" fill="#efb7b9" d="m785.48,687.989999c-0.64,18.72 -10,55.59 -13.48,63.48c-4.36,9.8 -4.9,28.31 -4.9,28.31l0,12.79a14.79,14.79 0 0 1 -1.18,5.14a25.37,25.37 0 0 1 -1.27,2.75l-24,-4.08s0.64,-5.47 1.86,-11.81c1.3,-6.7 3.25,-14.37 5.76,-17.58c4.9,-6.26 3.2,-25.86 3.2,-25.86s-0.21,-38.1 0.61,-43a64.64,64.64 0 0 0 0.73,-14.15c-0.11,-2.54 -0.34,-5.43 -0.73,-8.71c-1.36,-11.43 0,-28.3 0,-28.3l27.49,1.36l4.62,29.94c1.11,1.74 1.46,5.19 1.29,9.72z"/><path id="svg_96" d="m542.81,694.239999c-0.67,1.23 -1,2 -1,2l-11.7,0l-7.07,-7.08s-3.81,-17.14 8.16,-18.5a16.89,16.89 0 0 0 6.52,-2.6c1.65,5 -3.61,10.13 -3.61,10.13s-2.18,2.08 -0.55,10.16c1.06,5.48 6.14,6.02 9.25,5.89z" opacity=".1"/><path id="svg_97" fill="#444053" d="m544.21,695.139999c-0.39,2.9 -7.12,8 -11.83,11.18c-2.31,1.59 -4.14,2.73 -4.49,3c-1.09,0.73 -8.08,-5.26 -9.62,-10.61s-18.33,-20.5 -18.33,-20.5a61.29,61.29 0 0 1 -8.16,-20.59c-1.54,-7.37 1.58,-8.39 5.35,-7.17a24.81,24.81 0 0 1 7.62,4.53c2.51,2.17 6.45,3.08 9.54,3.46a44.47,44.47 0 0 1 13.62,3.82c3.82,1.81 7.61,4.14 8.54,6.51c2,5.18 -3.48,10.53 -3.48,10.53s-2.18,2.08 -0.55,10.16s11.83,5.41 11.79,5.68z"/><path id="svg_98" d="m532.38,706.319999c-2.31,1.59 -4.14,2.73 -4.49,3c-1.09,0.73 -8.08,-5.26 -9.62,-10.61s-18.33,-20.5 -18.33,-20.5a61.29,61.29 0 0 1 -8.16,-20.59c-1.54,-7.37 1.58,-8.39 5.35,-7.17c1.36,5.82 4.36,17.1 8.17,22.68c4.53,6.61 22.27,27.53 27.08,33.19z" opacity=".1"/><path id="svg_99" d="m765.65,797.299999l0.27,0.41a25.37,25.37 0 0 1 -1.27,2.75l-24,-4.08s0.64,-5.47 1.86,-11.81c8.79,-3.76 23.92,10.48 23.92,10.48l-0.78,2.25z" opacity=".1"/><path id="svg_100" fill="#444053" d="m769.36,814.249999s-18.32,9.25 -27.11,9.34c-6.68,0.07 -7.35,-2.94 -7.73,-9.26c-0.11,-2 -0.2,-4.37 -0.44,-7.07c-1,-11.15 3.17,-14 3.17,-14c4.81,-20.14 29.23,2.84 29.23,2.84l-0.83,2.25a23.1,23.1 0 0 1 3.52,10.19a30.09,30.09 0 0 1 0.19,5.71z"/><path id="svg_101" d="m769.36,814.249999s-18.32,9.25 -27.11,9.34c-6.68,0.07 -7.35,-2.94 -7.73,-9.26a20.48,20.48 0 0 0 16.25,2.46a62.4,62.4 0 0 0 18.4,-8.21a30.09,30.09 0 0 1 0.19,5.67z" opacity=".1"/><path id="svg_102" fill="#efb7b9" d="m803.84,335.729999l-3.16,33.86l-0.65,7l-13.67,3.57l-14.09,3.69l-16.33,-3.62s-6.28,-14.25 -4.14,-25.85a16.56,16.56 0 0 1 6,-10.45a14.82,14.82 0 0 0 2.71,-2.72a12.94,12.94 0 0 0 2.05,-3.92a15.16,15.16 0 0 0 0.66,-5.39c-0.38,-9 -7.24,-17.9 -7.24,-17.9s31.57,-15.6 29.94,-8c-1.06,4.94 4.67,12.55 8.82,17.28c2.26,2.57 4,4.3 4,4.3l5.1,8.15z"/><circle id="svg_103" cx="768.64" cy="298.31" r="28.94" opacity=".1"/><circle id="svg_104" cx="768.64" cy="297.22" r="28.94" fill="#efb7b9"/><path id="svg_105" fill="#444053" d="m816.01,445.099999c-0.54,6.51 -5.46,17.27 -5.46,17.27l-38.79,15.09l-32.51,-26.13s0,-0.06 0,-0.18c0.52,-2.92 6.83,-39.68 -2.21,-47.36c-9.44,-8 -9.63,-33.92 -9.63,-33.92s12.16,-18.36 14.56,-22.71s20.6,-9.91 20.6,-9.91c-0.78,1.37 -1.46,2.68 -2.05,3.92a35.48,35.48 0 0 0 -3.3,10.3c-0.8,5.64 0.73,8.95 1.75,10.47a11.47,11.47 0 0 1 1.33,2.55c4.91,13.3 18.93,9.51 24.44,7.41c1.41,-0.54 2.27,-1 2.27,-1l13.72,-1.34l8.6,-0.83s4.9,68 6.53,73.29a8.14,8.14 0 0 1 0.15,3.08z"/><path id="svg_106" fill="#925978" d="m760.49,341.199999s0,0 0,0.05a41.64,41.64 0 0 0 -1.68,4l-14.84,0a42.12,42.12 0 0 1 7.79,-4l8.73,-0.05z"/><path id="svg_107" fill="#fff" d="m757.93,347.919999a27.16,27.16 0 0 0 -0.76,3.63c0,0.14 0,0.28 -0.05,0.42l-18,0c1,-1.63 1.9,-3.05 2.46,-4.05l16.35,0z"/><path id="svg_108" fill="#fff" d="m757.45,358.689999l-22.63,0c0.88,-1.36 1.77,-2.74 2.6,-4l19.52,0a15.85,15.85 0 0 0 0.51,4z"/><path id="svg_109" fill="#fff" d="m760.57,365.459999l-30.15,0c0.8,-1.2 1.7,-2.59 2.66,-4l25.49,0c0.13,0.23 0.26,0.45 0.39,0.64a11.19,11.19 0 0 1 1.33,2.54c0.07,0.22 0.18,0.5 0.28,0.82z"/><path id="svg_110" fill="#fff" d="m727.45,369.919999l0,2.22l38.7,0a12.66,12.66 0 0 1 -4.15,-4.05l-33.34,0l-1.21,1.83z"/><path id="svg_111" fill="#925978" d="m809.57,372.139999l-25.32,0l0.44,-0.16c1.41,-0.55 2.27,-1 2.27,-1l13.72,-1.34l8.6,-0.84s0.09,1.24 0.29,3.34z"/><path id="svg_112" fill="#fff" d="m810.02,378.859999l-82,0c-0.16,-1.48 -0.28,-2.84 -0.37,-4l82,0c0.16,1.16 0.26,2.52 0.37,4z"/><path id="svg_113" fill="#fff" d="m810.57,385.589999l-81.55,0c-0.25,-1.39 -0.47,-2.74 -0.64,-4l81.85,0c0.1,1.24 0.19,2.59 0.34,4z"/><path id="svg_114" fill="#fff" d="m811.05,392.309999l-80.43,0c-0.39,-1.33 -0.74,-2.69 -1,-4.05l81.16,0c0.06,1.32 0.17,2.67 0.27,4.05z"/><path id="svg_115" fill="#fff" d="m811.57,399.029999l-78.23,0a32.49,32.49 0 0 1 -1.82,-4l79.74,0c0.1,1.29 0.21,2.64 0.31,4z"/><path id="svg_116" fill="#fff" d="m812.12,405.759999l-73.42,0a7.92,7.92 0 0 0 -1.62,-1.92a14,14 0 0 1 -2,-2.12l76.72,0c0.09,1.35 0.2,2.74 0.32,4.04z"/><path id="svg_117" fill="#fff" d="m812.68,412.459999l-71.64,0a25.64,25.64 0 0 0 -1.07,-4l72.37,0c0.11,1.32 0.23,2.68 0.34,4z"/><path id="svg_118" fill="#925978" d="m813.25,419.199999l-71.45,0c-0.08,-1.39 -0.18,-2.74 -0.35,-4l71.46,0c0.11,1.33 0.22,2.68 0.34,4z"/><path id="svg_119" fill="#925978" d="m813.86,425.929999l-72,0c0,-1.36 0,-2.71 0,-4l71.59,0c0.12,1.35 0.29,2.7 0.41,4z"/><path id="svg_120" fill="#925978" d="m814.57,432.649999l-73,0c0.1,-1.32 0.17,-2.68 0.24,-4l72.31,0c0.14,1.39 0.28,2.74 0.45,4z"/><path id="svg_121" fill="#925978" d="m815.31,439.369999l-74.36,0c0.14,-1.29 0.27,-2.64 0.4,-4l73.46,0c0.19,1.54 0.35,2.9 0.5,4z"/><path id="svg_122" fill="#fff" d="m816.01,445.169999c0,0.31 -0.06,0.61 -0.11,0.93l-75.81,0c0.18,-1.19 0.36,-2.56 0.53,-4l75.17,0a0.64,0.64 0 0 1 0,0.07a8.08,8.08 0 0 1 0.22,3z"/><path id="svg_123" fill="#fff" d="m815.4,448.779999c-0.31,1.31 -0.7,2.7 -1.13,4.05l-73.22,0l-1.8,-1.45s0,-0.07 0,-0.19c0.06,-0.35 0.2,-1.18 0.4,-2.41l75.75,0z"/><path id="svg_124" fill="#fff" d="m813.35,455.459999c-0.54,1.52 -1.09,2.91 -1.56,4l-62.38,0l-5,-4l68.94,0z"/><path id="svg_125" fill="#fff" d="m810.65,462.229999l-0.1,0.22l-9.85,3.82l-42.92,0l-5,-4l57.87,-0.04z"/><polygon id="svg_126" fill="#925978" points="793.81 468.95 783.39 472.99 766.14 472.99 761.11 468.95 793.81 468.95"/><polygon id="svg_127" fill="#925978" points="776.47 475.68 771.75 477.51 769.48 475.68 776.47 475.68"/><path id="svg_128" d="m816.01,445.099999c-6.31,1.49 -12.17,2.58 -12.17,2.58l-33.17,3.08l-4.57,-34.48s6.35,-7.62 12.16,-10.51c5.48,-2.75 11.47,-9.71 8.1,-25.65c-0.19,-0.91 -0.41,-1.86 -0.67,-2.84a36.48,36.48 0 0 1 -1,-5.38c-1.39,-12.57 4.64,-20.46 6.37,-22.43c0.28,-0.33 0.44,-0.49 0.44,-0.49l2.1,-25.73a9.37,9.37 0 0 1 1.1,0c2.26,2.57 4,4.3 4,4.3l5.09,8.17l-3.16,33.86l8.6,-0.83s4.9,68 6.53,73.29a8.14,8.14 0 0 1 0.25,3.06z" opacity=".1"/><path id="svg_129" fill="#ea475d" d="m844.3,367.759999a28.39,28.39 0 0 0 -7.62,17.23c-0.91,10.88 -4.72,11.61 -4.72,11.61l-0.18,30.86s-2.91,7.08 0.36,10.34s-27.21,8.9 -27.21,8.9l-33.17,3.08l-4.57,-34.48s6.35,-7.62 12.15,-10.51s12.16,-10.53 7.44,-28.49c-4.12,-15.7 3.4,-25.57 5.37,-27.81c0.28,-0.33 0.44,-0.49 0.44,-0.49l2.1,-25.73s5.7,-0.4 9.15,3.77a23.81,23.81 0 0 0 2.35,2.53c2.36,2.15 4.42,2.62 6.9,1.11c3.27,-2 17.42,-10.28 21.59,-4.51s9.62,42.59 9.62,42.59z"/><path id="svg_130" fill="#4c4981" d="m806.19,329.549999l-3.42,17.57l-10.62,2.34c0.28,-0.33 0.44,-0.49 0.44,-0.49l2.1,-25.73s5.7,-0.4 9.15,3.77a23.81,23.81 0 0 0 2.35,2.54z"/><path id="svg_131" d="m806.19,329.549999l-3.42,17.57l-10.62,2.34c0.28,-0.33 0.44,-0.49 0.44,-0.49l2.1,-25.73s5.7,-0.4 9.15,3.77a23.81,23.81 0 0 0 2.35,2.54z" opacity=".1"/><path id="svg_132" d="m883.17,288.019999l0,5.57l-23.4,6.49s-2.14,-1.21 -5.47,-2.8c2.53,-0.9 14,-5 19.92,-7.77c2.19,-1 3.64,-1.82 3.64,-2.22c0,-0.22 -0.23,-0.46 -0.63,-0.72c3.68,0.89 5.94,1.45 5.94,1.45z" opacity=".1"/><path id="svg_133" fill="#ea475d" d="m915.77,319.939999s-24.34,24 -40.64,29.53c0,0 -22.67,10 -30.83,19.29l-15.24,-37.56l5.62,-5.05s8,3.59 14.15,1.24s13.06,-4.15 13.06,-4.15s11.43,-5.83 16.51,-6.92c4.5,-1 1.89,-6.62 -3.05,-9.16a10.91,10.91 0 0 0 -2,-0.82s-2.54,4.72 -7.43,2.72a17.53,17.53 0 0 1 -5,-3.55a0,0 0 0 1 0,0a56.19,56.19 0 0 1 -6,-6.95s13.7,-4.85 20.42,-7.94c2.19,-1 3.64,-1.82 3.64,-2.22c0,-1.64 -13.42,-5.08 -13.42,-5.08s10.25,-6.71 15.19,-3.45c0,0 -2.58,2.54 0,4.36s33.42,19.67 33.42,19.67s14.67,4.98 1.6,16.04z"/><path id="svg_134" d="m890.02,303.069999l-14.67,4.09a10.91,10.91 0 0 0 -2,-0.82s-2.54,4.72 -7.43,2.72a17.53,17.53 0 0 1 -5,-3.55a0,0 0 0 1 0,0a55.92,55.92 0 0 1 -4.92,-5.86s13.69,-4.85 20.42,-7.94l13.6,11.36z" opacity=".1"/><path id="svg_135" fill="#4c4981" d="m888.93,301.979999l-15.61,4.36s-2.54,4.72 -7.43,2.72s-11,-10.52 -11,-10.52s13.7,-4.85 20.42,-7.94l13.62,11.38z"/><path id="svg_136" fill="#fff" d="m888.93,301.569999l-15.61,4.36s-2.54,4.72 -7.43,2.72s-11,-10.52 -11,-10.52s13.7,-4.85 20.42,-7.94l13.62,11.38z" opacity=".1"/><path id="svg_137" d="m623.41,576.459999l29.16,16.63s-11.18,7.76 -21.43,16.39c-10.62,-5.32 -20.62,-10.22 -28.32,-14.78c8.84,-4.48 20.59,-18.24 20.59,-18.24z" opacity=".1"/><path id="svg_138" d="m785.48,687.989999c-7.71,0.57 -20,-2.1 -20,-2.1s-5,-0.44 -12.61,-1.91c-0.11,-2.54 -0.34,-5.43 -0.73,-8.71c-1.36,-11.43 0,-28.3 0,-28.3l27.49,1.36l4.62,29.94c1.05,1.74 1.4,5.19 1.23,9.72z" opacity=".1"/><path id="svg_139" fill="#f7ce53" d="m817.44,558.889999c-4.35,8.71 -14.69,44.63 -14.69,44.63a142.57,142.57 0 0 1 -9,18.78c-4.9,8.16 -6.81,25.3 -9.53,39.18s2.72,10.62 3,17.69s-26.13,1.36 -26.13,1.36s-53.07,-4.62 -72.93,-34s-86.52,-49.82 -101.59,-65.87s2.27,-10.89 0.36,-20.41s4.35,-18.51 4.35,-18.51s22.86,-9.8 26.13,-15s20.69,-19.28 20.69,-19.28s16.88,-10.07 18.78,-13.06s22,-14.15 28.3,-16.6s11.39,-12.53 11.39,-12.53s4.09,0 9.26,-6.53s29.39,-14.7 29.39,-14.7c46.57,25.58 75.35,17.33 75.35,17.33l1.45,5.8c26.38,26.4 9.78,83.01 5.42,91.72z"/><path id="svg_140" d="m812,468.169999s-35.1,16.88 -76.74,-23.13c46.53,25.58 75.31,17.33 75.31,17.33l1.43,5.8z" opacity=".1"/><path id="svg_141" d="m751.57,497.289999s-40,77.56 -42.73,80.56s40.02,-81.1 42.73,-80.56z" opacity=".1"/><path id="svg_142" d="m773.63,488.859999s-27.21,57.42 -25.58,64.5c0,0 26.4,-55.25 25.58,-64.5z" opacity=".1"/><path id="svg_143" d="m795.4,500.829999s-2.43,30.45 9.25,46l-9.25,-46z" opacity=".1"/><path id="svg_144" d="m808.74,500.829999s3.76,25.58 7.32,30.48l-7.32,-30.48z" opacity=".1"/><polygon id="svg_145" points="722.19 488.86 679.19 512.54 696.06 512.54 722.19 488.86" opacity=".1"/><path id="svg_146" d="m785.51,278.819999c-2.08,1.8 -3.64,4.46 -6.3,5.17c-1.89,0.5 -3.87,-0.12 -5.75,-0.66c-4.76,-1.37 -10.07,-2.22 -14.54,-0.07c-6.37,3.07 -9,11.22 -15.37,14.34a11.86,11.86 0 0 1 -10.08,0.2a11.74,11.74 0 0 1 -6.12,-6.49c-1.86,-4.92 -0.1,-10.67 3.34,-14.65s8.32,-6.43 13.26,-8.23c12.92,-4.7 26.89,-5.51 40.63,-6.27a6,6 0 0 1 3.28,0.43c2.27,1.26 6.82,8.55 6.42,11.28c-0.53,3.59 -8.77,1.99 -8.77,4.95z" opacity=".1"/><path id="svg_147" fill="#925978" d="m785.51,277.729999c-2.08,1.81 -3.64,4.46 -6.3,5.17c-1.89,0.51 -3.87,-0.11 -5.75,-0.66c-4.76,-1.37 -10.07,-2.22 -14.54,-0.07c-6.37,3.07 -9,11.23 -15.37,14.34a11.93,11.93 0 0 1 -6.3,1.18a11.6,11.6 0 0 1 -3.78,-1a11.74,11.74 0 0 1 -6.12,-6.49c-1.86,-4.92 -0.1,-10.67 3.34,-14.64s8.32,-6.44 13.26,-8.24c12.92,-4.7 26.89,-5.51 40.63,-6.27a6,6 0 0 1 3.28,0.44c2.27,1.26 6.82,8.54 6.42,11.27c-0.53,3.7 -8.77,2.01 -8.77,4.97z"/><path id="svg_148" fill="#efb7b9" d="m612.79,321.759999l-2,18.09l-6.09,-2.66l-33,-14.47s-23.26,2.18 -27.49,-16.2s25.72,-3.54 27.35,-2.31s5.31,3.25 5.31,3.25l30.55,12.15l5.37,2.15z"/><path id="svg_149" d="m612.79,321.759999l-2,18.09l-6.09,-2.66c0.22,-8.1 1.2,-15.65 2.76,-17.56l5.33,2.13z" opacity=".1"/><path id="svg_150" d="m778.62,416.649999l-1.45,37.37l-37.88,-2.9c0.52,-2.92 6.83,-39.68 -2.21,-47.36c-9.44,-8 -9.63,-33.92 -9.63,-33.92s12.12,-18.33 14.52,-22.68s20.6,-9.91 20.6,-9.91a15.16,15.16 0 0 0 0.66,-5.39a20.81,20.81 0 0 1 1.93,3.71c0.82,6.68 -1.24,11.6 -7.94,15.9c-0.59,0.38 -1.21,0.75 -1.87,1.12c-1.07,0.59 -2.23,1.18 -3.5,1.75l-0.57,0.26c-11.43,5.08 -13.07,12.52 -13.07,12.52a27.41,27.41 0 0 0 -2.9,19.88c2.67,11.17 43.31,29.65 43.31,29.65z" opacity=".1"/><path id="svg_151" fill="#ea475d" d="m776.44,416.649999l-1.45,37.37l-42.64,-3.26s-0.54,-14 1.63,-20s-1.26,-27.75 -1.26,-27.75c-20.14,-16.7 -12.89,-33.39 -12.89,-33.39s-53,-1.63 -54.06,-3.08s-19.59,-8.54 -19.59,-8.54s-19.42,-2.35 -22.32,-4.71a22.72,22.72 0 0 0 -3.44,-2.38a9.13,9.13 0 0 0 -1.09,-0.53l0.18,12.16a2.93,2.93 0 0 1 -0.42,0l-0.23,0a17.15,17.15 0 0 1 -8.79,-2.08c-4.71,-2.72 -4,-39.38 0,-41.18a4.86,4.86 0 0 1 2.4,-0.33c3.27,0.23 7.6,2.54 9.58,3.68l0.8,0.48l0.29,0.18s24.67,6.14 29.93,9.77s42.5,4.19 42.5,4.19s16.87,1.74 18.69,-0.89s26.3,-9.7 28.84,-6.43s8.3,2 8.3,2c3.49,-5.28 6.58,-3.81 8.68,-1.33a19.18,19.18 0 0 1 2.89,5c0.9,7.27 -1.62,12.45 -9.81,17c-1.23,0.68 -2.58,1.35 -4.07,2c-11.43,5.08 -13.06,12.52 -13.06,12.52a27.39,27.39 0 0 0 -2.91,19.88c2.68,11.17 43.32,29.65 43.32,29.65z"/><path id="svg_152" d="m612.47,318.899999a3.66,3.66 0 0 0 -1.31,0.33c-4,1.8 -4.71,38.46 0,41.18a17.1,17.1 0 0 0 7.7,2.21l0.23,0a2.93,2.93 0 0 0 0.42,0l-0.18,-12.16a9.13,9.13 0 0 1 1.09,0.53l0,-0.53a31.4,31.4 0 0 1 2.44,-27.36l-10.39,-4.2z" opacity=".1"/><path id="svg_153" fill="#4c4981" d="m619.33,350.459999l0.18,12.16a16.85,16.85 0 0 1 -9.44,-2.16c-4.71,-2.72 -4,-39.38 0,-41.18c3.15,-1.44 9.45,1.89 12,3.35a31.39,31.39 0 0 0 -2.74,27.83z"/><path id="svg_154" fill="#fff" stroke="null" d="m619.33,350.459999l0.18,12.16a16.85,16.85 0 0 1 -9.44,-2.16c-4.71,-2.72 -4,-39.38 0,-41.18c3.15,-1.44 9.45,1.89 12,3.35a31.39,31.39 0 0 0 -2.74,27.83z" opacity=".1"/><path id="svg_155" fill="#4c4981" d="m753.12,352.589999l-6.7,-4.83l13.62,-17.17a19.18,19.18 0 0 1 2.89,5c0.9,7.25 -1.62,12.43 -9.81,17z"/><path id="svg_156" fill="#ea475d" fill-opacity="0" d="m753.12,352.199999l-6.7,-4.83l13.62,-17.17a19.35,19.35 0 0 1 2.89,5c0.9,7.26 -1.62,12.43 -9.81,17z" opacity=".1"/><path id="svg_157" d="m785.51,275.559999c-2.08,1.8 -3.65,4.45 -6.3,5.16c-1.89,0.51 -3.87,-0.11 -5.75,-0.65c-4.77,-1.38 -10.08,-2.23 -14.55,-0.07c-6.36,3.07 -9,11.22 -15.37,14.34a12,12 0 0 1 -6.29,1.17a11.6,11.6 0 0 1 -9.9,-7.46a11.64,11.64 0 0 1 -0.7,-3.16a12.1,12.1 0 0 0 0.7,5.33a11.7,11.7 0 0 0 6.12,6.49a11.54,11.54 0 0 0 3.78,1a11.9,11.9 0 0 0 6.29,-1.18c6.35,-3.11 9,-11.27 15.37,-14.34c4.47,-2.15 9.78,-1.3 14.55,0.07c1.88,0.55 3.86,1.17 5.75,0.66c2.65,-0.71 4.22,-3.36 6.3,-5.17c0,-3 8.24,-1.32 8.77,-4.95a4.44,4.44 0 0 0 -0.17,-1.62c-1.27,2.88 -8.6,1.59 -8.6,4.38z" opacity=".1"/><path id="svg_158" d="m771.76,361.319999s4.52,8.84 0.72,12.51c0,0 3,-12.88 5.72,-13" opacity=".1"/><path id="svg_159" fill="#efb7b9" d="m554.66,297.709999s23.72,15.67 8.7,20.64s-8.7,-20.64 -8.7,-20.64z"/></g></svg>