<svg id="819bc1d1-bb32-4204-a2d7-7c72ad58381f" data-name="Layer 1" xmlns="http://www.w3.org/2000/svg" xmlns:xlink="http://www.w3.org/1999/xlink" width="1011.13" height="844.93" viewBox="0 0 1011.13 844.93"><defs><linearGradient id="ed695dba-63ca-4bb5-9f87-bbf25b60f2aa" x1="802.36" y1="848.69" x2="802.36" y2="262.58" gradientUnits="userSpaceOnUse"><stop offset="0" stop-color="gray" stop-opacity="0.25"/><stop offset="0.54" stop-color="gray" stop-opacity="0.12"/><stop offset="1" stop-color="gray" stop-opacity="0.1"/></linearGradient></defs><title>balloons</title><path d="M406.65,242.53C441,212,494.81,205.72,543.83,208.16c154,7.65,292.94,82,413.15,166,43.52,30.44,86.37,63.24,114.62,105.16,57.51,85.32,40.45,203.52-39.51,273.81-27.21,23.91-60.19,42.25-94,58.5-60.2,28.89-125.16,52.09-193.49,58.69-48.73,4.71-98,.89-146.49-5.68-135.34-18.36-268.19-59-379.54-128.39-48.83-30.45-94.86-68.32-115-117.59S96.28,507,146.15,477.84c20.62-12.06,45.28-17.5,69.42-22.62,35.54-7.53,71.65-15,103.71-30.26,33.12-15.81,72.34-46.38,65.79-81.37C378,306,372.38,273.06,406.65,242.53Z" transform="translate(-94.43 -27.54)" fill="#673fbd" opacity="0.1"/><path d="M379,797.72s-46-2.77-40.6,29.48c0,0-1.07,5.7,4.09,8.29,0,0,.08-2.39,4.72-1.58a21.85,21.85,0,0,0,5,.24,10.45,10.45,0,0,0,6.12-2.53h0s12.93-5.34,18-26.48c0,0,3.73-4.62,3.58-5.8l-7.77,3.31s2.65,5.61.57,10.26c0,0-.25-10-1.75-9.81-.3,0-4,1.94-4,1.94s4.57,9.76,1.12,16.85c0,0,1.31-12-2.55-16.15L360,808.93s5.33,10.09,1.71,18.31c0,0,.93-12.62-2.86-17.53l-5,3.87s5,9.93,2,16.75c0,0-.4-14.68-3-15.79,0,0-4.33,3.82-5,5.39,0,0,3.44,7.21,1.31,11,0,0-1.31-9.79-2.38-9.83,0,0-4.32,6.48-4.77,10.92,0,0,.19-6.61,3.72-11.54,0,0-4.17.71-6.61,3.42,0,0,.67-4.58,7.68-5,0,0,3.57-4.92,4.52-5.22,0,0-7-.58-11.19,1.29,0,0,3.72-4.32,12.47-2.36l4.89-4s-9.17-1.26-13.06.13c0,0,4.47-3.82,14.38-1l5.32-3.18s-7.82-1.69-12.48-1.08c0,0,4.92-2.65,14,.22L369.5,802s-5.73-1.12-7.41-1.3-1.76-.64-1.76-.64a19.85,19.85,0,0,1,10.76,1.2S379.17,798.23,379,797.72Z" transform="translate(-94.43 -27.54)" fill="#673fbd"/><ellipse cx="252.9" cy="810.76" rx="32.57" ry="5.51" fill="#673fbd" opacity="0.1"/><path d="M467.32,712.75s-25.95-1.57-22.89,16.61a4.44,4.44,0,0,0,2.3,4.68s0-1.35,2.66-.89a12.62,12.62,0,0,0,2.82.13,5.87,5.87,0,0,0,3.45-1.42h0s7.29-3,10.13-14.94c0,0,2.1-2.6,2-3.26l-4.38,1.87s1.49,3.15.32,5.78c0,0-.15-5.67-1-5.54-.17,0-2.27,1.1-2.27,1.1s2.57,5.5.63,9.5c0,0,.74-6.78-1.44-9.1l-3.08,1.8s3,5.68,1,10.32c0,0,.52-7.12-1.62-9.89l-2.79,2.18s2.83,5.6,1.1,9.45c0,0-.22-8.28-1.71-8.91a16.92,16.92,0,0,0-2.81,3s1.93,4.06.73,6.21c0,0-.73-5.52-1.34-5.54,0,0-2.43,3.65-2.68,6.15a13.29,13.29,0,0,1,2.09-6.51,7.33,7.33,0,0,0-3.72,1.94s.37-2.59,4.32-2.82c0,0,2-2.77,2.55-2.94,0,0-3.92-.32-6.31.73,0,0,2.1-2.44,7-1.33l2.76-2.25s-5.17-.71-7.36.07c0,0,2.52-2.15,8.1-.58l3-1.8a27,27,0,0,0-7-.6s2.77-1.5,7.92.12l2.14-1s-3.23-.64-4.17-.74-1-.36-1-.36a11.2,11.2,0,0,1,6.07.68S467.39,713,467.32,712.75Z" transform="translate(-94.43 -27.54)" fill="#673fbd"/><ellipse cx="355.01" cy="708.09" rx="18.36" ry="3.1" fill="#673fbd" opacity="0.1"/><path d="M314.17,728.52s-31.33-1.88-27.64,20.07a5.36,5.36,0,0,0,2.78,5.64s.06-1.63,3.22-1.08a14.44,14.44,0,0,0,3.4.17,7,7,0,0,0,4.16-1.72h0s8.81-3.64,12.23-18c0,0,2.54-3.14,2.44-4l-5.29,2.26s1.81,3.81.39,7c0,0-.18-6.84-1.19-6.68-.21,0-2.75,1.32-2.75,1.32s3.11,6.65.76,11.47c0,0,.89-8.18-1.73-11l-3.72,2.17s3.63,6.87,1.17,12.47c0,0,.63-8.59-1.95-11.94l-3.37,2.63s3.41,6.77,1.33,11.41c0,0-.28-10-2.07-10.75,0,0-2.95,2.6-3.4,3.67,0,0,2.34,4.91.89,7.5,0,0-.89-6.66-1.62-6.69,0,0-2.94,4.41-3.24,7.44A16,16,0,0,1,291.5,744a8.79,8.79,0,0,0-4.5,2.33s.46-3.12,5.23-3.4c0,0,2.42-3.34,3.08-3.55,0,0-4.75-.39-7.62.88,0,0,2.53-2.94,8.48-1.61L299.5,736s-6.24-.86-8.89.09c0,0,3.05-2.61,9.79-.71l3.63-2.17s-5.33-1.14-8.5-.73c0,0,3.35-1.8,9.56.15l2.59-1.16s-3.9-.77-5-.89-1.21-.44-1.21-.44a13.55,13.55,0,0,1,7.33.82S314.26,728.87,314.17,728.52Z" transform="translate(-94.43 -27.54)" fill="#673fbd"/><ellipse cx="198.15" cy="728.61" rx="22.17" ry="3.75" fill="#673fbd" opacity="0.1"/><path d="M578.15,220.81c-8.28,3.21-17.63,7.58-19.78,16.19a19.81,19.81,0,0,0,.52,10,33,33,0,0,0,15.9,19.76c9.51,5.11,21.32,5.39,30,11.75a25.84,25.84,0,0,1,10.08,16.22c.47,2.72.51,5.55,1.51,8.13,2.67,6.91,11.07,9.6,18.47,10,3.56.21,7.46.22,10.18,2.53a14.68,14.68,0,0,1,2.74,3.52c5.76,9.19,11.72,19,11.78,29.87,0,8.52-3.6,16.62-7.81,24-5.49,9.63-12.24,19.09-13.5,30.1-1.48,13,5,25.54,5.84,38.57a46,46,0,0,1-15.4,37.07" transform="translate(-94.43 -27.54)" fill="none" stroke="#444053" stroke-miterlimit="10"/><path d="M544.64,107.07c6.36,46.32,5.28,104.57-36.31,110.28S400.4,174.06,394,127.75s22.2-88.49,63.79-94.2S538.28,60.76,544.64,107.07Z" transform="translate(-94.43 -27.54)" fill="#673fbd"/><path d="M532,233.55s-6.8,3.08-7.83-3.54a12,12,0,0,1-.12-1.78,17.79,17.79,0,0,0-1.13-6,21.69,21.69,0,0,0-.86-2,28.62,28.62,0,0,0-5.73-7.93l16-12.22s-2.82,9.86-.13,12.23a2.08,2.08,0,0,0,1.42.5,4,4,0,0,0,1.42-.27c.55-.19,1.05-.34,1.51-.46,5.41-1.38,5,2.07,5,2.07C545.82,221.63,532,233.55,532,233.55Z" transform="translate(-94.43 -27.54)" fill="#673fbd"/><path d="M533.62,212.75l-10.68,9.45a21.69,21.69,0,0,0-.86-2c2.89-2.12,7.32-5.66,10.12-7.92A2.08,2.08,0,0,0,533.62,212.75Z" transform="translate(-94.43 -27.54)" fill="#444053"/><path d="M532,233.55s-6.8,3.08-7.83-3.54a22.39,22.39,0,0,0,7.42-4.52c2.85-2.89,5.61-9.42,4.94-13.47,5.41-1.38,5,2.07,5,2.07C545.82,221.63,532,233.55,532,233.55Z" transform="translate(-94.43 -27.54)" fill="#673fbd"/><path d="M532,233.55s-6.8,3.08-7.83-3.54a22.39,22.39,0,0,0,7.42-4.52c2.85-2.89,5.61-9.42,4.94-13.47,5.41-1.38,5,2.07,5,2.07C545.82,221.63,532,233.55,532,233.55Z" transform="translate(-94.43 -27.54)" opacity="0.1"/><path d="M428.25,58.47s-20.16,10.19-17.17,26.12c0,0,3.46-3.28,7-4.06A11.49,11.49,0,0,0,423,78.45S421.27,69.65,428.25,58.47Z" transform="translate(-94.43 -27.54)" fill="#fff" opacity="0.1"/><path d="M560.37,337.1a57.8,57.8,0,0,1-4.7,15.73c-.61,1.4-1.28,2.82-2,4.22-18.83,36.14-71.16,71.44-110.24,66.14-36.49-4.95-64.67-30.07-72.26-60.83-.37-1.5-.7-3-1-4.56a69.31,69.31,0,0,1-.42-21.3c4.58-33.64,33-58.8,68.26-63.83a85.75,85.75,0,0,1,9.39-.86c1.52-.07,3.06-.09,4.61-.07a91.88,91.88,0,0,1,11.84.84c2.17.3,4.39.61,6.61,1,.19,0,.37.07.56.09a250.56,250.56,0,0,1,39.83,9.28c4,1.33,7.87,2.75,11.59,4.37,2.59,1.09,5.11,2.26,7.54,3.5,10.91,5.54,19.84,12.47,25.23,21.12.54.86,1,1.73,1.5,2.64l.21.42a35,35,0,0,1,3.53,11.59A40.15,40.15,0,0,1,560.37,337.1Z" transform="translate(-94.43 -27.54)" fill="#673fbd"/><path d="M560.37,337.1a57.8,57.8,0,0,1-4.7,15.73c-.61,1.4-1.28,2.82-2,4.22-18.83,36.14-71.16,71.44-110.24,66.14-36.49-4.95-64.67-30.07-72.26-60.83-.37-1.5-.7-3-1-4.56a69.31,69.31,0,0,1-.42-21.3c4.58-33.64,33-58.8,68.26-63.83a85.75,85.75,0,0,1,9.39-.86c1.52-.07,3.06-.09,4.61-.07a91.88,91.88,0,0,1,11.84.84c2.17.3,4.39.61,6.61,1,.19,0,.37.07.56.09a250.56,250.56,0,0,1,39.83,9.28c4,1.33,7.87,2.75,11.59,4.37,2.59,1.09,5.11,2.26,7.54,3.5,10.91,5.54,19.84,12.47,25.23,21.12.54.86,1,1.73,1.5,2.64l.21.42a35,35,0,0,1,3.53,11.59A40.15,40.15,0,0,1,560.37,337.1Z" transform="translate(-94.43 -27.54)" opacity="0.1"/><path d="M576.81,325.19a9,9,0,0,1-1.75-.35,17.46,17.46,0,0,0-6.1-.51,16.63,16.63,0,0,0-2.22.28,26.77,26.77,0,0,0-6.3,1.94,25.48,25.48,0,0,0-2.85,1.44l-5.17-12.87-.07-.19-2.24-5.58a37.8,37.8,0,0,0,5.09,2.55c2.46,1,5.19,1.77,6.64.84a2.19,2.19,0,0,0,.86-1.24,3.82,3.82,0,0,0,.12-1.45c0-.58-.05-1.1-.05-1.59.14-5.56,3.37-4.27,3.37-4.27,3.71-.91,7.31,1.82,10.16,5.11.42.5.82,1,1.19,1.48a49.41,49.41,0,0,1,4.84,7.82S583.47,326,576.81,325.19Z" transform="translate(-94.43 -27.54)" fill="#673fbd"/><path d="M569,324.33a16.63,16.63,0,0,0-2.22.28c-1-2.83-2.8-7-4.2-10.21-.09-.24-.19-.45-.28-.68s-.3-.68-.42-1a2.19,2.19,0,0,0,.86-1.24l.94,1.94.37.77Z" transform="translate(-94.43 -27.54)" fill="#444053"/><path d="M576.81,325.19a22.46,22.46,0,0,0-2.38-8.36,17.8,17.8,0,0,0-3.41-4,14.14,14.14,0,0,0-1.22-1,15.44,15.44,0,0,0-7-3.37c.14-5.56,3.37-4.27,3.37-4.27,3.71-.91,7.31,1.82,10.16,5.11.42.5.82,1,1.19,1.48a49.41,49.41,0,0,1,4.84,7.82S583.47,326,576.81,325.19Z" transform="translate(-94.43 -27.54)" fill="#673fbd"/><path d="M576.81,325.19a22.46,22.46,0,0,0-2.38-8.36,17.8,17.8,0,0,0-3.41-4,14.14,14.14,0,0,0-1.22-1,15.44,15.44,0,0,0-7-3.37c.14-5.56,3.37-4.27,3.37-4.27,3.71-.91,7.31,1.82,10.16,5.11.42.5.82,1,1.19,1.48a49.41,49.41,0,0,1,4.84,7.82S583.47,326,576.81,325.19Z" transform="translate(-94.43 -27.54)" opacity="0.1"/><path d="M385.84,371.67s4.41,22.16,20.56,23.54c0,0-2.23-4.21-2-7.79a11.38,11.38,0,0,0-.68-5.31S394.74,381.4,385.84,371.67Z" transform="translate(-94.43 -27.54)" fill="#fff" opacity="0.1"/><path d="M618.61,141.36c-8.13,18.57-18.62,38.31-31.05,53.36-9.53,11.59-20.23,20.37-31.87,23.71a35.81,35.81,0,0,1-15.48,1,39,39,0,0,1-10.12-3c-22.71-9.95-42.82-40.65-51.63-73-6.09-22.43-6.77-45.58.91-63.12C498.13,37.55,544.5,16.5,583,33.34S637.36,98.54,618.61,141.36Z" transform="translate(-94.43 -27.54)" fill="#673fbd"/><path d="M618.61,141.36c-8.13,18.57-18.62,38.31-31.05,53.36-9.53,11.59-20.23,20.37-31.87,23.71a35.81,35.81,0,0,1-15.48,1,39,39,0,0,1-10.12-3c-22.71-9.95-42.82-40.65-51.63-73-6.09-22.43-6.77-45.58.91-63.12C498.13,37.55,544.5,16.5,583,33.34S637.36,98.54,618.61,141.36Z" transform="translate(-94.43 -27.54)" opacity="0.1"/><path d="M560.13,231.05c-.3,8.64-18.31,11.61-18.31,11.61s-7.41-.94-4.81-7.11a11.33,11.33,0,0,1,.81-1.58,17.88,17.88,0,0,0,2.2-5.75c.14-.73.26-1.45.33-2.17a29.33,29.33,0,0,0-.14-6.62,24.5,24.5,0,0,0-.61-3.13l20-2.1a42.18,42.18,0,0,0-3.91,4.23c-1.65,2.1-3.08,4.51-2.59,6.14a2,2,0,0,0,1,1.17,3.73,3.73,0,0,0,1.35.52,13.34,13.34,0,0,1,1.52.39C562.26,228.29,560.13,231.05,560.13,231.05Z" transform="translate(-94.43 -27.54)" fill="#673fbd"/><path d="M554.06,225.74l-14,2.48c.14-.73.26-1.45.33-2.17,3.55-.31,9.18-1,12.75-1.48A2,2,0,0,0,554.06,225.74Z" transform="translate(-94.43 -27.54)" fill="#444053"/><path d="M560.13,231.05c-.3,8.64-18.31,11.61-18.31,11.61s-7.41-.94-4.81-7.11a22.35,22.35,0,0,0,8.69,0c3.92-1,9.69-5.09,11.23-8.9C562.26,228.29,560.13,231.05,560.13,231.05Z" transform="translate(-94.43 -27.54)" fill="#673fbd"/><path d="M560.13,231.05c-.3,8.64-18.31,11.61-18.31,11.61s-7.41-.94-4.81-7.11a22.35,22.35,0,0,0,8.69,0c3.92-1,9.69-5.09,11.23-8.9C562.26,228.29,560.13,231.05,560.13,231.05Z" transform="translate(-94.43 -27.54)" opacity="0.1"/><path d="M544.72,39.15s-22.51-1.84-28.28,13.32c0,0,4.66-1,8.06.16a11.29,11.29,0,0,0,5.29.8S532.92,45,544.72,39.15Z" transform="translate(-94.43 -27.54)" fill="#fff" opacity="0.1"/><g opacity="0.1"><path d="M314.7,326.69c-.18,3.57,2.06,7.77,2.06,7.77-16.14-1.37-20.56-23.52-20.56-23.52,8.9,9.72,17.82,10.44,17.82,10.44A11.34,11.34,0,0,1,314.7,326.69Z" transform="translate(-94.43 -27.54)"/><path d="M468,267.25l-7.47-18.64a37.8,37.8,0,0,0,5.09,2.55,35.59,35.59,0,0,1,5.23,14.65A26.67,26.67,0,0,0,468,267.25Z" transform="translate(-94.43 -27.54)"/><path d="M471,273.63c-.07.89-.16,1.82-.28,2.74A57.7,57.7,0,0,1,466,292.09c-.61,1.4-1.29,2.82-2,4.23-16.14,31-56.9,61.37-92.86,66a69.1,69.1,0,0,1-1.4-25.86c4.58-33.64,33-58.8,68.26-63.83a93.1,93.1,0,0,1,25.84-.09C466.2,272.91,468.6,273.24,471,273.63Z" transform="translate(-94.43 -27.54)"/><path d="M487.18,264.45a9.11,9.11,0,0,1-1.76-.35,17.42,17.42,0,0,0-6.09-.51,16.23,16.23,0,0,0-2.22.28,28.93,28.93,0,0,0-9.16,3.38l-7.47-18.64a37.8,37.8,0,0,0,5.09,2.55c2.45,1,5.18,1.77,6.63.84a2.25,2.25,0,0,0,.87-1.24,4.05,4.05,0,0,0,.11-1.45c0-.58,0-1.09,0-1.58.14-5.56,3.36-4.28,3.36-4.28,8.39-2.06,16.19,14.41,16.19,14.41S493.83,265.25,487.18,264.45Z" transform="translate(-94.43 -27.54)"/><path d="M479.33,263.59a16.23,16.23,0,0,0-2.22.28c-1.24-3.34-3.48-8.55-4.91-11.87a2.25,2.25,0,0,0,.87-1.24Z" transform="translate(-94.43 -27.54)"/><path d="M487.18,264.45a22.74,22.74,0,0,0-2.39-8.36c-2-3.51-7.57-7.92-11.65-8.36.14-5.56,3.36-4.28,3.36-4.28,8.39-2.06,16.19,14.41,16.19,14.41S493.83,265.25,487.18,264.45Z" transform="translate(-94.43 -27.54)"/><path d="M487.18,264.45a22.74,22.74,0,0,0-2.39-8.36c-2-3.51-7.57-7.92-11.65-8.36.14-5.56,3.36-4.28,3.36-4.28,8.39-2.06,16.19,14.41,16.19,14.41S493.83,265.25,487.18,264.45Z" transform="translate(-94.43 -27.54)" opacity="0.1"/><path d="M316.76,334.46c-16.14-1.37-20.56-23.52-20.56-23.52,8.9,9.72,17.82,10.44,17.82,10.44a11.34,11.34,0,0,1,.68,5.31C314.52,330.26,316.76,334.46,316.76,334.46Z" transform="translate(-94.43 -27.54)" opacity="0.1"/></g><path d="M470.73,271.69c-.09.61-.19,1.22-.28,1.85A60.07,60.07,0,0,1,466,287.42c-.19.42-.38.86-.59,1.28-.44,1-.93,2-1.45,2.94-16.3,31.28-57.65,61.91-93.84,66.16a64.26,64.26,0,0,1-16.4,0c-46.32-6.29-79.29-45.11-73.66-86.69,4.58-33.64,33-58.8,68.27-63.83,1.09-.16,2.19-.3,3.31-.42a93.53,93.53,0,0,1,22.52.33c15.49,2.08,32.05,5.35,47,10.33q4.73,1.58,9.22,3.38c.8.31,1.59.66,2.36,1,1.45.61,2.88,1.27,4.28,1.92,1.12.51,2.19,1.05,3.27,1.59,10.91,5.54,19.83,12.47,25.23,21.12a35.55,35.55,0,0,1,5.23,14.64A40.23,40.23,0,0,1,470.73,271.69Z" transform="translate(-94.43 -27.54)" fill="#673fbd"/><path d="M487.18,259.78a9.11,9.11,0,0,1-1.76-.35,17.67,17.67,0,0,0-6.09-.52,18,18,0,0,0-2.22.29,27.37,27.37,0,0,0-6.31,1.93,27.7,27.7,0,0,0-2.85,1.45l-7.47-18.64a39.15,39.15,0,0,0,5.09,2.55c2.45,1,5.18,1.77,6.63.84a2.25,2.25,0,0,0,.87-1.24,4.05,4.05,0,0,0,.11-1.45c0-.58,0-1.1,0-1.59.14-5.56,3.36-4.27,3.36-4.27,8.39-2.06,16.19,14.41,16.19,14.41S493.83,260.57,487.18,259.78Z" transform="translate(-94.43 -27.54)" fill="#673fbd"/><path d="M479.33,258.91a18,18,0,0,0-2.22.29c-1.24-3.35-3.48-8.55-4.91-11.87a2.25,2.25,0,0,0,.87-1.24Z" transform="translate(-94.43 -27.54)" fill="#444053"/><path d="M487.18,259.78a22.69,22.69,0,0,0-2.39-8.36c-2-3.51-7.57-7.92-11.65-8.37.14-5.56,3.36-4.27,3.36-4.27,8.39-2.06,16.19,14.41,16.19,14.41S493.83,260.57,487.18,259.78Z" transform="translate(-94.43 -27.54)" fill="#673fbd"/><path d="M487.18,259.78a22.69,22.69,0,0,0-2.39-8.36c-2-3.51-7.57-7.92-11.65-8.37.14-5.56,3.36-4.27,3.36-4.27,8.39-2.06,16.19,14.41,16.19,14.41S493.83,260.57,487.18,259.78Z" transform="translate(-94.43 -27.54)" opacity="0.1"/><path d="M296.19,306.26s4.42,22.15,20.57,23.54c0,0-2.24-4.21-2.05-7.79a11.38,11.38,0,0,0-.68-5.31S305.1,316,296.19,306.26Z" transform="translate(-94.43 -27.54)" fill="#fff" opacity="0.1"/><g opacity="0.1"><path d="M325.64,117.42a11.48,11.48,0,0,1-4,3.57c-3.06,1.87-5.28,6.08-5.28,6.08-8-14.11,7.85-30.26,7.85-30.26C321.2,109.66,325.64,117.42,325.64,117.42Z" transform="translate(-94.43 -27.54)"/><path d="M432.79,221.86q3.9,1.65,7.55,3.51A70,70,0,0,1,431,227.1c-25.23,3-57.54-4.89-82.58-19.84a93,93,0,0,1,25.83-.09c15.49,2.08,32.05,5.35,47,10.33C425.2,218.83,429.08,220.25,432.79,221.86Z" transform="translate(-94.43 -27.54)"/><path d="M469.12,202.92A35.86,35.86,0,0,1,460,215.51a23.19,23.19,0,0,0-2.8-1.54l11.17-16.73A39.2,39.2,0,0,0,469.12,202.92Z" transform="translate(-94.43 -27.54)"/><path d="M478.88,229.08s-5.44,5.12-8.55-.81a12.38,12.38,0,0,1-.7-1.66,17.93,17.93,0,0,0-3-5.33c-.47-.58-1-1.14-1.47-1.66a26.91,26.91,0,0,0-5.17-4.11,23.19,23.19,0,0,0-2.8-1.54l11.17-16.73a39.2,39.2,0,0,0,.77,5.68c.54,2.62,1.47,5.28,3.06,6a2.23,2.23,0,0,0,1.49,0,3.82,3.82,0,0,0,1.27-.71c.46-.35.88-.67,1.28-.93,4.67-3,5.42.35,5.42.35C488.09,213.36,478.88,229.08,478.88,229.08Z" transform="translate(-94.43 -27.54)"/><path d="M473.67,208.88l-7.05,12.4c-.47-.58-1-1.14-1.47-1.66,2.05-2.92,5.09-7.71,7-10.74A2.23,2.23,0,0,0,473.67,208.88Z" transform="translate(-94.43 -27.54)"/><path d="M478.88,229.08s-5.44,5.12-8.55-.81a22.69,22.69,0,0,0,5.56-6.69c1.76-3.64,2.27-10.72.33-14.34,4.67-3,5.42.35,5.42.35C488.09,213.36,478.88,229.08,478.88,229.08Z" transform="translate(-94.43 -27.54)"/><path d="M478.88,229.08s-5.44,5.12-8.55-.81a22.69,22.69,0,0,0,5.56-6.69c1.76-3.64,2.27-10.72.33-14.34,4.67-3,5.42.35,5.42.35C488.09,213.36,478.88,229.08,478.88,229.08Z" transform="translate(-94.43 -27.54)" opacity="0.1"/><path d="M325.64,117.42a11.48,11.48,0,0,1-4,3.57c-3.06,1.87-5.28,6.08-5.28,6.08-8-14.11,7.85-30.26,7.85-30.26C321.2,109.66,325.64,117.42,325.64,117.42Z" transform="translate(-94.43 -27.54)" opacity="0.1"/></g><path d="M469.12,200.58A35.77,35.77,0,0,1,460,213.17a39.59,39.59,0,0,1-8.76,5.89,55.52,55.52,0,0,1-14.15,4.72c-2,.42-4,.72-6.12,1-.14,0-.26,0-.4.05-24.06,2.78-54.48-4.35-78.87-18-16.61-9.27-30.41-21.54-37.54-35.76-20.93-41.8-7.5-90.92,30-109.73S429.08,61.16,450,103c7,14,13.67,29.48,18,44.64.4,1.38.77,2.73,1.12,4.09C473.86,169.84,475,187.22,469.12,200.58Z" transform="translate(-94.43 -27.54)" fill="#673fbd"/><path d="M469.12,200.58A35.77,35.77,0,0,1,460,213.17a39.59,39.59,0,0,1-8.76,5.89,55.52,55.52,0,0,1-14.15,4.72c-2,.42-4,.72-6.12,1-.14,0-.26,0-.4.05-24.06,2.78-54.48-4.35-78.87-18-16.61-9.27-30.41-21.54-37.54-35.76-20.93-41.8-7.5-90.92,30-109.73S429.08,61.16,450,103c7,14,13.67,29.48,18,44.64.4,1.38.77,2.73,1.12,4.09C473.86,169.84,475,187.22,469.12,200.58Z" transform="translate(-94.43 -27.54)" opacity="0.1"/><path d="M478.88,226.75s-5.44,5.11-8.55-.82a11.85,11.85,0,0,1-.7-1.66,18.06,18.06,0,0,0-3-5.33,21.31,21.31,0,0,0-1.47-1.65,27,27,0,0,0-5.17-4.12,25.1,25.1,0,0,0-2.8-1.54l11.17-16.72a39.15,39.15,0,0,0,.77,5.67c.54,2.62,1.47,5.28,3.06,6a2.17,2.17,0,0,0,1.49,0,4,4,0,0,0,1.27-.7c.46-.35.88-.68,1.28-.94,4.67-3,5.42.35,5.42.35C488.09,211,478.88,226.75,478.88,226.75Z" transform="translate(-94.43 -27.54)" fill="#673fbd"/><path d="M473.67,206.54l-7.05,12.4a21.31,21.31,0,0,0-1.47-1.65c2.05-2.92,5.09-7.71,7-10.75A2.17,2.17,0,0,0,473.67,206.54Z" transform="translate(-94.43 -27.54)" fill="#444053"/><path d="M478.88,226.75s-5.44,5.11-8.55-.82a22.63,22.63,0,0,0,5.56-6.68c1.76-3.65,2.27-10.72.33-14.35,4.67-3,5.42.35,5.42.35C488.09,211,478.88,226.75,478.88,226.75Z" transform="translate(-94.43 -27.54)" fill="#673fbd"/><path d="M478.88,226.75s-5.44,5.11-8.55-.82a22.63,22.63,0,0,0,5.56-6.68c1.76-3.65,2.27-10.72.33-14.35,4.67-3,5.42.35,5.42.35C488.09,211,478.88,226.75,478.88,226.75Z" transform="translate(-94.43 -27.54)" opacity="0.1"/><path d="M324.2,94.47s-15.8,16.15-7.83,30.27c0,0,2.21-4.23,5.28-6.09a11.41,11.41,0,0,0,4-3.56S321.19,107.32,324.2,94.47Z" transform="translate(-94.43 -27.54)" fill="#fff" opacity="0.1"/><path d="M767.53,229.34C762.3,271,720.46,300,674.06,294.21c-22.52-2.82-47.32-8.06-66.27-17.49-11-5.47-20-12.32-25.46-20.94a35.84,35.84,0,0,1-5.42-14.57,40.55,40.55,0,0,1,0-10.56c1.26-10.07,6-20.72,13.1-31,22.27-32.19,67.84-60.69,103-56.26C739.38,149.21,772.77,187.69,767.53,229.34Z" transform="translate(-94.43 -27.54)" fill="#673fbd"/><path d="M587.47,258.31a39.51,39.51,0,0,0-5.14-2.53c-2.48-1-5.21-1.72-6.64-.77a2,2,0,0,0-.86,1.27,4.34,4.34,0,0,0-.12,1.42c0,.58.07,1.12.07,1.59-.07,5.58-3.32,4.32-3.32,4.32-8.36,2.15-16.33-14.27-16.33-14.27s-1.21-7.36,5.45-6.64a11.79,11.79,0,0,1,1.75.33,17.36,17.36,0,0,0,6.12.47,17.92,17.92,0,0,0,2.2-.31,28.39,28.39,0,0,0,6.26-2,25.2,25.2,0,0,0,2.87-1.5Z" transform="translate(-94.43 -27.54)" fill="#673fbd"/><path d="M575.69,255a2,2,0,0,0-.86,1.27l-6.38-12.78a17.92,17.92,0,0,0,2.2-.31C571.93,246.53,574.22,251.72,575.69,255Z" transform="translate(-94.43 -27.54)" fill="#444053"/><path d="M574.78,259.29c-.07,5.58-3.32,4.32-3.32,4.32-8.36,2.15-16.33-14.27-16.33-14.27s-1.21-7.36,5.45-6.64a22.28,22.28,0,0,0,2.47,8.32C565.09,254.52,570.69,258.89,574.78,259.29Z" transform="translate(-94.43 -27.54)" fill="#673fbd"/><path d="M574.78,259.29c-.07,5.58-3.32,4.32-3.32,4.32-8.36,2.15-16.33-14.27-16.33-14.27s-1.21-7.36,5.45-6.64a22.28,22.28,0,0,0,2.47,8.32C565.09,254.52,570.69,258.89,574.78,259.29Z" transform="translate(-94.43 -27.54)" opacity="0.1"/><path d="M751.1,194.34s-4.64-22.11-20.8-23.34c0,0,2.27,4.19,2.12,7.78a11.41,11.41,0,0,0,.74,5.3S742.09,184.7,751.1,194.34Z" transform="translate(-94.43 -27.54)" fill="#fff" opacity="0.1"/><path d="M607.79,276.72c-11-5.47-20-12.32-25.46-20.94-2.48-1-5.21-1.72-6.64-.77a2,2,0,0,0-.86,1.27,4.34,4.34,0,0,0-.12,1.42c0,.58.07,1.12.07,1.59-.07,5.58-3.32,4.32-3.32,4.32-8.36,2.15-16.33-14.27-16.33-14.27s-1.21-7.36,5.45-6.64a11.79,11.79,0,0,1,1.75.33,17.36,17.36,0,0,0,6.12.47,17.92,17.92,0,0,0,2.2-.31,28.39,28.39,0,0,0,6.26-2,40.55,40.55,0,0,1,0-10.56c1.26-10.07,6-20.72,13.1-31C601.93,225.3,611.41,254.41,607.79,276.72Z" transform="translate(-94.43 -27.54)" opacity="0.1"/><path d="M576.3,309.3a54.51,54.51,0,0,1-6.5,2.53,61.67,61.67,0,0,1-6.16,1.61l-1.38.28c-1.8.33-3.67.61-5.56.82-1.43.18-2.87.3-4.35.39-27.7,1.8-62.44-8.52-86.9-26.23a92.29,92.29,0,0,1-18.06-16.89,63.12,63.12,0,0,1-7.1-11,92.55,92.55,0,0,1-9.74-36c-.07-1.33-.12-2.62-.12-3.93-.39-29,13.58-56,38.71-69.19,4.72,18.15,5.84,35.53,0,48.89.54,2.62,1.47,5.28,3.06,6a2.17,2.17,0,0,0,1.49,0,4,4,0,0,0,1.27-.7c.46-.35.88-.68,1.28-.94,4.67-3,5.42.35,5.42.35,6.45,5.77-2.76,21.5-2.76,21.5s-5.44,5.11-8.55-.82a11.85,11.85,0,0,1-.7-1.66,18.06,18.06,0,0,0-3-5.33,21.31,21.31,0,0,0-1.47-1.65,27,27,0,0,0-5.17-4.12,39.59,39.59,0,0,1-8.76,5.89,55.52,55.52,0,0,1-14.15,4.72c1.12.51,2.19,1.05,3.27,1.59,10.91,5.54,19.83,12.47,25.23,21.12,2.45,1,5.18,1.77,6.63.84a2.25,2.25,0,0,0,.87-1.24,4.05,4.05,0,0,0,.11-1.45c0-.58,0-1.1,0-1.59.14-5.56,3.36-4.27,3.36-4.27,8.39-2.06,16.19,14.41,16.19,14.41s1.14,7.38-5.51,6.59a9.11,9.11,0,0,1-1.76-.35,17.67,17.67,0,0,0-6.09-.52,18,18,0,0,0-2.22.29,27.37,27.37,0,0,0-6.31,1.93,40.23,40.23,0,0,1-.07,10.56c-.09.61-.19,1.22-.28,1.85.19,0,.37.07.56.09a250.56,250.56,0,0,1,39.83,9.28c4,1.33,7.87,2.75,11.59,4.37,2.59,1.09,5.11,2.26,7.54,3.5,10.91,5.54,19.84,12.47,25.23,21.12,2.46,1,5.19,1.77,6.64.84a2.19,2.19,0,0,0,.86-1.24,3.82,3.82,0,0,0,.12-1.45c0-.58-.05-1.1-.05-1.59.14-5.56,3.37-4.27,3.37-4.27C569.85,303.28,573.45,306,576.3,309.3Z" transform="translate(-94.43 -27.54)" opacity="0.1"/><g opacity="0.1"><path d="M458.79,197.8a11.46,11.46,0,0,1-4,3.55c-3.06,1.87-5.28,6.1-5.28,6.1-8-14.11,7.85-30.25,7.85-30.25C454.35,190.05,458.79,197.8,458.79,197.8Z" transform="translate(-94.43 -27.54)"/><path d="M583.19,185.68c1.47,2.94,2.94,6,4.37,9-9.53,11.59-20.23,20.37-31.87,23.71-1.65,2.1-3.08,4.51-2.59,6.14a2,2,0,0,0,1,1.17,3.73,3.73,0,0,0,1.35.52,13.34,13.34,0,0,1,1.52.39c5.33,1.64,3.2,4.4,3.2,4.4-.3,8.64-18.31,11.61-18.31,11.61s-7.41-.94-4.81-7.11a11.33,11.33,0,0,1,.81-1.58,17.88,17.88,0,0,0,2.2-5.75c.14-.73.26-1.45.33-2.17a29.33,29.33,0,0,0-.14-6.62,39,39,0,0,1-10.12-3c-22.71-9.95-42.82-40.65-51.63-73C515.79,125.64,562.45,144.31,583.19,185.68Z" transform="translate(-94.43 -27.54)"/><path d="M602.25,283.28a35.93,35.93,0,0,1-9.11,12.62,24.38,24.38,0,0,0-2.8-1.55l11.17-16.72A41.55,41.55,0,0,0,602.25,283.28Z" transform="translate(-94.43 -27.54)"/><path d="M612,309.47s-5.44,5.11-8.55-.82a10.76,10.76,0,0,1-.7-1.66,17.52,17.52,0,0,0-3-5.32,17,17,0,0,0-1.47-1.66,27.31,27.31,0,0,0-5.17-4.11,24.38,24.38,0,0,0-2.8-1.55l11.17-16.72a41.55,41.55,0,0,0,.74,5.65c.56,2.62,1.5,5.3,3.09,6a2.06,2.06,0,0,0,1.49,0,3.83,3.83,0,0,0,1.26-.7,14.9,14.9,0,0,1,1.29-.93c4.67-3.06,5.42.35,5.42.35C621.25,293.75,612,309.47,612,309.47Z" transform="translate(-94.43 -27.54)"/><path d="M606.84,289.26l-7.07,12.39a21,21,0,0,0-1.46-1.64c2.05-2.94,5.1-7.72,7-10.76A2.06,2.06,0,0,0,606.84,289.26Z" transform="translate(-94.43 -27.54)"/><path d="M612,309.47s-5.44,5.11-8.55-.82A22.31,22.31,0,0,0,609,302c1.77-3.65,2.27-10.72.34-14.35,4.67-3,5.43.35,5.43.35C621.25,293.74,612,309.47,612,309.47Z" transform="translate(-94.43 -27.54)"/><path d="M612,309.47s-5.44,5.11-8.55-.82A22.31,22.31,0,0,0,609,302c1.77-3.65,2.27-10.72.34-14.35,4.67-3,5.43.35,5.43.35C621.25,293.74,612,309.47,612,309.47Z" transform="translate(-94.43 -27.54)" opacity="0.1"/><path d="M458.79,197.8a11.46,11.46,0,0,1-4,3.55c-3.06,1.87-5.28,6.1-5.28,6.1-8-14.11,7.85-30.25,7.85-30.25C454.35,190.05,458.79,197.8,458.79,197.8Z" transform="translate(-94.43 -27.54)" opacity="0.1"/></g><path d="M580.86,190.35c20.95,41.79,38.71,97.29,1.19,116.1s-116.13-6.18-137.08-48-7.51-90.92,30-109.73S559.91,148.56,580.86,190.35Z" transform="translate(-94.43 -27.54)" fill="#673fbd"/><path d="M609.69,314.15s-5.44,5.1-8.55-.83a13.94,13.94,0,0,1-.69-1.65,17.65,17.65,0,0,0-3-5.34,19.61,19.61,0,0,0-1.47-1.65,28.7,28.7,0,0,0-8-5.66l11.18-16.71s.51,10.23,3.82,11.61a2.06,2.06,0,0,0,1.51,0,4.18,4.18,0,0,0,1.26-.71c.46-.36.89-.67,1.28-.93,4.67-3.05,5.43.34,5.43.34C618.92,298.41,609.69,314.15,609.69,314.15Z" transform="translate(-94.43 -27.54)" fill="#673fbd"/><path d="M604.5,293.94l-7.06,12.39a19.61,19.61,0,0,0-1.47-1.65c2-2.93,5.1-7.72,7-10.76A2.06,2.06,0,0,0,604.5,293.94Z" transform="translate(-94.43 -27.54)" fill="#444053"/><path d="M609.69,314.15s-5.44,5.1-8.55-.83a22.48,22.48,0,0,0,5.57-6.68c1.76-3.65,2.27-10.72.33-14.34,4.67-3.05,5.43.34,5.43.34C618.92,298.41,609.69,314.15,609.69,314.15Z" transform="translate(-94.43 -27.54)" fill="#673fbd"/><path d="M609.69,314.15s-5.44,5.1-8.55-.83a22.48,22.48,0,0,0,5.57-6.68c1.76-3.65,2.27-10.72.33-14.34,4.67-3.05,5.43.34,5.43.34C618.92,298.41,609.69,314.15,609.69,314.15Z" transform="translate(-94.43 -27.54)" opacity="0.1"/><path d="M455,181.86s-15.8,16.15-7.83,30.27c0,0,2.22-4.22,5.28-6.09a11.41,11.41,0,0,0,4-3.56S452,194.71,455,181.86Z" transform="translate(-94.43 -27.54)" fill="#fff" opacity="0.1"/><path d="M600.16,301.85c-6.43,4.53-6.85,15.39-.79,20.42,7.47,6.19,18.63,2.31,28.28,3.35s18.12,7.36,24.25,14.93a63.34,63.34,0,0,1,12.64,51.81c-1.89,9.21-5.84,17.91-7.63,27.14-2.14,11.06-1.09,22.48.26,33.67,1,8.34,2.24,16.89,6.31,24.24,6.47,11.67,19.08,18.55,31.65,23S721,507.61,732.71,514a67.5,67.5,0,0,1,32.57,41.92,6.72,6.72,0,0,1,.1,4.2c-.55,1.32-2.31,2.2-3.46,1.36" transform="translate(-94.43 -27.54)" fill="none" stroke="#444053" stroke-miterlimit="10"/><path d="M566.54,321.42c-.61,2.87,1.48,5.86,4.24,6.85a9.84,9.84,0,0,0,8.38-1.3c3-1.91,5.69-5.12,9.27-5,2.6.07,4.79,1.95,6.41,4s2.92,4.37,4.94,6a15,15,0,0,0,5.92,2.7,16.9,16.9,0,0,0,7.77.37c5.52-1.21,9.57-6.13,15-7.7,7.18-2.07,14.6,2.17,20.35,6.94,6.89,5.71,13.09,12.69,15.95,21.17,1.9,5.61,2.26,11.59,3,17.46s2.06,11.88,5.5,16.69,9.51,8.18,15.28,6.88" transform="translate(-94.43 -27.54)" fill="none" stroke="#444053" stroke-miterlimit="10"/><path d="M1015.68,330.52s-31.65-17.8-34.3-19.61,0-4.34,0-4.34c-5.07-3.26-15.59,3.44-15.59,3.44s3.83.95,7.45,2.1c-13.14-3.43-35.12-9.86-46.32-17.09-8.69-5.61-16.29-4-21.56-1.2l-.12-.33c-1.34-4.17-1.12-8.73-2.74-12.81-2-5-6.83-8.53-12.13-9.58-3-.6-3.53-.29-5.31-2.57-2.12-2.72-3.79-3.71-7.32-4.47-4-.85-8-1.7-12.12-1.42s-8.24,1.86-10.67,5c-1.36,1.79-2.11,3.95-3.44,5.76-6.4,8.67-21.66,4.73-29.81,11.89-5,4.42-5.81,11.66-6.93,18.16s-3.76,13.83-10.16,16c-3.05,1-6.38.65-9.6.87s-6.78,1.34-8.19,4.16a7.41,7.41,0,0,0-.66,3.62,1.93,1.93,0,0,0,0,.24v.13a42.33,42.33,0,0,0,.77,5.52c0-.07,0-.14,0-.21.36,2.43.37,4.68-1.38,6.32-3.56,3.36-11.28.29-13.5,4.6a3.86,3.86,0,0,0-.39,2,6.86,6.86,0,0,0,2.21,4.92c1.69,1.7,3.85,3,5.24,4.91a8,8,0,0,1,1.24,2.66,2.61,2.61,0,0,1,.06-.27,8.42,8.42,0,0,1-.18,4.56c-11.71-.47-29-1.55-32.53-3.9-5.4-3.62-30.72-9.74-30.72-9.74l-.29-.18h0l-.83-.48-.78-.43-.15-.08c-.3-.16-.62-.33-1-.5l-.07,0-1-.5-.18-.08-1.16-.51-.2-.09c-.37-.15-.75-.3-1.14-.44l-.13-.05c-.41-.15-.83-.28-1.24-.41l-.22-.06a13.08,13.08,0,0,0-2.49-.47H706l-.49,0h-.25l-.42,0-.31.05a3,3,0,0,0-.32.06,3.72,3.72,0,0,0-.59.2,2.25,2.25,0,0,0-.92,1.09l-1.8-.69-31.35-12.11s-3.78-2-5.45-3.26A65.21,65.21,0,0,0,647,324.52l-.22-.15,0,.1c-6.9-1.24-12.76,0-10.7,8.69,4.34,18.32,28.21,16.15,28.21,16.15l33.83,14.42,2.22.95c-.2,10.12.8,20.79,3.33,22.2a12.47,12.47,0,0,0,1.27.63l.27.13c.41.18.82.34,1.22.47l.09,0c.4.14.79.25,1.16.35l.17,0c.4.11.8.19,1.17.26h0a17.65,17.65,0,0,0,3.84.3h0l.32,0,.12,0-.19-12.12a8.58,8.58,0,0,1,1.13.52h0a25.36,25.36,0,0,1,3.53,2.38c3,2.35,22.9,4.7,22.9,4.7s19,7.05,20.11,8.51,55.48,3.07,55.48,3.07-7.44,16.64,13.22,33.29c0,0,3.53,21.7,1.3,27.67-1.4,3.75-1.71,10.64-1.74,15.24-6.79,2.4-23,8.51-27.12,13.61-5.3,6.51-9.49,6.51-9.49,6.51s-5.31,10-11.73,12.48-27.09,13.57-29.05,16.55-19.27,13-19.27,13-17.88,14.11-21.23,19.26-26.81,14.93-26.81,14.93-6.42,9-4.47,18.45-15.82,4.34-.37,20.35c3.63,3.76,10.19,7.76,18.36,12.06-.58.35-1.16.66-1.73.94a15.86,15.86,0,0,1-2.85,1.11c-9.22,2.44-35.47,44.49-35.47,44.49s-16.07,20.18-28.5,27.53c-.42.25-.84.48-1.25.7h0c-1-2.36-4.85-4.69-8.77-6.49a46.49,46.49,0,0,0-14-3.81c-3.17-.38-7.21-1.29-9.78-3.45a25.48,25.48,0,0,0-7.82-4.51c-3.88-1.22-7.08-.21-5.5,7.14a60.09,60.09,0,0,0,8.38,20.53s17.23,15.1,18.81,20.44,8.75,11.31,9.87,10.58c.36-.24,2.24-1.38,4.61-3,4.84-3.21,11.74-8.26,12.14-11.15,0-.07-.8.08-2,.16.16-.3.35-.65.58-1.06,2.27-4,7.92-13.07,14.57-16.19L675.69,678s28.21-14.65,33-25.5c2-4.53,9-11.14,16.56-17.3l1.66-1.35c22.48,11.08,46.25,24,56.91,39.27,15.33,22,49.93,30.11,66.15,32.76.1,1.26.18,2.47.23,3.6a62.91,62.91,0,0,1-.75,14.11c-.84,4.88-.62,42.87-.62,42.87s1.74,19.53-3.29,25.77c-2.58,3.21-4.58,10.86-5.91,17.53-.08.4-.15.8-.23,1.2-2.33,1.06-4.2,3.37-5.22,7.51,0,0-4.28,2.8-3.25,13.92.25,2.69.33,5,.45,7,.39,6.31,1.08,9.31,7.93,9.24,9-.09,27.83-9.31,27.83-9.31a29.56,29.56,0,0,0-.2-5.66,22.61,22.61,0,0,0-3.61-10.16l.07-.19.21-.49c.18-.44.35-.93.51-1.43l.06-.13h0a12.25,12.25,0,0,0,.64-3.55V805s.56-18.45,5-28.22c3.6-7.87,13.18-44.63,13.84-63.3a40.1,40.1,0,0,0-.1-5.25,2.66,2.66,0,0,0,1.9-2.54c-.28-7.06-5.86-3.8-3.07-17.64s4.75-30.93,9.77-39.07a140.13,140.13,0,0,0,9.22-18.72s10.61-35.82,15.08-44.5,21.51-65.12-5.58-91.44l-1.48-5.73s0-.09.09-.19h0c.16-.35.6-1.33,1.17-2.69h0c.48-1.12,1-2.51,1.6-4h0c.32-.86.63-1.76.94-2.67h0c.45-1.35.85-2.73,1.16-4h0l.15-.66c8.66,2,13.89-4.18,16-7.43,1.17-.67,1.65-1.31,1.06-1.87-3.35-3.26-.36-10.31-.36-10.31l.17-30.75s3.91-.73,4.85-11.58A28.09,28.09,0,0,1,944,395.21C952.38,386,975.64,376,975.64,376c16.74-5.48,41.72-29.44,41.72-29.44C1030.76,335.52,1015.68,330.52,1015.68,330.52ZM979,342.93c-5.21,1.08-16.94,6.9-16.94,6.9S955,351.61,948.65,354s-14.52-1.24-14.52-1.24c-4.28-5.75-18.8,2.5-22.16,4.49-2.54,1.51-4.66,1-7.08-1.11a23.56,23.56,0,0,1-2.41-2.51,9.48,9.48,0,0,0-2.48-2.06,22.05,22.05,0,0,1,4.08-5.17c3.53-3.44,7.71-6.21,11.27-9.63s6.59-7.73,6.91-12.58c0-.21,0-.42,0-.63a16.55,16.55,0,0,0-2.17-8.67,71.27,71.27,0,0,0,8.92,1.35c8.51.52,19,4.79,25.26,7.74l1.29.61-.69.24.25.32-.25.08.06.08,0,0,.5.65.07.08c.24.31.54.69.9,1.13l.11.13c.37.45.79.94,1.25,1.46l.12.14c.47.53,1,1.08,1.51,1.63l.14.14c.48.49,1,1,1.49,1.46v0a27.61,27.61,0,0,0,2.16,1.81l.08.05a16.47,16.47,0,0,0,1.82,1.18l.18.1a8.42,8.42,0,0,0,.87.4c5,2,7.63-2.71,7.63-2.71a10.38,10.38,0,0,1,2.07.82C980.94,336.33,983.62,342,979,342.93Z" transform="translate(-94.43 -27.54)" fill="url(#ed695dba-63ca-4bb5-9f87-bbf25b60f2aa)"/><path d="M977.6,315.56v5.57l-23.4,6.49s-2.14-1.21-5.47-2.8c-6.14-2.95-16.31-7.24-24.61-7.76-12.79-.83-54.83-13.48-42.18-16.33s11.66,0,11.66,0,12.29-15.67,28.49-4.92c12.3,8.18,37.95,15.33,49.57,18.3C975.34,315,977.6,315.56,977.6,315.56Z" transform="translate(-94.43 -27.54)" fill="#efb7b9"/><path d="M874.16,264.76c-3.88-.85-7.84-1.71-11.8-1.43s-8,1.87-10.41,5.06c-1.32,1.79-2.05,4-3.35,5.77-6.23,8.7-21.11,4.75-29.05,11.93-4.9,4.43-5.65,11.69-6.74,18.21s-3.67,13.87-9.91,16.05c-3,1-6.22.65-9.35.86s-6.6,1.35-8,4.17c-2.37,4.88,2.72,11.9-1.18,15.68-3.48,3.36-11,.28-13.16,4.61-1.06,2.12.13,4.71,1.77,6.42s3.75,3,5.11,4.92a8.41,8.41,0,0,1-6.61,13.23c-2.75.09-5.86-1.09-8.06.58a5.71,5.71,0,0,0-1.82,4.76,11.8,11.8,0,0,0,12.08,11c4.67-.3,8.61-3.38,12.46-6s8.5-5.08,13-3.89a21.22,21.22,0,0,1,5.84,3.07,59.63,59.63,0,0,0,17.7,7.6c5.52,1.37,11.8,1.81,16.49-1.41,5.31-3.64,7.3-11.09,13-14,6-3.05,13.11.17,19.29,2.85s14.27,4.49,18.92-.38c5-5.25,2.11-14.08,4.7-20.86a19.65,19.65,0,0,1,4.68-6.72c3.44-3.46,7.51-6.24,11-9.66s6.43-7.75,6.73-12.62c.38-5.86-3.09-11.24-6.83-15.77s-8-8.91-9.75-14.52c-1.3-4.18-1.09-8.75-2.67-12.84a16.1,16.1,0,0,0-11.82-9.61c-3-.6-3.44-.29-5.18-2.59A10.28,10.28,0,0,0,874.16,264.76Z" transform="translate(-94.43 -27.54)" fill="#925978"/><g opacity="0.1"><path d="M785.13,327.2c-.55,2.4.16,5.15.55,7.73C786.28,332.68,785.52,329.92,785.13,327.2Z" transform="translate(-94.43 -27.54)"/><path d="M778.11,357.49a8,8,0,0,1,1.2,2.67,8.61,8.61,0,0,0-1.2-7c-1.36-1.94-3.46-3.21-5.11-4.92a8.5,8.5,0,0,1-1.6-2.32,2.33,2.33,0,0,0-.17.26c-1.06,2.12.13,4.71,1.77,6.42S776.75,355.55,778.11,357.49Z" transform="translate(-94.43 -27.54)"/><path d="M910.81,333.3c-3.47,3.43-7.54,6.2-11,9.66a19.73,19.73,0,0,0-4.68,6.73c-2.59,6.78.31,15.6-4.7,20.85-4.65,4.87-12.74,3.06-18.92.38s-13.29-5.9-19.29-2.85c-5.73,2.92-7.72,10.38-13,14-4.69,3.22-11,2.78-16.49,1.41a59.63,59.63,0,0,1-17.7-7.6,21.22,21.22,0,0,0-5.84-3.07c-4.52-1.19-9.16,1.25-13,3.9s-7.79,5.72-12.46,6c-5.39.35-10.58-3.81-11.81-9a7.86,7.86,0,0,0-.27,2.31,11.81,11.81,0,0,0,12.08,11c4.67-.3,8.61-3.38,12.46-6s8.5-5.08,13-3.89a21.19,21.19,0,0,1,5.84,3.06,59.4,59.4,0,0,0,17.7,7.61c5.52,1.36,11.8,1.8,16.49-1.41,5.31-3.64,7.3-11.09,13-14,6-3.06,13.11.16,19.29,2.84s14.27,4.49,18.92-.38c5-5.24,2.11-14.07,4.7-20.85a19.82,19.82,0,0,1,4.68-6.73c3.44-3.45,7.51-6.23,11-9.65s6.43-7.76,6.73-12.62a13.64,13.64,0,0,0-.15-3.07C916.7,326.31,914,330.18,910.81,333.3Z" transform="translate(-94.43 -27.54)"/></g><path d="M917.68,465.6l8.89.72s-6.7,15.13-21,7.66S917.68,465.6,917.68,465.6Z" transform="translate(-94.43 -27.54)" fill="#4c4981"/><path d="M917.68,465.6l8.89.72s-6.7,15.13-21,7.66S917.68,465.6,917.68,465.6Z" transform="translate(-94.43 -27.54)" opacity="0.1"/><path d="M747,620.63s-11.18,7.76-21.43,16.39c-7.34,6.18-14.2,12.81-16.13,17.35C704.77,665.26,677.29,680,677.29,680l-25.86,25.59c-6.47,3.13-12,12.2-14.19,16.24-.67,1.23-1,2-1,2h-11.7l-7.07-7.08s-3.81-17.14,8.16-18.5a16.89,16.89,0,0,0,6.52-2.6c12.12-7.37,27.77-27.61,27.77-27.61s25.58-42.18,34.56-44.63a15,15,0,0,0,2.78-1.11c8.88-4.48,20.63-18.21,20.63-18.21Z" transform="translate(-94.43 -27.54)" fill="#efb7b9"/><path d="M879.91,715.53c-.64,18.72-10,55.59-13.48,63.48-4.36,9.8-4.9,28.31-4.9,28.31v12.79a14.79,14.79,0,0,1-1.18,5.14,25.37,25.37,0,0,1-1.27,2.75l-24-4.08s.64-5.47,1.86-11.81c1.3-6.7,3.25-14.37,5.76-17.58,4.9-6.26,3.2-25.86,3.2-25.86s-.21-38.1.61-43a64.64,64.64,0,0,0,.73-14.15c-.11-2.54-.34-5.43-.73-8.71-1.36-11.43,0-28.3,0-28.3l27.49,1.36,4.62,29.94C879.73,707.55,880.08,711,879.91,715.53Z" transform="translate(-94.43 -27.54)" fill="#efb7b9"/><path d="M637.24,721.78c-.67,1.23-1,2-1,2h-11.7l-7.07-7.08s-3.81-17.14,8.16-18.5a16.89,16.89,0,0,0,6.52-2.6c1.65,5-3.61,10.13-3.61,10.13s-2.18,2.08-.55,10.16C629.05,721.37,634.13,721.91,637.24,721.78Z" transform="translate(-94.43 -27.54)" opacity="0.1"/><path d="M638.64,722.68c-.39,2.9-7.12,8-11.83,11.18-2.31,1.59-4.14,2.73-4.49,3-1.09.73-8.08-5.26-9.62-10.61s-18.33-20.5-18.33-20.5a61.29,61.29,0,0,1-8.16-20.59c-1.54-7.37,1.58-8.39,5.35-7.17a24.81,24.81,0,0,1,7.62,4.53c2.51,2.17,6.45,3.08,9.54,3.46a44.47,44.47,0,0,1,13.62,3.82c3.82,1.81,7.61,4.14,8.54,6.51,2,5.18-3.48,10.53-3.48,10.53s-2.18,2.08-.55,10.16S638.68,722.41,638.64,722.68Z" transform="translate(-94.43 -27.54)" fill="#444053"/><path d="M626.81,733.86c-2.31,1.59-4.14,2.73-4.49,3-1.09.73-8.08-5.26-9.62-10.61s-18.33-20.5-18.33-20.5a61.29,61.29,0,0,1-8.16-20.59c-1.54-7.37,1.58-8.39,5.35-7.17,1.36,5.82,4.36,17.1,8.17,22.68C604.26,707.28,622,728.2,626.81,733.86Z" transform="translate(-94.43 -27.54)" opacity="0.1"/><path d="M860.08,824.84l.27.41a25.37,25.37,0,0,1-1.27,2.75l-24-4.08s.64-5.47,1.86-11.81c8.79-3.76,23.92,10.48,23.92,10.48Z" transform="translate(-94.43 -27.54)" opacity="0.1"/><path d="M863.79,841.79s-18.32,9.25-27.11,9.34c-6.68.07-7.35-2.94-7.73-9.26-.11-2-.2-4.37-.44-7.07-1-11.15,3.17-14,3.17-14,4.81-20.14,29.23,2.84,29.23,2.84l-.83,2.25a23.1,23.1,0,0,1,3.52,10.19A30.09,30.09,0,0,1,863.79,841.79Z" transform="translate(-94.43 -27.54)" fill="#444053"/><path d="M863.79,841.79s-18.32,9.25-27.11,9.34c-6.68.07-7.35-2.94-7.73-9.26a20.48,20.48,0,0,0,16.25,2.46,62.4,62.4,0,0,0,18.4-8.21A30.09,30.09,0,0,1,863.79,841.79Z" transform="translate(-94.43 -27.54)" opacity="0.1"/><path d="M898.27,363.27l-3.16,33.86-.65,7-13.67,3.57-14.09,3.69-16.33-3.62s-6.28-14.25-4.14-25.85a16.56,16.56,0,0,1,6-10.45,14.82,14.82,0,0,0,2.71-2.72,12.94,12.94,0,0,0,2.05-3.92,15.16,15.16,0,0,0,.66-5.39c-.38-9-7.24-17.9-7.24-17.9s31.57-15.6,29.94-8c-1.06,4.94,4.67,12.55,8.82,17.28,2.26,2.57,4,4.3,4,4.3Z" transform="translate(-94.43 -27.54)" fill="#efb7b9"/><circle cx="768.64" cy="298.31" r="28.94" opacity="0.1"/><circle cx="768.64" cy="297.22" r="28.94" fill="#efb7b9"/><path d="M910.44,472.64c-.54,6.51-5.46,17.27-5.46,17.27L866.19,505l-32.51-26.13s0-.06,0-.18c.52-2.92,6.83-39.68-2.21-47.36-9.44-8-9.63-33.92-9.63-33.92S834,379.05,836.4,374.7,857,364.79,857,364.79c-.78,1.37-1.46,2.68-2.05,3.92a35.48,35.48,0,0,0-3.3,10.3c-.8,5.64.73,8.95,1.75,10.47a11.47,11.47,0,0,1,1.33,2.55c4.91,13.3,18.93,9.51,24.44,7.41,1.41-.54,2.27-1,2.27-1l13.72-1.34,8.6-.83s4.9,68,6.53,73.29A8.14,8.14,0,0,1,910.44,472.64Z" transform="translate(-94.43 -27.54)" fill="#444053"/><path d="M854.92,368.74s0,0,0,.05a41.64,41.64,0,0,0-1.68,4H838.4a42.12,42.12,0,0,1,7.79-4Z" transform="translate(-94.43 -27.54)" fill="#925978"/><path d="M852.36,375.46a27.16,27.16,0,0,0-.76,3.63c0,.14,0,.28-.05.42h-18c1-1.63,1.9-3.05,2.46-4.05Z" transform="translate(-94.43 -27.54)" fill="#fff"/><path d="M851.88,386.23H829.25c.88-1.36,1.77-2.74,2.6-4h19.52A15.85,15.85,0,0,0,851.88,386.23Z" transform="translate(-94.43 -27.54)" fill="#fff"/><path d="M855,393H824.85c.8-1.2,1.7-2.59,2.66-4H853c.13.23.26.45.39.64a11.19,11.19,0,0,1,1.33,2.54C854.79,392.4,854.9,392.68,855,393Z" transform="translate(-94.43 -27.54)" fill="#fff"/><path d="M821.88,397.46v2.22h38.7a12.66,12.66,0,0,1-4.15-4.05H823.09Z" transform="translate(-94.43 -27.54)" fill="#fff"/><path d="M904,399.68H878.68l.44-.16c1.41-.55,2.27-1,2.27-1l13.72-1.34,8.6-.84S903.8,397.58,904,399.68Z" transform="translate(-94.43 -27.54)" fill="#925978"/><path d="M904.45,406.4h-82c-.16-1.48-.28-2.84-.37-4h82C904.24,403.56,904.34,404.92,904.45,406.4Z" transform="translate(-94.43 -27.54)" fill="#fff"/><path d="M905,413.13H823.45c-.25-1.39-.47-2.74-.64-4h81.85C904.76,410.37,904.85,411.72,905,413.13Z" transform="translate(-94.43 -27.54)" fill="#fff"/><path d="M905.48,419.85H825.05c-.39-1.33-.74-2.69-1-4.05h81.16C905.27,417.12,905.38,418.47,905.48,419.85Z" transform="translate(-94.43 -27.54)" fill="#fff"/><path d="M906,426.57H827.77a32.49,32.49,0,0,1-1.82-4h79.74C905.79,423.86,905.9,425.21,906,426.57Z" transform="translate(-94.43 -27.54)" fill="#fff"/><path d="M906.55,433.3H833.13a7.92,7.92,0,0,0-1.62-1.92,14,14,0,0,1-2-2.12h76.72C906.32,430.61,906.43,432,906.55,433.3Z" transform="translate(-94.43 -27.54)" fill="#fff"/><path d="M907.11,440H835.47a25.64,25.64,0,0,0-1.07-4h72.37C906.88,437.32,907,438.68,907.11,440Z" transform="translate(-94.43 -27.54)" fill="#fff"/><path d="M907.68,446.74H836.23c-.08-1.39-.18-2.74-.35-4h71.46C907.45,444.07,907.56,445.42,907.68,446.74Z" transform="translate(-94.43 -27.54)" fill="#925978"/><path d="M908.29,453.47h-72c0-1.36,0-2.71,0-4h71.59C908,450.82,908.17,452.17,908.29,453.47Z" transform="translate(-94.43 -27.54)" fill="#925978"/><path d="M909,460.19H836c.1-1.32.17-2.68.24-4h72.31C908.69,457.58,908.83,458.93,909,460.19Z" transform="translate(-94.43 -27.54)" fill="#925978"/><path d="M909.74,466.91H835.38c.14-1.29.27-2.64.4-4h73.46C909.43,464.45,909.59,465.81,909.74,466.91Z" transform="translate(-94.43 -27.54)" fill="#925978"/><path d="M910.44,472.71c0,.31-.06.61-.11.93H834.52c.18-1.19.36-2.56.53-4h75.17a.64.64,0,0,1,0,.07A8.08,8.08,0,0,1,910.44,472.71Z" transform="translate(-94.43 -27.54)" fill="#fff"/><path d="M909.83,476.32c-.31,1.31-.7,2.7-1.13,4.05H835.48l-1.8-1.45s0-.07,0-.19c.06-.35.2-1.18.4-2.41Z" transform="translate(-94.43 -27.54)" fill="#fff"/><path d="M907.78,483c-.54,1.52-1.09,2.91-1.56,4H843.84l-5-4Z" transform="translate(-94.43 -27.54)" fill="#fff"/><path d="M905.08,489.77l-.1.22-9.85,3.82H852.21l-5-4Z" transform="translate(-94.43 -27.54)" fill="#fff"/><polygon points="793.81 468.95 783.39 472.99 766.14 472.99 761.11 468.95 793.81 468.95" fill="#925978"/><polygon points="776.47 475.68 771.75 477.51 769.48 475.68 776.47 475.68" fill="#925978"/><path d="M910.44,472.64c-6.31,1.49-12.17,2.58-12.17,2.58L865.1,478.3l-4.57-34.48s6.35-7.62,12.16-10.51c5.48-2.75,11.47-9.71,8.1-25.65-.19-.91-.41-1.86-.67-2.84a36.48,36.48,0,0,1-1-5.38c-1.39-12.57,4.64-20.46,6.37-22.43.28-.33.44-.49.44-.49l2.1-25.73a9.37,9.37,0,0,1,1.1,0c2.26,2.57,4,4.3,4,4.3l5.09,8.17-3.16,33.86,8.6-.83s4.9,68,6.53,73.29A8.14,8.14,0,0,1,910.44,472.64Z" transform="translate(-94.43 -27.54)" opacity="0.1"/><path d="M938.73,396.3a28.39,28.39,0,0,0-7.62,17.23c-.91,10.88-4.72,11.61-4.72,11.61L926.21,456s-2.91,7.08.36,10.34-27.21,8.9-27.21,8.9l-33.17,3.08-4.57-34.48s6.35-7.62,12.15-10.51,12.16-10.53,7.44-28.49c-4.12-15.7,3.4-25.57,5.37-27.81.28-.33.44-.49.44-.49l2.1-25.73s5.7-.4,9.15,3.77a23.81,23.81,0,0,0,2.35,2.53c2.36,2.15,4.42,2.62,6.9,1.11,3.27-2,17.42-10.28,21.59-4.51S938.73,396.3,938.73,396.3Z" transform="translate(-94.43 -27.54)" fill="#4c4981"/><path d="M900.62,357.09l-3.42,17.57L886.58,377c.28-.33.44-.49.44-.49l2.1-25.73s5.7-.4,9.15,3.77A23.81,23.81,0,0,0,900.62,357.09Z" transform="translate(-94.43 -27.54)" fill="#4c4981"/><path d="M900.62,357.09l-3.42,17.57L886.58,377c.28-.33.44-.49.44-.49l2.1-25.73s5.7-.4,9.15,3.77A23.81,23.81,0,0,0,900.62,357.09Z" transform="translate(-94.43 -27.54)" opacity="0.1"/><path d="M977.6,315.56v5.57l-23.4,6.49s-2.14-1.21-5.47-2.8c2.53-.9,14-5,19.92-7.77,2.19-1,3.64-1.82,3.64-2.22,0-.22-.23-.46-.63-.72C975.34,315,977.6,315.56,977.6,315.56Z" transform="translate(-94.43 -27.54)" opacity="0.1"/><path d="M1010.2,347.48s-24.34,24-40.64,29.53c0,0-22.67,10-30.83,19.29l-15.24-37.56,5.62-5.05s8,3.59,14.15,1.24,13.06-4.15,13.06-4.15,11.43-5.83,16.51-6.92c4.5-1,1.89-6.62-3.05-9.16a10.91,10.91,0,0,0-2-.82s-2.54,4.72-7.43,2.72a17.53,17.53,0,0,1-5-3.55,0,0,0,0,1,0,0,56.19,56.19,0,0,1-6-6.95s13.7-4.85,20.42-7.94c2.19-1,3.64-1.82,3.64-2.22,0-1.64-13.42-5.08-13.42-5.08s10.25-6.71,15.19-3.45c0,0-2.58,2.54,0,4.36s33.42,19.67,33.42,19.67S1023.27,336.42,1010.2,347.48Z" transform="translate(-94.43 -27.54)" fill="#4c4981"/><path d="M984.45,330.61l-14.67,4.09a10.91,10.91,0,0,0-2-.82s-2.54,4.72-7.43,2.72a17.53,17.53,0,0,1-5-3.55,0,0,0,0,1,0,0,55.92,55.92,0,0,1-4.92-5.86s13.69-4.85,20.42-7.94Z" transform="translate(-94.43 -27.54)" opacity="0.1"/><path d="M983.36,329.52l-15.61,4.36s-2.54,4.72-7.43,2.72-11-10.52-11-10.52,13.7-4.85,20.42-7.94Z" transform="translate(-94.43 -27.54)" fill="#4c4981"/><path d="M983.36,329.11l-15.61,4.36s-2.54,4.72-7.43,2.72-11-10.52-11-10.52,13.7-4.85,20.42-7.94Z" transform="translate(-94.43 -27.54)" fill="#fff" opacity="0.1"/><path d="M717.84,604,747,620.63s-11.18,7.76-21.43,16.39c-10.62-5.32-20.62-10.22-28.32-14.78C706.09,617.76,717.84,604,717.84,604Z" transform="translate(-94.43 -27.54)" opacity="0.1"/><path d="M879.91,715.53c-7.71.57-20-2.1-20-2.1s-5-.44-12.61-1.91c-.11-2.54-.34-5.43-.73-8.71-1.36-11.43,0-28.3,0-28.3l27.49,1.36,4.62,29.94C879.73,707.55,880.08,711,879.91,715.53Z" transform="translate(-94.43 -27.54)" opacity="0.1"/><path d="M911.87,587.43c-4.35,8.71-14.69,44.63-14.69,44.63a142.57,142.57,0,0,1-9,18.78c-4.9,8.16-6.81,25.3-9.53,39.18s2.72,10.62,3,17.69-26.13,1.36-26.13,1.36-53.07-4.62-72.93-34S696.07,625.25,681,609.2s2.27-10.89.36-20.41,4.35-18.51,4.35-18.51,22.86-9.8,26.13-15S732.53,536,732.53,536s16.88-10.07,18.78-13.06,22-14.15,28.3-16.6S791,493.81,791,493.81s4.09,0,9.26-6.53,29.39-14.7,29.39-14.7C876.22,498.16,905,489.91,905,489.91l1.45,5.8C932.83,522.11,916.23,578.72,911.87,587.43Z" transform="translate(-94.43 -27.54)" fill="#444053"/><path d="M906.43,495.71s-35.1,16.88-76.74-23.13C876.22,498.16,905,489.91,905,489.91Z" transform="translate(-94.43 -27.54)" opacity="0.1"/><path d="M846,524.83s-40,77.56-42.73,80.56S843.29,524.29,846,524.83Z" transform="translate(-94.43 -27.54)" opacity="0.1"/><path d="M868.06,516.4s-27.21,57.42-25.58,64.5C842.48,580.9,868.88,525.65,868.06,516.4Z" transform="translate(-94.43 -27.54)" opacity="0.1"/><path d="M889.83,528.37s-2.43,30.45,9.25,46Z" transform="translate(-94.43 -27.54)" opacity="0.1"/><path d="M903.17,528.37s3.76,25.58,7.32,30.48Z" transform="translate(-94.43 -27.54)" opacity="0.1"/><polygon points="722.19 488.86 679.19 512.54 696.06 512.54 722.19 488.86" opacity="0.1"/><path d="M879.94,306.36c-2.08,1.8-3.64,4.46-6.3,5.17-1.89.5-3.87-.12-5.75-.66-4.76-1.37-10.07-2.22-14.54-.07-6.37,3.07-9,11.22-15.37,14.34a11.86,11.86,0,0,1-10.08.2,11.74,11.74,0,0,1-6.12-6.49c-1.86-4.92-.1-10.67,3.34-14.65s8.32-6.43,13.26-8.23c12.92-4.7,26.89-5.51,40.63-6.27a6,6,0,0,1,3.28.43c2.27,1.26,6.82,8.55,6.42,11.28C888.18,305,879.94,303.4,879.94,306.36Z" transform="translate(-94.43 -27.54)" opacity="0.1"/><path d="M879.94,305.27c-2.08,1.81-3.64,4.46-6.3,5.17-1.89.51-3.87-.11-5.75-.66-4.76-1.37-10.07-2.22-14.54-.07-6.37,3.07-9,11.23-15.37,14.34a11.93,11.93,0,0,1-6.3,1.18,11.6,11.6,0,0,1-3.78-1,11.74,11.74,0,0,1-6.12-6.49c-1.86-4.92-.1-10.67,3.34-14.64s8.32-6.44,13.26-8.24c12.92-4.7,26.89-5.51,40.63-6.27a6,6,0,0,1,3.28.44c2.27,1.26,6.82,8.54,6.42,11.27C888.18,304,879.94,302.31,879.94,305.27Z" transform="translate(-94.43 -27.54)" fill="#925978"/><path d="M707.22,349.3l-2,18.09-6.09-2.66-33-14.47s-23.26,2.18-27.49-16.2,25.72-3.54,27.35-2.31S671.3,335,671.3,335l30.55,12.15Z" transform="translate(-94.43 -27.54)" fill="#efb7b9"/><path d="M707.22,349.3l-2,18.09-6.09-2.66c.22-8.1,1.2-15.65,2.76-17.56Z" transform="translate(-94.43 -27.54)" opacity="0.1"/><path d="M873.05,444.19l-1.45,37.37-37.88-2.9c.52-2.92,6.83-39.68-2.21-47.36-9.44-8-9.63-33.92-9.63-33.92S834,379.05,836.4,374.7,857,364.79,857,364.79a15.16,15.16,0,0,0,.66-5.39,20.81,20.81,0,0,1,1.93,3.71c.82,6.68-1.24,11.6-7.94,15.9-.59.38-1.21.75-1.87,1.12-1.07.59-2.23,1.18-3.5,1.75l-.57.26c-11.43,5.08-13.07,12.52-13.07,12.52a27.41,27.41,0,0,0-2.9,19.88C832.41,425.71,873.05,444.19,873.05,444.19Z" transform="translate(-94.43 -27.54)" opacity="0.1"/><path d="M870.87,444.19l-1.45,37.37-42.64-3.26s-.54-14,1.63-20-1.26-27.75-1.26-27.75c-20.14-16.7-12.89-33.39-12.89-33.39s-53-1.63-54.06-3.08-19.59-8.54-19.59-8.54-19.42-2.35-22.32-4.71a22.72,22.72,0,0,0-3.44-2.38,9.13,9.13,0,0,0-1.09-.53l.18,12.16a2.93,2.93,0,0,1-.42,0h-.23A17.15,17.15,0,0,1,704.5,388c-4.71-2.72-4-39.38,0-41.18a4.86,4.86,0,0,1,2.4-.33c3.27.23,7.6,2.54,9.58,3.68l.8.48.29.18s24.67,6.14,29.93,9.77S790,364.79,790,364.79s16.87,1.74,18.69-.89,26.3-9.7,28.84-6.43,8.3,2,8.3,2c3.49-5.28,6.58-3.81,8.68-1.33a19.18,19.18,0,0,1,2.89,5c.9,7.27-1.62,12.45-9.81,17-1.23.68-2.58,1.35-4.07,2-11.43,5.08-13.06,12.52-13.06,12.52a27.39,27.39,0,0,0-2.91,19.88C830.23,425.71,870.87,444.19,870.87,444.19Z" transform="translate(-94.43 -27.54)" fill="#4c4981"/><path d="M706.9,346.44a3.66,3.66,0,0,0-1.31.33c-4,1.8-4.71,38.46,0,41.18a17.1,17.1,0,0,0,7.7,2.21h.23a2.93,2.93,0,0,0,.42,0L713.76,378a9.13,9.13,0,0,1,1.09.53V378a31.4,31.4,0,0,1,2.44-27.36Z" transform="translate(-94.43 -27.54)" opacity="0.1"/><path d="M713.76,378l.18,12.16A16.85,16.85,0,0,1,704.5,388c-4.71-2.72-4-39.38,0-41.18,3.15-1.44,9.45,1.89,12,3.35A31.39,31.39,0,0,0,713.76,378Z" transform="translate(-94.43 -27.54)" fill="#4c4981"/><path d="M713.76,378l.18,12.16A16.85,16.85,0,0,1,704.5,388c-4.71-2.72-4-39.38,0-41.18,3.15-1.44,9.45,1.89,12,3.35A31.39,31.39,0,0,0,713.76,378Z" transform="translate(-94.43 -27.54)" fill="#fff" opacity="0.1"/><path d="M847.55,380.13l-6.7-4.83,13.62-17.17a19.18,19.18,0,0,1,2.89,5C858.26,370.38,855.74,375.56,847.55,380.13Z" transform="translate(-94.43 -27.54)" fill="#4c4981"/><path d="M847.55,379.74l-6.7-4.83,13.62-17.17a19.35,19.35,0,0,1,2.89,5C858.26,370,855.74,375.17,847.55,379.74Z" transform="translate(-94.43 -27.54)" opacity="0.1"/><path d="M879.94,303.1c-2.08,1.8-3.65,4.45-6.3,5.16-1.89.51-3.87-.11-5.75-.65-4.77-1.38-10.08-2.23-14.55-.07-6.36,3.07-9,11.22-15.37,14.34a12,12,0,0,1-6.29,1.17,11.6,11.6,0,0,1-9.9-7.46,11.64,11.64,0,0,1-.7-3.16,12.1,12.1,0,0,0,.7,5.33,11.7,11.7,0,0,0,6.12,6.49,11.54,11.54,0,0,0,3.78,1,11.9,11.9,0,0,0,6.29-1.18c6.35-3.11,9-11.27,15.37-14.34,4.47-2.15,9.78-1.3,14.55.07,1.88.55,3.86,1.17,5.75.66,2.65-.71,4.22-3.36,6.3-5.17,0-3,8.24-1.32,8.77-4.95a4.44,4.44,0,0,0-.17-1.62C887.27,301.6,879.94,300.31,879.94,303.1Z" transform="translate(-94.43 -27.54)" opacity="0.1"/><path d="M866.19,388.86s4.52,8.84.72,12.51c0,0,3-12.88,5.72-13" transform="translate(-94.43 -27.54)" opacity="0.1"/><path d="M649.09,325.25s23.72,15.67,8.7,20.64S649.09,325.25,649.09,325.25Z" transform="translate(-94.43 -27.54)" fill="#efb7b9"/></svg>