<svg id="Layer_1" data-name="Layer 1" xmlns="http://www.w3.org/2000/svg" viewBox="0 0 271 265"><defs><style>.cls-1{fill:#d1d3d4;}.cls-2{fill:#a7a9ac;}.cls-3{fill:#939598;}.cls-4{fill:#6d6e71;}.cls-5{fill:#5a5a5c;}.cls-6{fill:#818082;}.cls-7{fill:#808285;}.cls-8{fill:#ccc;}.cls-14,.cls-9{fill:#fff;}.cls-10{fill:#f2f2f2;}.cls-11{opacity:0.6;}.cls-12{fill:#2d5eab;}.cls-13{fill:#3c296b;}.cls-14{opacity:0.5;}.cls-15{fill:#bcbec0;}</style></defs><title>robot</title><path class="cls-1" d="M151,222.77a59.76,59.76,0,0,0-13.17,1.36,25.24,25.24,0,0,1-11.4,0,59.76,59.76,0,0,0-13.17-1.36c-12.3,0-22.28,3.14-22.28,7s10,7,22.28,7a59.76,59.76,0,0,0,13.17-1.36,25.24,25.24,0,0,1,11.4,0A59.76,59.76,0,0,0,151,236.81c12.3,0,22.28-3.14,22.28-7S163.33,222.77,151,222.77Z"/><path class="cls-2" d="M112.16,190H101.34a4.2,4.2,0,0,0-4,2.67,43.49,43.49,0,0,0-1.72,5.28A42.63,42.63,0,0,0,98,222.87a39.11,39.11,0,0,0,2.58,5.29c2,2.5,3.78,3.4,6.77,3.4h5.1a8.82,8.82,0,0,0,8.67-7.21h0c1.64-8.86-.16-17.79-2.77-26.33,0,0-1.53-3.61-2.22-4.72C115.11,191.64,113.91,190,112.16,190Z"/><path class="cls-3" d="M121.15,224.36h0c1.64-8.86-.16-17.79-2.77-26.33,0,0-1.53-3.61-2.22-4.72-1-1.65-2.23-3.28-4-3.31-1.41,0-2.43.78-3.23,2.67a50.74,50.74,0,0,0-1.4,5.28,51.54,51.54,0,0,0,2,24.92,43.42,43.42,0,0,0,2.11,5.29,7.12,7.12,0,0,0,3.31,3A8.81,8.81,0,0,0,121.15,224.36Z"/><ellipse class="cls-2" cx="113.94" cy="210.14" rx="5.59" ry="14.17" transform="translate(-21.31 13.04) rotate(-5.99)"/><ellipse class="cls-4" cx="114.58" cy="210.14" rx="5.05" ry="12.79" transform="translate(-21.31 13.11) rotate(-5.99)"/><ellipse class="cls-5" cx="113.03" cy="210.3" rx="3.03" ry="11.08" transform="translate(-21.34 12.95) rotate(-5.99)"/><ellipse class="cls-6" cx="112.39" cy="210.3" rx="2.29" ry="8.37" transform="translate(-21.34 12.88) rotate(-5.99)"/><path class="cls-2" d="M153.17,189.95H164a4.2,4.2,0,0,1,4,2.67,43.49,43.49,0,0,1,1.72,5.28,42.63,42.63,0,0,1-2.41,24.92,39.11,39.11,0,0,1-2.58,5.29c-2,2.5-3.78,3.4-6.77,3.4h-5.1a8.82,8.82,0,0,1-8.67-7.21h0c-1.64-8.86.16-17.79,2.77-26.33,0,0,1.53-3.61,2.22-4.72C150.21,191.59,151.41,189.95,153.17,189.95Z"/><path class="cls-3" d="M144.17,224.31h0c-1.64-8.86.16-17.79,2.77-26.33,0,0,1.53-3.61,2.22-4.72,1-1.65,2.23-3.28,4-3.31,1.41,0,2.43.78,3.23,2.67a50.74,50.74,0,0,1,1.4,5.28,51.54,51.54,0,0,1-2,24.92,43.42,43.42,0,0,1-2.11,5.29,7.12,7.12,0,0,1-3.31,3A8.81,8.81,0,0,1,144.17,224.31Z"/><ellipse class="cls-2" cx="151.38" cy="210.09" rx="14.17" ry="5.59" transform="translate(-73.36 338.72) rotate(-84.01)"/><ellipse class="cls-4" cx="150.75" cy="210.09" rx="12.79" ry="5.05" transform="translate(-73.94 338.08) rotate(-84.01)"/><ellipse class="cls-5" cx="152.29" cy="210.26" rx="11.08" ry="3.03" transform="translate(-72.71 339.77) rotate(-84.01)"/><ellipse class="cls-6" cx="152.93" cy="210.26" rx="8.37" ry="2.29" transform="translate(-72.14 340.4) rotate(-84.01)"/><path class="cls-7" d="M151.25,208.47c-1.84-1.72-8.21-6.79-19.2-6.79s-17,5-18.74,6.8a1.75,1.75,0,1,0,2.31,2.21c1.43-1.42,6.65-5.81,16.43-5.81s15.41,4.47,17,5.87a1.75,1.75,0,1,0,2.24-2.28Z"/><path class="cls-1" d="M145.91,170.77l.44-2.94c.08,0,7.71,1.11,13.18-1.65s10-8.88,10-8.94L172,159c-.2.27-4.87,6.73-11.1,9.87S146.26,170.82,145.91,170.77Z"/><rect class="cls-1" x="161.61" y="146.05" width="9.15" height="4.08" rx="2.04" ry="2.04" transform="translate(253.94 -56.48) rotate(71.52)"/><rect class="cls-1" x="176.35" y="138.34" width="3.36" height="12.23" rx="1.68" ry="1.68" transform="translate(140.47 -81.71) rotate(41.52)"/><rect class="cls-1" x="179.92" y="139.49" width="3.36" height="13.96" rx="1.68" ry="1.68" transform="translate(142.71 -83.57) rotate(41.52)"/><rect class="cls-1" x="182.36" y="143.66" width="3.36" height="12.23" rx="1.68" ry="1.68" transform="translate(145.51 -84.36) rotate(41.52)"/><path class="cls-1" d="M172.23,148.48l-4.74,5.35c-1,1.11.17,3.74,2.57,5.86s5.15,3,6.13,1.84l4.74-5.35Z"/><ellipse class="cls-1" cx="143.99" cy="169.59" rx="5.1" ry="5.4" transform="translate(-78.1 182.62) rotate(-53.02)"/><circle class="cls-1" cx="143.81" cy="169.83" r="4.8" transform="translate(-78.37 182.57) rotate(-53.02)"/><circle class="cls-1" cx="144.74" cy="170.53" r="3.64" transform="translate(-78.55 183.59) rotate(-53.02)"/><path class="cls-1" d="M117.6,170.77l-.44-2.94c-.08,0-7.71,1.11-13.18-1.65s-10-8.88-10-8.94L91.54,159c.2.27,4.87,6.73,11.1,9.87S117.25,170.82,117.6,170.77Z"/><rect class="cls-1" x="92.76" y="146.05" width="9.15" height="4.08" rx="2.04" ry="2.04" transform="translate(268.63 102.73) rotate(108.48)"/><rect class="cls-1" x="83.81" y="138.34" width="3.36" height="12.23" rx="1.68" ry="1.68" transform="translate(245.25 195.96) rotate(138.48)"/><rect class="cls-1" x="80.23" y="139.49" width="3.36" height="13.96" rx="1.68" ry="1.68" transform="translate(240.33 201.85) rotate(138.48)"/><rect class="cls-1" x="77.8" y="143.66" width="3.36" height="12.23" rx="1.68" ry="1.68" transform="translate(238.26 209.24) rotate(138.48)"/><path class="cls-1" d="M91.29,148.48,96,153.83c1,1.11-.17,3.74-2.57,5.86s-5.15,3-6.13,1.84l-4.74-5.35Z"/><ellipse class="cls-1" cx="119.52" cy="169.59" rx="5.4" ry="5.1" transform="translate(-77.97 106) rotate(-36.98)"/><circle class="cls-1" cx="119.7" cy="169.83" r="4.8" transform="translate(-78.08 106.16) rotate(-36.98)"/><circle class="cls-1" cx="118.77" cy="170.53" r="3.64" transform="matrix(0.8, -0.6, 0.6, 0.8, -78.69, 105.74)"/><path class="cls-8" d="M132.31,179.86h0Z"/><path class="cls-8" d="M135.27,191a.08.08,0,0,0,0,.11l.7,1.85-.7-1.85A.08.08,0,0,1,135.27,191Z"/><path class="cls-8" d="M134.29,183.09a4.71,4.71,0,0,1,2,1.71,4.71,4.71,0,0,0-2-1.71Z"/><path class="cls-8" d="M143.53,196.6V168.14c-4-1.45-11.26-1.08-11.26-1.08s-6.64-.12-11.36,1.94v27.6a12.84,12.84,0,0,0,4.69,8.16c4.28,3.43,6.69,2.86,6.69,2.86s3.47,0,7.56-3.64S143.53,196.6,143.53,196.6Zm-6.84-2.15-.89.54-.37-1-.1-.26-.2-.54-.18-.46-.53-1.38a1,1,0,0,1,.31-1.11,3.44,3.44,0,0,0,1.08-1.39,3.76,3.76,0,0,0,.29-1.21,3.92,3.92,0,0,0-.15-1.44,3.74,3.74,0,0,0-3.06-2.65,4.67,4.67,0,0,0-.63,0,3.68,3.68,0,0,0-2.41.86,3.58,3.58,0,0,0-1.27,2.08,3.84,3.84,0,0,0,.19,2.36,3.41,3.41,0,0,0,1,1.4,1,1,0,0,1,.23.22,1,1,0,0,1,.14.9l-1,2.6,0,0a.93.93,0,0,1-.08.16l-.43.74-.75-.44a8.35,8.35,0,0,1,4-15.46h.39a8.35,8.35,0,0,1,8.09,6.27A8.25,8.25,0,0,1,136.69,194.46Z"/><path class="cls-9" d="M139.16,184.34l0,0a7.49,7.49,0,0,0-.55-1l0-.07a7.54,7.54,0,0,0-.69-.88l-.08-.09a7.55,7.55,0,0,0-.8-.74l-.11-.09a7.52,7.52,0,0,0-.9-.59l-.13-.07a7.46,7.46,0,0,0-1-.44l-.15-.05a7.43,7.43,0,0,0-1.05-.27l-.16,0a7.49,7.49,0,0,0-1.11-.09H132a7.5,7.5,0,0,0-7,6,7.63,7.63,0,0,0-.1,2.46,7.38,7.38,0,0,0,2.63,4.78,7,7,0,0,0,.87.61v0l1-2.64a.09.09,0,0,0,0-.07l-.07-.06a4.3,4.3,0,0,1-1.32-1.76,4.67,4.67,0,0,1-.34-2.14,5.11,5.11,0,0,1,.11-.73,4.62,4.62,0,0,1,.56-1.42,4.49,4.49,0,0,1,1-1.14,4.89,4.89,0,0,1,.77-.51l.26-.12a4.45,4.45,0,0,1,.57-.22l.31-.08a4.59,4.59,0,0,1,.59-.09l.31,0h.14a5.52,5.52,0,0,1,.75.05,4.51,4.51,0,0,1,1.28.37,4.61,4.61,0,0,1,2.5,2.9,4.67,4.67,0,0,1,.17.87,5,5,0,0,1,0,.88,4.77,4.77,0,0,1-.12.76,4.53,4.53,0,0,1-.24.73,4.33,4.33,0,0,1-1.35,1.73.08.08,0,0,0,0,.11l.7,1.85.3.8a7.35,7.35,0,0,0,3-3.52,7.5,7.5,0,0,0-.09-5.85Z"/><path class="cls-9" d="M137.21,193a7.36,7.36,0,0,0,2-2.82A7.36,7.36,0,0,1,137.21,193Z"/><path class="cls-9" d="M132.13,182.68a5.38,5.38,0,0,1,.89,0,5.52,5.52,0,0,0-.75-.05Z"/><path class="cls-1" d="M111.6,111c7.07-1.91,19.82-1.42,19.82-1.42s11.68-.16,20,2.55v36.35s-.73,6.23-8.26,10.74S131.38,163,131.38,163s-6.12,0-13.31-4.79-6.47-9.71-6.47-9.71Z"/><ellipse class="cls-1" cx="115.9" cy="110.96" rx="11.17" ry="12.25"/><ellipse class="cls-10" cx="115.9" cy="110.96" rx="10.39" ry="11.4"/><g class="cls-11"><circle class="cls-12" cx="111.3" cy="113.14" r="5.64"/><circle class="cls-13" cx="110.09" cy="113.57" r="2.63"/><circle class="cls-9" cx="108.75" cy="113.31" r="0.85"/><circle class="cls-14" cx="114.09" cy="115.5" r="1.28"/><circle class="cls-9" cx="107.2" cy="112.66" r="0.49"/></g><ellipse class="cls-1" cx="148.15" cy="110.96" rx="11.17" ry="12.25"/><ellipse class="cls-10" cx="148.15" cy="110.96" rx="10.39" ry="11.4"/><g class="cls-11"><circle class="cls-12" cx="143.1" cy="113.14" r="5.64"/><circle class="cls-13" cx="141.88" cy="113.57" r="2.63"/><circle class="cls-9" cx="140.54" cy="113.31" r="0.85"/><circle class="cls-14" cx="145.89" cy="115.5" r="1.28"/><circle class="cls-9" cx="139" cy="112.66" r="0.49"/></g><path class="cls-1" d="M137,111.6c0-6.77,5-12.9,11.17-12.9s11.17,5.49,11.17,12.25a13.44,13.44,0,0,1-.13,1.77c-1.42-.36-7.25.07-11-.27C141,111.82,137,111.6,137,111.6Z"/><path class="cls-1" d="M139,86.66l-2.75,9.5s5.61,3.29,16.07,2.07c8.88-1,16.52-6.55,16.52-6.55l-2.73-6.27s-4.95,3.76-14,3.78S139,86.66,139,86.66Z"/><path class="cls-1" d="M105,110.53c0-6.77,5-11.76,11.12-11.76s11.17,5.49,11.17,12.25a13.44,13.44,0,0,1-.13,1.77c-1.42-.36-6.67.76-10.46.42A40.12,40.12,0,0,1,105,110.53Z"/><path class="cls-1" d="M125.79,89.09,125.34,99s-6.37,1.32-15.88-3.2c-8.08-3.84-13.55-11.51-13.55-11.51l4.6-5.07s3.48,5.15,12.07,8.08S125.79,89.09,125.79,89.09Z"/><path class="cls-10" d="M139.69,151.35a9.84,9.84,0,0,0-4-3.57,22.3,22.3,0,0,0-5-1.8c-.87-.24-1.78-.37-2.67-.57s-1.86-.36-2.79-.6a40.6,40.6,0,0,1-5.49-1.63,41.15,41.15,0,0,1,5.72.09c.94.05,1.88.18,2.81.26a23.22,23.22,0,0,1,2.89.5,15,15,0,0,1,5.41,2.44A7.31,7.31,0,0,1,139.69,151.35Z"/><path class="cls-15" d="M120.16,140.82a2.3,2.3,0,0,1,.37,1.33,3.19,3.19,0,0,1-.31,1.37,3,3,0,0,1-2.1,1.7c.22-.43.46-.76.65-1.11a10.88,10.88,0,0,0,.55-1,9.66,9.66,0,0,0,.45-1.06C119.9,141.66,120,141.27,120.16,140.82Z"/><path class="cls-1" d="M215.63,113.19l-4-.94a2.7,2.7,0,0,1-2.1-2.64v-1.25a11,11,0,0,0,5.06-9.26v-8h0v0a1.28,1.28,0,0,0-2-1,11.87,11.87,0,0,1-5,1.13,15.06,15.06,0,0,1-9.41-3.41L195,84.39a11.31,11.31,0,0,1,2-2.21,11.09,11.09,0,0,1,7-2.58,10.34,10.34,0,0,1,6.67,3.19,16.22,16.22,0,0,1,4.1,7.58,1.28,1.28,0,1,0,2.47-.67,18.71,18.71,0,0,0-4.8-8.76A12.86,12.86,0,0,0,204.08,77a13.25,13.25,0,0,0-5.69,1.23,10,10,0,1,0-5.88,18.91v1.89a11,11,0,0,0,5.43,9.49v1a2.7,2.7,0,0,1-2.1,2.64l-4,.94a8.53,8.53,0,0,0-6.62,8.34v5.17A1.28,1.28,0,0,0,186.5,128H221a1.28,1.28,0,0,0,1.28-1.28v-5.17A8.53,8.53,0,0,0,215.63,113.19ZM192.52,94.6A7.45,7.45,0,1,1,195.6,80l-.27.22a14.35,14.35,0,0,0-3,3.62h0A12.73,12.73,0,0,0,190.47,92a1.28,1.28,0,0,0,1.58,1.1l.48-.13Zm1-4.71a1.28,1.28,0,0,0-.4.18l-.12.05a10.09,10.09,0,0,1,.68-3.19,21.32,21.32,0,0,0,1.7,1.79,11.3,11.3,0,0,1-1.46,1Zm1.6,9.2V91.94h0a14.13,14.13,0,0,0,2.27-1.55A16.4,16.4,0,0,0,212,93.06v6a8.47,8.47,0,0,1-16.93,0Zm24.61,26.33H187.78v-3.89a6,6,0,0,1,4.64-5.85l.36-.08A13,13,0,0,0,198,120.4a1.28,1.28,0,1,0,1.14-2.29,10.39,10.39,0,0,1-3.73-3.14l1-.23a5.25,5.25,0,0,0,4.07-5.05,11,11,0,0,0,6.45-.11v0a5.25,5.25,0,0,0,4.07,5.13l1,.23a10.24,10.24,0,0,1-8.3,4.2,1.28,1.28,0,0,0,0,2.56,12.79,12.79,0,0,0,11-6.14l.36.08a6,6,0,0,1,4.64,5.85v3.89Z"/><circle class="cls-1" cx="199.68" cy="94.93" r="1.08"/><circle class="cls-1" cx="207.03" cy="94.93" r="1.08"/><path class="cls-1" d="M204.64,101.77a1.62,1.62,0,0,1-2.29,0,1.27,1.27,0,0,0-1.79,1.79,4.16,4.16,0,0,0,5.88,0,1.27,1.27,0,1,0-1.79-1.79Z"/><path class="cls-1" d="M63.23,104.78a4.14,4.14,0,0,0,2.94-1.22,1.27,1.27,0,1,0-1.79-1.79,1.62,1.62,0,0,1-2.29,0,1.27,1.27,0,0,0-1.79,1.79A4.14,4.14,0,0,0,63.23,104.78Z"/><path class="cls-1" d="M80.52,114.3a1.28,1.28,0,0,0-1.22,2.25,5.8,5.8,0,0,1,3.29,5v3.89H77.35V123.9a1.28,1.28,0,1,0-2.56,0v1.52h-23V123.9a1.28,1.28,0,1,0-2.56,0v1.52H44v-3.89c0-2.78,2.34-5.19,5.69-5.84l4.81-.94a6.69,6.69,0,0,0,1.62-.53,12,12,0,0,0,14.4,0,6.68,6.68,0,0,0,1.62.53l3.26.64.25,0a1.28,1.28,0,0,0,.24-2.53l-3.26-.64a3,3,0,0,1-2.65-2.63v-1.88a11,11,0,0,0,4.18-8.63v-8h0v0a1.28,1.28,0,0,0-2-1,11.87,11.87,0,0,1-5,1.13,15.06,15.06,0,0,1-9.41-3.41l-3.14-3.39a11.31,11.31,0,0,1,2-2.21,11.09,11.09,0,0,1,7-2.58,10.34,10.34,0,0,1,6.67,3.19,16.22,16.22,0,0,1,4.1,7.58,1.28,1.28,0,1,0,2.47-.67A18.71,18.71,0,0,0,71.94,81,12.86,12.86,0,0,0,63.62,77a13.5,13.5,0,0,0-8.75,3.18,14.35,14.35,0,0,0-3,3.62h0v0h0A12.73,12.73,0,0,0,50,92a1.28,1.28,0,0,0,1.58,1.1l.48-.13v6.11A11,11,0,0,0,56.61,108v1.6A3,3,0,0,1,54,112.24l-4.81.94c-4.57.89-7.76,4.33-7.76,8.35v5.17A1.28,1.28,0,0,0,42.68,128H83.87a1.28,1.28,0,0,0,1.28-1.28v-5.17A8.32,8.32,0,0,0,80.52,114.3ZM63.27,114a9.49,9.49,0,0,1-5.12-1.5,4.81,4.81,0,0,0,1-2.94v-.21a11,11,0,0,0,8.2-.15v.35a4.81,4.81,0,0,0,1,2.94A9.49,9.49,0,0,1,63.27,114ZM53,89.89a1.28,1.28,0,0,0-.4.18l-.12.05a10.09,10.09,0,0,1,.68-3.19,21.35,21.35,0,0,0,1.7,1.79,11.33,11.33,0,0,1-1.46,1Zm1.6,9.2V91.94h0a14.13,14.13,0,0,0,2.27-1.55,16.4,16.4,0,0,0,14.65,2.68v6a8.47,8.47,0,0,1-16.93,0Z"/><path class="cls-1" d="M77.83,66.12a12.08,12.08,0,0,0-8-21.09H69.7a12.11,12.11,0,0,0-11.12,7.54H53.31a1,1,0,0,0,0,2H58a12.15,12.15,0,0,0-.26,2H52.94a1,1,0,0,0,0,2h4.84a12,12,0,0,0,.39,2H53.31a1,1,0,0,0,0,2h5.61a12.16,12.16,0,0,0,2.29,3.22c.25.25.5.48.77.71a10,10,0,0,1-3.9.9A10.17,10.17,0,0,1,55.53,67a1,1,0,0,0-.91.25,8.75,8.75,0,0,1-3.62,2l-.41.11a10.6,10.6,0,0,0,1.25-3.39,1,1,0,0,0-.35-1,10.11,10.11,0,0,1,6.34-18h.07a10.19,10.19,0,0,1,1.77.17A1,1,0,1,0,60,45.23,12.17,12.17,0,0,0,57.9,45h-.08a12.08,12.08,0,0,0-8,21.09,7.61,7.61,0,0,1-1.4,3,1.49,1.49,0,0,0,1.14,2.44h.19a11.29,11.29,0,0,0,1.85-.39,10.85,10.85,0,0,0,4-2.13,12.22,12.22,0,0,0,2.54.2A12,12,0,0,0,63.8,67.6a12,12,0,0,0,5.67,1.59A12.19,12.19,0,0,0,72,69a10.85,10.85,0,0,0,4,2.13,11.3,11.3,0,0,0,1.85.39h.19a1.49,1.49,0,0,0,1.14-2.44A7.61,7.61,0,0,1,77.83,66.12Zm-1.22,3.11a8.75,8.75,0,0,1-3.62-2,1,1,0,0,0-.69-.28l-.22,0a10.17,10.17,0,0,1-2.56.26,10,10,0,0,1-5.1-1.55l-.15-.1a10.23,10.23,0,0,1-3.79-4.51l0-.05a10.11,10.11,0,0,1,9.26-14h.07a10.11,10.11,0,0,1,6.34,18,1,1,0,0,0-.35,1A10.6,10.6,0,0,0,77,69.34Z"/><path class="cls-1" d="M75.57,52.4H64.43a1,1,0,0,0,0,2H75.57a1,1,0,1,0,0-2Z"/><path class="cls-1" d="M75.57,56.33H64.43a1,1,0,0,0,0,2H75.57a1,1,0,1,0,0-2Z"/><path class="cls-1" d="M70.18,60.26H64.43a1,1,0,1,0,0,2h5.75a1,1,0,1,0,0-2Z"/><path class="cls-1" d="M217.57,66.12a12.08,12.08,0,0,0-8-21.09h-.08a12.11,12.11,0,0,0-11.12,7.54h-5.27a1,1,0,0,0,0,2h4.67a12.15,12.15,0,0,0-.26,2h-4.78a1,1,0,0,0,0,2h4.84a12,12,0,0,0,.39,2h-4.86a1,1,0,0,0,0,2h5.61A12.16,12.16,0,0,0,201,65.61c.25.25.5.48.77.71a10,10,0,0,1-3.9.9,10.17,10.17,0,0,1-2.56-.26,1,1,0,0,0-.91.25,8.75,8.75,0,0,1-3.62,2l-.41.11a10.6,10.6,0,0,0,1.25-3.39,1,1,0,0,0-.35-1,10.11,10.11,0,0,1,6.34-18h.07a10.19,10.19,0,0,1,1.77.17,1,1,0,1,0,.35-1.94,12.17,12.17,0,0,0-2.11-.2h-.08a12.08,12.08,0,0,0-8,21.09,7.61,7.61,0,0,1-1.4,3,1.49,1.49,0,0,0,1.14,2.44h.19a11.29,11.29,0,0,0,1.85-.39,10.85,10.85,0,0,0,4-2.13,12.22,12.22,0,0,0,2.54.2,12,12,0,0,0,5.66-1.59,12,12,0,0,0,5.67,1.59,12.19,12.19,0,0,0,2.54-.2,10.85,10.85,0,0,0,4,2.13,11.3,11.3,0,0,0,1.85.39h.19A1.49,1.49,0,0,0,219,69.08,7.61,7.61,0,0,1,217.57,66.12Zm-1.22,3.11a8.75,8.75,0,0,1-3.62-2,1,1,0,0,0-.69-.28l-.22,0a10.17,10.17,0,0,1-2.56.26,10,10,0,0,1-5.1-1.55l-.15-.1a10.23,10.23,0,0,1-3.79-4.51l0-.05a10.11,10.11,0,0,1,9.26-14h.07a10.11,10.11,0,0,1,6.34,18,1,1,0,0,0-.35,1,10.6,10.6,0,0,0,1.25,3.4Z"/><path class="cls-1" d="M215.31,52.4H204.18a1,1,0,0,0,0,2h11.14a1,1,0,1,0,0-2Z"/><path class="cls-1" d="M215.31,56.33H204.18a1,1,0,0,0,0,2h11.14a1,1,0,1,0,0-2Z"/><path class="cls-1" d="M209.93,60.26h-5.75a1,1,0,0,0,0,2h5.75a1,1,0,1,0,0-2Z"/><path class="cls-1" d="M134.41,108.41a2.45,2.45,0,0,0-2-1.08A115.13,115.13,0,0,1,130,76.88a3.9,3.9,0,1,0-.85,0,116.2,116.2,0,0,0,2.44,30.6,2.45,2.45,0,0,0-1.26.95,2.65,2.65,0,0,0-.64,1.71c0,1.48,1.2.82,2.67.82s2.67.65,2.67-.82A2.65,2.65,0,0,0,134.41,108.41Z"/><path class="cls-1" d="M131.53,75.85l-.13-.35-.31-.81a0,0,0,0,1,0,0,1.89,1.89,0,0,0,.59-.76,2,2,0,0,0,.16-.65,2.11,2.11,0,0,0-.08-.77,2,2,0,0,0-.61-.95,2,2,0,0,0-1-.48,2,2,0,0,0-1.62.44,2,2,0,0,0-.69,1.12,2.07,2.07,0,0,0,.1,1.26,1.88,1.88,0,0,0,.58.77l0,0a0,0,0,0,1,0,0l-.44,1.16h0a3.23,3.23,0,0,1-1.49-3.43,3.28,3.28,0,0,1,6.38-.17A3.24,3.24,0,0,1,131.53,75.85Z"/></svg>