<svg xmlns="http://www.w3.org/2000/svg" viewBox="0 0 259 254.06"><defs><style>.cls-1{fill:#d1d3d4;}.cls-2{fill:#f2f2f2;}.cls-3{opacity:0.6;}.cls-4{fill:#2d5eab;}.cls-5{fill:#3c296b;}.cls-6,.cls-7{fill:#fff;}.cls-7{opacity:0.5;}.cls-8{fill:#a7a9ac;}.cls-9{fill:#939598;}.cls-10{fill:#6d6e71;}.cls-11{fill:#5a5a5c;}.cls-12{fill:#818082;}.cls-13{fill:#808285;}.cls-14{fill:#bcbec0;}.cls-15{fill:#ccc;}.cls-16{fill:#e6e7e8;}.cls-17{fill:#f1f2f2;}</style></defs><title>robot</title><g id="Layer_1" data-name="Layer 1"><path class="cls-1" d="M123.41,149.46V117.71c-6-1.62-16.78-1.2-16.78-1.2a73.73,73.73,0,0,0-11.6.9l-.14,0c-1.15.2-2.31.43-3.42.72l-.14,0-.91.25h0l-.7.22v30.78s.62,5.27,7,9.1,10,3.19,10,3.19a16.48,16.48,0,0,0,3.68-.6h0s2.88-.32,7.44-3.32c.37-.25.71-.49,1-.74C124,153.24,123.41,149.46,123.41,149.46Z"/><path class="cls-1" d="M99.61,104l-.66-8.35s-5.43-.93-13.35,3.16c-6.73,3.48-11.14,10.13-11.14,10.13l4,4.16s2.8-4.46,10-7.19S99.61,104,99.61,104Z"/><path class="cls-1" d="M110.09,98.61l.15-8.38s5.36-1.26,13.52,2.33c6.93,3.06,11.74,9.42,11.74,9.42l-3.77,4.4s-3.07-4.28-10.41-6.56S110.09,98.61,110.09,98.61Z"/><path class="cls-1" d="M108.43,115a2.17,2.17,0,0,0-1.74-1,101.9,101.9,0,0,1-2.15-27,3.45,3.45,0,1,0-.75,0,102.85,102.85,0,0,0,2.16,27.09,2.17,2.17,0,0,0-1.12.84,2.34,2.34,0,0,0-.56,1.52c0,1.31,1.06.73,2.37.73s2.37.58,2.37-.73A2.34,2.34,0,0,0,108.43,115Z"/><path class="cls-1" d="M105.88,86.17l-.12-.31-.27-.72a0,0,0,0,1,0,0,1.68,1.68,0,0,0,.52-.67,1.78,1.78,0,0,0,.14-.58,1.87,1.87,0,0,0-.07-.68,1.76,1.76,0,0,0-.54-.84,1.74,1.74,0,0,0-.93-.42,1.8,1.8,0,0,0-1.43.39,1.73,1.73,0,0,0-.61,1,1.83,1.83,0,0,0,.09,1.11,1.67,1.67,0,0,0,.51.68l0,0a0,0,0,0,1,0,0l-.39,1h0a2.86,2.86,0,0,1-1.32-3,2.9,2.9,0,0,1,5.65-.15A2.87,2.87,0,0,1,105.88,86.17Z"/><ellipse class="cls-1" cx="92.88" cy="113.62" rx="9.46" ry="10.38"/><circle class="cls-2" cx="92.88" cy="114.47" r="8.8"/><g class="cls-3"><ellipse class="cls-4" cx="92.47" cy="114.35" rx="4.3" ry="5.22"/><ellipse class="cls-5" cx="93.4" cy="114.74" rx="2.01" ry="2.44"/><ellipse class="cls-6" cx="94.42" cy="114.5" rx="0.65" ry="0.79"/><ellipse class="cls-7" cx="90.35" cy="116.53" rx="0.97" ry="1.18"/><ellipse class="cls-6" cx="95.6" cy="113.89" rx="0.37" ry="0.45"/></g><ellipse class="cls-1" cx="120.19" cy="113.62" rx="9.46" ry="10.38"/><ellipse class="cls-2" cx="120.19" cy="115.31" rx="8.8" ry="7.96"/><path class="cls-1" d="M98.27,164.41c-.36,0-8.81,1.05-14.19,5.85a76.68,76.68,0,0,0-9.85,11.22l2.47,1.75a75,75,0,0,1,9.4-10.71c4.65-4.15,12.44-5.09,12.51-5.1Z"/><path class="cls-1" d="M123.27,213.76a52.89,52.89,0,0,0-11.65,1.2,22.34,22.34,0,0,1-10.09,0,52.89,52.89,0,0,0-11.65-1.2c-10.89,0-19.72,2.78-19.72,6.21s8.83,6.21,19.72,6.21a52.89,52.89,0,0,0,11.65-1.2,22.34,22.34,0,0,1,10.09,0,52.89,52.89,0,0,0,11.65,1.2c10.89,0,19.72-2.78,19.72-6.21S134.16,213.76,123.27,213.76Z"/><path class="cls-8" d="M88.86,184.75H79.29a3.72,3.72,0,0,0-3.54,2.37,38.5,38.5,0,0,0-1.52,4.68,37.73,37.73,0,0,0,2.13,22.06,34.62,34.62,0,0,0,2.28,4.68c1.81,2.22,3.34,3,6,3h4.52a7.8,7.8,0,0,0,7.67-6.38h0c1.46-7.84-.14-15.75-2.45-23.31,0,0-1.35-3.2-2-4.17C91.48,186.21,90.42,184.75,88.86,184.75Z"/><path class="cls-9" d="M96.83,215.16h0c1.46-7.84-.14-15.75-2.45-23.31,0,0-1.35-3.2-2-4.17-.92-1.46-2-2.9-3.5-2.93-1.25,0-2.15.69-2.86,2.36a44.91,44.91,0,0,0-1.24,4.68,45.62,45.62,0,0,0,1.74,22.06,38.43,38.43,0,0,0,1.86,4.68,6.3,6.3,0,0,0,2.93,2.7A7.8,7.8,0,0,0,96.83,215.16Z"/><ellipse class="cls-8" cx="90.44" cy="202.58" rx="4.95" ry="12.54" transform="translate(-20.65 10.55) rotate(-5.99)"/><ellipse class="cls-10" cx="91.01" cy="202.58" rx="4.47" ry="11.33" transform="translate(-20.65 10.61) rotate(-5.99)"/><ellipse class="cls-11" cx="89.64" cy="202.72" rx="2.68" ry="9.81" transform="translate(-20.67 10.46) rotate(-5.99)"/><ellipse class="cls-12" cx="89.07" cy="202.72" rx="2.02" ry="7.41" transform="translate(-20.68 10.41) rotate(-5.99)"/><path class="cls-8" d="M125.16,184.71h9.57a3.72,3.72,0,0,1,3.54,2.37,38.5,38.5,0,0,1,1.52,4.68,37.73,37.73,0,0,1-2.13,22.06,34.62,34.62,0,0,1-2.28,4.68c-1.81,2.22-3.34,3-6,3h-4.52a7.8,7.8,0,0,1-7.67-6.38h0c-1.46-7.84.14-15.75,2.45-23.31,0,0,1.35-3.2,2-4.17C122.54,186.17,123.61,184.71,125.16,184.71Z"/><path class="cls-9" d="M117.2,215.12h0c-1.46-7.84.14-15.75,2.45-23.31,0,0,1.35-3.2,2-4.17.92-1.46,2-2.9,3.5-2.93,1.25,0,2.15.69,2.86,2.36a44.91,44.91,0,0,1,1.24,4.68,45.62,45.62,0,0,1-1.74,22.06,38.43,38.43,0,0,1-1.86,4.68,6.3,6.3,0,0,1-2.93,2.7A7.8,7.8,0,0,1,117.2,215.12Z"/><ellipse class="cls-8" cx="123.59" cy="202.54" rx="12.54" ry="4.95" transform="translate(-90.75 304.31) rotate(-84.01)"/><ellipse class="cls-10" cx="123.02" cy="202.54" rx="11.33" ry="4.47" transform="translate(-91.25 303.75) rotate(-84.01)"/><ellipse class="cls-11" cx="124.39" cy="202.68" rx="9.81" ry="2.68" transform="translate(-90.17 305.24) rotate(-84.01)"/><ellipse class="cls-12" cx="124.96" cy="202.68" rx="7.41" ry="2.02" transform="translate(-89.66 305.8) rotate(-84.01)"/><path class="cls-13" d="M123.46,201.1c-1.63-1.52-7.26-6-17-6s-15,4.46-16.58,6a1.55,1.55,0,1,0,2,2c1.27-1.26,5.88-5.15,14.54-5.15s13.64,4,15,5.2a1.55,1.55,0,1,0,2-2Z"/><path class="cls-2" d="M109.17,156.57a14.44,14.44,0,0,0,8.11-5.82c2.73-3.65.88-10.73.88-10.73s-4.44,2.13-6,2.77a48.77,48.77,0,0,1-5.63,1.9,48.77,48.77,0,0,1-5.91.66c-1.65.07-6.57,0-6.57,0s1.32,7.2,5.33,9.35A14.29,14.29,0,0,0,109.17,156.57Z"/><path class="cls-14" d="M94.08,145.36a23.55,23.55,0,0,0,1.92,4.9,12.46,12.46,0,0,0,1.41,2.16,7,7,0,0,0,1.85,1.67,17.21,17.21,0,0,0,4.76,1.85,13.08,13.08,0,0,0,5.05.07H109a13.32,13.32,0,0,0,4.57-2.2,17,17,0,0,0,3.56-3.69,6.35,6.35,0,0,0,.59-1.09,10.35,10.35,0,0,0,.39-1.21,12.29,12.29,0,0,0,.37-2.56,23.53,23.53,0,0,0-.33-5.26,18.2,18.2,0,0,1,.61,2.6,19.54,19.54,0,0,1,.27,2.67,12.64,12.64,0,0,1-.2,2.71,7.4,7.4,0,0,1-1,2.62,15.07,15.07,0,0,1-1.66,2.18,15.85,15.85,0,0,1-2,1.88,14.15,14.15,0,0,1-4.92,2.44h-.06a13.89,13.89,0,0,1-5.48-.15,16,16,0,0,1-2.59-.88c-.41-.18-.83-.37-1.23-.58a10.4,10.4,0,0,1-1.19-.7,7.45,7.45,0,0,1-2-2,12.66,12.66,0,0,1-1.32-2.37,19.62,19.62,0,0,1-.88-2.53A18.23,18.23,0,0,1,94.08,145.36Z"/><rect class="cls-1" x="79.18" y="186.53" width="8.87" height="3.95" rx="1.98" ry="1.98" transform="translate(-27.25 362.39) rotate(-123.56)"/><rect class="cls-1" x="71.81" y="188.96" width="3.26" height="11.87" rx="1.63" ry="1.63" transform="translate(52.41 402.1) rotate(-153.56)"/><rect class="cls-1" x="67.95" y="187.14" width="3.26" height="13.54" rx="1.63" ry="1.63" transform="translate(45.54 398.51) rotate(-153.56)"/><rect class="cls-1" x="64.84" y="185.49" width="3.26" height="11.87" rx="1.63" ry="1.63" transform="translate(40.74 392.42) rotate(-153.56)"/><path class="cls-1" d="M77.85,189.66l3.09-6.21c.64-1.29-1.1-3.46-3.89-4.84s-5.57-1.47-6.21-.18l-3.09,6.21Z"/><ellipse class="cls-1" cx="96.36" cy="166.28" rx="4.78" ry="4.52" transform="translate(-55.07 47.94) rotate(-21.9)"/><circle class="cls-1" cx="96.26" cy="166.03" r="4.25" transform="translate(-54.98 47.89) rotate(-21.9)"/><circle class="cls-1" cx="97.21" cy="165.64" r="3.22" transform="translate(-54.77 48.22) rotate(-21.9)"/><path class="cls-1" d="M118.74,167.73l.39-2.6c.07,0,6.83,1,11.67-1.46s8.83-7.86,8.87-7.91l2.14,1.53c-.17.24-4.31,6-9.82,8.73S119.05,167.78,118.74,167.73Z"/><rect class="cls-1" x="132.64" y="145.85" width="8.09" height="3.61" rx="1.8" ry="1.8" transform="translate(233.39 -28.79) rotate(71.52)"/><rect class="cls-1" x="145.68" y="139.03" width="2.97" height="10.83" rx="1.49" ry="1.49" transform="translate(132.71 -61.26) rotate(41.52)"/><rect class="cls-1" x="148.85" y="140.05" width="2.97" height="12.35" rx="1.49" ry="1.49" transform="translate(134.69 -62.91) rotate(41.52)"/><rect class="cls-1" x="151" y="143.74" width="2.97" height="10.83" rx="1.49" ry="1.49" transform="translate(137.17 -63.6) rotate(41.52)"/><path class="cls-1" d="M142,148l-4.19,4.74c-.87,1,.15,3.31,2.28,5.19s4.56,2.61,5.43,1.63l4.19-4.74Z"/><ellipse class="cls-1" cx="117.04" cy="166.69" rx="4.52" ry="4.78" transform="translate(-86.52 159.93) rotate(-53.02)"/><circle class="cls-1" cx="116.88" cy="166.91" r="4.25" transform="translate(-86.76 159.89) rotate(-53.02)"/><circle class="cls-1" cx="117.71" cy="167.52" r="3.22" transform="translate(-86.92 160.79) rotate(-53.02)"/><path class="cls-15" d="M106.7,175.78h0Z"/><path class="cls-15" d="M109.32,185.6a.07.07,0,0,0,0,.1l.62,1.64-.62-1.64A.07.07,0,0,1,109.32,185.6Z"/><path class="cls-15" d="M108.46,178.64a4.17,4.17,0,0,1,1.74,1.51,4.17,4.17,0,0,0-1.74-1.51Z"/><path class="cls-15" d="M116.63,190.6V165.4c-3.56-1.28-10-1-10-1s-5.87-.11-10.05,1.72v24.43a11.36,11.36,0,0,0,4.15,7.22c3.79,3,5.92,2.53,5.92,2.53s3.08,0,6.69-3.22S116.63,190.6,116.63,190.6Zm-6.05-1.9-.79.47-.33-.86-.09-.23-.18-.48-.16-.41-.47-1.22a.84.84,0,0,1,.27-1,3,3,0,0,0,1-1.23,3.33,3.33,0,0,0,.26-1.07,3.47,3.47,0,0,0-.13-1.27,3.31,3.31,0,0,0-2.71-2.35,4.14,4.14,0,0,0-.56,0,3.25,3.25,0,0,0-2.13.77,3.17,3.17,0,0,0-1.13,1.84,3.4,3.4,0,0,0,.17,2.09,3,3,0,0,0,.93,1.24.93.93,0,0,1,.2.19.84.84,0,0,1,.13.8l-.87,2.3,0,0a.82.82,0,0,1-.07.15l-.38.65-.66-.39A7.39,7.39,0,0,1,106.36,175h.34a7.39,7.39,0,0,1,7.16,5.55A7.3,7.3,0,0,1,110.58,188.7Z"/><path class="cls-6" d="M112.77,179.74l0,0a6.63,6.63,0,0,0-.49-.89l0-.07a6.67,6.67,0,0,0-.61-.78l-.07-.08a6.68,6.68,0,0,0-.71-.65l-.09-.08a6.65,6.65,0,0,0-.79-.52l-.12-.07a6.6,6.6,0,0,0-.87-.39l-.13,0a6.57,6.57,0,0,0-.93-.24l-.15,0a6.63,6.63,0,0,0-1-.08h-.38a6.64,6.64,0,0,0-6.19,5.31,6.76,6.76,0,0,0-.08,2.18,6.54,6.54,0,0,0,2.33,4.23,6.16,6.16,0,0,0,.77.54v0l.89-2.34a.08.08,0,0,0,0-.06l-.06-.05a3.81,3.81,0,0,1-1.17-1.56,4.14,4.14,0,0,1-.3-1.89,4.53,4.53,0,0,1,.1-.65,4.09,4.09,0,0,1,.5-1.25,4,4,0,0,1,.89-1,4.33,4.33,0,0,1,.69-.45l.23-.1a3.93,3.93,0,0,1,.51-.2l.27-.07a4.07,4.07,0,0,1,.52-.08l.27,0h.13a4.88,4.88,0,0,1,.66,0,4,4,0,0,1,1.13.33,4.08,4.08,0,0,1,2.21,2.56,4.13,4.13,0,0,1,.15.77,4.46,4.46,0,0,1,0,.78,4.22,4.22,0,0,1-.11.67,4,4,0,0,1-.22.65,3.83,3.83,0,0,1-1.19,1.53.07.07,0,0,0,0,.1l.62,1.64.27.71a6.5,6.5,0,0,0,2.67-3.12,6.64,6.64,0,0,0-.08-5.18Z"/><path class="cls-6" d="M111,187.42a6.51,6.51,0,0,0,1.81-2.5A6.52,6.52,0,0,1,111,187.42Z"/><path class="cls-6" d="M106.54,178.27a4.76,4.76,0,0,1,.79,0,4.88,4.88,0,0,0-.66,0Z"/><path class="cls-1" d="M203.18,130h-1.69V76.9a1,1,0,0,0-1-1H181.54a1,1,0,0,0-1,1v4.4h-2V76.9a1,1,0,0,0-1-1h-4.4v-3a1,1,0,1,0-2,0v3h-4.4a1,1,0,0,0-1,1v4.4h-3a1,1,0,0,0-1,1v8.45h-8.45a1,1,0,0,0-1,1V130h-1.69a1,1,0,0,0,0,2h52.75a1,1,0,1,0,0-2Zm-35.5-52.07h8.79v3.38h-8.79ZM164.29,130h-.68v-1.69a1,1,0,0,0-2,0V130h-.68V126.6h3.38Zm6.76-26v26h-4.73v-4.4a1,1,0,0,0-1-1H159.9a1,1,0,0,0-1,1V130h-4.73V92.79h16.91v11.16Zm1-13.19h-8.45V83.32h16.91v19.61h-7.44V99.55h3a1,1,0,1,0,0-2h-3V94.14h3a1,1,0,1,0,0-2h-3v-.34A1,1,0,0,0,172.07,90.76ZM190,130H173.08V105H190Zm9.47,0H192V102.6a1,1,0,0,0-2,0v.34h-2v-.34a1,1,0,0,0-2,0v.34h-3.38v-25h16.91V130Z"/><path class="cls-1" d="M177.48,128a1,1,0,0,0,1-1V108a1,1,0,0,0-2,0v18.93A1,1,0,0,0,177.48,128Z"/><path class="cls-1" d="M181.54,128a1,1,0,0,0,1-1V108a1,1,0,1,0-2,0v18.93A1,1,0,0,0,181.54,128Z"/><path class="cls-1" d="M185.59,128a1,1,0,0,0,1-1V108a1,1,0,1,0-2,0v18.93A1,1,0,0,0,185.59,128Z"/><path class="cls-1" d="M186.95,84.68a1,1,0,0,0,1-1V82.31a1,1,0,1,0-2,0v1.35A1,1,0,0,0,186.95,84.68Z"/><path class="cls-1" d="M191,84.68a1,1,0,0,0,1-1V82.31a1,1,0,1,0-2,0v1.35A1,1,0,0,0,191,84.68Z"/><path class="cls-1" d="M195.06,84.68a1,1,0,0,0,1-1V82.31a1,1,0,1,0-2,0v1.35A1,1,0,0,0,195.06,84.68Z"/><path class="cls-1" d="M186.95,91.44a1,1,0,0,0,1-1V89.07a1,1,0,1,0-2,0v1.35A1,1,0,0,0,186.95,91.44Z"/><path class="cls-1" d="M191,91.44a1,1,0,0,0,1-1V89.07a1,1,0,1,0-2,0v1.35A1,1,0,0,0,191,91.44Z"/><path class="cls-1" d="M195.06,91.44a1,1,0,0,0,1-1V89.07a1,1,0,1,0-2,0v1.35A1,1,0,0,0,195.06,91.44Z"/><path class="cls-1" d="M186.95,98.2a1,1,0,0,0,1-1V95.83a1,1,0,1,0-2,0v1.35A1,1,0,0,0,186.95,98.2Z"/><path class="cls-1" d="M191,98.2a1,1,0,0,0,1-1V95.83a1,1,0,1,0-2,0v1.35A1,1,0,0,0,191,98.2Z"/><path class="cls-1" d="M195.06,98.2a1,1,0,0,0,1-1V95.83a1,1,0,1,0-2,0v1.35A1,1,0,0,0,195.06,98.2Z"/><path class="cls-1" d="M158.55,100.91a1,1,0,0,0,1-1V98.54a1,1,0,1,0-2,0v1.35A1,1,0,0,0,158.55,100.91Z"/><path class="cls-1" d="M162.6,100.91a1,1,0,0,0,1-1V98.54a1,1,0,1,0-2,0v1.35A1,1,0,0,0,162.6,100.91Z"/><path class="cls-1" d="M166.66,100.91a1,1,0,0,0,1-1V98.54a1,1,0,0,0-2,0v1.35A1,1,0,0,0,166.66,100.91Z"/><path class="cls-1" d="M158.55,107.67a1,1,0,0,0,1-1V105.3a1,1,0,0,0-2,0v1.35A1,1,0,0,0,158.55,107.67Z"/><path class="cls-1" d="M162.6,107.67a1,1,0,0,0,1-1V105.3a1,1,0,0,0-2,0v1.35A1,1,0,0,0,162.6,107.67Z"/><path class="cls-1" d="M166.66,107.67a1,1,0,0,0,1-1V105.3a1,1,0,0,0-2,0v1.35A1,1,0,0,0,166.66,107.67Z"/><path class="cls-1" d="M158.55,114.43a1,1,0,0,0,1-1v-1.35a1,1,0,0,0-2,0v1.35A1,1,0,0,0,158.55,114.43Z"/><path class="cls-1" d="M162.6,114.43a1,1,0,0,0,1-1v-1.35a1,1,0,0,0-2,0v1.35A1,1,0,0,0,162.6,114.43Z"/><path class="cls-1" d="M166.66,114.43a1,1,0,0,0,1-1v-1.35a1,1,0,0,0-2,0v1.35A1,1,0,0,0,166.66,114.43Z"/><path class="cls-1" d="M158.55,121.19a1,1,0,0,0,1-1v-1.35a1,1,0,1,0-2,0v1.35A1,1,0,0,0,158.55,121.19Z"/><path class="cls-1" d="M162.6,121.19a1,1,0,0,0,1-1v-1.35a1,1,0,0,0-2,0v1.35A1,1,0,0,0,162.6,121.19Z"/><path class="cls-1" d="M166.66,121.19a1,1,0,0,0,1-1v-1.35a1,1,0,0,0-2,0v1.35A1,1,0,0,0,166.66,121.19Z"/><path class="cls-1" d="M195.06,105a1,1,0,0,0,1-1V102.6a1,1,0,0,0-2,0v1.35A1,1,0,0,0,195.06,105Z"/><path class="cls-1" d="M195.06,111.73a1,1,0,0,0,1-1v-1.35a1,1,0,0,0-2,0v1.35A1,1,0,0,0,195.06,111.73Z"/><path class="cls-1" d="M195.06,118.49a1,1,0,0,0,1-1v-1.35a1,1,0,0,0-2,0v1.35A1,1,0,0,0,195.06,118.49Z"/><path class="cls-1" d="M195.06,125.25a1,1,0,0,0,1-1v-1.35a1,1,0,0,0-2,0v1.35A1,1,0,0,0,195.06,125.25Z"/><path class="cls-1" d="M177.14,87.72a1,1,0,0,0-1-1H168a1,1,0,0,0,0,2h8.11A1,1,0,0,0,177.14,87.72Z"/><path class="cls-1" d="M155.44,82l-.27-.71-.62-1.64a.07.07,0,0,1,0-.1A3.83,3.83,0,0,0,155.77,78a4.07,4.07,0,0,0,.32-1.32,4.26,4.26,0,0,0-.16-1.55,4,4,0,0,0-1.23-1.92,4,4,0,0,0-2.12-1,4.1,4.1,0,0,0-3.28.89,4,4,0,0,0-1.39,2.27,4.19,4.19,0,0,0,.21,2.54,3.81,3.81,0,0,0,1.17,1.56l.06.05a.08.08,0,0,1,0,.06L148.49,82v0a6.54,6.54,0,0,1-3-6.94,6.63,6.63,0,0,1,12.92-.34A6.56,6.56,0,0,1,155.44,82Z"/><path class="cls-1" d="M147.07,53l-.13-.35-.31-.82a0,0,0,0,1,0,0,1.92,1.92,0,0,0,.6-.77,2,2,0,0,0,.16-.66,2.13,2.13,0,0,0-.08-.77,2,2,0,0,0-.61-1,2,2,0,0,0-1.06-.48,2.05,2.05,0,0,0-1.64.45,2,2,0,0,0-.7,1.13,2.09,2.09,0,0,0,.1,1.27,1.9,1.9,0,0,0,.58.78l0,0a0,0,0,0,1,0,0L143.59,53h0a3.27,3.27,0,0,1-1.51-3.47,3.31,3.31,0,0,1,6.46-.17A3.28,3.28,0,0,1,147.07,53Z"/><path class="cls-1" d="M139.07,69l-.18-.48-.42-1.12a0,0,0,0,1,0-.07,2.62,2.62,0,0,0,.81-1,2.78,2.78,0,0,0,.22-.9,2.91,2.91,0,0,0-.11-1.06,2.75,2.75,0,0,0-.84-1.31,2.72,2.72,0,0,0-1.45-.66,2.81,2.81,0,0,0-2.24.61,2.7,2.7,0,0,0-.95,1.55,2.86,2.86,0,0,0,.14,1.74,2.6,2.6,0,0,0,.8,1.06l0,0a.05.05,0,0,1,0,0l-.6,1.6h0a4.47,4.47,0,0,1-2.06-4.75,4.53,4.53,0,0,1,8.83-.23A4.49,4.49,0,0,1,139.07,69Z"/><path class="cls-16" d="M123.56,58.18l-.18-.47-.42-1.1a0,0,0,0,1,0-.07,2.57,2.57,0,0,0,.8-1,2.73,2.73,0,0,0,.22-.88,2.86,2.86,0,0,0-.11-1,2.7,2.7,0,0,0-.82-1.29,2.66,2.66,0,0,0-1.42-.65,2.75,2.75,0,0,0-2.19.6,2.65,2.65,0,0,0-.93,1.52,2.81,2.81,0,0,0,.14,1.7,2.55,2.55,0,0,0,.78,1l0,0a.05.05,0,0,1,0,0l-.59,1.57h0a4.38,4.38,0,0,1-2-4.65,4.44,4.44,0,0,1,8.65-.23A4.4,4.4,0,0,1,123.56,58.18Z"/><path class="cls-16" d="M119.64,32l-.09-.24-.21-.55a0,0,0,0,1,0,0,1.28,1.28,0,0,0,.4-.51,1.36,1.36,0,0,0,.11-.44,1.43,1.43,0,0,0-.05-.52,1.35,1.35,0,0,0-.41-.64,1.33,1.33,0,0,0-.71-.32,1.38,1.38,0,0,0-1.1.3,1.32,1.32,0,0,0-.47.76,1.4,1.4,0,0,0,.07.85,1.28,1.28,0,0,0,.39.52l0,0a0,0,0,0,1,0,0l-.3.78h0a2.19,2.19,0,0,1-1-2.33,2.22,2.22,0,0,1,4.33-.11A2.2,2.2,0,0,1,119.64,32Z"/><path class="cls-16" d="M113.23,44.06l-.12-.32-.28-.75a0,0,0,0,1,0,0,1.75,1.75,0,0,0,.55-.7,1.87,1.87,0,0,0,.15-.6,2,2,0,0,0-.07-.71,1.84,1.84,0,0,0-.56-.88,1.82,1.82,0,0,0-1-.44,1.88,1.88,0,0,0-1.5.41,1.81,1.81,0,0,0-.64,1,1.92,1.92,0,0,0,.09,1.16,1.74,1.74,0,0,0,.54.71l0,0a0,0,0,0,1,0,0L110,44h0a3,3,0,0,1-1.38-3.18,3,3,0,0,1,5.91-.16A3,3,0,0,1,113.23,44.06Z"/><path class="cls-17" d="M134.86,42.82l-.15-.4-.35-.92a0,0,0,0,1,0-.05,2.14,2.14,0,0,0,.67-.86,2.28,2.28,0,0,0,.18-.74,2.39,2.39,0,0,0-.09-.87,2.25,2.25,0,0,0-.69-1.07,2.22,2.22,0,0,0-1.18-.54,2.3,2.3,0,0,0-1.83.5,2.21,2.21,0,0,0-.78,1.27,2.34,2.34,0,0,0,.11,1.42,2.13,2.13,0,0,0,.65.87l0,0a0,0,0,0,1,0,0l-.5,1.31h0a3.66,3.66,0,0,1-1.69-3.89,3.71,3.71,0,0,1,7.23-.19A3.67,3.67,0,0,1,134.86,42.82Z"/><path class="cls-17" d="M122.2,15.4l-.08-.2-.17-.46a0,0,0,0,1,0,0,1.07,1.07,0,0,0,.33-.43,1.14,1.14,0,0,0,.09-.37,1.19,1.19,0,0,0,0-.43,1.13,1.13,0,0,0-.34-.54,1.11,1.11,0,0,0-.59-.27,1.15,1.15,0,0,0-.92.25,1.11,1.11,0,0,0-.39.63,1.17,1.17,0,0,0,.06.71,1.07,1.07,0,0,0,.33.44h0a0,0,0,0,1,0,0l-.25.65h0a1.83,1.83,0,0,1-.84-1.94,1.85,1.85,0,0,1,3.61-.1A1.84,1.84,0,0,1,122.2,15.4Z"/><path class="cls-17" d="M131.27,26.92l-.1-.27-.24-.63a0,0,0,0,1,0,0,1.47,1.47,0,0,0,.46-.59,1.56,1.56,0,0,0,.12-.51,1.63,1.63,0,0,0-.06-.59,1.54,1.54,0,0,0-.47-.73,1.52,1.52,0,0,0-.81-.37,1.57,1.57,0,0,0-1.25.34,1.51,1.51,0,0,0-.53.87,1.6,1.6,0,0,0,.08,1,1.46,1.46,0,0,0,.45.6l0,0a0,0,0,0,1,0,0l-.34.89h0a2.5,2.5,0,0,1-1.15-2.66,2.54,2.54,0,0,1,4.94-.13A2.51,2.51,0,0,1,131.27,26.92Z"/></g><g id="Layer_2" data-name="Layer 2"><g class="cls-3"><ellipse class="cls-4" cx="120.19" cy="114.35" rx="4.3" ry="5.22"/><ellipse class="cls-5" cx="121.12" cy="114.74" rx="2.01" ry="2.44"/><ellipse class="cls-6" cx="122.14" cy="114.5" rx="0.65" ry="0.79"/><ellipse class="cls-7" cx="118.06" cy="116.53" rx="0.97" ry="1.18"/><ellipse class="cls-6" cx="123.32" cy="113.89" rx="0.37" ry="0.45"/></g></g></svg>