<svg xmlns="http://www.w3.org/2000/svg" viewBox="0 0 259 265"><defs><style>.cls-1,.cls-2{fill:none;stroke:#d1d3d4;stroke-width:3px;}.cls-1{stroke-miterlimit:10;}.cls-2{stroke-linecap:round;stroke-linejoin:round;}.cls-3{fill:#d1d3d4;}.cls-4{fill:#e6e7e8;}.cls-5{fill:#f1f2f2;}.cls-6{fill:#f2f2f2;}.cls-7{opacity:0.6;}.cls-8{fill:#2d5eab;}.cls-9{fill:#3c296b;}.cls-10,.cls-11{fill:#fff;}.cls-11{opacity:0.5;}.cls-12{fill:#a7a9ac;}.cls-13{fill:#939598;}.cls-14{fill:#6d6e71;}.cls-15{fill:#5a5a5c;}.cls-16{fill:#818082;}.cls-17{fill:#808285;}.cls-18{fill:#bcbec0;}.cls-19{fill:#ccc;}</style></defs><title>robot</title><g id="Layer_1" data-name="Layer 1"><path class="cls-1" d="M173.08,120.47a27.51,27.51,0,1,1,9.26,6.71"/><path class="cls-2" d="M173.09,120.47a17.7,17.7,0,0,1-11.41,12.2s14.14,3.23,20.66-5.5"/><circle class="cls-3" cx="180.41" cy="101.82" r="2.56"/><circle class="cls-3" cx="193.59" cy="101.82" r="2.56"/><circle class="cls-3" cx="206.77" cy="101.82" r="2.56"/><path class="cls-3" d="M151.24,83.17l.27-.71.62-1.64a.07.07,0,0,0,0-.1,3.83,3.83,0,0,1-1.19-1.53,4.07,4.07,0,0,1-.32-1.32,4.26,4.26,0,0,1,.16-1.55A4,4,0,0,1,152,74.4a4,4,0,0,1,2.12-1,4.1,4.1,0,0,1,3.28.89,4,4,0,0,1,1.39,2.27,4.19,4.19,0,0,1-.21,2.54,3.81,3.81,0,0,1-1.17,1.56l-.06.05a.08.08,0,0,0,0,.06l.89,2.34v0a6.54,6.54,0,0,0,3-6.94,6.63,6.63,0,0,0-12.92-.34A6.56,6.56,0,0,0,151.24,83.17Z"/><path class="cls-3" d="M159.61,54.18l.13-.35.31-.82a0,0,0,0,0,0,0,1.92,1.92,0,0,1-.6-.77,2,2,0,0,1-.16-.66,2.13,2.13,0,0,1,.08-.77,2,2,0,0,1,.61-1,2,2,0,0,1,1.06-.48,2.05,2.05,0,0,1,1.64.45,2,2,0,0,1,.7,1.13,2.09,2.09,0,0,1-.1,1.27,1.9,1.9,0,0,1-.58.78l0,0a0,0,0,0,0,0,0l.44,1.17h0a3.27,3.27,0,0,0,1.51-3.47,3.31,3.31,0,0,0-6.46-.17A3.28,3.28,0,0,0,159.61,54.18Z"/><path class="cls-3" d="M167.61,70.2l.18-.48.42-1.12a0,0,0,0,0,0-.07,2.62,2.62,0,0,1-.81-1,2.78,2.78,0,0,1-.22-.9,2.91,2.91,0,0,1,.11-1.06,2.75,2.75,0,0,1,.84-1.31,2.72,2.72,0,0,1,1.45-.66,2.81,2.81,0,0,1,2.24.61,2.7,2.7,0,0,1,.95,1.55,2.86,2.86,0,0,1-.14,1.74,2.6,2.6,0,0,1-.8,1.06l0,0a.05.05,0,0,0,0,0l.6,1.6h0a4.47,4.47,0,0,0,2.06-4.75,4.53,4.53,0,0,0-8.83-.23A4.49,4.49,0,0,0,167.61,70.2Z"/><path class="cls-4" d="M183.12,59.33l.18-.47.42-1.1a0,0,0,0,0,0-.07,2.57,2.57,0,0,1-.8-1,2.73,2.73,0,0,1-.22-.88,2.86,2.86,0,0,1,.11-1,2.7,2.7,0,0,1,.82-1.29,2.66,2.66,0,0,1,1.42-.65,2.75,2.75,0,0,1,2.19.6,2.65,2.65,0,0,1,.93,1.52,2.81,2.81,0,0,1-.14,1.7,2.55,2.55,0,0,1-.78,1l0,0a.05.05,0,0,0,0,0l.59,1.57h0a4.38,4.38,0,0,0,2-4.65,4.44,4.44,0,0,0-8.65-.23A4.4,4.4,0,0,0,183.12,59.33Z"/><path class="cls-4" d="M187,33.18l.09-.24.21-.55a0,0,0,0,0,0,0,1.28,1.28,0,0,1-.4-.51,1.36,1.36,0,0,1-.11-.44,1.43,1.43,0,0,1,.05-.52,1.35,1.35,0,0,1,.41-.64,1.33,1.33,0,0,1,.71-.32,1.38,1.38,0,0,1,1.1.3,1.32,1.32,0,0,1,.47.76,1.4,1.4,0,0,1-.07.85,1.28,1.28,0,0,1-.39.52l0,0a0,0,0,0,0,0,0l.3.78h0a2.19,2.19,0,0,0,1-2.33,2.22,2.22,0,0,0-4.33-.11A2.2,2.2,0,0,0,187,33.18Z"/><path class="cls-4" d="M193.45,45.21l.12-.32.28-.75a0,0,0,0,0,0,0,1.75,1.75,0,0,1-.55-.7,1.87,1.87,0,0,1-.15-.6,2,2,0,0,1,.07-.71,1.84,1.84,0,0,1,.56-.88,1.82,1.82,0,0,1,1-.44,1.88,1.88,0,0,1,1.5.41,1.81,1.81,0,0,1,.64,1,1.92,1.92,0,0,1-.09,1.16,1.74,1.74,0,0,1-.54.71l0,0a0,0,0,0,0,0,0l.41,1.07h0A3,3,0,0,0,198,42a3,3,0,0,0-5.91-.16A3,3,0,0,0,193.45,45.21Z"/><path class="cls-5" d="M171.82,44l.15-.4.35-.92a0,0,0,0,0,0-.05,2.14,2.14,0,0,1-.67-.86,2.28,2.28,0,0,1-.18-.74,2.39,2.39,0,0,1,.09-.87,2.25,2.25,0,0,1,.69-1.07,2.22,2.22,0,0,1,1.18-.54,2.3,2.3,0,0,1,1.83.5A2.21,2.21,0,0,1,176,40.3a2.34,2.34,0,0,1-.11,1.42,2.13,2.13,0,0,1-.65.87l0,0a0,0,0,0,0,0,0l.5,1.31h0a3.66,3.66,0,0,0,1.69-3.89,3.71,3.71,0,0,0-7.23-.19A3.67,3.67,0,0,0,171.82,44Z"/><path class="cls-5" d="M184.48,16.55l.08-.2.17-.46a0,0,0,0,0,0,0,1.07,1.07,0,0,1-.33-.43,1.14,1.14,0,0,1-.09-.37,1.19,1.19,0,0,1,0-.43,1.13,1.13,0,0,1,.34-.54,1.11,1.11,0,0,1,.59-.27,1.15,1.15,0,0,1,.92.25,1.11,1.11,0,0,1,.39.63,1.17,1.17,0,0,1-.06.71,1.07,1.07,0,0,1-.33.44h0a0,0,0,0,0,0,0l.25.65h0a1.83,1.83,0,0,0,.84-1.94,1.85,1.85,0,0,0-3.61-.1A1.84,1.84,0,0,0,184.48,16.55Z"/><path class="cls-5" d="M175.41,28.07l.1-.27.24-.63a0,0,0,0,0,0,0,1.47,1.47,0,0,1-.46-.59,1.56,1.56,0,0,1-.12-.51,1.63,1.63,0,0,1,.06-.59,1.54,1.54,0,0,1,.47-.73,1.52,1.52,0,0,1,.81-.37,1.57,1.57,0,0,1,1.25.34,1.51,1.51,0,0,1,.53.87,1.6,1.6,0,0,1-.08,1,1.46,1.46,0,0,1-.45.6l0,0a0,0,0,0,0,0,0l.34.89h0a2.5,2.5,0,0,0,1.15-2.66,2.54,2.54,0,0,0-4.94-.13A2.51,2.51,0,0,0,175.41,28.07Z"/></g><g id="Layer_2" data-name="Layer 2"><path class="cls-3" d="M131.26,149.38V113.51c-6.77-1.83-19-1.36-19-1.36a83.3,83.3,0,0,0-13.11,1l-.16,0c-1.3.22-2.61.49-3.86.82l-.16,0-1,.28h0l-.79.25v34.78s.7,6,7.9,10.28,11.26,3.6,11.26,3.6a18.61,18.61,0,0,0,4.15-.68h0s3.25-.36,8.4-3.75c.42-.28.8-.56,1.16-.84C131.88,153.65,131.26,149.38,131.26,149.38Z"/><path class="cls-3" d="M105.7,95.3l-.75-9.44s-6.14-1.05-15.08,3.57c-7.6,3.93-12.58,11.45-12.58,11.45l4.56,4.7s3.16-5,11.28-8.12S105.7,95.3,105.7,95.3Z"/><path class="cls-3" d="M115.48,94.46l.17-9.46s6.06-1.43,15.27,2.64c7.83,3.45,13.26,10.65,13.26,10.65l-4.26,5s-3.47-4.83-11.76-7.41S115.48,94.46,115.48,94.46Z"/><path class="cls-3" d="M114.34,110.44a2.45,2.45,0,0,0-2-1.08,115.13,115.13,0,0,1-2.43-30.45,3.9,3.9,0,1,0-.85,0,116.2,116.2,0,0,0,2.44,30.6,2.45,2.45,0,0,0-1.26.95,2.65,2.65,0,0,0-.64,1.71c0,1.48,1.2.82,2.67.82s2.67.65,2.67-.82A2.65,2.65,0,0,0,114.34,110.44Z"/><path class="cls-3" d="M111.46,77.88l-.13-.35-.31-.81a0,0,0,0,1,0,0,1.89,1.89,0,0,0,.59-.76,2,2,0,0,0,.16-.65,2.11,2.11,0,0,0-.08-.77,2,2,0,0,0-.61-.95,2,2,0,0,0-1-.48,2,2,0,0,0-1.62.44,2,2,0,0,0-.69,1.12,2.07,2.07,0,0,0,.1,1.26,1.88,1.88,0,0,0,.58.77l0,0a0,0,0,0,1,0,0L108,77.86h0a3.23,3.23,0,0,1-1.49-3.43,3.28,3.28,0,0,1,6.38-.17A3.24,3.24,0,0,1,111.46,77.88Z"/><ellipse class="cls-3" cx="96.77" cy="108.89" rx="10.69" ry="11.72"/><circle class="cls-6" cx="96.77" cy="109.85" r="9.94"/><g class="cls-7"><ellipse class="cls-8" cx="96.31" cy="109.71" rx="4.86" ry="5.9"/><ellipse class="cls-9" cx="97.36" cy="110.16" rx="2.27" ry="2.75"/><ellipse class="cls-10" cx="98.51" cy="109.89" rx="0.74" ry="0.89"/><ellipse class="cls-11" cx="93.91" cy="112.18" rx="1.1" ry="1.33"/><ellipse class="cls-10" cx="99.85" cy="109.2" rx="0.42" ry="0.51"/></g><ellipse class="cls-3" cx="127.63" cy="108.89" rx="10.69" ry="11.72"/><ellipse class="cls-6" cx="127.63" cy="110.81" rx="9.94" ry="8.99"/><path class="cls-3" d="M102.86,166.27c-.4,0-10,1.19-16,6.61A86.63,86.63,0,0,0,75.7,185.57l2.79,2a84.75,84.75,0,0,1,10.62-12.11c5.25-4.69,14.05-5.76,14.14-5.77Z"/><path class="cls-3" d="M131.11,222a59.76,59.76,0,0,0-13.17,1.36,25.24,25.24,0,0,1-11.4,0A59.76,59.76,0,0,0,93.38,222c-12.3,0-22.28,3.14-22.28,7s10,7,22.28,7a59.76,59.76,0,0,0,13.17-1.36,25.24,25.24,0,0,1,11.4,0,59.76,59.76,0,0,0,13.17,1.36c12.3,0,22.28-3.14,22.28-7S143.41,222,131.11,222Z"/><path class="cls-12" d="M92.23,189.25H81.42a4.2,4.2,0,0,0-4,2.67,43.49,43.49,0,0,0-1.72,5.28,42.63,42.63,0,0,0,2.41,24.92,39.11,39.11,0,0,0,2.58,5.29c2,2.5,3.78,3.4,6.77,3.4h5.1a8.82,8.82,0,0,0,8.67-7.21h0c1.64-8.86-.16-17.79-2.77-26.33,0,0-1.53-3.61-2.22-4.72C95.19,190.9,94,189.25,92.23,189.25Z"/><path class="cls-13" d="M101.23,223.62h0c1.64-8.86-.16-17.79-2.77-26.33,0,0-1.53-3.61-2.22-4.72-1-1.65-2.23-3.28-4-3.31-1.41,0-2.43.78-3.23,2.67a50.74,50.74,0,0,0-1.4,5.28,51.54,51.54,0,0,0,2,24.92,43.42,43.42,0,0,0,2.11,5.29,7.12,7.12,0,0,0,3.31,3A8.81,8.81,0,0,0,101.23,223.62Z"/><ellipse class="cls-12" cx="94.01" cy="209.4" rx="5.59" ry="14.17" transform="translate(-21.35 10.96) rotate(-5.99)"/><ellipse class="cls-14" cx="94.65" cy="209.4" rx="5.05" ry="12.79" transform="translate(-21.34 11.02) rotate(-5.99)"/><ellipse class="cls-15" cx="93.11" cy="209.56" rx="3.03" ry="11.08" transform="translate(-21.37 10.86) rotate(-5.99)"/><ellipse class="cls-16" cx="92.47" cy="209.56" rx="2.29" ry="8.37" transform="translate(-21.37 10.8) rotate(-5.99)"/><path class="cls-12" d="M133.24,189.21h10.81a4.2,4.2,0,0,1,4,2.67,43.49,43.49,0,0,1,1.72,5.28,42.63,42.63,0,0,1-2.41,24.92,39.11,39.11,0,0,1-2.58,5.29c-2,2.5-3.78,3.4-6.77,3.4h-5.1a8.82,8.82,0,0,1-8.67-7.21h0c-1.64-8.86.16-17.79,2.77-26.33,0,0,1.53-3.61,2.22-4.72C130.28,190.85,131.49,189.21,133.24,189.21Z"/><path class="cls-13" d="M124.25,223.57h0c-1.64-8.86.16-17.79,2.77-26.33,0,0,1.53-3.61,2.22-4.72,1-1.65,2.23-3.28,4-3.31,1.41,0,2.43.78,3.23,2.67a50.74,50.74,0,0,1,1.4,5.28,51.54,51.54,0,0,1-2,24.92,43.42,43.42,0,0,1-2.11,5.29,7.12,7.12,0,0,1-3.31,3A8.81,8.81,0,0,1,124.25,223.57Z"/><ellipse class="cls-12" cx="131.46" cy="209.35" rx="14.17" ry="5.59" transform="translate(-90.47 318.24) rotate(-84.01)"/><ellipse class="cls-14" cx="130.82" cy="209.35" rx="12.79" ry="5.05" transform="translate(-91.04 317.61) rotate(-84.01)"/><ellipse class="cls-15" cx="132.37" cy="209.52" rx="11.08" ry="3.03" transform="translate(-89.82 319.29) rotate(-84.01)"/><ellipse class="cls-16" cx="133.01" cy="209.52" rx="8.37" ry="2.29" transform="translate(-89.25 319.93) rotate(-84.01)"/><path class="cls-17" d="M131.32,207.73c-1.84-1.72-8.21-6.79-19.2-6.79s-17,5-18.74,6.8a1.75,1.75,0,1,0,2.31,2.21c1.43-1.42,6.65-5.81,16.43-5.81s15.41,4.47,17,5.87a1.75,1.75,0,1,0,2.24-2.28Z"/><path class="cls-6" d="M115.17,157.42a16.31,16.31,0,0,0,9.16-6.58c3.08-4.12,1-12.13,1-12.13s-5,2.41-6.73,3.13a55.1,55.1,0,0,1-6.36,2.15,55.1,55.1,0,0,1-6.68.74c-1.86.07-7.42,0-7.42,0s1.49,8.14,6,10.57C108.27,157.52,111.54,158,115.17,157.42Z"/><path class="cls-18" d="M98.13,144.75a26.6,26.6,0,0,0,2.17,5.53,14.08,14.08,0,0,0,1.59,2.44,7.89,7.89,0,0,0,2.09,1.89,19.45,19.45,0,0,0,5.38,2.09,14.78,14.78,0,0,0,5.71.08H115a15,15,0,0,0,5.16-2.49,19.2,19.2,0,0,0,4-4.16,7.17,7.17,0,0,0,.67-1.23,11.7,11.7,0,0,0,.44-1.37,13.88,13.88,0,0,0,.41-2.89,26.58,26.58,0,0,0-.37-5.95,20.56,20.56,0,0,1,.69,2.93,22.08,22.08,0,0,1,.31,3,14.28,14.28,0,0,1-.22,3.06,8.36,8.36,0,0,1-1.08,3,17,17,0,0,1-1.87,2.46,17.91,17.91,0,0,1-2.25,2.13,16,16,0,0,1-5.55,2.76h-.07a15.69,15.69,0,0,1-6.19-.17,18.09,18.09,0,0,1-2.93-1c-.47-.21-.93-.42-1.38-.66a11.76,11.76,0,0,1-1.34-.79,8.41,8.41,0,0,1-2.21-2.22,14.31,14.31,0,0,1-1.49-2.68,22.16,22.16,0,0,1-1-2.86A20.59,20.59,0,0,1,98.13,144.75Z"/><rect class="cls-3" x="81.29" y="191.26" width="10.02" height="4.47" rx="2.23" ry="2.23" transform="translate(-27.24 372.37) rotate(-123.56)"/><rect class="cls-3" x="72.96" y="194.01" width="3.68" height="13.41" rx="1.84" ry="1.84" transform="translate(52.41 413.74) rotate(-153.56)"/><rect class="cls-3" x="68.6" y="191.95" width="3.68" height="15.3" rx="1.84" ry="1.84" transform="translate(44.64 409.69) rotate(-153.56)"/><rect class="cls-3" x="65.08" y="190.09" width="3.68" height="13.41" rx="1.84" ry="1.84" transform="translate(39.22 402.8) rotate(-153.56)"/><path class="cls-3" d="M79.79,194.8l3.49-7c.72-1.46-1.24-3.91-4.39-5.47s-6.29-1.66-7-.2l-3.49,7Z"/><ellipse class="cls-3" cx="100.7" cy="168.38" rx="5.4" ry="5.1" transform="translate(-55.54 49.71) rotate(-21.9)"/><circle class="cls-3" cx="100.59" cy="168.1" r="4.8" transform="translate(-55.44 49.65) rotate(-21.9)"/><circle class="cls-3" cx="101.67" cy="167.67" r="3.64" transform="translate(-55.2 50.02) rotate(-21.9)"/><path class="cls-3" d="M126,170l.44-2.94c.08,0,7.71,1.11,13.18-1.65s10-8.88,10-8.94l2.42,1.73c-.2.27-4.87,6.73-11.1,9.87S126.34,170.08,126,170Z"/><rect class="cls-3" x="141.69" y="145.31" width="9.15" height="4.08" rx="2.04" ry="2.04" transform="translate(239.63 -38.09) rotate(71.52)"/><rect class="cls-3" x="156.42" y="137.6" width="3.36" height="12.23" rx="1.68" ry="1.68" transform="translate(134.98 -68.69) rotate(41.52)"/><rect class="cls-3" x="160" y="138.75" width="3.36" height="13.96" rx="1.68" ry="1.68" transform="translate(137.21 -70.55) rotate(41.52)"/><rect class="cls-3" x="162.44" y="142.92" width="3.36" height="12.23" rx="1.68" ry="1.68" transform="translate(140.01 -71.34) rotate(41.52)"/><path class="cls-3" d="M152.3,147.74l-4.74,5.35c-1,1.11.17,3.74,2.57,5.86s5.15,3,6.13,1.84l4.74-5.35Z"/><ellipse class="cls-3" cx="124.07" cy="168.85" rx="5.1" ry="5.4" transform="translate(-85.45 166.4) rotate(-53.02)"/><circle class="cls-3" cx="123.89" cy="169.09" r="4.8" transform="translate(-85.71 166.36) rotate(-53.02)"/><circle class="cls-3" cx="124.82" cy="169.79" r="3.64" transform="translate(-85.9 167.38) rotate(-53.02)"/><path class="cls-19" d="M112.39,179.12h0Z"/><path class="cls-19" d="M115.34,190.22a.08.08,0,0,0,0,.11l.7,1.85-.7-1.85A.08.08,0,0,1,115.34,190.22Z"/><path class="cls-19" d="M114.37,182.35a4.71,4.71,0,0,1,2,1.71,4.71,4.71,0,0,0-2-1.71Z"/><path class="cls-19" d="M123.61,195.86V167.4c-4-1.45-11.26-1.08-11.26-1.08s-6.64-.12-11.36,1.94v27.6a12.84,12.84,0,0,0,4.69,8.16c4.28,3.43,6.69,2.86,6.69,2.86s3.47,0,7.56-3.64S123.61,195.86,123.61,195.86Zm-6.84-2.15-.89.54-.37-1-.1-.26-.2-.54L115,192l-.53-1.38a1,1,0,0,1,.31-1.11,3.44,3.44,0,0,0,1.08-1.39,3.76,3.76,0,0,0,.29-1.21,3.92,3.92,0,0,0-.15-1.44,3.74,3.74,0,0,0-3.06-2.65,4.67,4.67,0,0,0-.63,0,3.68,3.68,0,0,0-2.41.86,3.58,3.58,0,0,0-1.27,2.08,3.84,3.84,0,0,0,.19,2.36,3.41,3.41,0,0,0,1,1.4,1,1,0,0,1,.23.22,1,1,0,0,1,.14.9l-1,2.6,0,0a.93.93,0,0,1-.08.16l-.43.74-.75-.44a8.35,8.35,0,0,1,4-15.46h.39a8.35,8.35,0,0,1,8.09,6.27A8.25,8.25,0,0,1,116.77,193.72Z"/><path class="cls-10" d="M119.24,183.6l0,0a7.49,7.49,0,0,0-.55-1l0-.07a7.54,7.54,0,0,0-.69-.88l-.08-.09a7.55,7.55,0,0,0-.8-.74l-.11-.09a7.52,7.52,0,0,0-.9-.59l-.13-.07a7.46,7.46,0,0,0-1-.44l-.15-.05a7.43,7.43,0,0,0-1.05-.27l-.16,0a7.49,7.49,0,0,0-1.11-.09H112a7.5,7.5,0,0,0-7,6,7.63,7.63,0,0,0-.1,2.46,7.38,7.38,0,0,0,2.63,4.78,7,7,0,0,0,.87.61v0l1-2.64a.09.09,0,0,0,0-.07l-.07-.06a4.3,4.3,0,0,1-1.32-1.76,4.67,4.67,0,0,1-.34-2.14,5.11,5.11,0,0,1,.11-.73,4.62,4.62,0,0,1,.56-1.42,4.49,4.49,0,0,1,1-1.14,4.89,4.89,0,0,1,.77-.51l.26-.12a4.45,4.45,0,0,1,.57-.22l.31-.08a4.59,4.59,0,0,1,.59-.09l.31,0h.14a5.52,5.52,0,0,1,.75.05,4.51,4.51,0,0,1,1.28.37,4.61,4.61,0,0,1,2.5,2.9,4.67,4.67,0,0,1,.17.87,5,5,0,0,1,0,.88,4.77,4.77,0,0,1-.12.76,4.53,4.53,0,0,1-.24.73,4.33,4.33,0,0,1-1.35,1.73.08.08,0,0,0,0,.11l.7,1.85.3.8a7.35,7.35,0,0,0,3-3.52,7.5,7.5,0,0,0-.09-5.85Z"/><path class="cls-10" d="M117.29,192.27a7.36,7.36,0,0,0,2-2.82A7.36,7.36,0,0,1,117.29,192.27Z"/><path class="cls-10" d="M112.2,181.94a5.38,5.38,0,0,1,.89,0,5.52,5.52,0,0,0-.75-.05Z"/><g class="cls-7"><ellipse class="cls-8" cx="127.63" cy="109.71" rx="4.86" ry="5.9"/><ellipse class="cls-9" cx="128.67" cy="110.16" rx="2.27" ry="2.75"/><ellipse class="cls-10" cx="129.83" cy="109.89" rx="0.74" ry="0.89"/><ellipse class="cls-11" cx="125.22" cy="112.18" rx="1.1" ry="1.33"/><ellipse class="cls-10" cx="131.16" cy="109.2" rx="0.42" ry="0.51"/></g></g></svg>