<svg id="Layer_1" data-name="Layer 1" xmlns="http://www.w3.org/2000/svg" viewBox="0 0 66.9 92.1"><defs><style>.cls-1{fill:#d1d3d4;}.cls-2{fill:#f2f2f2;}.cls-3{opacity:0.6;}.cls-4{fill:#2d5eab;}.cls-5{fill:#3c296b;}.cls-6,.cls-7{fill:#fff;}.cls-7{opacity:0.5;isolation:isolate;}.cls-8{fill:#bcbec0;}</style></defs><title>robot-head</title><g id="Layer_1-2" data-name="Layer 1"><path class="cls-1" d="M54,77.47V41.6c-6.77-1.83-19-1.36-19-1.36a83.3,83.3,0,0,0-13.11,1h-.16c-1.3.22-2.61.49-3.86.82h-.16l-1,.28h0l-.79.25V77.37s.7,6,7.9,10.28,11.26,3.6,11.26,3.6a18.61,18.61,0,0,0,4.15-.68h0s3.25-.36,8.4-3.75c.42-.28.8-.56,1.16-.84C54.6,81.74,54,77.47,54,77.47Z" transform="translate(0 0.81)"/><path class="cls-1" d="M28.42,23.39,27.66,14s-6.14-1.05-15.08,3.57C5,21.46,0,29,0,29l4.56,4.7s3.16-5,11.28-8.12S28.42,23.39,28.42,23.39Z" transform="translate(0 0.81)"/><path class="cls-1" d="M38.2,22.55l.17-9.46s6.06-1.43,15.27,2.64C61.47,19.18,66.9,26.38,66.9,26.38l-4.26,5S59.17,26.55,50.88,24,38.2,22.55,38.2,22.55Z" transform="translate(0 0.81)"/><path class="cls-1" d="M37.06,38.53a2.45,2.45,0,0,0-2-1.08A115.13,115.13,0,0,1,32.66,7a3.9,3.9,0,1,0-.85,0,116.2,116.2,0,0,0,2.44,30.6,2.45,2.45,0,0,0-1.26.95,2.65,2.65,0,0,0-.64,1.71c0,1.48,1.2.82,2.67.82s2.67.65,2.67-.82A2.65,2.65,0,0,0,37.06,38.53Z" transform="translate(0 0.81)"/><path class="cls-1" d="M34.18,6l-.13-.35-.31-.81h0A1.89,1.89,0,0,0,34.33,4a2,2,0,0,0,.16-.65,2.11,2.11,0,0,0-.08-.77,2,2,0,0,0-3.92.13A2.07,2.07,0,0,0,30.59,4a1.88,1.88,0,0,0,.58.77h0L30.72,6h0a3.23,3.23,0,0,1-1.49-3.43,3.28,3.28,0,0,1,6.38-.17A3.24,3.24,0,0,1,34.18,6Z" transform="translate(0 0.81)"/><ellipse class="cls-1" cx="19.49" cy="37.79" rx="10.69" ry="11.72"/><circle class="cls-2" cx="19.49" cy="38.75" r="9.94"/><g class="cls-3"><ellipse class="cls-4" cx="19.03" cy="38.61" rx="4.86" ry="5.9"/><ellipse class="cls-5" cx="20.08" cy="39.05" rx="2.27" ry="2.75"/><ellipse class="cls-6" cx="21.23" cy="38.79" rx="0.74" ry="0.89"/><ellipse class="cls-7" cx="16.63" cy="41.08" rx="1.1" ry="1.33"/><ellipse class="cls-6" cx="22.57" cy="38.1" rx="0.42" ry="0.51"/></g><ellipse class="cls-1" cx="50.35" cy="37.79" rx="10.69" ry="11.72"/><ellipse class="cls-2" cx="50.35" cy="39.7" rx="9.94" ry="8.99"/><path class="cls-2" d="M37.89,85.51a16.31,16.31,0,0,0,9.16-6.58c3.08-4.12,1-12.13,1-12.13s-5,2.41-6.73,3.13A55.1,55.1,0,0,1,35,72.08a55.1,55.1,0,0,1-6.68.74c-1.86.07-7.42,0-7.42,0s1.49,8.14,6,10.57C31,85.61,34.26,86.11,37.89,85.51Z" transform="translate(0 0.81)"/><path class="cls-8" d="M20.85,72.84A26.6,26.6,0,0,0,23,78.37a14.08,14.08,0,0,0,1.59,2.44A7.89,7.89,0,0,0,26.7,82.7a19.45,19.45,0,0,0,5.38,2.09,14.78,14.78,0,0,0,5.71.08h-.07a15,15,0,0,0,5.16-2.49,19.2,19.2,0,0,0,4-4.16A7.17,7.17,0,0,0,47.55,77,11.7,11.7,0,0,0,48,75.62a13.88,13.88,0,0,0,.41-2.89A26.58,26.58,0,0,0,48,66.78a20.56,20.56,0,0,1,.69,2.93,22.08,22.08,0,0,1,.31,3,14.28,14.28,0,0,1-.22,3.06,8.36,8.36,0,0,1-1.08,3,17,17,0,0,1-1.87,2.46,17.91,17.91,0,0,1-2.25,2.13,16,16,0,0,1-5.55,2.76H38a15.69,15.69,0,0,1-6.19-.17,18.09,18.09,0,0,1-2.93-1c-.47-.21-.93-.42-1.38-.66a11.76,11.76,0,0,1-1.34-.79,8.41,8.41,0,0,1-2.21-2.22,14.31,14.31,0,0,1-1.49-2.68,22.16,22.16,0,0,1-1-2.86A20.59,20.59,0,0,1,20.85,72.84Z" transform="translate(0 0.81)"/></g><g id="Layer_2" data-name="Layer 2"><g class="cls-3"><ellipse class="cls-4" cx="50.35" cy="38.61" rx="4.86" ry="5.9"/><ellipse class="cls-5" cx="51.39" cy="39.05" rx="2.27" ry="2.75"/><ellipse class="cls-6" cx="52.55" cy="38.79" rx="0.74" ry="0.89"/><ellipse class="cls-7" cx="47.94" cy="41.08" rx="1.1" ry="1.33"/><ellipse class="cls-6" cx="53.88" cy="38.1" rx="0.42" ry="0.51"/></g></g></svg>