<svg xmlns="http://www.w3.org/2000/svg" viewBox="0 0 271 254.06"><defs><style>.cls-1{fill:#d1d3d4;}.cls-2{fill:#f2f2f2;}.cls-3{opacity:0.6;}.cls-4{fill:#2d5eab;}.cls-5{fill:#3c296b;}.cls-6,.cls-7{fill:#fff;}.cls-7{opacity:0.5;}.cls-8{fill:#a7a9ac;}.cls-9{fill:#939598;}.cls-10{fill:#6d6e71;}.cls-11{fill:#5a5a5c;}.cls-12{fill:#818082;}.cls-13{fill:#808285;}.cls-14{fill:#bcbec0;}.cls-15{fill:#ccc;}.cls-16,.cls-17{fill:none;stroke:#d1d3d4;stroke-width:3px;}.cls-16{stroke-miterlimit:10;}.cls-17{stroke-linecap:round;stroke-linejoin:round;}.cls-18{fill:#e6e7e8;}.cls-19{fill:#f1f2f2;}</style></defs><title>robot</title><g id="Layer_1" data-name="Layer 1"><path class="cls-1" d="M132.26,139.5V103.63c-6.77-1.83-19-1.36-19-1.36a83.3,83.3,0,0,0-13.11,1l-.16,0c-1.3.22-2.61.49-3.86.82l-.16,0-1,.28h0l-.79.25v34.78s.7,6,7.9,10.28,11.26,3.6,11.26,3.6a18.61,18.61,0,0,0,4.15-.68h0s3.25-.36,8.4-3.75c.42-.28.8-.56,1.16-.84C132.88,143.77,132.26,139.5,132.26,139.5Z"/><path class="cls-1" d="M106.7,85.42,105.94,76s-6.14-1.05-15.08,3.57C83.26,83.49,78.28,91,78.28,91l4.56,4.7s3.16-5,11.28-8.12S106.7,85.42,106.7,85.42Z"/><path class="cls-1" d="M116.48,84.58l.17-9.46s6.06-1.43,15.27,2.64c7.83,3.45,13.26,10.65,13.26,10.65l-4.26,5s-3.47-4.83-11.76-7.41S116.48,84.58,116.48,84.58Z"/><path class="cls-1" d="M115.34,100.56a2.45,2.45,0,0,0-2-1.08A115.13,115.13,0,0,1,110.94,69a3.9,3.9,0,1,0-.85,0,116.2,116.2,0,0,0,2.44,30.6,2.45,2.45,0,0,0-1.26.95,2.65,2.65,0,0,0-.64,1.71c0,1.48,1.2.82,2.67.82s2.67.65,2.67-.82A2.65,2.65,0,0,0,115.34,100.56Z"/><path class="cls-1" d="M112.46,68l-.13-.35-.31-.81a0,0,0,0,1,0,0,1.89,1.89,0,0,0,.59-.76,2,2,0,0,0,.16-.65,2.11,2.11,0,0,0-.08-.77,2,2,0,0,0-.61-.95,2,2,0,0,0-1-.48,2,2,0,0,0-1.62.44,2,2,0,0,0-.69,1.12,2.07,2.07,0,0,0,.1,1.26,1.88,1.88,0,0,0,.58.77l0,0a0,0,0,0,1,0,0L109,68h0a3.23,3.23,0,0,1-1.49-3.43,3.28,3.28,0,0,1,6.38-.17A3.24,3.24,0,0,1,112.46,68Z"/><ellipse class="cls-1" cx="97.77" cy="99.01" rx="10.69" ry="11.72"/><circle class="cls-2" cx="97.77" cy="99.97" r="9.94"/><g class="cls-3"><ellipse class="cls-4" cx="97.31" cy="99.83" rx="4.86" ry="5.9"/><ellipse class="cls-5" cx="98.36" cy="100.27" rx="2.27" ry="2.75"/><ellipse class="cls-6" cx="99.51" cy="100.01" rx="0.74" ry="0.89"/><ellipse class="cls-7" cx="94.91" cy="102.3" rx="1.1" ry="1.33"/><ellipse class="cls-6" cx="100.85" cy="99.32" rx="0.42" ry="0.51"/></g><ellipse class="cls-1" cx="128.63" cy="99.01" rx="10.69" ry="11.72"/><ellipse class="cls-2" cx="128.63" cy="100.92" rx="9.94" ry="8.99"/><path class="cls-1" d="M103.86,156.39c-.4,0-10,1.19-16,6.61A86.63,86.63,0,0,0,76.7,175.69l2.79,2a84.75,84.75,0,0,1,10.62-12.11c5.25-4.69,14.05-5.76,14.14-5.77Z"/><path class="cls-1" d="M132.11,212.15a59.76,59.76,0,0,0-13.17,1.36,25.24,25.24,0,0,1-11.4,0,59.76,59.76,0,0,0-13.17-1.36c-12.3,0-22.28,3.14-22.28,7s10,7,22.28,7a59.76,59.76,0,0,0,13.17-1.36,25.24,25.24,0,0,1,11.4,0,59.76,59.76,0,0,0,13.17,1.36c12.3,0,22.28-3.14,22.28-7S144.41,212.15,132.11,212.15Z"/><path class="cls-8" d="M93.23,179.37H82.42a4.2,4.2,0,0,0-4,2.67,43.49,43.49,0,0,0-1.72,5.28,42.63,42.63,0,0,0,2.41,24.92,39.11,39.11,0,0,0,2.58,5.29c2,2.5,3.78,3.4,6.77,3.4h5.1a8.82,8.82,0,0,0,8.67-7.21h0c1.64-8.86-.16-17.79-2.77-26.33,0,0-1.53-3.61-2.22-4.72C96.19,181,95,179.37,93.23,179.37Z"/><path class="cls-9" d="M102.23,213.73h0c1.64-8.86-.16-17.79-2.77-26.33,0,0-1.53-3.61-2.22-4.72-1-1.65-2.23-3.28-4-3.31-1.41,0-2.43.78-3.23,2.67a50.74,50.74,0,0,0-1.4,5.28,51.54,51.54,0,0,0,2,24.92,43.42,43.42,0,0,0,2.11,5.29,7.12,7.12,0,0,0,3.31,3A8.81,8.81,0,0,0,102.23,213.73Z"/><ellipse class="cls-8" cx="95.01" cy="199.52" rx="5.59" ry="14.17" transform="translate(-20.31 11.01) rotate(-5.99)"/><ellipse class="cls-10" cx="95.65" cy="199.52" rx="5.05" ry="12.79" transform="translate(-20.3 11.08) rotate(-5.99)"/><ellipse class="cls-11" cx="94.11" cy="199.68" rx="3.03" ry="11.08" transform="translate(-20.33 10.91) rotate(-5.99)"/><ellipse class="cls-12" cx="93.47" cy="199.68" rx="2.29" ry="8.37" transform="translate(-20.33 10.85) rotate(-5.99)"/><path class="cls-8" d="M134.24,179.32h10.81a4.2,4.2,0,0,1,4,2.67,43.49,43.49,0,0,1,1.72,5.28,42.63,42.63,0,0,1-2.41,24.92,39.11,39.11,0,0,1-2.58,5.29c-2,2.5-3.78,3.4-6.77,3.4h-5.1a8.82,8.82,0,0,1-8.67-7.21h0c-1.64-8.86.16-17.79,2.77-26.33,0,0,1.53-3.61,2.22-4.72C131.28,181,132.49,179.32,134.24,179.32Z"/><path class="cls-9" d="M125.25,213.69h0c-1.64-8.86.16-17.79,2.77-26.33,0,0,1.53-3.61,2.22-4.72,1-1.65,2.23-3.28,4-3.31,1.41,0,2.43.78,3.23,2.67a50.74,50.74,0,0,1,1.4,5.28,51.54,51.54,0,0,1-2,24.92,43.42,43.42,0,0,1-2.11,5.29,7.12,7.12,0,0,1-3.31,3A8.81,8.81,0,0,1,125.25,213.69Z"/><ellipse class="cls-8" cx="132.46" cy="199.47" rx="14.17" ry="5.59" transform="translate(-79.75 310.39) rotate(-84.01)"/><ellipse class="cls-10" cx="131.82" cy="199.47" rx="12.79" ry="5.05" transform="translate(-80.32 309.75) rotate(-84.01)"/><ellipse class="cls-11" cx="133.37" cy="199.63" rx="11.08" ry="3.03" transform="translate(-79.1 311.43) rotate(-84.01)"/><ellipse class="cls-12" cx="134.01" cy="199.63" rx="8.37" ry="2.29" transform="translate(-78.52 312.07) rotate(-84.01)"/><path class="cls-13" d="M132.32,197.84c-1.84-1.72-8.21-6.79-19.2-6.79s-17,5-18.74,6.8a1.75,1.75,0,1,0,2.31,2.21c1.43-1.42,6.65-5.81,16.43-5.81s15.41,4.47,17,5.87a1.75,1.75,0,1,0,2.24-2.28Z"/><path class="cls-2" d="M116.17,147.54a16.31,16.31,0,0,0,9.16-6.58c3.08-4.12,1-12.13,1-12.13s-5,2.41-6.73,3.13a55.1,55.1,0,0,1-6.36,2.15,55.1,55.1,0,0,1-6.68.74c-1.86.07-7.42,0-7.42,0s1.49,8.14,6,10.57C109.27,147.64,112.54,148.14,116.17,147.54Z"/><path class="cls-14" d="M99.13,134.87a26.6,26.6,0,0,0,2.17,5.53,14.08,14.08,0,0,0,1.59,2.44,7.89,7.89,0,0,0,2.09,1.89,19.45,19.45,0,0,0,5.38,2.09,14.78,14.78,0,0,0,5.71.08H116a15,15,0,0,0,5.16-2.49,19.2,19.2,0,0,0,4-4.16,7.17,7.17,0,0,0,.67-1.23,11.7,11.7,0,0,0,.44-1.37,13.88,13.88,0,0,0,.41-2.89,26.58,26.58,0,0,0-.37-5.95,20.56,20.56,0,0,1,.69,2.93,22.08,22.08,0,0,1,.31,3,14.28,14.28,0,0,1-.22,3.06,8.36,8.36,0,0,1-1.08,3,17,17,0,0,1-1.87,2.46,17.91,17.91,0,0,1-2.25,2.13,16,16,0,0,1-5.55,2.76h-.07a15.69,15.69,0,0,1-6.19-.17,18.09,18.09,0,0,1-2.93-1c-.47-.21-.93-.42-1.38-.66a11.76,11.76,0,0,1-1.34-.79,8.41,8.41,0,0,1-2.21-2.22,14.31,14.31,0,0,1-1.49-2.68,22.16,22.16,0,0,1-1-2.86A20.59,20.59,0,0,1,99.13,134.87Z"/><rect class="cls-1" x="82.29" y="181.38" width="10.02" height="4.47" rx="2.23" ry="2.23" transform="translate(-17.45 357.86) rotate(-123.56)"/><rect class="cls-1" x="73.96" y="184.13" width="3.68" height="13.41" rx="1.84" ry="1.84" transform="translate(58.7 395.45) rotate(-153.56)"/><rect class="cls-1" x="69.6" y="182.07" width="3.68" height="15.3" rx="1.84" ry="1.84" transform="translate(50.94 391.4) rotate(-153.56)"/><rect class="cls-1" x="66.08" y="180.21" width="3.68" height="13.41" rx="1.84" ry="1.84" transform="translate(45.52 384.52) rotate(-153.56)"/><path class="cls-1" d="M80.79,184.92l3.49-7c.72-1.46-1.24-3.91-4.39-5.47s-6.29-1.66-7-.2l-3.49,7Z"/><ellipse class="cls-1" cx="101.7" cy="158.5" rx="5.4" ry="5.1" transform="translate(-51.78 49.37) rotate(-21.9)"/><circle class="cls-1" cx="101.59" cy="158.22" r="4.8" transform="translate(-51.69 49.31) rotate(-21.9)"/><circle class="cls-1" cx="102.67" cy="157.79" r="3.64" transform="translate(-51.45 49.68) rotate(-21.9)"/><path class="cls-1" d="M127,160.14l.44-2.94c.08,0,7.71,1.11,13.18-1.65s10-8.88,10-8.94l2.42,1.73c-.2.27-4.87,6.73-11.1,9.87S127.34,160.2,127,160.14Z"/><rect class="cls-1" x="142.69" y="135.42" width="9.15" height="4.08" rx="2.04" ry="2.04" transform="translate(230.94 -45.78) rotate(71.52)"/><rect class="cls-1" x="157.42" y="127.72" width="3.36" height="12.23" rx="1.68" ry="1.68" transform="matrix(0.75, 0.66, -0.66, 0.75, 128.68, -71.84)"/><rect class="cls-1" x="161" y="128.87" width="3.36" height="13.96" rx="1.68" ry="1.68" transform="translate(130.91 -73.7) rotate(41.52)"/><rect class="cls-1" x="163.44" y="133.04" width="3.36" height="12.23" rx="1.68" ry="1.68" transform="translate(133.72 -74.48) rotate(41.52)"/><path class="cls-1" d="M153.3,137.85l-4.74,5.35c-1,1.11.17,3.74,2.57,5.86s5.15,3,6.13,1.84l4.74-5.35Z"/><ellipse class="cls-1" cx="125.07" cy="158.97" rx="5.1" ry="5.4" transform="translate(-77.16 163.27) rotate(-53.02)"/><circle class="cls-1" cx="124.89" cy="159.21" r="4.8" transform="translate(-77.42 163.22) rotate(-53.02)"/><circle class="cls-1" cx="125.82" cy="159.91" r="3.64" transform="translate(-77.61 164.24) rotate(-53.02)"/><path class="cls-15" d="M113.39,169.23h0Z"/><path class="cls-15" d="M116.34,180.33a.08.08,0,0,0,0,.11l.7,1.85-.7-1.85A.08.08,0,0,1,116.34,180.33Z"/><path class="cls-15" d="M115.37,172.46a4.71,4.71,0,0,1,2,1.71,4.71,4.71,0,0,0-2-1.71Z"/><path class="cls-15" d="M124.61,186V157.51c-4-1.45-11.26-1.08-11.26-1.08s-6.64-.12-11.36,1.94V186a12.84,12.84,0,0,0,4.69,8.16c4.28,3.43,6.69,2.86,6.69,2.86s3.47,0,7.56-3.64S124.61,186,124.61,186Zm-6.84-2.15-.89.54-.37-1-.1-.26-.2-.54-.18-.46-.53-1.38a1,1,0,0,1,.31-1.11,3.44,3.44,0,0,0,1.08-1.39,3.76,3.76,0,0,0,.29-1.21,3.92,3.92,0,0,0-.15-1.44A3.74,3.74,0,0,0,114,173a4.67,4.67,0,0,0-.63,0,3.68,3.68,0,0,0-2.41.86,3.58,3.58,0,0,0-1.27,2.08,3.84,3.84,0,0,0,.19,2.36,3.41,3.41,0,0,0,1,1.4,1,1,0,0,1,.23.22,1,1,0,0,1,.14.9l-1,2.6,0,0a.93.93,0,0,1-.08.16l-.43.74-.75-.44a8.35,8.35,0,0,1,4-15.46h.39a8.35,8.35,0,0,1,8.09,6.27A8.25,8.25,0,0,1,117.77,183.83Z"/><path class="cls-6" d="M120.24,173.72l0,0a7.49,7.49,0,0,0-.55-1l0-.07a7.54,7.54,0,0,0-.69-.88l-.08-.09a7.55,7.55,0,0,0-.8-.74l-.11-.09a7.52,7.52,0,0,0-.9-.59l-.13-.07a7.46,7.46,0,0,0-1-.44l-.15-.05a7.43,7.43,0,0,0-1.05-.27l-.16,0a7.49,7.49,0,0,0-1.11-.09H113a7.5,7.5,0,0,0-7,6,7.63,7.63,0,0,0-.1,2.46,7.38,7.38,0,0,0,2.63,4.78,7,7,0,0,0,.87.61v0l1-2.64a.09.09,0,0,0,0-.07l-.07-.06a4.3,4.3,0,0,1-1.32-1.76,4.67,4.67,0,0,1-.34-2.14,5.11,5.11,0,0,1,.11-.73,4.62,4.62,0,0,1,.56-1.42,4.49,4.49,0,0,1,1-1.14,4.89,4.89,0,0,1,.77-.51l.26-.12a4.45,4.45,0,0,1,.57-.22l.31-.08a4.59,4.59,0,0,1,.59-.09l.31,0h.14a5.52,5.52,0,0,1,.75.05,4.51,4.51,0,0,1,1.28.37,4.61,4.61,0,0,1,2.5,2.9,4.67,4.67,0,0,1,.17.87,5,5,0,0,1,0,.88,4.77,4.77,0,0,1-.12.76,4.53,4.53,0,0,1-.24.73,4.33,4.33,0,0,1-1.35,1.73.08.08,0,0,0,0,.11l.7,1.85.3.8a7.35,7.35,0,0,0,3-3.52,7.5,7.5,0,0,0-.09-5.85Z"/><path class="cls-6" d="M118.29,182.39a7.36,7.36,0,0,0,2-2.82A7.36,7.36,0,0,1,118.29,182.39Z"/><path class="cls-6" d="M113.2,172.06a5.38,5.38,0,0,1,.89,0,5.52,5.52,0,0,0-.75-.05Z"/><path class="cls-16" d="M174.08,110.59a27.51,27.51,0,1,1,9.26,6.71"/><path class="cls-17" d="M174.09,110.59a17.7,17.7,0,0,1-11.41,12.2s14.14,3.23,20.66-5.5"/><path class="cls-1" d="M140.83,70l.27-.71.62-1.64a.07.07,0,0,0,0-.1,3.83,3.83,0,0,1-1.19-1.53,4.07,4.07,0,0,1-.32-1.32,4.26,4.26,0,0,1,.16-1.55,4,4,0,0,1,1.23-1.92,4,4,0,0,1,2.12-1,4.1,4.1,0,0,1,3.28.89,4,4,0,0,1,1.39,2.27,4.19,4.19,0,0,1-.21,2.54A3.81,3.81,0,0,1,147,67.57l-.06.05a.08.08,0,0,0,0,.06l.89,2.34v0a6.54,6.54,0,0,0,3-6.94,6.63,6.63,0,0,0-12.92-.34A6.56,6.56,0,0,0,140.83,70Z"/><path class="cls-1" d="M149.2,41.06l.13-.35.31-.82a0,0,0,0,0,0,0,1.92,1.92,0,0,1-.6-.77,2,2,0,0,1-.16-.66,2.13,2.13,0,0,1,.08-.77,2,2,0,0,1,.61-1,2,2,0,0,1,1.06-.48,2.05,2.05,0,0,1,1.64.45,2,2,0,0,1,.7,1.13,2.09,2.09,0,0,1-.1,1.27,1.9,1.9,0,0,1-.58.78l0,0a0,0,0,0,0,0,0l.44,1.17h0a3.27,3.27,0,0,0,1.51-3.47,3.31,3.31,0,0,0-6.46-.17A3.28,3.28,0,0,0,149.2,41.06Z"/><path class="cls-1" d="M157.2,57.08l.18-.48.42-1.12a0,0,0,0,0,0-.07,2.62,2.62,0,0,1-.81-1,2.78,2.78,0,0,1-.22-.9,2.91,2.91,0,0,1,.11-1.06,2.75,2.75,0,0,1,.84-1.31,2.72,2.72,0,0,1,1.45-.66,2.81,2.81,0,0,1,2.24.61,2.7,2.7,0,0,1,.95,1.55,2.86,2.86,0,0,1-.14,1.74,2.6,2.6,0,0,1-.8,1.06l0,0a.05.05,0,0,0,0,0l.6,1.6h0A4.47,4.47,0,0,0,164,52.33a4.53,4.53,0,0,0-8.83-.23A4.49,4.49,0,0,0,157.2,57.08Z"/><path class="cls-18" d="M172.71,46.21l.18-.47.42-1.1a0,0,0,0,0,0-.07,2.57,2.57,0,0,1-.8-1,2.73,2.73,0,0,1-.22-.88,2.86,2.86,0,0,1,.11-1,2.7,2.7,0,0,1,.82-1.29,2.66,2.66,0,0,1,1.42-.65,2.75,2.75,0,0,1,2.19.6,2.65,2.65,0,0,1,.93,1.52,2.81,2.81,0,0,1-.14,1.7,2.55,2.55,0,0,1-.78,1l0,0a.05.05,0,0,0,0,0l.59,1.57h0a4.38,4.38,0,0,0,2-4.65,4.44,4.44,0,0,0-8.65-.23A4.4,4.4,0,0,0,172.71,46.21Z"/><path class="cls-18" d="M176.63,20.06l.09-.24.21-.55a0,0,0,0,0,0,0,1.28,1.28,0,0,1-.4-.51,1.36,1.36,0,0,1-.11-.44,1.43,1.43,0,0,1,.05-.52,1.35,1.35,0,0,1,.41-.64,1.33,1.33,0,0,1,.71-.32,1.38,1.38,0,0,1,1.1.3,1.32,1.32,0,0,1,.47.76,1.4,1.4,0,0,1-.07.85,1.28,1.28,0,0,1-.39.52l0,0a0,0,0,0,0,0,0l.3.78h0a2.19,2.19,0,0,0,1-2.33,2.22,2.22,0,0,0-4.33-.11A2.2,2.2,0,0,0,176.63,20.06Z"/><path class="cls-18" d="M183,32.09l.12-.32.28-.75a0,0,0,0,0,0,0,1.75,1.75,0,0,1-.55-.7,1.87,1.87,0,0,1-.15-.6,2,2,0,0,1,.07-.71,1.84,1.84,0,0,1,.56-.88,1.82,1.82,0,0,1,1-.44,1.88,1.88,0,0,1,1.5.41,1.81,1.81,0,0,1,.64,1,1.92,1.92,0,0,1-.09,1.16,1.74,1.74,0,0,1-.54.71l0,0a0,0,0,0,0,0,0l.41,1.07h0a3,3,0,0,0,1.38-3.18,3,3,0,0,0-5.91-.16A3,3,0,0,0,183,32.09Z"/><path class="cls-19" d="M161.41,30.86l.15-.4.35-.92a0,0,0,0,0,0-.05,2.14,2.14,0,0,1-.67-.86,2.28,2.28,0,0,1-.18-.74,2.39,2.39,0,0,1,.09-.87,2.25,2.25,0,0,1,.69-1.07,2.22,2.22,0,0,1,1.18-.54,2.3,2.3,0,0,1,1.83.5,2.21,2.21,0,0,1,.78,1.27,2.34,2.34,0,0,1-.11,1.42,2.13,2.13,0,0,1-.65.87l0,0a0,0,0,0,0,0,0l.5,1.31h0A3.66,3.66,0,0,0,167,27a3.71,3.71,0,0,0-7.23-.19A3.67,3.67,0,0,0,161.41,30.86Z"/><path class="cls-19" d="M174.07,3.43l.08-.2.17-.46a0,0,0,0,0,0,0,1.07,1.07,0,0,1-.33-.43,1.14,1.14,0,0,1-.09-.37,1.19,1.19,0,0,1,0-.43,1.13,1.13,0,0,1,.34-.54,1.11,1.11,0,0,1,.59-.27,1.15,1.15,0,0,1,.92.25,1.11,1.11,0,0,1,.39.63,1.17,1.17,0,0,1-.06.71,1.07,1.07,0,0,1-.33.44h0a0,0,0,0,0,0,0l.25.65h0a1.83,1.83,0,0,0,.84-1.94,1.85,1.85,0,0,0-3.61-.1A1.84,1.84,0,0,0,174.07,3.43Z"/><path class="cls-19" d="M165,15l.1-.27.24-.63a0,0,0,0,0,0,0,1.47,1.47,0,0,1-.46-.59,1.56,1.56,0,0,1-.12-.51,1.63,1.63,0,0,1,.06-.59,1.54,1.54,0,0,1,.47-.73,1.52,1.52,0,0,1,.81-.37,1.57,1.57,0,0,1,1.25.34,1.51,1.51,0,0,1,.53.87,1.6,1.6,0,0,1-.08,1,1.46,1.46,0,0,1-.45.6l0,0a0,0,0,0,0,0,0l.34.89h0a2.5,2.5,0,0,0,1.15-2.66,2.54,2.54,0,0,0-4.94-.13A2.51,2.51,0,0,0,165,15Z"/><rect class="cls-1" x="181.38" y="81.19" width="28.12" height="2.93" rx="1.47" ry="1.47"/><rect class="cls-1" x="181.38" y="90.31" width="28.13" height="2.93" rx="1.47" ry="1.47"/><rect class="cls-1" x="181.38" y="99.44" width="28.13" height="2.93" rx="1.47" ry="1.47"/></g><g id="Layer_2" data-name="Layer 2"><g class="cls-3"><ellipse class="cls-4" cx="128.63" cy="99.83" rx="4.86" ry="5.9"/><ellipse class="cls-5" cx="129.67" cy="100.27" rx="2.27" ry="2.75"/><ellipse class="cls-6" cx="130.83" cy="100.01" rx="0.74" ry="0.89"/><ellipse class="cls-7" cx="126.22" cy="102.3" rx="1.1" ry="1.33"/><ellipse class="cls-6" cx="132.16" cy="99.32" rx="0.42" ry="0.51"/></g></g></svg>