<svg xmlns="http://www.w3.org/2000/svg" width="800" height="500" version="1.2" viewBox="0 0 8192 5118"><title>1-svg</title><style>.s0{fill:#2d2d2d}</style><path id="Layer" fill-rule="evenodd" d="m8192 4371.8v3c-189.1-164.5-381.3-340.3-577.3-519.6-586.3-536.3-1206.4-1103.5-1877.4-1490.1-1479.4-852.5-3206.6-826.4-5364.2 2346.3h-2.7c2158.9-3175.3 3887.4-3201.4 5368.1-2348.2 671.2 386.8 1291.4 954.1 1877.8 1490.4 195.4 178.8 387.1 354.1 575.7 518.2zm0-284.7v2.9c-125.9-103.5-254.6-211.1-385.9-321-705.6-590.2-1488.3-1244.9-2325.2-1661.6-1645.9-819.4-3501.6-718.1-5394 2604h-2.6c1893.4-3324.6 3750.4-3425.9 5397.5-2605.9 837.2 416.8 1620 1071.5 2325.7 1661.8 130.9 109.4 259.1 216.7 384.5 319.8zm0 142.5v2.9c-160.7-135.8-325-279.2-492.7-425.5-642.1-560.4-1335.5-1165.5-2081.2-1566.5-1564.1-840.9-3358.9-783.2-5394.7 2470.9h-2.6c2036.9-3256.7 3833.1-3314.4 5398.4-2472.8 746 401 1439.5 1006.3 2081.6 1566.8 167.2 145.9 330.9 288.8 491.2 424.2zm0 284.1v3c-212.1-190.1-425.9-395.9-643.3-605.2-537.6-517.5-1097-1056-1706.6-1430.1-1393.5-855.2-3049.6-850.2-5307.3 2230h-2.8c2259.2-3082.8 3916.5-3087.7 5311.3-2231.8 609.7 374.2 1169.3 912.8 1707 1430.4 216.9 208.7 430.1 414 641.7 603.7zm0 141.5v3c-230.7-213.4-460.5-447.1-693.3-683.8-495.2-503.7-1003.7-1020.9-1562.5-1384.2-1307.5-850-2891.3-856.9-5227.9 2121.2h-2.8c2338.3-2980.8 3923.4-2973.7 5232-2123 559 363.4 1067.6 880.7 1562.9 1384.5 232.2 236.1 461.4 469.3 691.6 682.3zm-87.5 56.2h-3.2c-214.4-210.9-425.8-439-638.7-668.8-458.1-494.3-923.1-996.1-1439.9-1350.4-1222.5-838-2734.8-849.2-5129.9 2019.1h-2.8c2396.8-2871 3910.4-2859.6 5134.1-2020.9 516.9 354.3 982.1 856.3 1440.3 1350.6 213.3 230.5 425.2 459.1 640.1 670.4zm-131.4 0h-3.1c-179.2-191.2-355.1-393.4-531.3-596-425.1-488.7-852.5-979.9-1334-1326.6-1139.5-820.2-2582.5-829.8-5016.6 1922.6h-3c2436-2755.1 3880.3-2745.4 5020.9-1924.3 481.7 346.8 909.2 838.2 1334.4 1326.9 176.7 203.1 353 405.8 532.7 597.4zm-114.1 0h-3c-145.5-168.9-288.1-344.3-430.5-519.4-395.3-486.2-789.3-970.8-1241-1311.1-1059.2-798-2436-801.5-4890.9 1830.5h-3c2457-2634.7 3835-2631.1 4895.4-1832.2 451.9 340.4 846 825.2 1241.4 1311.4 142.7 175.7 285.7 351.5 431.6 520.8zm-96.9 0h-2.8c-114-144.4-225.9-292.3-337.3-439.6-367.8-486.3-731.6-967.4-1157.7-1302.2-982.3-772.1-2296.3-766.6-4755.3 1741.8h-3.1c2461.2-2511.1 3776.4-2516.4 4759.8-1743.5 426.3 335 790.1 816.1 1158 1302.6 111.9 147.8 224 296.1 338.4 440.9zm429.9-767.2v2.8c-82.7-66.2-166.8-133.8-252.4-202.9-776.8-625.6-1669.6-1344.7-2617.9-1778-1711-781.8-3603.1-632.5-5321.7 2675.3v-4.9c1718.8-3305.6 3611.2-3454.4 5322.7-2672.4 948.5 433.4 1841.4 1152.7 2618.3 1778.4 85.1 68.5 168.8 135.8 251 201.7zm0-143.1v2.8c-28.3-22.1-56.8-44.3-85.5-66.7-853.8-666.2-1884.1-1470.1-2969.1-1920-1738.4-720.8-3617.5-532.7-5137.4 2585.4v-5.1c1520.3-3115.6 3399.6-3303.3 5138.3-2582.3 1085.3 450.1 2115.7 1254 2969.6 1920.3 28.2 22 56.3 43.9 84.1 65.6zm0-143.3v2.8c-913.5-694.6-2068.1-1553.3-3267.6-1998.5-1749.3-649.3-3594-418.3-4924.4 2484.3v-5.3c1331-2899.9 3175.7-3130.3 4925.3-2481 1199.1 445 2353.4 1303.1 3266.7 1997.7zm0-143.6v2.8c-963.4-715.2-2225.1-1594.7-3511.7-2014.3-1740.2-567.7-3525.8-293.4-4680.3 2366.9v-5.6c1155.2-2657.3 2940.8-2931 4681-2363.4 1286.3 419.5 2547.6 1298.5 3511 2013.6zm0-143.8v2.7c-1115.2-808.7-2667.6-1814.8-4173.9-2125.7-1573.4-324.6-3096.4 110-4018.1 2321.1v-5.8c922.4-2208.1 2445.3-2642 4018.6-2317.3 1506.1 310.7 3058.1 1316.4 4173.4 2125zm0-144v2.7c-1136.5-805.7-2763.7-1794.3-4314-2093.4-1566.6-302.2-3054.4 99.7-3878 2105.9v-5.8c824.4-2003.2 2312.1-2404.4 3878.4-2102.2 1550.1 299.1 3176.9 1287.2 4313.6 2092.8zm0-144.1v2.7c-1154.9-800.8-2851.7-1768.9-4442.7-2058.9-620.4-113.1-1224.6-123.1-1774.3 20.1-549.7 143.2-1044.7 439.5-1447 939.2-200.7 249.4-378.3 549.4-528 906.3v-5.8c149.3-354.9 326.4-653.5 526.3-901.9 402.6-500 898.1-796.6 1448.2-940 550.1-143.4 1154.6-133.3 1775.2-20.2 1590.8 290.1 3287.2 1257.7 4442.3 2058.5zm0-144.4v2.7c-1231.6-836-3117.6-1839.1-4815.3-2061.5-582.3-76.3-1142.4-60.7-1646.4 84.9-504 145.6-951.5 421.4-1309 865.4-159.4 198-300.8 429.4-421.3 697.7v-5.5c120.1-266.5 261-496.6 419.5-693.6 357.8-444.4 805.9-720.4 1310.2-866.2 504.3-145.8 1064.7-161.3 1647.3-85 1697.5 222.5 3583.1 1225.1 4815 2061.1zm0-144.5v2.7c-895-595-2154.5-1266.8-3435.6-1678.8-957.2-307.9-1926.3-470.9-2764.3-348.5-837.8 122.3-1544.5 529.9-1976.9 1363-5.1 9.8-10.1 19.7-15.1 29.6v-5c4.4-8.6 8.7-17.1 13.1-25.6 432.7-833.9 1140-1241.8 1978.6-1364.2 838.3-122.4 1807.9 40.6 2765.4 348.6 1280.6 411.9 2539.7 1083.3 3434.8 1678.2zm0-144.7v2.6c-956.7-623.3-2350.3-1321.8-3740.4-1715.4-946.4-268-1891.2-394.7-2695.3-260-741.5 124.2-1363.3 470.6-1756.3 1133.3v-4.4c393.5-661.2 1015-1007 1755.9-1131 804.4-134.7 1749.6-8 2696.3 260.1 1389.8 393.5 2783 1091.6 3739.8 1714.8zm0-144.8v2.6c-1020.2-651.8-2559.3-1375.6-4059.7-1745-930.9-229.2-1846.9-321.9-2614.6-176.4-630.4 119.6-1160.9 399.8-1517.7 897.1v-3.8c357.2-496.2 887.4-776 1517.3-895.4 768.1-145.6 1684.4-52.8 2615.6 176.4 1500 369.3 3038.7 1092.8 4059.1 1744.5zm0-144.9v2.6c-1084.5-679.6-2778.7-1426.3-4387.9-1766-911.3-192.4-1795.2-254.2-2525.4-99.4-519 110-960.3 329.5-1278.7 689.4v-3.4c318.6-359.1 759.6-578.3 1278.2-688.2 730.6-154.9 1614.8-93.1 2526.4 99.4 1608.8 339.6 3302.7 1086 4387.4 1765.6zm-6461.3 2352.4c648.1-629.6 1212.6-1094.1 1709.2-1423-495.8 328.8-1059.3 793.2-1706.1 1422.9zm4616.3-1657.3c403.9 330.3 739.8 810.2 1081.9 1299 83.7 119.6 167.8 239.7 253.3 358.3h-2.8c-85.2-118.2-169-237.9-252.4-357.1-342-488.7-677.8-968.5-1081.5-1298.6-455.6-372.5-997.9-554.3-1733.5-343.3 737.4-212.2 1280-30.6 1735 341.7zm-1735-341.7c-344.6 99.2-731.6 284.3-1172.1 576 440.4-292 827.4-477.1 1172.1-576z" class="s0"/></svg>