<svg xmlns="http://www.w3.org/2000/svg" width="150" height="150" version="1.2" viewBox="0 0 512 512"><title>google-svg</title><style>.s0{fill:#fbbd00}.s1{fill:#0f9d58}.s2{fill:#31aa52}.s3{fill:#3c79e6}.s4{fill:#cf2d48}.s5{fill:#eb4132}</style><g id="Layer"><path id="Layer" d="m139.1 325.5v86.3h-86.3c-34.2-44.5-52.8-98.7-52.8-155.8 0-57.1 18.6-111.3 52.8-155.8h86.3v86.3c-12.1 20.4-19.1 44.1-19.1 69.5 0 25.4 7 49.1 19.1 69.5z" class="s0"/><path id="Layer" d="m325.6 373h86.2v86.2c-44.5 34.2-98.7 52.8-155.8 52.8l-60-60 60-60c25.2 0 49-6.9 69.6-19z" class="s1"/><path id="Layer" d="m256 392v120c-68.4 0-132.7-26.6-181-75-8-8-15.4-16.4-22.2-25.2l86.3-86.3c23.8 39.8 67.3 66.5 116.9 66.5z" class="s2"/><path id="Layer" d="m437 437c-8 8-16.4 15.4-25.2 22.2l-86.2-86.2c21.9-13.1 40.1-32.2 51.9-55.7h-121.5v-120h249.6l2.2 12.3c2.8 15.2 4.2 30.8 4.2 46.4 0 68.4-26.6 132.7-75 181z" class="s3"/><path id="Layer" d="m256 120l-60-60 60-60c68.4 0 132.7 26.6 181 75l10.6 10.6-84.8 84.8-10.6-10.6c-25.7-25.7-59.9-39.8-96.2-39.8z" class="s4"/><path id="Layer" d="m139.1 186.5l-86.3-86.3c6.8-8.8 14.2-17.2 22.2-25.2 48.3-48.4 112.6-75 181-75v120c-49.6 0-93.1 26.7-116.9 66.5z" class="s5"/></g></svg>