<svg xmlns="http://www.w3.org/2000/svg" xmlns:xlink="http://www.w3.org/1999/xlink" id="Layer_1" x="0" y="0" enable-background="new 0 0 566.9 566.9" version="1.1" viewBox="0 0 566.9 566.9" xml:space="preserve"><style type="text/css">.st0{fill:#5629b6}.st1{fill:#63d2d6}</style><path d="M481,177.4c-4,0-7.3-3.3-7.3-7.3v-18.3c-0.1-8.1-6.6-14.6-14.6-14.6H257.9c-4,0-7.3-3.3-7.3-7.3	c0-4,3.3-7.3,7.3-7.3H459c16.1,0.1,29.2,13.1,29.3,29.2v18.3C488.3,174.1,485,177.4,481,177.4L481,177.4z" class="st0"/><path d="M290.8,444.4h-80.2c-4,0-7.3-3.3-7.3-7.3v-6.3c0-9.6,6-17.4,16.9-22c2.9-1.3,4.8-4.1,4.8-7.3	c-0.1-4.6-3.9-8.2-8.5-8.2h-48.6c-4.7-0.1-8.6,3.6-8.7,8.3c0,3.2,1.9,6,4.8,7.2c10.8,4.6,16.8,12.4,16.8,22v6.3c0,4-3.3,7.3-7.3,7.3	h-65.5c-16.1-0.1-29.2-13.1-29.3-29.2v-43.9c0-4,3.3-7.3,7.3-7.3c4,0,7.3,3.3,7.3,7.3v43.9c0.1,8.1,6.6,14.6,14.7,14.6h58.2	c-0.2-1.8-1.4-4.9-7.9-7.6c-8.3-3.6-13.7-11.8-13.7-20.8c0.2-12.6,10.5-22.8,23.1-22.8h49c12.6,0.1,22.8,10.1,23,22.7	c0.1,9.1-5.3,17.4-13.7,20.9c-6.5,2.7-7.7,5.8-7.9,7.6h72.8c4,0,7.3,3.3,7.3,7.3S294.8,444.4,290.8,444.4L290.8,444.4z" class="st0"/><path d="M86,342c-4,0-7.3-3.3-7.3-7.3V151.8c0.1-16.1,13.1-29.2,29.2-29.3h47.6c4,0,7.3,3.3,7.3,7.3	c0,4-3.3,7.3-7.3,7.3h-47.6c-8.1,0-14.6,6.6-14.6,14.6v182.8C93.3,338.7,90,342,86,342C86,342,86,342,86,342z" class="st0"/><path d="M356.3,444.4h-29c-4,0-7.3-3.3-7.3-7.3s3.3-7.3,7.3-7.3h21.6c-0.2-1.8-1.4-4.9-7.9-7.6	c-8.3-3.6-13.8-11.8-13.7-20.8c0.2-12.8,10.7-22.9,23.5-22.8h24.1c4,0,7.3,3.3,7.3,7.3s-3.3,7.3-7.3,7.3h-24.1	c-4.7,0-8.6,3.6-8.7,8.3c0,3.2,1.9,6,4.8,7.2c10.8,4.6,16.8,12.4,16.8,22v6.3C363.6,441.1,360.4,444.4,356.3,444.4L356.3,444.4z" class="st0"/><path d="M393.5,444.4c-4,0-7.3-3.3-7.3-7.3l0,0v-6.3c0-9.6,6-17.4,16.9-22c2.9-1.3,4.8-4.1,4.8-7.3	c-0.1-3.6-2.4-6.7-5.8-7.7c-3.9-1.2-6-5.3-4.8-9.2c1.2-3.9,5.3-6,9.2-4.8l0,0c9.5,2.9,16,11.7,16.1,21.6c0.1,9.1-5.3,17.3-13.7,20.9	c-6.5,2.7-7.7,5.8-7.9,7.6H459c8.1-0.1,14.6-6.6,14.6-14.6V206.7c0-4,3.3-7.3,7.3-7.3s7.3,3.3,7.3,7.3l0,0v208.5	c-0.1,16.1-13.1,29.2-29.3,29.3H393.5z" class="st0"/><path d="M228.6,137.2H192c-4,0-7.3-3.3-7.3-7.3c0-4,3.3-7.3,7.3-7.3h36.6c4,0,7.3,3.3,7.3,7.3	C235.9,133.9,232.6,137.2,228.6,137.2z" class="st0"/><path d="M228.6,224.9c0,18.2-14.8,32.9-32.9,32.9s-32.9-14.8-32.9-32.9c0-18.2,14.7-32.9,32.9-32.9	C213.9,192,228.6,206.7,228.6,224.9L228.6,224.9L228.6,224.9z" class="st1"/><path d="M144.5,309.1c0-28.3,25.6-51.2,51.2-51.2s51.2,22.9,51.2,51.2c0,0-11,14.6-51.2,14.6S144.5,309.1,144.5,309.1z" class="st1"/><path d="M195.7,265.2c-22.2,0-40.2-18-40.2-40.2c0-22.2,18-40.2,40.2-40.2c22.2,0,40.2,18,40.2,40.2c0,0,0,0,0,0	C235.9,247.2,217.9,265.2,195.7,265.2z M195.7,199.3c-14.1,0-25.6,11.5-25.6,25.6s11.5,25.6,25.6,25.6s25.6-11.5,25.6-25.6	C221.3,210.8,209.8,199.4,195.7,199.3z" class="st0"/><path d="M188.4,330.9H188c-36.6-1.8-48.2-15.8-49.4-17.4c-0.9-1.3-1.5-2.8-1.5-4.4c0-31.2,27.4-58.5,58.5-58.5	s58.5,27.3,58.5,58.5c0,1.6-0.5,3.1-1.5,4.4c-0.7,0.9-7.3,9.2-26,14c-3.9,0.9-7.9-1.5-8.8-5.5c-0.9-3.8,1.4-7.6,5.1-8.7	c9-2.3,14-5.5,16.4-7.3c-1.8-23.6-23.9-40.9-43.8-40.9s-42,17.3-43.8,40.9c3.6,2.8,14.2,9.1,36.8,10.2c4,0.1,7.2,3.4,7.1,7.5	C195.7,327.7,192.4,330.9,188.4,330.9L188.4,330.9z" class="st0"/><path d="M378.5,301.8h-87.8c-4,0-7.3-3.3-7.3-7.3s3.3-7.3,7.3-7.3h87.8c4,0,7.3,3.3,7.3,7.3S382.6,301.8,378.5,301.8z" class="st0"/><path d="M422.4,265.2H290.8c-4,0-7.3-3.3-7.3-7.3c0-4,3.3-7.3,7.3-7.3h131.6c4,0,7.3,3.3,7.3,7.3	C429.7,261.9,426.5,265.2,422.4,265.2z" class="st0"/><path d="M422.4,228.6H353c-4,0-7.3-3.3-7.3-7.3s3.3-7.3,7.3-7.3h69.5c4,0,7.3,3.3,7.3,7.3S426.5,228.6,422.4,228.6	L422.4,228.6L422.4,228.6z" class="st0"/><path d="M316.4,228.6h-25.6c-4,0-7.3-3.3-7.3-7.3s3.3-7.3,7.3-7.3h25.6c4,0,7.3,3.3,7.3,7.3S320.4,228.6,316.4,228.6	L316.4,228.6z" class="st0"/></svg>