<svg xmlns="http://www.w3.org/2000/svg" xmlns:xlink="http://www.w3.org/1999/xlink" id="Layer_1" x="0" y="0" enable-background="new 0 0 566.9 566.9" version="1.1" viewBox="0 0 566.9 566.9" xml:space="preserve"><style type="text/css">.st0{fill:#63d2d6}.st1{fill:#5629b6}</style><path d="M184.8,411.5h197.5c4,0,7.3,3.3,7.3,7.3l0,0v14.6c0,4-3.3,7.3-7.3,7.3H184.8c-4,0-7.3-3.3-7.3-7.3v-14.6	C177.5,414.7,180.8,411.5,184.8,411.5L184.8,411.5z" class="st0"/><path d="M254.7,159.1c0,8.1-6.6,14.6-14.6,14.6c-8.1,0-14.6-6.6-14.6-14.6c0-8.1,6.5-14.6,14.6-14.6	C248.1,144.5,254.6,151,254.7,159.1C254.6,159.1,254.6,159.1,254.7,159.1L254.7,159.1z" class="st0"/><path d="M171.1,253.4h-0.5c-7.5-0.2-14.3-4.5-20.8-13.1c-14.1-18.8-7.7-30.2,3.7-45.3c1.9-2.5,6-7.9,13.1-16.8	c2.6-3.1,7.3-3.4,10.3-0.8c2.9,2.5,3.4,6.7,1.2,9.8c-6.8,8.7-11,14.1-12.8,16.5c-10.4,13.9-11.6,17.2-3.7,27.8	c5.4,7.2,8.4,7.2,9.5,7.3c2.9,0.1,8.9-2.4,19.3-14.9c19.1-22.9,43.7-29.4,65.8-17.4c0.7,0.4,1.5,0.8,2.2,1.2	c8.2,4.9,17.9,5.6,24.7,1.8c7.6-4.3,11.6-14.2,11.6-28.5c0-4,3.3-7.3,7.3-7.3s7.3,3.3,7.3,7.3c0,25.1-10.4,36.3-19.1,41.2	c-11.5,6.5-26.6,5.7-39.6-2c-0.6-0.3-1-0.6-1.5-0.8c-15.8-8.6-33.2-3.5-47.7,13.9C189.8,247.2,180.4,253.5,171.1,253.4L171.1,253.4z" class="st1"/><path d="M371.4,319.5c-4,0-7.3-3.3-7.3-7.4c0-3.2,2.2-6.1,5.3-7l56.3-16.1c-3.5-33.5-13.4-66-29-95.8	c-1.9-3.6-0.5-8,3.1-9.9s8-0.5,9.9,3.1l0,0c17.5,33.3,28.1,69.8,31.2,107.3c0.3,3.5-1.9,6.7-5.3,7.6l-62.2,17.8	c-0.6,0.2-1.3,0.3-2,0.3V319.5z" class="st1"/><path d="M386.2,170.2c-2.3,0-4.5-1.1-5.9-3c-11.8-16.3-25.8-30.9-41.6-43.4c-8-6.3-16.4-12.2-25.1-17.4	c-16.4-10.2-34.2-18-52.8-23.1c-3.4,4.3-9.6,12.1-17.3,21.6c-14.2,17.8-33.4,41.8-49.4,61.9c-2.6,3.1-7.2,3.6-10.3,1	c-3.1-2.5-3.6-7-1.1-10.1c16-20.1,35.2-44.2,49.4-61.9c11.9-14.9,20.3-25.4,20.3-25.4c1.8-2.2,4.7-3.2,7.5-2.5	c21.6,5.5,42.3,14.3,61.3,26c9.3,5.6,18.2,11.7,26.6,18.5c16.8,13.3,31.7,28.9,44.3,46.2c2.4,3.3,1.6,7.8-1.6,10.2	C389.2,169.7,387.7,170.2,386.2,170.2L386.2,170.2z" class="st1"/><path d="M313.2,389.5H195.8c-4,0-7.2-3.2-7.3-7.2c-0.3-13.8,0.4-27.5,1.9-41.2c0.5-4,4.1-6.9,8.1-6.4s6.9,4.1,6.4,8.1	c-1.2,10.7-1.8,21.4-1.9,32.1h110.1c4,0.1,7.2,3.5,7,7.6C320.1,386.3,317,389.4,313.2,389.5z" class="st1"/><path d="M289.4,135.3c-1.4,0-2.8-0.4-4-1.2c-16.1-10.4-33-19.5-50.6-27c-3.7-1.6-5.4-5.9-3.8-9.6s5.9-5.4,9.6-3.8	c18.4,7.9,36.1,17.3,52.8,28.2c3.4,2.2,4.3,6.7,2.1,10.1C294.2,134.1,291.9,135.3,289.4,135.3L289.4,135.3z" class="st1"/><path d="M371.4,389.5h-21.6c-4,0-7.3-3.3-7.3-7.3s3.3-7.3,7.3-7.3H364v-95.1c0-41.6-6.6-85.8-54.4-127.4	c-3.2-2.4-3.9-7-1.5-10.2s7-3.9,10.2-1.5c0.3,0.2,0.6,0.5,0.8,0.7c52.4,45.6,59.5,95.6,59.5,138.4v102.4	C378.6,386.2,375.4,389.5,371.4,389.5L371.4,389.5L371.4,389.5z" class="st1"/><path d="M210,312.7c-4,0-7.3-3.3-7.3-7.3c0-1.3,0.4-2.7,1.1-3.8c6.7-10.9,14.5-21.1,23.2-30.4	c17.2-19.1,23.2-37.5,18.4-56.4c-1-3.9,1.4-7.9,5.3-8.9s7.9,1.4,8.9,5.3l0,0c6.1,23.6-1.2,47.2-21.8,69.9	c-8.1,8.6-15.3,18.1-21.6,28.2C214.9,311.4,212.6,312.7,210,312.7L210,312.7z" class="st1"/><path d="M184.9,418.8c-8.1,0-14.6-6.6-14.6-14.6v-14.6c0-8.1,6.6-14.6,14.6-14.6h128.3c4,0,7.3,3.3,7.3,7.3	s-3.3,7.3-7.3,7.3H184.9v14.6h197.5v-14.6h-32.6c-4,0-7.3-3.3-7.3-7.3s3.3-7.3,7.3-7.3h32.6c8.1,0,14.6,6.5,14.7,14.6v14.6	c0,8.1-6.6,14.6-14.6,14.6H184.9z" class="st1"/><path d="M262,448c-4,0-7.3-3.3-7.3-7.3s3.3-7.3,7.3-7.3h120.3v-14.6H184.9v14.6h40.5c4,0,7.3,3.3,7.3,7.3	s-3.3,7.3-7.3,7.3l0,0h-40.5c-8.1,0-14.6-6.6-14.6-14.6v-14.6c0-8.1,6.6-14.6,14.6-14.6h197.5c8.1,0,14.6,6.5,14.7,14.6v14.6	c0,8.1-6.6,14.6-14.6,14.6H262z" class="st1"/><path d="M283.9,477.3h-99.1c-8.1,0-14.6-6.6-14.6-14.6V448c0-8.1,6.6-14.6,14.6-14.6h47.9c4,0,7.3,3.3,7.3,7.3	s-3.3,7.3-7.3,7.3h-47.9v14.6h99.1c4,0,7.3,3.3,7.3,7.3S288,477.3,283.9,477.3L283.9,477.3z" class="st1"/><path d="M320.5,477.3c-4,0-7.3-3.3-7.3-7.3s3.3-7.3,7.3-7.3h61.8V448H262c-4,0-7.3-3.3-7.3-7.3s3.3-7.3,7.3-7.3h120.3	c8.1,0,14.6,6.6,14.7,14.6v14.6c0,8.1-6.6,14.6-14.6,14.6L320.5,477.3z" class="st1"/><path d="M239.7,181.1c-12.1,0-21.9-9.8-21.9-22c0-12.1,9.8-21.9,22-21.9c12.1,0,21.9,9.8,21.9,21.9	C261.6,171.2,251.8,181,239.7,181.1L239.7,181.1z M239.7,151.8c-4,0-7.3,3.3-7.3,7.3s3.3,7.3,7.3,7.3s7.3-3.3,7.3-7.3	S243.7,151.8,239.7,151.8z" class="st1"/></svg>